<?xml version="1.0" encoding="UTF-8" standalone="no"?>
<!DOCTYPE svg PUBLIC "-//W3C//DTD SVG 1.1//EN"
 "http://www.w3.org/Graphics/SVG/1.1/DTD/svg11.dtd">
<!-- Generated by graphviz version 2.40.1 (20161225.0304)
 -->
<!-- Title: InheritanceGraph Pages: 1 -->
<svg width="274pt" height="102pt"
 viewBox="0.00 0.00 273.75 102.00" xmlns="http://www.w3.org/2000/svg" xmlns:xlink="http://www.w3.org/1999/xlink">
<g id="graph0" class="graph" transform="scale(1 1) rotate(0) translate(4 98)">
<title>InheritanceGraph</title>
<g id="clust1" class="cluster">
<title>cluster_builtins</title>
<path fill="transparent" stroke="#bcd2ee" stroke-width="2" stroke-dasharray="5,2" d="M20,-19C20,-19 54.6846,-19 54.6846,-19 60.6846,-19 66.6846,-25 66.6846,-31 66.6846,-31 66.6846,-62 66.6846,-62 66.6846,-68 60.6846,-74 54.6846,-74 54.6846,-74 20,-74 20,-74 14,-74 8,-68 8,-62 8,-62 8,-31 8,-31 8,-25 14,-19 20,-19"/>
<text text-anchor="middle" x="37.3423" y="-62" font-family="Arial" font-size="10.00" fill="#000000">builtins</text>
</g>
<g id="clust2" class="cluster">
<title>cluster_tsmakers</title>
<path fill="transparent" stroke="#bcd2ee" stroke-width="2" stroke-dasharray="5,2" d="M98.6846,-8C98.6846,-8 245.7549,-8 245.7549,-8 251.7549,-8 257.7549,-14 257.7549,-20 257.7549,-20 257.7549,-74 257.7549,-74 257.7549,-80 251.7549,-86 245.7549,-86 245.7549,-86 98.6846,-86 98.6846,-86 92.6846,-86 86.6846,-80 86.6846,-74 86.6846,-74 86.6846,-20 86.6846,-20 86.6846,-14 92.6846,-8 98.6846,-8"/>
<text text-anchor="middle" x="172.2197" y="-74" font-family="Arial" font-size="10.00" fill="#000000">tsmakers</text>
</g>
<!-- builtins.object&#45;&gt;tsmakers.TimespanMaker.TimespanMaker -->
<g id="edge2" class="edge">
<title>builtins.object&#45;&gt;tsmakers.TimespanMaker.TimespanMaker</title>
<path fill="none" stroke="#778899" d="M58.8751,-37C66.6245,-37 75.6361,-37 84.4522,-37"/>
<polygon fill="#778899" stroke="#778899" points="84.6243,-40.5001 94.6243,-37 84.6243,-33.5001 84.6243,-40.5001"/>
</g>
<!-- tsmakers.TimespanMaker.TimespanMaker&#45;&gt;tsmakers.TaleaTimespanMaker.TaleaTimespanMaker -->
<g id="edge1" class="edge">
<title>tsmakers.TimespanMaker.TimespanMaker&#45;&gt;tsmakers.TaleaTimespanMaker.TaleaTimespanMaker</title>
<path fill="none" stroke="#778899" d="M154.1564,-37C162.4239,-37 171.5381,-37 180.2812,-37"/>
<polygon fill="#778899" stroke="#778899" points="180.3015,-40.5001 190.3014,-37 180.3014,-33.5001 180.3015,-40.5001"/>
</g>
<!-- builtins.object -->
<g id="node1" class="node">
<title>builtins.object</title>
<g id="a_node1"><a xlink:href="https://docs.python.org/3.7/library/functions.html#object" xlink:title="object" target="_top">
<path fill="#fbb4ae" stroke="#fbb4ae" stroke-width="2" d="M51.8576,-47.0056C51.8576,-47.0056 22.8269,-47.0056 22.8269,-47.0056 19.4918,-47.0056 16.1566,-43.6704 16.1566,-40.3352 16.1566,-40.3352 16.1566,-33.6648 16.1566,-33.6648 16.1566,-30.3296 19.4918,-26.9944 22.8269,-26.9944 22.8269,-26.9944 51.8576,-26.9944 51.8576,-26.9944 55.1928,-26.9944 58.528,-30.3296 58.528,-33.6648 58.528,-33.6648 58.528,-40.3352 58.528,-40.3352 58.528,-43.6704 55.1928,-47.0056 51.8576,-47.0056"/>
<text text-anchor="middle" x="37.3423" y="-34.7495" font-family="Arial" font-size="10.00" fill="#000000">object</text>
</a>
</g>
</g>
<!-- tsmakers.TaleaTimespanMaker.TaleaTimespanMaker -->
<g id="node2" class="node">
<title>tsmakers.TaleaTimespanMaker.TaleaTimespanMaker</title>
<g id="a_node2"><a xlink:href="../api/tsmakers/TaleaTimespanMaker.html#tsmakers.TaleaTimespanMaker.TaleaTimespanMaker" xlink:title="Talea\nTimespan\nMaker" target="_top">
<path fill="#000000" stroke="#000000" stroke-width="2" d="M237.5243,-58.5C237.5243,-58.5 202.4503,-58.5 202.4503,-58.5 196.4503,-58.5 190.4503,-52.5 190.4503,-46.5 190.4503,-46.5 190.4503,-27.5 190.4503,-27.5 190.4503,-21.5 196.4503,-15.5 202.4503,-15.5 202.4503,-15.5 237.5243,-15.5 237.5243,-15.5 243.5243,-15.5 249.5243,-21.5 249.5243,-27.5 249.5243,-27.5 249.5243,-46.5 249.5243,-46.5 249.5243,-52.5 243.5243,-58.5 237.5243,-58.5"/>
<text text-anchor="middle" x="219.9873" y="-46.2485" font-family="Arial" font-size="10.00" fill="#ffffff">Talea</text>
<text text-anchor="middle" x="219.9873" y="-34.7495" font-family="Arial" font-size="10.00" fill="#ffffff">Timespan</text>
<text text-anchor="middle" x="219.9873" y="-23.2505" font-family="Arial" font-size="10.00" fill="#ffffff">Maker</text>
</a>
</g>
</g>
<!-- tsmakers.TimespanMaker.TimespanMaker -->
<g id="node3" class="node">
<title>tsmakers.TimespanMaker.TimespanMaker</title>
<g id="a_node3"><a xlink:href="../api/tsmakers/TimespanMaker.html#tsmakers.TimespanMaker.TimespanMaker" xlink:title="Timespan\nMaker" target="_top">
<path fill="#b3cde3" stroke="#b3cde3" stroke-width="2" d="M143.6571,-52.498C143.6571,-52.498 105.2472,-52.498 105.2472,-52.498 100.0812,-52.498 94.9152,-47.332 94.9152,-42.166 94.9152,-42.166 94.9152,-31.834 94.9152,-31.834 94.9152,-26.668 100.0812,-21.502 105.2472,-21.502 105.2472,-21.502 143.6571,-21.502 143.6571,-21.502 148.8231,-21.502 153.9891,-26.668 153.9891,-31.834 153.9891,-31.834 153.9891,-42.166 153.9891,-42.166 153.9891,-47.332 148.8231,-52.498 143.6571,-52.498"/>
<text text-anchor="middle" x="124.4521" y="-40.499" font-family="Arial" font-size="10.00" fill="#000000">Timespan</text>
<text text-anchor="middle" x="124.4521" y="-29" font-family="Arial" font-size="10.00" fill="#000000">Maker</text>
</a>
</g>
</g>
</g>
</svg>
