<?xml version="1.0" encoding="UTF-8" standalone="no"?>
<!DOCTYPE svg PUBLIC "-//W3C//DTD SVG 1.1//EN"
 "http://www.w3.org/Graphics/SVG/1.1/DTD/svg11.dtd">
<!-- Generated by graphviz version 2.40.1 (20161225.0304)
 -->
<!-- Title: InheritanceGraph Pages: 1 -->
<svg width="280pt" height="260pt"
 viewBox="0.00 0.00 279.71 260.00" xmlns="http://www.w3.org/2000/svg" xmlns:xlink="http://www.w3.org/1999/xlink">
<g id="graph0" class="graph" transform="scale(1 1) rotate(0) translate(4 256)">
<title>InheritanceGraph</title>
<g id="clust1" class="cluster">
<title>cluster_abjadext.microtones.ji_utilities</title>
<path fill="transparent" stroke="#bcd2ee" stroke-width="2" stroke-dasharray="5,2" d="M135.6846,-8C135.6846,-8 259.709,-8 259.709,-8 265.709,-8 271.709,-14 271.709,-20 271.709,-20 271.709,-232 271.709,-232 271.709,-238 265.709,-244 259.709,-244 259.709,-244 135.6846,-244 135.6846,-244 129.6846,-244 123.6846,-238 123.6846,-232 123.6846,-232 123.6846,-20 123.6846,-20 123.6846,-14 129.6846,-8 135.6846,-8"/>
<text text-anchor="middle" x="197.6968" y="-232" font-family="Arial" font-size="10.00" fill="#000000">abjadext.microtones.ji_utilities</text>
</g>
<g id="clust2" class="cluster">
<title>cluster_builtins</title>
<path fill="transparent" stroke="#bcd2ee" stroke-width="2" stroke-dasharray="5,2" d="M20,-89C20,-89 54.6846,-89 54.6846,-89 60.6846,-89 66.6846,-95 66.6846,-101 66.6846,-101 66.6846,-132 66.6846,-132 66.6846,-138 60.6846,-144 54.6846,-144 54.6846,-144 20,-144 20,-144 14,-144 8,-138 8,-132 8,-132 8,-101 8,-101 8,-95 14,-89 20,-89"/>
<text text-anchor="middle" x="37.3423" y="-132" font-family="Arial" font-size="10.00" fill="#000000">builtins</text>
</g>
<!-- builtins.object&#45;&gt;abjadext.microtones.ji_utilities.RatioClassSegment -->
<g id="edge1" class="edge">
<title>builtins.object&#45;&gt;abjadext.microtones.ji_utilities.RatioClassSegment</title>
<path fill="none" stroke="#778899" d="M50.2703,-116.9294C66.7074,-129.2556 96.2547,-150.4289 123.6846,-165 135.1637,-171.0979 148.1611,-176.7528 160.0252,-181.4715"/>
<polygon fill="#778899" stroke="#778899" points="159.0772,-184.8576 169.6664,-185.2041 161.6045,-178.3297 159.0772,-184.8576"/>
</g>
<!-- builtins.object&#45;&gt;abjadext.microtones.ji_utilities.RatioClassSet -->
<g id="edge2" class="edge">
<title>builtins.object&#45;&gt;abjadext.microtones.ji_utilities.RatioClassSet</title>
<path fill="none" stroke="#778899" d="M58.6361,-110.7182C86.4208,-115.5698 135.2317,-124.0928 167.0089,-129.6415"/>
<polygon fill="#778899" stroke="#778899" points="166.6245,-133.1272 177.0775,-131.3996 167.8286,-126.2316 166.6245,-133.1272"/>
</g>
<!-- builtins.object&#45;&gt;abjadext.microtones.ji_utilities.RatioSegment -->
<g id="edge3" class="edge">
<title>builtins.object&#45;&gt;abjadext.microtones.ji_utilities.RatioSegment</title>
<path fill="none" stroke="#778899" d="M58.6361,-103.4146C84.2777,-99.0972 127.8267,-91.7645 159.3689,-86.4535"/>
<polygon fill="#778899" stroke="#778899" points="160.2823,-89.8491 169.5623,-84.7372 159.1199,-82.9463 160.2823,-89.8491"/>
</g>
<!-- builtins.object&#45;&gt;abjadext.microtones.ji_utilities.RatioSet -->
<g id="edge4" class="edge">
<title>builtins.object&#45;&gt;abjadext.microtones.ji_utilities.RatioSet</title>
<path fill="none" stroke="#778899" d="M51.8094,-97.1849C68.5631,-86.1239 97.2529,-68.1107 123.6846,-56 137.8332,-49.5173 154.1684,-43.8232 167.8872,-39.5133"/>
<polygon fill="#778899" stroke="#778899" points="169.2424,-42.7593 177.7885,-36.4971 167.2026,-36.0631 169.2424,-42.7593"/>
</g>
<!-- abjadext.microtones.ji_utilities.RatioClassSegment -->
<g id="node1" class="node">
<title>abjadext.microtones.ji_utilities.RatioClassSegment</title>
<g id="a_node1"><a xlink:href="../api/abjadext/microtones/ji_utilities.html#abjadext.microtones.ji_utilities.RatioClassSegment" xlink:title="Ratio\nClass\nSegment" target="_top">
<path fill="#000000" stroke="#000000" stroke-width="2" d="M213.7212,-216.5C213.7212,-216.5 181.6724,-216.5 181.6724,-216.5 175.6724,-216.5 169.6724,-210.5 169.6724,-204.5 169.6724,-204.5 169.6724,-185.5 169.6724,-185.5 169.6724,-179.5 175.6724,-173.5 181.6724,-173.5 181.6724,-173.5 213.7212,-173.5 213.7212,-173.5 219.7212,-173.5 225.7212,-179.5 225.7212,-185.5 225.7212,-185.5 225.7212,-204.5 225.7212,-204.5 225.7212,-210.5 219.7212,-216.5 213.7212,-216.5"/>
<text text-anchor="middle" x="197.6968" y="-204.2485" font-family="Arial" font-size="10.00" fill="#ffffff">Ratio</text>
<text text-anchor="middle" x="197.6968" y="-192.7495" font-family="Arial" font-size="10.00" fill="#ffffff">Class</text>
<text text-anchor="middle" x="197.6968" y="-181.2505" font-family="Arial" font-size="10.00" fill="#ffffff">Segment</text>
</a>
</g>
</g>
<!-- abjadext.microtones.ji_utilities.RatioClassSet -->
<g id="node2" class="node">
<title>abjadext.microtones.ji_utilities.RatioClassSet</title>
<g id="a_node2"><a xlink:href="../api/abjadext/microtones/ji_utilities.html#abjadext.microtones.ji_utilities.RatioClassSet" xlink:title="Ratio\nClass\nSet" target="_top">
<path fill="#000000" stroke="#000000" stroke-width="2" d="M206.2017,-156.5C206.2017,-156.5 189.1919,-156.5 189.1919,-156.5 183.1919,-156.5 177.1919,-150.5 177.1919,-144.5 177.1919,-144.5 177.1919,-125.5 177.1919,-125.5 177.1919,-119.5 183.1919,-113.5 189.1919,-113.5 189.1919,-113.5 206.2017,-113.5 206.2017,-113.5 212.2017,-113.5 218.2017,-119.5 218.2017,-125.5 218.2017,-125.5 218.2017,-144.5 218.2017,-144.5 218.2017,-150.5 212.2017,-156.5 206.2017,-156.5"/>
<text text-anchor="middle" x="197.6968" y="-144.2485" font-family="Arial" font-size="10.00" fill="#ffffff">Ratio</text>
<text text-anchor="middle" x="197.6968" y="-132.7495" font-family="Arial" font-size="10.00" fill="#ffffff">Class</text>
<text text-anchor="middle" x="197.6968" y="-121.2505" font-family="Arial" font-size="10.00" fill="#ffffff">Set</text>
</a>
</g>
</g>
<!-- abjadext.microtones.ji_utilities.RatioSegment -->
<g id="node3" class="node">
<title>abjadext.microtones.ji_utilities.RatioSegment</title>
<g id="a_node3"><a xlink:href="../api/abjadext/microtones/ji_utilities.html#abjadext.microtones.ji_utilities.RatioSegment" xlink:title="Ratio\nSegment" target="_top">
<path fill="#000000" stroke="#000000" stroke-width="2" d="M215.3892,-95.498C215.3892,-95.498 180.0044,-95.498 180.0044,-95.498 174.8384,-95.498 169.6724,-90.332 169.6724,-85.166 169.6724,-85.166 169.6724,-74.834 169.6724,-74.834 169.6724,-69.668 174.8384,-64.502 180.0044,-64.502 180.0044,-64.502 215.3892,-64.502 215.3892,-64.502 220.5552,-64.502 225.7212,-69.668 225.7212,-74.834 225.7212,-74.834 225.7212,-85.166 225.7212,-85.166 225.7212,-90.332 220.5552,-95.498 215.3892,-95.498"/>
<text text-anchor="middle" x="197.6968" y="-83.499" font-family="Arial" font-size="10.00" fill="#ffffff">Ratio</text>
<text text-anchor="middle" x="197.6968" y="-72" font-family="Arial" font-size="10.00" fill="#ffffff">Segment</text>
</a>
</g>
</g>
<!-- abjadext.microtones.ji_utilities.RatioSet -->
<g id="node4" class="node">
<title>abjadext.microtones.ji_utilities.RatioSet</title>
<g id="a_node4"><a xlink:href="../api/abjadext/microtones/ji_utilities.html#abjadext.microtones.ji_utilities.RatioSet" xlink:title="Ratio\nSet" target="_top">
<path fill="#000000" stroke="#000000" stroke-width="2" d="M207.211,-46.498C207.211,-46.498 188.1826,-46.498 188.1826,-46.498 183.0165,-46.498 177.8505,-41.332 177.8505,-36.166 177.8505,-36.166 177.8505,-25.834 177.8505,-25.834 177.8505,-20.668 183.0165,-15.502 188.1826,-15.502 188.1826,-15.502 207.211,-15.502 207.211,-15.502 212.377,-15.502 217.543,-20.668 217.543,-25.834 217.543,-25.834 217.543,-36.166 217.543,-36.166 217.543,-41.332 212.377,-46.498 207.211,-46.498"/>
<text text-anchor="middle" x="197.6968" y="-34.499" font-family="Arial" font-size="10.00" fill="#ffffff">Ratio</text>
<text text-anchor="middle" x="197.6968" y="-23" font-family="Arial" font-size="10.00" fill="#ffffff">Set</text>
</a>
</g>
</g>
<!-- builtins.object -->
<g id="node5" class="node">
<title>builtins.object</title>
<g id="a_node5"><a xlink:href="https://docs.python.org/3.7/library/functions.html#object" xlink:title="object" target="_top">
<path fill="#b3cde3" stroke="#b3cde3" stroke-width="2" d="M51.8576,-117.0056C51.8576,-117.0056 22.8269,-117.0056 22.8269,-117.0056 19.4918,-117.0056 16.1566,-113.6704 16.1566,-110.3352 16.1566,-110.3352 16.1566,-103.6648 16.1566,-103.6648 16.1566,-100.3296 19.4918,-96.9944 22.8269,-96.9944 22.8269,-96.9944 51.8576,-96.9944 51.8576,-96.9944 55.1928,-96.9944 58.528,-100.3296 58.528,-103.6648 58.528,-103.6648 58.528,-110.3352 58.528,-110.3352 58.528,-113.6704 55.1928,-117.0056 51.8576,-117.0056"/>
<text text-anchor="middle" x="37.3423" y="-104.7495" font-family="Arial" font-size="10.00" fill="#000000">object</text>
</a>
</g>
</g>
</g>
</svg>
