<?xml version="1.0" encoding="UTF-8" standalone="no"?>
<!DOCTYPE svg PUBLIC "-//W3C//DTD SVG 1.1//EN"
 "http://www.w3.org/Graphics/SVG/1.1/DTD/svg11.dtd">
<!-- Generated by graphviz version 2.40.1 (20161225.0304)
 -->
<!-- Title: InheritanceGraph Pages: 1 -->
<svg width="226pt" height="176pt"
 viewBox="0.00 0.00 225.81 176.00" xmlns="http://www.w3.org/2000/svg" xmlns:xlink="http://www.w3.org/1999/xlink">
<g id="graph0" class="graph" transform="scale(1 1) rotate(0) translate(4 172)">
<title>InheritanceGraph</title>
<g id="clust1" class="cluster">
<title>cluster_builtins</title>
<path fill="transparent" stroke="#bcd2ee" stroke-width="2" stroke-dasharray="5,2" d="M20,-62C20,-62 54.6846,-62 54.6846,-62 60.6846,-62 66.6846,-68 66.6846,-74 66.6846,-74 66.6846,-105 66.6846,-105 66.6846,-111 60.6846,-117 54.6846,-117 54.6846,-117 20,-117 20,-117 14,-117 8,-111 8,-105 8,-105 8,-74 8,-74 8,-68 14,-62 20,-62"/>
<text text-anchor="middle" x="37.3423" y="-105" font-family="Arial" font-size="10.00" fill="#000000">builtins</text>
</g>
<g id="clust2" class="cluster">
<title>cluster_evans.commands</title>
<path fill="transparent" stroke="#bcd2ee" stroke-width="2" stroke-dasharray="5,2" d="M135.6846,-8C135.6846,-8 205.8125,-8 205.8125,-8 211.8125,-8 217.8125,-14 217.8125,-20 217.8125,-20 217.8125,-148 217.8125,-148 217.8125,-154 211.8125,-160 205.8125,-160 205.8125,-160 135.6846,-160 135.6846,-160 129.6846,-160 123.6846,-154 123.6846,-148 123.6846,-148 123.6846,-20 123.6846,-20 123.6846,-14 129.6846,-8 135.6846,-8"/>
<text text-anchor="middle" x="170.7485" y="-148" font-family="Arial" font-size="10.00" fill="#000000">evans.commands</text>
</g>
<!-- builtins.object&#45;&gt;evans.commands.Command -->
<g id="edge1" class="edge">
<title>builtins.object&#45;&gt;evans.commands.Command</title>
<path fill="none" stroke="#778899" d="M58.7763,-86.9087C78.1105,-93.1406 107.0522,-102.4692 130.6679,-110.081"/>
<polygon fill="#778899" stroke="#778899" points="129.8277,-113.4875 140.4192,-113.2241 131.9752,-106.825 129.8277,-113.4875"/>
</g>
<!-- builtins.object&#45;&gt;evans.commands.HandlerCommand -->
<g id="edge2" class="edge">
<title>builtins.object&#45;&gt;evans.commands.HandlerCommand</title>
<path fill="none" stroke="#778899" d="M58.7763,-80C77.7675,-80 106.0285,-80 129.4062,-80"/>
<polygon fill="#778899" stroke="#778899" points="129.4181,-83.5001 139.418,-80 129.418,-76.5001 129.4181,-83.5001"/>
</g>
<!-- builtins.object&#45;&gt;evans.commands.RhythmCommand -->
<g id="edge3" class="edge">
<title>builtins.object&#45;&gt;evans.commands.RhythmCommand</title>
<path fill="none" stroke="#778899" d="M58.7763,-72.1273C77.8527,-65.1206 106.2821,-54.6785 129.7204,-46.0696"/>
<polygon fill="#778899" stroke="#778899" points="131.2379,-49.2409 139.418,-42.5077 128.8244,-42.6701 131.2379,-49.2409"/>
</g>
<!-- builtins.object -->
<g id="node1" class="node">
<title>builtins.object</title>
<g id="a_node1"><a xlink:href="https://docs.python.org/3.7/library/functions.html#object" xlink:title="object" target="_top">
<path fill="#fbb4ae" stroke="#fbb4ae" stroke-width="2" d="M51.8576,-90.0056C51.8576,-90.0056 22.8269,-90.0056 22.8269,-90.0056 19.4918,-90.0056 16.1566,-86.6704 16.1566,-83.3352 16.1566,-83.3352 16.1566,-76.6648 16.1566,-76.6648 16.1566,-73.3296 19.4918,-69.9944 22.8269,-69.9944 22.8269,-69.9944 51.8576,-69.9944 51.8576,-69.9944 55.1928,-69.9944 58.528,-73.3296 58.528,-76.6648 58.528,-76.6648 58.528,-83.3352 58.528,-83.3352 58.528,-86.6704 55.1928,-90.0056 51.8576,-90.0056"/>
<text text-anchor="middle" x="37.3423" y="-77.7495" font-family="Arial" font-size="10.00" fill="#000000">object</text>
</a>
</g>
</g>
<!-- evans.commands.Command -->
<g id="node2" class="node">
<title>evans.commands.Command</title>
<g id="a_node2"><a xlink:href="../api/evans/commands.html#evans.commands.Command" xlink:title="Command" target="_top">
<path fill="#000000" stroke="#000000" stroke-width="2" d="M195.2062,-133.0056C195.2062,-133.0056 146.2909,-133.0056 146.2909,-133.0056 142.9557,-133.0056 139.6205,-129.6704 139.6205,-126.3352 139.6205,-126.3352 139.6205,-119.6648 139.6205,-119.6648 139.6205,-116.3296 142.9557,-112.9944 146.2909,-112.9944 146.2909,-112.9944 195.2062,-112.9944 195.2062,-112.9944 198.5414,-112.9944 201.8766,-116.3296 201.8766,-119.6648 201.8766,-119.6648 201.8766,-126.3352 201.8766,-126.3352 201.8766,-129.6704 198.5414,-133.0056 195.2062,-133.0056"/>
<text text-anchor="middle" x="170.7485" y="-120.7495" font-family="Arial" font-size="10.00" fill="#ffffff">Command</text>
</a>
</g>
</g>
<!-- evans.commands.HandlerCommand -->
<g id="node3" class="node">
<title>evans.commands.HandlerCommand</title>
<g id="a_node3"><a xlink:href="../api/evans/commands.html#evans.commands.HandlerCommand" xlink:title="Handler\nCommand" target="_top">
<path fill="#000000" stroke="#000000" stroke-width="2" d="M191.5446,-95.498C191.5446,-95.498 149.9525,-95.498 149.9525,-95.498 144.7865,-95.498 139.6205,-90.332 139.6205,-85.166 139.6205,-85.166 139.6205,-74.834 139.6205,-74.834 139.6205,-69.668 144.7865,-64.502 149.9525,-64.502 149.9525,-64.502 191.5446,-64.502 191.5446,-64.502 196.7106,-64.502 201.8766,-69.668 201.8766,-74.834 201.8766,-74.834 201.8766,-85.166 201.8766,-85.166 201.8766,-90.332 196.7106,-95.498 191.5446,-95.498"/>
<text text-anchor="middle" x="170.7485" y="-83.499" font-family="Arial" font-size="10.00" fill="#ffffff">Handler</text>
<text text-anchor="middle" x="170.7485" y="-72" font-family="Arial" font-size="10.00" fill="#ffffff">Command</text>
</a>
</g>
</g>
<!-- evans.commands.RhythmCommand -->
<g id="node4" class="node">
<title>evans.commands.RhythmCommand</title>
<g id="a_node4"><a xlink:href="../api/evans/commands.html#evans.commands.RhythmCommand" xlink:title="Rhythm\nCommand" target="_top">
<path fill="#000000" stroke="#000000" stroke-width="2" d="M191.5446,-46.498C191.5446,-46.498 149.9525,-46.498 149.9525,-46.498 144.7865,-46.498 139.6205,-41.332 139.6205,-36.166 139.6205,-36.166 139.6205,-25.834 139.6205,-25.834 139.6205,-20.668 144.7865,-15.502 149.9525,-15.502 149.9525,-15.502 191.5446,-15.502 191.5446,-15.502 196.7106,-15.502 201.8766,-20.668 201.8766,-25.834 201.8766,-25.834 201.8766,-36.166 201.8766,-36.166 201.8766,-41.332 196.7106,-46.498 191.5446,-46.498"/>
<text text-anchor="middle" x="170.7485" y="-34.499" font-family="Arial" font-size="10.00" fill="#ffffff">Rhythm</text>
<text text-anchor="middle" x="170.7485" y="-23" font-family="Arial" font-size="10.00" fill="#ffffff">Command</text>
</a>
</g>
</g>
</g>
</svg>
