<?xml version="1.0" encoding="UTF-8" standalone="no"?>
<!DOCTYPE svg PUBLIC "-//W3C//DTD SVG 1.1//EN"
 "http://www.w3.org/Graphics/SVG/1.1/DTD/svg11.dtd">
<!-- Generated by graphviz version 2.40.1 (20161225.0304)
 -->
<!-- Title: InheritanceGraph Pages: 1 -->
<svg width="244pt" height="116pt"
 viewBox="0.00 0.00 243.60 116.00" xmlns="http://www.w3.org/2000/svg" xmlns:xlink="http://www.w3.org/1999/xlink">
<g id="graph0" class="graph" transform="scale(1 1) rotate(0) translate(4 112)">
<title>InheritanceGraph</title>
<g id="clust1" class="cluster">
<title>cluster_abjadext.microtones.ji</title>
<path fill="transparent" stroke="#bcd2ee" stroke-width="2" stroke-dasharray="5,2" d="M135.6846,-8C135.6846,-8 223.6006,-8 223.6006,-8 229.6006,-8 235.6006,-14 235.6006,-20 235.6006,-20 235.6006,-88 235.6006,-88 235.6006,-94 229.6006,-100 223.6006,-100 223.6006,-100 135.6846,-100 135.6846,-100 129.6846,-100 123.6846,-94 123.6846,-88 123.6846,-88 123.6846,-20 123.6846,-20 123.6846,-14 129.6846,-8 135.6846,-8"/>
<text text-anchor="middle" x="179.6426" y="-88" font-family="Arial" font-size="10.00" fill="#000000">abjadext.microtones.ji</text>
</g>
<g id="clust2" class="cluster">
<title>cluster_builtins</title>
<path fill="transparent" stroke="#bcd2ee" stroke-width="2" stroke-dasharray="5,2" d="M20,-45C20,-45 54.6846,-45 54.6846,-45 60.6846,-45 66.6846,-51 66.6846,-57 66.6846,-57 66.6846,-88 66.6846,-88 66.6846,-94 60.6846,-100 54.6846,-100 54.6846,-100 20,-100 20,-100 14,-100 8,-94 8,-88 8,-88 8,-57 8,-57 8,-51 14,-45 20,-45"/>
<text text-anchor="middle" x="37.3423" y="-88" font-family="Arial" font-size="10.00" fill="#000000">builtins</text>
</g>
<!-- builtins.object&#45;&gt;abjadext.microtones.ji.JIBundle -->
<g id="edge1" class="edge">
<title>builtins.object&#45;&gt;abjadext.microtones.ji.JIBundle</title>
<path fill="none" stroke="#778899" d="M58.5712,-63C80.4656,-63 115.0598,-63 141.5884,-63"/>
<polygon fill="#778899" stroke="#778899" points="141.678,-66.5001 151.678,-63 141.6779,-59.5001 141.678,-66.5001"/>
</g>
<!-- builtins.object&#45;&gt;abjadext.microtones.ji.JIVector -->
<g id="edge2" class="edge">
<title>builtins.object&#45;&gt;abjadext.microtones.ji.JIVector</title>
<path fill="none" stroke="#778899" d="M58.5712,-57.4607C80.905,-51.6332 116.4535,-42.3575 143.1758,-35.3848"/>
<polygon fill="#778899" stroke="#778899" points="144.1469,-38.7487 152.9392,-32.8372 142.3795,-31.9755 144.1469,-38.7487"/>
</g>
<!-- abjadext.microtones.ji.JIBundle -->
<g id="node1" class="node">
<title>abjadext.microtones.ji.JIBundle</title>
<g id="a_node1"><a xlink:href="../api/abjadext/microtones/ji.html#abjadext.microtones.ji.JIBundle" xlink:title="JIBundle" target="_top">
<path fill="#000000" stroke="#000000" stroke-width="2" d="M199.8883,-73.0056C199.8883,-73.0056 158.3969,-73.0056 158.3969,-73.0056 155.0617,-73.0056 151.7265,-69.6704 151.7265,-66.3352 151.7265,-66.3352 151.7265,-59.6648 151.7265,-59.6648 151.7265,-56.3296 155.0617,-52.9944 158.3969,-52.9944 158.3969,-52.9944 199.8883,-52.9944 199.8883,-52.9944 203.2235,-52.9944 206.5587,-56.3296 206.5587,-59.6648 206.5587,-59.6648 206.5587,-66.3352 206.5587,-66.3352 206.5587,-69.6704 203.2235,-73.0056 199.8883,-73.0056"/>
<text text-anchor="middle" x="179.1426" y="-60.7495" font-family="Arial" font-size="10.00" fill="#ffffff">JIBundle</text>
</a>
</g>
</g>
<!-- abjadext.microtones.ji.JIVector -->
<g id="node2" class="node">
<title>abjadext.microtones.ji.JIVector</title>
<g id="a_node2"><a xlink:href="../api/abjadext/microtones/ji.html#abjadext.microtones.ji.JIVector" xlink:title="JIVector" target="_top">
<path fill="#000000" stroke="#000000" stroke-width="2" d="M198.6003,-36.0056C198.6003,-36.0056 159.6849,-36.0056 159.6849,-36.0056 156.3497,-36.0056 153.0145,-32.6704 153.0145,-29.3352 153.0145,-29.3352 153.0145,-22.6648 153.0145,-22.6648 153.0145,-19.3296 156.3497,-15.9944 159.6849,-15.9944 159.6849,-15.9944 198.6003,-15.9944 198.6003,-15.9944 201.9355,-15.9944 205.2707,-19.3296 205.2707,-22.6648 205.2707,-22.6648 205.2707,-29.3352 205.2707,-29.3352 205.2707,-32.6704 201.9355,-36.0056 198.6003,-36.0056"/>
<text text-anchor="middle" x="179.1426" y="-23.7495" font-family="Arial" font-size="10.00" fill="#ffffff">JIVector</text>
</a>
</g>
</g>
<!-- builtins.object -->
<g id="node3" class="node">
<title>builtins.object</title>
<g id="a_node3"><a xlink:href="https://docs.python.org/3.7/library/functions.html#object" xlink:title="object" target="_top">
<path fill="#b3cde3" stroke="#b3cde3" stroke-width="2" d="M51.8576,-73.0056C51.8576,-73.0056 22.8269,-73.0056 22.8269,-73.0056 19.4918,-73.0056 16.1566,-69.6704 16.1566,-66.3352 16.1566,-66.3352 16.1566,-59.6648 16.1566,-59.6648 16.1566,-56.3296 19.4918,-52.9944 22.8269,-52.9944 22.8269,-52.9944 51.8576,-52.9944 51.8576,-52.9944 55.1928,-52.9944 58.528,-56.3296 58.528,-59.6648 58.528,-59.6648 58.528,-66.3352 58.528,-66.3352 58.528,-69.6704 55.1928,-73.0056 51.8576,-73.0056"/>
<text text-anchor="middle" x="37.3423" y="-60.7495" font-family="Arial" font-size="10.00" fill="#000000">object</text>
</a>
</g>
</g>
</g>
</svg>
