<?xml version="1.0" encoding="UTF-8" standalone="no"?>
<!DOCTYPE svg PUBLIC "-//W3C//DTD SVG 1.1//EN"
 "http://www.w3.org/Graphics/SVG/1.1/DTD/svg11.dtd">
<!-- Generated by graphviz version 2.40.1 (20161225.0304)
 -->
<!-- Title: InheritanceGraph Pages: 1 -->
<svg width="211pt" height="79pt"
 viewBox="0.00 0.00 210.60 79.00" xmlns="http://www.w3.org/2000/svg" xmlns:xlink="http://www.w3.org/1999/xlink">
<g id="graph0" class="graph" transform="scale(1 1) rotate(0) translate(4 75)">
<title>InheritanceGraph</title>
<g id="clust1" class="cluster">
<title>cluster_abjadext.microtones.et</title>
<path fill="transparent" stroke="#bcd2ee" stroke-width="2" stroke-dasharray="5,2" d="M98.6846,-8C98.6846,-8 190.6006,-8 190.6006,-8 196.6006,-8 202.6006,-14 202.6006,-20 202.6006,-20 202.6006,-51 202.6006,-51 202.6006,-57 196.6006,-63 190.6006,-63 190.6006,-63 98.6846,-63 98.6846,-63 92.6846,-63 86.6846,-57 86.6846,-51 86.6846,-51 86.6846,-20 86.6846,-20 86.6846,-14 92.6846,-8 98.6846,-8"/>
<text text-anchor="middle" x="144.6426" y="-51" font-family="Arial" font-size="10.00" fill="#000000">abjadext.microtones.et</text>
</g>
<g id="clust2" class="cluster">
<title>cluster_builtins</title>
<path fill="transparent" stroke="#bcd2ee" stroke-width="2" stroke-dasharray="5,2" d="M20,-8C20,-8 54.6846,-8 54.6846,-8 60.6846,-8 66.6846,-14 66.6846,-20 66.6846,-20 66.6846,-51 66.6846,-51 66.6846,-57 60.6846,-63 54.6846,-63 54.6846,-63 20,-63 20,-63 14,-63 8,-57 8,-51 8,-51 8,-20 8,-20 8,-14 14,-8 20,-8"/>
<text text-anchor="middle" x="37.3423" y="-51" font-family="Arial" font-size="10.00" fill="#000000">builtins</text>
</g>
<!-- builtins.object&#45;&gt;abjadext.microtones.et.ETBundle -->
<g id="edge1" class="edge">
<title>builtins.object&#45;&gt;abjadext.microtones.et.ETBundle</title>
<path fill="none" stroke="#778899" d="M58.5414,-26C71.5428,-26 88.6169,-26 104.1297,-26"/>
<polygon fill="#778899" stroke="#778899" points="104.5506,-29.5001 114.5505,-26 104.5505,-22.5001 104.5506,-29.5001"/>
</g>
<!-- abjadext.microtones.et.ETBundle -->
<g id="node1" class="node">
<title>abjadext.microtones.et.ETBundle</title>
<g id="a_node1"><a xlink:href="../api/abjadext/microtones/et.html#abjadext.microtones.et.ETBundle" xlink:title="ETBundle" target="_top">
<path fill="#000000" stroke="#000000" stroke-width="2" d="M167.8883,-36.0056C167.8883,-36.0056 121.3969,-36.0056 121.3969,-36.0056 118.0617,-36.0056 114.7265,-32.6704 114.7265,-29.3352 114.7265,-29.3352 114.7265,-22.6648 114.7265,-22.6648 114.7265,-19.3296 118.0617,-15.9944 121.3969,-15.9944 121.3969,-15.9944 167.8883,-15.9944 167.8883,-15.9944 171.2235,-15.9944 174.5587,-19.3296 174.5587,-22.6648 174.5587,-22.6648 174.5587,-29.3352 174.5587,-29.3352 174.5587,-32.6704 171.2235,-36.0056 167.8883,-36.0056"/>
<text text-anchor="middle" x="144.6426" y="-23.7495" font-family="Arial" font-size="10.00" fill="#ffffff">ETBundle</text>
</a>
</g>
</g>
<!-- builtins.object -->
<g id="node2" class="node">
<title>builtins.object</title>
<g id="a_node2"><a xlink:href="https://docs.python.org/3.7/library/functions.html#object" xlink:title="object" target="_top">
<path fill="#b3cde3" stroke="#b3cde3" stroke-width="2" d="M51.8576,-36.0056C51.8576,-36.0056 22.8269,-36.0056 22.8269,-36.0056 19.4918,-36.0056 16.1566,-32.6704 16.1566,-29.3352 16.1566,-29.3352 16.1566,-22.6648 16.1566,-22.6648 16.1566,-19.3296 19.4918,-15.9944 22.8269,-15.9944 22.8269,-15.9944 51.8576,-15.9944 51.8576,-15.9944 55.1928,-15.9944 58.528,-19.3296 58.528,-22.6648 58.528,-22.6648 58.528,-29.3352 58.528,-29.3352 58.528,-32.6704 55.1928,-36.0056 51.8576,-36.0056"/>
<text text-anchor="middle" x="37.3423" y="-23.7495" font-family="Arial" font-size="10.00" fill="#000000">object</text>
</a>
</g>
</g>
</g>
</svg>
