<?xml version="1.0" encoding="UTF-8" standalone="no"?>
<!DOCTYPE svg PUBLIC "-//W3C//DTD SVG 1.1//EN"
 "http://www.w3.org/Graphics/SVG/1.1/DTD/svg11.dtd">
<!-- Generated by graphviz version 2.40.1 (20161225.0304)
 -->
<!-- Title: InheritanceGraph Pages: 1 -->
<svg width="259pt" height="90pt"
 viewBox="0.00 0.00 259.50 90.00" xmlns="http://www.w3.org/2000/svg" xmlns:xlink="http://www.w3.org/1999/xlink">
<g id="graph0" class="graph" transform="scale(1 1) rotate(0) translate(4 86)">
<title>InheritanceGraph</title>
<g id="clust1" class="cluster">
<title>cluster_builtins</title>
<path fill="transparent" stroke="#bcd2ee" stroke-width="2" stroke-dasharray="5,2" d="M20,-13C20,-13 54.6846,-13 54.6846,-13 60.6846,-13 66.6846,-19 66.6846,-25 66.6846,-25 66.6846,-56 66.6846,-56 66.6846,-62 60.6846,-68 54.6846,-68 54.6846,-68 20,-68 20,-68 14,-68 8,-62 8,-56 8,-56 8,-25 8,-25 8,-19 14,-13 20,-13"/>
<text text-anchor="middle" x="37.3423" y="-56" font-family="Arial" font-size="10.00" fill="#000000">builtins</text>
</g>
<g id="clust2" class="cluster">
<title>cluster_evans.consort</title>
<path fill="transparent" stroke="#bcd2ee" stroke-width="2" stroke-dasharray="5,2" d="M98.6846,-8C98.6846,-8 231.4971,-8 231.4971,-8 237.4971,-8 243.4971,-14 243.4971,-20 243.4971,-20 243.4971,-62 243.4971,-62 243.4971,-68 237.4971,-74 231.4971,-74 231.4971,-74 98.6846,-74 98.6846,-74 92.6846,-74 86.6846,-68 86.6846,-62 86.6846,-62 86.6846,-20 86.6846,-20 86.6846,-14 92.6846,-8 98.6846,-8"/>
<text text-anchor="middle" x="165.0908" y="-62" font-family="Arial" font-size="10.00" fill="#000000">evans.consort</text>
</g>
<!-- builtins.object&#45;&gt;evans.consort.AbjadObject.AbjadObject -->
<g id="edge2" class="edge">
<title>builtins.object&#45;&gt;evans.consort.AbjadObject.AbjadObject</title>
<path fill="none" stroke="#778899" d="M58.7253,-31C66.602,-31 75.7156,-31 84.367,-31"/>
<polygon fill="#778899" stroke="#778899" points="84.5765,-34.5001 94.5764,-31 84.5764,-27.5001 84.5765,-34.5001"/>
</g>
<!-- evans.consort.AbjadObject.AbjadObject&#45;&gt;evans.consort.TimespanCollection.TimespanCollection -->
<g id="edge1" class="edge">
<title>evans.consort.AbjadObject.AbjadObject&#45;&gt;evans.consort.TimespanCollection.TimespanCollection</title>
<path fill="none" stroke="#778899" d="M139.9021,-31C147.6976,-31 156.6669,-31 165.4207,-31"/>
<polygon fill="#778899" stroke="#778899" points="165.5148,-34.5001 175.5148,-31 165.5148,-27.5001 165.5148,-34.5001"/>
</g>
<!-- builtins.object -->
<g id="node1" class="node">
<title>builtins.object</title>
<g id="a_node1"><a xlink:href="https://docs.python.org/3.7/library/functions.html#object" xlink:title="object" target="_top">
<path fill="#fbb4ae" stroke="#fbb4ae" stroke-width="2" d="M51.8576,-41.0056C51.8576,-41.0056 22.8269,-41.0056 22.8269,-41.0056 19.4918,-41.0056 16.1566,-37.6704 16.1566,-34.3352 16.1566,-34.3352 16.1566,-27.6648 16.1566,-27.6648 16.1566,-24.3296 19.4918,-20.9944 22.8269,-20.9944 22.8269,-20.9944 51.8576,-20.9944 51.8576,-20.9944 55.1928,-20.9944 58.528,-24.3296 58.528,-27.6648 58.528,-27.6648 58.528,-34.3352 58.528,-34.3352 58.528,-37.6704 55.1928,-41.0056 51.8576,-41.0056"/>
<text text-anchor="middle" x="37.3423" y="-28.7495" font-family="Arial" font-size="10.00" fill="#000000">object</text>
</a>
</g>
</g>
<!-- evans.consort.AbjadObject.AbjadObject -->
<g id="node2" class="node">
<title>evans.consort.AbjadObject.AbjadObject</title>
<g id="a_node2"><a xlink:href="../api/evans/consort/AbjadObject.html#evans.consort.AbjadObject.AbjadObject" xlink:title="Abjad\nObject" target="_top">
<path fill="#b3cde3" stroke="#b3cde3" stroke-width="2" d="M129.2047,-46.498C129.2047,-46.498 105.0658,-46.498 105.0658,-46.498 99.8998,-46.498 94.7338,-41.332 94.7338,-36.166 94.7338,-36.166 94.7338,-25.834 94.7338,-25.834 94.7338,-20.668 99.8998,-15.502 105.0658,-15.502 105.0658,-15.502 129.2047,-15.502 129.2047,-15.502 134.3707,-15.502 139.5367,-20.668 139.5367,-25.834 139.5367,-25.834 139.5367,-36.166 139.5367,-36.166 139.5367,-41.332 134.3707,-46.498 129.2047,-46.498"/>
<text text-anchor="middle" x="117.1353" y="-34.499" font-family="Arial" font-size="10.00" fill="#000000">Abjad</text>
<text text-anchor="middle" x="117.1353" y="-23" font-family="Arial" font-size="10.00" fill="#000000">Object</text>
</a>
</g>
</g>
<!-- evans.consort.TimespanCollection.TimespanCollection -->
<g id="node3" class="node">
<title>evans.consort.TimespanCollection.TimespanCollection</title>
<g id="a_node3"><a xlink:href="../api/evans/consort/TimespanCollection.html#evans.consort.TimespanCollection.TimespanCollection" xlink:title="Timespan\nCollection" target="_top">
<path fill="#000000" stroke="#000000" stroke-width="2" d="M225.1207,-46.498C225.1207,-46.498 185.9623,-46.498 185.9623,-46.498 180.7963,-46.498 175.6303,-41.332 175.6303,-36.166 175.6303,-36.166 175.6303,-25.834 175.6303,-25.834 175.6303,-20.668 180.7963,-15.502 185.9623,-15.502 185.9623,-15.502 225.1207,-15.502 225.1207,-15.502 230.2867,-15.502 235.4527,-20.668 235.4527,-25.834 235.4527,-25.834 235.4527,-36.166 235.4527,-36.166 235.4527,-41.332 230.2867,-46.498 225.1207,-46.498"/>
<text text-anchor="middle" x="205.5415" y="-34.499" font-family="Arial" font-size="10.00" fill="#ffffff">Timespan</text>
<text text-anchor="middle" x="205.5415" y="-23" font-family="Arial" font-size="10.00" fill="#ffffff">Collection</text>
</a>
</g>
</g>
</g>
</svg>
