<?xml version="1.0" encoding="UTF-8" standalone="no"?>
<!DOCTYPE svg PUBLIC "-//W3C//DTD SVG 1.1//EN"
 "http://www.w3.org/Graphics/SVG/1.1/DTD/svg11.dtd">
<!-- Generated by graphviz version 2.40.1 (20161225.0304)
 -->
<!-- Title: InheritanceGraph Pages: 1 -->
<svg width="287pt" height="188pt"
 viewBox="0.00 0.00 286.75 188.00" xmlns="http://www.w3.org/2000/svg" xmlns:xlink="http://www.w3.org/1999/xlink">
<g id="graph0" class="graph" transform="scale(1 1) rotate(0) translate(4 184)">
<title>InheritanceGraph</title>
<g id="clust1" class="cluster">
<title>cluster_abjad.timespan</title>
<path fill="transparent" stroke="#bcd2ee" stroke-width="2" stroke-dasharray="5,2" d="M98.6846,-105C98.6846,-105 158.2197,-105 158.2197,-105 164.2197,-105 170.2197,-111 170.2197,-117 170.2197,-117 170.2197,-148 170.2197,-148 170.2197,-154 164.2197,-160 158.2197,-160 158.2197,-160 98.6846,-160 98.6846,-160 92.6846,-160 86.6846,-154 86.6846,-148 86.6846,-148 86.6846,-117 86.6846,-117 86.6846,-111 92.6846,-105 98.6846,-105"/>
<text text-anchor="middle" x="128.4521" y="-148" font-family="Arial" font-size="10.00" fill="#000000">abjad.timespan</text>
</g>
<g id="clust2" class="cluster">
<title>cluster_builtins</title>
<path fill="transparent" stroke="#bcd2ee" stroke-width="2" stroke-dasharray="5,2" d="M20,-62C20,-62 54.6846,-62 54.6846,-62 60.6846,-62 66.6846,-68 66.6846,-74 66.6846,-74 66.6846,-105 66.6846,-105 66.6846,-111 60.6846,-117 54.6846,-117 54.6846,-117 20,-117 20,-117 14,-117 8,-111 8,-105 8,-105 8,-74 8,-74 8,-68 14,-62 20,-62"/>
<text text-anchor="middle" x="37.3423" y="-105" font-family="Arial" font-size="10.00" fill="#000000">builtins</text>
</g>
<g id="clust3" class="cluster">
<title>cluster_evans.timespan</title>
<path fill="transparent" stroke="#bcd2ee" stroke-width="2" stroke-dasharray="5,2" d="M202.2197,-8C202.2197,-8 263.7549,-8 263.7549,-8 269.7549,-8 275.7549,-14 275.7549,-20 275.7549,-20 275.7549,-160 275.7549,-160 275.7549,-166 269.7549,-172 263.7549,-172 263.7549,-172 202.2197,-172 202.2197,-172 196.2197,-172 190.2197,-166 190.2197,-160 190.2197,-160 190.2197,-20 190.2197,-20 190.2197,-14 196.2197,-8 202.2197,-8"/>
<text text-anchor="middle" x="232.9873" y="-160" font-family="Arial" font-size="10.00" fill="#000000">evans.timespan</text>
</g>
<!-- abjad.timespan.Timespan&#45;&gt;evans.timespan.SilentTimespan -->
<g id="edge1" class="edge">
<title>abjad.timespan.Timespan&#45;&gt;evans.timespan.SilentTimespan</title>
<path fill="none" stroke="#778899" d="M158.1281,-124.7033C168.9423,-125.324 181.3542,-126.0364 192.9215,-126.7003"/>
<polygon fill="#778899" stroke="#778899" points="193.053,-130.2136 203.2371,-127.2924 193.4542,-123.2251 193.053,-130.2136"/>
</g>
<!-- builtins.object&#45;&gt;abjad.timespan.Timespan -->
<g id="edge2" class="edge">
<title>builtins.object&#45;&gt;abjad.timespan.Timespan</title>
<path fill="none" stroke="#778899" d="M58.0165,-89.7574C69.9305,-95.3802 85.1196,-102.5489 98.3404,-108.7885"/>
<polygon fill="#778899" stroke="#778899" points="97.0071,-112.0294 107.5443,-113.1324 99.9948,-105.699 97.0071,-112.0294"/>
</g>
<!-- builtins.object&#45;&gt;evans.timespan.TimespanMaker -->
<g id="edge3" class="edge">
<title>builtins.object&#45;&gt;evans.timespan.TimespanMaker</title>
<path fill="none" stroke="#778899" d="M58.6522,-80C90.9038,-80 152.6554,-80 193.3335,-80"/>
<polygon fill="#778899" stroke="#778899" points="193.444,-83.5001 203.444,-80 193.444,-76.5001 193.444,-83.5001"/>
</g>
<!-- builtins.object&#45;&gt;evans.timespan.TimespanSpecifier -->
<g id="edge4" class="edge">
<title>builtins.object&#45;&gt;evans.timespan.TimespanSpecifier</title>
<path fill="none" stroke="#778899" d="M58.6522,-74.6629C90.9722,-66.5682 152.9178,-51.0537 193.5923,-40.8666"/>
<polygon fill="#778899" stroke="#778899" points="194.594,-44.2239 203.444,-38.3992 192.8933,-37.4337 194.594,-44.2239"/>
</g>
<!-- abjad.timespan.Timespan -->
<g id="node1" class="node">
<title>abjad.timespan.Timespan</title>
<path fill="#fbb4ae" stroke="#fbb4ae" stroke-width="2" d="M151.3187,-133.0056C151.3187,-133.0056 105.5856,-133.0056 105.5856,-133.0056 102.2504,-133.0056 98.9152,-129.6704 98.9152,-126.3352 98.9152,-126.3352 98.9152,-119.6648 98.9152,-119.6648 98.9152,-116.3296 102.2504,-112.9944 105.5856,-112.9944 105.5856,-112.9944 151.3187,-112.9944 151.3187,-112.9944 154.6539,-112.9944 157.9891,-116.3296 157.9891,-119.6648 157.9891,-119.6648 157.9891,-126.3352 157.9891,-126.3352 157.9891,-129.6704 154.6539,-133.0056 151.3187,-133.0056"/>
<text text-anchor="middle" x="128.4521" y="-120.7495" font-family="Arial" font-size="10.00" fill="#000000">Timespan</text>
</g>
<!-- builtins.object -->
<g id="node2" class="node">
<title>builtins.object</title>
<g id="a_node2"><a xlink:href="https://docs.python.org/3.7/library/functions.html#object" xlink:title="object" target="_top">
<path fill="#b3cde3" stroke="#b3cde3" stroke-width="2" d="M51.8576,-90.0056C51.8576,-90.0056 22.8269,-90.0056 22.8269,-90.0056 19.4918,-90.0056 16.1566,-86.6704 16.1566,-83.3352 16.1566,-83.3352 16.1566,-76.6648 16.1566,-76.6648 16.1566,-73.3296 19.4918,-69.9944 22.8269,-69.9944 22.8269,-69.9944 51.8576,-69.9944 51.8576,-69.9944 55.1928,-69.9944 58.528,-73.3296 58.528,-76.6648 58.528,-76.6648 58.528,-83.3352 58.528,-83.3352 58.528,-86.6704 55.1928,-90.0056 51.8576,-90.0056"/>
<text text-anchor="middle" x="37.3423" y="-77.7495" font-family="Arial" font-size="10.00" fill="#000000">object</text>
</a>
</g>
</g>
<!-- evans.timespan.SilentTimespan -->
<g id="node3" class="node">
<title>evans.timespan.SilentTimespan</title>
<g id="a_node3"><a xlink:href="../api/evans/timespan.html#evans.timespan.SilentTimespan" xlink:title="Silent\nTimespan" target="_top">
<path fill="#000000" stroke="#000000" stroke-width="2" d="M252.1922,-144.498C252.1922,-144.498 213.7824,-144.498 213.7824,-144.498 208.6164,-144.498 203.4503,-139.332 203.4503,-134.166 203.4503,-134.166 203.4503,-123.834 203.4503,-123.834 203.4503,-118.668 208.6164,-113.502 213.7824,-113.502 213.7824,-113.502 252.1922,-113.502 252.1922,-113.502 257.3582,-113.502 262.5243,-118.668 262.5243,-123.834 262.5243,-123.834 262.5243,-134.166 262.5243,-134.166 262.5243,-139.332 257.3582,-144.498 252.1922,-144.498"/>
<text text-anchor="middle" x="232.9873" y="-132.499" font-family="Arial" font-size="10.00" fill="#ffffff">Silent</text>
<text text-anchor="middle" x="232.9873" y="-121" font-family="Arial" font-size="10.00" fill="#ffffff">Timespan</text>
</a>
</g>
</g>
<!-- evans.timespan.TimespanMaker -->
<g id="node4" class="node">
<title>evans.timespan.TimespanMaker</title>
<g id="a_node4"><a xlink:href="../api/evans/timespan.html#evans.timespan.TimespanMaker" xlink:title="Timespan\nMaker" target="_top">
<path fill="#000000" stroke="#000000" stroke-width="2" d="M252.1922,-95.498C252.1922,-95.498 213.7824,-95.498 213.7824,-95.498 208.6164,-95.498 203.4503,-90.332 203.4503,-85.166 203.4503,-85.166 203.4503,-74.834 203.4503,-74.834 203.4503,-69.668 208.6164,-64.502 213.7824,-64.502 213.7824,-64.502 252.1922,-64.502 252.1922,-64.502 257.3582,-64.502 262.5243,-69.668 262.5243,-74.834 262.5243,-74.834 262.5243,-85.166 262.5243,-85.166 262.5243,-90.332 257.3582,-95.498 252.1922,-95.498"/>
<text text-anchor="middle" x="232.9873" y="-83.499" font-family="Arial" font-size="10.00" fill="#ffffff">Timespan</text>
<text text-anchor="middle" x="232.9873" y="-72" font-family="Arial" font-size="10.00" fill="#ffffff">Maker</text>
</a>
</g>
</g>
<!-- evans.timespan.TimespanSpecifier -->
<g id="node5" class="node">
<title>evans.timespan.TimespanSpecifier</title>
<g id="a_node5"><a xlink:href="../api/evans/timespan.html#evans.timespan.TimespanSpecifier" xlink:title="Timespan\nSpecifier" target="_top">
<path fill="#000000" stroke="#000000" stroke-width="2" d="M252.1922,-46.498C252.1922,-46.498 213.7824,-46.498 213.7824,-46.498 208.6164,-46.498 203.4503,-41.332 203.4503,-36.166 203.4503,-36.166 203.4503,-25.834 203.4503,-25.834 203.4503,-20.668 208.6164,-15.502 213.7824,-15.502 213.7824,-15.502 252.1922,-15.502 252.1922,-15.502 257.3582,-15.502 262.5243,-20.668 262.5243,-25.834 262.5243,-25.834 262.5243,-36.166 262.5243,-36.166 262.5243,-41.332 257.3582,-46.498 252.1922,-46.498"/>
<text text-anchor="middle" x="232.9873" y="-34.499" font-family="Arial" font-size="10.00" fill="#ffffff">Timespan</text>
<text text-anchor="middle" x="232.9873" y="-23" font-family="Arial" font-size="10.00" fill="#ffffff">Specifier</text>
</a>
</g>
</g>
</g>
</svg>
