<?xml version="1.0" encoding="UTF-8" standalone="no"?>
<!DOCTYPE svg PUBLIC "-//W3C//DTD SVG 1.1//EN"
 "http://www.w3.org/Graphics/SVG/1.1/DTD/svg11.dtd">
<!-- Generated by graphviz version 2.40.1 (20161225.0304)
 -->
<!-- Title: InheritanceGraph Pages: 1 -->
<svg width="271pt" height="151pt"
 viewBox="0.00 0.00 271.17 151.00" xmlns="http://www.w3.org/2000/svg" xmlns:xlink="http://www.w3.org/1999/xlink">
<g id="graph0" class="graph" transform="scale(1 1) rotate(0) translate(4 147)">
<title>InheritanceGraph</title>
<g id="clust1" class="cluster">
<title>cluster_builtins</title>
<path fill="transparent" stroke="#bcd2ee" stroke-width="2" stroke-dasharray="5,2" d="M20,-43C20,-43 54.6846,-43 54.6846,-43 60.6846,-43 66.6846,-49 66.6846,-55 66.6846,-55 66.6846,-86 66.6846,-86 66.6846,-92 60.6846,-98 54.6846,-98 54.6846,-98 20,-98 20,-98 14,-98 8,-92 8,-86 8,-86 8,-55 8,-55 8,-49 14,-43 20,-43"/>
<text text-anchor="middle" x="37.3423" y="-86" font-family="Arial" font-size="10.00" fill="#000000">builtins</text>
</g>
<g id="clust2" class="cluster">
<title>cluster_tsmakers</title>
<path fill="transparent" stroke="#bcd2ee" stroke-width="2" stroke-dasharray="5,2" d="M98.6846,-8C98.6846,-8 243.1719,-8 243.1719,-8 249.1719,-8 255.1719,-14 255.1719,-20 255.1719,-20 255.1719,-123 255.1719,-123 255.1719,-129 249.1719,-135 243.1719,-135 243.1719,-135 98.6846,-135 98.6846,-135 92.6846,-135 86.6846,-129 86.6846,-123 86.6846,-123 86.6846,-20 86.6846,-20 86.6846,-14 92.6846,-8 98.6846,-8"/>
<text text-anchor="middle" x="170.9282" y="-123" font-family="Arial" font-size="10.00" fill="#000000">tsmakers</text>
</g>
<!-- builtins.object&#45;&gt;tsmakers.HashCachingObject.HashCachingObject -->
<g id="edge3" class="edge">
<title>builtins.object&#45;&gt;tsmakers.HashCachingObject.HashCachingObject</title>
<path fill="none" stroke="#778899" d="M58.8938,-61C66.7605,-61 75.8899,-61 84.6888,-61"/>
<polygon fill="#778899" stroke="#778899" points="84.7709,-64.5001 94.7709,-61 84.7708,-57.5001 84.7709,-64.5001"/>
</g>
<!-- tsmakers.HashCachingObject.HashCachingObject&#45;&gt;tsmakers.CompositeMusicSpecifier.CompositeMusicSpecifier -->
<g id="edge1" class="edge">
<title>tsmakers.HashCachingObject.HashCachingObject&#45;&gt;tsmakers.CompositeMusicSpecifier.CompositeMusicSpecifier</title>
<path fill="none" stroke="#778899" d="M147.2814,-54.3147C155.4332,-52.2387 164.6293,-49.8969 173.5625,-47.6219"/>
<polygon fill="#778899" stroke="#778899" points="174.64,-50.9593 183.467,-45.0997 172.9125,-44.1758 174.64,-50.9593"/>
</g>
<!-- tsmakers.HashCachingObject.HashCachingObject&#45;&gt;tsmakers.MusicSpecifier.MusicSpecifier -->
<g id="edge2" class="edge">
<title>tsmakers.HashCachingObject.HashCachingObject&#45;&gt;tsmakers.MusicSpecifier.MusicSpecifier</title>
<path fill="none" stroke="#778899" d="M147.2814,-69.6352C156.857,-72.785 167.8734,-76.4087 178.2121,-79.8094"/>
<polygon fill="#778899" stroke="#778899" points="177.2546,-83.1789 187.8476,-82.9789 179.4419,-76.5294 177.2546,-83.1789"/>
</g>
<!-- builtins.object -->
<g id="node1" class="node">
<title>builtins.object</title>
<g id="a_node1"><a xlink:href="https://docs.python.org/3.7/library/functions.html#object" xlink:title="object" target="_top">
<path fill="#fbb4ae" stroke="#fbb4ae" stroke-width="2" d="M51.8576,-71.0056C51.8576,-71.0056 22.8269,-71.0056 22.8269,-71.0056 19.4918,-71.0056 16.1566,-67.6704 16.1566,-64.3352 16.1566,-64.3352 16.1566,-57.6648 16.1566,-57.6648 16.1566,-54.3296 19.4918,-50.9944 22.8269,-50.9944 22.8269,-50.9944 51.8576,-50.9944 51.8576,-50.9944 55.1928,-50.9944 58.528,-54.3296 58.528,-57.6648 58.528,-57.6648 58.528,-64.3352 58.528,-64.3352 58.528,-67.6704 55.1928,-71.0056 51.8576,-71.0056"/>
<text text-anchor="middle" x="37.3423" y="-58.7495" font-family="Arial" font-size="10.00" fill="#000000">object</text>
</a>
</g>
</g>
<!-- tsmakers.CompositeMusicSpecifier.CompositeMusicSpecifier -->
<g id="node2" class="node">
<title>tsmakers.CompositeMusicSpecifier.CompositeMusicSpecifier</title>
<g id="a_node2"><a xlink:href="../api/tsmakers/CompositeMusicSpecifier.html#tsmakers.CompositeMusicSpecifier.CompositeMusicSpecifier" xlink:title="Composite\nMusic\nSpecifier" target="_top">
<path fill="#b3cde3" stroke="#b3cde3" stroke-width="2" d="M235.0711,-58.5C235.0711,-58.5 195.4748,-58.5 195.4748,-58.5 189.4748,-58.5 183.4748,-52.5 183.4748,-46.5 183.4748,-46.5 183.4748,-27.5 183.4748,-27.5 183.4748,-21.5 189.4748,-15.5 195.4748,-15.5 195.4748,-15.5 235.0711,-15.5 235.0711,-15.5 241.0711,-15.5 247.0711,-21.5 247.0711,-27.5 247.0711,-27.5 247.0711,-46.5 247.0711,-46.5 247.0711,-52.5 241.0711,-58.5 235.0711,-58.5"/>
<text text-anchor="middle" x="215.2729" y="-46.2485" font-family="Arial" font-size="10.00" fill="#000000">Composite</text>
<text text-anchor="middle" x="215.2729" y="-34.7495" font-family="Arial" font-size="10.00" fill="#000000">Music</text>
<text text-anchor="middle" x="215.2729" y="-23.2505" font-family="Arial" font-size="10.00" fill="#000000">Specifier</text>
</a>
</g>
</g>
<!-- tsmakers.HashCachingObject.HashCachingObject -->
<g id="node3" class="node">
<title>tsmakers.HashCachingObject.HashCachingObject</title>
<g id="a_node3"><a xlink:href="../api/tsmakers/HashCachingObject.html#tsmakers.HashCachingObject.HashCachingObject" xlink:title="Hash\nCaching\nObject" target="_top">
<path fill="#000000" stroke="#000000" stroke-width="2" d="M135.2197,-82.5C135.2197,-82.5 106.8389,-82.5 106.8389,-82.5 100.8389,-82.5 94.8389,-76.5 94.8389,-70.5 94.8389,-70.5 94.8389,-51.5 94.8389,-51.5 94.8389,-45.5 100.8389,-39.5 106.8389,-39.5 106.8389,-39.5 135.2197,-39.5 135.2197,-39.5 141.2197,-39.5 147.2197,-45.5 147.2197,-51.5 147.2197,-51.5 147.2197,-70.5 147.2197,-70.5 147.2197,-76.5 141.2197,-82.5 135.2197,-82.5"/>
<text text-anchor="middle" x="121.0293" y="-70.2485" font-family="Arial" font-size="10.00" fill="#ffffff">Hash</text>
<text text-anchor="middle" x="121.0293" y="-58.7495" font-family="Arial" font-size="10.00" fill="#ffffff">Caching</text>
<text text-anchor="middle" x="121.0293" y="-47.2505" font-family="Arial" font-size="10.00" fill="#ffffff">Object</text>
</a>
</g>
</g>
<!-- tsmakers.MusicSpecifier.MusicSpecifier -->
<g id="node4" class="node">
<title>tsmakers.MusicSpecifier.MusicSpecifier</title>
<g id="a_node4"><a xlink:href="../api/tsmakers/MusicSpecifier.html#tsmakers.MusicSpecifier.MusicSpecifier" xlink:title="Music\nSpecifier" target="_top">
<path fill="#b3cde3" stroke="#b3cde3" stroke-width="2" d="M232.3472,-107.498C232.3472,-107.498 198.1987,-107.498 198.1987,-107.498 193.0326,-107.498 187.8666,-102.332 187.8666,-97.166 187.8666,-97.166 187.8666,-86.834 187.8666,-86.834 187.8666,-81.668 193.0326,-76.502 198.1987,-76.502 198.1987,-76.502 232.3472,-76.502 232.3472,-76.502 237.5133,-76.502 242.6793,-81.668 242.6793,-86.834 242.6793,-86.834 242.6793,-97.166 242.6793,-97.166 242.6793,-102.332 237.5133,-107.498 232.3472,-107.498"/>
<text text-anchor="middle" x="215.2729" y="-95.499" font-family="Arial" font-size="10.00" fill="#000000">Music</text>
<text text-anchor="middle" x="215.2729" y="-84" font-family="Arial" font-size="10.00" fill="#000000">Specifier</text>
</a>
</g>
</g>
</g>
</svg>
