<?xml version="1.0" encoding="UTF-8" standalone="no"?>
<!DOCTYPE svg PUBLIC "-//W3C//DTD SVG 1.1//EN"
 "http://www.w3.org/Graphics/SVG/1.1/DTD/svg11.dtd">
<!-- Generated by graphviz version 2.40.1 (20161225.0304)
 -->
<!-- Title: InheritanceGraph Pages: 1 -->
<svg width="178pt" height="90pt"
 viewBox="0.00 0.00 178.22 90.00" xmlns="http://www.w3.org/2000/svg" xmlns:xlink="http://www.w3.org/1999/xlink">
<g id="graph0" class="graph" transform="scale(1 1) rotate(0) translate(4 86)">
<title>InheritanceGraph</title>
<g id="clust1" class="cluster">
<title>cluster_builtins</title>
<path fill="transparent" stroke="#bcd2ee" stroke-width="2" stroke-dasharray="5,2" d="M20,-13C20,-13 54.6846,-13 54.6846,-13 60.6846,-13 66.6846,-19 66.6846,-25 66.6846,-25 66.6846,-56 66.6846,-56 66.6846,-62 60.6846,-68 54.6846,-68 54.6846,-68 20,-68 20,-68 14,-68 8,-62 8,-56 8,-56 8,-25 8,-25 8,-19 14,-13 20,-13"/>
<text text-anchor="middle" x="37.3423" y="-56" font-family="Arial" font-size="10.00" fill="#000000">builtins</text>
</g>
<g id="clust2" class="cluster">
<title>cluster_tsmakers</title>
<path fill="transparent" stroke="#bcd2ee" stroke-width="2" stroke-dasharray="5,2" d="M98.6846,-8C98.6846,-8 150.2197,-8 150.2197,-8 156.2197,-8 162.2197,-14 162.2197,-20 162.2197,-20 162.2197,-62 162.2197,-62 162.2197,-68 156.2197,-74 150.2197,-74 150.2197,-74 98.6846,-74 98.6846,-74 92.6846,-74 86.6846,-68 86.6846,-62 86.6846,-62 86.6846,-20 86.6846,-20 86.6846,-14 92.6846,-8 98.6846,-8"/>
<text text-anchor="middle" x="124.4521" y="-62" font-family="Arial" font-size="10.00" fill="#000000">tsmakers</text>
</g>
<!-- builtins.object&#45;&gt;tsmakers.TimespanSpecifier.TimespanSpecifier -->
<g id="edge1" class="edge">
<title>builtins.object&#45;&gt;tsmakers.TimespanSpecifier.TimespanSpecifier</title>
<path fill="none" stroke="#778899" d="M58.8751,-31C66.6245,-31 75.6361,-31 84.4522,-31"/>
<polygon fill="#778899" stroke="#778899" points="84.6243,-34.5001 94.6243,-31 84.6243,-27.5001 84.6243,-34.5001"/>
</g>
<!-- builtins.object -->
<g id="node1" class="node">
<title>builtins.object</title>
<g id="a_node1"><a xlink:href="https://docs.python.org/3.7/library/functions.html#object" xlink:title="object" target="_top">
<path fill="#fbb4ae" stroke="#fbb4ae" stroke-width="2" d="M51.8576,-41.0056C51.8576,-41.0056 22.8269,-41.0056 22.8269,-41.0056 19.4918,-41.0056 16.1566,-37.6704 16.1566,-34.3352 16.1566,-34.3352 16.1566,-27.6648 16.1566,-27.6648 16.1566,-24.3296 19.4918,-20.9944 22.8269,-20.9944 22.8269,-20.9944 51.8576,-20.9944 51.8576,-20.9944 55.1928,-20.9944 58.528,-24.3296 58.528,-27.6648 58.528,-27.6648 58.528,-34.3352 58.528,-34.3352 58.528,-37.6704 55.1928,-41.0056 51.8576,-41.0056"/>
<text text-anchor="middle" x="37.3423" y="-28.7495" font-family="Arial" font-size="10.00" fill="#000000">object</text>
</a>
</g>
</g>
<!-- tsmakers.TimespanSpecifier.TimespanSpecifier -->
<g id="node2" class="node">
<title>tsmakers.TimespanSpecifier.TimespanSpecifier</title>
<g id="a_node2"><a xlink:href="../api/tsmakers/TimespanSpecifier.html#tsmakers.TimespanSpecifier.TimespanSpecifier" xlink:title="Timespan\nSpecifier" target="_top">
<path fill="#000000" stroke="#000000" stroke-width="2" d="M143.6571,-46.498C143.6571,-46.498 105.2472,-46.498 105.2472,-46.498 100.0812,-46.498 94.9152,-41.332 94.9152,-36.166 94.9152,-36.166 94.9152,-25.834 94.9152,-25.834 94.9152,-20.668 100.0812,-15.502 105.2472,-15.502 105.2472,-15.502 143.6571,-15.502 143.6571,-15.502 148.8231,-15.502 153.9891,-20.668 153.9891,-25.834 153.9891,-25.834 153.9891,-36.166 153.9891,-36.166 153.9891,-41.332 148.8231,-46.498 143.6571,-46.498"/>
<text text-anchor="middle" x="124.4521" y="-34.499" font-family="Arial" font-size="10.00" fill="#ffffff">Timespan</text>
<text text-anchor="middle" x="124.4521" y="-23" font-family="Arial" font-size="10.00" fill="#ffffff">Specifier</text>
</a>
</g>
</g>
</g>
</svg>
