<?xml version="1.0" encoding="UTF-8" standalone="no"?>
<!DOCTYPE svg PUBLIC "-//W3C//DTD SVG 1.1//EN"
 "http://www.w3.org/Graphics/SVG/1.1/DTD/svg11.dtd">
<!-- Generated by graphviz version 2.40.1 (20161225.0304)
 -->
<!-- Title: InheritanceGraph Pages: 1 -->
<svg width="646pt" height="1202pt"
 viewBox="0.00 0.00 645.72 1202.36" xmlns="http://www.w3.org/2000/svg" xmlns:xlink="http://www.w3.org/1999/xlink">
<g id="graph0" class="graph" transform="scale(1 1) rotate(0) translate(4 1198.3566)">
<title>InheritanceGraph</title>
<g id="clust1" class="cluster">
<title>cluster_abjad.timespan</title>
<path fill="transparent" stroke="#bcd2ee" stroke-width="2" stroke-dasharray="5,2" d="M98.5483,-1109.3566C98.5483,-1109.3566 158.0835,-1109.3566 158.0835,-1109.3566 164.0835,-1109.3566 170.0835,-1115.3566 170.0835,-1121.3566 170.0835,-1121.3566 170.0835,-1152.3566 170.0835,-1152.3566 170.0835,-1158.3566 164.0835,-1164.3566 158.0835,-1164.3566 158.0835,-1164.3566 98.5483,-1164.3566 98.5483,-1164.3566 92.5483,-1164.3566 86.5483,-1158.3566 86.5483,-1152.3566 86.5483,-1152.3566 86.5483,-1121.3566 86.5483,-1121.3566 86.5483,-1115.3566 92.5483,-1109.3566 98.5483,-1109.3566"/>
<text text-anchor="middle" x="128.3159" y="-1152.3566" font-family="Arial" font-size="10.00" fill="#000000">abjad.timespan</text>
</g>
<g id="clust2" class="cluster">
<title>cluster_builtins</title>
<path fill="transparent" stroke="#bcd2ee" stroke-width="2" stroke-dasharray="5,2" d="M20,-772.3566C20,-772.3566 54.6846,-772.3566 54.6846,-772.3566 60.6846,-772.3566 66.6846,-778.3566 66.6846,-784.3566 66.6846,-784.3566 66.6846,-815.3566 66.6846,-815.3566 66.6846,-821.3566 60.6846,-827.3566 54.6846,-827.3566 54.6846,-827.3566 20,-827.3566 20,-827.3566 14,-827.3566 8,-821.3566 8,-815.3566 8,-815.3566 8,-784.3566 8,-784.3566 8,-778.3566 14,-772.3566 20,-772.3566"/>
<text text-anchor="middle" x="37.3423" y="-815.3566" font-family="Arial" font-size="10.00" fill="#000000">builtins</text>
</g>
<g id="clust3" class="cluster">
<title>cluster_evans.commands</title>
<path fill="transparent" stroke="#bcd2ee" stroke-width="2" stroke-dasharray="5,2" d="M447.7817,-916.3566C447.7817,-916.3566 517.9097,-916.3566 517.9097,-916.3566 523.9097,-916.3566 529.9097,-922.3566 529.9097,-928.3566 529.9097,-928.3566 529.9097,-1056.3566 529.9097,-1056.3566 529.9097,-1062.3566 523.9097,-1068.3566 517.9097,-1068.3566 517.9097,-1068.3566 447.7817,-1068.3566 447.7817,-1068.3566 441.7817,-1068.3566 435.7817,-1062.3566 435.7817,-1056.3566 435.7817,-1056.3566 435.7817,-928.3566 435.7817,-928.3566 435.7817,-922.3566 441.7817,-916.3566 447.7817,-916.3566"/>
<text text-anchor="middle" x="482.8457" y="-1056.3566" font-family="Arial" font-size="10.00" fill="#000000">evans.commands</text>
</g>
<g id="clust4" class="cluster">
<title>cluster_evans.consort</title>
<path fill="transparent" stroke="#bcd2ee" stroke-width="2" stroke-dasharray="5,2" d="M109.8652,-691.3566C109.8652,-691.3566 617.7197,-691.3566 617.7197,-691.3566 623.7197,-691.3566 629.7197,-697.3566 629.7197,-703.3566 629.7197,-703.3566 629.7197,-896.3566 629.7197,-896.3566 629.7197,-902.3566 623.7197,-908.3566 617.7197,-908.3566 617.7197,-908.3566 109.8652,-908.3566 109.8652,-908.3566 103.8652,-908.3566 97.8652,-902.3566 97.8652,-896.3566 97.8652,-896.3566 97.8652,-703.3566 97.8652,-703.3566 97.8652,-697.3566 103.8652,-691.3566 109.8652,-691.3566"/>
<text text-anchor="middle" x="363.7925" y="-896.3566" font-family="Arial" font-size="10.00" fill="#000000">evans.consort</text>
</g>
<g id="clust5" class="cluster">
<title>cluster_evans.handlers</title>
<path fill="transparent" stroke="#bcd2ee" stroke-width="2" stroke-dasharray="5,2" d="M106.8062,-242.3566C106.8062,-242.3566 613.2739,-242.3566 613.2739,-242.3566 619.2739,-242.3566 625.2739,-248.3566 625.2739,-254.3566 625.2739,-254.3566 625.2739,-671.3566 625.2739,-671.3566 625.2739,-677.3566 619.2739,-683.3566 613.2739,-683.3566 613.2739,-683.3566 106.8062,-683.3566 106.8062,-683.3566 100.8062,-683.3566 94.8062,-677.3566 94.8062,-671.3566 94.8062,-671.3566 94.8062,-254.3566 94.8062,-254.3566 94.8062,-248.3566 100.8062,-242.3566 106.8062,-242.3566"/>
<text text-anchor="middle" x="360.04" y="-671.3566" font-family="Arial" font-size="10.00" fill="#000000">evans.handlers</text>
</g>
<g id="clust6" class="cluster">
<title>cluster_evans.rtm</title>
<path fill="transparent" stroke="#bcd2ee" stroke-width="2" stroke-dasharray="5,2" d="M99.6846,-179.3566C99.6846,-179.3566 156.9473,-179.3566 156.9473,-179.3566 162.9473,-179.3566 168.9473,-185.3566 168.9473,-191.3566 168.9473,-191.3566 168.9473,-222.3566 168.9473,-222.3566 168.9473,-228.3566 162.9473,-234.3566 156.9473,-234.3566 156.9473,-234.3566 99.6846,-234.3566 99.6846,-234.3566 93.6846,-234.3566 87.6846,-228.3566 87.6846,-222.3566 87.6846,-222.3566 87.6846,-191.3566 87.6846,-191.3566 87.6846,-185.3566 93.6846,-179.3566 99.6846,-179.3566"/>
<text text-anchor="middle" x="128.3159" y="-222.3566" font-family="Arial" font-size="10.00" fill="#000000">evans.rtm</text>
</g>
<g id="clust7" class="cluster">
<title>cluster_evans.segmentmaker</title>
<path fill="transparent" stroke="#bcd2ee" stroke-width="2" stroke-dasharray="5,2" d="M307.9644,-101.3566C307.9644,-101.3566 395.3335,-101.3566 395.3335,-101.3566 401.3335,-101.3566 407.3335,-107.3566 407.3335,-113.3566 407.3335,-113.3566 407.3335,-216.3566 407.3335,-216.3566 407.3335,-222.3566 401.3335,-228.3566 395.3335,-228.3566 395.3335,-228.3566 307.9644,-228.3566 307.9644,-228.3566 301.9644,-228.3566 295.9644,-222.3566 295.9644,-216.3566 295.9644,-216.3566 295.9644,-113.3566 295.9644,-113.3566 295.9644,-107.3566 301.9644,-101.3566 307.9644,-101.3566"/>
<text text-anchor="middle" x="351.6489" y="-216.3566" font-family="Arial" font-size="10.00" fill="#000000">evans.segmentmaker</text>
</g>
<g id="clust8" class="cluster">
<title>cluster_evans.sequence</title>
<path fill="transparent" stroke="#bcd2ee" stroke-width="2" stroke-dasharray="5,2" d="M450.4541,-12.3566C450.4541,-12.3566 515.2373,-12.3566 515.2373,-12.3566 521.2373,-12.3566 527.2373,-18.3566 527.2373,-24.3566 527.2373,-24.3566 527.2373,-115.3566 527.2373,-115.3566 527.2373,-121.3566 521.2373,-127.3566 515.2373,-127.3566 515.2373,-127.3566 450.4541,-127.3566 450.4541,-127.3566 444.4541,-127.3566 438.4541,-121.3566 438.4541,-115.3566 438.4541,-115.3566 438.4541,-24.3566 438.4541,-24.3566 438.4541,-18.3566 444.4541,-12.3566 450.4541,-12.3566"/>
<text text-anchor="middle" x="482.8457" y="-115.3566" font-family="Arial" font-size="10.00" fill="#000000">evans.sequence</text>
</g>
<g id="clust9" class="cluster">
<title>cluster_evans.timespan</title>
<path fill="transparent" stroke="#bcd2ee" stroke-width="2" stroke-dasharray="5,2" d="M320.8813,-1022.3566C320.8813,-1022.3566 382.4165,-1022.3566 382.4165,-1022.3566 388.4165,-1022.3566 394.4165,-1028.3566 394.4165,-1034.3566 394.4165,-1034.3566 394.4165,-1174.3566 394.4165,-1174.3566 394.4165,-1180.3566 388.4165,-1186.3566 382.4165,-1186.3566 382.4165,-1186.3566 320.8813,-1186.3566 320.8813,-1186.3566 314.8813,-1186.3566 308.8813,-1180.3566 308.8813,-1174.3566 308.8813,-1174.3566 308.8813,-1034.3566 308.8813,-1034.3566 308.8813,-1028.3566 314.8813,-1022.3566 320.8813,-1022.3566"/>
<text text-anchor="middle" x="351.6489" y="-1174.3566" font-family="Arial" font-size="10.00" fill="#000000">evans.timespan</text>
</g>
<!-- abjad.timespan.Timespan&#45;&gt;evans.timespan.SilentTimespan -->
<g id="edge22" class="edge">
<title>abjad.timespan.Timespan&#45;&gt;evans.timespan.SilentTimespan</title>
<path fill="none" stroke="#778899" d="M157.9728,-1129.4813C197.518,-1132.3144 267.6451,-1137.3385 311.7839,-1140.5006"/>
<polygon fill="#778899" stroke="#778899" points="311.6448,-1143.9996 321.8694,-1141.2232 312.1451,-1137.0174 311.6448,-1143.9996"/>
</g>
<!-- builtins.object&#45;&gt;abjad.timespan.Timespan -->
<g id="edge23" class="edge">
<title>builtins.object&#45;&gt;abjad.timespan.Timespan</title>
<path fill="none" stroke="#778899" d="M37.8436,-800.3165C40.3801,-847.5549 53.0225,-1048.8685 86.5483,-1100.3566 89.4194,-1104.7659 93.2902,-1108.6059 97.5222,-1111.8979"/>
<polygon fill="#778899" stroke="#778899" points="95.6865,-1114.8812 105.9376,-1117.5584 99.5935,-1109.0729 95.6865,-1114.8812"/>
</g>
<!-- builtins.object&#45;&gt;evans.commands.Command -->
<g id="edge24" class="edge">
<title>builtins.object&#45;&gt;evans.commands.Command</title>
<path fill="none" stroke="#778899" d="M38.7128,-800.2634C43.5904,-834.0659 61.1804,-944.0543 86.5483,-967.3566 99.6483,-979.39 311.2991,-1003.2135 407.3335,-1018.3566 418.5007,-1020.1175 430.5753,-1022.142 441.7241,-1024.0609"/>
<polygon fill="#778899" stroke="#778899" points="441.1989,-1027.522 451.6501,-1025.7829 442.3955,-1020.625 441.1989,-1027.522"/>
</g>
<!-- builtins.object&#45;&gt;evans.commands.HandlerCommand -->
<g id="edge25" class="edge">
<title>builtins.object&#45;&gt;evans.commands.HandlerCommand</title>
<path fill="none" stroke="#778899" d="M39.2378,-800.3554C45.1793,-830.5971 64.3694,-920.1386 86.5483,-938.3566 140.0271,-982.2848 351.0209,-988.1082 441.3988,-988.5419"/>
<polygon fill="#778899" stroke="#778899" points="441.5397,-992.0422 451.5495,-988.5701 441.5593,-985.0423 441.5397,-992.0422"/>
</g>
<!-- builtins.object&#45;&gt;evans.commands.RhythmCommand -->
<g id="edge26" class="edge">
<title>builtins.object&#45;&gt;evans.commands.RhythmCommand</title>
<path fill="none" stroke="#778899" d="M37.9712,-800.3777C40.0704,-824.3688 49.0245,-885.128 86.5483,-912.3566 142.1836,-952.7276 351.4955,-946.5955 441.3978,-941.9054"/>
<polygon fill="#778899" stroke="#778899" points="441.702,-945.3941 451.498,-941.3581 441.3232,-938.4044 441.702,-945.3941"/>
</g>
<!-- builtins.object&#45;&gt;evans.consort.AbjadObject.AbjadObject -->
<g id="edge27" class="edge">
<title>builtins.object&#45;&gt;evans.consort.AbjadObject.AbjadObject</title>
<path fill="none" stroke="#778899" d="M58.9018,-790.3566C69.793,-790.3566 83.2427,-790.3566 95.3942,-790.3566"/>
<polygon fill="#778899" stroke="#778899" points="95.6417,-793.8567 105.6417,-790.3566 95.6416,-786.8567 95.6417,-793.8567"/>
</g>
<!-- builtins.object&#45;&gt;evans.handlers.Handler -->
<g id="edge28" class="edge">
<title>builtins.object&#45;&gt;evans.handlers.Handler</title>
<path fill="none" stroke="#778899" d="M40.0649,-780.6001C52.6711,-735.4265 105.4886,-546.1574 122.7974,-484.1322"/>
<polygon fill="#778899" stroke="#778899" points="126.1979,-484.9675 125.5147,-474.3948 119.4555,-483.086 126.1979,-484.9675"/>
</g>
<!-- builtins.object&#45;&gt;evans.rtm.RTMMaker -->
<g id="edge29" class="edge">
<title>builtins.object&#45;&gt;evans.rtm.RTMMaker</title>
<path fill="none" stroke="#778899" d="M37.8149,-780.4092C41.2095,-710.096 62.4319,-289.3462 86.5483,-238.3566 90.9512,-229.0477 98.4137,-220.6837 105.8235,-213.9754"/>
<polygon fill="#778899" stroke="#778899" points="108.2784,-216.4847 113.6959,-207.3796 103.7828,-211.119 108.2784,-216.4847"/>
</g>
<!-- builtins.object&#45;&gt;evans.segmentmaker.NoteheadBracketMaker -->
<g id="edge30" class="edge">
<title>builtins.object&#45;&gt;evans.segmentmaker.NoteheadBracketMaker</title>
<path fill="none" stroke="#778899" d="M37.7503,-780.5692C41.0085,-703.5058 63.2821,-196.8357 86.5483,-175.3566 147.6136,-118.9821 254.4119,-144.1183 312.0569,-163.8303"/>
<polygon fill="#778899" stroke="#778899" points="310.9547,-167.1528 321.5495,-167.1801 313.2842,-160.5518 310.9547,-167.1528"/>
</g>
<!-- builtins.object&#45;&gt;evans.segmentmaker.SegmentMaker -->
<g id="edge31" class="edge">
<title>builtins.object&#45;&gt;evans.segmentmaker.SegmentMaker</title>
<path fill="none" stroke="#778899" d="M37.7165,-780.4879C40.7941,-700.5125 62.4225,-160.8582 86.5483,-137.3566 146.8003,-78.6637 255.914,-97.0628 313.5737,-112.455"/>
<polygon fill="#778899" stroke="#778899" points="312.8096,-115.8751 323.3815,-115.1776 314.6821,-109.1302 312.8096,-115.8751"/>
</g>
<!-- builtins.object&#45;&gt;evans.sequence.CyclicList -->
<g id="edge32" class="edge">
<title>builtins.object&#45;&gt;evans.sequence.CyclicList</title>
<path fill="none" stroke="#778899" d="M37.6698,-780.3819C40.4492,-697.1273 60.6166,-120.1983 86.5483,-95.3566 138.2039,-45.8725 367.2415,-69.494 451.5547,-80.1277"/>
<polygon fill="#778899" stroke="#778899" points="451.1886,-83.6094 461.5535,-81.4141 452.0819,-76.6666 451.1886,-83.6094"/>
</g>
<!-- builtins.object&#45;&gt;evans.sequence.MarkovChain -->
<g id="edge33" class="edge">
<title>builtins.object&#45;&gt;evans.sequence.MarkovChain</title>
<path fill="none" stroke="#778899" d="M37.6448,-780.4889C40.2915,-695.5993 60.0443,-91.0034 86.5483,-64.3566 184.0885,33.7091 371.9295,-4.046 448.7943,-25.0264"/>
<polygon fill="#778899" stroke="#778899" points="447.8845,-28.4063 458.4582,-27.7371 449.775,-21.6664 447.8845,-28.4063"/>
</g>
<!-- builtins.object&#45;&gt;evans.timespan.TimespanMaker -->
<g id="edge34" class="edge">
<title>builtins.object&#45;&gt;evans.timespan.TimespanMaker</title>
<path fill="none" stroke="#778899" d="M37.7999,-800.3452C39.9812,-843.4495 50.7497,-1012.9858 86.5483,-1049.3566 145.7385,-1109.4929 253.5018,-1107.1433 311.7406,-1100.5659"/>
<polygon fill="#778899" stroke="#778899" points="312.5177,-1103.9969 322.0159,-1099.3027 311.6635,-1097.0492 312.5177,-1103.9969"/>
</g>
<!-- builtins.object&#45;&gt;evans.timespan.TimespanSpecifier -->
<g id="edge35" class="edge">
<title>builtins.object&#45;&gt;evans.timespan.TimespanSpecifier</title>
<path fill="none" stroke="#778899" d="M38.0004,-800.2104C40.858,-839.8138 53.5634,-986.6778 86.5483,-1016.3566 148.4343,-1072.0398 254.1688,-1063.8084 311.6249,-1053.9764"/>
<polygon fill="#778899" stroke="#778899" points="312.5548,-1057.365 321.77,-1052.137 311.3059,-1050.4773 312.5548,-1057.365"/>
</g>
<!-- evans.consort.AbjadObject.AbjadObject&#45;&gt;evans.consort.AbjadValueObject.AbjadValueObject -->
<g id="edge1" class="edge">
<title>evans.consort.AbjadObject.AbjadObject&#45;&gt;evans.consort.AbjadValueObject.AbjadValueObject</title>
<path fill="none" stroke="#778899" d="M150.7804,-774.9948C165.1811,-765.1473 184.0662,-752.2331 199.8605,-741.4326"/>
<polygon fill="#778899" stroke="#778899" points="201.9902,-744.2164 208.2691,-735.6826 198.0389,-738.4382 201.9902,-744.2164"/>
</g>
<!-- evans.consort.AbjadObject.AbjadObject&#45;&gt;evans.consort.LogicalTieCollection.LogicalTieCollection -->
<g id="edge2" class="edge">
<title>evans.consort.AbjadObject.AbjadObject&#45;&gt;evans.consort.LogicalTieCollection.LogicalTieCollection</title>
<path fill="none" stroke="#778899" d="M150.9593,-785.2872C188.6687,-776.8448 264.8134,-759.7975 311.7054,-749.2992"/>
<polygon fill="#778899" stroke="#778899" points="312.5346,-752.7003 321.5283,-747.1001 311.0052,-745.8694 312.5346,-752.7003"/>
</g>
<!-- evans.consort.AbjadObject.AbjadObject&#45;&gt;evans.consort.RatioPartsExpression.RatioPartsExpression -->
<g id="edge3" class="edge">
<title>evans.consort.AbjadObject.AbjadObject&#45;&gt;evans.consort.RatioPartsExpression.RatioPartsExpression</title>
<path fill="none" stroke="#778899" d="M150.7789,-789.2058C198.2336,-786.6734 312.1542,-780.0613 407.3335,-770.3566 417.9015,-769.2791 429.2722,-767.8932 439.9014,-766.4986"/>
<polygon fill="#778899" stroke="#778899" points="440.369,-769.9673 449.8147,-765.1685 439.4381,-763.0294 440.369,-769.9673"/>
</g>
<!-- evans.consort.AbjadObject.AbjadObject&#45;&gt;evans.consort.TimespanCollection.TimespanCollection -->
<g id="edge4" class="edge">
<title>evans.consort.AbjadObject.AbjadObject&#45;&gt;evans.consort.TimespanCollection.TimespanCollection</title>
<path fill="none" stroke="#778899" d="M150.9827,-790.8457C224.5519,-792.4332 457.3429,-797.4562 551.5785,-799.4895"/>
<polygon fill="#778899" stroke="#778899" points="551.5034,-802.9886 561.5766,-799.7053 551.6545,-795.9903 551.5034,-802.9886"/>
</g>
<!-- evans.consort.AbjadObject.AbjadObject&#45;&gt;evans.consort.TimespanCollectionNode.TimespanCollectionNode -->
<g id="edge5" class="edge">
<title>evans.consort.AbjadObject.AbjadObject&#45;&gt;evans.consort.TimespanCollectionNode.TimespanCollectionNode</title>
<path fill="none" stroke="#778899" d="M150.7804,-801.3294C162.6393,-807.1218 177.5394,-814.3997 191.2502,-821.0967"/>
<polygon fill="#778899" stroke="#778899" points="189.9787,-824.3708 200.5003,-825.6149 193.051,-818.081 189.9787,-824.3708"/>
</g>
<!-- evans.consort.AbjadObject.AbjadObject&#45;&gt;evans.consort.TimespanSimultaneity.TimespanSimultaneity -->
<g id="edge6" class="edge">
<title>evans.consort.AbjadObject.AbjadObject&#45;&gt;evans.consort.TimespanSimultaneity.TimespanSimultaneity</title>
<path fill="none" stroke="#778899" d="M136.3859,-805.969C147.3494,-825.2624 168.9567,-857.1559 197.9473,-870.3566 231.9313,-885.8311 274.6597,-882.9045 306.4339,-877.0643"/>
<polygon fill="#778899" stroke="#778899" points="307.2197,-880.4766 316.3403,-875.0854 305.8484,-873.6122 307.2197,-880.4766"/>
</g>
<!-- evans.handlers.Handler&#45;&gt;evans.handlers.ArticulationHandler -->
<g id="edge7" class="edge">
<title>evans.handlers.Handler&#45;&gt;evans.handlers.ArticulationHandler</title>
<path fill="none" stroke="#778899" d="M130.692,-454.3737C137.5804,-426.8694 159.549,-348.4531 197.9473,-294.3566 199.4469,-292.2439 201.1284,-290.1791 202.9167,-288.187"/>
<polygon fill="#778899" stroke="#778899" points="205.5897,-290.4636 210.1836,-280.9165 200.6387,-285.515 205.5897,-290.4636"/>
</g>
<!-- evans.handlers.Handler&#45;&gt;evans.handlers.BendHandler -->
<g id="edge8" class="edge">
<title>evans.handlers.Handler&#45;&gt;evans.handlers.BendHandler</title>
<path fill="none" stroke="#778899" d="M129.7713,-454.3822C134.3067,-427.1341 150.8192,-351.034 197.9473,-314.3566 215.9473,-300.3482 276.5085,-292.237 316.0223,-288.3156"/>
<polygon fill="#778899" stroke="#778899" points="316.4408,-291.7917 326.0658,-287.3635 315.7801,-284.823 316.4408,-291.7917"/>
</g>
<!-- evans.handlers.Handler&#45;&gt;evans.handlers.BisbigliandoHandler -->
<g id="edge9" class="edge">
<title>evans.handlers.Handler&#45;&gt;evans.handlers.BisbigliandoHandler</title>
<path fill="none" stroke="#778899" d="M130.3135,-454.4121C135.9219,-429.3585 154.3415,-363.5688 197.9473,-334.3566 217.3762,-321.3409 362.1396,-311.7924 437.5103,-307.6453"/>
<polygon fill="#778899" stroke="#778899" points="437.8682,-311.1311 447.6646,-307.0961 437.4902,-304.1413 437.8682,-311.1311"/>
</g>
<!-- evans.handlers.Handler&#45;&gt;evans.handlers.ClefHandler -->
<g id="edge10" class="edge">
<title>evans.handlers.Handler&#45;&gt;evans.handlers.ClefHandler</title>
<path fill="none" stroke="#778899" d="M130.8605,-454.3237C137.3908,-430.942 157.1707,-373.0226 197.9473,-349.3566 228.3885,-331.6892 464.507,-335.9688 555.85,-338.3235"/>
<polygon fill="#778899" stroke="#778899" points="555.9079,-341.8262 565.9973,-338.5927 556.0936,-334.8287 555.9079,-341.8262"/>
</g>
<!-- evans.handlers.Handler&#45;&gt;evans.handlers.DynamicHandler -->
<g id="edge11" class="edge">
<title>evans.handlers.Handler&#45;&gt;evans.handlers.DynamicHandler</title>
<path fill="none" stroke="#778899" d="M139.6452,-454.2534C153.4183,-441.9745 177.3735,-420.6296 197.9473,-402.3566 200.3882,-400.1887 202.9327,-397.9308 205.4771,-395.6744"/>
<polygon fill="#778899" stroke="#778899" points="207.8442,-398.2533 213.0062,-389.001 203.2011,-393.0148 207.8442,-398.2533"/>
</g>
<!-- evans.handlers.Handler&#45;&gt;evans.handlers.GettatoHandler -->
<g id="edge12" class="edge">
<title>evans.handlers.Handler&#45;&gt;evans.handlers.GettatoHandler</title>
<path fill="none" stroke="#778899" d="M141.4448,-454.4657C154.9201,-444.804 176.844,-430.4114 197.9473,-422.3566 236.6959,-407.5669 283.9189,-400.1022 315.7116,-396.4864"/>
<polygon fill="#778899" stroke="#778899" points="316.2953,-399.9441 325.8674,-395.4028 315.5525,-392.9836 316.2953,-399.9441"/>
</g>
<!-- evans.handlers.Handler&#45;&gt;evans.handlers.GlissandoHandler -->
<g id="edge13" class="edge">
<title>evans.handlers.Handler&#45;&gt;evans.handlers.GlissandoHandler</title>
<path fill="none" stroke="#778899" d="M154.1035,-454.821C167.0879,-450.3774 183.1727,-445.4091 197.9473,-442.3566 243.586,-432.9277 375.1652,-421.7566 442.3404,-416.4514"/>
<polygon fill="#778899" stroke="#778899" points="442.8497,-419.9223 452.5456,-415.6515 442.3026,-412.9437 442.8497,-419.9223"/>
</g>
<!-- evans.handlers.Handler&#45;&gt;evans.handlers.GraceHandler -->
<g id="edge14" class="edge">
<title>evans.handlers.Handler&#45;&gt;evans.handlers.GraceHandler</title>
<path fill="none" stroke="#778899" d="M154.0713,-461.3035C167.1871,-459.8668 183.3963,-458.2715 197.9473,-457.3566 329.475,-449.0872 486.121,-447.601 555.554,-447.3717"/>
<polygon fill="#778899" stroke="#778899" points="555.9407,-450.8708 565.9316,-447.3448 555.9225,-443.8708 555.9407,-450.8708"/>
</g>
<!-- evans.handlers.Handler&#45;&gt;evans.handlers.NoteheadHandler -->
<g id="edge15" class="edge">
<title>evans.handlers.Handler&#45;&gt;evans.handlers.NoteheadHandler</title>
<path fill="none" stroke="#778899" d="M153.8829,-468.6026C164.9864,-470.4466 178.2569,-472.6504 190.6181,-474.7033"/>
<polygon fill="#778899" stroke="#778899" points="190.2819,-478.1953 200.7202,-476.381 191.4287,-471.2899 190.2819,-478.1953"/>
</g>
<!-- evans.handlers.Handler&#45;&gt;evans.handlers.PitchHandler -->
<g id="edge16" class="edge">
<title>evans.handlers.Handler&#45;&gt;evans.handlers.PitchHandler</title>
<path fill="none" stroke="#778899" d="M140.717,-474.4636C153.9608,-484.5496 176.0205,-499.3807 197.9473,-505.3566 237.2825,-516.0771 284.3921,-512.5817 315.998,-508.0173"/>
<polygon fill="#778899" stroke="#778899" points="316.7454,-511.4432 326.0885,-506.4474 315.6693,-504.5264 316.7454,-511.4432"/>
</g>
<!-- evans.handlers.Handler&#45;&gt;evans.handlers.RhythmHandler -->
<g id="edge17" class="edge">
<title>evans.handlers.Handler&#45;&gt;evans.handlers.RhythmHandler</title>
<path fill="none" stroke="#778899" d="M138.671,-474.174C151.485,-485.6824 174.496,-504.3277 197.9473,-513.3566 282.3233,-545.842 391.3943,-536.0293 446.9214,-527.7502"/>
<polygon fill="#778899" stroke="#778899" points="447.6294,-531.1821 456.9692,-526.1803 446.5487,-524.266 447.6294,-531.1821"/>
</g>
<!-- evans.handlers.Handler&#45;&gt;evans.handlers.SlurHandler -->
<g id="edge18" class="edge">
<title>evans.handlers.Handler&#45;&gt;evans.handlers.SlurHandler</title>
<path fill="none" stroke="#778899" d="M136.0796,-474.2961C147.7958,-488.4984 171.4601,-514.2195 197.9473,-526.3566 319.1775,-581.9076 483.5433,-569.7834 555.504,-560.755"/>
<polygon fill="#778899" stroke="#778899" points="556.3779,-564.1704 565.8374,-559.3986 555.4669,-557.2299 556.3779,-564.1704"/>
</g>
<!-- evans.handlers.Handler&#45;&gt;evans.handlers.TempoSpannerHandler -->
<g id="edge19" class="edge">
<title>evans.handlers.Handler&#45;&gt;evans.handlers.TempoSpannerHandler</title>
<path fill="none" stroke="#778899" d="M134.8504,-474.1917C146.7558,-491.9156 173.0541,-530.1793 197.9473,-560.3566 199.5686,-562.3221 201.2705,-564.3183 203.0104,-566.3096"/>
<polygon fill="#778899" stroke="#778899" points="200.534,-568.7902 209.8201,-573.891 205.7417,-564.1126 200.534,-568.7902"/>
</g>
<!-- evans.handlers.Handler&#45;&gt;evans.handlers.TextSpanHandler -->
<g id="edge20" class="edge">
<title>evans.handlers.Handler&#45;&gt;evans.handlers.TextSpanHandler</title>
<path fill="none" stroke="#778899" d="M129.036,-474.2612C131.7643,-503.5789 144.2445,-590.0725 197.9473,-625.3566 233.0869,-648.4443 283.0433,-639.3988 316.3596,-628.9829"/>
<polygon fill="#778899" stroke="#778899" points="317.7416,-632.212 326.1302,-625.7404 315.5367,-625.5683 317.7416,-632.212"/>
</g>
<!-- evans.handlers.Handler&#45;&gt;evans.handlers.TrillHandler -->
<g id="edge21" class="edge">
<title>evans.handlers.Handler&#45;&gt;evans.handlers.TrillHandler</title>
<path fill="none" stroke="#778899" d="M128.8819,-474.3245C131.1967,-504.7232 142.6805,-596.6539 197.9473,-637.3566 271.9652,-691.8691 388.6575,-668.8165 447.0586,-652.0869"/>
<polygon fill="#778899" stroke="#778899" points="448.334,-655.3594 456.9258,-649.16 446.3433,-648.6484 448.334,-655.3594"/>
</g>
<!-- abjad.timespan.Timespan -->
<g id="node1" class="node">
<title>abjad.timespan.Timespan</title>
<path fill="#fbb4ae" stroke="#fbb4ae" stroke-width="2" d="M151.1825,-1137.3622C151.1825,-1137.3622 105.4493,-1137.3622 105.4493,-1137.3622 102.1142,-1137.3622 98.779,-1134.027 98.779,-1130.6918 98.779,-1130.6918 98.779,-1124.0215 98.779,-1124.0215 98.779,-1120.6863 102.1142,-1117.3511 105.4493,-1117.3511 105.4493,-1117.3511 151.1825,-1117.3511 151.1825,-1117.3511 154.5177,-1117.3511 157.8529,-1120.6863 157.8529,-1124.0215 157.8529,-1124.0215 157.8529,-1130.6918 157.8529,-1130.6918 157.8529,-1134.027 154.5177,-1137.3622 151.1825,-1137.3622"/>
<text text-anchor="middle" x="128.3159" y="-1125.1062" font-family="Arial" font-size="10.00" fill="#000000">Timespan</text>
</g>
<!-- builtins.object -->
<g id="node2" class="node">
<title>builtins.object</title>
<g id="a_node2"><a xlink:href="https://docs.python.org/3.7/library/functions.html#object" xlink:title="object" target="_top">
<path fill="#b3cde3" stroke="#b3cde3" stroke-width="2" d="M51.8576,-800.3622C51.8576,-800.3622 22.8269,-800.3622 22.8269,-800.3622 19.4918,-800.3622 16.1566,-797.027 16.1566,-793.6918 16.1566,-793.6918 16.1566,-787.0215 16.1566,-787.0215 16.1566,-783.6863 19.4918,-780.3511 22.8269,-780.3511 22.8269,-780.3511 51.8576,-780.3511 51.8576,-780.3511 55.1928,-780.3511 58.528,-783.6863 58.528,-787.0215 58.528,-787.0215 58.528,-793.6918 58.528,-793.6918 58.528,-797.027 55.1928,-800.3622 51.8576,-800.3622"/>
<text text-anchor="middle" x="37.3423" y="-788.1062" font-family="Arial" font-size="10.00" fill="#000000">object</text>
</a>
</g>
</g>
<!-- evans.commands.Command -->
<g id="node3" class="node">
<title>evans.commands.Command</title>
<g id="a_node3"><a xlink:href="../api/evans/commands.html#evans.commands.Command" xlink:title="Command" target="_top">
<path fill="#ccebc5" stroke="#ccebc5" stroke-width="2" d="M507.3034,-1041.3622C507.3034,-1041.3622 458.388,-1041.3622 458.388,-1041.3622 455.0528,-1041.3622 451.7176,-1038.027 451.7176,-1034.6918 451.7176,-1034.6918 451.7176,-1028.0215 451.7176,-1028.0215 451.7176,-1024.6863 455.0528,-1021.3511 458.388,-1021.3511 458.388,-1021.3511 507.3034,-1021.3511 507.3034,-1021.3511 510.6386,-1021.3511 513.9738,-1024.6863 513.9738,-1028.0215 513.9738,-1028.0215 513.9738,-1034.6918 513.9738,-1034.6918 513.9738,-1038.027 510.6386,-1041.3622 507.3034,-1041.3622"/>
<text text-anchor="middle" x="482.8457" y="-1029.1062" font-family="Arial" font-size="10.00" fill="#000000">Command</text>
</a>
</g>
</g>
<!-- evans.commands.HandlerCommand -->
<g id="node4" class="node">
<title>evans.commands.HandlerCommand</title>
<g id="a_node4"><a xlink:href="../api/evans/commands.html#evans.commands.HandlerCommand" xlink:title="Handler\nCommand" target="_top">
<path fill="#ccebc5" stroke="#ccebc5" stroke-width="2" d="M503.6417,-1003.8547C503.6417,-1003.8547 462.0497,-1003.8547 462.0497,-1003.8547 456.8837,-1003.8547 451.7176,-998.6887 451.7176,-993.5227 451.7176,-993.5227 451.7176,-983.1906 451.7176,-983.1906 451.7176,-978.0246 456.8837,-972.8586 462.0497,-972.8586 462.0497,-972.8586 503.6417,-972.8586 503.6417,-972.8586 508.8077,-972.8586 513.9738,-978.0246 513.9738,-983.1906 513.9738,-983.1906 513.9738,-993.5227 513.9738,-993.5227 513.9738,-998.6887 508.8077,-1003.8547 503.6417,-1003.8547"/>
<text text-anchor="middle" x="482.8457" y="-991.8557" font-family="Arial" font-size="10.00" fill="#000000">Handler</text>
<text text-anchor="middle" x="482.8457" y="-980.3566" font-family="Arial" font-size="10.00" fill="#000000">Command</text>
</a>
</g>
</g>
<!-- evans.commands.RhythmCommand -->
<g id="node5" class="node">
<title>evans.commands.RhythmCommand</title>
<g id="a_node5"><a xlink:href="../api/evans/commands.html#evans.commands.RhythmCommand" xlink:title="Rhythm\nCommand" target="_top">
<path fill="#ccebc5" stroke="#ccebc5" stroke-width="2" d="M503.6417,-954.8547C503.6417,-954.8547 462.0497,-954.8547 462.0497,-954.8547 456.8837,-954.8547 451.7176,-949.6887 451.7176,-944.5227 451.7176,-944.5227 451.7176,-934.1906 451.7176,-934.1906 451.7176,-929.0246 456.8837,-923.8586 462.0497,-923.8586 462.0497,-923.8586 503.6417,-923.8586 503.6417,-923.8586 508.8077,-923.8586 513.9738,-929.0246 513.9738,-934.1906 513.9738,-934.1906 513.9738,-944.5227 513.9738,-944.5227 513.9738,-949.6887 508.8077,-954.8547 503.6417,-954.8547"/>
<text text-anchor="middle" x="482.8457" y="-942.8557" font-family="Arial" font-size="10.00" fill="#000000">Rhythm</text>
<text text-anchor="middle" x="482.8457" y="-931.3566" font-family="Arial" font-size="10.00" fill="#000000">Command</text>
</a>
</g>
</g>
<!-- evans.consort.AbjadObject.AbjadObject -->
<g id="node6" class="node">
<title>evans.consort.AbjadObject.AbjadObject</title>
<g id="a_node6"><a xlink:href="../api/evans/consort/AbjadObject.html#evans.consort.AbjadObject.AbjadObject" xlink:title="Abjad\nObject" target="_top">
<path fill="#decbe4" stroke="#decbe4" stroke-width="2" d="M140.3854,-805.8547C140.3854,-805.8547 116.2465,-805.8547 116.2465,-805.8547 111.0805,-805.8547 105.9144,-800.6887 105.9144,-795.5227 105.9144,-795.5227 105.9144,-785.1906 105.9144,-785.1906 105.9144,-780.0246 111.0805,-774.8586 116.2465,-774.8586 116.2465,-774.8586 140.3854,-774.8586 140.3854,-774.8586 145.5514,-774.8586 150.7174,-780.0246 150.7174,-785.1906 150.7174,-785.1906 150.7174,-795.5227 150.7174,-795.5227 150.7174,-800.6887 145.5514,-805.8547 140.3854,-805.8547"/>
<text text-anchor="middle" x="128.3159" y="-793.8557" font-family="Arial" font-size="10.00" fill="#000000">Abjad</text>
<text text-anchor="middle" x="128.3159" y="-782.3566" font-family="Arial" font-size="10.00" fill="#000000">Object</text>
</a>
</g>
</g>
<!-- evans.consort.AbjadValueObject.AbjadValueObject -->
<g id="node7" class="node">
<title>evans.consort.AbjadValueObject.AbjadValueObject</title>
<g id="a_node7"><a xlink:href="../api/evans/consort/AbjadValueObject.html#evans.consort.AbjadValueObject.AbjadValueObject" xlink:title="Abjad\nValue\nObject" target="_top">
<path fill="#decbe4" stroke="#decbe4" stroke-width="2" d="M241.0826,-741.8567C241.0826,-741.8567 220.2797,-741.8567 220.2797,-741.8567 214.2797,-741.8567 208.2797,-735.8567 208.2797,-729.8567 208.2797,-729.8567 208.2797,-710.8566 208.2797,-710.8566 208.2797,-704.8566 214.2797,-698.8566 220.2797,-698.8566 220.2797,-698.8566 241.0826,-698.8566 241.0826,-698.8566 247.0826,-698.8566 253.0826,-704.8566 253.0826,-710.8566 253.0826,-710.8566 253.0826,-729.8567 253.0826,-729.8567 253.0826,-735.8567 247.0826,-741.8567 241.0826,-741.8567"/>
<text text-anchor="middle" x="230.6812" y="-729.6052" font-family="Arial" font-size="10.00" fill="#000000">Abjad</text>
<text text-anchor="middle" x="230.6812" y="-718.1062" font-family="Arial" font-size="10.00" fill="#000000">Value</text>
<text text-anchor="middle" x="230.6812" y="-706.6071" font-family="Arial" font-size="10.00" fill="#000000">Object</text>
</a>
</g>
</g>
<!-- evans.consort.LogicalTieCollection.LogicalTieCollection -->
<g id="node8" class="node">
<title>evans.consort.LogicalTieCollection.LogicalTieCollection</title>
<g id="a_node8"><a xlink:href="../api/evans/consort/LogicalTieCollection.html#evans.consort.LogicalTieCollection.LogicalTieCollection" xlink:title="Logical\nTie\nCollection" target="_top">
<path fill="#decbe4" stroke="#decbe4" stroke-width="2" d="M369.5601,-761.8567C369.5601,-761.8567 333.7377,-761.8567 333.7377,-761.8567 327.7377,-761.8567 321.7377,-755.8567 321.7377,-749.8567 321.7377,-749.8567 321.7377,-730.8566 321.7377,-730.8566 321.7377,-724.8566 327.7377,-718.8566 333.7377,-718.8566 333.7377,-718.8566 369.5601,-718.8566 369.5601,-718.8566 375.5601,-718.8566 381.5601,-724.8566 381.5601,-730.8566 381.5601,-730.8566 381.5601,-749.8567 381.5601,-749.8567 381.5601,-755.8567 375.5601,-761.8567 369.5601,-761.8567"/>
<text text-anchor="middle" x="351.6489" y="-749.6052" font-family="Arial" font-size="10.00" fill="#000000">Logical</text>
<text text-anchor="middle" x="351.6489" y="-738.1062" font-family="Arial" font-size="10.00" fill="#000000">Tie</text>
<text text-anchor="middle" x="351.6489" y="-726.6071" font-family="Arial" font-size="10.00" fill="#000000">Collection</text>
</a>
</g>
</g>
<!-- evans.consort.RatioPartsExpression.RatioPartsExpression -->
<g id="node9" class="node">
<title>evans.consort.RatioPartsExpression.RatioPartsExpression</title>
<g id="a_node9"><a xlink:href="../api/evans/consort/RatioPartsExpression.html#evans.consort.RatioPartsExpression.RatioPartsExpression" xlink:title="Ratio\nParts\nExpression" target="_top">
<path fill="#decbe4" stroke="#decbe4" stroke-width="2" d="M503.8152,-781.8567C503.8152,-781.8567 461.8762,-781.8567 461.8762,-781.8567 455.8762,-781.8567 449.8762,-775.8567 449.8762,-769.8567 449.8762,-769.8567 449.8762,-750.8566 449.8762,-750.8566 449.8762,-744.8566 455.8762,-738.8566 461.8762,-738.8566 461.8762,-738.8566 503.8152,-738.8566 503.8152,-738.8566 509.8152,-738.8566 515.8152,-744.8566 515.8152,-750.8566 515.8152,-750.8566 515.8152,-769.8567 515.8152,-769.8567 515.8152,-775.8567 509.8152,-781.8567 503.8152,-781.8567"/>
<text text-anchor="middle" x="482.8457" y="-769.6052" font-family="Arial" font-size="10.00" fill="#000000">Ratio</text>
<text text-anchor="middle" x="482.8457" y="-758.1062" font-family="Arial" font-size="10.00" fill="#000000">Parts</text>
<text text-anchor="middle" x="482.8457" y="-746.6071" font-family="Arial" font-size="10.00" fill="#000000">Expression</text>
</a>
</g>
</g>
<!-- evans.consort.TimespanCollection.TimespanCollection -->
<g id="node10" class="node">
<title>evans.consort.TimespanCollection.TimespanCollection</title>
<g id="a_node10"><a xlink:href="../api/evans/consort/TimespanCollection.html#evans.consort.TimespanCollection.TimespanCollection" xlink:title="Timespan\nCollection" target="_top">
<path fill="#decbe4" stroke="#decbe4" stroke-width="2" d="M611.3433,-815.8547C611.3433,-815.8547 572.185,-815.8547 572.185,-815.8547 567.019,-815.8547 561.853,-810.6887 561.853,-805.5227 561.853,-805.5227 561.853,-795.1906 561.853,-795.1906 561.853,-790.0246 567.019,-784.8586 572.185,-784.8586 572.185,-784.8586 611.3433,-784.8586 611.3433,-784.8586 616.5093,-784.8586 621.6754,-790.0246 621.6754,-795.1906 621.6754,-795.1906 621.6754,-805.5227 621.6754,-805.5227 621.6754,-810.6887 616.5093,-815.8547 611.3433,-815.8547"/>
<text text-anchor="middle" x="591.7642" y="-803.8557" font-family="Arial" font-size="10.00" fill="#000000">Timespan</text>
<text text-anchor="middle" x="591.7642" y="-792.3566" font-family="Arial" font-size="10.00" fill="#000000">Collection</text>
</a>
</g>
</g>
<!-- evans.consort.TimespanCollectionNode.TimespanCollectionNode -->
<g id="node11" class="node">
<title>evans.consort.TimespanCollectionNode.TimespanCollectionNode</title>
<g id="a_node11"><a xlink:href="../api/evans/consort/TimespanCollectionNode.html#evans.consort.TimespanCollectionNode.TimespanCollectionNode" xlink:title="Timespan\nCollection\nNode" target="_top">
<path fill="#decbe4" stroke="#decbe4" stroke-width="2" d="M248.5924,-861.8567C248.5924,-861.8567 212.77,-861.8567 212.77,-861.8567 206.77,-861.8567 200.77,-855.8567 200.77,-849.8567 200.77,-849.8567 200.77,-830.8566 200.77,-830.8566 200.77,-824.8566 206.77,-818.8566 212.77,-818.8566 212.77,-818.8566 248.5924,-818.8566 248.5924,-818.8566 254.5924,-818.8566 260.5924,-824.8566 260.5924,-830.8566 260.5924,-830.8566 260.5924,-849.8567 260.5924,-849.8567 260.5924,-855.8567 254.5924,-861.8567 248.5924,-861.8567"/>
<text text-anchor="middle" x="230.6812" y="-849.6052" font-family="Arial" font-size="10.00" fill="#000000">Timespan</text>
<text text-anchor="middle" x="230.6812" y="-838.1062" font-family="Arial" font-size="10.00" fill="#000000">Collection</text>
<text text-anchor="middle" x="230.6812" y="-826.6071" font-family="Arial" font-size="10.00" fill="#000000">Node</text>
</a>
</g>
</g>
<!-- evans.consort.TimespanSimultaneity.TimespanSimultaneity -->
<g id="node12" class="node">
<title>evans.consort.TimespanSimultaneity.TimespanSimultaneity</title>
<g id="a_node12"><a xlink:href="../api/evans/consort/TimespanSimultaneity.html#evans.consort.TimespanSimultaneity.TimespanSimultaneity" xlink:title="Timespan\nSimultaneity" target="_top">
<path fill="#decbe4" stroke="#decbe4" stroke-width="2" d="M376.7862,-880.8547C376.7862,-880.8547 326.5116,-880.8547 326.5116,-880.8547 321.3456,-880.8547 316.1796,-875.6887 316.1796,-870.5227 316.1796,-870.5227 316.1796,-860.1906 316.1796,-860.1906 316.1796,-855.0246 321.3456,-849.8586 326.5116,-849.8586 326.5116,-849.8586 376.7862,-849.8586 376.7862,-849.8586 381.9522,-849.8586 387.1183,-855.0246 387.1183,-860.1906 387.1183,-860.1906 387.1183,-870.5227 387.1183,-870.5227 387.1183,-875.6887 381.9522,-880.8547 376.7862,-880.8547"/>
<text text-anchor="middle" x="351.6489" y="-868.8557" font-family="Arial" font-size="10.00" fill="#000000">Timespan</text>
<text text-anchor="middle" x="351.6489" y="-857.3566" font-family="Arial" font-size="10.00" fill="#000000">Simultaneity</text>
</a>
</g>
</g>
<!-- evans.handlers.ArticulationHandler -->
<g id="node13" class="node">
<title>evans.handlers.ArticulationHandler</title>
<g id="a_node13"><a xlink:href="../api/evans/handlers.html#evans.handlers.ArticulationHandler" xlink:title="Articulation\nHandler" target="_top">
<path fill="#fed9a6" stroke="#fed9a6" stroke-width="2" d="M253.3186,-280.8547C253.3186,-280.8547 208.0437,-280.8547 208.0437,-280.8547 202.8777,-280.8547 197.7117,-275.6887 197.7117,-270.5227 197.7117,-270.5227 197.7117,-260.1906 197.7117,-260.1906 197.7117,-255.0246 202.8777,-249.8586 208.0437,-249.8586 208.0437,-249.8586 253.3186,-249.8586 253.3186,-249.8586 258.4846,-249.8586 263.6506,-255.0246 263.6506,-260.1906 263.6506,-260.1906 263.6506,-270.5227 263.6506,-270.5227 263.6506,-275.6887 258.4846,-280.8547 253.3186,-280.8547"/>
<text text-anchor="middle" x="230.6812" y="-268.8557" font-family="Arial" font-size="10.00" fill="#000000">Articulation</text>
<text text-anchor="middle" x="230.6812" y="-257.3566" font-family="Arial" font-size="10.00" fill="#000000">Handler</text>
</a>
</g>
</g>
<!-- evans.handlers.BendHandler -->
<g id="node14" class="node">
<title>evans.handlers.BendHandler</title>
<g id="a_node14"><a xlink:href="../api/evans/handlers.html#evans.handlers.BendHandler" xlink:title="Bend\nHandler" target="_top">
<path fill="#fed9a6" stroke="#fed9a6" stroke-width="2" d="M366.8364,-300.8547C366.8364,-300.8547 336.4614,-300.8547 336.4614,-300.8547 331.2954,-300.8547 326.1294,-295.6887 326.1294,-290.5227 326.1294,-290.5227 326.1294,-280.1906 326.1294,-280.1906 326.1294,-275.0246 331.2954,-269.8586 336.4614,-269.8586 336.4614,-269.8586 366.8364,-269.8586 366.8364,-269.8586 372.0024,-269.8586 377.1685,-275.0246 377.1685,-280.1906 377.1685,-280.1906 377.1685,-290.5227 377.1685,-290.5227 377.1685,-295.6887 372.0024,-300.8547 366.8364,-300.8547"/>
<text text-anchor="middle" x="351.6489" y="-288.8557" font-family="Arial" font-size="10.00" fill="#000000">Bend</text>
<text text-anchor="middle" x="351.6489" y="-277.3566" font-family="Arial" font-size="10.00" fill="#000000">Handler</text>
</a>
</g>
</g>
<!-- evans.handlers.BisbigliandoHandler -->
<g id="node15" class="node">
<title>evans.handlers.BisbigliandoHandler</title>
<g id="a_node15"><a xlink:href="../api/evans/handlers.html#evans.handlers.BisbigliandoHandler" xlink:title="Bisbigliando\nHandler" target="_top">
<path fill="#fed9a6" stroke="#fed9a6" stroke-width="2" d="M507.4395,-320.8547C507.4395,-320.8547 458.2519,-320.8547 458.2519,-320.8547 453.0859,-320.8547 447.9199,-315.6887 447.9199,-310.5227 447.9199,-310.5227 447.9199,-300.1906 447.9199,-300.1906 447.9199,-295.0246 453.0859,-289.8586 458.2519,-289.8586 458.2519,-289.8586 507.4395,-289.8586 507.4395,-289.8586 512.6055,-289.8586 517.7715,-295.0246 517.7715,-300.1906 517.7715,-300.1906 517.7715,-310.5227 517.7715,-310.5227 517.7715,-315.6887 512.6055,-320.8547 507.4395,-320.8547"/>
<text text-anchor="middle" x="482.8457" y="-308.8557" font-family="Arial" font-size="10.00" fill="#000000">Bisbigliando</text>
<text text-anchor="middle" x="482.8457" y="-297.3566" font-family="Arial" font-size="10.00" fill="#000000">Handler</text>
</a>
</g>
</g>
<!-- evans.handlers.ClefHandler -->
<g id="node16" class="node">
<title>evans.handlers.ClefHandler</title>
<g id="a_node16"><a xlink:href="../api/evans/handlers.html#evans.handlers.ClefHandler" xlink:title="Clef\nHandler" target="_top">
<path fill="#fed9a6" stroke="#fed9a6" stroke-width="2" d="M606.9517,-354.8547C606.9517,-354.8547 576.5767,-354.8547 576.5767,-354.8547 571.4106,-354.8547 566.2446,-349.6887 566.2446,-344.5227 566.2446,-344.5227 566.2446,-334.1906 566.2446,-334.1906 566.2446,-329.0246 571.4106,-323.8586 576.5767,-323.8586 576.5767,-323.8586 606.9517,-323.8586 606.9517,-323.8586 612.1177,-323.8586 617.2837,-329.0246 617.2837,-334.1906 617.2837,-334.1906 617.2837,-344.5227 617.2837,-344.5227 617.2837,-349.6887 612.1177,-354.8547 606.9517,-354.8547"/>
<text text-anchor="middle" x="591.7642" y="-342.8557" font-family="Arial" font-size="10.00" fill="#000000">Clef</text>
<text text-anchor="middle" x="591.7642" y="-331.3566" font-family="Arial" font-size="10.00" fill="#000000">Handler</text>
</a>
</g>
</g>
<!-- evans.handlers.DynamicHandler -->
<g id="node17" class="node">
<title>evans.handlers.DynamicHandler</title>
<g id="a_node17"><a xlink:href="../api/evans/handlers.html#evans.handlers.DynamicHandler" xlink:title="Dynamic\nHandler" target="_top">
<path fill="#fed9a6" stroke="#fed9a6" stroke-width="2" d="M247.7457,-388.8547C247.7457,-388.8547 213.6166,-388.8547 213.6166,-388.8547 208.4506,-388.8547 203.2846,-383.6887 203.2846,-378.5227 203.2846,-378.5227 203.2846,-368.1906 203.2846,-368.1906 203.2846,-363.0246 208.4506,-357.8586 213.6166,-357.8586 213.6166,-357.8586 247.7457,-357.8586 247.7457,-357.8586 252.9117,-357.8586 258.0777,-363.0246 258.0777,-368.1906 258.0777,-368.1906 258.0777,-378.5227 258.0777,-378.5227 258.0777,-383.6887 252.9117,-388.8547 247.7457,-388.8547"/>
<text text-anchor="middle" x="230.6812" y="-376.8557" font-family="Arial" font-size="10.00" fill="#000000">Dynamic</text>
<text text-anchor="middle" x="230.6812" y="-365.3566" font-family="Arial" font-size="10.00" fill="#000000">Handler</text>
</a>
</g>
</g>
<!-- evans.handlers.GettatoHandler -->
<g id="node18" class="node">
<title>evans.handlers.GettatoHandler</title>
<g id="a_node18"><a xlink:href="../api/evans/handlers.html#evans.handlers.GettatoHandler" xlink:title="Gettato\nHandler" target="_top">
<path fill="#fed9a6" stroke="#fed9a6" stroke-width="2" d="M366.8364,-408.8547C366.8364,-408.8547 336.4614,-408.8547 336.4614,-408.8547 331.2954,-408.8547 326.1294,-403.6887 326.1294,-398.5227 326.1294,-398.5227 326.1294,-388.1906 326.1294,-388.1906 326.1294,-383.0246 331.2954,-377.8586 336.4614,-377.8586 336.4614,-377.8586 366.8364,-377.8586 366.8364,-377.8586 372.0024,-377.8586 377.1685,-383.0246 377.1685,-388.1906 377.1685,-388.1906 377.1685,-398.5227 377.1685,-398.5227 377.1685,-403.6887 372.0024,-408.8547 366.8364,-408.8547"/>
<text text-anchor="middle" x="351.6489" y="-396.8557" font-family="Arial" font-size="10.00" fill="#000000">Gettato</text>
<text text-anchor="middle" x="351.6489" y="-385.3566" font-family="Arial" font-size="10.00" fill="#000000">Handler</text>
</a>
</g>
</g>
<!-- evans.handlers.GlissandoHandler -->
<g id="node19" class="node">
<title>evans.handlers.GlissandoHandler</title>
<g id="a_node19"><a xlink:href="../api/evans/handlers.html#evans.handlers.GlissandoHandler" xlink:title="Glissando\nHandler" target="_top">
<path fill="#fed9a6" stroke="#fed9a6" stroke-width="2" d="M502.9833,-428.8547C502.9833,-428.8547 462.7081,-428.8547 462.7081,-428.8547 457.5421,-428.8547 452.3761,-423.6887 452.3761,-418.5227 452.3761,-418.5227 452.3761,-408.1906 452.3761,-408.1906 452.3761,-403.0246 457.5421,-397.8586 462.7081,-397.8586 462.7081,-397.8586 502.9833,-397.8586 502.9833,-397.8586 508.1493,-397.8586 513.3153,-403.0246 513.3153,-408.1906 513.3153,-408.1906 513.3153,-418.5227 513.3153,-418.5227 513.3153,-423.6887 508.1493,-428.8547 502.9833,-428.8547"/>
<text text-anchor="middle" x="482.8457" y="-416.8557" font-family="Arial" font-size="10.00" fill="#000000">Glissando</text>
<text text-anchor="middle" x="482.8457" y="-405.3566" font-family="Arial" font-size="10.00" fill="#000000">Handler</text>
</a>
</g>
</g>
<!-- evans.handlers.GraceHandler -->
<g id="node20" class="node">
<title>evans.handlers.GraceHandler</title>
<g id="a_node20"><a xlink:href="../api/evans/handlers.html#evans.handlers.GraceHandler" xlink:title="Grace\nHandler" target="_top">
<path fill="#fed9a6" stroke="#fed9a6" stroke-width="2" d="M606.9517,-462.8547C606.9517,-462.8547 576.5767,-462.8547 576.5767,-462.8547 571.4106,-462.8547 566.2446,-457.6887 566.2446,-452.5227 566.2446,-452.5227 566.2446,-442.1906 566.2446,-442.1906 566.2446,-437.0246 571.4106,-431.8586 576.5767,-431.8586 576.5767,-431.8586 606.9517,-431.8586 606.9517,-431.8586 612.1177,-431.8586 617.2837,-437.0246 617.2837,-442.1906 617.2837,-442.1906 617.2837,-452.5227 617.2837,-452.5227 617.2837,-457.6887 612.1177,-462.8547 606.9517,-462.8547"/>
<text text-anchor="middle" x="591.7642" y="-450.8557" font-family="Arial" font-size="10.00" fill="#000000">Grace</text>
<text text-anchor="middle" x="591.7642" y="-439.3566" font-family="Arial" font-size="10.00" fill="#000000">Handler</text>
</a>
</g>
</g>
<!-- evans.handlers.Handler -->
<g id="node21" class="node">
<title>evans.handlers.Handler</title>
<g id="a_node21"><a xlink:href="../api/evans/handlers.html#evans.handlers.Handler" xlink:title="Handler" target="_top">
<path fill="#fed9a6" stroke="#fed9a6" stroke-width="2" d="M147.1651,-474.3622C147.1651,-474.3622 109.4668,-474.3622 109.4668,-474.3622 106.1316,-474.3622 102.7964,-471.027 102.7964,-467.6918 102.7964,-467.6918 102.7964,-461.0215 102.7964,-461.0215 102.7964,-457.6863 106.1316,-454.3511 109.4668,-454.3511 109.4668,-454.3511 147.1651,-454.3511 147.1651,-454.3511 150.5003,-454.3511 153.8355,-457.6863 153.8355,-461.0215 153.8355,-461.0215 153.8355,-467.6918 153.8355,-467.6918 153.8355,-471.027 150.5003,-474.3622 147.1651,-474.3622"/>
<text text-anchor="middle" x="128.3159" y="-462.1062" font-family="Arial" font-size="10.00" fill="#000000">Handler</text>
</a>
</g>
</g>
<!-- evans.handlers.NoteheadHandler -->
<g id="node22" class="node">
<title>evans.handlers.NoteheadHandler</title>
<g id="a_node22"><a xlink:href="../api/evans/handlers.html#evans.handlers.NoteheadHandler" xlink:title="Notehead\nHandler" target="_top">
<path fill="#fed9a6" stroke="#fed9a6" stroke-width="2" d="M250.2194,-496.8547C250.2194,-496.8547 211.1429,-496.8547 211.1429,-496.8547 205.9769,-496.8547 200.8109,-491.6887 200.8109,-486.5227 200.8109,-486.5227 200.8109,-476.1906 200.8109,-476.1906 200.8109,-471.0246 205.9769,-465.8586 211.1429,-465.8586 211.1429,-465.8586 250.2194,-465.8586 250.2194,-465.8586 255.3854,-465.8586 260.5514,-471.0246 260.5514,-476.1906 260.5514,-476.1906 260.5514,-486.5227 260.5514,-486.5227 260.5514,-491.6887 255.3854,-496.8547 250.2194,-496.8547"/>
<text text-anchor="middle" x="230.6812" y="-484.8557" font-family="Arial" font-size="10.00" fill="#000000">Notehead</text>
<text text-anchor="middle" x="230.6812" y="-473.3566" font-family="Arial" font-size="10.00" fill="#000000">Handler</text>
</a>
</g>
</g>
<!-- evans.handlers.PitchHandler -->
<g id="node23" class="node">
<title>evans.handlers.PitchHandler</title>
<g id="a_node23"><a xlink:href="../api/evans/handlers.html#evans.handlers.PitchHandler" xlink:title="Pitch\nHandler" target="_top">
<path fill="#fed9a6" stroke="#fed9a6" stroke-width="2" d="M366.8364,-516.8547C366.8364,-516.8547 336.4614,-516.8547 336.4614,-516.8547 331.2954,-516.8547 326.1294,-511.6887 326.1294,-506.5227 326.1294,-506.5227 326.1294,-496.1906 326.1294,-496.1906 326.1294,-491.0246 331.2954,-485.8586 336.4614,-485.8586 336.4614,-485.8586 366.8364,-485.8586 366.8364,-485.8586 372.0024,-485.8586 377.1685,-491.0246 377.1685,-496.1906 377.1685,-496.1906 377.1685,-506.5227 377.1685,-506.5227 377.1685,-511.6887 372.0024,-516.8547 366.8364,-516.8547"/>
<text text-anchor="middle" x="351.6489" y="-504.8557" font-family="Arial" font-size="10.00" fill="#000000">Pitch</text>
<text text-anchor="middle" x="351.6489" y="-493.3566" font-family="Arial" font-size="10.00" fill="#000000">Handler</text>
</a>
</g>
</g>
<!-- evans.handlers.RhythmHandler -->
<g id="node24" class="node">
<title>evans.handlers.RhythmHandler</title>
<g id="a_node24"><a xlink:href="../api/evans/handlers.html#evans.handlers.RhythmHandler" xlink:title="Rhythm\nHandler" target="_top">
<path fill="#fed9a6" stroke="#fed9a6" stroke-width="2" d="M498.0332,-536.8547C498.0332,-536.8547 467.6582,-536.8547 467.6582,-536.8547 462.4922,-536.8547 457.3262,-531.6887 457.3262,-526.5227 457.3262,-526.5227 457.3262,-516.1906 457.3262,-516.1906 457.3262,-511.0246 462.4922,-505.8586 467.6582,-505.8586 467.6582,-505.8586 498.0332,-505.8586 498.0332,-505.8586 503.1992,-505.8586 508.3652,-511.0246 508.3652,-516.1906 508.3652,-516.1906 508.3652,-526.5227 508.3652,-526.5227 508.3652,-531.6887 503.1992,-536.8547 498.0332,-536.8547"/>
<text text-anchor="middle" x="482.8457" y="-524.8557" font-family="Arial" font-size="10.00" fill="#000000">Rhythm</text>
<text text-anchor="middle" x="482.8457" y="-513.3566" font-family="Arial" font-size="10.00" fill="#000000">Handler</text>
</a>
</g>
</g>
<!-- evans.handlers.SlurHandler -->
<g id="node25" class="node">
<title>evans.handlers.SlurHandler</title>
<g id="a_node25"><a xlink:href="../api/evans/handlers.html#evans.handlers.SlurHandler" xlink:title="Slur\nHandler" target="_top">
<path fill="#fed9a6" stroke="#fed9a6" stroke-width="2" d="M606.9517,-570.8547C606.9517,-570.8547 576.5767,-570.8547 576.5767,-570.8547 571.4106,-570.8547 566.2446,-565.6887 566.2446,-560.5227 566.2446,-560.5227 566.2446,-550.1906 566.2446,-550.1906 566.2446,-545.0246 571.4106,-539.8586 576.5767,-539.8586 576.5767,-539.8586 606.9517,-539.8586 606.9517,-539.8586 612.1177,-539.8586 617.2837,-545.0246 617.2837,-550.1906 617.2837,-550.1906 617.2837,-560.5227 617.2837,-560.5227 617.2837,-565.6887 612.1177,-570.8547 606.9517,-570.8547"/>
<text text-anchor="middle" x="591.7642" y="-558.8557" font-family="Arial" font-size="10.00" fill="#000000">Slur</text>
<text text-anchor="middle" x="591.7642" y="-547.3566" font-family="Arial" font-size="10.00" fill="#000000">Handler</text>
</a>
</g>
</g>
<!-- evans.handlers.TempoSpannerHandler -->
<g id="node26" class="node">
<title>evans.handlers.TempoSpannerHandler</title>
<g id="a_node26"><a xlink:href="../api/evans/handlers.html#evans.handlers.TempoSpannerHandler" xlink:title="Tempo\nSpanner\nHandler" target="_top">
<path fill="#fed9a6" stroke="#fed9a6" stroke-width="2" d="M245.4891,-616.8567C245.4891,-616.8567 215.8732,-616.8567 215.8732,-616.8567 209.8732,-616.8567 203.8732,-610.8567 203.8732,-604.8567 203.8732,-604.8567 203.8732,-585.8566 203.8732,-585.8566 203.8732,-579.8566 209.8732,-573.8566 215.8732,-573.8566 215.8732,-573.8566 245.4891,-573.8566 245.4891,-573.8566 251.4891,-573.8566 257.4891,-579.8566 257.4891,-585.8566 257.4891,-585.8566 257.4891,-604.8567 257.4891,-604.8567 257.4891,-610.8567 251.4891,-616.8567 245.4891,-616.8567"/>
<text text-anchor="middle" x="230.6812" y="-604.6052" font-family="Arial" font-size="10.00" fill="#000000">Tempo</text>
<text text-anchor="middle" x="230.6812" y="-593.1062" font-family="Arial" font-size="10.00" fill="#000000">Spanner</text>
<text text-anchor="middle" x="230.6812" y="-581.6071" font-family="Arial" font-size="10.00" fill="#000000">Handler</text>
</a>
</g>
</g>
<!-- evans.handlers.TextSpanHandler -->
<g id="node27" class="node">
<title>evans.handlers.TextSpanHandler</title>
<g id="a_node27"><a xlink:href="../api/evans/handlers.html#evans.handlers.TextSpanHandler" xlink:title="Text\nSpan\nHandler" target="_top">
<path fill="#fed9a6" stroke="#fed9a6" stroke-width="2" d="M365.1685,-636.8567C365.1685,-636.8567 338.1294,-636.8567 338.1294,-636.8567 332.1294,-636.8567 326.1294,-630.8567 326.1294,-624.8567 326.1294,-624.8567 326.1294,-605.8566 326.1294,-605.8566 326.1294,-599.8566 332.1294,-593.8566 338.1294,-593.8566 338.1294,-593.8566 365.1685,-593.8566 365.1685,-593.8566 371.1685,-593.8566 377.1685,-599.8566 377.1685,-605.8566 377.1685,-605.8566 377.1685,-624.8567 377.1685,-624.8567 377.1685,-630.8567 371.1685,-636.8567 365.1685,-636.8567"/>
<text text-anchor="middle" x="351.6489" y="-624.6052" font-family="Arial" font-size="10.00" fill="#000000">Text</text>
<text text-anchor="middle" x="351.6489" y="-613.1062" font-family="Arial" font-size="10.00" fill="#000000">Span</text>
<text text-anchor="middle" x="351.6489" y="-601.6071" font-family="Arial" font-size="10.00" fill="#000000">Handler</text>
</a>
</g>
</g>
<!-- evans.handlers.TrillHandler -->
<g id="node28" class="node">
<title>evans.handlers.TrillHandler</title>
<g id="a_node28"><a xlink:href="../api/evans/handlers.html#evans.handlers.TrillHandler" xlink:title="Trill\nHandler" target="_top">
<path fill="#fed9a6" stroke="#fed9a6" stroke-width="2" d="M498.0332,-655.8547C498.0332,-655.8547 467.6582,-655.8547 467.6582,-655.8547 462.4922,-655.8547 457.3262,-650.6887 457.3262,-645.5227 457.3262,-645.5227 457.3262,-635.1906 457.3262,-635.1906 457.3262,-630.0246 462.4922,-624.8586 467.6582,-624.8586 467.6582,-624.8586 498.0332,-624.8586 498.0332,-624.8586 503.1992,-624.8586 508.3652,-630.0246 508.3652,-635.1906 508.3652,-635.1906 508.3652,-645.5227 508.3652,-645.5227 508.3652,-650.6887 503.1992,-655.8547 498.0332,-655.8547"/>
<text text-anchor="middle" x="482.8457" y="-643.8557" font-family="Arial" font-size="10.00" fill="#000000">Trill</text>
<text text-anchor="middle" x="482.8457" y="-632.3566" font-family="Arial" font-size="10.00" fill="#000000">Handler</text>
</a>
</g>
</g>
<!-- evans.rtm.RTMMaker -->
<g id="node29" class="node">
<title>evans.rtm.RTMMaker</title>
<g id="a_node29"><a xlink:href="../api/evans/rtm.html#evans.rtm.RTMMaker" xlink:title="RTMMaker" target="_top">
<path fill="#ffffcc" stroke="#ffffcc" stroke-width="2" d="M154.4088,-207.3622C154.4088,-207.3622 102.2231,-207.3622 102.2231,-207.3622 98.8879,-207.3622 95.5527,-204.027 95.5527,-200.6918 95.5527,-200.6918 95.5527,-194.0215 95.5527,-194.0215 95.5527,-190.6863 98.8879,-187.3511 102.2231,-187.3511 102.2231,-187.3511 154.4088,-187.3511 154.4088,-187.3511 157.744,-187.3511 161.0791,-190.6863 161.0791,-194.0215 161.0791,-194.0215 161.0791,-200.6918 161.0791,-200.6918 161.0791,-204.027 157.744,-207.3622 154.4088,-207.3622"/>
<text text-anchor="middle" x="128.3159" y="-195.1062" font-family="Arial" font-size="10.00" fill="#000000">RTMMaker</text>
</a>
</g>
</g>
<!-- evans.segmentmaker.NoteheadBracketMaker -->
<g id="node30" class="node">
<title>evans.segmentmaker.NoteheadBracketMaker</title>
<g id="a_node30"><a xlink:href="../api/evans/segmentmaker.html#evans.segmentmaker.NoteheadBracketMaker" xlink:title="Notehead\nBracket\nMaker" target="_top">
<path fill="#e5d8bd" stroke="#e5d8bd" stroke-width="2" d="M369.5192,-200.8567C369.5192,-200.8567 333.7786,-200.8567 333.7786,-200.8567 327.7786,-200.8567 321.7786,-194.8567 321.7786,-188.8567 321.7786,-188.8567 321.7786,-169.8566 321.7786,-169.8566 321.7786,-163.8566 327.7786,-157.8566 333.7786,-157.8566 333.7786,-157.8566 369.5192,-157.8566 369.5192,-157.8566 375.5192,-157.8566 381.5192,-163.8566 381.5192,-169.8566 381.5192,-169.8566 381.5192,-188.8567 381.5192,-188.8567 381.5192,-194.8567 375.5192,-200.8567 369.5192,-200.8567"/>
<text text-anchor="middle" x="351.6489" y="-188.6052" font-family="Arial" font-size="10.00" fill="#000000">Notehead</text>
<text text-anchor="middle" x="351.6489" y="-177.1062" font-family="Arial" font-size="10.00" fill="#000000">Bracket</text>
<text text-anchor="middle" x="351.6489" y="-165.6071" font-family="Arial" font-size="10.00" fill="#000000">Maker</text>
</a>
</g>
</g>
<!-- evans.segmentmaker.SegmentMaker -->
<g id="node31" class="node">
<title>evans.segmentmaker.SegmentMaker</title>
<g id="a_node31"><a xlink:href="../api/evans/segmentmaker.html#evans.segmentmaker.SegmentMaker" xlink:title="Segment\nMaker" target="_top">
<path fill="#e5d8bd" stroke="#e5d8bd" stroke-width="2" d="M369.3413,-139.8547C369.3413,-139.8547 333.9565,-139.8547 333.9565,-139.8547 328.7905,-139.8547 323.6245,-134.6887 323.6245,-129.5227 323.6245,-129.5227 323.6245,-119.1906 323.6245,-119.1906 323.6245,-114.0246 328.7905,-108.8586 333.9565,-108.8586 333.9565,-108.8586 369.3413,-108.8586 369.3413,-108.8586 374.5073,-108.8586 379.6733,-114.0246 379.6733,-119.1906 379.6733,-119.1906 379.6733,-129.5227 379.6733,-129.5227 379.6733,-134.6887 374.5073,-139.8547 369.3413,-139.8547"/>
<text text-anchor="middle" x="351.6489" y="-127.8557" font-family="Arial" font-size="10.00" fill="#000000">Segment</text>
<text text-anchor="middle" x="351.6489" y="-116.3566" font-family="Arial" font-size="10.00" fill="#000000">Maker</text>
</a>
</g>
</g>
<!-- evans.sequence.CyclicList -->
<g id="node32" class="node">
<title>evans.sequence.CyclicList</title>
<g id="a_node32"><a xlink:href="../api/evans/sequence.html#evans.sequence.CyclicList" xlink:title="Cyclic\nList" target="_top">
<path fill="#fddaec" stroke="#fddaec" stroke-width="2" d="M493.68,-99.8547C493.68,-99.8547 472.0114,-99.8547 472.0114,-99.8547 466.8454,-99.8547 461.6794,-94.6887 461.6794,-89.5227 461.6794,-89.5227 461.6794,-79.1906 461.6794,-79.1906 461.6794,-74.0246 466.8454,-68.8586 472.0114,-68.8586 472.0114,-68.8586 493.68,-68.8586 493.68,-68.8586 498.846,-68.8586 504.012,-74.0246 504.012,-79.1906 504.012,-79.1906 504.012,-89.5227 504.012,-89.5227 504.012,-94.6887 498.846,-99.8547 493.68,-99.8547"/>
<text text-anchor="middle" x="482.8457" y="-87.8557" font-family="Arial" font-size="10.00" fill="#000000">Cyclic</text>
<text text-anchor="middle" x="482.8457" y="-76.3566" font-family="Arial" font-size="10.00" fill="#000000">List</text>
</a>
</g>
</g>
<!-- evans.sequence.MarkovChain -->
<g id="node33" class="node">
<title>evans.sequence.MarkovChain</title>
<g id="a_node33"><a xlink:href="../api/evans/sequence.html#evans.sequence.MarkovChain" xlink:title="Markov\nChain" target="_top">
<path fill="#fddaec" stroke="#fddaec" stroke-width="2" d="M496.7974,-50.8547C496.7974,-50.8547 468.8941,-50.8547 468.8941,-50.8547 463.728,-50.8547 458.562,-45.6887 458.562,-40.5227 458.562,-40.5227 458.562,-30.1906 458.562,-30.1906 458.562,-25.0246 463.728,-19.8586 468.8941,-19.8586 468.8941,-19.8586 496.7974,-19.8586 496.7974,-19.8586 501.9634,-19.8586 507.1294,-25.0246 507.1294,-30.1906 507.1294,-30.1906 507.1294,-40.5227 507.1294,-40.5227 507.1294,-45.6887 501.9634,-50.8547 496.7974,-50.8547"/>
<text text-anchor="middle" x="482.8457" y="-38.8557" font-family="Arial" font-size="10.00" fill="#000000">Markov</text>
<text text-anchor="middle" x="482.8457" y="-27.3566" font-family="Arial" font-size="10.00" fill="#000000">Chain</text>
</a>
</g>
</g>
<!-- evans.timespan.SilentTimespan -->
<g id="node34" class="node">
<title>evans.timespan.SilentTimespan</title>
<g id="a_node34"><a xlink:href="../api/evans/timespan.html#evans.timespan.SilentTimespan" xlink:title="Silent\nTimespan" target="_top">
<path fill="#f2f2f2" stroke="#f2f2f2" stroke-width="2" d="M370.8539,-1158.8547C370.8539,-1158.8547 332.444,-1158.8547 332.444,-1158.8547 327.278,-1158.8547 322.112,-1153.6887 322.112,-1148.5227 322.112,-1148.5227 322.112,-1138.1906 322.112,-1138.1906 322.112,-1133.0246 327.278,-1127.8586 332.444,-1127.8586 332.444,-1127.8586 370.8539,-1127.8586 370.8539,-1127.8586 376.0199,-1127.8586 381.1859,-1133.0246 381.1859,-1138.1906 381.1859,-1138.1906 381.1859,-1148.5227 381.1859,-1148.5227 381.1859,-1153.6887 376.0199,-1158.8547 370.8539,-1158.8547"/>
<text text-anchor="middle" x="351.6489" y="-1146.8557" font-family="Arial" font-size="10.00" fill="#000000">Silent</text>
<text text-anchor="middle" x="351.6489" y="-1135.3566" font-family="Arial" font-size="10.00" fill="#000000">Timespan</text>
</a>
</g>
</g>
<!-- evans.timespan.TimespanMaker -->
<g id="node35" class="node">
<title>evans.timespan.TimespanMaker</title>
<g id="a_node35"><a xlink:href="../api/evans/timespan.html#evans.timespan.TimespanMaker" xlink:title="Timespan\nMaker" target="_top">
<path fill="#f2f2f2" stroke="#f2f2f2" stroke-width="2" d="M370.8539,-1109.8547C370.8539,-1109.8547 332.444,-1109.8547 332.444,-1109.8547 327.278,-1109.8547 322.112,-1104.6887 322.112,-1099.5227 322.112,-1099.5227 322.112,-1089.1906 322.112,-1089.1906 322.112,-1084.0246 327.278,-1078.8586 332.444,-1078.8586 332.444,-1078.8586 370.8539,-1078.8586 370.8539,-1078.8586 376.0199,-1078.8586 381.1859,-1084.0246 381.1859,-1089.1906 381.1859,-1089.1906 381.1859,-1099.5227 381.1859,-1099.5227 381.1859,-1104.6887 376.0199,-1109.8547 370.8539,-1109.8547"/>
<text text-anchor="middle" x="351.6489" y="-1097.8557" font-family="Arial" font-size="10.00" fill="#000000">Timespan</text>
<text text-anchor="middle" x="351.6489" y="-1086.3566" font-family="Arial" font-size="10.00" fill="#000000">Maker</text>
</a>
</g>
</g>
<!-- evans.timespan.TimespanSpecifier -->
<g id="node36" class="node">
<title>evans.timespan.TimespanSpecifier</title>
<g id="a_node36"><a xlink:href="../api/evans/timespan.html#evans.timespan.TimespanSpecifier" xlink:title="Timespan\nSpecifier" target="_top">
<path fill="#f2f2f2" stroke="#f2f2f2" stroke-width="2" d="M370.8539,-1060.8547C370.8539,-1060.8547 332.444,-1060.8547 332.444,-1060.8547 327.278,-1060.8547 322.112,-1055.6887 322.112,-1050.5227 322.112,-1050.5227 322.112,-1040.1906 322.112,-1040.1906 322.112,-1035.0246 327.278,-1029.8586 332.444,-1029.8586 332.444,-1029.8586 370.8539,-1029.8586 370.8539,-1029.8586 376.0199,-1029.8586 381.1859,-1035.0246 381.1859,-1040.1906 381.1859,-1040.1906 381.1859,-1050.5227 381.1859,-1050.5227 381.1859,-1055.6887 376.0199,-1060.8547 370.8539,-1060.8547"/>
<text text-anchor="middle" x="351.6489" y="-1048.8557" font-family="Arial" font-size="10.00" fill="#000000">Timespan</text>
<text text-anchor="middle" x="351.6489" y="-1037.3566" font-family="Arial" font-size="10.00" fill="#000000">Specifier</text>
</a>
</g>
</g>
</g>
</svg>
