<svg xmlns="http://www.w3.org/2000/svg" xmlns:xlink="http://www.w3.org/1999/xlink" version="1.2" width="45.38mm" height="14.92mm" viewBox="8.5358 -0.0240 25.8251 8.4923">
<style text="style/css">
<![CDATA[
tspan { white-space: pre; }
]]>
</style>
<line transform="translate(8.5358, 5.7760)" stroke-linejoin="round" stroke-linecap="round" stroke-width="0.1000" stroke="currentColor" x1="0.0500" y1="-0.0000" x2="25.7751" y2="-0.0000"/>
<line transform="translate(8.5358, 4.7760)" stroke-linejoin="round" stroke-linecap="round" stroke-width="0.1000" stroke="currentColor" x1="0.0500" y1="-0.0000" x2="25.7751" y2="-0.0000"/>
<line transform="translate(8.5358, 3.7760)" stroke-linejoin="round" stroke-linecap="round" stroke-width="0.1000" stroke="currentColor" x1="0.0500" y1="-0.0000" x2="25.7751" y2="-0.0000"/>
<line transform="translate(8.5358, 2.7760)" stroke-linejoin="round" stroke-linecap="round" stroke-width="0.1000" stroke="currentColor" x1="0.0500" y1="-0.0000" x2="25.7751" y2="-0.0000"/>
<line transform="translate(8.5358, 1.7760)" stroke-linejoin="round" stroke-linecap="round" stroke-width="0.1000" stroke="currentColor" x1="0.0500" y1="-0.0000" x2="25.7751" y2="-0.0000"/>
<rect transform="translate(0.0000, 6.7760)" x="17.8108" y="-0.1000" width="1.8053" height="0.2000" ry="0.1000" fill="currentColor"/>
<rect transform="translate(34.1710, 3.7760)" x="0.0000" y="-2.0000" width="0.1900" height="4.0000" ry="0.0000" fill="currentColor"/>
<path transform="translate(22.3676, 6.2760) scale(0.0040, -0.0040)" d="M218 136c55 0 108 -28 108 -89c0 -71 -55 -121 -102 -149c-35 -21 -75 -34 -116 -34c-55 0 -108 28 -108 89c0 71 55 121 102 149c35 21 75 34 116 34z" fill="currentColor"/>
<path transform="translate(23.6069, 5.7760) scale(0.0040, -0.0040)" d="M218 136c55 0 108 -28 108 -89c0 -71 -55 -121 -102 -149c-35 -21 -75 -34 -116 -34c-55 0 -108 28 -108 89c0 71 55 121 102 149c35 21 75 34 116 34z" fill="currentColor"/>
<rect transform="translate(23.6069, 3.7760)" x="-0.0650" y="-1.5000" width="0.1300" height="3.8139" ry="0.0400" fill="currentColor"/>
<g color="rgb(100.0000%, 100.0000%, 100.0000%)">
<text transform="translate(20.0950, 6.1260)" font-family="serif" font-weight="bold" font-size="1.3860" text-anchor="start" fill="currentColor">
<tspan>1</tspan>
</text>
<text transform="translate(20.0950, 7.3492)" font-family="serif" font-weight="bold" font-size="1.3860" text-anchor="start" fill="currentColor">
<tspan>3</tspan>
</text>
<path transform="translate(20.5730, 8.3433) scale(0.0025, -0.0025)" d="M-125 234c0 9 8 16 16 16c2 0 3 0 5 -1c34 -11 69 -16 104 -16s70 5 104 16c2 1 3 1 5 1c8 0 16 -7 16 -16c0 -5 -2 -9 -6 -12c-44 -37 -103 -165 -103 -222c0 -11 -8 -16 -16 -16s-16 5 -16 16c0 57 -59 185 -103 222c-4 3 -6 7 -6 12z" fill="currentColor"/>
<text transform="translate(20.0889, 6.1566)" font-family="serif" font-weight="bold" font-size="1.3860" text-anchor="start" fill="currentColor">
<tspan>1</tspan>
</text>
<text transform="translate(20.0889, 7.3798)" font-family="serif" font-weight="bold" font-size="1.3860" text-anchor="start" fill="currentColor">
<tspan>3</tspan>
</text>
<path transform="translate(20.5669, 8.3739) scale(0.0025, -0.0025)" d="M-125 234c0 9 8 16 16 16c2 0 3 0 5 -1c34 -11 69 -16 104 -16s70 5 104 16c2 1 3 1 5 1c8 0 16 -7 16 -16c0 -5 -2 -9 -6 -12c-44 -37 -103 -165 -103 -222c0 -11 -8 -16 -16 -16s-16 5 -16 16c0 57 -59 185 -103 222c-4 3 -6 7 -6 12z" fill="currentColor"/>
<text transform="translate(20.0716, 6.1826)" font-family="serif" font-weight="bold" font-size="1.3860" text-anchor="start" fill="currentColor">
<tspan>1</tspan>
</text>
<text transform="translate(20.0716, 7.4058)" font-family="serif" font-weight="bold" font-size="1.3860" text-anchor="start" fill="currentColor">
<tspan>3</tspan>
</text>
<path transform="translate(20.5496, 8.3998) scale(0.0025, -0.0025)" d="M-125 234c0 9 8 16 16 16c2 0 3 0 5 -1c34 -11 69 -16 104 -16s70 5 104 16c2 1 3 1 5 1c8 0 16 -7 16 -16c0 -5 -2 -9 -6 -12c-44 -37 -103 -165 -103 -222c0 -11 -8 -16 -16 -16s-16 5 -16 16c0 57 -59 185 -103 222c-4 3 -6 7 -6 12z" fill="currentColor"/>
<text transform="translate(20.0456, 6.1999)" font-family="serif" font-weight="bold" font-size="1.3860" text-anchor="start" fill="currentColor">
<tspan>1</tspan>
</text>
<text transform="translate(20.0456, 7.4231)" font-family="serif" font-weight="bold" font-size="1.3860" text-anchor="start" fill="currentColor">
<tspan>3</tspan>
</text>
<path transform="translate(20.5237, 8.4172) scale(0.0025, -0.0025)" d="M-125 234c0 9 8 16 16 16c2 0 3 0 5 -1c34 -11 69 -16 104 -16s70 5 104 16c2 1 3 1 5 1c8 0 16 -7 16 -16c0 -5 -2 -9 -6 -12c-44 -37 -103 -165 -103 -222c0 -11 -8 -16 -16 -16s-16 5 -16 16c0 57 -59 185 -103 222c-4 3 -6 7 -6 12z" fill="currentColor"/>
<text transform="translate(20.0150, 6.2060)" font-family="serif" font-weight="bold" font-size="1.3860" text-anchor="start" fill="currentColor">
<tspan>1</tspan>
</text>
<text transform="translate(20.0150, 7.4292)" font-family="serif" font-weight="bold" font-size="1.3860" text-anchor="start" fill="currentColor">
<tspan>3</tspan>
</text>
<path transform="translate(20.4930, 8.4233) scale(0.0025, -0.0025)" d="M-125 234c0 9 8 16 16 16c2 0 3 0 5 -1c34 -11 69 -16 104 -16s70 5 104 16c2 1 3 1 5 1c8 0 16 -7 16 -16c0 -5 -2 -9 -6 -12c-44 -37 -103 -165 -103 -222c0 -11 -8 -16 -16 -16s-16 5 -16 16c0 57 -59 185 -103 222c-4 3 -6 7 -6 12z" fill="currentColor"/>
<text transform="translate(19.9844, 6.1999)" font-family="serif" font-weight="bold" font-size="1.3860" text-anchor="start" fill="currentColor">
<tspan>1</tspan>
</text>
<text transform="translate(19.9844, 7.4231)" font-family="serif" font-weight="bold" font-size="1.3860" text-anchor="start" fill="currentColor">
<tspan>3</tspan>
</text>
<path transform="translate(20.4624, 8.4172) scale(0.0025, -0.0025)" d="M-125 234c0 9 8 16 16 16c2 0 3 0 5 -1c34 -11 69 -16 104 -16s70 5 104 16c2 1 3 1 5 1c8 0 16 -7 16 -16c0 -5 -2 -9 -6 -12c-44 -37 -103 -165 -103 -222c0 -11 -8 -16 -16 -16s-16 5 -16 16c0 57 -59 185 -103 222c-4 3 -6 7 -6 12z" fill="currentColor"/>
<text transform="translate(19.9585, 6.1826)" font-family="serif" font-weight="bold" font-size="1.3860" text-anchor="start" fill="currentColor">
<tspan>1</tspan>
</text>
<text transform="translate(19.9585, 7.4058)" font-family="serif" font-weight="bold" font-size="1.3860" text-anchor="start" fill="currentColor">
<tspan>3</tspan>
</text>
<path transform="translate(20.4365, 8.3998) scale(0.0025, -0.0025)" d="M-125 234c0 9 8 16 16 16c2 0 3 0 5 -1c34 -11 69 -16 104 -16s70 5 104 16c2 1 3 1 5 1c8 0 16 -7 16 -16c0 -5 -2 -9 -6 -12c-44 -37 -103 -165 -103 -222c0 -11 -8 -16 -16 -16s-16 5 -16 16c0 57 -59 185 -103 222c-4 3 -6 7 -6 12z" fill="currentColor"/>
<text transform="translate(19.9411, 6.1566)" font-family="serif" font-weight="bold" font-size="1.3860" text-anchor="start" fill="currentColor">
<tspan>1</tspan>
</text>
<text transform="translate(19.9411, 7.3798)" font-family="serif" font-weight="bold" font-size="1.3860" text-anchor="start" fill="currentColor">
<tspan>3</tspan>
</text>
<path transform="translate(20.4191, 8.3739) scale(0.0025, -0.0025)" d="M-125 234c0 9 8 16 16 16c2 0 3 0 5 -1c34 -11 69 -16 104 -16s70 5 104 16c2 1 3 1 5 1c8 0 16 -7 16 -16c0 -5 -2 -9 -6 -12c-44 -37 -103 -165 -103 -222c0 -11 -8 -16 -16 -16s-16 5 -16 16c0 57 -59 185 -103 222c-4 3 -6 7 -6 12z" fill="currentColor"/>
<text transform="translate(19.9350, 6.1260)" font-family="serif" font-weight="bold" font-size="1.3860" text-anchor="start" fill="currentColor">
<tspan>1</tspan>
</text>
<text transform="translate(19.9350, 7.3492)" font-family="serif" font-weight="bold" font-size="1.3860" text-anchor="start" fill="currentColor">
<tspan>3</tspan>
</text>
<path transform="translate(20.4130, 8.3433) scale(0.0025, -0.0025)" d="M-125 234c0 9 8 16 16 16c2 0 3 0 5 -1c34 -11 69 -16 104 -16s70 5 104 16c2 1 3 1 5 1c8 0 16 -7 16 -16c0 -5 -2 -9 -6 -12c-44 -37 -103 -165 -103 -222c0 -11 -8 -16 -16 -16s-16 5 -16 16c0 57 -59 185 -103 222c-4 3 -6 7 -6 12z" fill="currentColor"/>
<text transform="translate(19.9411, 6.0954)" font-family="serif" font-weight="bold" font-size="1.3860" text-anchor="start" fill="currentColor">
<tspan>1</tspan>
</text>
<text transform="translate(19.9411, 7.3186)" font-family="serif" font-weight="bold" font-size="1.3860" text-anchor="start" fill="currentColor">
<tspan>3</tspan>
</text>
<path transform="translate(20.4191, 8.3126) scale(0.0025, -0.0025)" d="M-125 234c0 9 8 16 16 16c2 0 3 0 5 -1c34 -11 69 -16 104 -16s70 5 104 16c2 1 3 1 5 1c8 0 16 -7 16 -16c0 -5 -2 -9 -6 -12c-44 -37 -103 -165 -103 -222c0 -11 -8 -16 -16 -16s-16 5 -16 16c0 57 -59 185 -103 222c-4 3 -6 7 -6 12z" fill="currentColor"/>
<text transform="translate(19.9585, 6.0694)" font-family="serif" font-weight="bold" font-size="1.3860" text-anchor="start" fill="currentColor">
<tspan>1</tspan>
</text>
<text transform="translate(19.9585, 7.2926)" font-family="serif" font-weight="bold" font-size="1.3860" text-anchor="start" fill="currentColor">
<tspan>3</tspan>
</text>
<path transform="translate(20.4365, 8.2867) scale(0.0025, -0.0025)" d="M-125 234c0 9 8 16 16 16c2 0 3 0 5 -1c34 -11 69 -16 104 -16s70 5 104 16c2 1 3 1 5 1c8 0 16 -7 16 -16c0 -5 -2 -9 -6 -12c-44 -37 -103 -165 -103 -222c0 -11 -8 -16 -16 -16s-16 5 -16 16c0 57 -59 185 -103 222c-4 3 -6 7 -6 12z" fill="currentColor"/>
<text transform="translate(19.9844, 6.0521)" font-family="serif" font-weight="bold" font-size="1.3860" text-anchor="start" fill="currentColor">
<tspan>1</tspan>
</text>
<text transform="translate(19.9844, 7.2753)" font-family="serif" font-weight="bold" font-size="1.3860" text-anchor="start" fill="currentColor">
<tspan>3</tspan>
</text>
<path transform="translate(20.4624, 8.2694) scale(0.0025, -0.0025)" d="M-125 234c0 9 8 16 16 16c2 0 3 0 5 -1c34 -11 69 -16 104 -16s70 5 104 16c2 1 3 1 5 1c8 0 16 -7 16 -16c0 -5 -2 -9 -6 -12c-44 -37 -103 -165 -103 -222c0 -11 -8 -16 -16 -16s-16 5 -16 16c0 57 -59 185 -103 222c-4 3 -6 7 -6 12z" fill="currentColor"/>
<text transform="translate(20.0150, 6.0460)" font-family="serif" font-weight="bold" font-size="1.3860" text-anchor="start" fill="currentColor">
<tspan>1</tspan>
</text>
<text transform="translate(20.0150, 7.2692)" font-family="serif" font-weight="bold" font-size="1.3860" text-anchor="start" fill="currentColor">
<tspan>3</tspan>
</text>
<path transform="translate(20.4930, 8.2633) scale(0.0025, -0.0025)" d="M-125 234c0 9 8 16 16 16c2 0 3 0 5 -1c34 -11 69 -16 104 -16s70 5 104 16c2 1 3 1 5 1c8 0 16 -7 16 -16c0 -5 -2 -9 -6 -12c-44 -37 -103 -165 -103 -222c0 -11 -8 -16 -16 -16s-16 5 -16 16c0 57 -59 185 -103 222c-4 3 -6 7 -6 12z" fill="currentColor"/>
<text transform="translate(20.0456, 6.0521)" font-family="serif" font-weight="bold" font-size="1.3860" text-anchor="start" fill="currentColor">
<tspan>1</tspan>
</text>
<text transform="translate(20.0456, 7.2753)" font-family="serif" font-weight="bold" font-size="1.3860" text-anchor="start" fill="currentColor">
<tspan>3</tspan>
</text>
<path transform="translate(20.5237, 8.2694) scale(0.0025, -0.0025)" d="M-125 234c0 9 8 16 16 16c2 0 3 0 5 -1c34 -11 69 -16 104 -16s70 5 104 16c2 1 3 1 5 1c8 0 16 -7 16 -16c0 -5 -2 -9 -6 -12c-44 -37 -103 -165 -103 -222c0 -11 -8 -16 -16 -16s-16 5 -16 16c0 57 -59 185 -103 222c-4 3 -6 7 -6 12z" fill="currentColor"/>
<text transform="translate(20.0716, 6.0694)" font-family="serif" font-weight="bold" font-size="1.3860" text-anchor="start" fill="currentColor">
<tspan>1</tspan>
</text>
<text transform="translate(20.0716, 7.2926)" font-family="serif" font-weight="bold" font-size="1.3860" text-anchor="start" fill="currentColor">
<tspan>3</tspan>
</text>
<path transform="translate(20.5496, 8.2867) scale(0.0025, -0.0025)" d="M-125 234c0 9 8 16 16 16c2 0 3 0 5 -1c34 -11 69 -16 104 -16s70 5 104 16c2 1 3 1 5 1c8 0 16 -7 16 -16c0 -5 -2 -9 -6 -12c-44 -37 -103 -165 -103 -222c0 -11 -8 -16 -16 -16s-16 5 -16 16c0 57 -59 185 -103 222c-4 3 -6 7 -6 12z" fill="currentColor"/>
<text transform="translate(20.0889, 6.0954)" font-family="serif" font-weight="bold" font-size="1.3860" text-anchor="start" fill="currentColor">
<tspan>1</tspan>
</text>
<text transform="translate(20.0889, 7.3186)" font-family="serif" font-weight="bold" font-size="1.3860" text-anchor="start" fill="currentColor">
<tspan>3</tspan>
</text>
<path transform="translate(20.5669, 8.3126) scale(0.0025, -0.0025)" d="M-125 234c0 9 8 16 16 16c2 0 3 0 5 -1c34 -11 69 -16 104 -16s70 5 104 16c2 1 3 1 5 1c8 0 16 -7 16 -16c0 -5 -2 -9 -6 -12c-44 -37 -103 -165 -103 -222c0 -11 -8 -16 -16 -16s-16 5 -16 16c0 57 -59 185 -103 222c-4 3 -6 7 -6 12z" fill="currentColor"/>
</g>
<text transform="translate(20.0150, 6.1260)" font-family="serif" font-weight="bold" font-size="1.3860" text-anchor="start" fill="currentColor">
<tspan>1</tspan>
</text>
<text transform="translate(20.0150, 7.3492)" font-family="serif" font-weight="bold" font-size="1.3860" text-anchor="start" fill="currentColor">
<tspan>3</tspan>
</text>
<path transform="translate(20.4930, 8.3433) scale(0.0025, -0.0025)" d="M-125 234c0 9 8 16 16 16c2 0 3 0 5 -1c34 -11 69 -16 104 -16s70 5 104 16c2 1 3 1 5 1c8 0 16 -7 16 -16c0 -5 -2 -9 -6 -12c-44 -37 -103 -165 -103 -222c0 -11 -8 -16 -16 -16s-16 5 -16 16c0 57 -59 185 -103 222c-4 3 -6 7 -6 12z" fill="currentColor"/>
<path transform="translate(21.3216, 5.7760) scale(0.0040, -0.0040)" d="M-8 375c8 4 17 7 26 7s16 -3 24 -7l-2 -183l106 20h3c10 0 18 -7 18 -17l7 -570c-8 -4 -16 -7 -25 -7s-17 3 -25 7l3 183l-106 -20h-3c-10 0 -18 7 -18 17zM131 112l-92 -17l-3 -207l92 17z" fill="currentColor"/>
<path transform="translate(26.5515, 5.2760) scale(0.0040, -0.0040)" d="M218 136c55 0 108 -28 108 -89c0 -71 -55 -121 -102 -149c-35 -21 -75 -34 -116 -34c-55 0 -108 28 -108 89c0 71 55 121 102 149c35 21 75 34 116 34z" fill="currentColor"/>
<rect transform="translate(27.7907, 3.7760)" x="-0.0650" y="-2.0000" width="0.1300" height="3.3139" ry="0.0400" fill="currentColor"/>
<path transform="translate(25.5111, 5.2760) scale(0.0040, -0.0040)" d="M-8 375c8 4 17 7 26 7s16 -3 24 -7l-2 -183l106 20h3c10 0 18 -7 18 -17l7 -570c-8 -4 -16 -7 -25 -7s-17 3 -25 7l3 183l-106 -20h-3c-10 0 -18 7 -18 17zM131 112l-92 -17l-3 -207l92 17z" fill="currentColor"/>
<path transform="translate(30.9677, 4.7760) scale(0.0040, -0.0040)" d="M218 136c55 0 108 -28 108 -89c0 -71 -55 -121 -102 -149c-35 -21 -75 -34 -116 -34c-55 0 -108 28 -108 89c0 71 55 121 102 149c35 21 75 34 116 34z" fill="currentColor"/>
<rect transform="translate(32.2069, 3.7760)" x="-0.0650" y="-2.5000" width="0.1300" height="3.3139" ry="0.0400" fill="currentColor"/>
<g color="rgb(100.0000%, 100.0000%, 100.0000%)">
<text transform="translate(29.1387, 4.6260)" font-family="serif" font-weight="bold" font-size="1.3860" text-anchor="start" fill="currentColor">
<tspan>5</tspan>
</text>
<text transform="translate(28.6607, 5.8492)" font-family="serif" font-weight="bold" font-size="1.3860" text-anchor="start" fill="currentColor">
<tspan>12</tspan>
</text>
<path transform="translate(29.6167, 6.8433) scale(0.0025, -0.0025)" d="M-125 234c0 9 8 16 16 16c2 0 3 0 5 -1c34 -11 69 -16 104 -16s70 5 104 16c2 1 3 1 5 1c8 0 16 -7 16 -16c0 -5 -2 -9 -6 -12c-44 -37 -103 -165 -103 -222c0 -11 -8 -16 -16 -16s-16 5 -16 16c0 57 -59 185 -103 222c-4 3 -6 7 -6 12z" fill="currentColor"/>
<text transform="translate(29.1326, 4.6566)" font-family="serif" font-weight="bold" font-size="1.3860" text-anchor="start" fill="currentColor">
<tspan>5</tspan>
</text>
<text transform="translate(28.6546, 5.8798)" font-family="serif" font-weight="bold" font-size="1.3860" text-anchor="start" fill="currentColor">
<tspan>12</tspan>
</text>
<path transform="translate(29.6106, 6.8739) scale(0.0025, -0.0025)" d="M-125 234c0 9 8 16 16 16c2 0 3 0 5 -1c34 -11 69 -16 104 -16s70 5 104 16c2 1 3 1 5 1c8 0 16 -7 16 -16c0 -5 -2 -9 -6 -12c-44 -37 -103 -165 -103 -222c0 -11 -8 -16 -16 -16s-16 5 -16 16c0 57 -59 185 -103 222c-4 3 -6 7 -6 12z" fill="currentColor"/>
<text transform="translate(29.1153, 4.6826)" font-family="serif" font-weight="bold" font-size="1.3860" text-anchor="start" fill="currentColor">
<tspan>5</tspan>
</text>
<text transform="translate(28.6372, 5.9058)" font-family="serif" font-weight="bold" font-size="1.3860" text-anchor="start" fill="currentColor">
<tspan>12</tspan>
</text>
<path transform="translate(29.5933, 6.8998) scale(0.0025, -0.0025)" d="M-125 234c0 9 8 16 16 16c2 0 3 0 5 -1c34 -11 69 -16 104 -16s70 5 104 16c2 1 3 1 5 1c8 0 16 -7 16 -16c0 -5 -2 -9 -6 -12c-44 -37 -103 -165 -103 -222c0 -11 -8 -16 -16 -16s-16 5 -16 16c0 57 -59 185 -103 222c-4 3 -6 7 -6 12z" fill="currentColor"/>
<text transform="translate(29.0893, 4.6999)" font-family="serif" font-weight="bold" font-size="1.3860" text-anchor="start" fill="currentColor">
<tspan>5</tspan>
</text>
<text transform="translate(28.6113, 5.9231)" font-family="serif" font-weight="bold" font-size="1.3860" text-anchor="start" fill="currentColor">
<tspan>12</tspan>
</text>
<path transform="translate(29.5673, 6.9172) scale(0.0025, -0.0025)" d="M-125 234c0 9 8 16 16 16c2 0 3 0 5 -1c34 -11 69 -16 104 -16s70 5 104 16c2 1 3 1 5 1c8 0 16 -7 16 -16c0 -5 -2 -9 -6 -12c-44 -37 -103 -165 -103 -222c0 -11 -8 -16 -16 -16s-16 5 -16 16c0 57 -59 185 -103 222c-4 3 -6 7 -6 12z" fill="currentColor"/>
<text transform="translate(29.0587, 4.7060)" font-family="serif" font-weight="bold" font-size="1.3860" text-anchor="start" fill="currentColor">
<tspan>5</tspan>
</text>
<text transform="translate(28.5807, 5.9292)" font-family="serif" font-weight="bold" font-size="1.3860" text-anchor="start" fill="currentColor">
<tspan>12</tspan>
</text>
<path transform="translate(29.5367, 6.9233) scale(0.0025, -0.0025)" d="M-125 234c0 9 8 16 16 16c2 0 3 0 5 -1c34 -11 69 -16 104 -16s70 5 104 16c2 1 3 1 5 1c8 0 16 -7 16 -16c0 -5 -2 -9 -6 -12c-44 -37 -103 -165 -103 -222c0 -11 -8 -16 -16 -16s-16 5 -16 16c0 57 -59 185 -103 222c-4 3 -6 7 -6 12z" fill="currentColor"/>
<text transform="translate(29.0281, 4.6999)" font-family="serif" font-weight="bold" font-size="1.3860" text-anchor="start" fill="currentColor">
<tspan>5</tspan>
</text>
<text transform="translate(28.5501, 5.9231)" font-family="serif" font-weight="bold" font-size="1.3860" text-anchor="start" fill="currentColor">
<tspan>12</tspan>
</text>
<path transform="translate(29.5061, 6.9172) scale(0.0025, -0.0025)" d="M-125 234c0 9 8 16 16 16c2 0 3 0 5 -1c34 -11 69 -16 104 -16s70 5 104 16c2 1 3 1 5 1c8 0 16 -7 16 -16c0 -5 -2 -9 -6 -12c-44 -37 -103 -165 -103 -222c0 -11 -8 -16 -16 -16s-16 5 -16 16c0 57 -59 185 -103 222c-4 3 -6 7 -6 12z" fill="currentColor"/>
<text transform="translate(29.0021, 4.6826)" font-family="serif" font-weight="bold" font-size="1.3860" text-anchor="start" fill="currentColor">
<tspan>5</tspan>
</text>
<text transform="translate(28.5241, 5.9058)" font-family="serif" font-weight="bold" font-size="1.3860" text-anchor="start" fill="currentColor">
<tspan>12</tspan>
</text>
<path transform="translate(29.4801, 6.8998) scale(0.0025, -0.0025)" d="M-125 234c0 9 8 16 16 16c2 0 3 0 5 -1c34 -11 69 -16 104 -16s70 5 104 16c2 1 3 1 5 1c8 0 16 -7 16 -16c0 -5 -2 -9 -6 -12c-44 -37 -103 -165 -103 -222c0 -11 -8 -16 -16 -16s-16 5 -16 16c0 57 -59 185 -103 222c-4 3 -6 7 -6 12z" fill="currentColor"/>
<text transform="translate(28.9848, 4.6566)" font-family="serif" font-weight="bold" font-size="1.3860" text-anchor="start" fill="currentColor">
<tspan>5</tspan>
</text>
<text transform="translate(28.5068, 5.8798)" font-family="serif" font-weight="bold" font-size="1.3860" text-anchor="start" fill="currentColor">
<tspan>12</tspan>
</text>
<path transform="translate(29.4628, 6.8739) scale(0.0025, -0.0025)" d="M-125 234c0 9 8 16 16 16c2 0 3 0 5 -1c34 -11 69 -16 104 -16s70 5 104 16c2 1 3 1 5 1c8 0 16 -7 16 -16c0 -5 -2 -9 -6 -12c-44 -37 -103 -165 -103 -222c0 -11 -8 -16 -16 -16s-16 5 -16 16c0 57 -59 185 -103 222c-4 3 -6 7 -6 12z" fill="currentColor"/>
<text transform="translate(28.9787, 4.6260)" font-family="serif" font-weight="bold" font-size="1.3860" text-anchor="start" fill="currentColor">
<tspan>5</tspan>
</text>
<text transform="translate(28.5007, 5.8492)" font-family="serif" font-weight="bold" font-size="1.3860" text-anchor="start" fill="currentColor">
<tspan>12</tspan>
</text>
<path transform="translate(29.4567, 6.8433) scale(0.0025, -0.0025)" d="M-125 234c0 9 8 16 16 16c2 0 3 0 5 -1c34 -11 69 -16 104 -16s70 5 104 16c2 1 3 1 5 1c8 0 16 -7 16 -16c0 -5 -2 -9 -6 -12c-44 -37 -103 -165 -103 -222c0 -11 -8 -16 -16 -16s-16 5 -16 16c0 57 -59 185 -103 222c-4 3 -6 7 -6 12z" fill="currentColor"/>
<text transform="translate(28.9848, 4.5954)" font-family="serif" font-weight="bold" font-size="1.3860" text-anchor="start" fill="currentColor">
<tspan>5</tspan>
</text>
<text transform="translate(28.5068, 5.8186)" font-family="serif" font-weight="bold" font-size="1.3860" text-anchor="start" fill="currentColor">
<tspan>12</tspan>
</text>
<path transform="translate(29.4628, 6.8126) scale(0.0025, -0.0025)" d="M-125 234c0 9 8 16 16 16c2 0 3 0 5 -1c34 -11 69 -16 104 -16s70 5 104 16c2 1 3 1 5 1c8 0 16 -7 16 -16c0 -5 -2 -9 -6 -12c-44 -37 -103 -165 -103 -222c0 -11 -8 -16 -16 -16s-16 5 -16 16c0 57 -59 185 -103 222c-4 3 -6 7 -6 12z" fill="currentColor"/>
<text transform="translate(29.0021, 4.5694)" font-family="serif" font-weight="bold" font-size="1.3860" text-anchor="start" fill="currentColor">
<tspan>5</tspan>
</text>
<text transform="translate(28.5241, 5.7926)" font-family="serif" font-weight="bold" font-size="1.3860" text-anchor="start" fill="currentColor">
<tspan>12</tspan>
</text>
<path transform="translate(29.4801, 6.7867) scale(0.0025, -0.0025)" d="M-125 234c0 9 8 16 16 16c2 0 3 0 5 -1c34 -11 69 -16 104 -16s70 5 104 16c2 1 3 1 5 1c8 0 16 -7 16 -16c0 -5 -2 -9 -6 -12c-44 -37 -103 -165 -103 -222c0 -11 -8 -16 -16 -16s-16 5 -16 16c0 57 -59 185 -103 222c-4 3 -6 7 -6 12z" fill="currentColor"/>
<text transform="translate(29.0281, 4.5521)" font-family="serif" font-weight="bold" font-size="1.3860" text-anchor="start" fill="currentColor">
<tspan>5</tspan>
</text>
<text transform="translate(28.5501, 5.7753)" font-family="serif" font-weight="bold" font-size="1.3860" text-anchor="start" fill="currentColor">
<tspan>12</tspan>
</text>
<path transform="translate(29.5061, 6.7694) scale(0.0025, -0.0025)" d="M-125 234c0 9 8 16 16 16c2 0 3 0 5 -1c34 -11 69 -16 104 -16s70 5 104 16c2 1 3 1 5 1c8 0 16 -7 16 -16c0 -5 -2 -9 -6 -12c-44 -37 -103 -165 -103 -222c0 -11 -8 -16 -16 -16s-16 5 -16 16c0 57 -59 185 -103 222c-4 3 -6 7 -6 12z" fill="currentColor"/>
<text transform="translate(29.0587, 4.5460)" font-family="serif" font-weight="bold" font-size="1.3860" text-anchor="start" fill="currentColor">
<tspan>5</tspan>
</text>
<text transform="translate(28.5807, 5.7692)" font-family="serif" font-weight="bold" font-size="1.3860" text-anchor="start" fill="currentColor">
<tspan>12</tspan>
</text>
<path transform="translate(29.5367, 6.7633) scale(0.0025, -0.0025)" d="M-125 234c0 9 8 16 16 16c2 0 3 0 5 -1c34 -11 69 -16 104 -16s70 5 104 16c2 1 3 1 5 1c8 0 16 -7 16 -16c0 -5 -2 -9 -6 -12c-44 -37 -103 -165 -103 -222c0 -11 -8 -16 -16 -16s-16 5 -16 16c0 57 -59 185 -103 222c-4 3 -6 7 -6 12z" fill="currentColor"/>
<text transform="translate(29.0893, 4.5521)" font-family="serif" font-weight="bold" font-size="1.3860" text-anchor="start" fill="currentColor">
<tspan>5</tspan>
</text>
<text transform="translate(28.6113, 5.7753)" font-family="serif" font-weight="bold" font-size="1.3860" text-anchor="start" fill="currentColor">
<tspan>12</tspan>
</text>
<path transform="translate(29.5673, 6.7694) scale(0.0025, -0.0025)" d="M-125 234c0 9 8 16 16 16c2 0 3 0 5 -1c34 -11 69 -16 104 -16s70 5 104 16c2 1 3 1 5 1c8 0 16 -7 16 -16c0 -5 -2 -9 -6 -12c-44 -37 -103 -165 -103 -222c0 -11 -8 -16 -16 -16s-16 5 -16 16c0 57 -59 185 -103 222c-4 3 -6 7 -6 12z" fill="currentColor"/>
<text transform="translate(29.1153, 4.5694)" font-family="serif" font-weight="bold" font-size="1.3860" text-anchor="start" fill="currentColor">
<tspan>5</tspan>
</text>
<text transform="translate(28.6372, 5.7926)" font-family="serif" font-weight="bold" font-size="1.3860" text-anchor="start" fill="currentColor">
<tspan>12</tspan>
</text>
<path transform="translate(29.5933, 6.7867) scale(0.0025, -0.0025)" d="M-125 234c0 9 8 16 16 16c2 0 3 0 5 -1c34 -11 69 -16 104 -16s70 5 104 16c2 1 3 1 5 1c8 0 16 -7 16 -16c0 -5 -2 -9 -6 -12c-44 -37 -103 -165 -103 -222c0 -11 -8 -16 -16 -16s-16 5 -16 16c0 57 -59 185 -103 222c-4 3 -6 7 -6 12z" fill="currentColor"/>
<text transform="translate(29.1326, 4.5954)" font-family="serif" font-weight="bold" font-size="1.3860" text-anchor="start" fill="currentColor">
<tspan>5</tspan>
</text>
<text transform="translate(28.6546, 5.8186)" font-family="serif" font-weight="bold" font-size="1.3860" text-anchor="start" fill="currentColor">
<tspan>12</tspan>
</text>
<path transform="translate(29.6106, 6.8126) scale(0.0025, -0.0025)" d="M-125 234c0 9 8 16 16 16c2 0 3 0 5 -1c34 -11 69 -16 104 -16s70 5 104 16c2 1 3 1 5 1c8 0 16 -7 16 -16c0 -5 -2 -9 -6 -12c-44 -37 -103 -165 -103 -222c0 -11 -8 -16 -16 -16s-16 5 -16 16c0 57 -59 185 -103 222c-4 3 -6 7 -6 12z" fill="currentColor"/>
</g>
<text transform="translate(29.0587, 4.6260)" font-family="serif" font-weight="bold" font-size="1.3860" text-anchor="start" fill="currentColor">
<tspan>5</tspan>
</text>
<text transform="translate(28.5807, 5.8492)" font-family="serif" font-weight="bold" font-size="1.3860" text-anchor="start" fill="currentColor">
<tspan>12</tspan>
</text>
<path transform="translate(29.5367, 6.8433) scale(0.0025, -0.0025)" d="M-125 234c0 9 8 16 16 16c2 0 3 0 5 -1c34 -11 69 -16 104 -16s70 5 104 16c2 1 3 1 5 1c8 0 16 -7 16 -16c0 -5 -2 -9 -6 -12c-44 -37 -103 -165 -103 -222c0 -11 -8 -16 -16 -16s-16 5 -16 16c0 57 -59 185 -103 222c-4 3 -6 7 -6 12z" fill="currentColor"/>
<path transform="translate(17.9858, 6.7760) scale(0.0040, -0.0040)" d="M218 136c55 0 108 -28 108 -89c0 -71 -55 -121 -102 -149c-35 -21 -75 -34 -116 -34c-55 0 -108 28 -108 89c0 71 55 121 102 149c35 21 75 34 116 34z" fill="currentColor"/>
<path transform="translate(9.3358, 4.7760) scale(0.0040, -0.0040)" d="M376 262c4 0 9 1 13 1c155 0 256 -128 256 -261c0 -76 -33 -154 -107 -210c-22 -17 -47 -28 -73 -36c3 -35 5 -70 5 -105c0 -19 -1 -39 -2 -58c-7 -120 -90 -228 -208 -228c-108 0 -195 88 -195 197c0 58 53 103 112 103c54 0 95 -47 95 -103c0 -52 -43 -95 -95 -95
c-11 0 -21 2 -31 6c26 -39 68 -65 117 -65c96 0 157 92 163 191c1 18 2 37 2 55c0 31 -1 61 -4 92c-29 -5 -58 -8 -89 -8c-188 0 -333 172 -333 374c0 177 131 306 248 441c-19 62 -37 125 -45 190c-6 52 -7 104 -7 156c0 115 55 224 149 292c3 2 7 3 10 3c4 0 7 0 10 -3
c71 -84 133 -245 133 -358c0 -143 -86 -255 -180 -364c21 -68 39 -138 56 -207zM461 -203c68 24 113 95 113 164c0 90 -66 179 -173 190c24 -116 46 -231 60 -354zM74 28c0 -135 129 -247 264 -247c28 0 55 2 82 6c-14 127 -37 245 -63 364c-79 -8 -124 -61 -124 -119
c0 -44 25 -91 81 -123c5 -5 7 -10 7 -15c0 -11 -10 -22 -22 -22c-3 0 -6 1 -9 2c-80 43 -117 115 -117 185c0 88 58 174 160 197c-14 58 -29 117 -46 175c-107 -121 -213 -243 -213 -403zM408 1045c-99 -48 -162 -149 -162 -259c0 -74 18 -133 36 -194
c80 97 146 198 146 324c0 55 -4 79 -20 129z" fill="currentColor"/>
<path transform="translate(13.5358, 3.7760) scale(0.0040, -0.0040)" d="M359 27c-49 0 -75 42 -75 75c0 38 27 77 72 77c4 0 9 0 14 -1c-28 37 -72 59 -120 59c-106 0 -113 -73 -113 -186v-51v-51c0 -113 7 -187 113 -187c80 0 139 70 158 151c2 7 7 10 12 10c6 0 13 -4 13 -12c0 -94 -105 -174 -183 -174c-68 0 -137 21 -184 70
c-49 51 -66 122 -66 193s17 142 66 193c47 49 116 69 184 69c87 0 160 -64 175 -150c1 -5 1 -9 1 -13c0 -40 -30 -72 -67 -72z" fill="currentColor"/>
<rect transform="translate(19.2250, 3.7760)" x="-0.0650" y="-0.5000" width="0.1300" height="3.3139" ry="0.0400" fill="currentColor"/>
<path transform="translate(16.5358, 6.7760) scale(0.0040, -0.0040)" d="M216 -312c0 -10 -8 -19 -18 -19s-19 9 -19 19v145l-83 -31v-158c0 -10 -9 -19 -19 -19s-18 9 -18 19v145l-32 -12c-2 -1 -5 -1 -7 -1c-11 0 -20 9 -20 20v60c0 8 5 16 13 19l46 16v160l-32 -11c-2 -1 -5 -1 -7 -1c-11 0 -20 9 -20 20v60c0 8 5 15 13 18l46 17v158
c0 10 8 19 18 19s19 -9 19 -19v-145l83 31v158c0 10 9 19 19 19s18 -9 18 -19v-145l32 12c2 1 5 1 7 1c11 0 20 -9 20 -20v-60c0 -8 -5 -16 -13 -19l-46 -16v-160l32 11c2 1 5 1 7 1c11 0 20 -9 20 -20v-60c0 -8 -5 -15 -13 -18l-46 -17v-158zM96 65v-160l83 30v160z" fill="currentColor"/>
</svg>
