<svg xmlns="http://www.w3.org/2000/svg" xmlns:xlink="http://www.w3.org/1999/xlink" version="1.2" width="210.00mm" height="297.00mm" viewBox="0 0 132.7795 187.7882">
<style text="style/css">
<![CDATA[
tspan { white-space: pre; }
]]>
</style>
<!-- Page: 1/1 -->
<g color="rgb(49.8039%, 49.8039%, 49.8039%)">
<line transform="translate(16.0600, 12.3308)" stroke-linejoin="round" stroke-linecap="round" stroke-width="0.1073" stroke="currentColor" x1="0.0537" y1="-0.0000" x2="106.6436" y2="-0.0000"/>
<line transform="translate(16.0600, 11.3308)" stroke-linejoin="round" stroke-linecap="round" stroke-width="0.1073" stroke="currentColor" x1="0.0537" y1="-0.0000" x2="106.6436" y2="-0.0000"/>
<line transform="translate(16.0600, 10.3308)" stroke-linejoin="round" stroke-linecap="round" stroke-width="0.1073" stroke="currentColor" x1="0.0537" y1="-0.0000" x2="106.6436" y2="-0.0000"/>
<line transform="translate(16.0600, 9.3308)" stroke-linejoin="round" stroke-linecap="round" stroke-width="0.1073" stroke="currentColor" x1="0.0537" y1="-0.0000" x2="106.6436" y2="-0.0000"/>
<line transform="translate(16.0600, 8.3308)" stroke-linejoin="round" stroke-linecap="round" stroke-width="0.1073" stroke="currentColor" x1="0.0537" y1="-0.0000" x2="106.6436" y2="-0.0000"/>
</g>
<rect transform="translate(16.0600, 13.3308)" x="88.8975" y="-0.1037" width="2.0709" height="0.2073" ry="0.1037" fill="currentColor"/>
<rect transform="translate(16.0600, 13.3308)" x="85.5079" y="-0.1037" width="1.9542" height="0.2073" ry="0.1037" fill="currentColor"/>
<rect transform="translate(16.0600, 13.3308)" x="82.5988" y="-0.1037" width="1.9542" height="0.2073" ry="0.1037" fill="currentColor"/>
<rect transform="translate(16.0600, 13.3308)" x="78.2352" y="-0.1037" width="1.9542" height="0.2073" ry="0.1037" fill="currentColor"/>
<rect transform="translate(16.0600, 13.3308)" x="75.3261" y="-0.1037" width="1.9542" height="0.2073" ry="0.1037" fill="currentColor"/>
<rect transform="translate(16.0600, 13.3308)" x="57.8521" y="-0.1037" width="2.0709" height="0.2073" ry="0.1037" fill="currentColor"/>
<rect transform="translate(16.0600, 13.3308)" x="38.7677" y="-0.1037" width="1.9542" height="0.2073" ry="0.1037" fill="currentColor"/>
<rect transform="translate(16.0600, 13.3308)" x="35.8677" y="-0.1037" width="1.9542" height="0.2073" ry="0.1037" fill="currentColor"/>
<rect transform="translate(16.0600, 13.3308)" x="33.4677" y="-0.1037" width="1.9542" height="0.2073" ry="0.1037" fill="currentColor"/>
<rect transform="translate(16.0600, 13.3308)" x="28.6677" y="-0.1037" width="1.9542" height="0.2073" ry="0.1037" fill="currentColor"/>
<rect transform="translate(16.0600, 13.3308)" x="26.2677" y="-0.1037" width="1.9542" height="0.2073" ry="0.1037" fill="currentColor"/>
<rect transform="translate(16.0600, 13.3308)" x="8.2677" y="-0.1037" width="1.9542" height="0.2073" ry="0.1037" fill="currentColor"/>
<rect transform="translate(122.5534, 10.3308)" x="0.0000" y="-2.0537" width="0.2039" height="4.1073" ry="0.0000" fill="currentColor"/>
<rect transform="translate(73.1534, 10.3308)" x="0.0000" y="-2.0537" width="0.2039" height="4.1073" ry="0.0000" fill="currentColor"/>
<path transform="translate(42.6534, 13.3308) scale(0.0040, -0.0040)" d="M215 137c57 0 111 -29 111 -92c0 -71 -54 -120 -101 -148c-35 -21 -74 -34 -114 -34c-57 0 -111 29 -111 92c0 71 54 120 101 148c35 21 74 34 114 34z" fill="currentColor"/>
<path transform="translate(101.8936, 13.3308) scale(0.0040, -0.0040)" d="M215 137c57 0 111 -29 111 -92c0 -71 -54 -120 -101 -148c-35 -21 -74 -34 -114 -34c-57 0 -111 29 -111 92c0 71 54 120 101 148c35 21 74 34 114 34z" fill="currentColor"/>
<rect transform="translate(106.6135, 10.3308)" x="-0.0697" y="-0.5000" width="0.1395" height="3.2470" ry="0.0444" fill="currentColor"/>
<path transform="translate(105.3027, 13.3308) scale(0.0040, -0.0040)" d="M312 64c0 24 -20 41 -41 41c-4 0 -8 -1 -12 -2c-30 -9 -77 -38 -113 -62s-83 -54 -103 -78c-7 -8 -10 -17 -10 -27c0 -24 20 -41 41 -41c4 0 8 1 12 2c30 9 77 38 113 62s83 54 103 78c7 8 10 17 10 27zM259 137c48 0 86 -22 86 -74c0 -18 -4 -38 -10 -56
c-12 -38 -30 -73 -63 -95c-53 -36 -113 -49 -186 -49c-48 0 -86 22 -86 74c0 18 4 38 10 56c12 38 31 73 64 95c53 36 112 49 185 49z" fill="currentColor"/>
<rect transform="translate(103.1267, 10.3308)" x="-0.0697" y="-0.0000" width="0.1395" height="2.8206" ry="0.0444" fill="currentColor"/>
<line transform="translate(43.8167, 6.7771)" stroke-linejoin="round" stroke-linecap="round" stroke-width="0.1717" stroke="currentColor" x1="10.0367" y1="-0.0000" x2="10.0367" y2="0.7000"/>
<line transform="translate(43.8167, 6.7771)" stroke-linejoin="round" stroke-linecap="round" stroke-width="0.1717" stroke="currentColor" x1="-0.2000" y1="-0.0000" x2="-0.2000" y2="0.7000"/>
<line transform="translate(43.8167, 6.7771)" stroke-linejoin="round" stroke-linecap="round" stroke-width="0.1717" stroke="currentColor" x1="10.0367" y1="-0.0000" x2="6.9220" y2="-0.0000"/>
<line transform="translate(43.8167, 6.7771)" stroke-linejoin="round" stroke-linecap="round" stroke-width="0.1717" stroke="currentColor" x1="-0.2000" y1="-0.0000" x2="3.1147" y2="-0.0000"/>
<text transform="translate(47.3313, 7.4221)" font-family="serif" font-style="italic" font-size="1.7462" text-anchor="start" fill="currentColor">
<tspan>5:4</tspan>
</text>
<polygon transform="translate(43.8167, 10.0095)" stroke-linejoin="round" stroke-linecap="round" stroke-width="0.0889" fill="currentColor" stroke="currentColor" points="9.6950 -0.3306 9.6950 0.3306 0.0444 0.3306 0.0444 -0.3306"/>
<polygon transform="translate(51.0167, 11.2149)" stroke-linejoin="round" stroke-linecap="round" stroke-width="0.0889" fill="currentColor" stroke="currentColor" points="2.4950 -0.3306 2.4950 0.3306 0.0444 0.3306 0.0444 -0.3306"/>
<polygon transform="translate(43.8167, 11.2149)" stroke-linejoin="round" stroke-linecap="round" stroke-width="0.0889" fill="currentColor" stroke="currentColor" points="1.1253 -0.3306 1.1253 0.3306 0.0444 0.3306 0.0444 -0.3306"/>
<line transform="translate(92.8751, 6.7771)" stroke-linejoin="round" stroke-linecap="round" stroke-width="0.1717" stroke="currentColor" x1="11.1276" y1="-0.0000" x2="11.1276" y2="0.7000"/>
<line transform="translate(92.8751, 6.7771)" stroke-linejoin="round" stroke-linecap="round" stroke-width="0.1717" stroke="currentColor" x1="-0.2000" y1="-0.0000" x2="-0.2000" y2="0.7000"/>
<line transform="translate(92.8751, 6.7771)" stroke-linejoin="round" stroke-linecap="round" stroke-width="0.1717" stroke="currentColor" x1="11.1276" y1="-0.0000" x2="7.4675" y2="-0.0000"/>
<line transform="translate(92.8751, 6.7771)" stroke-linejoin="round" stroke-linecap="round" stroke-width="0.1717" stroke="currentColor" x1="-0.2000" y1="-0.0000" x2="3.6601" y2="-0.0000"/>
<text transform="translate(96.9352, 7.4221)" font-family="serif" font-style="italic" font-size="1.7462" text-anchor="start" fill="currentColor">
<tspan>3:2</tspan>
</text>
<polygon transform="translate(92.8751, 10.3308)" stroke-linejoin="round" stroke-linecap="round" stroke-width="0.0889" fill="currentColor" stroke="currentColor" points="10.2769 -0.3306 10.2769 0.3306 0.0444 0.3306 0.0444 -0.3306"/>
<rect transform="translate(53.4864, 10.3308)" x="-0.0697" y="-0.3213" width="0.1395" height="3.1420" ry="0.0444" fill="currentColor"/>
<path transform="translate(52.2534, 13.3308) scale(0.0040, -0.0040)" d="M215 137c57 0 111 -29 111 -92c0 -71 -54 -120 -101 -148c-35 -21 -74 -34 -114 -34c-57 0 -111 29 -111 92c0 71 54 120 101 148c35 21 74 34 114 34z" fill="currentColor"/>
<path transform="translate(21.0600, 10.3308) scale(0.0040, -0.0040)" d="M203 301c22 15 45 30 61 51c12 15 19 34 27 51c2 4 5 6 9 6c6 0 14 -6 14 -15v-238h74c10 0 16 -8 16 -16s-6 -15 -16 -15h-74v-5c0 -49 29 -95 75 -95c8 0 12 -7 12 -13s-4 -12 -12 -12c-45 0 -90 13 -135 13s-90 -13 -135 -13c-8 0 -12 6 -12 12s4 13 12 13
c46 0 75 46 75 95v5h-163c-24 0 -33 15 -33 24c0 3 1 6 2 7c80 92 134 205 134 327c0 10 6 17 14 17h3c24 -7 48 -13 73 -13s48 6 72 13c2 1 4 1 6 1c9 0 14 -7 14 -13c0 -2 0 -3 -2 -5l-283 -327h163v122c0 9 2 18 9 23z" fill="currentColor"/>
<path transform="translate(21.0600, 12.3794) scale(0.0040, -0.0040)" d="M203 301c22 15 45 30 61 51c12 15 19 34 27 51c2 4 5 6 9 6c6 0 14 -6 14 -15v-238h74c10 0 16 -8 16 -16s-6 -15 -16 -15h-74v-5c0 -49 29 -95 75 -95c8 0 12 -7 12 -13s-4 -12 -12 -12c-45 0 -90 13 -135 13s-90 -13 -135 -13c-8 0 -12 6 -12 12s4 13 12 13
c46 0 75 46 75 95v5h-163c-24 0 -33 15 -33 24c0 3 1 6 2 7c80 92 134 205 134 327c0 10 6 17 14 17h3c24 -7 48 -13 73 -13s48 6 72 13c2 1 4 1 6 1c9 0 14 -7 14 -13c0 -2 0 -3 -2 -5l-283 -327h163v122c0 9 2 18 9 23z" fill="currentColor"/>
<rect transform="translate(43.8864, 10.3308)" x="-0.0697" y="-0.3213" width="0.1395" height="3.1420" ry="0.0444" fill="currentColor"/>
<rect transform="translate(51.0864, 10.3308)" x="-0.0697" y="-0.3213" width="0.1395" height="3.1420" ry="0.0444" fill="currentColor"/>
<path transform="translate(49.8534, 13.3308) scale(0.0040, -0.0040)" d="M215 137c57 0 111 -29 111 -92c0 -71 -54 -120 -101 -148c-35 -21 -74 -34 -114 -34c-57 0 -111 29 -111 92c0 71 54 120 101 148c35 21 74 34 114 34z" fill="currentColor"/>
<path transform="translate(16.8600, 11.3308) scale(0.0040, -0.0040)" d="M378 263c4 0 7 1 11 1c156 0 257 -129 257 -262c0 -76 -34 -154 -108 -210c-22 -17 -46 -29 -72 -37c3 -34 4 -68 4 -102c0 -20 0 -40 -1 -60c-7 -121 -90 -228 -209 -228c-108 0 -196 87 -196 196c0 58 53 104 112 104c54 0 95 -48 95 -104c0 -52 -43 -95 -95 -95
c-10 0 -20 2 -29 6c26 -38 68 -63 116 -63c95 0 156 91 162 190c1 19 2 37 2 56c0 30 -2 60 -4 90c-29 -5 -58 -8 -88 -8c-188 0 -333 173 -333 375c0 177 130 307 246 442c-20 62 -38 125 -46 190c-6 52 -7 104 -7 157c0 115 55 223 148 290c3 2 7 3 11 3s8 -1 11 -4
c71 -83 134 -244 134 -357c0 -143 -85 -255 -178 -364c21 -68 40 -137 57 -206zM462 -202c67 24 111 94 111 162c0 89 -65 178 -170 190c24 -115 46 -230 59 -352zM75 26c0 -134 129 -245 263 -245c28 0 55 2 81 6c-14 126 -36 244 -61 363c-79 -8 -124 -61 -124 -119
c0 -43 25 -89 80 -121c5 -5 7 -11 7 -16c0 -12 -10 -23 -22 -23c-3 0 -6 1 -9 2c-81 43 -118 116 -118 186c0 89 58 175 161 198c-14 58 -29 116 -46 173c-106 -122 -212 -244 -212 -404zM406 1042c-99 -47 -162 -148 -162 -257c0 -73 20 -132 38 -191
c79 97 144 199 144 324c0 53 -4 76 -20 124z" fill="currentColor"/>
<rect transform="translate(46.2864, 10.3308)" x="-0.0697" y="-0.3213" width="0.1395" height="3.1420" ry="0.0444" fill="currentColor"/>
<path transform="translate(45.0534, 13.3308) scale(0.0040, -0.0040)" d="M215 137c57 0 111 -29 111 -92c0 -71 -54 -120 -101 -148c-35 -21 -74 -34 -114 -34c-57 0 -111 29 -111 92c0 71 54 120 101 148c35 21 74 34 114 34z" fill="currentColor"/>
<path transform="translate(24.6534, 13.3308) scale(0.0040, -0.0040)" d="M215 137c57 0 111 -29 111 -92c0 -71 -54 -120 -101 -148c-35 -21 -74 -34 -114 -34c-57 0 -111 29 -111 92c0 71 54 120 101 148c35 21 74 34 114 34z" fill="currentColor"/>
<path transform="translate(26.4021, 12.8308) scale(0.0040, -0.0040)" d="M0 0c0 31 25 56 56 56s55 -25 55 -56s-24 -56 -55 -56s-56 25 -56 56z" fill="currentColor"/>
<rect transform="translate(75.5681, 10.3308)" x="-0.0697" y="-0.5000" width="0.1395" height="3.2470" ry="0.0444" fill="currentColor"/>
<path transform="translate(74.2572, 13.3308) scale(0.0040, -0.0040)" d="M312 64c0 24 -20 41 -41 41c-4 0 -8 -1 -12 -2c-30 -9 -77 -38 -113 -62s-83 -54 -103 -78c-7 -8 -10 -17 -10 -27c0 -24 20 -41 41 -41c4 0 8 1 12 2c30 9 77 38 113 62s83 54 103 78c7 8 10 17 10 27zM259 137c48 0 86 -22 86 -74c0 -18 -4 -38 -10 -56
c-12 -38 -30 -73 -63 -95c-53 -36 -113 -49 -186 -49c-48 0 -86 22 -86 74c0 18 4 38 10 56c12 38 31 73 64 95c53 36 112 49 185 49z" fill="currentColor"/>
<rect transform="translate(56.3864, 10.3308)" x="-0.0697" y="-0.5000" width="0.1395" height="3.3206" ry="0.0444" fill="currentColor"/>
<path transform="translate(56.9021, 12.8308) scale(0.0040, -0.0040)" d="M0 0c0 31 25 56 56 56s55 -25 55 -56s-24 -56 -55 -56s-56 25 -56 56z" fill="currentColor"/>
<path transform="translate(55.1534, 13.3308) scale(0.0040, -0.0040)" d="M215 137c57 0 111 -29 111 -92c0 -71 -54 -120 -101 -148c-35 -21 -74 -34 -114 -34c-57 0 -111 29 -111 92c0 71 54 120 101 148c35 21 74 34 114 34z" fill="currentColor"/>
<text transform="translate(97.0721, 5.4892)" font-family="serif" font-style="italic" font-size="1.7462" text-anchor="start" fill="currentColor">
<tspan>11:8</tspan>
</text>
<line transform="translate(75.4983, 4.8443)" stroke-linejoin="round" stroke-linecap="round" stroke-width="0.1717" stroke="currentColor" x1="47.2550" y1="-0.0000" x2="47.2550" y2="0.7000"/>
<line transform="translate(75.4983, 4.8443)" stroke-linejoin="round" stroke-linecap="round" stroke-width="0.1717" stroke="currentColor" x1="-0.2000" y1="-0.0000" x2="-0.2000" y2="0.7000"/>
<line transform="translate(75.4983, 4.8443)" stroke-linejoin="round" stroke-linecap="round" stroke-width="0.1717" stroke="currentColor" x1="47.2550" y1="-0.0000" x2="26.0813" y2="-0.0000"/>
<line transform="translate(75.4983, 4.8443)" stroke-linejoin="round" stroke-linecap="round" stroke-width="0.1717" stroke="currentColor" x1="-0.2000" y1="-0.0000" x2="21.1738" y2="-0.0000"/>
<path transform="translate(91.7118, 13.3308) scale(0.0040, -0.0040)" d="M215 137c57 0 111 -29 111 -92c0 -71 -54 -120 -101 -148c-35 -21 -74 -34 -114 -34c-57 0 -111 29 -111 92c0 71 54 120 101 148c35 21 74 34 114 34z" fill="currentColor"/>
<rect transform="translate(100.2176, 10.3308)" x="-0.0697" y="-0.0000" width="0.1395" height="2.8206" ry="0.0444" fill="currentColor"/>
<path transform="translate(98.9845, 13.3308) scale(0.0040, -0.0040)" d="M215 137c57 0 111 -29 111 -92c0 -71 -54 -120 -101 -148c-35 -21 -74 -34 -114 -34c-57 0 -111 29 -111 92c0 71 54 120 101 148c35 21 74 34 114 34z" fill="currentColor"/>
<rect transform="translate(95.8539, 10.3308)" x="-0.0697" y="-0.0000" width="0.1395" height="2.8206" ry="0.0444" fill="currentColor"/>
<path transform="translate(94.6209, 13.3308) scale(0.0040, -0.0040)" d="M215 137c57 0 111 -29 111 -92c0 -71 -54 -120 -101 -148c-35 -21 -74 -34 -114 -34c-57 0 -111 29 -111 92c0 71 54 120 101 148c35 21 74 34 114 34z" fill="currentColor"/>
<rect transform="translate(92.9448, 10.3308)" x="-0.0697" y="-0.0000" width="0.1395" height="2.8206" ry="0.0444" fill="currentColor"/>
<rect transform="translate(25.8864, 10.3308)" x="-0.0697" y="-0.5000" width="0.1395" height="3.3206" ry="0.0444" fill="currentColor"/>
<path transform="translate(96.3696, 12.8308) scale(0.0040, -0.0040)" d="M0 0c0 31 25 56 56 56s55 -25 55 -56s-24 -56 -55 -56s-56 25 -56 56z" fill="currentColor"/>
<g color="rgb(49.8039%, 49.8039%, 49.8039%)">
<line transform="translate(16.0600, 24.3308)" stroke-linejoin="round" stroke-linecap="round" stroke-width="0.1073" stroke="currentColor" x1="0.0537" y1="-0.0000" x2="105.2706" y2="-0.0000"/>
<line transform="translate(16.0600, 23.3308)" stroke-linejoin="round" stroke-linecap="round" stroke-width="0.1073" stroke="currentColor" x1="0.0537" y1="-0.0000" x2="105.2706" y2="-0.0000"/>
<line transform="translate(16.0600, 22.3308)" stroke-linejoin="round" stroke-linecap="round" stroke-width="0.1073" stroke="currentColor" x1="0.0537" y1="-0.0000" x2="105.2706" y2="-0.0000"/>
<line transform="translate(16.0600, 21.3308)" stroke-linejoin="round" stroke-linecap="round" stroke-width="0.1073" stroke="currentColor" x1="0.0537" y1="-0.0000" x2="105.2706" y2="-0.0000"/>
<line transform="translate(16.0600, 20.3308)" stroke-linejoin="round" stroke-linecap="round" stroke-width="0.1073" stroke="currentColor" x1="0.0537" y1="-0.0000" x2="105.2706" y2="-0.0000"/>
</g>
<rect transform="translate(70.3600, 22.3308)" x="0.0000" y="-2.0537" width="0.2039" height="4.1073" ry="0.0000" fill="currentColor"/>
<rect transform="translate(121.1804, 22.3308)" x="0.0000" y="-2.0537" width="0.2039" height="4.1073" ry="0.0000" fill="currentColor"/>
<rect transform="translate(16.0600, 25.3308)" x="101.7986" y="-0.1037" width="1.9542" height="0.2073" ry="0.1037" fill="currentColor"/>
<rect transform="translate(16.0600, 25.3308)" x="88.9791" y="-0.1037" width="2.0709" height="0.2073" ry="0.1037" fill="currentColor"/>
<rect transform="translate(16.0600, 25.3308)" x="84.7339" y="-0.1037" width="1.9542" height="0.2073" ry="0.1037" fill="currentColor"/>
<rect transform="translate(16.0600, 25.3308)" x="80.9692" y="-0.1037" width="1.9542" height="0.2073" ry="0.1037" fill="currentColor"/>
<rect transform="translate(16.0600, 25.3308)" x="78.6076" y="-0.1037" width="1.9542" height="0.2073" ry="0.1037" fill="currentColor"/>
<rect transform="translate(16.0600, 25.3308)" x="74.8429" y="-0.1037" width="1.9542" height="0.2073" ry="0.1037" fill="currentColor"/>
<rect transform="translate(16.0600, 25.3308)" x="71.0782" y="-0.1037" width="1.9542" height="0.2073" ry="0.1037" fill="currentColor"/>
<rect transform="translate(16.0600, 25.3308)" x="67.8782" y="-0.1037" width="1.9542" height="0.2073" ry="0.1037" fill="currentColor"/>
<rect transform="translate(16.0600, 25.3308)" x="55.0587" y="-0.1037" width="2.0709" height="0.2073" ry="0.1037" fill="currentColor"/>
<rect transform="translate(16.0600, 25.3308)" x="50.5457" y="-0.1037" width="1.9542" height="0.2073" ry="0.1037" fill="currentColor"/>
<rect transform="translate(16.0600, 25.3308)" x="36.8120" y="-0.1037" width="2.0709" height="0.2073" ry="0.1037" fill="currentColor"/>
<rect transform="translate(16.0600, 25.3308)" x="33.1666" y="-0.1037" width="1.9542" height="0.2073" ry="0.1037" fill="currentColor"/>
<rect transform="translate(16.0600, 25.3308)" x="30.0018" y="-0.1037" width="1.9542" height="0.2073" ry="0.1037" fill="currentColor"/>
<rect transform="translate(16.0600, 25.3308)" x="25.7820" y="-0.1037" width="1.9542" height="0.2073" ry="0.1037" fill="currentColor"/>
<rect transform="translate(16.0600, 25.3308)" x="22.6172" y="-0.1037" width="1.9542" height="0.2073" ry="0.1037" fill="currentColor"/>
<rect transform="translate(16.0600, 25.3308)" x="19.1886" y="-0.1037" width="1.9542" height="0.2073" ry="0.1037" fill="currentColor"/>
<rect transform="translate(16.0600, 25.3308)" x="5.4549" y="-0.1037" width="2.0709" height="0.2073" ry="0.1037" fill="currentColor"/>
<path transform="translate(84.2639, 25.3308) scale(0.0040, -0.0040)" d="M215 137c57 0 111 -29 111 -92c0 -71 -54 -120 -101 -148c-35 -21 -74 -34 -114 -34c-57 0 -111 29 -111 92c0 71 54 120 101 148c35 21 74 34 114 34z" fill="currentColor"/>
<rect transform="translate(85.4969, 22.3308)" x="-0.0697" y="-0.5000" width="0.1395" height="3.3206" ry="0.0444" fill="currentColor"/>
<path transform="translate(85.5667, 21.8752) scale(0.0040, -0.0040)" d="M0 0c0 -197 207 -335 207 -532c0 -71 -15 -141 -41 -207c-5 -8 -13 -12 -21 -12c-14 0 -27 11 -24 28c26 60 42 125 42 191c0 103 -93 207 -163 282h-18v250h18z" fill="currentColor"/>
<path transform="translate(87.4639, 25.3308) scale(0.0040, -0.0040)" d="M215 137c57 0 111 -29 111 -92c0 -71 -54 -120 -101 -148c-35 -21 -74 -34 -114 -34c-57 0 -111 29 -111 92c0 71 54 120 101 148c35 21 74 34 114 34z" fill="currentColor"/>
<rect transform="translate(88.6969, 22.3308)" x="-0.0697" y="-0.5000" width="0.1395" height="3.3206" ry="0.0444" fill="currentColor"/>
<rect transform="translate(68.1645, 22.3308)" x="-0.0697" y="-0.5000" width="0.1395" height="3.3206" ry="0.0444" fill="currentColor"/>
<line transform="translate(23.1011, 16.8443)" stroke-linejoin="round" stroke-linecap="round" stroke-width="0.1717" stroke="currentColor" x1="46.4589" y1="-0.0000" x2="46.4589" y2="0.7000"/>
<line transform="translate(23.1011, 16.8443)" stroke-linejoin="round" stroke-linecap="round" stroke-width="0.1717" stroke="currentColor" x1="-0.2000" y1="-0.0000" x2="-0.2000" y2="0.7000"/>
<line transform="translate(23.1011, 16.8443)" stroke-linejoin="round" stroke-linecap="round" stroke-width="0.1717" stroke="currentColor" x1="46.4589" y1="-0.0000" x2="25.1331" y2="-0.0000"/>
<line transform="translate(23.1011, 16.8443)" stroke-linejoin="round" stroke-linecap="round" stroke-width="0.1717" stroke="currentColor" x1="-0.2000" y1="-0.0000" x2="21.3258" y2="-0.0000"/>
<path transform="translate(53.2171, 25.3308) scale(0.0040, -0.0040)" d="M312 64c0 24 -20 41 -41 41c-4 0 -8 -1 -12 -2c-30 -9 -77 -38 -113 -62s-83 -54 -103 -78c-7 -8 -10 -17 -10 -27c0 -24 20 -41 41 -41c4 0 8 1 12 2c30 9 77 38 113 62s83 54 103 78c7 8 10 17 10 27zM259 137c48 0 86 -22 86 -74c0 -18 -4 -38 -10 -56
c-12 -38 -30 -73 -63 -95c-53 -36 -113 -49 -186 -49c-48 0 -86 22 -86 74c0 18 4 38 10 56c12 38 31 73 64 95c53 36 112 49 185 49z" fill="currentColor"/>
<rect transform="translate(54.5280, 22.3308)" x="-0.0697" y="-0.5000" width="0.1395" height="3.2470" ry="0.0444" fill="currentColor"/>
<path transform="translate(66.9314, 25.3308) scale(0.0040, -0.0040)" d="M215 137c57 0 111 -29 111 -92c0 -71 -54 -120 -101 -148c-35 -21 -74 -34 -114 -34c-57 0 -111 29 -111 92c0 71 54 120 101 148c35 21 74 34 114 34z" fill="currentColor"/>
<path transform="translate(68.2342, 21.8752) scale(0.0040, -0.0040)" d="M0 0c0 -197 207 -335 207 -532c0 -71 -15 -141 -41 -207c-5 -8 -13 -12 -21 -12c-14 0 -27 11 -24 28c26 60 42 125 42 191c0 103 -93 207 -163 282h-18v250h18z" fill="currentColor"/>
<path transform="translate(71.4639, 25.3308) scale(0.0040, -0.0040)" d="M312 64c0 24 -20 41 -41 41c-4 0 -8 -1 -12 -2c-30 -9 -77 -38 -113 -62s-83 -54 -103 -78c-7 -8 -10 -17 -10 -27c0 -24 20 -41 41 -41c4 0 8 1 12 2c30 9 77 38 113 62s83 54 103 78c7 8 10 17 10 27zM259 137c48 0 86 -22 86 -74c0 -18 -4 -38 -10 -56
c-12 -38 -30 -73 -63 -95c-53 -36 -113 -49 -186 -49c-48 0 -86 22 -86 74c0 18 4 38 10 56c12 38 31 73 64 95c53 36 112 49 185 49z" fill="currentColor"/>
<rect transform="translate(72.7747, 22.3308)" x="-0.0697" y="-0.5000" width="0.1395" height="3.2470" ry="0.0444" fill="currentColor"/>
<path transform="translate(71.4639, 22.3308)" stroke-width="0.0858" stroke-linejoin="round" stroke-linecap="round" stroke="currentColor" fill="currentColor" d="M0.8903 3.7500C2.2222 4.7167 11.9195 4.7167 13.2514 3.7500L13.2514 3.7500C11.9195 4.5879 2.2222 4.5879 0.8903 3.7500z"/>
<path transform="translate(105.3843, 25.3308) scale(0.0040, -0.0040)" d="M312 64c0 24 -20 41 -41 41c-4 0 -8 -1 -12 -2c-30 -9 -77 -38 -113 -62s-83 -54 -103 -78c-7 -8 -10 -17 -10 -27c0 -24 20 -41 41 -41c4 0 8 1 12 2c30 9 77 38 113 62s83 54 103 78c7 8 10 17 10 27zM259 137c48 0 86 -22 86 -74c0 -18 -4 -38 -10 -56
c-12 -38 -30 -73 -63 -95c-53 -36 -113 -49 -186 -49c-48 0 -86 22 -86 74c0 18 4 38 10 56c12 38 31 73 64 95c53 36 112 49 185 49z" fill="currentColor"/>
<path transform="translate(105.3843, 22.3308)" stroke-width="0.0858" stroke-linejoin="round" stroke-linecap="round" stroke="currentColor" fill="currentColor" d="M0.8903 3.7500C2.2222 4.7167 11.9195 4.7167 13.2514 3.7500L13.2514 3.7500C11.9195 4.5879 2.2222 4.5879 0.8903 3.7500z"/>
<path transform="translate(91.2286, 22.3308)" stroke-width="0.0858" stroke-linejoin="round" stroke-linecap="round" stroke="currentColor" fill="currentColor" d="M0.8514 3.7500C1.5550 4.4854 3.5125 4.4854 4.2161 3.7500L4.2161 3.7500C3.5125 4.3567 1.5550 4.3567 0.8514 3.7500z"/>
<text transform="translate(93.7519, 19.4221)" font-family="serif" font-style="italic" font-size="1.7462" text-anchor="start" fill="currentColor">
<tspan>17:10</tspan>
</text>
<line transform="translate(88.6272, 18.7771)" stroke-linejoin="round" stroke-linecap="round" stroke-width="0.1717" stroke="currentColor" x1="15.4571" y1="-0.0000" x2="15.4571" y2="0.7000"/>
<line transform="translate(88.6272, 18.7771)" stroke-linejoin="round" stroke-linecap="round" stroke-width="0.1717" stroke="currentColor" x1="-0.2000" y1="-0.0000" x2="-0.2000" y2="0.7000"/>
<line transform="translate(88.6272, 18.7771)" stroke-linejoin="round" stroke-linecap="round" stroke-width="0.1717" stroke="currentColor" x1="15.4571" y1="-0.0000" x2="10.7324" y2="-0.0000"/>
<line transform="translate(88.6272, 18.7771)" stroke-linejoin="round" stroke-linecap="round" stroke-width="0.1717" stroke="currentColor" x1="-0.2000" y1="-0.0000" x2="4.7247" y2="-0.0000"/>
<path transform="translate(53.2171, 22.3308)" stroke-width="0.0858" stroke-linejoin="round" stroke-linecap="round" stroke="currentColor" fill="currentColor" d="M0.8903 3.7500C2.2536 4.7233 12.8024 4.7233 14.1657 3.7500L14.1657 3.7500C12.8024 4.5946 2.2536 4.5946 0.8903 3.7500z"/>
<polygon transform="translate(47.5508, 22.3308)" stroke-linejoin="round" stroke-linecap="round" stroke-width="0.0889" fill="currentColor" stroke="currentColor" points="3.2599 -0.3306 3.2599 0.3306 0.0444 0.3306 0.0444 -0.3306"/>
<polygon transform="translate(36.7376, 22.3308)" stroke-linejoin="round" stroke-linecap="round" stroke-width="0.0889" fill="currentColor" stroke="currentColor" points="3.5236 -0.3306 3.5236 0.3306 0.0444 0.3306 0.0444 -0.3306"/>
<text transform="translate(43.9879, 19.4221)" font-family="serif" font-style="italic" font-size="1.7462" text-anchor="start" fill="currentColor">
<tspan>13:8</tspan>
</text>
<line transform="translate(40.1662, 18.7771)" stroke-linejoin="round" stroke-linecap="round" stroke-width="0.1717" stroke="currentColor" x1="11.7510" y1="-0.0000" x2="11.7510" y2="0.7000"/>
<line transform="translate(40.1662, 18.7771)" stroke-linejoin="round" stroke-linecap="round" stroke-width="0.1717" stroke="currentColor" x1="-0.2000" y1="-0.0000" x2="-0.2000" y2="0.7000"/>
<line transform="translate(40.1662, 18.7771)" stroke-linejoin="round" stroke-linecap="round" stroke-width="0.1717" stroke="currentColor" x1="11.7510" y1="-0.0000" x2="8.3292" y2="-0.0000"/>
<line transform="translate(40.1662, 18.7771)" stroke-linejoin="round" stroke-linecap="round" stroke-width="0.1717" stroke="currentColor" x1="-0.2000" y1="-0.0000" x2="3.4217" y2="-0.0000"/>
<path transform="translate(21.8600, 22.3308)" stroke-width="0.0858" stroke-linejoin="round" stroke-linecap="round" stroke="currentColor" fill="currentColor" d="M0.8903 3.7500C2.2536 4.7233 12.8024 4.7233 14.1657 3.7500L14.1657 3.7500C12.8024 4.5946 2.2536 4.5946 0.8903 3.7500z"/>
<text transform="translate(44.8269, 17.4892)" font-family="serif" font-style="italic" font-size="1.7462" text-anchor="start" fill="currentColor">
<tspan>7:4</tspan>
</text>
<path transform="translate(91.2286, 25.3308) scale(0.0040, -0.0040)" d="M215 137c57 0 111 -29 111 -92c0 -71 -54 -120 -101 -148c-35 -21 -74 -34 -114 -34c-57 0 -111 29 -111 92c0 71 54 120 101 148c35 21 74 34 114 34z" fill="currentColor"/>
<rect transform="translate(92.4616, 22.3308)" x="-0.0697" y="-0.5000" width="0.1395" height="3.3206" ry="0.0444" fill="currentColor"/>
<path transform="translate(94.9933, 25.3308) scale(0.0040, -0.0040)" d="M215 137c57 0 111 -29 111 -92c0 -71 -54 -120 -101 -148c-35 -21 -74 -34 -114 -34c-57 0 -111 29 -111 92c0 71 54 120 101 148c35 21 74 34 114 34z" fill="currentColor"/>
<rect transform="translate(96.2263, 22.3308)" x="-0.0697" y="-0.5000" width="0.1395" height="3.3206" ry="0.0444" fill="currentColor"/>
<path transform="translate(96.2961, 21.8752) scale(0.0040, -0.0040)" d="M0 0c0 -177 201 -292 201 -469c0 -33 -9 -65 -23 -95c18 -36 29 -75 29 -117c0 -63 -15 -126 -41 -183c-5 -8 -13 -12 -21 -12c-14 0 -27 11 -24 28c26 52 42 109 42 167c0 96 -93 189 -163 256v-75h-18v500h18zM149 -514c5 14 8 30 8 45c0 95 -89 189 -157 256
c0 -116 88 -204 149 -301z" fill="currentColor"/>
<path transform="translate(97.3549, 25.3308) scale(0.0040, -0.0040)" d="M215 137c57 0 111 -29 111 -92c0 -71 -54 -120 -101 -148c-35 -21 -74 -34 -114 -34c-57 0 -111 29 -111 92c0 71 54 120 101 148c35 21 74 34 114 34z" fill="currentColor"/>
<rect transform="translate(98.5879, 22.3308)" x="-0.0697" y="-0.5000" width="0.1395" height="3.3206" ry="0.0444" fill="currentColor"/>
<path transform="translate(101.1196, 25.3308) scale(0.0040, -0.0040)" d="M215 137c57 0 111 -29 111 -92c0 -71 -54 -120 -101 -148c-35 -21 -74 -34 -114 -34c-57 0 -111 29 -111 92c0 71 54 120 101 148c35 21 74 34 114 34z" fill="currentColor"/>
<rect transform="translate(102.3526, 22.3308)" x="-0.0697" y="-0.5000" width="0.1395" height="3.3206" ry="0.0444" fill="currentColor"/>
<path transform="translate(118.1843, 25.3308) scale(0.0040, -0.0040)" d="M215 137c57 0 111 -29 111 -92c0 -71 -54 -120 -101 -148c-35 -21 -74 -34 -114 -34c-57 0 -111 29 -111 92c0 71 54 120 101 148c35 21 74 34 114 34z" fill="currentColor"/>
<rect transform="translate(119.4173, 22.3308)" x="-0.0697" y="-0.5000" width="0.1395" height="3.3206" ry="0.0444" fill="currentColor"/>
<path transform="translate(119.4871, 21.8752) scale(0.0040, -0.0040)" d="M0 0c0 -197 207 -335 207 -532c0 -71 -15 -141 -41 -207c-5 -8 -13 -12 -21 -12c-14 0 -27 11 -24 28c26 60 42 125 42 191c0 103 -93 207 -163 282h-18v250h18z" fill="currentColor"/>
<path transform="translate(21.8600, 25.3308) scale(0.0040, -0.0040)" d="M312 64c0 24 -20 41 -41 41c-4 0 -8 -1 -12 -2c-30 -9 -77 -38 -113 -62s-83 -54 -103 -78c-7 -8 -10 -17 -10 -27c0 -24 20 -41 41 -41c4 0 8 1 12 2c30 9 77 38 113 62s83 54 103 78c7 8 10 17 10 27zM259 137c48 0 86 -22 86 -74c0 -18 -4 -38 -10 -56
c-12 -38 -30 -73 -63 -95c-53 -36 -113 -49 -186 -49c-48 0 -86 22 -86 74c0 18 4 38 10 56c12 38 31 73 64 95c53 36 112 49 185 49z" fill="currentColor"/>
<line transform="translate(72.7050, 16.8443)" stroke-linejoin="round" stroke-linecap="round" stroke-width="0.1717" stroke="currentColor" x1="48.6754" y1="-0.0000" x2="48.6754" y2="0.7000"/>
<line transform="translate(72.7050, 16.8443)" stroke-linejoin="round" stroke-linecap="round" stroke-width="0.1717" stroke="currentColor" x1="-0.2000" y1="-0.0000" x2="-0.2000" y2="0.7000"/>
<line transform="translate(72.7050, 16.8443)" stroke-linejoin="round" stroke-linecap="round" stroke-width="0.1717" stroke="currentColor" x1="48.6754" y1="-0.0000" x2="26.7915" y2="-0.0000"/>
<line transform="translate(72.7050, 16.8443)" stroke-linejoin="round" stroke-linecap="round" stroke-width="0.1717" stroke="currentColor" x1="-0.2000" y1="-0.0000" x2="21.8840" y2="-0.0000"/>
<text transform="translate(94.9889, 17.4892)" font-family="serif" font-style="italic" font-size="1.7462" text-anchor="start" fill="currentColor">
<tspan>15:8</tspan>
</text>
<path transform="translate(16.8600, 23.3308) scale(0.0040, -0.0040)" d="M378 263c4 0 7 1 11 1c156 0 257 -129 257 -262c0 -76 -34 -154 -108 -210c-22 -17 -46 -29 -72 -37c3 -34 4 -68 4 -102c0 -20 0 -40 -1 -60c-7 -121 -90 -228 -209 -228c-108 0 -196 87 -196 196c0 58 53 104 112 104c54 0 95 -48 95 -104c0 -52 -43 -95 -95 -95
c-10 0 -20 2 -29 6c26 -38 68 -63 116 -63c95 0 156 91 162 190c1 19 2 37 2 56c0 30 -2 60 -4 90c-29 -5 -58 -8 -88 -8c-188 0 -333 173 -333 375c0 177 130 307 246 442c-20 62 -38 125 -46 190c-6 52 -7 104 -7 157c0 115 55 223 148 290c3 2 7 3 11 3s8 -1 11 -4
c71 -83 134 -244 134 -357c0 -143 -85 -255 -178 -364c21 -68 40 -137 57 -206zM462 -202c67 24 111 94 111 162c0 89 -65 178 -170 190c24 -115 46 -230 59 -352zM75 26c0 -134 129 -245 263 -245c28 0 55 2 81 6c-14 126 -36 244 -61 363c-79 -8 -124 -61 -124 -119
c0 -43 25 -89 80 -121c5 -5 7 -11 7 -16c0 -12 -10 -23 -22 -23c-3 0 -6 1 -9 2c-81 43 -118 116 -118 186c0 89 58 175 161 198c-14 58 -29 116 -46 173c-106 -122 -212 -244 -212 -404zM406 1042c-99 -47 -162 -148 -162 -257c0 -73 20 -132 38 -191
c79 97 144 199 144 324c0 53 -4 76 -20 124z" fill="currentColor"/>
<rect transform="translate(23.1708, 22.3308)" x="-0.0697" y="-0.5000" width="0.1395" height="3.2470" ry="0.0444" fill="currentColor"/>
<rect transform="translate(106.6951, 22.3308)" x="-0.0697" y="-0.5000" width="0.1395" height="3.2470" ry="0.0444" fill="currentColor"/>
<path transform="translate(42.1677, 25.3308) scale(0.0040, -0.0040)" d="M215 137c57 0 111 -29 111 -92c0 -71 -54 -120 -101 -148c-35 -21 -74 -34 -114 -34c-57 0 -111 29 -111 92c0 71 54 120 101 148c35 21 74 34 114 34z" fill="currentColor"/>
<rect transform="translate(43.4008, 22.3308)" x="-0.0697" y="-0.5000" width="0.1395" height="3.3206" ry="0.0444" fill="currentColor"/>
<path transform="translate(35.5743, 25.3308) scale(0.0040, -0.0040)" d="M215 137c57 0 111 -29 111 -92c0 -71 -54 -120 -101 -148c-35 -21 -74 -34 -114 -34c-57 0 -111 29 -111 92c0 71 54 120 101 148c35 21 74 34 114 34z" fill="currentColor"/>
<rect transform="translate(47.6205, 22.3308)" x="-0.0697" y="-0.0000" width="0.1395" height="2.8206" ry="0.0444" fill="currentColor"/>
<path transform="translate(48.1363, 24.8308) scale(0.0040, -0.0040)" d="M0 0c0 31 25 56 56 56s55 -25 55 -56s-24 -56 -55 -56s-56 25 -56 56z" fill="currentColor"/>
<path transform="translate(46.3875, 25.3308) scale(0.0040, -0.0040)" d="M215 137c57 0 111 -29 111 -92c0 -71 -54 -120 -101 -148c-35 -21 -74 -34 -114 -34c-57 0 -111 29 -111 92c0 71 54 120 101 148c35 21 74 34 114 34z" fill="currentColor"/>
<rect transform="translate(50.7854, 22.3308)" x="-0.0697" y="-0.0000" width="0.1395" height="2.8206" ry="0.0444" fill="currentColor"/>
<rect transform="translate(40.2359, 22.3308)" x="-0.0697" y="-0.0000" width="0.1395" height="2.8206" ry="0.0444" fill="currentColor"/>
<path transform="translate(40.7516, 24.8308) scale(0.0040, -0.0040)" d="M0 0c0 31 25 56 56 56s55 -25 55 -56s-24 -56 -55 -56s-56 25 -56 56z" fill="currentColor"/>
<rect transform="translate(36.8073, 22.3308)" x="-0.0697" y="-0.0000" width="0.1395" height="2.8206" ry="0.0444" fill="currentColor"/>
<path transform="translate(39.0029, 25.3308) scale(0.0040, -0.0040)" d="M215 137c57 0 111 -29 111 -92c0 -71 -54 -120 -101 -148c-35 -21 -74 -34 -114 -34c-57 0 -111 29 -111 92c0 71 54 120 101 148c35 21 74 34 114 34z" fill="currentColor"/>
<path transform="translate(49.5523, 25.3308) scale(0.0040, -0.0040)" d="M215 137c57 0 111 -29 111 -92c0 -71 -54 -120 -101 -148c-35 -21 -74 -34 -114 -34c-57 0 -111 29 -111 92c0 71 54 120 101 148c35 21 74 34 114 34z" fill="currentColor"/>
<path transform="translate(51.3011, 24.8308) scale(0.0040, -0.0040)" d="M0 0c0 31 25 56 56 56s55 -25 55 -56s-24 -56 -55 -56s-56 25 -56 56z" fill="currentColor"/>
<g color="rgb(49.8039%, 49.8039%, 49.8039%)">
<line transform="translate(16.0600, 36.3308)" stroke-linejoin="round" stroke-linecap="round" stroke-width="0.1073" stroke="currentColor" x1="0.0537" y1="-0.0000" x2="58.3632" y2="-0.0000"/>
<line transform="translate(16.0600, 35.3308)" stroke-linejoin="round" stroke-linecap="round" stroke-width="0.1073" stroke="currentColor" x1="0.0537" y1="-0.0000" x2="58.3632" y2="-0.0000"/>
<line transform="translate(16.0600, 34.3308)" stroke-linejoin="round" stroke-linecap="round" stroke-width="0.1073" stroke="currentColor" x1="0.0537" y1="-0.0000" x2="58.3632" y2="-0.0000"/>
<line transform="translate(16.0600, 33.3308)" stroke-linejoin="round" stroke-linecap="round" stroke-width="0.1073" stroke="currentColor" x1="0.0537" y1="-0.0000" x2="58.3632" y2="-0.0000"/>
<line transform="translate(16.0600, 32.3308)" stroke-linejoin="round" stroke-linecap="round" stroke-width="0.1073" stroke="currentColor" x1="0.0537" y1="-0.0000" x2="58.3632" y2="-0.0000"/>
</g>
<rect transform="translate(74.2730, 34.3308)" x="0.0000" y="-2.0537" width="0.2039" height="4.1073" ry="0.0000" fill="currentColor"/>
<rect transform="translate(16.0600, 37.3308)" x="54.8911" y="-0.1037" width="1.9542" height="0.2073" ry="0.1037" fill="currentColor"/>
<rect transform="translate(16.0600, 37.3308)" x="42.1411" y="-0.1037" width="2.0014" height="0.2073" ry="0.1037" fill="currentColor"/>
<rect transform="translate(16.0600, 37.3308)" x="40.1369" y="-0.1037" width="1.9042" height="0.2073" ry="0.1037" fill="currentColor"/>
<rect transform="translate(16.0600, 37.3308)" x="36.9869" y="-0.1037" width="1.9042" height="0.2073" ry="0.1037" fill="currentColor"/>
<rect transform="translate(16.0600, 37.3308)" x="34.9827" y="-0.1037" width="1.9042" height="0.2073" ry="0.1037" fill="currentColor"/>
<rect transform="translate(16.0600, 37.3308)" x="31.8327" y="-0.1037" width="1.9042" height="0.2073" ry="0.1037" fill="currentColor"/>
<rect transform="translate(16.0600, 37.3308)" x="29.8285" y="-0.1037" width="1.9042" height="0.2073" ry="0.1037" fill="currentColor"/>
<rect transform="translate(16.0600, 37.3308)" x="26.6785" y="-0.1037" width="1.9042" height="0.2073" ry="0.1037" fill="currentColor"/>
<rect transform="translate(16.0600, 37.3308)" x="24.6743" y="-0.1037" width="1.9042" height="0.2073" ry="0.1037" fill="currentColor"/>
<rect transform="translate(16.0600, 37.3308)" x="21.4743" y="-0.1037" width="1.9542" height="0.2073" ry="0.1037" fill="currentColor"/>
<rect transform="translate(16.0600, 37.3308)" x="18.2743" y="-0.1037" width="1.9542" height="0.2073" ry="0.1037" fill="currentColor"/>
<rect transform="translate(16.0600, 37.3308)" x="5.4549" y="-0.1037" width="2.0709" height="0.2073" ry="0.1037" fill="currentColor"/>
<path transform="translate(72.5796, 33.8752) scale(0.0040, -0.0040)" d="M0 0c0 -197 207 -335 207 -532c0 -71 -15 -141 -41 -207c-5 -8 -13 -12 -21 -12c-14 0 -27 11 -24 28c26 60 42 125 42 191c0 103 -93 207 -163 282h-18v250h18z" fill="currentColor"/>
<rect transform="translate(72.5099, 34.3308)" x="-0.0697" y="-0.5000" width="0.1395" height="3.3206" ry="0.0444" fill="currentColor"/>
<path transform="translate(71.2768, 37.3308) scale(0.0040, -0.0040)" d="M215 137c57 0 111 -29 111 -92c0 -71 -54 -120 -101 -148c-35 -21 -74 -34 -114 -34c-57 0 -111 29 -111 92c0 71 54 120 101 148c35 21 74 34 114 34z" fill="currentColor"/>
<rect transform="translate(59.7877, 34.3308)" x="-0.0697" y="-0.5000" width="0.1395" height="3.2470" ry="0.0444" fill="currentColor"/>
<path transform="translate(58.4768, 37.3308) scale(0.0040, -0.0040)" d="M312 64c0 24 -20 41 -41 41c-4 0 -8 -1 -12 -2c-30 -9 -77 -38 -113 -62s-83 -54 -103 -78c-7 -8 -10 -17 -10 -27c0 -24 20 -41 41 -41c4 0 8 1 12 2c30 9 77 38 113 62s83 54 103 78c7 8 10 17 10 27zM259 137c48 0 86 -22 86 -74c0 -18 -4 -38 -10 -56
c-12 -38 -30 -73 -63 -95c-53 -36 -113 -49 -186 -49c-48 0 -86 22 -86 74c0 18 4 38 10 56c12 38 31 73 64 95c53 36 112 49 185 49z" fill="currentColor"/>
<rect transform="translate(57.7557, 34.3308)" x="-0.0697" y="-1.3213" width="0.1395" height="4.1420" ry="0.0444" fill="currentColor"/>
<path transform="translate(56.5226, 37.3308) scale(0.0040, -0.0040)" d="M215 137c57 0 111 -29 111 -92c0 -71 -54 -120 -101 -148c-35 -21 -74 -34 -114 -34c-57 0 -111 29 -111 92c0 71 54 120 101 148c35 21 74 34 114 34z" fill="currentColor"/>
<path transform="translate(21.8600, 34.3308)" stroke-width="0.0858" stroke-linejoin="round" stroke-linecap="round" stroke="currentColor" fill="currentColor" d="M0.8903 3.7500C2.2222 4.7167 11.9195 4.7167 13.2514 3.7500L13.2514 3.7500C11.9195 4.5879 2.2222 4.5879 0.8903 3.7500z"/>
<rect transform="translate(35.8931, 34.3308)" x="-0.0697" y="-1.3213" width="0.1395" height="4.1420" ry="0.0444" fill="currentColor"/>
<path transform="translate(37.8600, 34.3308)" stroke-width="0.0858" stroke-linejoin="round" stroke-linecap="round" stroke="currentColor" fill="currentColor" d="M0.8514 3.7500C1.4736 4.4330 3.0292 4.4330 3.6514 3.7500L3.6514 3.7500C3.0292 4.3042 1.4736 4.3042 0.8514 3.7500z"/>
<path transform="translate(43.0142, 34.3308)" stroke-width="0.0858" stroke-linejoin="round" stroke-linecap="round" stroke="currentColor" fill="currentColor" d="M0.8514 3.7500C1.4736 4.4330 3.0292 4.4330 3.6514 3.7500L3.6514 3.7500C3.0292 4.3042 1.4736 4.3042 0.8514 3.7500z"/>
<polygon transform="translate(35.8233, 33.0095)" stroke-linejoin="round" stroke-linecap="round" stroke-width="0.0889" fill="currentColor" stroke="currentColor" points="11.6493 -0.3306 11.6493 0.3306 0.0444 0.3306 0.0444 -0.3306"/>
<polygon transform="translate(46.3473, 34.2149)" stroke-linejoin="round" stroke-linecap="round" stroke-width="0.0889" fill="currentColor" stroke="currentColor" points="1.1253 -0.3306 1.1253 0.3306 0.0444 0.3306 0.0444 -0.3306"/>
<polygon transform="translate(42.2233, 34.2149)" stroke-linejoin="round" stroke-linecap="round" stroke-width="0.0889" fill="currentColor" stroke="currentColor" points="1.1253 -0.3306 1.1253 0.3306 0.0444 0.3306 0.0444 -0.3306"/>
<polygon transform="translate(46.3473, 35.4204)" stroke-linejoin="round" stroke-linecap="round" stroke-width="0.0889" fill="currentColor" stroke="currentColor" points="1.1253 -0.3306 1.1253 0.3306 0.0444 0.3306 0.0444 -0.3306"/>
<polygon transform="translate(42.2233, 35.4204)" stroke-linejoin="round" stroke-linecap="round" stroke-width="0.0889" fill="currentColor" stroke="currentColor" points="1.1253 -0.3306 1.1253 0.3306 0.0444 0.3306 0.0444 -0.3306"/>
<path transform="translate(48.1684, 34.3308)" stroke-width="0.0858" stroke-linejoin="round" stroke-linecap="round" stroke="currentColor" fill="currentColor" d="M0.8514 3.7500C1.4736 4.4330 3.0292 4.4330 3.6514 3.7500L3.6514 3.7500C3.0292 4.3042 1.4736 4.3042 0.8514 3.7500z"/>
<path transform="translate(53.3226, 34.3308)" stroke-width="0.0858" stroke-linejoin="round" stroke-linecap="round" stroke="currentColor" fill="currentColor" d="M0.8514 3.7500C1.4736 4.4330 3.0292 4.4330 3.6514 3.7500L3.6514 3.7500C3.0292 4.3042 1.4736 4.3042 0.8514 3.7500z"/>
<polygon transform="translate(49.3317, 33.0095)" stroke-linejoin="round" stroke-linecap="round" stroke-width="0.0889" fill="currentColor" stroke="currentColor" points="8.4493 -0.3306 8.4493 0.3306 0.0444 0.3306 0.0444 -0.3306"/>
<polygon transform="translate(56.6557, 34.2149)" stroke-linejoin="round" stroke-linecap="round" stroke-width="0.0889" fill="currentColor" stroke="currentColor" points="1.1253 -0.3306 1.1253 0.3306 0.0444 0.3306 0.0444 -0.3306"/>
<polygon transform="translate(52.5317, 34.2149)" stroke-linejoin="round" stroke-linecap="round" stroke-width="0.0889" fill="currentColor" stroke="currentColor" points="1.1253 -0.3306 1.1253 0.3306 0.0444 0.3306 0.0444 -0.3306"/>
<polygon transform="translate(56.6557, 35.4204)" stroke-linejoin="round" stroke-linecap="round" stroke-width="0.0889" fill="currentColor" stroke="currentColor" points="1.1253 -0.3306 1.1253 0.3306 0.0444 0.3306 0.0444 -0.3306"/>
<polygon transform="translate(52.5317, 35.4204)" stroke-linejoin="round" stroke-linecap="round" stroke-width="0.0889" fill="currentColor" stroke="currentColor" points="1.1253 -0.3306 1.1253 0.3306 0.0444 0.3306 0.0444 -0.3306"/>
<path transform="translate(58.4768, 34.3308)" stroke-width="0.0858" stroke-linejoin="round" stroke-linecap="round" stroke="currentColor" fill="currentColor" d="M0.8903 3.7500C2.2222 4.7167 11.9195 4.7167 13.2514 3.7500L13.2514 3.7500C11.9195 4.5879 2.2222 4.5879 0.8903 3.7500z"/>
<path transform="translate(41.0600, 37.3308) scale(0.0040, -0.0040)" d="M215 137c57 0 111 -29 111 -92c0 -71 -54 -120 -101 -148c-35 -21 -74 -34 -114 -34c-57 0 -111 29 -111 92c0 71 54 120 101 148c35 21 74 34 114 34z" fill="currentColor"/>
<path transform="translate(37.8600, 37.3308) scale(0.0040, -0.0040)" d="M215 137c57 0 111 -29 111 -92c0 -71 -54 -120 -101 -148c-35 -21 -74 -34 -114 -34c-57 0 -111 29 -111 92c0 71 54 120 101 148c35 21 74 34 114 34z" fill="currentColor"/>
<rect transform="translate(39.0931, 34.3308)" x="-0.0697" y="-1.3213" width="0.1395" height="4.1420" ry="0.0444" fill="currentColor"/>
<path transform="translate(21.8600, 37.3308) scale(0.0040, -0.0040)" d="M312 64c0 24 -20 41 -41 41c-4 0 -8 -1 -12 -2c-30 -9 -77 -38 -113 -62s-83 -54 -103 -78c-7 -8 -10 -17 -10 -27c0 -24 20 -41 41 -41c4 0 8 1 12 2c30 9 77 38 113 62s83 54 103 78c7 8 10 17 10 27zM259 137c48 0 86 -22 86 -74c0 -18 -4 -38 -10 -56
c-12 -38 -30 -73 -63 -95c-53 -36 -113 -49 -186 -49c-48 0 -86 22 -86 74c0 18 4 38 10 56c12 38 31 73 64 95c53 36 112 49 185 49z" fill="currentColor"/>
<rect transform="translate(23.1708, 34.3308)" x="-0.0697" y="-0.5000" width="0.1395" height="3.2470" ry="0.0444" fill="currentColor"/>
<rect transform="translate(44.2473, 34.3308)" x="-0.0697" y="-1.3213" width="0.1395" height="4.1420" ry="0.0444" fill="currentColor"/>
<path transform="translate(43.0142, 37.3308) scale(0.0040, -0.0040)" d="M215 137c57 0 111 -29 111 -92c0 -71 -54 -120 -101 -148c-35 -21 -74 -34 -114 -34c-57 0 -111 29 -111 92c0 71 54 120 101 148c35 21 74 34 114 34z" fill="currentColor"/>
<path transform="translate(34.6600, 37.3308) scale(0.0040, -0.0040)" d="M215 137c57 0 111 -29 111 -92c0 -71 -54 -120 -101 -148c-35 -21 -74 -34 -114 -34c-57 0 -111 29 -111 92c0 71 54 120 101 148c35 21 74 34 114 34z" fill="currentColor"/>
<rect transform="translate(42.2931, 34.3308)" x="-0.0697" y="-1.3213" width="0.1395" height="4.1420" ry="0.0444" fill="currentColor"/>
<path transform="translate(16.8600, 35.3308) scale(0.0040, -0.0040)" d="M378 263c4 0 7 1 11 1c156 0 257 -129 257 -262c0 -76 -34 -154 -108 -210c-22 -17 -46 -29 -72 -37c3 -34 4 -68 4 -102c0 -20 0 -40 -1 -60c-7 -121 -90 -228 -209 -228c-108 0 -196 87 -196 196c0 58 53 104 112 104c54 0 95 -48 95 -104c0 -52 -43 -95 -95 -95
c-10 0 -20 2 -29 6c26 -38 68 -63 116 -63c95 0 156 91 162 190c1 19 2 37 2 56c0 30 -2 60 -4 90c-29 -5 -58 -8 -88 -8c-188 0 -333 173 -333 375c0 177 130 307 246 442c-20 62 -38 125 -46 190c-6 52 -7 104 -7 157c0 115 55 223 148 290c3 2 7 3 11 3s8 -1 11 -4
c71 -83 134 -244 134 -357c0 -143 -85 -255 -178 -364c21 -68 40 -137 57 -206zM462 -202c67 24 111 94 111 162c0 89 -65 178 -170 190c24 -115 46 -230 59 -352zM75 26c0 -134 129 -245 263 -245c28 0 55 2 81 6c-14 126 -36 244 -61 363c-79 -8 -124 -61 -124 -119
c0 -43 25 -89 80 -121c5 -5 7 -11 7 -16c0 -12 -10 -23 -22 -23c-3 0 -6 1 -9 2c-81 43 -118 116 -118 186c0 89 58 175 161 198c-14 58 -29 116 -46 173c-106 -122 -212 -244 -212 -404zM406 1042c-99 -47 -162 -148 -162 -257c0 -73 20 -132 38 -191
c79 97 144 199 144 324c0 53 -4 76 -20 124z" fill="currentColor"/>
<text transform="translate(46.7333, 31.4221)" font-family="serif" font-style="italic" font-size="1.7462" text-anchor="start" fill="currentColor">
<tspan>15:8</tspan>
</text>
<line transform="translate(23.1011, 30.7771)" stroke-linejoin="round" stroke-linecap="round" stroke-width="0.1717" stroke="currentColor" x1="51.3719" y1="-0.0000" x2="51.3719" y2="0.7000"/>
<line transform="translate(23.1011, 30.7771)" stroke-linejoin="round" stroke-linecap="round" stroke-width="0.1717" stroke="currentColor" x1="-0.2000" y1="-0.0000" x2="-0.2000" y2="0.7000"/>
<line transform="translate(23.1011, 30.7771)" stroke-linejoin="round" stroke-linecap="round" stroke-width="0.1717" stroke="currentColor" x1="51.3719" y1="-0.0000" x2="28.1397" y2="-0.0000"/>
<line transform="translate(23.1011, 30.7771)" stroke-linejoin="round" stroke-linecap="round" stroke-width="0.1717" stroke="currentColor" x1="-0.2000" y1="-0.0000" x2="23.2322" y2="-0.0000"/>
<rect transform="translate(54.5557, 34.3308)" x="-0.0697" y="-1.3213" width="0.1395" height="4.1420" ry="0.0444" fill="currentColor"/>
<path transform="translate(53.3226, 37.3308) scale(0.0040, -0.0040)" d="M215 137c57 0 111 -29 111 -92c0 -71 -54 -120 -101 -148c-35 -21 -74 -34 -114 -34c-57 0 -111 29 -111 92c0 71 54 120 101 148c35 21 74 34 114 34z" fill="currentColor"/>
<rect transform="translate(52.6015, 34.3308)" x="-0.0697" y="-1.3213" width="0.1395" height="4.1420" ry="0.0444" fill="currentColor"/>
<path transform="translate(51.3684, 37.3308) scale(0.0040, -0.0040)" d="M215 137c57 0 111 -29 111 -92c0 -71 -54 -120 -101 -148c-35 -21 -74 -34 -114 -34c-57 0 -111 29 -111 92c0 71 54 120 101 148c35 21 74 34 114 34z" fill="currentColor"/>
<path transform="translate(46.2142, 37.3308) scale(0.0040, -0.0040)" d="M215 137c57 0 111 -29 111 -92c0 -71 -54 -120 -101 -148c-35 -21 -74 -34 -114 -34c-57 0 -111 29 -111 92c0 71 54 120 101 148c35 21 74 34 114 34z" fill="currentColor"/>
<rect transform="translate(49.4015, 34.3308)" x="-0.0697" y="-1.3213" width="0.1395" height="4.1420" ry="0.0444" fill="currentColor"/>
<path transform="translate(48.1684, 37.3308) scale(0.0040, -0.0040)" d="M215 137c57 0 111 -29 111 -92c0 -71 -54 -120 -101 -148c-35 -21 -74 -34 -114 -34c-57 0 -111 29 -111 92c0 71 54 120 101 148c35 21 74 34 114 34z" fill="currentColor"/>
<rect transform="translate(47.4473, 34.3308)" x="-0.0697" y="-1.3213" width="0.1395" height="4.1420" ry="0.0444" fill="currentColor"/>
</svg>
