<?xml version="1.0" encoding="UTF-8" standalone="no"?>
<!DOCTYPE svg PUBLIC "-//W3C//DTD SVG 1.1//EN"
 "http://www.w3.org/Graphics/SVG/1.1/DTD/svg11.dtd">
<!-- Generated by graphviz version 2.40.1 (20161225.0304)
 -->
<!-- Title: InheritanceGraph Pages: 1 -->
<svg width="244pt" height="102pt"
 viewBox="0.00 0.00 244.49 102.00" xmlns="http://www.w3.org/2000/svg" xmlns:xlink="http://www.w3.org/1999/xlink">
<g id="graph0" class="graph" transform="scale(1 1) rotate(0) translate(4 98)">
<title>InheritanceGraph</title>
<g id="clust1" class="cluster">
<title>cluster_builtins</title>
<path fill="transparent" stroke="#bcd2ee" stroke-width="2" stroke-dasharray="5,2" d="M20,-19C20,-19 54.6846,-19 54.6846,-19 60.6846,-19 66.6846,-25 66.6846,-31 66.6846,-31 66.6846,-62 66.6846,-62 66.6846,-68 60.6846,-74 54.6846,-74 54.6846,-74 20,-74 20,-74 14,-74 8,-68 8,-62 8,-62 8,-31 8,-31 8,-25 14,-19 20,-19"/>
<text text-anchor="middle" x="37.3423" y="-62" font-family="Arial" font-size="10.00" fill="#000000">builtins</text>
</g>
<g id="clust2" class="cluster">
<title>cluster_evans.consort</title>
<path fill="transparent" stroke="#bcd2ee" stroke-width="2" stroke-dasharray="5,2" d="M98.6846,-8C98.6846,-8 216.4873,-8 216.4873,-8 222.4873,-8 228.4873,-14 228.4873,-20 228.4873,-20 228.4873,-74 228.4873,-74 228.4873,-80 222.4873,-86 216.4873,-86 216.4873,-86 98.6846,-86 98.6846,-86 92.6846,-86 86.6846,-80 86.6846,-74 86.6846,-74 86.6846,-20 86.6846,-20 86.6846,-14 92.6846,-8 98.6846,-8"/>
<text text-anchor="middle" x="157.5859" y="-74" font-family="Arial" font-size="10.00" fill="#000000">evans.consort</text>
</g>
<!-- builtins.object&#45;&gt;evans.consort.AbjadObject.AbjadObject -->
<g id="edge2" class="edge">
<title>builtins.object&#45;&gt;evans.consort.AbjadObject.AbjadObject</title>
<path fill="none" stroke="#778899" d="M58.7253,-37C66.602,-37 75.7156,-37 84.367,-37"/>
<polygon fill="#778899" stroke="#778899" points="84.5765,-40.5001 94.5764,-37 84.5764,-33.5001 84.5765,-40.5001"/>
</g>
<!-- evans.consort.AbjadObject.AbjadObject&#45;&gt;evans.consort.AbjadValueObject.AbjadValueObject -->
<g id="edge1" class="edge">
<title>evans.consort.AbjadObject.AbjadObject&#45;&gt;evans.consort.AbjadValueObject.AbjadValueObject</title>
<path fill="none" stroke="#778899" d="M139.6708,-37C147.6482,-37 156.7906,-37 165.4355,-37"/>
<polygon fill="#778899" stroke="#778899" points="165.622,-40.5001 175.6219,-37 165.6219,-33.5001 165.622,-40.5001"/>
</g>
<!-- builtins.object -->
<g id="node1" class="node">
<title>builtins.object</title>
<g id="a_node1"><a xlink:href="https://docs.python.org/3.7/library/functions.html#object" xlink:title="object" target="_top">
<path fill="#fbb4ae" stroke="#fbb4ae" stroke-width="2" d="M51.8576,-47.0056C51.8576,-47.0056 22.8269,-47.0056 22.8269,-47.0056 19.4918,-47.0056 16.1566,-43.6704 16.1566,-40.3352 16.1566,-40.3352 16.1566,-33.6648 16.1566,-33.6648 16.1566,-30.3296 19.4918,-26.9944 22.8269,-26.9944 22.8269,-26.9944 51.8576,-26.9944 51.8576,-26.9944 55.1928,-26.9944 58.528,-30.3296 58.528,-33.6648 58.528,-33.6648 58.528,-40.3352 58.528,-40.3352 58.528,-43.6704 55.1928,-47.0056 51.8576,-47.0056"/>
<text text-anchor="middle" x="37.3423" y="-34.7495" font-family="Arial" font-size="10.00" fill="#000000">object</text>
</a>
</g>
</g>
<!-- evans.consort.AbjadObject.AbjadObject -->
<g id="node2" class="node">
<title>evans.consort.AbjadObject.AbjadObject</title>
<g id="a_node2"><a xlink:href="../api/evans/consort/AbjadObject.html#evans.consort.AbjadObject.AbjadObject" xlink:title="Abjad\nObject" target="_top">
<path fill="#b3cde3" stroke="#b3cde3" stroke-width="2" d="M129.2047,-52.498C129.2047,-52.498 105.0658,-52.498 105.0658,-52.498 99.8998,-52.498 94.7338,-47.332 94.7338,-42.166 94.7338,-42.166 94.7338,-31.834 94.7338,-31.834 94.7338,-26.668 99.8998,-21.502 105.0658,-21.502 105.0658,-21.502 129.2047,-21.502 129.2047,-21.502 134.3707,-21.502 139.5367,-26.668 139.5367,-31.834 139.5367,-31.834 139.5367,-42.166 139.5367,-42.166 139.5367,-47.332 134.3707,-52.498 129.2047,-52.498"/>
<text text-anchor="middle" x="117.1353" y="-40.499" font-family="Arial" font-size="10.00" fill="#000000">Abjad</text>
<text text-anchor="middle" x="117.1353" y="-29" font-family="Arial" font-size="10.00" fill="#000000">Object</text>
</a>
</g>
</g>
<!-- evans.consort.AbjadValueObject.AbjadValueObject -->
<g id="node3" class="node">
<title>evans.consort.AbjadValueObject.AbjadValueObject</title>
<g id="a_node3"><a xlink:href="../api/evans/consort/AbjadValueObject.html#evans.consort.AbjadValueObject.AbjadValueObject" xlink:title="Abjad\nValue\nObject" target="_top">
<path fill="#000000" stroke="#000000" stroke-width="2" d="M208.4381,-58.5C208.4381,-58.5 187.6351,-58.5 187.6351,-58.5 181.6351,-58.5 175.6351,-52.5 175.6351,-46.5 175.6351,-46.5 175.6351,-27.5 175.6351,-27.5 175.6351,-21.5 181.6351,-15.5 187.6351,-15.5 187.6351,-15.5 208.4381,-15.5 208.4381,-15.5 214.4381,-15.5 220.4381,-21.5 220.4381,-27.5 220.4381,-27.5 220.4381,-46.5 220.4381,-46.5 220.4381,-52.5 214.4381,-58.5 208.4381,-58.5"/>
<text text-anchor="middle" x="198.0366" y="-46.2485" font-family="Arial" font-size="10.00" fill="#ffffff">Abjad</text>
<text text-anchor="middle" x="198.0366" y="-34.7495" font-family="Arial" font-size="10.00" fill="#ffffff">Value</text>
<text text-anchor="middle" x="198.0366" y="-23.2505" font-family="Arial" font-size="10.00" fill="#ffffff">Object</text>
</a>
</g>
</g>
</g>
</svg>
