<?xml version="1.0" encoding="UTF-8" standalone="no"?>
<!DOCTYPE svg PUBLIC "-//W3C//DTD SVG 1.1//EN"
 "http://www.w3.org/Graphics/SVG/1.1/DTD/svg11.dtd">
<!-- Generated by graphviz version 2.40.1 (20161225.0304)
 -->
<!-- Title: InheritanceGraph Pages: 1 -->
<svg width="184pt" height="79pt"
 viewBox="0.00 0.00 183.95 79.00" xmlns="http://www.w3.org/2000/svg" xmlns:xlink="http://www.w3.org/1999/xlink">
<g id="graph0" class="graph" transform="scale(1 1) rotate(0) translate(4 75)">
<title>InheritanceGraph</title>
<g id="clust1" class="cluster">
<title>cluster_builtins</title>
<path fill="transparent" stroke="#bcd2ee" stroke-width="2" stroke-dasharray="5,2" d="M20,-8C20,-8 54.6846,-8 54.6846,-8 60.6846,-8 66.6846,-14 66.6846,-20 66.6846,-20 66.6846,-51 66.6846,-51 66.6846,-57 60.6846,-63 54.6846,-63 54.6846,-63 20,-63 20,-63 14,-63 8,-57 8,-51 8,-51 8,-20 8,-20 8,-14 14,-8 20,-8"/>
<text text-anchor="middle" x="37.3423" y="-51" font-family="Arial" font-size="10.00" fill="#000000">builtins</text>
</g>
<g id="clust2" class="cluster">
<title>cluster_evans.rtm</title>
<path fill="transparent" stroke="#bcd2ee" stroke-width="2" stroke-dasharray="5,2" d="M98.6846,-8C98.6846,-8 155.9473,-8 155.9473,-8 161.9473,-8 167.9473,-14 167.9473,-20 167.9473,-20 167.9473,-51 167.9473,-51 167.9473,-57 161.9473,-63 155.9473,-63 155.9473,-63 98.6846,-63 98.6846,-63 92.6846,-63 86.6846,-57 86.6846,-51 86.6846,-51 86.6846,-20 86.6846,-20 86.6846,-14 92.6846,-8 98.6846,-8"/>
<text text-anchor="middle" x="127.3159" y="-51" font-family="Arial" font-size="10.00" fill="#000000">evans.rtm</text>
</g>
<!-- builtins.object&#45;&gt;evans.rtm.RTMMaker -->
<g id="edge1" class="edge">
<title>builtins.object&#45;&gt;evans.rtm.RTMMaker</title>
<path fill="none" stroke="#778899" d="M58.6648,-26C66.4426,-26 75.5397,-26 84.5201,-26"/>
<polygon fill="#778899" stroke="#778899" points="84.5331,-29.5001 94.5331,-26 84.533,-22.5001 84.5331,-29.5001"/>
</g>
<!-- builtins.object -->
<g id="node1" class="node">
<title>builtins.object</title>
<g id="a_node1"><a xlink:href="https://docs.python.org/3.7/library/functions.html#object" xlink:title="object" target="_top">
<path fill="#fbb4ae" stroke="#fbb4ae" stroke-width="2" d="M51.8576,-36.0056C51.8576,-36.0056 22.8269,-36.0056 22.8269,-36.0056 19.4918,-36.0056 16.1566,-32.6704 16.1566,-29.3352 16.1566,-29.3352 16.1566,-22.6648 16.1566,-22.6648 16.1566,-19.3296 19.4918,-15.9944 22.8269,-15.9944 22.8269,-15.9944 51.8576,-15.9944 51.8576,-15.9944 55.1928,-15.9944 58.528,-19.3296 58.528,-22.6648 58.528,-22.6648 58.528,-29.3352 58.528,-29.3352 58.528,-32.6704 55.1928,-36.0056 51.8576,-36.0056"/>
<text text-anchor="middle" x="37.3423" y="-23.7495" font-family="Arial" font-size="10.00" fill="#000000">object</text>
</a>
</g>
</g>
<!-- evans.rtm.RTMMaker -->
<g id="node2" class="node">
<title>evans.rtm.RTMMaker</title>
<g id="a_node2"><a xlink:href="../api/evans/rtm.html#evans.rtm.RTMMaker" xlink:title="RTMMaker" target="_top">
<path fill="#000000" stroke="#000000" stroke-width="2" d="M153.4088,-36.0056C153.4088,-36.0056 101.2231,-36.0056 101.2231,-36.0056 97.8879,-36.0056 94.5527,-32.6704 94.5527,-29.3352 94.5527,-29.3352 94.5527,-22.6648 94.5527,-22.6648 94.5527,-19.3296 97.8879,-15.9944 101.2231,-15.9944 101.2231,-15.9944 153.4088,-15.9944 153.4088,-15.9944 156.744,-15.9944 160.0791,-19.3296 160.0791,-22.6648 160.0791,-22.6648 160.0791,-29.3352 160.0791,-29.3352 160.0791,-32.6704 156.744,-36.0056 153.4088,-36.0056"/>
<text text-anchor="middle" x="127.3159" y="-23.7495" font-family="Arial" font-size="10.00" fill="#ffffff">RTMMaker</text>
</a>
</g>
</g>
</g>
</svg>
