<?xml version="1.0" encoding="UTF-8" standalone="no"?>
<!DOCTYPE svg PUBLIC "-//W3C//DTD SVG 1.1//EN"
 "http://www.w3.org/Graphics/SVG/1.1/DTD/svg11.dtd">
<!-- Generated by graphviz version 2.40.1 (20161225.0304)
 -->
<!-- Title: InheritanceGraph Pages: 1 -->
<svg width="760pt" height="268pt"
 viewBox="0.00 0.00 759.95 268.00" xmlns="http://www.w3.org/2000/svg" xmlns:xlink="http://www.w3.org/1999/xlink">
<g id="graph0" class="graph" transform="scale(1 1) rotate(0) translate(4 264)">
<title>InheritanceGraph</title>
<g id="clust1" class="cluster">
<title>cluster_abjad.ratio</title>
<path fill="transparent" stroke="#bcd2ee" stroke-width="2" stroke-dasharray="5,2" d="M465.3903,-160C465.3903,-160 619.0646,-160 619.0646,-160 625.0646,-160 631.0646,-166 631.0646,-172 631.0646,-172 631.0646,-214 631.0646,-214 631.0646,-220 625.0646,-226 619.0646,-226 619.0646,-226 465.3903,-226 465.3903,-226 459.3903,-226 453.3903,-220 453.3903,-214 453.3903,-214 453.3903,-172 453.3903,-172 453.3903,-166 459.3903,-160 465.3903,-160"/>
<text text-anchor="middle" x="542.2274" y="-214" font-family="Arial" font-size="10.00" fill="#000000">abjad.ratio</text>
</g>
<g id="clust2" class="cluster">
<title>cluster_abjad.sequence</title>
<path fill="transparent" stroke="#bcd2ee" stroke-width="2" stroke-dasharray="5,2" d="M466.1119,-97C466.1119,-97 528.151,-97 528.151,-97 534.151,-97 540.151,-103 540.151,-109 540.151,-109 540.151,-140 540.151,-140 540.151,-146 534.151,-152 528.151,-152 528.151,-152 466.1119,-152 466.1119,-152 460.1119,-152 454.1119,-146 454.1119,-140 454.1119,-140 454.1119,-109 454.1119,-109 454.1119,-103 460.1119,-97 466.1119,-97"/>
<text text-anchor="middle" x="497.1315" y="-140" font-family="Arial" font-size="10.00" fill="#000000">abjad.sequence</text>
</g>
<g id="clust3" class="cluster">
<title>cluster_baca.classes</title>
<path fill="transparent" stroke="#bcd2ee" stroke-width="2" stroke-dasharray="5,2" d="M576.8727,-97C576.8727,-97 629.9117,-97 629.9117,-97 635.9117,-97 641.9117,-103 641.9117,-109 641.9117,-109 641.9117,-140 641.9117,-140 641.9117,-146 635.9117,-152 629.9117,-152 629.9117,-152 576.8727,-152 576.8727,-152 570.8727,-152 564.8727,-146 564.8727,-140 564.8727,-140 564.8727,-109 564.8727,-109 564.8727,-103 570.8727,-97 576.8727,-97"/>
<text text-anchor="middle" x="603.3922" y="-140" font-family="Arial" font-size="10.00" fill="#000000">baca.classes</text>
</g>
<g id="clust4" class="cluster">
<title>cluster_builtins</title>
<path fill="transparent" stroke="#bcd2ee" stroke-width="2" stroke-dasharray="5,2" d="M20,-101C20,-101 54.6846,-101 54.6846,-101 60.6846,-101 66.6846,-107 66.6846,-113 66.6846,-113 66.6846,-144 66.6846,-144 66.6846,-150 60.6846,-156 54.6846,-156 54.6846,-156 20,-156 20,-156 14,-156 8,-150 8,-144 8,-144 8,-113 8,-113 8,-107 14,-101 20,-101"/>
<text text-anchor="middle" x="37.3423" y="-144" font-family="Arial" font-size="10.00" fill="#000000">builtins</text>
</g>
<g id="clust5" class="cluster">
<title>cluster_collections.abc</title>
<path fill="transparent" stroke="#bcd2ee" stroke-width="2" stroke-dasharray="5,2" d="M98.6846,-97C98.6846,-97 422.3903,-97 422.3903,-97 428.3903,-97 434.3903,-103 434.3903,-109 434.3903,-109 434.3903,-240 434.3903,-240 434.3903,-246 428.3903,-252 422.3903,-252 422.3903,-252 98.6846,-252 98.6846,-252 92.6846,-252 86.6846,-246 86.6846,-240 86.6846,-240 86.6846,-109 86.6846,-109 86.6846,-103 92.6846,-97 98.6846,-97"/>
<text text-anchor="middle" x="260.5374" y="-240" font-family="Arial" font-size="10.00" fill="#000000">collections.abc</text>
</g>
<g id="clust6" class="cluster">
<title>cluster_evans.sequence</title>
<path fill="transparent" stroke="#bcd2ee" stroke-width="2" stroke-dasharray="5,2" d="M673.9117,-8C673.9117,-8 737.9508,-8 737.9508,-8 743.9508,-8 749.9508,-14 749.9508,-20 749.9508,-20 749.9508,-185 749.9508,-185 749.9508,-191 743.9508,-197 737.9508,-197 737.9508,-197 673.9117,-197 673.9117,-197 667.9117,-197 661.9117,-191 661.9117,-185 661.9117,-185 661.9117,-20 661.9117,-20 661.9117,-14 667.9117,-8 673.9117,-8"/>
<text text-anchor="middle" x="705.9313" y="-185" font-family="Arial" font-size="10.00" fill="#000000">evans.sequence</text>
</g>
<!-- abjad.ratio.NonreducedRatio&#45;&gt;abjad.ratio.Ratio -->
<g id="edge1" class="edge">
<title>abjad.ratio.NonreducedRatio&#45;&gt;abjad.ratio.Ratio</title>
<path fill="none" stroke="#778899" d="M531.8848,-182.0094C545.2658,-181.6334 560.3712,-181.2089 573.2394,-180.8473"/>
<polygon fill="#778899" stroke="#778899" points="573.5379,-184.3404 583.4356,-180.5608 573.3412,-177.3432 573.5379,-184.3404"/>
</g>
<!-- abjad.ratio.Ratio&#45;&gt;evans.sequence.Ratio -->
<g id="edge8" class="edge">
<title>abjad.ratio.Ratio&#45;&gt;evans.sequence.Ratio</title>
<path fill="none" stroke="#778899" d="M623.0664,-176.1438C637.9337,-173.2298 658.5989,-169.1793 675.5102,-165.8646"/>
<polygon fill="#778899" stroke="#778899" points="676.3293,-169.2708 685.4693,-163.9126 674.9828,-162.4015 676.3293,-169.2708"/>
</g>
<!-- abjad.sequence.Sequence&#45;&gt;baca.classes.Sequence -->
<g id="edge9" class="edge">
<title>abjad.sequence.Sequence&#45;&gt;baca.classes.Sequence</title>
<path fill="none" stroke="#778899" d="M527.2248,-115C538.2811,-115 550.943,-115 562.7271,-115"/>
<polygon fill="#778899" stroke="#778899" points="562.7944,-118.5001 572.7944,-115 562.7944,-111.5001 562.7944,-118.5001"/>
</g>
<!-- baca.classes.Sequence&#45;&gt;evans.sequence.Sequence -->
<g id="edge10" class="edge">
<title>baca.classes.Sequence&#45;&gt;evans.sequence.Sequence</title>
<path fill="none" stroke="#778899" d="M634.0073,-117.4003C643.6934,-118.1597 654.5542,-119.0112 664.8267,-119.8165"/>
<polygon fill="#778899" stroke="#778899" points="664.5948,-123.309 674.8378,-120.6014 665.142,-116.3304 664.5948,-123.309"/>
</g>
<!-- builtins.object&#45;&gt;collections.abc.Container -->
<g id="edge11" class="edge">
<title>builtins.object&#45;&gt;collections.abc.Container</title>
<path fill="none" stroke="#778899" d="M58.4617,-128.8718C67.1934,-132.9461 77.4225,-137.7099 86.6846,-142 91.8301,-144.3834 97.2771,-146.8984 102.6088,-149.3558"/>
<polygon fill="#778899" stroke="#778899" points="101.4442,-152.6728 111.9915,-153.6761 104.372,-146.3144 101.4442,-152.6728"/>
</g>
<!-- builtins.object&#45;&gt;collections.abc.Iterable -->
<g id="edge12" class="edge">
<title>builtins.object&#45;&gt;collections.abc.Iterable</title>
<path fill="none" stroke="#778899" d="M42.4039,-129.168C50.1583,-143.8606 66.2513,-171.1126 86.6846,-188 91.0097,-191.5746 95.9816,-194.7198 101.0756,-197.4445"/>
<polygon fill="#778899" stroke="#778899" points="99.738,-200.6855 110.2634,-201.8966 102.7905,-194.3861 99.738,-200.6855"/>
</g>
<!-- builtins.object&#45;&gt;collections.abc.Sized -->
<g id="edge13" class="edge">
<title>builtins.object&#45;&gt;collections.abc.Sized</title>
<path fill="none" stroke="#778899" d="M58.8923,-119C70.1463,-119 84.2722,-119 97.3863,-119"/>
<polygon fill="#778899" stroke="#778899" points="97.6126,-122.5001 107.6126,-119 97.6125,-115.5001 97.6126,-122.5001"/>
</g>
<!-- builtins.object&#45;&gt;evans.sequence.CyclicList -->
<g id="edge14" class="edge">
<title>builtins.object&#45;&gt;evans.sequence.CyclicList</title>
<path fill="none" stroke="#778899" d="M52.2333,-109.1703C61.6964,-103.4376 74.4321,-96.6387 86.6846,-93 160.5643,-71.0595 182.2809,-77 259.3497,-77 259.3497,-77 259.3497,-77 496.6315,-77 559.5302,-77 633.076,-78.3779 673.9478,-79.2661"/>
<polygon fill="#778899" stroke="#778899" points="674.0161,-82.7683 684.0913,-79.4911 674.1714,-75.7701 674.0161,-82.7683"/>
</g>
<!-- builtins.object&#45;&gt;evans.sequence.MarkovChain -->
<g id="edge15" class="edge">
<title>builtins.object&#45;&gt;evans.sequence.MarkovChain</title>
<path fill="none" stroke="#778899" d="M44.9021,-109.0414C53.7107,-98.1793 69.2952,-81.1266 86.6846,-72 156.0957,-35.5703 180.9594,-36 259.3497,-36 259.3497,-36 259.3497,-36 496.6315,-36 558.0078,-36 629.5033,-33.8141 670.9043,-32.3329"/>
<polygon fill="#778899" stroke="#778899" points="671.1397,-35.8268 681.0053,-31.9641 670.8842,-28.8314 671.1397,-35.8268"/>
</g>
<!-- collections.abc.Collection&#45;&gt;collections.abc.Sequence -->
<g id="edge2" class="edge">
<title>collections.abc.Collection&#45;&gt;collections.abc.Sequence</title>
<path fill="none" stroke="#778899" d="M300.9444,-168.0219C310.5433,-168.7193 320.8756,-169.4699 330.8671,-170.1958"/>
<polygon fill="#778899" stroke="#778899" points="330.8836,-173.7062 341.1109,-170.9401 331.3909,-166.7246 330.8836,-173.7062"/>
</g>
<!-- collections.abc.Container&#45;&gt;collections.abc.Collection -->
<g id="edge3" class="edge">
<title>collections.abc.Container&#45;&gt;collections.abc.Collection</title>
<path fill="none" stroke="#778899" d="M178.8815,-165C187.7454,-165 197.2012,-165 206.4002,-165"/>
<polygon fill="#778899" stroke="#778899" points="206.6319,-168.5001 216.6318,-165 206.6318,-161.5001 206.6319,-168.5001"/>
</g>
<!-- collections.abc.Iterable&#45;&gt;collections.abc.Collection -->
<g id="edge4" class="edge">
<title>collections.abc.Iterable&#45;&gt;collections.abc.Collection</title>
<path fill="none" stroke="#778899" d="M162.0798,-201.4688C179.3728,-194.9852 202.5463,-186.2969 221.9365,-179.0271"/>
<polygon fill="#778899" stroke="#778899" points="223.2591,-182.2692 231.3939,-175.4813 220.8017,-175.7147 223.2591,-182.2692"/>
</g>
<!-- collections.abc.Iterable&#45;&gt;collections.abc.Reversible -->
<g id="edge5" class="edge">
<title>collections.abc.Iterable&#45;&gt;collections.abc.Reversible</title>
<path fill="none" stroke="#778899" d="M171.8165,-211C182.0088,-211 193.3885,-211 204.4823,-211"/>
<polygon fill="#778899" stroke="#778899" points="204.548,-214.5001 214.5479,-211 204.5479,-207.5001 204.548,-214.5001"/>
</g>
<!-- collections.abc.Reversible&#45;&gt;collections.abc.Sequence -->
<g id="edge6" class="edge">
<title>collections.abc.Reversible&#45;&gt;collections.abc.Sequence</title>
<path fill="none" stroke="#778899" d="M291.5742,-201.3753C306.891,-196.8005 325.385,-191.2767 341.7373,-186.3927"/>
<polygon fill="#778899" stroke="#778899" points="343.0146,-189.664 351.5946,-183.4485 341.0112,-182.9568 343.0146,-189.664"/>
</g>
<!-- collections.abc.Sequence&#45;&gt;abjad.ratio.NonreducedRatio -->
<g id="edge16" class="edge">
<title>collections.abc.Sequence&#45;&gt;abjad.ratio.NonreducedRatio</title>
<path fill="none" stroke="#778899" d="M425.1338,-177.3257C433.5667,-177.995 442.4691,-178.7015 451.0212,-179.3802"/>
<polygon fill="#778899" stroke="#778899" points="450.9784,-182.8877 461.224,-180.1899 451.5323,-175.9097 450.9784,-182.8877"/>
</g>
<!-- collections.abc.Sequence&#45;&gt;abjad.sequence.Sequence -->
<g id="edge17" class="edge">
<title>collections.abc.Sequence&#45;&gt;abjad.sequence.Sequence</title>
<path fill="none" stroke="#778899" d="M405.9052,-162.2023C424.0134,-152.7811 449.4687,-139.5374 468.809,-129.4752"/>
<polygon fill="#778899" stroke="#778899" points="470.4974,-132.5422 477.7532,-124.8218 467.2666,-126.3324 470.4974,-132.5422"/>
</g>
<!-- collections.abc.Sized&#45;&gt;collections.abc.Collection -->
<g id="edge7" class="edge">
<title>collections.abc.Sized&#45;&gt;collections.abc.Collection</title>
<path fill="none" stroke="#778899" d="M159.4478,-127.5444C176.9569,-134.109 201.5128,-143.3156 221.8972,-150.9582"/>
<polygon fill="#778899" stroke="#778899" points="220.9276,-154.3325 231.5198,-154.5659 223.385,-147.778 220.9276,-154.3325"/>
</g>
<!-- abjad.ratio.NonreducedRatio -->
<g id="node1" class="node">
<title>abjad.ratio.NonreducedRatio</title>
<path fill="#fbb4ae" stroke="#fbb4ae" stroke-width="2" d="M521.7835,-198.498C521.7835,-198.498 471.4794,-198.498 471.4794,-198.498 466.3134,-198.498 461.1474,-193.332 461.1474,-188.166 461.1474,-188.166 461.1474,-177.834 461.1474,-177.834 461.1474,-172.668 466.3134,-167.502 471.4794,-167.502 471.4794,-167.502 521.7835,-167.502 521.7835,-167.502 526.9495,-167.502 532.1155,-172.668 532.1155,-177.834 532.1155,-177.834 532.1155,-188.166 532.1155,-188.166 532.1155,-193.332 526.9495,-198.498 521.7835,-198.498"/>
<text text-anchor="middle" x="496.6315" y="-186.499" font-family="Arial" font-size="10.00" fill="#000000">Nonreduced</text>
<text text-anchor="middle" x="496.6315" y="-175" font-family="Arial" font-size="10.00" fill="#000000">Ratio</text>
</g>
<!-- abjad.ratio.Ratio -->
<g id="node2" class="node">
<title>abjad.ratio.Ratio</title>
<path fill="#fbb4ae" stroke="#fbb4ae" stroke-width="2" d="M616.5681,-190.0056C616.5681,-190.0056 590.2163,-190.0056 590.2163,-190.0056 586.8811,-190.0056 583.546,-186.6704 583.546,-183.3352 583.546,-183.3352 583.546,-176.6648 583.546,-176.6648 583.546,-173.3296 586.8811,-169.9944 590.2163,-169.9944 590.2163,-169.9944 616.5681,-169.9944 616.5681,-169.9944 619.9033,-169.9944 623.2385,-173.3296 623.2385,-176.6648 623.2385,-176.6648 623.2385,-183.3352 623.2385,-183.3352 623.2385,-186.6704 619.9033,-190.0056 616.5681,-190.0056"/>
<text text-anchor="middle" x="603.3922" y="-177.7495" font-family="Arial" font-size="10.00" fill="#000000">Ratio</text>
</g>
<!-- abjad.sequence.Sequence -->
<g id="node3" class="node">
<title>abjad.sequence.Sequence</title>
<path fill="#b3cde3" stroke="#b3cde3" stroke-width="2" d="M520.5002,-125.0056C520.5002,-125.0056 472.7628,-125.0056 472.7628,-125.0056 469.4276,-125.0056 466.0924,-121.6704 466.0924,-118.3352 466.0924,-118.3352 466.0924,-111.6648 466.0924,-111.6648 466.0924,-108.3296 469.4276,-104.9944 472.7628,-104.9944 472.7628,-104.9944 520.5002,-104.9944 520.5002,-104.9944 523.8353,-104.9944 527.1705,-108.3296 527.1705,-111.6648 527.1705,-111.6648 527.1705,-118.3352 527.1705,-118.3352 527.1705,-121.6704 523.8353,-125.0056 520.5002,-125.0056"/>
<text text-anchor="middle" x="496.6315" y="-112.7495" font-family="Arial" font-size="10.00" fill="#000000">Sequence</text>
</g>
<!-- baca.classes.Sequence -->
<g id="node4" class="node">
<title>baca.classes.Sequence</title>
<path fill="#ccebc5" stroke="#ccebc5" stroke-width="2" d="M627.2609,-125.0056C627.2609,-125.0056 579.5235,-125.0056 579.5235,-125.0056 576.1883,-125.0056 572.8531,-121.6704 572.8531,-118.3352 572.8531,-118.3352 572.8531,-111.6648 572.8531,-111.6648 572.8531,-108.3296 576.1883,-104.9944 579.5235,-104.9944 579.5235,-104.9944 627.2609,-104.9944 627.2609,-104.9944 630.5961,-104.9944 633.9313,-108.3296 633.9313,-111.6648 633.9313,-111.6648 633.9313,-118.3352 633.9313,-118.3352 633.9313,-121.6704 630.5961,-125.0056 627.2609,-125.0056"/>
<text text-anchor="middle" x="603.3922" y="-112.7495" font-family="Arial" font-size="10.00" fill="#000000">Sequence</text>
</g>
<!-- builtins.object -->
<g id="node5" class="node">
<title>builtins.object</title>
<g id="a_node5"><a xlink:href="https://docs.python.org/3.7/library/functions.html#object" xlink:title="object" target="_top">
<path fill="#decbe4" stroke="#decbe4" stroke-width="2" d="M51.8576,-129.0056C51.8576,-129.0056 22.8269,-129.0056 22.8269,-129.0056 19.4918,-129.0056 16.1566,-125.6704 16.1566,-122.3352 16.1566,-122.3352 16.1566,-115.6648 16.1566,-115.6648 16.1566,-112.3296 19.4918,-108.9944 22.8269,-108.9944 22.8269,-108.9944 51.8576,-108.9944 51.8576,-108.9944 55.1928,-108.9944 58.528,-112.3296 58.528,-115.6648 58.528,-115.6648 58.528,-122.3352 58.528,-122.3352 58.528,-125.6704 55.1928,-129.0056 51.8576,-129.0056"/>
<text text-anchor="middle" x="37.3423" y="-116.7495" font-family="Arial" font-size="10.00" fill="#000000">object</text>
</a>
</g>
</g>
<!-- collections.abc.Collection -->
<g id="node6" class="node">
<title>collections.abc.Collection</title>
<g id="a_node6"><a xlink:href="https://docs.python.org/3.7/library/collections.abc.html#collections.abc.Collection" xlink:title="Collection" target="_top">
<ellipse fill="none" stroke="#fed9a6" stroke-width="2" cx="259.3497" cy="-165" rx="42.2276" ry="13.579"/>
<text text-anchor="middle" x="259.3497" y="-162.7495" font-family="Arial" font-size="10.00" fill="#000000">Collection</text>
</a>
</g>
</g>
<!-- collections.abc.Container -->
<g id="node7" class="node">
<title>collections.abc.Container</title>
<g id="a_node7"><a xlink:href="https://docs.python.org/3.7/library/collections.abc.html#collections.abc.Container" xlink:title="Container" target="_top">
<ellipse fill="none" stroke="#fed9a6" stroke-width="2" cx="136.658" cy="-165" rx="41.9469" ry="13.579"/>
<text text-anchor="middle" x="136.658" y="-162.7495" font-family="Arial" font-size="10.00" fill="#000000">Container</text>
</a>
</g>
</g>
<!-- collections.abc.Iterable -->
<g id="node8" class="node">
<title>collections.abc.Iterable</title>
<g id="a_node8"><a xlink:href="https://docs.python.org/3.7/library/collections.abc.html#collections.abc.Iterable" xlink:title="Iterable" target="_top">
<ellipse fill="none" stroke="#fed9a6" stroke-width="2" cx="136.658" cy="-211" rx="34.7981" ry="13.579"/>
<text text-anchor="middle" x="136.658" y="-208.7495" font-family="Arial" font-size="10.00" fill="#000000">Iterable</text>
</a>
</g>
</g>
<!-- collections.abc.Reversible -->
<g id="node9" class="node">
<title>collections.abc.Reversible</title>
<g id="a_node9"><a xlink:href="https://docs.python.org/3.7/library/collections.abc.html#collections.abc.Reversible" xlink:title="Reversible" target="_top">
<ellipse fill="none" stroke="#fed9a6" stroke-width="2" cx="259.3497" cy="-211" rx="44.9376" ry="13.579"/>
<text text-anchor="middle" x="259.3497" y="-208.7495" font-family="Arial" font-size="10.00" fill="#000000">Reversible</text>
</a>
</g>
</g>
<!-- collections.abc.Sequence -->
<g id="node10" class="node">
<title>collections.abc.Sequence</title>
<g id="a_node10"><a xlink:href="https://docs.python.org/3.7/library/collections.abc.html#collections.abc.Sequence" xlink:title="Sequence" target="_top">
<ellipse fill="none" stroke="#fed9a6" stroke-width="2" cx="383.2291" cy="-174" rx="43.3229" ry="13.579"/>
<text text-anchor="middle" x="383.2291" y="-171.7495" font-family="Arial" font-size="10.00" fill="#000000">Sequence</text>
</a>
</g>
</g>
<!-- collections.abc.Sized -->
<g id="node11" class="node">
<title>collections.abc.Sized</title>
<g id="a_node11"><a xlink:href="https://docs.python.org/3.7/library/collections.abc.html#collections.abc.Sized" xlink:title="Sized" target="_top">
<ellipse fill="none" stroke="#fed9a6" stroke-width="2" cx="136.658" cy="-119" rx="29.0035" ry="13.579"/>
<text text-anchor="middle" x="136.658" y="-116.7495" font-family="Arial" font-size="10.00" fill="#000000">Sized</text>
</a>
</g>
</g>
<!-- evans.sequence.CyclicList -->
<g id="node12" class="node">
<title>evans.sequence.CyclicList</title>
<g id="a_node12"><a xlink:href="../api/evans/sequence.html#evans.sequence.CyclicList" xlink:title="Cyclic\nList" target="_top">
<path fill="#000000" stroke="#000000" stroke-width="2" d="M716.2656,-95.498C716.2656,-95.498 694.597,-95.498 694.597,-95.498 689.4309,-95.498 684.2649,-90.332 684.2649,-85.166 684.2649,-85.166 684.2649,-74.834 684.2649,-74.834 684.2649,-69.668 689.4309,-64.502 694.597,-64.502 694.597,-64.502 716.2656,-64.502 716.2656,-64.502 721.4316,-64.502 726.5976,-69.668 726.5976,-74.834 726.5976,-74.834 726.5976,-85.166 726.5976,-85.166 726.5976,-90.332 721.4316,-95.498 716.2656,-95.498"/>
<text text-anchor="middle" x="705.4313" y="-83.499" font-family="Arial" font-size="10.00" fill="#ffffff">Cyclic</text>
<text text-anchor="middle" x="705.4313" y="-72" font-family="Arial" font-size="10.00" fill="#ffffff">List</text>
</a>
</g>
</g>
<!-- evans.sequence.MarkovChain -->
<g id="node13" class="node">
<title>evans.sequence.MarkovChain</title>
<g id="a_node13"><a xlink:href="../api/evans/sequence.html#evans.sequence.MarkovChain" xlink:title="Markov\nChain" target="_top">
<path fill="#000000" stroke="#000000" stroke-width="2" d="M719.3829,-46.498C719.3829,-46.498 691.4796,-46.498 691.4796,-46.498 686.3136,-46.498 681.1476,-41.332 681.1476,-36.166 681.1476,-36.166 681.1476,-25.834 681.1476,-25.834 681.1476,-20.668 686.3136,-15.502 691.4796,-15.502 691.4796,-15.502 719.3829,-15.502 719.3829,-15.502 724.5489,-15.502 729.715,-20.668 729.715,-25.834 729.715,-25.834 729.715,-36.166 729.715,-36.166 729.715,-41.332 724.5489,-46.498 719.3829,-46.498"/>
<text text-anchor="middle" x="705.4313" y="-34.499" font-family="Arial" font-size="10.00" fill="#ffffff">Markov</text>
<text text-anchor="middle" x="705.4313" y="-23" font-family="Arial" font-size="10.00" fill="#ffffff">Chain</text>
</a>
</g>
</g>
<!-- evans.sequence.Ratio -->
<g id="node14" class="node">
<title>evans.sequence.Ratio</title>
<g id="a_node14"><a xlink:href="../api/evans/sequence.html#evans.sequence.Ratio" xlink:title="Ratio" target="_top">
<path fill="#000000" stroke="#000000" stroke-width="2" d="M718.6071,-170.0056C718.6071,-170.0056 692.2554,-170.0056 692.2554,-170.0056 688.9202,-170.0056 685.585,-166.6704 685.585,-163.3352 685.585,-163.3352 685.585,-156.6648 685.585,-156.6648 685.585,-153.3296 688.9202,-149.9944 692.2554,-149.9944 692.2554,-149.9944 718.6071,-149.9944 718.6071,-149.9944 721.9423,-149.9944 725.2775,-153.3296 725.2775,-156.6648 725.2775,-156.6648 725.2775,-163.3352 725.2775,-163.3352 725.2775,-166.6704 721.9423,-170.0056 718.6071,-170.0056"/>
<text text-anchor="middle" x="705.4313" y="-157.7495" font-family="Arial" font-size="10.00" fill="#ffffff">Ratio</text>
</a>
</g>
</g>
<!-- evans.sequence.Sequence -->
<g id="node15" class="node">
<title>evans.sequence.Sequence</title>
<g id="a_node15"><a xlink:href="../api/evans/sequence.html#evans.sequence.Sequence" xlink:title="Sequence" target="_top">
<path fill="#000000" stroke="#000000" stroke-width="2" d="M729.3,-133.0056C729.3,-133.0056 681.5626,-133.0056 681.5626,-133.0056 678.2274,-133.0056 674.8922,-129.6704 674.8922,-126.3352 674.8922,-126.3352 674.8922,-119.6648 674.8922,-119.6648 674.8922,-116.3296 678.2274,-112.9944 681.5626,-112.9944 681.5626,-112.9944 729.3,-112.9944 729.3,-112.9944 732.6352,-112.9944 735.9703,-116.3296 735.9703,-119.6648 735.9703,-119.6648 735.9703,-126.3352 735.9703,-126.3352 735.9703,-129.6704 732.6352,-133.0056 729.3,-133.0056"/>
<text text-anchor="middle" x="705.4313" y="-120.7495" font-family="Arial" font-size="10.00" fill="#ffffff">Sequence</text>
</a>
</g>
</g>
</g>
</svg>
