<?xml version="1.0" encoding="UTF-8" standalone="no"?>
<!DOCTYPE svg PUBLIC "-//W3C//DTD SVG 1.1//EN"
 "http://www.w3.org/Graphics/SVG/1.1/DTD/svg11.dtd">
<!-- Generated by graphviz version 2.40.1 (20161225.0304)
 -->
<!-- Title: InheritanceGraph Pages: 1 -->
<svg width="307pt" height="479pt"
 viewBox="0.00 0.00 306.71 479.00" xmlns="http://www.w3.org/2000/svg" xmlns:xlink="http://www.w3.org/1999/xlink">
<g id="graph0" class="graph" transform="scale(1 1) rotate(0) translate(4 475)">
<title>InheritanceGraph</title>
<g id="clust1" class="cluster">
<title>cluster_abjadext.microtones.utilities</title>
<path fill="transparent" stroke="#bcd2ee" stroke-width="2" stroke-dasharray="5,2" d="M172.6846,-8C172.6846,-8 286.709,-8 286.709,-8 292.709,-8 298.709,-14 298.709,-20 298.709,-20 298.709,-451 298.709,-451 298.709,-457 292.709,-463 286.709,-463 286.709,-463 172.6846,-463 172.6846,-463 166.6846,-463 160.6846,-457 160.6846,-451 160.6846,-451 160.6846,-20 160.6846,-20 160.6846,-14 166.6846,-8 172.6846,-8"/>
<text text-anchor="middle" x="229.6968" y="-451" font-family="Arial" font-size="10.00" fill="#000000">abjadext.microtones.utilities</text>
</g>
<g id="clust2" class="cluster">
<title>cluster_builtins</title>
<path fill="transparent" stroke="#bcd2ee" stroke-width="2" stroke-dasharray="5,2" d="M20,-202C20,-202 54.6846,-202 54.6846,-202 60.6846,-202 66.6846,-208 66.6846,-214 66.6846,-214 66.6846,-245 66.6846,-245 66.6846,-251 60.6846,-257 54.6846,-257 54.6846,-257 20,-257 20,-257 14,-257 8,-251 8,-245 8,-245 8,-214 8,-214 8,-208 14,-202 20,-202"/>
<text text-anchor="middle" x="37.3423" y="-245" font-family="Arial" font-size="10.00" fill="#000000">builtins</text>
</g>
<!-- builtins.object&#45;&gt;abjadext.microtones.utilities.PitchClassSegment -->
<g id="edge1" class="edge">
<title>builtins.object&#45;&gt;abjadext.microtones.utilities.PitchClassSegment</title>
<path fill="none" stroke="#778899" d="M42.3772,-229.8901C57.0111,-257.7557 102.2308,-337.8786 160.6846,-384 169.8719,-391.249 181.0796,-397.0982 191.7687,-401.6396"/>
<polygon fill="#778899" stroke="#778899" points="190.7807,-405.0129 201.3667,-405.4452 193.3609,-398.5057 190.7807,-405.0129"/>
</g>
<!-- builtins.object&#45;&gt;abjadext.microtones.utilities.PitchClassSet -->
<g id="edge2" class="edge">
<title>builtins.object&#45;&gt;abjadext.microtones.utilities.PitchClassSet</title>
<path fill="none" stroke="#778899" d="M47.1582,-229.8433C67.1397,-249.489 114.5631,-294.15 160.6846,-323 172.81,-330.5848 187.1064,-337.3258 199.533,-342.5686"/>
<polygon fill="#778899" stroke="#778899" points="198.4396,-345.9026 209.0209,-346.4395 201.084,-339.4212 198.4396,-345.9026"/>
</g>
<!-- builtins.object&#45;&gt;abjadext.microtones.utilities.PitchSegment -->
<g id="edge3" class="edge">
<title>builtins.object&#45;&gt;abjadext.microtones.utilities.PitchSegment</title>
<path fill="none" stroke="#778899" d="M58.5554,-229.7902C82.9899,-240.9494 124.4332,-259.5162 160.6846,-274 170.8181,-278.0487 181.8941,-282.1861 192.1483,-285.8999"/>
<polygon fill="#778899" stroke="#778899" points="191.0757,-289.2334 201.6702,-289.3139 193.4383,-282.6442 191.0757,-289.2334"/>
</g>
<!-- builtins.object&#45;&gt;abjadext.microtones.utilities.PitchSet -->
<g id="edge4" class="edge">
<title>builtins.object&#45;&gt;abjadext.microtones.utilities.PitchSet</title>
<path fill="none" stroke="#778899" d="M58.6625,-223.3251C93.1748,-228.7078 161.3423,-239.3393 200.3909,-245.4294"/>
<polygon fill="#778899" stroke="#778899" points="200.1604,-248.9357 210.5803,-247.0186 201.2391,-242.0193 200.1604,-248.9357"/>
</g>
<!-- builtins.object&#45;&gt;abjadext.microtones.utilities.RatioClassSegment -->
<g id="edge5" class="edge">
<title>builtins.object&#45;&gt;abjadext.microtones.utilities.RatioClassSegment</title>
<path fill="none" stroke="#778899" d="M58.6625,-217.229C90.6285,-213.0745 151.4668,-205.1674 191.2977,-199.9907"/>
<polygon fill="#778899" stroke="#778899" points="191.9715,-203.4326 201.4369,-198.6729 191.0692,-196.491 191.9715,-203.4326"/>
</g>
<!-- builtins.object&#45;&gt;abjadext.microtones.utilities.RatioClassSet -->
<g id="edge6" class="edge">
<title>builtins.object&#45;&gt;abjadext.microtones.utilities.RatioClassSet</title>
<path fill="none" stroke="#778899" d="M58.7064,-210.4005C83.2793,-199.3761 124.8494,-180.7781 160.6846,-165 173.5156,-159.3505 187.7162,-153.1658 199.8834,-147.8874"/>
<polygon fill="#778899" stroke="#778899" points="201.3565,-151.0636 209.1404,-143.876 198.5732,-144.6407 201.3565,-151.0636"/>
</g>
<!-- builtins.object&#45;&gt;abjadext.microtones.utilities.RatioSegment -->
<g id="edge7" class="edge">
<title>builtins.object&#45;&gt;abjadext.microtones.utilities.RatioSegment</title>
<path fill="none" stroke="#778899" d="M45.5718,-209.9568C64.0211,-188.0287 110.9841,-135.402 160.6846,-105 170.2406,-99.1546 181.3712,-94.3758 191.8683,-90.6203"/>
<polygon fill="#778899" stroke="#778899" points="193.2997,-93.8319 201.6664,-87.3319 191.0724,-87.1957 193.2997,-93.8319"/>
</g>
<!-- builtins.object&#45;&gt;abjadext.microtones.utilities.RatioSet -->
<g id="edge8" class="edge">
<title>builtins.object&#45;&gt;abjadext.microtones.utilities.RatioSet</title>
<path fill="none" stroke="#778899" d="M42.2344,-209.9229C56.4923,-181.5653 100.818,-100.2721 160.6846,-56 172.2456,-47.4504 187.0226,-41.5807 199.9344,-37.6895"/>
<polygon fill="#778899" stroke="#778899" points="201.078,-41.005 209.7926,-34.9795 199.2225,-34.2554 201.078,-41.005"/>
</g>
<!-- abjadext.microtones.utilities.PitchClassSegment -->
<g id="node1" class="node">
<title>abjadext.microtones.utilities.PitchClassSegment</title>
<g id="a_node1"><a xlink:href="../api/abjadext/microtones/utilities.html#abjadext.microtones.utilities.PitchClassSegment" xlink:title="Pitch\nClass\nSegment" target="_top">
<path fill="#000000" stroke="#000000" stroke-width="2" d="M245.7212,-435.5C245.7212,-435.5 213.6724,-435.5 213.6724,-435.5 207.6724,-435.5 201.6724,-429.5 201.6724,-423.5 201.6724,-423.5 201.6724,-404.5 201.6724,-404.5 201.6724,-398.5 207.6724,-392.5 213.6724,-392.5 213.6724,-392.5 245.7212,-392.5 245.7212,-392.5 251.7212,-392.5 257.7212,-398.5 257.7212,-404.5 257.7212,-404.5 257.7212,-423.5 257.7212,-423.5 257.7212,-429.5 251.7212,-435.5 245.7212,-435.5"/>
<text text-anchor="middle" x="229.6968" y="-423.2485" font-family="Arial" font-size="10.00" fill="#ffffff">Pitch</text>
<text text-anchor="middle" x="229.6968" y="-411.7495" font-family="Arial" font-size="10.00" fill="#ffffff">Class</text>
<text text-anchor="middle" x="229.6968" y="-400.2505" font-family="Arial" font-size="10.00" fill="#ffffff">Segment</text>
</a>
</g>
</g>
<!-- abjadext.microtones.utilities.PitchClassSet -->
<g id="node2" class="node">
<title>abjadext.microtones.utilities.PitchClassSet</title>
<g id="a_node2"><a xlink:href="../api/abjadext/microtones/utilities.html#abjadext.microtones.utilities.PitchClassSet" xlink:title="Pitch\nClass\nSet" target="_top">
<path fill="#000000" stroke="#000000" stroke-width="2" d="M238.2017,-375.5C238.2017,-375.5 221.1919,-375.5 221.1919,-375.5 215.1919,-375.5 209.1919,-369.5 209.1919,-363.5 209.1919,-363.5 209.1919,-344.5 209.1919,-344.5 209.1919,-338.5 215.1919,-332.5 221.1919,-332.5 221.1919,-332.5 238.2017,-332.5 238.2017,-332.5 244.2017,-332.5 250.2017,-338.5 250.2017,-344.5 250.2017,-344.5 250.2017,-363.5 250.2017,-363.5 250.2017,-369.5 244.2017,-375.5 238.2017,-375.5"/>
<text text-anchor="middle" x="229.6968" y="-363.2485" font-family="Arial" font-size="10.00" fill="#ffffff">Pitch</text>
<text text-anchor="middle" x="229.6968" y="-351.7495" font-family="Arial" font-size="10.00" fill="#ffffff">Class</text>
<text text-anchor="middle" x="229.6968" y="-340.2505" font-family="Arial" font-size="10.00" fill="#ffffff">Set</text>
</a>
</g>
</g>
<!-- abjadext.microtones.utilities.PitchSegment -->
<g id="node3" class="node">
<title>abjadext.microtones.utilities.PitchSegment</title>
<g id="a_node3"><a xlink:href="../api/abjadext/microtones/utilities.html#abjadext.microtones.utilities.PitchSegment" xlink:title="Pitch\nSegment" target="_top">
<path fill="#000000" stroke="#000000" stroke-width="2" d="M247.3892,-314.498C247.3892,-314.498 212.0044,-314.498 212.0044,-314.498 206.8384,-314.498 201.6724,-309.332 201.6724,-304.166 201.6724,-304.166 201.6724,-293.834 201.6724,-293.834 201.6724,-288.668 206.8384,-283.502 212.0044,-283.502 212.0044,-283.502 247.3892,-283.502 247.3892,-283.502 252.5552,-283.502 257.7212,-288.668 257.7212,-293.834 257.7212,-293.834 257.7212,-304.166 257.7212,-304.166 257.7212,-309.332 252.5552,-314.498 247.3892,-314.498"/>
<text text-anchor="middle" x="229.6968" y="-302.499" font-family="Arial" font-size="10.00" fill="#ffffff">Pitch</text>
<text text-anchor="middle" x="229.6968" y="-291" font-family="Arial" font-size="10.00" fill="#ffffff">Segment</text>
</a>
</g>
</g>
<!-- abjadext.microtones.utilities.PitchSet -->
<g id="node4" class="node">
<title>abjadext.microtones.utilities.PitchSet</title>
<g id="a_node4"><a xlink:href="../api/abjadext/microtones/utilities.html#abjadext.microtones.utilities.PitchSet" xlink:title="Pitch\nSet" target="_top">
<path fill="#000000" stroke="#000000" stroke-width="2" d="M238.5969,-265.498C238.5969,-265.498 220.7967,-265.498 220.7967,-265.498 215.6306,-265.498 210.4646,-260.332 210.4646,-255.166 210.4646,-255.166 210.4646,-244.834 210.4646,-244.834 210.4646,-239.668 215.6306,-234.502 220.7967,-234.502 220.7967,-234.502 238.5969,-234.502 238.5969,-234.502 243.7629,-234.502 248.9289,-239.668 248.9289,-244.834 248.9289,-244.834 248.9289,-255.166 248.9289,-255.166 248.9289,-260.332 243.7629,-265.498 238.5969,-265.498"/>
<text text-anchor="middle" x="229.6968" y="-253.499" font-family="Arial" font-size="10.00" fill="#ffffff">Pitch</text>
<text text-anchor="middle" x="229.6968" y="-242" font-family="Arial" font-size="10.00" fill="#ffffff">Set</text>
</a>
</g>
</g>
<!-- abjadext.microtones.utilities.RatioClassSegment -->
<g id="node5" class="node">
<title>abjadext.microtones.utilities.RatioClassSegment</title>
<g id="a_node5"><a xlink:href="../api/abjadext/microtones/utilities.html#abjadext.microtones.utilities.RatioClassSegment" xlink:title="Ratio\nClass\nSegment" target="_top">
<path fill="#000000" stroke="#000000" stroke-width="2" d="M245.7212,-216.5C245.7212,-216.5 213.6724,-216.5 213.6724,-216.5 207.6724,-216.5 201.6724,-210.5 201.6724,-204.5 201.6724,-204.5 201.6724,-185.5 201.6724,-185.5 201.6724,-179.5 207.6724,-173.5 213.6724,-173.5 213.6724,-173.5 245.7212,-173.5 245.7212,-173.5 251.7212,-173.5 257.7212,-179.5 257.7212,-185.5 257.7212,-185.5 257.7212,-204.5 257.7212,-204.5 257.7212,-210.5 251.7212,-216.5 245.7212,-216.5"/>
<text text-anchor="middle" x="229.6968" y="-204.2485" font-family="Arial" font-size="10.00" fill="#ffffff">Ratio</text>
<text text-anchor="middle" x="229.6968" y="-192.7495" font-family="Arial" font-size="10.00" fill="#ffffff">Class</text>
<text text-anchor="middle" x="229.6968" y="-181.2505" font-family="Arial" font-size="10.00" fill="#ffffff">Segment</text>
</a>
</g>
</g>
<!-- abjadext.microtones.utilities.RatioClassSet -->
<g id="node6" class="node">
<title>abjadext.microtones.utilities.RatioClassSet</title>
<g id="a_node6"><a xlink:href="../api/abjadext/microtones/utilities.html#abjadext.microtones.utilities.RatioClassSet" xlink:title="Ratio\nClass\nSet" target="_top">
<path fill="#000000" stroke="#000000" stroke-width="2" d="M238.2017,-156.5C238.2017,-156.5 221.1919,-156.5 221.1919,-156.5 215.1919,-156.5 209.1919,-150.5 209.1919,-144.5 209.1919,-144.5 209.1919,-125.5 209.1919,-125.5 209.1919,-119.5 215.1919,-113.5 221.1919,-113.5 221.1919,-113.5 238.2017,-113.5 238.2017,-113.5 244.2017,-113.5 250.2017,-119.5 250.2017,-125.5 250.2017,-125.5 250.2017,-144.5 250.2017,-144.5 250.2017,-150.5 244.2017,-156.5 238.2017,-156.5"/>
<text text-anchor="middle" x="229.6968" y="-144.2485" font-family="Arial" font-size="10.00" fill="#ffffff">Ratio</text>
<text text-anchor="middle" x="229.6968" y="-132.7495" font-family="Arial" font-size="10.00" fill="#ffffff">Class</text>
<text text-anchor="middle" x="229.6968" y="-121.2505" font-family="Arial" font-size="10.00" fill="#ffffff">Set</text>
</a>
</g>
</g>
<!-- abjadext.microtones.utilities.RatioSegment -->
<g id="node7" class="node">
<title>abjadext.microtones.utilities.RatioSegment</title>
<g id="a_node7"><a xlink:href="../api/abjadext/microtones/utilities.html#abjadext.microtones.utilities.RatioSegment" xlink:title="Ratio\nSegment" target="_top">
<path fill="#000000" stroke="#000000" stroke-width="2" d="M247.3892,-95.498C247.3892,-95.498 212.0044,-95.498 212.0044,-95.498 206.8384,-95.498 201.6724,-90.332 201.6724,-85.166 201.6724,-85.166 201.6724,-74.834 201.6724,-74.834 201.6724,-69.668 206.8384,-64.502 212.0044,-64.502 212.0044,-64.502 247.3892,-64.502 247.3892,-64.502 252.5552,-64.502 257.7212,-69.668 257.7212,-74.834 257.7212,-74.834 257.7212,-85.166 257.7212,-85.166 257.7212,-90.332 252.5552,-95.498 247.3892,-95.498"/>
<text text-anchor="middle" x="229.6968" y="-83.499" font-family="Arial" font-size="10.00" fill="#ffffff">Ratio</text>
<text text-anchor="middle" x="229.6968" y="-72" font-family="Arial" font-size="10.00" fill="#ffffff">Segment</text>
</a>
</g>
</g>
<!-- abjadext.microtones.utilities.RatioSet -->
<g id="node8" class="node">
<title>abjadext.microtones.utilities.RatioSet</title>
<g id="a_node8"><a xlink:href="../api/abjadext/microtones/utilities.html#abjadext.microtones.utilities.RatioSet" xlink:title="Ratio\nSet" target="_top">
<path fill="#000000" stroke="#000000" stroke-width="2" d="M239.211,-46.498C239.211,-46.498 220.1826,-46.498 220.1826,-46.498 215.0165,-46.498 209.8505,-41.332 209.8505,-36.166 209.8505,-36.166 209.8505,-25.834 209.8505,-25.834 209.8505,-20.668 215.0165,-15.502 220.1826,-15.502 220.1826,-15.502 239.211,-15.502 239.211,-15.502 244.377,-15.502 249.543,-20.668 249.543,-25.834 249.543,-25.834 249.543,-36.166 249.543,-36.166 249.543,-41.332 244.377,-46.498 239.211,-46.498"/>
<text text-anchor="middle" x="229.6968" y="-34.499" font-family="Arial" font-size="10.00" fill="#ffffff">Ratio</text>
<text text-anchor="middle" x="229.6968" y="-23" font-family="Arial" font-size="10.00" fill="#ffffff">Set</text>
</a>
</g>
</g>
<!-- builtins.object -->
<g id="node9" class="node">
<title>builtins.object</title>
<g id="a_node9"><a xlink:href="https://docs.python.org/3.7/library/functions.html#object" xlink:title="object" target="_top">
<path fill="#b3cde3" stroke="#b3cde3" stroke-width="2" d="M51.8576,-230.0056C51.8576,-230.0056 22.8269,-230.0056 22.8269,-230.0056 19.4918,-230.0056 16.1566,-226.6704 16.1566,-223.3352 16.1566,-223.3352 16.1566,-216.6648 16.1566,-216.6648 16.1566,-213.3296 19.4918,-209.9944 22.8269,-209.9944 22.8269,-209.9944 51.8576,-209.9944 51.8576,-209.9944 55.1928,-209.9944 58.528,-213.3296 58.528,-216.6648 58.528,-216.6648 58.528,-223.3352 58.528,-223.3352 58.528,-226.6704 55.1928,-230.0056 51.8576,-230.0056"/>
<text text-anchor="middle" x="37.3423" y="-217.7495" font-family="Arial" font-size="10.00" fill="#000000">object</text>
</a>
</g>
</g>
</g>
</svg>
