<?xml version="1.0" encoding="UTF-8" standalone="no"?>
<!DOCTYPE svg PUBLIC "-//W3C//DTD SVG 1.1//EN"
 "http://www.w3.org/Graphics/SVG/1.1/DTD/svg11.dtd">
<!-- Generated by graphviz version 2.40.1 (20161225.0304)
 -->
<!-- Title: InheritanceGraph Pages: 1 -->
<svg width="224pt" height="188pt"
 viewBox="0.00 0.00 224.38 188.00" xmlns="http://www.w3.org/2000/svg" xmlns:xlink="http://www.w3.org/1999/xlink">
<g id="graph0" class="graph" transform="scale(1 1) rotate(0) translate(4 184)">
<title>InheritanceGraph</title>
<g id="clust1" class="cluster">
<title>cluster_builtins</title>
<path fill="transparent" stroke="#bcd2ee" stroke-width="2" stroke-dasharray="5,2" d="M20,-56C20,-56 54.6846,-56 54.6846,-56 60.6846,-56 66.6846,-62 66.6846,-68 66.6846,-68 66.6846,-99 66.6846,-99 66.6846,-105 60.6846,-111 54.6846,-111 54.6846,-111 20,-111 20,-111 14,-111 8,-105 8,-99 8,-99 8,-68 8,-68 8,-62 14,-56 20,-56"/>
<text text-anchor="middle" x="37.3423" y="-99" font-family="Arial" font-size="10.00" fill="#000000">builtins</text>
</g>
<g id="clust2" class="cluster">
<title>cluster_evans.spanners</title>
<path fill="transparent" stroke="#bcd2ee" stroke-width="2" stroke-dasharray="5,2" d="M135.6846,-8C135.6846,-8 197.3838,-8 197.3838,-8 203.3838,-8 209.3838,-14 209.3838,-20 209.3838,-20 209.3838,-160 209.3838,-160 209.3838,-166 203.3838,-172 197.3838,-172 197.3838,-172 135.6846,-172 135.6846,-172 129.6846,-172 123.6846,-166 123.6846,-160 123.6846,-160 123.6846,-20 123.6846,-20 123.6846,-14 129.6846,-8 135.6846,-8"/>
<text text-anchor="middle" x="166.5342" y="-160" font-family="Arial" font-size="10.00" fill="#000000">evans.spanners</text>
</g>
<!-- builtins.object&#45;&gt;evans.spanners.BowAnglePoint -->
<g id="edge1" class="edge">
<title>builtins.object&#45;&gt;evans.spanners.BowAnglePoint</title>
<path fill="none" stroke="#778899" d="M58.6757,-82.0914C79.7462,-90.083 112.1824,-102.3854 135.984,-111.4129"/>
<polygon fill="#778899" stroke="#778899" points="135.0064,-114.7854 145.5977,-115.0592 137.4889,-108.2403 135.0064,-114.7854"/>
</g>
<!-- builtins.object&#45;&gt;evans.spanners.Damping -->
<g id="edge2" class="edge">
<title>builtins.object&#45;&gt;evans.spanners.Damping</title>
<path fill="none" stroke="#778899" d="M58.6757,-74C77.5692,-74 105.6013,-74 128.3523,-74"/>
<polygon fill="#778899" stroke="#778899" points="128.382,-77.5001 138.382,-74 128.3819,-70.5001 128.382,-77.5001"/>
</g>
<!-- builtins.object&#45;&gt;evans.spanners.DampingComponent -->
<g id="edge3" class="edge">
<title>builtins.object&#45;&gt;evans.spanners.DampingComponent</title>
<path fill="none" stroke="#778899" d="M58.6757,-66.8994C76.0776,-61.1074 101.2322,-52.735 122.8722,-45.5324"/>
<polygon fill="#778899" stroke="#778899" points="124.1443,-48.7978 132.5272,-42.3188 121.9336,-42.1561 124.1443,-48.7978"/>
</g>
<!-- builtins.object -->
<g id="node1" class="node">
<title>builtins.object</title>
<g id="a_node1"><a xlink:href="https://docs.python.org/3.7/library/functions.html#object" xlink:title="object" target="_top">
<path fill="#fbb4ae" stroke="#fbb4ae" stroke-width="2" d="M51.8576,-84.0056C51.8576,-84.0056 22.8269,-84.0056 22.8269,-84.0056 19.4918,-84.0056 16.1566,-80.6704 16.1566,-77.3352 16.1566,-77.3352 16.1566,-70.6648 16.1566,-70.6648 16.1566,-67.3296 19.4918,-63.9944 22.8269,-63.9944 22.8269,-63.9944 51.8576,-63.9944 51.8576,-63.9944 55.1928,-63.9944 58.528,-67.3296 58.528,-70.6648 58.528,-70.6648 58.528,-77.3352 58.528,-77.3352 58.528,-80.6704 55.1928,-84.0056 51.8576,-84.0056"/>
<text text-anchor="middle" x="37.3423" y="-71.7495" font-family="Arial" font-size="10.00" fill="#000000">object</text>
</a>
</g>
</g>
<!-- evans.spanners.BowAnglePoint -->
<g id="node2" class="node">
<title>evans.spanners.BowAnglePoint</title>
<g id="a_node2"><a xlink:href="../api/evans/spanners.html#evans.spanners.BowAnglePoint" xlink:title="Bow\nAngle\nPoint" target="_top">
<path fill="#000000" stroke="#000000" stroke-width="2" d="M175.1125,-144.5C175.1125,-144.5 157.9559,-144.5 157.9559,-144.5 151.9559,-144.5 145.9559,-138.5 145.9559,-132.5 145.9559,-132.5 145.9559,-113.5 145.9559,-113.5 145.9559,-107.5 151.9559,-101.5 157.9559,-101.5 157.9559,-101.5 175.1125,-101.5 175.1125,-101.5 181.1125,-101.5 187.1125,-107.5 187.1125,-113.5 187.1125,-113.5 187.1125,-132.5 187.1125,-132.5 187.1125,-138.5 181.1125,-144.5 175.1125,-144.5"/>
<text text-anchor="middle" x="166.5342" y="-132.2485" font-family="Arial" font-size="10.00" fill="#ffffff">Bow</text>
<text text-anchor="middle" x="166.5342" y="-120.7495" font-family="Arial" font-size="10.00" fill="#ffffff">Angle</text>
<text text-anchor="middle" x="166.5342" y="-109.2505" font-family="Arial" font-size="10.00" fill="#ffffff">Point</text>
</a>
</g>
</g>
<!-- evans.spanners.Damping -->
<g id="node3" class="node">
<title>evans.spanners.Damping</title>
<g id="a_node3"><a xlink:href="../api/evans/spanners.html#evans.spanners.Damping" xlink:title="Damping" target="_top">
<path fill="#000000" stroke="#000000" stroke-width="2" d="M187.8833,-84.0056C187.8833,-84.0056 145.185,-84.0056 145.185,-84.0056 141.8498,-84.0056 138.5146,-80.6704 138.5146,-77.3352 138.5146,-77.3352 138.5146,-70.6648 138.5146,-70.6648 138.5146,-67.3296 141.8498,-63.9944 145.185,-63.9944 145.185,-63.9944 187.8833,-63.9944 187.8833,-63.9944 191.2185,-63.9944 194.5537,-67.3296 194.5537,-70.6648 194.5537,-70.6648 194.5537,-77.3352 194.5537,-77.3352 194.5537,-80.6704 191.2185,-84.0056 187.8833,-84.0056"/>
<text text-anchor="middle" x="166.5342" y="-71.7495" font-family="Arial" font-size="10.00" fill="#ffffff">Damping</text>
</a>
</g>
</g>
<!-- evans.spanners.DampingComponent -->
<g id="node4" class="node">
<title>evans.spanners.DampingComponent</title>
<g id="a_node4"><a xlink:href="../api/evans/spanners.html#evans.spanners.DampingComponent" xlink:title="Damping\nComponent" target="_top">
<path fill="#000000" stroke="#000000" stroke-width="2" d="M189.902,-46.498C189.902,-46.498 143.1663,-46.498 143.1663,-46.498 138.0003,-46.498 132.8343,-41.332 132.8343,-36.166 132.8343,-36.166 132.8343,-25.834 132.8343,-25.834 132.8343,-20.668 138.0003,-15.502 143.1663,-15.502 143.1663,-15.502 189.902,-15.502 189.902,-15.502 195.068,-15.502 200.2341,-20.668 200.2341,-25.834 200.2341,-25.834 200.2341,-36.166 200.2341,-36.166 200.2341,-41.332 195.068,-46.498 189.902,-46.498"/>
<text text-anchor="middle" x="166.5342" y="-34.499" font-family="Arial" font-size="10.00" fill="#ffffff">Damping</text>
<text text-anchor="middle" x="166.5342" y="-23" font-family="Arial" font-size="10.00" fill="#ffffff">Component</text>
</a>
</g>
</g>
</g>
</svg>
