<?xml version="1.0" encoding="UTF-8" standalone="no"?>
<!DOCTYPE svg PUBLIC "-//W3C//DTD SVG 1.1//EN"
 "http://www.w3.org/Graphics/SVG/1.1/DTD/svg11.dtd">
<!-- Generated by graphviz version 2.40.1 (20161225.0304)
 -->
<!-- Title: InheritanceGraph Pages: 1 -->
<svg width="646pt" height="1198pt"
 viewBox="0.00 0.00 645.72 1198.00" xmlns="http://www.w3.org/2000/svg" xmlns:xlink="http://www.w3.org/1999/xlink">
<g id="graph0" class="graph" transform="scale(1 1) rotate(0) translate(4 1194)">
<title>InheritanceGraph</title>
<g id="clust1" class="cluster">
<title>cluster_evans.timespan</title>
<path fill="transparent" stroke="#bcd2ee" stroke-width="2" stroke-dasharray="5,2" d="M320.8813,-344C320.8813,-344 382.4165,-344 382.4165,-344 388.4165,-344 394.4165,-350 394.4165,-356 394.4165,-356 394.4165,-496 394.4165,-496 394.4165,-502 388.4165,-508 382.4165,-508 382.4165,-508 320.8813,-508 320.8813,-508 314.8813,-508 308.8813,-502 308.8813,-496 308.8813,-496 308.8813,-356 308.8813,-356 308.8813,-350 314.8813,-344 320.8813,-344"/>
<text text-anchor="middle" x="351.6489" y="-496" font-family="Arial" font-size="10.00" fill="#000000">evans.timespan</text>
</g>
<g id="clust2" class="cluster">
<title>cluster_abjad.timespan</title>
<path fill="transparent" stroke="#bcd2ee" stroke-width="2" stroke-dasharray="5,2" d="M98.5483,-344C98.5483,-344 158.0835,-344 158.0835,-344 164.0835,-344 170.0835,-350 170.0835,-356 170.0835,-356 170.0835,-387 170.0835,-387 170.0835,-393 164.0835,-399 158.0835,-399 158.0835,-399 98.5483,-399 98.5483,-399 92.5483,-399 86.5483,-393 86.5483,-387 86.5483,-387 86.5483,-356 86.5483,-356 86.5483,-350 92.5483,-344 98.5483,-344"/>
<text text-anchor="middle" x="128.3159" y="-387" font-family="Arial" font-size="10.00" fill="#000000">abjad.timespan</text>
</g>
<g id="clust3" class="cluster">
<title>cluster_builtins</title>
<path fill="transparent" stroke="#bcd2ee" stroke-width="2" stroke-dasharray="5,2" d="M20,-268C20,-268 54.6846,-268 54.6846,-268 60.6846,-268 66.6846,-274 66.6846,-280 66.6846,-280 66.6846,-311 66.6846,-311 66.6846,-317 60.6846,-323 54.6846,-323 54.6846,-323 20,-323 20,-323 14,-323 8,-317 8,-311 8,-311 8,-280 8,-280 8,-274 14,-268 20,-268"/>
<text text-anchor="middle" x="37.3423" y="-311" font-family="Arial" font-size="10.00" fill="#000000">builtins</text>
</g>
<g id="clust4" class="cluster">
<title>cluster_evans.commands</title>
<path fill="transparent" stroke="#bcd2ee" stroke-width="2" stroke-dasharray="5,2" d="M447.7817,-214C447.7817,-214 517.9097,-214 517.9097,-214 523.9097,-214 529.9097,-220 529.9097,-226 529.9097,-226 529.9097,-354 529.9097,-354 529.9097,-360 523.9097,-366 517.9097,-366 517.9097,-366 447.7817,-366 447.7817,-366 441.7817,-366 435.7817,-360 435.7817,-354 435.7817,-354 435.7817,-226 435.7817,-226 435.7817,-220 441.7817,-214 447.7817,-214"/>
<text text-anchor="middle" x="482.8457" y="-354" font-family="Arial" font-size="10.00" fill="#000000">evans.commands</text>
</g>
<g id="clust5" class="cluster">
<title>cluster_evans.consort</title>
<path fill="transparent" stroke="#bcd2ee" stroke-width="2" stroke-dasharray="5,2" d="M109.8652,-965C109.8652,-965 617.7197,-965 617.7197,-965 623.7197,-965 629.7197,-971 629.7197,-977 629.7197,-977 629.7197,-1170 629.7197,-1170 629.7197,-1176 623.7197,-1182 617.7197,-1182 617.7197,-1182 109.8652,-1182 109.8652,-1182 103.8652,-1182 97.8652,-1176 97.8652,-1170 97.8652,-1170 97.8652,-977 97.8652,-977 97.8652,-971 103.8652,-965 109.8652,-965"/>
<text text-anchor="middle" x="363.7925" y="-1170" font-family="Arial" font-size="10.00" fill="#000000">evans.consort</text>
</g>
<g id="clust6" class="cluster">
<title>cluster_evans.handlers</title>
<path fill="transparent" stroke="#bcd2ee" stroke-width="2" stroke-dasharray="5,2" d="M106.8062,-516C106.8062,-516 613.2739,-516 613.2739,-516 619.2739,-516 625.2739,-522 625.2739,-528 625.2739,-528 625.2739,-945 625.2739,-945 625.2739,-951 619.2739,-957 613.2739,-957 613.2739,-957 106.8062,-957 106.8062,-957 100.8062,-957 94.8062,-951 94.8062,-945 94.8062,-945 94.8062,-528 94.8062,-528 94.8062,-522 100.8062,-516 106.8062,-516"/>
<text text-anchor="middle" x="360.04" y="-945" font-family="Arial" font-size="10.00" fill="#000000">evans.handlers</text>
</g>
<g id="clust7" class="cluster">
<title>cluster_evans.rtm</title>
<path fill="transparent" stroke="#bcd2ee" stroke-width="2" stroke-dasharray="5,2" d="M99.6846,-175C99.6846,-175 156.9473,-175 156.9473,-175 162.9473,-175 168.9473,-181 168.9473,-187 168.9473,-187 168.9473,-218 168.9473,-218 168.9473,-224 162.9473,-230 156.9473,-230 156.9473,-230 99.6846,-230 99.6846,-230 93.6846,-230 87.6846,-224 87.6846,-218 87.6846,-218 87.6846,-187 87.6846,-187 87.6846,-181 93.6846,-175 99.6846,-175"/>
<text text-anchor="middle" x="128.3159" y="-218" font-family="Arial" font-size="10.00" fill="#000000">evans.rtm</text>
</g>
<g id="clust8" class="cluster">
<title>cluster_evans.segmentmaker</title>
<path fill="transparent" stroke="#bcd2ee" stroke-width="2" stroke-dasharray="5,2" d="M307.9644,-97C307.9644,-97 395.3335,-97 395.3335,-97 401.3335,-97 407.3335,-103 407.3335,-109 407.3335,-109 407.3335,-212 407.3335,-212 407.3335,-218 401.3335,-224 395.3335,-224 395.3335,-224 307.9644,-224 307.9644,-224 301.9644,-224 295.9644,-218 295.9644,-212 295.9644,-212 295.9644,-109 295.9644,-109 295.9644,-103 301.9644,-97 307.9644,-97"/>
<text text-anchor="middle" x="351.6489" y="-212" font-family="Arial" font-size="10.00" fill="#000000">evans.segmentmaker</text>
</g>
<g id="clust9" class="cluster">
<title>cluster_evans.sequence</title>
<path fill="transparent" stroke="#bcd2ee" stroke-width="2" stroke-dasharray="5,2" d="M450.4541,-8C450.4541,-8 515.2373,-8 515.2373,-8 521.2373,-8 527.2373,-14 527.2373,-20 527.2373,-20 527.2373,-111 527.2373,-111 527.2373,-117 521.2373,-123 515.2373,-123 515.2373,-123 450.4541,-123 450.4541,-123 444.4541,-123 438.4541,-117 438.4541,-111 438.4541,-111 438.4541,-20 438.4541,-20 438.4541,-14 444.4541,-8 450.4541,-8"/>
<text text-anchor="middle" x="482.8457" y="-111" font-family="Arial" font-size="10.00" fill="#000000">evans.sequence</text>
</g>
<!-- abjad.timespan.Timespan&#45;&gt;evans.timespan.SilentTimespan -->
<g id="edge22" class="edge">
<title>abjad.timespan.Timespan&#45;&gt;evans.timespan.SilentTimespan</title>
<path fill="none" stroke="#778899" d="M157.9728,-362.664C197.518,-363.5493 267.6451,-365.1193 311.7839,-366.1075"/>
<polygon fill="#778899" stroke="#778899" points="311.7935,-369.6085 321.8694,-366.3333 311.9502,-362.6102 311.7935,-369.6085"/>
</g>
<!-- builtins.object&#45;&gt;evans.timespan.TimespanMaker -->
<g id="edge34" class="edge">
<title>builtins.object&#45;&gt;evans.timespan.TimespanMaker</title>
<path fill="none" stroke="#778899" d="M39.2581,-295.8659C45.2578,-325.7055 64.5979,-414.0537 86.5483,-432 150.942,-484.6473 255.2145,-479.7266 311.8909,-472.0582"/>
<polygon fill="#778899" stroke="#778899" points="312.5049,-475.5058 321.8995,-470.6076 311.5008,-468.5782 312.5049,-475.5058"/>
</g>
<!-- builtins.object&#45;&gt;evans.timespan.TimespanSpecifier -->
<g id="edge35" class="edge">
<title>builtins.object&#45;&gt;evans.timespan.TimespanSpecifier</title>
<path fill="none" stroke="#778899" d="M38.1196,-296.0135C40.5289,-319.3829 50.0855,-377.4696 86.5483,-403 153.8874,-450.1492 256.1115,-437.8985 311.8996,-426.1385"/>
<polygon fill="#778899" stroke="#778899" points="312.7466,-429.5359 321.7573,-423.9628 311.2379,-422.7004 312.7466,-429.5359"/>
</g>
<!-- builtins.object&#45;&gt;abjad.timespan.Timespan -->
<g id="edge23" class="edge">
<title>builtins.object&#45;&gt;abjad.timespan.Timespan</title>
<path fill="none" stroke="#778899" d="M45.3019,-296.0278C54.4632,-307.158 70.3416,-325.232 86.5483,-338 90.6316,-341.2169 95.1943,-344.2865 99.7629,-347.0907"/>
<polygon fill="#778899" stroke="#778899" points="98.026,-350.1294 108.4312,-352.1251 101.5416,-344.0762 98.026,-350.1294"/>
</g>
<!-- builtins.object&#45;&gt;evans.commands.Command -->
<g id="edge24" class="edge">
<title>builtins.object&#45;&gt;evans.commands.Command</title>
<path fill="none" stroke="#778899" d="M58.6773,-293.0975C67.248,-295.6775 77.2777,-298.3597 86.5483,-300 214.7459,-322.6823 369.2966,-327.6823 441.6788,-328.7438"/>
<polygon fill="#778899" stroke="#778899" points="441.7047,-332.2443 451.749,-328.8734 441.7949,-325.2449 441.7047,-332.2443"/>
</g>
<!-- builtins.object&#45;&gt;evans.commands.HandlerCommand -->
<g id="edge25" class="edge">
<title>builtins.object&#45;&gt;evans.commands.HandlerCommand</title>
<path fill="none" stroke="#778899" d="M58.5301,-286C127.8792,-286 348.9228,-286 441.4711,-286"/>
<polygon fill="#778899" stroke="#778899" points="441.5828,-289.5001 451.5828,-286 441.5828,-282.5001 441.5828,-289.5001"/>
</g>
<!-- builtins.object&#45;&gt;evans.commands.RhythmCommand -->
<g id="edge26" class="edge">
<title>builtins.object&#45;&gt;evans.commands.RhythmCommand</title>
<path fill="none" stroke="#778899" d="M58.5301,-283.6696C127.8792,-276.042 348.9228,-251.7299 441.4711,-241.5507"/>
<polygon fill="#778899" stroke="#778899" points="442.0254,-245.0109 451.5828,-240.4385 441.2601,-238.0529 442.0254,-245.0109"/>
</g>
<!-- builtins.object&#45;&gt;evans.consort.AbjadObject.AbjadObject -->
<g id="edge27" class="edge">
<title>builtins.object&#45;&gt;evans.consort.AbjadObject.AbjadObject</title>
<path fill="none" stroke="#778899" d="M37.5987,-296.1791C39.5363,-370.2393 52.7337,-827.1444 86.5483,-961 92.7132,-985.4039 104.918,-1011.3936 114.5497,-1029.6765"/>
<polygon fill="#778899" stroke="#778899" points="111.4753,-1031.3493 119.3063,-1038.4855 117.6347,-1028.0233 111.4753,-1031.3493"/>
</g>
<!-- builtins.object&#45;&gt;evans.handlers.Handler -->
<g id="edge28" class="edge">
<title>builtins.object&#45;&gt;evans.handlers.Handler</title>
<path fill="none" stroke="#778899" d="M39.5014,-296.0865C51.2999,-351.2057 108.0317,-616.2387 124.0789,-691.2061"/>
<polygon fill="#778899" stroke="#778899" points="120.7014,-692.1488 126.217,-701.1947 127.5463,-690.6836 120.7014,-692.1488"/>
</g>
<!-- builtins.object&#45;&gt;evans.rtm.RTMMaker -->
<g id="edge29" class="edge">
<title>builtins.object&#45;&gt;evans.rtm.RTMMaker</title>
<path fill="none" stroke="#778899" d="M46.6673,-275.9271C56.4843,-265.3745 72.4419,-248.3674 86.5483,-234 94.2856,-226.1196 102.9817,-217.5403 110.4278,-210.276"/>
<polygon fill="#778899" stroke="#778899" points="113.1786,-212.4833 117.9124,-203.0049 108.3009,-207.4625 113.1786,-212.4833"/>
</g>
<!-- builtins.object&#45;&gt;evans.segmentmaker.NoteheadBracketMaker -->
<g id="edge30" class="edge">
<title>builtins.object&#45;&gt;evans.segmentmaker.NoteheadBracketMaker</title>
<path fill="none" stroke="#778899" d="M38.0994,-276.0329C40.4649,-252.7933 49.9338,-195.1589 86.5483,-171 154.9075,-125.8955 256.3029,-145.4205 311.7913,-161.5251"/>
<polygon fill="#778899" stroke="#778899" points="311.0153,-164.9466 321.5997,-164.4761 313.032,-158.2434 311.0153,-164.9466"/>
</g>
<!-- builtins.object&#45;&gt;evans.segmentmaker.SegmentMaker -->
<g id="edge31" class="edge">
<title>builtins.object&#45;&gt;evans.segmentmaker.SegmentMaker</title>
<path fill="none" stroke="#778899" d="M39.2192,-276.0852C45.1068,-246.1051 64.1586,-157.3952 86.5483,-140 152.4276,-88.8166 257.4343,-99.9395 313.4745,-110.901"/>
<polygon fill="#778899" stroke="#778899" points="312.8482,-114.3454 323.3481,-112.9308 314.2578,-107.4887 312.8482,-114.3454"/>
</g>
<!-- builtins.object&#45;&gt;evans.sequence.CyclicList -->
<g id="edge32" class="edge">
<title>builtins.object&#45;&gt;evans.sequence.CyclicList</title>
<path fill="none" stroke="#778899" d="M38.4711,-276.0098C42.6627,-240.851 58.5522,-123.727 86.5483,-101 142.0213,-55.9676 367.7398,-70.1203 451.4284,-77.1153"/>
<polygon fill="#778899" stroke="#778899" points="451.3254,-80.6193 461.5883,-77.9883 451.9247,-73.645 451.3254,-80.6193"/>
</g>
<!-- builtins.object&#45;&gt;evans.sequence.MarkovChain -->
<g id="edge33" class="edge">
<title>builtins.object&#45;&gt;evans.sequence.MarkovChain</title>
<path fill="none" stroke="#778899" d="M38.1144,-276.0944C41.3272,-237.6228 54.9708,-98.8749 86.5483,-71 189.7835,20.1303 372.2024,-6.3107 448.1512,-22.5543"/>
<polygon fill="#778899" stroke="#778899" points="447.6219,-26.0218 458.1419,-24.7654 449.1345,-19.1872 447.6219,-26.0218"/>
</g>
<!-- evans.consort.AbjadObject.AbjadObject&#45;&gt;evans.consort.AbjadValueObject.AbjadValueObject -->
<g id="edge1" class="edge">
<title>evans.consort.AbjadObject.AbjadObject&#45;&gt;evans.consort.AbjadValueObject.AbjadValueObject</title>
<path fill="none" stroke="#778899" d="M150.7804,-1040.8327C165.0477,-1032.4701 183.7169,-1021.5275 199.421,-1012.3227"/>
<polygon fill="#778899" stroke="#778899" points="201.4117,-1015.2129 208.2691,-1007.1365 197.8719,-1009.1738 201.4117,-1015.2129"/>
</g>
<!-- evans.consort.AbjadObject.AbjadObject&#45;&gt;evans.consort.LogicalTieCollection.LogicalTieCollection -->
<g id="edge2" class="edge">
<title>evans.consort.AbjadObject.AbjadObject&#45;&gt;evans.consort.LogicalTieCollection.LogicalTieCollection</title>
<path fill="none" stroke="#778899" d="M150.9593,-1049.9445C188.5896,-1043.2047 264.4943,-1029.6098 311.4101,-1021.207"/>
<polygon fill="#778899" stroke="#778899" points="312.302,-1024.603 321.5283,-1019.3947 311.0679,-1017.7126 312.302,-1024.603"/>
</g>
<!-- evans.consort.AbjadObject.AbjadObject&#45;&gt;evans.consort.RatioPartsExpression.RatioPartsExpression -->
<g id="edge3" class="edge">
<title>evans.consort.AbjadObject.AbjadObject&#45;&gt;evans.consort.RatioPartsExpression.RatioPartsExpression</title>
<path fill="none" stroke="#778899" d="M150.7828,-1053.9241C198.245,-1053.6034 312.179,-1051.9873 407.3335,-1044 417.919,-1043.1114 429.2963,-1041.7959 439.9263,-1040.4089"/>
<polygon fill="#778899" stroke="#778899" points="440.3977,-1043.8771 449.8386,-1039.0687 439.4598,-1036.9402 440.3977,-1043.8771"/>
</g>
<!-- evans.consort.AbjadObject.AbjadObject&#45;&gt;evans.consort.TimespanCollection.TimespanCollection -->
<g id="edge4" class="edge">
<title>evans.consort.AbjadObject.AbjadObject&#45;&gt;evans.consort.TimespanCollection.TimespanCollection</title>
<path fill="none" stroke="#778899" d="M150.9827,-1054.9782C224.5519,-1058.153 457.3429,-1068.1991 551.5785,-1072.2658"/>
<polygon fill="#778899" stroke="#778899" points="551.435,-1075.7628 561.5766,-1072.6973 551.7369,-1068.7693 551.435,-1075.7628"/>
</g>
<!-- evans.consort.AbjadObject.AbjadObject&#45;&gt;evans.consort.TimespanCollectionNode.TimespanCollectionNode -->
<g id="edge5" class="edge">
<title>evans.consort.AbjadObject.AbjadObject&#45;&gt;evans.consort.TimespanCollectionNode.TimespanCollectionNode</title>
<path fill="none" stroke="#778899" d="M150.7804,-1067.1673C162.7534,-1074.185 177.8263,-1083.0198 191.6454,-1091.1197"/>
<polygon fill="#778899" stroke="#778899" points="190.1032,-1094.2726 200.5003,-1096.3099 193.6429,-1088.2336 190.1032,-1094.2726"/>
</g>
<!-- evans.consort.AbjadObject.AbjadObject&#45;&gt;evans.consort.TimespanSimultaneity.TimespanSimultaneity -->
<g id="edge6" class="edge">
<title>evans.consort.AbjadObject.AbjadObject&#45;&gt;evans.consort.TimespanSimultaneity.TimespanSimultaneity</title>
<path fill="none" stroke="#778899" d="M134.9772,-1069.6599C145.0458,-1091.0494 166.378,-1128.5099 197.9473,-1144 231.4705,-1160.4488 274.2417,-1157.4319 306.1494,-1151.3093"/>
<polygon fill="#778899" stroke="#778899" points="307.0274,-1154.7015 316.1019,-1149.233 305.5978,-1147.8491 307.0274,-1154.7015"/>
</g>
<!-- evans.handlers.Handler&#45;&gt;evans.handlers.ArticulationHandler -->
<g id="edge7" class="edge">
<title>evans.handlers.Handler&#45;&gt;evans.handlers.ArticulationHandler</title>
<path fill="none" stroke="#778899" d="M131.5509,-701.2495C139.8909,-677.0316 163.8802,-612.8621 197.9473,-568 199.5142,-565.9366 201.245,-563.908 203.0682,-561.9416"/>
<polygon fill="#778899" stroke="#778899" points="205.7316,-564.2312 210.4065,-554.7235 200.8229,-559.2407 205.7316,-564.2312"/>
</g>
<!-- evans.handlers.Handler&#45;&gt;evans.handlers.BendHandler -->
<g id="edge8" class="edge">
<title>evans.handlers.Handler&#45;&gt;evans.handlers.BendHandler</title>
<path fill="none" stroke="#778899" d="M130.8246,-701.0942C137.3892,-677.3447 157.4366,-616.9869 197.9473,-588 216.4458,-574.7636 276.5564,-566.4319 315.8942,-562.2541"/>
<polygon fill="#778899" stroke="#778899" points="316.305,-565.7305 325.8979,-561.2331 315.5942,-558.7666 316.305,-565.7305"/>
</g>
<!-- evans.handlers.Handler&#45;&gt;evans.handlers.BisbigliandoHandler -->
<g id="edge9" class="edge">
<title>evans.handlers.Handler&#45;&gt;evans.handlers.BisbigliandoHandler</title>
<path fill="none" stroke="#778899" d="M131.6518,-701.2334C139.4546,-680.0552 161.081,-630.0431 197.9473,-608 218.0188,-595.9988 362.4802,-585.9736 437.6457,-581.5024"/>
<polygon fill="#778899" stroke="#778899" points="437.9938,-584.9881 447.7718,-580.9088 437.5841,-578.0001 437.9938,-584.9881"/>
</g>
<!-- evans.handlers.Handler&#45;&gt;evans.handlers.ClefHandler -->
<g id="edge10" class="edge">
<title>evans.handlers.Handler&#45;&gt;evans.handlers.ClefHandler</title>
<path fill="none" stroke="#778899" d="M132.641,-700.988C141.583,-681.7196 164.138,-639.894 197.9473,-623 259.9918,-591.9973 470.9279,-603.8434 555.8797,-610.1023"/>
<polygon fill="#778899" stroke="#778899" points="555.832,-613.6085 566.067,-610.8709 556.3587,-606.6284 555.832,-613.6085"/>
</g>
<!-- evans.handlers.Handler&#45;&gt;evans.handlers.DynamicHandler -->
<g id="edge11" class="edge">
<title>evans.handlers.Handler&#45;&gt;evans.handlers.DynamicHandler</title>
<path fill="none" stroke="#778899" d="M144.3105,-701C158.2927,-692.2582 179.0653,-679.2708 196.735,-668.2236"/>
<polygon fill="#778899" stroke="#778899" points="199.0161,-670.9252 205.6398,-662.6562 195.3051,-664.9898 199.0161,-670.9252"/>
</g>
<!-- evans.handlers.Handler&#45;&gt;evans.handlers.GettatoHandler -->
<g id="edge12" class="edge">
<title>evans.handlers.Handler&#45;&gt;evans.handlers.GettatoHandler</title>
<path fill="none" stroke="#778899" d="M154.076,-705.2857C167.1928,-702.4179 183.4018,-698.9384 197.9473,-696 238.3621,-687.8356 284.9051,-679.1544 316.0898,-673.4415"/>
<polygon fill="#778899" stroke="#778899" points="316.8374,-676.8629 326.0456,-671.6229 315.5795,-669.9769 316.8374,-676.8629"/>
</g>
<!-- evans.handlers.Handler&#45;&gt;evans.handlers.GlissandoHandler -->
<g id="edge13" class="edge">
<title>evans.handlers.Handler&#45;&gt;evans.handlers.GlissandoHandler</title>
<path fill="none" stroke="#778899" d="M154.0984,-709.2546C215.0756,-705.1268 368.5524,-694.7371 442.1922,-689.752"/>
<polygon fill="#778899" stroke="#778899" points="442.7166,-693.2247 452.4573,-689.0571 442.2438,-686.2406 442.7166,-693.2247"/>
</g>
<!-- evans.handlers.Handler&#45;&gt;evans.handlers.GraceHandler -->
<g id="edge14" class="edge">
<title>evans.handlers.Handler&#45;&gt;evans.handlers.GraceHandler</title>
<path fill="none" stroke="#778899" d="M153.8931,-711.5519C231.664,-713.23 465.4944,-718.2754 555.7112,-720.2221"/>
<polygon fill="#778899" stroke="#778899" points="555.9079,-723.727 565.9811,-720.4437 556.059,-716.7287 555.9079,-723.727"/>
</g>
<!-- evans.handlers.Handler&#45;&gt;evans.handlers.NoteheadHandler -->
<g id="edge15" class="edge">
<title>evans.handlers.Handler&#45;&gt;evans.handlers.NoteheadHandler</title>
<path fill="none" stroke="#778899" d="M151.0341,-720.765C162.9028,-725.8666 177.7656,-732.2551 191.4277,-738.1276"/>
<polygon fill="#778899" stroke="#778899" points="190.0732,-741.3549 200.6426,-742.0884 192.8375,-734.9239 190.0732,-741.3549"/>
</g>
<!-- evans.handlers.Handler&#45;&gt;evans.handlers.PitchHandler -->
<g id="edge16" class="edge">
<title>evans.handlers.Handler&#45;&gt;evans.handlers.PitchHandler</title>
<path fill="none" stroke="#778899" d="M134.5586,-720.8132C145.2715,-736.6201 168.8404,-767.1451 197.9473,-779 236.0928,-794.5362 284.0935,-789.8907 316.2112,-783.7479"/>
<polygon fill="#778899" stroke="#778899" points="316.9586,-787.1675 326.0483,-781.7246 315.5482,-780.3111 316.9586,-787.1675"/>
</g>
<!-- evans.handlers.Handler&#45;&gt;evans.handlers.RhythmHandler -->
<g id="edge17" class="edge">
<title>evans.handlers.Handler&#45;&gt;evans.handlers.RhythmHandler</title>
<path fill="none" stroke="#778899" d="M133.6883,-720.7541C143.7508,-737.951 167.2261,-773.3232 197.9473,-789 279.0497,-830.3859 390.7898,-815.3662 447.197,-803.6532"/>
<polygon fill="#778899" stroke="#778899" points="448.0315,-807.0538 457.0657,-801.519 446.5518,-800.2119 448.0315,-807.0538"/>
</g>
<!-- evans.handlers.Handler&#45;&gt;evans.handlers.SlurHandler -->
<g id="edge18" class="edge">
<title>evans.handlers.Handler&#45;&gt;evans.handlers.SlurHandler</title>
<path fill="none" stroke="#778899" d="M132.529,-720.909C141.4213,-740.4837 164.1116,-783.9475 197.9473,-804 313.3837,-872.4126 482.7134,-850.7741 555.8931,-836.8339"/>
<polygon fill="#778899" stroke="#778899" points="556.8413,-840.2144 565.9746,-834.8446 555.4862,-833.3468 556.8413,-840.2144"/>
</g>
<!-- evans.handlers.Handler&#45;&gt;evans.handlers.TempoSpannerHandler -->
<g id="edge19" class="edge">
<title>evans.handlers.Handler&#45;&gt;evans.handlers.TempoSpannerHandler</title>
<path fill="none" stroke="#778899" d="M132.9897,-721.0502C143.2601,-742.6775 169.1841,-794.8425 197.9473,-834 199.3079,-835.8523 200.756,-837.7124 202.257,-839.5571"/>
<polygon fill="#778899" stroke="#778899" points="199.8927,-842.1756 209.0678,-847.4735 205.1991,-837.6103 199.8927,-842.1756"/>
</g>
<!-- evans.handlers.Handler&#45;&gt;evans.handlers.TextSpanHandler -->
<g id="edge20" class="edge">
<title>evans.handlers.Handler&#45;&gt;evans.handlers.TextSpanHandler</title>
<path fill="none" stroke="#778899" d="M130.4049,-720.7647C138.2093,-756.2361 166.8088,-877.3274 197.9473,-899 232.457,-923.019 282.5572,-913.7609 316.0784,-903.0421"/>
<polygon fill="#778899" stroke="#778899" points="317.5691,-906.2323 325.9136,-899.7039 315.3192,-899.6037 317.5691,-906.2323"/>
</g>
<!-- evans.handlers.Handler&#45;&gt;evans.handlers.TrillHandler -->
<g id="edge21" class="edge">
<title>evans.handlers.Handler&#45;&gt;evans.handlers.TrillHandler</title>
<path fill="none" stroke="#778899" d="M130.2638,-720.7818C137.7857,-757.5124 166.1083,-886.3609 197.9473,-911 270.8308,-967.4021 388.5302,-943.2958 447.2082,-925.9923"/>
<polygon fill="#778899" stroke="#778899" points="448.5741,-929.2349 457.1167,-922.968 446.5306,-922.5398 448.5741,-929.2349"/>
</g>
<!-- evans.timespan.SilentTimespan -->
<g id="node1" class="node">
<title>evans.timespan.SilentTimespan</title>
<g id="a_node1"><a xlink:href="../api/evans/timespan.html#evans.timespan.SilentTimespan" xlink:title="Silent\nTimespan" target="_top">
<path fill="#f2f2f2" stroke="#f2f2f2" stroke-width="2" d="M370.8539,-382.498C370.8539,-382.498 332.444,-382.498 332.444,-382.498 327.278,-382.498 322.112,-377.332 322.112,-372.166 322.112,-372.166 322.112,-361.834 322.112,-361.834 322.112,-356.668 327.278,-351.502 332.444,-351.502 332.444,-351.502 370.8539,-351.502 370.8539,-351.502 376.0199,-351.502 381.1859,-356.668 381.1859,-361.834 381.1859,-361.834 381.1859,-372.166 381.1859,-372.166 381.1859,-377.332 376.0199,-382.498 370.8539,-382.498"/>
<text text-anchor="middle" x="351.6489" y="-370.499" font-family="Arial" font-size="10.00" fill="#000000">Silent</text>
<text text-anchor="middle" x="351.6489" y="-359" font-family="Arial" font-size="10.00" fill="#000000">Timespan</text>
</a>
</g>
</g>
<!-- evans.timespan.TimespanMaker -->
<g id="node2" class="node">
<title>evans.timespan.TimespanMaker</title>
<g id="a_node2"><a xlink:href="../api/evans/timespan.html#evans.timespan.TimespanMaker" xlink:title="Timespan\nMaker" target="_top">
<path fill="#f2f2f2" stroke="#f2f2f2" stroke-width="2" d="M370.8539,-480.498C370.8539,-480.498 332.444,-480.498 332.444,-480.498 327.278,-480.498 322.112,-475.332 322.112,-470.166 322.112,-470.166 322.112,-459.834 322.112,-459.834 322.112,-454.668 327.278,-449.502 332.444,-449.502 332.444,-449.502 370.8539,-449.502 370.8539,-449.502 376.0199,-449.502 381.1859,-454.668 381.1859,-459.834 381.1859,-459.834 381.1859,-470.166 381.1859,-470.166 381.1859,-475.332 376.0199,-480.498 370.8539,-480.498"/>
<text text-anchor="middle" x="351.6489" y="-468.499" font-family="Arial" font-size="10.00" fill="#000000">Timespan</text>
<text text-anchor="middle" x="351.6489" y="-457" font-family="Arial" font-size="10.00" fill="#000000">Maker</text>
</a>
</g>
</g>
<!-- evans.timespan.TimespanSpecifier -->
<g id="node3" class="node">
<title>evans.timespan.TimespanSpecifier</title>
<g id="a_node3"><a xlink:href="../api/evans/timespan.html#evans.timespan.TimespanSpecifier" xlink:title="Timespan\nSpecifier" target="_top">
<path fill="#f2f2f2" stroke="#f2f2f2" stroke-width="2" d="M370.8539,-431.498C370.8539,-431.498 332.444,-431.498 332.444,-431.498 327.278,-431.498 322.112,-426.332 322.112,-421.166 322.112,-421.166 322.112,-410.834 322.112,-410.834 322.112,-405.668 327.278,-400.502 332.444,-400.502 332.444,-400.502 370.8539,-400.502 370.8539,-400.502 376.0199,-400.502 381.1859,-405.668 381.1859,-410.834 381.1859,-410.834 381.1859,-421.166 381.1859,-421.166 381.1859,-426.332 376.0199,-431.498 370.8539,-431.498"/>
<text text-anchor="middle" x="351.6489" y="-419.499" font-family="Arial" font-size="10.00" fill="#000000">Timespan</text>
<text text-anchor="middle" x="351.6489" y="-408" font-family="Arial" font-size="10.00" fill="#000000">Specifier</text>
</a>
</g>
</g>
<!-- abjad.timespan.Timespan -->
<g id="node4" class="node">
<title>abjad.timespan.Timespan</title>
<path fill="#fbb4ae" stroke="#fbb4ae" stroke-width="2" d="M151.1825,-372.0056C151.1825,-372.0056 105.4493,-372.0056 105.4493,-372.0056 102.1142,-372.0056 98.779,-368.6704 98.779,-365.3352 98.779,-365.3352 98.779,-358.6648 98.779,-358.6648 98.779,-355.3296 102.1142,-351.9944 105.4493,-351.9944 105.4493,-351.9944 151.1825,-351.9944 151.1825,-351.9944 154.5177,-351.9944 157.8529,-355.3296 157.8529,-358.6648 157.8529,-358.6648 157.8529,-365.3352 157.8529,-365.3352 157.8529,-368.6704 154.5177,-372.0056 151.1825,-372.0056"/>
<text text-anchor="middle" x="128.3159" y="-359.7495" font-family="Arial" font-size="10.00" fill="#000000">Timespan</text>
</g>
<!-- builtins.object -->
<g id="node5" class="node">
<title>builtins.object</title>
<g id="a_node5"><a xlink:href="https://docs.python.org/3.7/library/functions.html#object" xlink:title="object" target="_top">
<path fill="#b3cde3" stroke="#b3cde3" stroke-width="2" d="M51.8576,-296.0056C51.8576,-296.0056 22.8269,-296.0056 22.8269,-296.0056 19.4918,-296.0056 16.1566,-292.6704 16.1566,-289.3352 16.1566,-289.3352 16.1566,-282.6648 16.1566,-282.6648 16.1566,-279.3296 19.4918,-275.9944 22.8269,-275.9944 22.8269,-275.9944 51.8576,-275.9944 51.8576,-275.9944 55.1928,-275.9944 58.528,-279.3296 58.528,-282.6648 58.528,-282.6648 58.528,-289.3352 58.528,-289.3352 58.528,-292.6704 55.1928,-296.0056 51.8576,-296.0056"/>
<text text-anchor="middle" x="37.3423" y="-283.7495" font-family="Arial" font-size="10.00" fill="#000000">object</text>
</a>
</g>
</g>
<!-- evans.commands.Command -->
<g id="node6" class="node">
<title>evans.commands.Command</title>
<g id="a_node6"><a xlink:href="../api/evans/commands.html#evans.commands.Command" xlink:title="Command" target="_top">
<path fill="#ccebc5" stroke="#ccebc5" stroke-width="2" d="M507.3034,-339.0056C507.3034,-339.0056 458.388,-339.0056 458.388,-339.0056 455.0528,-339.0056 451.7176,-335.6704 451.7176,-332.3352 451.7176,-332.3352 451.7176,-325.6648 451.7176,-325.6648 451.7176,-322.3296 455.0528,-318.9944 458.388,-318.9944 458.388,-318.9944 507.3034,-318.9944 507.3034,-318.9944 510.6386,-318.9944 513.9738,-322.3296 513.9738,-325.6648 513.9738,-325.6648 513.9738,-332.3352 513.9738,-332.3352 513.9738,-335.6704 510.6386,-339.0056 507.3034,-339.0056"/>
<text text-anchor="middle" x="482.8457" y="-326.7495" font-family="Arial" font-size="10.00" fill="#000000">Command</text>
</a>
</g>
</g>
<!-- evans.commands.HandlerCommand -->
<g id="node7" class="node">
<title>evans.commands.HandlerCommand</title>
<g id="a_node7"><a xlink:href="../api/evans/commands.html#evans.commands.HandlerCommand" xlink:title="Handler\nCommand" target="_top">
<path fill="#ccebc5" stroke="#ccebc5" stroke-width="2" d="M503.6417,-301.498C503.6417,-301.498 462.0497,-301.498 462.0497,-301.498 456.8837,-301.498 451.7176,-296.332 451.7176,-291.166 451.7176,-291.166 451.7176,-280.834 451.7176,-280.834 451.7176,-275.668 456.8837,-270.502 462.0497,-270.502 462.0497,-270.502 503.6417,-270.502 503.6417,-270.502 508.8077,-270.502 513.9738,-275.668 513.9738,-280.834 513.9738,-280.834 513.9738,-291.166 513.9738,-291.166 513.9738,-296.332 508.8077,-301.498 503.6417,-301.498"/>
<text text-anchor="middle" x="482.8457" y="-289.499" font-family="Arial" font-size="10.00" fill="#000000">Handler</text>
<text text-anchor="middle" x="482.8457" y="-278" font-family="Arial" font-size="10.00" fill="#000000">Command</text>
</a>
</g>
</g>
<!-- evans.commands.RhythmCommand -->
<g id="node8" class="node">
<title>evans.commands.RhythmCommand</title>
<g id="a_node8"><a xlink:href="../api/evans/commands.html#evans.commands.RhythmCommand" xlink:title="Rhythm\nCommand" target="_top">
<path fill="#ccebc5" stroke="#ccebc5" stroke-width="2" d="M503.6417,-252.498C503.6417,-252.498 462.0497,-252.498 462.0497,-252.498 456.8837,-252.498 451.7176,-247.332 451.7176,-242.166 451.7176,-242.166 451.7176,-231.834 451.7176,-231.834 451.7176,-226.668 456.8837,-221.502 462.0497,-221.502 462.0497,-221.502 503.6417,-221.502 503.6417,-221.502 508.8077,-221.502 513.9738,-226.668 513.9738,-231.834 513.9738,-231.834 513.9738,-242.166 513.9738,-242.166 513.9738,-247.332 508.8077,-252.498 503.6417,-252.498"/>
<text text-anchor="middle" x="482.8457" y="-240.499" font-family="Arial" font-size="10.00" fill="#000000">Rhythm</text>
<text text-anchor="middle" x="482.8457" y="-229" font-family="Arial" font-size="10.00" fill="#000000">Command</text>
</a>
</g>
</g>
<!-- evans.consort.AbjadObject.AbjadObject -->
<g id="node9" class="node">
<title>evans.consort.AbjadObject.AbjadObject</title>
<g id="a_node9"><a xlink:href="../api/evans/consort/AbjadObject.html#evans.consort.AbjadObject.AbjadObject" xlink:title="Abjad\nObject" target="_top">
<path fill="#decbe4" stroke="#decbe4" stroke-width="2" d="M140.3854,-1069.498C140.3854,-1069.498 116.2465,-1069.498 116.2465,-1069.498 111.0805,-1069.498 105.9144,-1064.332 105.9144,-1059.166 105.9144,-1059.166 105.9144,-1048.834 105.9144,-1048.834 105.9144,-1043.668 111.0805,-1038.502 116.2465,-1038.502 116.2465,-1038.502 140.3854,-1038.502 140.3854,-1038.502 145.5514,-1038.502 150.7174,-1043.668 150.7174,-1048.834 150.7174,-1048.834 150.7174,-1059.166 150.7174,-1059.166 150.7174,-1064.332 145.5514,-1069.498 140.3854,-1069.498"/>
<text text-anchor="middle" x="128.3159" y="-1057.499" font-family="Arial" font-size="10.00" fill="#000000">Abjad</text>
<text text-anchor="middle" x="128.3159" y="-1046" font-family="Arial" font-size="10.00" fill="#000000">Object</text>
</a>
</g>
</g>
<!-- evans.consort.AbjadValueObject.AbjadValueObject -->
<g id="node10" class="node">
<title>evans.consort.AbjadValueObject.AbjadValueObject</title>
<g id="a_node10"><a xlink:href="../api/evans/consort/AbjadValueObject.html#evans.consort.AbjadValueObject.AbjadValueObject" xlink:title="Abjad\nValue\nObject" target="_top">
<path fill="#decbe4" stroke="#decbe4" stroke-width="2" d="M241.0826,-1015.5C241.0826,-1015.5 220.2797,-1015.5 220.2797,-1015.5 214.2797,-1015.5 208.2797,-1009.5 208.2797,-1003.5 208.2797,-1003.5 208.2797,-984.5 208.2797,-984.5 208.2797,-978.5 214.2797,-972.5 220.2797,-972.5 220.2797,-972.5 241.0826,-972.5 241.0826,-972.5 247.0826,-972.5 253.0826,-978.5 253.0826,-984.5 253.0826,-984.5 253.0826,-1003.5 253.0826,-1003.5 253.0826,-1009.5 247.0826,-1015.5 241.0826,-1015.5"/>
<text text-anchor="middle" x="230.6812" y="-1003.2485" font-family="Arial" font-size="10.00" fill="#000000">Abjad</text>
<text text-anchor="middle" x="230.6812" y="-991.7495" font-family="Arial" font-size="10.00" fill="#000000">Value</text>
<text text-anchor="middle" x="230.6812" y="-980.2505" font-family="Arial" font-size="10.00" fill="#000000">Object</text>
</a>
</g>
</g>
<!-- evans.consort.LogicalTieCollection.LogicalTieCollection -->
<g id="node11" class="node">
<title>evans.consort.LogicalTieCollection.LogicalTieCollection</title>
<g id="a_node11"><a xlink:href="../api/evans/consort/LogicalTieCollection.html#evans.consort.LogicalTieCollection.LogicalTieCollection" xlink:title="Logical\nTie\nCollection" target="_top">
<path fill="#decbe4" stroke="#decbe4" stroke-width="2" d="M369.5601,-1035.5C369.5601,-1035.5 333.7377,-1035.5 333.7377,-1035.5 327.7377,-1035.5 321.7377,-1029.5 321.7377,-1023.5 321.7377,-1023.5 321.7377,-1004.5 321.7377,-1004.5 321.7377,-998.5 327.7377,-992.5 333.7377,-992.5 333.7377,-992.5 369.5601,-992.5 369.5601,-992.5 375.5601,-992.5 381.5601,-998.5 381.5601,-1004.5 381.5601,-1004.5 381.5601,-1023.5 381.5601,-1023.5 381.5601,-1029.5 375.5601,-1035.5 369.5601,-1035.5"/>
<text text-anchor="middle" x="351.6489" y="-1023.2485" font-family="Arial" font-size="10.00" fill="#000000">Logical</text>
<text text-anchor="middle" x="351.6489" y="-1011.7495" font-family="Arial" font-size="10.00" fill="#000000">Tie</text>
<text text-anchor="middle" x="351.6489" y="-1000.2505" font-family="Arial" font-size="10.00" fill="#000000">Collection</text>
</a>
</g>
</g>
<!-- evans.consort.RatioPartsExpression.RatioPartsExpression -->
<g id="node12" class="node">
<title>evans.consort.RatioPartsExpression.RatioPartsExpression</title>
<g id="a_node12"><a xlink:href="../api/evans/consort/RatioPartsExpression.html#evans.consort.RatioPartsExpression.RatioPartsExpression" xlink:title="Ratio\nParts\nExpression" target="_top">
<path fill="#decbe4" stroke="#decbe4" stroke-width="2" d="M503.8152,-1055.5C503.8152,-1055.5 461.8762,-1055.5 461.8762,-1055.5 455.8762,-1055.5 449.8762,-1049.5 449.8762,-1043.5 449.8762,-1043.5 449.8762,-1024.5 449.8762,-1024.5 449.8762,-1018.5 455.8762,-1012.5 461.8762,-1012.5 461.8762,-1012.5 503.8152,-1012.5 503.8152,-1012.5 509.8152,-1012.5 515.8152,-1018.5 515.8152,-1024.5 515.8152,-1024.5 515.8152,-1043.5 515.8152,-1043.5 515.8152,-1049.5 509.8152,-1055.5 503.8152,-1055.5"/>
<text text-anchor="middle" x="482.8457" y="-1043.2485" font-family="Arial" font-size="10.00" fill="#000000">Ratio</text>
<text text-anchor="middle" x="482.8457" y="-1031.7495" font-family="Arial" font-size="10.00" fill="#000000">Parts</text>
<text text-anchor="middle" x="482.8457" y="-1020.2505" font-family="Arial" font-size="10.00" fill="#000000">Expression</text>
</a>
</g>
</g>
<!-- evans.consort.TimespanCollection.TimespanCollection -->
<g id="node13" class="node">
<title>evans.consort.TimespanCollection.TimespanCollection</title>
<g id="a_node13"><a xlink:href="../api/evans/consort/TimespanCollection.html#evans.consort.TimespanCollection.TimespanCollection" xlink:title="Timespan\nCollection" target="_top">
<path fill="#decbe4" stroke="#decbe4" stroke-width="2" d="M611.3433,-1089.498C611.3433,-1089.498 572.185,-1089.498 572.185,-1089.498 567.019,-1089.498 561.853,-1084.332 561.853,-1079.166 561.853,-1079.166 561.853,-1068.834 561.853,-1068.834 561.853,-1063.668 567.019,-1058.502 572.185,-1058.502 572.185,-1058.502 611.3433,-1058.502 611.3433,-1058.502 616.5093,-1058.502 621.6754,-1063.668 621.6754,-1068.834 621.6754,-1068.834 621.6754,-1079.166 621.6754,-1079.166 621.6754,-1084.332 616.5093,-1089.498 611.3433,-1089.498"/>
<text text-anchor="middle" x="591.7642" y="-1077.499" font-family="Arial" font-size="10.00" fill="#000000">Timespan</text>
<text text-anchor="middle" x="591.7642" y="-1066" font-family="Arial" font-size="10.00" fill="#000000">Collection</text>
</a>
</g>
</g>
<!-- evans.consort.TimespanCollectionNode.TimespanCollectionNode -->
<g id="node14" class="node">
<title>evans.consort.TimespanCollectionNode.TimespanCollectionNode</title>
<g id="a_node14"><a xlink:href="../api/evans/consort/TimespanCollectionNode.html#evans.consort.TimespanCollectionNode.TimespanCollectionNode" xlink:title="Timespan\nCollection\nNode" target="_top">
<path fill="#decbe4" stroke="#decbe4" stroke-width="2" d="M248.5924,-1135.5C248.5924,-1135.5 212.77,-1135.5 212.77,-1135.5 206.77,-1135.5 200.77,-1129.5 200.77,-1123.5 200.77,-1123.5 200.77,-1104.5 200.77,-1104.5 200.77,-1098.5 206.77,-1092.5 212.77,-1092.5 212.77,-1092.5 248.5924,-1092.5 248.5924,-1092.5 254.5924,-1092.5 260.5924,-1098.5 260.5924,-1104.5 260.5924,-1104.5 260.5924,-1123.5 260.5924,-1123.5 260.5924,-1129.5 254.5924,-1135.5 248.5924,-1135.5"/>
<text text-anchor="middle" x="230.6812" y="-1123.2485" font-family="Arial" font-size="10.00" fill="#000000">Timespan</text>
<text text-anchor="middle" x="230.6812" y="-1111.7495" font-family="Arial" font-size="10.00" fill="#000000">Collection</text>
<text text-anchor="middle" x="230.6812" y="-1100.2505" font-family="Arial" font-size="10.00" fill="#000000">Node</text>
</a>
</g>
</g>
<!-- evans.consort.TimespanSimultaneity.TimespanSimultaneity -->
<g id="node15" class="node">
<title>evans.consort.TimespanSimultaneity.TimespanSimultaneity</title>
<g id="a_node15"><a xlink:href="../api/evans/consort/TimespanSimultaneity.html#evans.consort.TimespanSimultaneity.TimespanSimultaneity" xlink:title="Timespan\nSimultaneity" target="_top">
<path fill="#decbe4" stroke="#decbe4" stroke-width="2" d="M376.7862,-1154.498C376.7862,-1154.498 326.5116,-1154.498 326.5116,-1154.498 321.3456,-1154.498 316.1796,-1149.332 316.1796,-1144.166 316.1796,-1144.166 316.1796,-1133.834 316.1796,-1133.834 316.1796,-1128.668 321.3456,-1123.502 326.5116,-1123.502 326.5116,-1123.502 376.7862,-1123.502 376.7862,-1123.502 381.9522,-1123.502 387.1183,-1128.668 387.1183,-1133.834 387.1183,-1133.834 387.1183,-1144.166 387.1183,-1144.166 387.1183,-1149.332 381.9522,-1154.498 376.7862,-1154.498"/>
<text text-anchor="middle" x="351.6489" y="-1142.499" font-family="Arial" font-size="10.00" fill="#000000">Timespan</text>
<text text-anchor="middle" x="351.6489" y="-1131" font-family="Arial" font-size="10.00" fill="#000000">Simultaneity</text>
</a>
</g>
</g>
<!-- evans.handlers.ArticulationHandler -->
<g id="node16" class="node">
<title>evans.handlers.ArticulationHandler</title>
<g id="a_node16"><a xlink:href="../api/evans/handlers.html#evans.handlers.ArticulationHandler" xlink:title="Articulation\nHandler" target="_top">
<path fill="#fed9a6" stroke="#fed9a6" stroke-width="2" d="M253.3186,-554.498C253.3186,-554.498 208.0437,-554.498 208.0437,-554.498 202.8777,-554.498 197.7117,-549.332 197.7117,-544.166 197.7117,-544.166 197.7117,-533.834 197.7117,-533.834 197.7117,-528.668 202.8777,-523.502 208.0437,-523.502 208.0437,-523.502 253.3186,-523.502 253.3186,-523.502 258.4846,-523.502 263.6506,-528.668 263.6506,-533.834 263.6506,-533.834 263.6506,-544.166 263.6506,-544.166 263.6506,-549.332 258.4846,-554.498 253.3186,-554.498"/>
<text text-anchor="middle" x="230.6812" y="-542.499" font-family="Arial" font-size="10.00" fill="#000000">Articulation</text>
<text text-anchor="middle" x="230.6812" y="-531" font-family="Arial" font-size="10.00" fill="#000000">Handler</text>
</a>
</g>
</g>
<!-- evans.handlers.BendHandler -->
<g id="node17" class="node">
<title>evans.handlers.BendHandler</title>
<g id="a_node17"><a xlink:href="../api/evans/handlers.html#evans.handlers.BendHandler" xlink:title="Bend\nHandler" target="_top">
<path fill="#fed9a6" stroke="#fed9a6" stroke-width="2" d="M366.8364,-574.498C366.8364,-574.498 336.4614,-574.498 336.4614,-574.498 331.2954,-574.498 326.1294,-569.332 326.1294,-564.166 326.1294,-564.166 326.1294,-553.834 326.1294,-553.834 326.1294,-548.668 331.2954,-543.502 336.4614,-543.502 336.4614,-543.502 366.8364,-543.502 366.8364,-543.502 372.0024,-543.502 377.1685,-548.668 377.1685,-553.834 377.1685,-553.834 377.1685,-564.166 377.1685,-564.166 377.1685,-569.332 372.0024,-574.498 366.8364,-574.498"/>
<text text-anchor="middle" x="351.6489" y="-562.499" font-family="Arial" font-size="10.00" fill="#000000">Bend</text>
<text text-anchor="middle" x="351.6489" y="-551" font-family="Arial" font-size="10.00" fill="#000000">Handler</text>
</a>
</g>
</g>
<!-- evans.handlers.BisbigliandoHandler -->
<g id="node18" class="node">
<title>evans.handlers.BisbigliandoHandler</title>
<g id="a_node18"><a xlink:href="../api/evans/handlers.html#evans.handlers.BisbigliandoHandler" xlink:title="Bisbigliando\nHandler" target="_top">
<path fill="#fed9a6" stroke="#fed9a6" stroke-width="2" d="M507.4395,-594.498C507.4395,-594.498 458.2519,-594.498 458.2519,-594.498 453.0859,-594.498 447.9199,-589.332 447.9199,-584.166 447.9199,-584.166 447.9199,-573.834 447.9199,-573.834 447.9199,-568.668 453.0859,-563.502 458.2519,-563.502 458.2519,-563.502 507.4395,-563.502 507.4395,-563.502 512.6055,-563.502 517.7715,-568.668 517.7715,-573.834 517.7715,-573.834 517.7715,-584.166 517.7715,-584.166 517.7715,-589.332 512.6055,-594.498 507.4395,-594.498"/>
<text text-anchor="middle" x="482.8457" y="-582.499" font-family="Arial" font-size="10.00" fill="#000000">Bisbigliando</text>
<text text-anchor="middle" x="482.8457" y="-571" font-family="Arial" font-size="10.00" fill="#000000">Handler</text>
</a>
</g>
</g>
<!-- evans.handlers.ClefHandler -->
<g id="node19" class="node">
<title>evans.handlers.ClefHandler</title>
<g id="a_node19"><a xlink:href="../api/evans/handlers.html#evans.handlers.ClefHandler" xlink:title="Clef\nHandler" target="_top">
<path fill="#fed9a6" stroke="#fed9a6" stroke-width="2" d="M606.9517,-628.498C606.9517,-628.498 576.5767,-628.498 576.5767,-628.498 571.4106,-628.498 566.2446,-623.332 566.2446,-618.166 566.2446,-618.166 566.2446,-607.834 566.2446,-607.834 566.2446,-602.668 571.4106,-597.502 576.5767,-597.502 576.5767,-597.502 606.9517,-597.502 606.9517,-597.502 612.1177,-597.502 617.2837,-602.668 617.2837,-607.834 617.2837,-607.834 617.2837,-618.166 617.2837,-618.166 617.2837,-623.332 612.1177,-628.498 606.9517,-628.498"/>
<text text-anchor="middle" x="591.7642" y="-616.499" font-family="Arial" font-size="10.00" fill="#000000">Clef</text>
<text text-anchor="middle" x="591.7642" y="-605" font-family="Arial" font-size="10.00" fill="#000000">Handler</text>
</a>
</g>
</g>
<!-- evans.handlers.DynamicHandler -->
<g id="node20" class="node">
<title>evans.handlers.DynamicHandler</title>
<g id="a_node20"><a xlink:href="../api/evans/handlers.html#evans.handlers.DynamicHandler" xlink:title="Dynamic\nHandler" target="_top">
<path fill="#fed9a6" stroke="#fed9a6" stroke-width="2" d="M247.7457,-662.498C247.7457,-662.498 213.6166,-662.498 213.6166,-662.498 208.4506,-662.498 203.2846,-657.332 203.2846,-652.166 203.2846,-652.166 203.2846,-641.834 203.2846,-641.834 203.2846,-636.668 208.4506,-631.502 213.6166,-631.502 213.6166,-631.502 247.7457,-631.502 247.7457,-631.502 252.9117,-631.502 258.0777,-636.668 258.0777,-641.834 258.0777,-641.834 258.0777,-652.166 258.0777,-652.166 258.0777,-657.332 252.9117,-662.498 247.7457,-662.498"/>
<text text-anchor="middle" x="230.6812" y="-650.499" font-family="Arial" font-size="10.00" fill="#000000">Dynamic</text>
<text text-anchor="middle" x="230.6812" y="-639" font-family="Arial" font-size="10.00" fill="#000000">Handler</text>
</a>
</g>
</g>
<!-- evans.handlers.GettatoHandler -->
<g id="node21" class="node">
<title>evans.handlers.GettatoHandler</title>
<g id="a_node21"><a xlink:href="../api/evans/handlers.html#evans.handlers.GettatoHandler" xlink:title="Gettato\nHandler" target="_top">
<path fill="#fed9a6" stroke="#fed9a6" stroke-width="2" d="M366.8364,-682.498C366.8364,-682.498 336.4614,-682.498 336.4614,-682.498 331.2954,-682.498 326.1294,-677.332 326.1294,-672.166 326.1294,-672.166 326.1294,-661.834 326.1294,-661.834 326.1294,-656.668 331.2954,-651.502 336.4614,-651.502 336.4614,-651.502 366.8364,-651.502 366.8364,-651.502 372.0024,-651.502 377.1685,-656.668 377.1685,-661.834 377.1685,-661.834 377.1685,-672.166 377.1685,-672.166 377.1685,-677.332 372.0024,-682.498 366.8364,-682.498"/>
<text text-anchor="middle" x="351.6489" y="-670.499" font-family="Arial" font-size="10.00" fill="#000000">Gettato</text>
<text text-anchor="middle" x="351.6489" y="-659" font-family="Arial" font-size="10.00" fill="#000000">Handler</text>
</a>
</g>
</g>
<!-- evans.handlers.GlissandoHandler -->
<g id="node22" class="node">
<title>evans.handlers.GlissandoHandler</title>
<g id="a_node22"><a xlink:href="../api/evans/handlers.html#evans.handlers.GlissandoHandler" xlink:title="Glissando\nHandler" target="_top">
<path fill="#fed9a6" stroke="#fed9a6" stroke-width="2" d="M502.9833,-702.498C502.9833,-702.498 462.7081,-702.498 462.7081,-702.498 457.5421,-702.498 452.3761,-697.332 452.3761,-692.166 452.3761,-692.166 452.3761,-681.834 452.3761,-681.834 452.3761,-676.668 457.5421,-671.502 462.7081,-671.502 462.7081,-671.502 502.9833,-671.502 502.9833,-671.502 508.1493,-671.502 513.3153,-676.668 513.3153,-681.834 513.3153,-681.834 513.3153,-692.166 513.3153,-692.166 513.3153,-697.332 508.1493,-702.498 502.9833,-702.498"/>
<text text-anchor="middle" x="482.8457" y="-690.499" font-family="Arial" font-size="10.00" fill="#000000">Glissando</text>
<text text-anchor="middle" x="482.8457" y="-679" font-family="Arial" font-size="10.00" fill="#000000">Handler</text>
</a>
</g>
</g>
<!-- evans.handlers.GraceHandler -->
<g id="node23" class="node">
<title>evans.handlers.GraceHandler</title>
<g id="a_node23"><a xlink:href="../api/evans/handlers.html#evans.handlers.GraceHandler" xlink:title="Grace\nHandler" target="_top">
<path fill="#fed9a6" stroke="#fed9a6" stroke-width="2" d="M606.9517,-736.498C606.9517,-736.498 576.5767,-736.498 576.5767,-736.498 571.4106,-736.498 566.2446,-731.332 566.2446,-726.166 566.2446,-726.166 566.2446,-715.834 566.2446,-715.834 566.2446,-710.668 571.4106,-705.502 576.5767,-705.502 576.5767,-705.502 606.9517,-705.502 606.9517,-705.502 612.1177,-705.502 617.2837,-710.668 617.2837,-715.834 617.2837,-715.834 617.2837,-726.166 617.2837,-726.166 617.2837,-731.332 612.1177,-736.498 606.9517,-736.498"/>
<text text-anchor="middle" x="591.7642" y="-724.499" font-family="Arial" font-size="10.00" fill="#000000">Grace</text>
<text text-anchor="middle" x="591.7642" y="-713" font-family="Arial" font-size="10.00" fill="#000000">Handler</text>
</a>
</g>
</g>
<!-- evans.handlers.Handler -->
<g id="node24" class="node">
<title>evans.handlers.Handler</title>
<g id="a_node24"><a xlink:href="../api/evans/handlers.html#evans.handlers.Handler" xlink:title="Handler" target="_top">
<path fill="#fed9a6" stroke="#fed9a6" stroke-width="2" d="M147.1651,-721.0056C147.1651,-721.0056 109.4668,-721.0056 109.4668,-721.0056 106.1316,-721.0056 102.7964,-717.6704 102.7964,-714.3352 102.7964,-714.3352 102.7964,-707.6648 102.7964,-707.6648 102.7964,-704.3296 106.1316,-700.9944 109.4668,-700.9944 109.4668,-700.9944 147.1651,-700.9944 147.1651,-700.9944 150.5003,-700.9944 153.8355,-704.3296 153.8355,-707.6648 153.8355,-707.6648 153.8355,-714.3352 153.8355,-714.3352 153.8355,-717.6704 150.5003,-721.0056 147.1651,-721.0056"/>
<text text-anchor="middle" x="128.3159" y="-708.7495" font-family="Arial" font-size="10.00" fill="#000000">Handler</text>
</a>
</g>
</g>
<!-- evans.handlers.NoteheadHandler -->
<g id="node25" class="node">
<title>evans.handlers.NoteheadHandler</title>
<g id="a_node25"><a xlink:href="../api/evans/handlers.html#evans.handlers.NoteheadHandler" xlink:title="Notehead\nHandler" target="_top">
<path fill="#fed9a6" stroke="#fed9a6" stroke-width="2" d="M250.2194,-770.498C250.2194,-770.498 211.1429,-770.498 211.1429,-770.498 205.9769,-770.498 200.8109,-765.332 200.8109,-760.166 200.8109,-760.166 200.8109,-749.834 200.8109,-749.834 200.8109,-744.668 205.9769,-739.502 211.1429,-739.502 211.1429,-739.502 250.2194,-739.502 250.2194,-739.502 255.3854,-739.502 260.5514,-744.668 260.5514,-749.834 260.5514,-749.834 260.5514,-760.166 260.5514,-760.166 260.5514,-765.332 255.3854,-770.498 250.2194,-770.498"/>
<text text-anchor="middle" x="230.6812" y="-758.499" font-family="Arial" font-size="10.00" fill="#000000">Notehead</text>
<text text-anchor="middle" x="230.6812" y="-747" font-family="Arial" font-size="10.00" fill="#000000">Handler</text>
</a>
</g>
</g>
<!-- evans.handlers.PitchHandler -->
<g id="node26" class="node">
<title>evans.handlers.PitchHandler</title>
<g id="a_node26"><a xlink:href="../api/evans/handlers.html#evans.handlers.PitchHandler" xlink:title="Pitch\nHandler" target="_top">
<path fill="#fed9a6" stroke="#fed9a6" stroke-width="2" d="M366.8364,-790.498C366.8364,-790.498 336.4614,-790.498 336.4614,-790.498 331.2954,-790.498 326.1294,-785.332 326.1294,-780.166 326.1294,-780.166 326.1294,-769.834 326.1294,-769.834 326.1294,-764.668 331.2954,-759.502 336.4614,-759.502 336.4614,-759.502 366.8364,-759.502 366.8364,-759.502 372.0024,-759.502 377.1685,-764.668 377.1685,-769.834 377.1685,-769.834 377.1685,-780.166 377.1685,-780.166 377.1685,-785.332 372.0024,-790.498 366.8364,-790.498"/>
<text text-anchor="middle" x="351.6489" y="-778.499" font-family="Arial" font-size="10.00" fill="#000000">Pitch</text>
<text text-anchor="middle" x="351.6489" y="-767" font-family="Arial" font-size="10.00" fill="#000000">Handler</text>
</a>
</g>
</g>
<!-- evans.handlers.RhythmHandler -->
<g id="node27" class="node">
<title>evans.handlers.RhythmHandler</title>
<g id="a_node27"><a xlink:href="../api/evans/handlers.html#evans.handlers.RhythmHandler" xlink:title="Rhythm\nHandler" target="_top">
<path fill="#fed9a6" stroke="#fed9a6" stroke-width="2" d="M498.0332,-810.498C498.0332,-810.498 467.6582,-810.498 467.6582,-810.498 462.4922,-810.498 457.3262,-805.332 457.3262,-800.166 457.3262,-800.166 457.3262,-789.834 457.3262,-789.834 457.3262,-784.668 462.4922,-779.502 467.6582,-779.502 467.6582,-779.502 498.0332,-779.502 498.0332,-779.502 503.1992,-779.502 508.3652,-784.668 508.3652,-789.834 508.3652,-789.834 508.3652,-800.166 508.3652,-800.166 508.3652,-805.332 503.1992,-810.498 498.0332,-810.498"/>
<text text-anchor="middle" x="482.8457" y="-798.499" font-family="Arial" font-size="10.00" fill="#000000">Rhythm</text>
<text text-anchor="middle" x="482.8457" y="-787" font-family="Arial" font-size="10.00" fill="#000000">Handler</text>
</a>
</g>
</g>
<!-- evans.handlers.SlurHandler -->
<g id="node28" class="node">
<title>evans.handlers.SlurHandler</title>
<g id="a_node28"><a xlink:href="../api/evans/handlers.html#evans.handlers.SlurHandler" xlink:title="Slur\nHandler" target="_top">
<path fill="#fed9a6" stroke="#fed9a6" stroke-width="2" d="M606.9517,-844.498C606.9517,-844.498 576.5767,-844.498 576.5767,-844.498 571.4106,-844.498 566.2446,-839.332 566.2446,-834.166 566.2446,-834.166 566.2446,-823.834 566.2446,-823.834 566.2446,-818.668 571.4106,-813.502 576.5767,-813.502 576.5767,-813.502 606.9517,-813.502 606.9517,-813.502 612.1177,-813.502 617.2837,-818.668 617.2837,-823.834 617.2837,-823.834 617.2837,-834.166 617.2837,-834.166 617.2837,-839.332 612.1177,-844.498 606.9517,-844.498"/>
<text text-anchor="middle" x="591.7642" y="-832.499" font-family="Arial" font-size="10.00" fill="#000000">Slur</text>
<text text-anchor="middle" x="591.7642" y="-821" font-family="Arial" font-size="10.00" fill="#000000">Handler</text>
</a>
</g>
</g>
<!-- evans.handlers.TempoSpannerHandler -->
<g id="node29" class="node">
<title>evans.handlers.TempoSpannerHandler</title>
<g id="a_node29"><a xlink:href="../api/evans/handlers.html#evans.handlers.TempoSpannerHandler" xlink:title="Tempo\nSpanner\nHandler" target="_top">
<path fill="#fed9a6" stroke="#fed9a6" stroke-width="2" d="M245.4891,-890.5C245.4891,-890.5 215.8732,-890.5 215.8732,-890.5 209.8732,-890.5 203.8732,-884.5 203.8732,-878.5 203.8732,-878.5 203.8732,-859.5 203.8732,-859.5 203.8732,-853.5 209.8732,-847.5 215.8732,-847.5 215.8732,-847.5 245.4891,-847.5 245.4891,-847.5 251.4891,-847.5 257.4891,-853.5 257.4891,-859.5 257.4891,-859.5 257.4891,-878.5 257.4891,-878.5 257.4891,-884.5 251.4891,-890.5 245.4891,-890.5"/>
<text text-anchor="middle" x="230.6812" y="-878.2485" font-family="Arial" font-size="10.00" fill="#000000">Tempo</text>
<text text-anchor="middle" x="230.6812" y="-866.7495" font-family="Arial" font-size="10.00" fill="#000000">Spanner</text>
<text text-anchor="middle" x="230.6812" y="-855.2505" font-family="Arial" font-size="10.00" fill="#000000">Handler</text>
</a>
</g>
</g>
<!-- evans.handlers.TextSpanHandler -->
<g id="node30" class="node">
<title>evans.handlers.TextSpanHandler</title>
<g id="a_node30"><a xlink:href="../api/evans/handlers.html#evans.handlers.TextSpanHandler" xlink:title="Text\nSpan\nHandler" target="_top">
<path fill="#fed9a6" stroke="#fed9a6" stroke-width="2" d="M365.1685,-910.5C365.1685,-910.5 338.1294,-910.5 338.1294,-910.5 332.1294,-910.5 326.1294,-904.5 326.1294,-898.5 326.1294,-898.5 326.1294,-879.5 326.1294,-879.5 326.1294,-873.5 332.1294,-867.5 338.1294,-867.5 338.1294,-867.5 365.1685,-867.5 365.1685,-867.5 371.1685,-867.5 377.1685,-873.5 377.1685,-879.5 377.1685,-879.5 377.1685,-898.5 377.1685,-898.5 377.1685,-904.5 371.1685,-910.5 365.1685,-910.5"/>
<text text-anchor="middle" x="351.6489" y="-898.2485" font-family="Arial" font-size="10.00" fill="#000000">Text</text>
<text text-anchor="middle" x="351.6489" y="-886.7495" font-family="Arial" font-size="10.00" fill="#000000">Span</text>
<text text-anchor="middle" x="351.6489" y="-875.2505" font-family="Arial" font-size="10.00" fill="#000000">Handler</text>
</a>
</g>
</g>
<!-- evans.handlers.TrillHandler -->
<g id="node31" class="node">
<title>evans.handlers.TrillHandler</title>
<g id="a_node31"><a xlink:href="../api/evans/handlers.html#evans.handlers.TrillHandler" xlink:title="Trill\nHandler" target="_top">
<path fill="#fed9a6" stroke="#fed9a6" stroke-width="2" d="M498.0332,-929.498C498.0332,-929.498 467.6582,-929.498 467.6582,-929.498 462.4922,-929.498 457.3262,-924.332 457.3262,-919.166 457.3262,-919.166 457.3262,-908.834 457.3262,-908.834 457.3262,-903.668 462.4922,-898.502 467.6582,-898.502 467.6582,-898.502 498.0332,-898.502 498.0332,-898.502 503.1992,-898.502 508.3652,-903.668 508.3652,-908.834 508.3652,-908.834 508.3652,-919.166 508.3652,-919.166 508.3652,-924.332 503.1992,-929.498 498.0332,-929.498"/>
<text text-anchor="middle" x="482.8457" y="-917.499" font-family="Arial" font-size="10.00" fill="#000000">Trill</text>
<text text-anchor="middle" x="482.8457" y="-906" font-family="Arial" font-size="10.00" fill="#000000">Handler</text>
</a>
</g>
</g>
<!-- evans.rtm.RTMMaker -->
<g id="node32" class="node">
<title>evans.rtm.RTMMaker</title>
<g id="a_node32"><a xlink:href="../api/evans/rtm.html#evans.rtm.RTMMaker" xlink:title="RTMMaker" target="_top">
<path fill="#ffffcc" stroke="#ffffcc" stroke-width="2" d="M154.4088,-203.0056C154.4088,-203.0056 102.2231,-203.0056 102.2231,-203.0056 98.8879,-203.0056 95.5527,-199.6704 95.5527,-196.3352 95.5527,-196.3352 95.5527,-189.6648 95.5527,-189.6648 95.5527,-186.3296 98.8879,-182.9944 102.2231,-182.9944 102.2231,-182.9944 154.4088,-182.9944 154.4088,-182.9944 157.744,-182.9944 161.0791,-186.3296 161.0791,-189.6648 161.0791,-189.6648 161.0791,-196.3352 161.0791,-196.3352 161.0791,-199.6704 157.744,-203.0056 154.4088,-203.0056"/>
<text text-anchor="middle" x="128.3159" y="-190.7495" font-family="Arial" font-size="10.00" fill="#000000">RTMMaker</text>
</a>
</g>
</g>
<!-- evans.segmentmaker.NoteheadBracketMaker -->
<g id="node33" class="node">
<title>evans.segmentmaker.NoteheadBracketMaker</title>
<g id="a_node33"><a xlink:href="../api/evans/segmentmaker.html#evans.segmentmaker.NoteheadBracketMaker" xlink:title="Notehead\nBracket\nMaker" target="_top">
<path fill="#e5d8bd" stroke="#e5d8bd" stroke-width="2" d="M369.5192,-196.5C369.5192,-196.5 333.7786,-196.5 333.7786,-196.5 327.7786,-196.5 321.7786,-190.5 321.7786,-184.5 321.7786,-184.5 321.7786,-165.5 321.7786,-165.5 321.7786,-159.5 327.7786,-153.5 333.7786,-153.5 333.7786,-153.5 369.5192,-153.5 369.5192,-153.5 375.5192,-153.5 381.5192,-159.5 381.5192,-165.5 381.5192,-165.5 381.5192,-184.5 381.5192,-184.5 381.5192,-190.5 375.5192,-196.5 369.5192,-196.5"/>
<text text-anchor="middle" x="351.6489" y="-184.2485" font-family="Arial" font-size="10.00" fill="#000000">Notehead</text>
<text text-anchor="middle" x="351.6489" y="-172.7495" font-family="Arial" font-size="10.00" fill="#000000">Bracket</text>
<text text-anchor="middle" x="351.6489" y="-161.2505" font-family="Arial" font-size="10.00" fill="#000000">Maker</text>
</a>
</g>
</g>
<!-- evans.segmentmaker.SegmentMaker -->
<g id="node34" class="node">
<title>evans.segmentmaker.SegmentMaker</title>
<g id="a_node34"><a xlink:href="../api/evans/segmentmaker.html#evans.segmentmaker.SegmentMaker" xlink:title="Segment\nMaker" target="_top">
<path fill="#e5d8bd" stroke="#e5d8bd" stroke-width="2" d="M369.3413,-135.498C369.3413,-135.498 333.9565,-135.498 333.9565,-135.498 328.7905,-135.498 323.6245,-130.332 323.6245,-125.166 323.6245,-125.166 323.6245,-114.834 323.6245,-114.834 323.6245,-109.668 328.7905,-104.502 333.9565,-104.502 333.9565,-104.502 369.3413,-104.502 369.3413,-104.502 374.5073,-104.502 379.6733,-109.668 379.6733,-114.834 379.6733,-114.834 379.6733,-125.166 379.6733,-125.166 379.6733,-130.332 374.5073,-135.498 369.3413,-135.498"/>
<text text-anchor="middle" x="351.6489" y="-123.499" font-family="Arial" font-size="10.00" fill="#000000">Segment</text>
<text text-anchor="middle" x="351.6489" y="-112" font-family="Arial" font-size="10.00" fill="#000000">Maker</text>
</a>
</g>
</g>
<!-- evans.sequence.CyclicList -->
<g id="node35" class="node">
<title>evans.sequence.CyclicList</title>
<g id="a_node35"><a xlink:href="../api/evans/sequence.html#evans.sequence.CyclicList" xlink:title="Cyclic\nList" target="_top">
<path fill="#fddaec" stroke="#fddaec" stroke-width="2" d="M493.68,-95.498C493.68,-95.498 472.0114,-95.498 472.0114,-95.498 466.8454,-95.498 461.6794,-90.332 461.6794,-85.166 461.6794,-85.166 461.6794,-74.834 461.6794,-74.834 461.6794,-69.668 466.8454,-64.502 472.0114,-64.502 472.0114,-64.502 493.68,-64.502 493.68,-64.502 498.846,-64.502 504.012,-69.668 504.012,-74.834 504.012,-74.834 504.012,-85.166 504.012,-85.166 504.012,-90.332 498.846,-95.498 493.68,-95.498"/>
<text text-anchor="middle" x="482.8457" y="-83.499" font-family="Arial" font-size="10.00" fill="#000000">Cyclic</text>
<text text-anchor="middle" x="482.8457" y="-72" font-family="Arial" font-size="10.00" fill="#000000">List</text>
</a>
</g>
</g>
<!-- evans.sequence.MarkovChain -->
<g id="node36" class="node">
<title>evans.sequence.MarkovChain</title>
<g id="a_node36"><a xlink:href="../api/evans/sequence.html#evans.sequence.MarkovChain" xlink:title="Markov\nChain" target="_top">
<path fill="#fddaec" stroke="#fddaec" stroke-width="2" d="M496.7974,-46.498C496.7974,-46.498 468.8941,-46.498 468.8941,-46.498 463.728,-46.498 458.562,-41.332 458.562,-36.166 458.562,-36.166 458.562,-25.834 458.562,-25.834 458.562,-20.668 463.728,-15.502 468.8941,-15.502 468.8941,-15.502 496.7974,-15.502 496.7974,-15.502 501.9634,-15.502 507.1294,-20.668 507.1294,-25.834 507.1294,-25.834 507.1294,-36.166 507.1294,-36.166 507.1294,-41.332 501.9634,-46.498 496.7974,-46.498"/>
<text text-anchor="middle" x="482.8457" y="-34.499" font-family="Arial" font-size="10.00" fill="#000000">Markov</text>
<text text-anchor="middle" x="482.8457" y="-23" font-family="Arial" font-size="10.00" fill="#000000">Chain</text>
</a>
</g>
</g>
</g>
</svg>
