<?xml version="1.0" encoding="UTF-8" standalone="no"?>
<!DOCTYPE svg PUBLIC "-//W3C//DTD SVG 1.1//EN"
 "http://www.w3.org/Graphics/SVG/1.1/DTD/svg11.dtd">
<!-- Generated by graphviz version 2.40.1 (20161225.0304)
 -->
<!-- Title: InheritanceGraph Pages: 1 -->
<svg width="221pt" height="139pt"
 viewBox="0.00 0.00 220.95 139.00" xmlns="http://www.w3.org/2000/svg" xmlns:xlink="http://www.w3.org/1999/xlink">
<g id="graph0" class="graph" transform="scale(1 1) rotate(0) translate(4 135)">
<title>InheritanceGraph</title>
<g id="clust1" class="cluster">
<title>cluster_builtins</title>
<path fill="transparent" stroke="#bcd2ee" stroke-width="2" stroke-dasharray="5,2" d="M20,-45C20,-45 54.6846,-45 54.6846,-45 60.6846,-45 66.6846,-51 66.6846,-57 66.6846,-57 66.6846,-88 66.6846,-88 66.6846,-94 60.6846,-100 54.6846,-100 54.6846,-100 20,-100 20,-100 14,-100 8,-94 8,-88 8,-88 8,-57 8,-57 8,-51 14,-45 20,-45"/>
<text text-anchor="middle" x="37.3423" y="-88" font-family="Arial" font-size="10.00" fill="#000000">builtins</text>
</g>
<g id="clust2" class="cluster">
<title>cluster_evans.rtm</title>
<path fill="transparent" stroke="#bcd2ee" stroke-width="2" stroke-dasharray="5,2" d="M135.6846,-8C135.6846,-8 192.9473,-8 192.9473,-8 198.9473,-8 204.9473,-14 204.9473,-20 204.9473,-20 204.9473,-111 204.9473,-111 204.9473,-117 198.9473,-123 192.9473,-123 192.9473,-123 135.6846,-123 135.6846,-123 129.6846,-123 123.6846,-117 123.6846,-111 123.6846,-111 123.6846,-20 123.6846,-20 123.6846,-14 129.6846,-8 135.6846,-8"/>
<text text-anchor="middle" x="164.3159" y="-111" font-family="Arial" font-size="10.00" fill="#000000">evans.rtm</text>
</g>
<!-- builtins.object&#45;&gt;evans.rtm.RTMMaker -->
<g id="edge1" class="edge">
<title>builtins.object&#45;&gt;evans.rtm.RTMMaker</title>
<path fill="none" stroke="#778899" d="M58.5948,-66.8497C75.7039,-69.9488 100.3022,-74.4046 121.4669,-78.2383"/>
<polygon fill="#778899" stroke="#778899" points="121.0695,-81.7232 131.5332,-80.0617 122.3172,-74.8353 121.0695,-81.7232"/>
</g>
<!-- builtins.object&#45;&gt;evans.rtm.RhythmTreeQuantizer -->
<g id="edge2" class="edge">
<title>builtins.object&#45;&gt;evans.rtm.RhythmTreeQuantizer</title>
<path fill="none" stroke="#778899" d="M58.5948,-58.6482C76.513,-54.9791 102.6455,-49.6281 124.4455,-45.1641"/>
<polygon fill="#778899" stroke="#778899" points="125.3326,-48.5552 134.4271,-43.1202 123.9283,-41.6975 125.3326,-48.5552"/>
</g>
<!-- builtins.object -->
<g id="node1" class="node">
<title>builtins.object</title>
<g id="a_node1"><a xlink:href="https://docs.python.org/3.7/library/functions.html#object" xlink:title="object" target="_top">
<path fill="#fbb4ae" stroke="#fbb4ae" stroke-width="2" d="M51.8576,-73.0056C51.8576,-73.0056 22.8269,-73.0056 22.8269,-73.0056 19.4918,-73.0056 16.1566,-69.6704 16.1566,-66.3352 16.1566,-66.3352 16.1566,-59.6648 16.1566,-59.6648 16.1566,-56.3296 19.4918,-52.9944 22.8269,-52.9944 22.8269,-52.9944 51.8576,-52.9944 51.8576,-52.9944 55.1928,-52.9944 58.528,-56.3296 58.528,-59.6648 58.528,-59.6648 58.528,-66.3352 58.528,-66.3352 58.528,-69.6704 55.1928,-73.0056 51.8576,-73.0056"/>
<text text-anchor="middle" x="37.3423" y="-60.7495" font-family="Arial" font-size="10.00" fill="#000000">object</text>
</a>
</g>
</g>
<!-- evans.rtm.RTMMaker -->
<g id="node2" class="node">
<title>evans.rtm.RTMMaker</title>
<g id="a_node2"><a xlink:href="../api/evans/rtm.html#evans.rtm.RTMMaker" xlink:title="RTMMaker" target="_top">
<path fill="#000000" stroke="#000000" stroke-width="2" d="M190.4088,-96.0056C190.4088,-96.0056 138.2231,-96.0056 138.2231,-96.0056 134.8879,-96.0056 131.5527,-92.6704 131.5527,-89.3352 131.5527,-89.3352 131.5527,-82.6648 131.5527,-82.6648 131.5527,-79.3296 134.8879,-75.9944 138.2231,-75.9944 138.2231,-75.9944 190.4088,-75.9944 190.4088,-75.9944 193.744,-75.9944 197.0791,-79.3296 197.0791,-82.6648 197.0791,-82.6648 197.0791,-89.3352 197.0791,-89.3352 197.0791,-92.6704 193.744,-96.0056 190.4088,-96.0056"/>
<text text-anchor="middle" x="164.3159" y="-83.7495" font-family="Arial" font-size="10.00" fill="#ffffff">RTMMaker</text>
</a>
</g>
</g>
<!-- evans.rtm.RhythmTreeQuantizer -->
<g id="node3" class="node">
<title>evans.rtm.RhythmTreeQuantizer</title>
<g id="a_node3"><a xlink:href="../api/evans/rtm.html#evans.rtm.RhythmTreeQuantizer" xlink:title="Rhythm\nTree\nQuantizer" target="_top">
<path fill="#000000" stroke="#000000" stroke-width="2" d="M182.1715,-58.5C182.1715,-58.5 146.4604,-58.5 146.4604,-58.5 140.4604,-58.5 134.4604,-52.5 134.4604,-46.5 134.4604,-46.5 134.4604,-27.5 134.4604,-27.5 134.4604,-21.5 140.4604,-15.5 146.4604,-15.5 146.4604,-15.5 182.1715,-15.5 182.1715,-15.5 188.1715,-15.5 194.1715,-21.5 194.1715,-27.5 194.1715,-27.5 194.1715,-46.5 194.1715,-46.5 194.1715,-52.5 188.1715,-58.5 182.1715,-58.5"/>
<text text-anchor="middle" x="164.3159" y="-46.2485" font-family="Arial" font-size="10.00" fill="#ffffff">Rhythm</text>
<text text-anchor="middle" x="164.3159" y="-34.7495" font-family="Arial" font-size="10.00" fill="#ffffff">Tree</text>
<text text-anchor="middle" x="164.3159" y="-23.2505" font-family="Arial" font-size="10.00" fill="#ffffff">Quantizer</text>
</a>
</g>
</g>
</g>
</svg>
