<?xml version="1.0" encoding="UTF-8" standalone="no"?>
<!DOCTYPE svg PUBLIC "-//W3C//DTD SVG 1.1//EN"
 "http://www.w3.org/Graphics/SVG/1.1/DTD/svg11.dtd">
<!-- Generated by graphviz version 2.40.1 (20161225.0304)
 -->
<!-- Title: InheritanceGraph Pages: 1 -->
<svg width="681pt" height="483pt"
 viewBox="0.00 0.00 681.42 483.00" xmlns="http://www.w3.org/2000/svg" xmlns:xlink="http://www.w3.org/1999/xlink">
<g id="graph0" class="graph" transform="scale(1 1) rotate(0) translate(4 479)">
<title>InheritanceGraph</title>
<g id="clust1" class="cluster">
<title>cluster_abjad.timespan</title>
<path fill="transparent" stroke="#bcd2ee" stroke-width="2" stroke-dasharray="5,2" d="M98.6846,-357C98.6846,-357 158.2197,-357 158.2197,-357 164.2197,-357 170.2197,-363 170.2197,-369 170.2197,-369 170.2197,-400 170.2197,-400 170.2197,-406 164.2197,-412 158.2197,-412 158.2197,-412 98.6846,-412 98.6846,-412 92.6846,-412 86.6846,-406 86.6846,-400 86.6846,-400 86.6846,-369 86.6846,-369 86.6846,-363 92.6846,-357 98.6846,-357"/>
<text text-anchor="middle" x="128.4521" y="-400" font-family="Arial" font-size="10.00" fill="#000000">abjad.timespan</text>
</g>
<g id="clust2" class="cluster">
<title>cluster_builtins</title>
<path fill="transparent" stroke="#bcd2ee" stroke-width="2" stroke-dasharray="5,2" d="M20,-192C20,-192 54.6846,-192 54.6846,-192 60.6846,-192 66.6846,-198 66.6846,-204 66.6846,-204 66.6846,-235 66.6846,-235 66.6846,-241 60.6846,-247 54.6846,-247 54.6846,-247 20,-247 20,-247 14,-247 8,-241 8,-235 8,-235 8,-204 8,-204 8,-198 14,-192 20,-192"/>
<text text-anchor="middle" x="37.3423" y="-235" font-family="Arial" font-size="10.00" fill="#000000">builtins</text>
</g>
<g id="clust4" class="cluster">
<title>cluster_tsmakers.tree</title>
<path fill="transparent" stroke="#bcd2ee" stroke-width="2" stroke-dasharray="5,2" d="M202.2197,-8C202.2197,-8 254.7549,-8 254.7549,-8 260.7549,-8 266.7549,-14 266.7549,-20 266.7549,-20 266.7549,-123 266.7549,-123 266.7549,-129 260.7549,-135 254.7549,-135 254.7549,-135 202.2197,-135 202.2197,-135 196.2197,-135 190.2197,-129 190.2197,-123 190.2197,-123 190.2197,-20 190.2197,-20 190.2197,-14 196.2197,-8 202.2197,-8"/>
<text text-anchor="middle" x="228.4873" y="-123" font-family="Arial" font-size="10.00" fill="#000000">tsmakers.tree</text>
</g>
<g id="clust3" class="cluster">
<title>cluster_tsmakers</title>
<path fill="transparent" stroke="#bcd2ee" stroke-width="2" stroke-dasharray="5,2" d="M298.7549,-96C298.7549,-96 653.4189,-96 653.4189,-96 659.4189,-96 665.4189,-102 665.4189,-108 665.4189,-108 665.4189,-455 665.4189,-455 665.4189,-461 659.4189,-467 653.4189,-467 653.4189,-467 298.7549,-467 298.7549,-467 292.7549,-467 286.7549,-461 286.7549,-455 286.7549,-455 286.7549,-108 286.7549,-108 286.7549,-102 292.7549,-96 298.7549,-96"/>
<text text-anchor="middle" x="476.0869" y="-455" font-family="Arial" font-size="10.00" fill="#000000">tsmakers</text>
</g>
<!-- abjad.timespan.Timespan&#45;&gt;tsmakers.PerformedTimespan.PerformedTimespan -->
<g id="edge8" class="edge">
<title>abjad.timespan.Timespan&#45;&gt;tsmakers.PerformedTimespan.PerformedTimespan</title>
<path fill="none" stroke="#778899" d="M158.0416,-382.3358C191.7509,-390.693 247.0588,-404.4049 284.9552,-413.8001"/>
<polygon fill="#778899" stroke="#778899" points="284.1213,-417.1993 294.6697,-416.2085 285.8058,-410.4049 284.1213,-417.1993"/>
</g>
<!-- abjad.timespan.Timespan&#45;&gt;tsmakers.SilentTimespan.SilentTimespan -->
<g id="edge9" class="edge">
<title>abjad.timespan.Timespan&#45;&gt;tsmakers.SilentTimespan.SilentTimespan</title>
<path fill="none" stroke="#778899" d="M158.0416,-375C192.0997,-375 248.2054,-375 286.1257,-375"/>
<polygon fill="#778899" stroke="#778899" points="286.3055,-378.5001 296.3054,-375 286.3054,-371.5001 286.3055,-378.5001"/>
</g>
<!-- builtins.object&#45;&gt;abjad.timespan.Timespan -->
<g id="edge10" class="edge">
<title>builtins.object&#45;&gt;abjad.timespan.Timespan</title>
<path fill="none" stroke="#778899" d="M39.2446,-220.0519C44.0044,-243.2069 58.1472,-301.3538 86.6846,-341 91.4163,-347.5737 97.7282,-353.5916 104.0091,-358.6771"/>
<polygon fill="#778899" stroke="#778899" points="102.3097,-361.7788 112.4034,-364.9987 106.5207,-356.1871 102.3097,-361.7788"/>
</g>
<!-- builtins.object&#45;&gt;tsmakers.Cursor.Cursor -->
<g id="edge11" class="edge">
<title>builtins.object&#45;&gt;tsmakers.Cursor.Cursor</title>
<path fill="none" stroke="#778899" d="M46.6937,-219.9115C56.038,-229.3125 71.2056,-243.2636 86.6846,-252 155.1293,-290.6307 245.1727,-314.3976 292.9623,-325.1675"/>
<polygon fill="#778899" stroke="#778899" points="292.2554,-328.5956 302.7743,-327.3291 293.7614,-321.7595 292.2554,-328.5956"/>
</g>
<!-- builtins.object&#45;&gt;tsmakers.HashCachingObject.HashCachingObject -->
<g id="edge12" class="edge">
<title>builtins.object&#45;&gt;tsmakers.HashCachingObject.HashCachingObject</title>
<path fill="none" stroke="#778899" d="M58.7654,-218.4717C67.3639,-221.6988 77.4164,-225.2564 86.6846,-228 157.5881,-248.9891 242.2712,-266.7765 289.5432,-276.071"/>
<polygon fill="#778899" stroke="#778899" points="289.1197,-279.5543 299.6046,-278.0318 290.4588,-272.6835 289.1197,-279.5543"/>
</g>
<!-- builtins.object&#45;&gt;tsmakers.MusicSpecifierSequence.MusicSpecifierSequence -->
<g id="edge13" class="edge">
<title>builtins.object&#45;&gt;tsmakers.MusicSpecifierSequence.MusicSpecifierSequence</title>
<path fill="none" stroke="#778899" d="M58.5751,-210.9559C106.3458,-213.1066 222.962,-218.3568 285.2708,-221.162"/>
<polygon fill="#778899" stroke="#778899" points="285.3683,-224.6698 295.5156,-221.6232 285.6832,-217.6769 285.3683,-224.6698"/>
</g>
<!-- builtins.object&#45;&gt;tsmakers.TimespanMaker.TimespanMaker -->
<g id="edge14" class="edge">
<title>builtins.object&#45;&gt;tsmakers.TimespanMaker.TimespanMaker</title>
<path fill="none" stroke="#778899" d="M58.5751,-206.9116C106.592,-199.9275 224.166,-182.8261 286.23,-173.7988"/>
<polygon fill="#778899" stroke="#778899" points="287.0278,-177.2196 296.4198,-172.3166 286.0202,-170.2925 287.0278,-177.2196"/>
</g>
<!-- builtins.object&#45;&gt;tsmakers.TimespanSpecifier.TimespanSpecifier -->
<g id="edge15" class="edge">
<title>builtins.object&#45;&gt;tsmakers.TimespanSpecifier.TimespanSpecifier</title>
<path fill="none" stroke="#778899" d="M55.245,-200.2316C64.4503,-195.4839 75.9623,-189.9627 86.6846,-186 164.268,-157.3267 187.5008,-162.6671 266.7549,-139 273.2641,-137.0562 280.131,-134.8698 286.7934,-132.675"/>
<polygon fill="#778899" stroke="#778899" points="287.9694,-135.9723 296.3425,-129.4807 285.7487,-129.3339 287.9694,-135.9723"/>
</g>
<!-- builtins.object&#45;&gt;tsmakers.tree.TimespanTree -->
<g id="edge16" class="edge">
<title>builtins.object&#45;&gt;tsmakers.tree.TimespanTree</title>
<path fill="none" stroke="#778899" d="M41.6077,-200.2367C48.754,-184.9852 64.5686,-155.545 86.6846,-139 116.6838,-116.5576 157.9982,-104.4627 188.2045,-98.1918"/>
<polygon fill="#778899" stroke="#778899" points="189.2419,-101.5556 198.3888,-96.2091 187.9042,-94.6846 189.2419,-101.5556"/>
</g>
<!-- builtins.object&#45;&gt;tsmakers.tree.TimespanTreeNode -->
<g id="edge17" class="edge">
<title>builtins.object&#45;&gt;tsmakers.tree.TimespanTreeNode</title>
<path fill="none" stroke="#778899" d="M39.1282,-200.2453C43.5051,-178.9421 56.6748,-127.7872 86.6846,-98 114.627,-70.2648 157.2137,-54.2487 188.3309,-45.6494"/>
<polygon fill="#778899" stroke="#778899" points="189.619,-48.9302 198.4062,-43.0113 187.8458,-42.1585 189.619,-48.9302"/>
</g>
<!-- tsmakers.HashCachingObject.HashCachingObject&#45;&gt;tsmakers.CompositeMusicSpecifier.CompositeMusicSpecifier -->
<g id="edge1" class="edge">
<title>tsmakers.HashCachingObject.HashCachingObject&#45;&gt;tsmakers.CompositeMusicSpecifier.CompositeMusicSpecifier</title>
<path fill="none" stroke="#778899" d="M352.4314,-294.145C362.0157,-298.2011 373.099,-302.8917 383.6855,-307.372"/>
<polygon fill="#778899" stroke="#778899" points="382.6374,-310.729 393.2108,-311.4032 385.3657,-304.2825 382.6374,-310.729"/>
</g>
<!-- tsmakers.HashCachingObject.HashCachingObject&#45;&gt;tsmakers.MusicSpecifier.MusicSpecifier -->
<g id="edge2" class="edge">
<title>tsmakers.HashCachingObject.HashCachingObject&#45;&gt;tsmakers.MusicSpecifier.MusicSpecifier</title>
<path fill="none" stroke="#778899" d="M352.343,-284.4181C378.9036,-286.0835 421.0945,-289.3613 457.2373,-295 467.1143,-296.5409 477.7072,-298.6627 487.5095,-300.8256"/>
<polygon fill="#778899" stroke="#778899" points="486.8479,-304.2644 497.3754,-303.0718 488.4019,-297.4391 486.8479,-304.2644"/>
</g>
<!-- tsmakers.TimespanMaker.TimespanMaker&#45;&gt;tsmakers.BoundaryTimespanMaker.BoundaryTimespanMaker -->
<g id="edge3" class="edge">
<title>tsmakers.TimespanMaker.TimespanMaker&#45;&gt;tsmakers.BoundaryTimespanMaker.BoundaryTimespanMaker</title>
<path fill="none" stroke="#778899" d="M353.2153,-183.5755C363.54,-189.5056 375.5138,-196.3829 386.703,-202.8095"/>
<polygon fill="#778899" stroke="#778899" points="385.0471,-205.8946 395.4618,-207.8402 388.5335,-199.8246 385.0471,-205.8946"/>
</g>
<!-- tsmakers.TimespanMaker.TimespanMaker&#45;&gt;tsmakers.CascadingTimespanMaker.CascadingTimespanMaker -->
<g id="edge4" class="edge">
<title>tsmakers.TimespanMaker.TimespanMaker&#45;&gt;tsmakers.CascadingTimespanMaker.CascadingTimespanMaker</title>
<path fill="none" stroke="#778899" d="M347.9585,-183.6816C351.3289,-186.5811 354.6207,-189.7324 357.4395,-193 378.2524,-217.1274 365.8249,-239.1021 393.4395,-255 420.3538,-270.4948 455.8002,-269.5129 483.0974,-265.1949"/>
<polygon fill="#778899" stroke="#778899" points="483.8967,-268.6076 493.1256,-263.404 482.666,-261.7166 483.8967,-268.6076"/>
</g>
<!-- tsmakers.TimespanMaker.TimespanMaker&#45;&gt;tsmakers.DependentTimespanMaker.DependentTimespanMaker -->
<g id="edge5" class="edge">
<title>tsmakers.TimespanMaker.TimespanMaker&#45;&gt;tsmakers.DependentTimespanMaker.DependentTimespanMaker</title>
<path fill="none" stroke="#778899" d="M345.6587,-152.4816C365.2843,-136.9306 392.7189,-115.2495 393.4395,-115 456.4817,-93.1674 534.9969,-103.8165 582.485,-114.0267"/>
<polygon fill="#778899" stroke="#778899" points="581.8954,-117.4813 592.4189,-116.2541 583.427,-110.6509 581.8954,-117.4813"/>
</g>
<!-- tsmakers.TimespanMaker.TimespanMaker&#45;&gt;tsmakers.FloodedTimespanMaker.FloodedTimespanMaker -->
<g id="edge6" class="edge">
<title>tsmakers.TimespanMaker.TimespanMaker&#45;&gt;tsmakers.FloodedTimespanMaker.FloodedTimespanMaker</title>
<path fill="none" stroke="#778899" d="M355.8728,-161.0992C365.1952,-158.9387 375.6364,-156.5189 385.5348,-154.2248"/>
<polygon fill="#778899" stroke="#778899" points="386.6322,-157.5633 395.5838,-151.8959 385.0517,-150.7441 386.6322,-157.5633"/>
</g>
<!-- tsmakers.TimespanMaker.TimespanMaker&#45;&gt;tsmakers.TaleaTimespanMaker.TaleaTimespanMaker -->
<g id="edge7" class="edge">
<title>tsmakers.TimespanMaker.TimespanMaker&#45;&gt;tsmakers.TaleaTimespanMaker.TaleaTimespanMaker</title>
<path fill="none" stroke="#778899" d="M355.9159,-171.2785C367.6094,-172.5173 381.1471,-173.8937 393.4395,-175 424.0863,-177.7582 458.7993,-180.378 484.8505,-182.2437"/>
<polygon fill="#778899" stroke="#778899" points="484.8691,-185.7537 495.0918,-182.9703 485.3646,-178.7713 484.8691,-185.7537"/>
</g>
<!-- abjad.timespan.Timespan -->
<g id="node1" class="node">
<title>abjad.timespan.Timespan</title>
<path fill="#fbb4ae" stroke="#fbb4ae" stroke-width="2" d="M151.3187,-385.0056C151.3187,-385.0056 105.5856,-385.0056 105.5856,-385.0056 102.2504,-385.0056 98.9152,-381.6704 98.9152,-378.3352 98.9152,-378.3352 98.9152,-371.6648 98.9152,-371.6648 98.9152,-368.3296 102.2504,-364.9944 105.5856,-364.9944 105.5856,-364.9944 151.3187,-364.9944 151.3187,-364.9944 154.6539,-364.9944 157.9891,-368.3296 157.9891,-371.6648 157.9891,-371.6648 157.9891,-378.3352 157.9891,-378.3352 157.9891,-381.6704 154.6539,-385.0056 151.3187,-385.0056"/>
<text text-anchor="middle" x="128.4521" y="-372.7495" font-family="Arial" font-size="10.00" fill="#000000">Timespan</text>
</g>
<!-- builtins.object -->
<g id="node2" class="node">
<title>builtins.object</title>
<g id="a_node2"><a xlink:href="https://docs.python.org/3.7/library/functions.html#object" xlink:title="object" target="_top">
<path fill="#b3cde3" stroke="#b3cde3" stroke-width="2" d="M51.8576,-220.0056C51.8576,-220.0056 22.8269,-220.0056 22.8269,-220.0056 19.4918,-220.0056 16.1566,-216.6704 16.1566,-213.3352 16.1566,-213.3352 16.1566,-206.6648 16.1566,-206.6648 16.1566,-203.3296 19.4918,-199.9944 22.8269,-199.9944 22.8269,-199.9944 51.8576,-199.9944 51.8576,-199.9944 55.1928,-199.9944 58.528,-203.3296 58.528,-206.6648 58.528,-206.6648 58.528,-213.3352 58.528,-213.3352 58.528,-216.6704 55.1928,-220.0056 51.8576,-220.0056"/>
<text text-anchor="middle" x="37.3423" y="-207.7495" font-family="Arial" font-size="10.00" fill="#000000">object</text>
</a>
</g>
</g>
<!-- tsmakers.BoundaryTimespanMaker.BoundaryTimespanMaker -->
<g id="node3" class="node">
<title>tsmakers.BoundaryTimespanMaker.BoundaryTimespanMaker</title>
<g id="a_node3"><a xlink:href="../api/tsmakers/BoundaryTimespanMaker.html#tsmakers.BoundaryTimespanMaker.BoundaryTimespanMaker" xlink:title="Boundary\nTimespan\nMaker" target="_top">
<path fill="#000000" stroke="#000000" stroke-width="2" d="M442.8753,-246.5C442.8753,-246.5 407.8014,-246.5 407.8014,-246.5 401.8014,-246.5 395.8014,-240.5 395.8014,-234.5 395.8014,-234.5 395.8014,-215.5 395.8014,-215.5 395.8014,-209.5 401.8014,-203.5 407.8014,-203.5 407.8014,-203.5 442.8753,-203.5 442.8753,-203.5 448.8753,-203.5 454.8753,-209.5 454.8753,-215.5 454.8753,-215.5 454.8753,-234.5 454.8753,-234.5 454.8753,-240.5 448.8753,-246.5 442.8753,-246.5"/>
<text text-anchor="middle" x="425.3384" y="-234.2485" font-family="Arial" font-size="10.00" fill="#ffffff">Boundary</text>
<text text-anchor="middle" x="425.3384" y="-222.7495" font-family="Arial" font-size="10.00" fill="#ffffff">Timespan</text>
<text text-anchor="middle" x="425.3384" y="-211.2505" font-family="Arial" font-size="10.00" fill="#ffffff">Maker</text>
</a>
</g>
</g>
<!-- tsmakers.CascadingTimespanMaker.CascadingTimespanMaker -->
<g id="node4" class="node">
<title>tsmakers.CascadingTimespanMaker.CascadingTimespanMaker</title>
<g id="a_node4"><a xlink:href="../api/tsmakers/CascadingTimespanMaker.html#tsmakers.CascadingTimespanMaker.CascadingTimespanMaker" xlink:title="Cascading\nTimespan\nMaker" target="_top">
<path fill="#000000" stroke="#000000" stroke-width="2" d="M544.6143,-276.5C544.6143,-276.5 505.1113,-276.5 505.1113,-276.5 499.1113,-276.5 493.1113,-270.5 493.1113,-264.5 493.1113,-264.5 493.1113,-245.5 493.1113,-245.5 493.1113,-239.5 499.1113,-233.5 505.1113,-233.5 505.1113,-233.5 544.6143,-233.5 544.6143,-233.5 550.6143,-233.5 556.6143,-239.5 556.6143,-245.5 556.6143,-245.5 556.6143,-264.5 556.6143,-264.5 556.6143,-270.5 550.6143,-276.5 544.6143,-276.5"/>
<text text-anchor="middle" x="524.8628" y="-264.2485" font-family="Arial" font-size="10.00" fill="#ffffff">Cascading</text>
<text text-anchor="middle" x="524.8628" y="-252.7495" font-family="Arial" font-size="10.00" fill="#ffffff">Timespan</text>
<text text-anchor="middle" x="524.8628" y="-241.2505" font-family="Arial" font-size="10.00" fill="#ffffff">Maker</text>
</a>
</g>
</g>
<!-- tsmakers.CompositeMusicSpecifier.CompositeMusicSpecifier -->
<g id="node5" class="node">
<title>tsmakers.CompositeMusicSpecifier.CompositeMusicSpecifier</title>
<g id="a_node5"><a xlink:href="../api/tsmakers/CompositeMusicSpecifier.html#tsmakers.CompositeMusicSpecifier.CompositeMusicSpecifier" xlink:title="Composite\nMusic\nSpecifier" target="_top">
<path fill="#000000" stroke="#000000" stroke-width="2" d="M445.1365,-346.5C445.1365,-346.5 405.5402,-346.5 405.5402,-346.5 399.5402,-346.5 393.5402,-340.5 393.5402,-334.5 393.5402,-334.5 393.5402,-315.5 393.5402,-315.5 393.5402,-309.5 399.5402,-303.5 405.5402,-303.5 405.5402,-303.5 445.1365,-303.5 445.1365,-303.5 451.1365,-303.5 457.1365,-309.5 457.1365,-315.5 457.1365,-315.5 457.1365,-334.5 457.1365,-334.5 457.1365,-340.5 451.1365,-346.5 445.1365,-346.5"/>
<text text-anchor="middle" x="425.3384" y="-334.2485" font-family="Arial" font-size="10.00" fill="#ffffff">Composite</text>
<text text-anchor="middle" x="425.3384" y="-322.7495" font-family="Arial" font-size="10.00" fill="#ffffff">Music</text>
<text text-anchor="middle" x="425.3384" y="-311.2505" font-family="Arial" font-size="10.00" fill="#ffffff">Specifier</text>
</a>
</g>
</g>
<!-- tsmakers.Cursor.Cursor -->
<g id="node6" class="node">
<title>tsmakers.Cursor.Cursor</title>
<g id="a_node6"><a xlink:href="../api/tsmakers/Cursor.html#tsmakers.Cursor.Cursor" xlink:title="Cursor" target="_top">
<path fill="#000000" stroke="#000000" stroke-width="2" d="M342.4317,-342.0056C342.4317,-342.0056 309.7627,-342.0056 309.7627,-342.0056 306.4275,-342.0056 303.0923,-338.6704 303.0923,-335.3352 303.0923,-335.3352 303.0923,-328.6648 303.0923,-328.6648 303.0923,-325.3296 306.4275,-321.9944 309.7627,-321.9944 309.7627,-321.9944 342.4317,-321.9944 342.4317,-321.9944 345.7669,-321.9944 349.1021,-325.3296 349.1021,-328.6648 349.1021,-328.6648 349.1021,-335.3352 349.1021,-335.3352 349.1021,-338.6704 345.7669,-342.0056 342.4317,-342.0056"/>
<text text-anchor="middle" x="326.0972" y="-329.7495" font-family="Arial" font-size="10.00" fill="#ffffff">Cursor</text>
</a>
</g>
</g>
<!-- tsmakers.DependentTimespanMaker.DependentTimespanMaker -->
<g id="node7" class="node">
<title>tsmakers.DependentTimespanMaker.DependentTimespanMaker</title>
<g id="a_node7"><a xlink:href="../api/tsmakers/DependentTimespanMaker.html#tsmakers.DependentTimespanMaker.DependentTimespanMaker" xlink:title="Dependent\nTimespan\nMaker" target="_top">
<path fill="#000000" stroke="#000000" stroke-width="2" d="M645.3843,-146.5C645.3843,-146.5 604.5229,-146.5 604.5229,-146.5 598.5229,-146.5 592.5229,-140.5 592.5229,-134.5 592.5229,-134.5 592.5229,-115.5 592.5229,-115.5 592.5229,-109.5 598.5229,-103.5 604.5229,-103.5 604.5229,-103.5 645.3843,-103.5 645.3843,-103.5 651.3843,-103.5 657.3843,-109.5 657.3843,-115.5 657.3843,-115.5 657.3843,-134.5 657.3843,-134.5 657.3843,-140.5 651.3843,-146.5 645.3843,-146.5"/>
<text text-anchor="middle" x="624.9536" y="-134.2485" font-family="Arial" font-size="10.00" fill="#ffffff">Dependent</text>
<text text-anchor="middle" x="624.9536" y="-122.7495" font-family="Arial" font-size="10.00" fill="#ffffff">Timespan</text>
<text text-anchor="middle" x="624.9536" y="-111.2505" font-family="Arial" font-size="10.00" fill="#ffffff">Maker</text>
</a>
</g>
</g>
<!-- tsmakers.FloodedTimespanMaker.FloodedTimespanMaker -->
<g id="node8" class="node">
<title>tsmakers.FloodedTimespanMaker.FloodedTimespanMaker</title>
<g id="a_node8"><a xlink:href="../api/tsmakers/FloodedTimespanMaker.html#tsmakers.FloodedTimespanMaker.FloodedTimespanMaker" xlink:title="Flooded\nTimespan\nMaker" target="_top">
<path fill="#000000" stroke="#000000" stroke-width="2" d="M442.8753,-166.5C442.8753,-166.5 407.8014,-166.5 407.8014,-166.5 401.8014,-166.5 395.8014,-160.5 395.8014,-154.5 395.8014,-154.5 395.8014,-135.5 395.8014,-135.5 395.8014,-129.5 401.8014,-123.5 407.8014,-123.5 407.8014,-123.5 442.8753,-123.5 442.8753,-123.5 448.8753,-123.5 454.8753,-129.5 454.8753,-135.5 454.8753,-135.5 454.8753,-154.5 454.8753,-154.5 454.8753,-160.5 448.8753,-166.5 442.8753,-166.5"/>
<text text-anchor="middle" x="425.3384" y="-154.2485" font-family="Arial" font-size="10.00" fill="#ffffff">Flooded</text>
<text text-anchor="middle" x="425.3384" y="-142.7495" font-family="Arial" font-size="10.00" fill="#ffffff">Timespan</text>
<text text-anchor="middle" x="425.3384" y="-131.2505" font-family="Arial" font-size="10.00" fill="#ffffff">Maker</text>
</a>
</g>
</g>
<!-- tsmakers.HashCachingObject.HashCachingObject -->
<g id="node9" class="node">
<title>tsmakers.HashCachingObject.HashCachingObject</title>
<g id="a_node9"><a xlink:href="../api/tsmakers/HashCachingObject.html#tsmakers.HashCachingObject.HashCachingObject" xlink:title="Hash\nCaching\nObject" target="_top">
<path fill="#000000" stroke="#000000" stroke-width="2" d="M340.2875,-304.5C340.2875,-304.5 311.9068,-304.5 311.9068,-304.5 305.9068,-304.5 299.9068,-298.5 299.9068,-292.5 299.9068,-292.5 299.9068,-273.5 299.9068,-273.5 299.9068,-267.5 305.9068,-261.5 311.9068,-261.5 311.9068,-261.5 340.2875,-261.5 340.2875,-261.5 346.2875,-261.5 352.2875,-267.5 352.2875,-273.5 352.2875,-273.5 352.2875,-292.5 352.2875,-292.5 352.2875,-298.5 346.2875,-304.5 340.2875,-304.5"/>
<text text-anchor="middle" x="326.0972" y="-292.2485" font-family="Arial" font-size="10.00" fill="#ffffff">Hash</text>
<text text-anchor="middle" x="326.0972" y="-280.7495" font-family="Arial" font-size="10.00" fill="#ffffff">Caching</text>
<text text-anchor="middle" x="326.0972" y="-269.2505" font-family="Arial" font-size="10.00" fill="#ffffff">Object</text>
</a>
</g>
</g>
<!-- tsmakers.MusicSpecifier.MusicSpecifier -->
<g id="node10" class="node">
<title>tsmakers.MusicSpecifier.MusicSpecifier</title>
<g id="a_node10"><a xlink:href="../api/tsmakers/MusicSpecifier.html#tsmakers.MusicSpecifier.MusicSpecifier" xlink:title="Music\nSpecifier" target="_top">
<path fill="#000000" stroke="#000000" stroke-width="2" d="M541.9371,-325.498C541.9371,-325.498 507.7885,-325.498 507.7885,-325.498 502.6225,-325.498 497.4565,-320.332 497.4565,-315.166 497.4565,-315.166 497.4565,-304.834 497.4565,-304.834 497.4565,-299.668 502.6225,-294.502 507.7885,-294.502 507.7885,-294.502 541.9371,-294.502 541.9371,-294.502 547.1031,-294.502 552.2691,-299.668 552.2691,-304.834 552.2691,-304.834 552.2691,-315.166 552.2691,-315.166 552.2691,-320.332 547.1031,-325.498 541.9371,-325.498"/>
<text text-anchor="middle" x="524.8628" y="-313.499" font-family="Arial" font-size="10.00" fill="#ffffff">Music</text>
<text text-anchor="middle" x="524.8628" y="-302" font-family="Arial" font-size="10.00" fill="#ffffff">Specifier</text>
</a>
</g>
</g>
<!-- tsmakers.MusicSpecifierSequence.MusicSpecifierSequence -->
<g id="node11" class="node">
<title>tsmakers.MusicSpecifierSequence.MusicSpecifierSequence</title>
<g id="a_node11"><a xlink:href="../api/tsmakers/MusicSpecifierSequence.html#tsmakers.MusicSpecifierSequence.MusicSpecifierSequence" xlink:title="Music\nSpecifier\nSequence" target="_top">
<path fill="#000000" stroke="#000000" stroke-width="2" d="M344.6362,-244.5C344.6362,-244.5 307.5581,-244.5 307.5581,-244.5 301.5581,-244.5 295.5581,-238.5 295.5581,-232.5 295.5581,-232.5 295.5581,-213.5 295.5581,-213.5 295.5581,-207.5 301.5581,-201.5 307.5581,-201.5 307.5581,-201.5 344.6362,-201.5 344.6362,-201.5 350.6362,-201.5 356.6362,-207.5 356.6362,-213.5 356.6362,-213.5 356.6362,-232.5 356.6362,-232.5 356.6362,-238.5 350.6362,-244.5 344.6362,-244.5"/>
<text text-anchor="middle" x="326.0972" y="-232.2485" font-family="Arial" font-size="10.00" fill="#ffffff">Music</text>
<text text-anchor="middle" x="326.0972" y="-220.7495" font-family="Arial" font-size="10.00" fill="#ffffff">Specifier</text>
<text text-anchor="middle" x="326.0972" y="-209.2505" font-family="Arial" font-size="10.00" fill="#ffffff">Sequence</text>
</a>
</g>
</g>
<!-- tsmakers.PerformedTimespan.PerformedTimespan -->
<g id="node12" class="node">
<title>tsmakers.PerformedTimespan.PerformedTimespan</title>
<g id="a_node12"><a xlink:href="../api/tsmakers/PerformedTimespan.html#tsmakers.PerformedTimespan.PerformedTimespan" xlink:title="Performed\nTimespan" target="_top">
<path fill="#000000" stroke="#000000" stroke-width="2" d="M346.9505,-439.498C346.9505,-439.498 305.2438,-439.498 305.2438,-439.498 300.0778,-439.498 294.9118,-434.332 294.9118,-429.166 294.9118,-429.166 294.9118,-418.834 294.9118,-418.834 294.9118,-413.668 300.0778,-408.502 305.2438,-408.502 305.2438,-408.502 346.9505,-408.502 346.9505,-408.502 352.1165,-408.502 357.2825,-413.668 357.2825,-418.834 357.2825,-418.834 357.2825,-429.166 357.2825,-429.166 357.2825,-434.332 352.1165,-439.498 346.9505,-439.498"/>
<text text-anchor="middle" x="326.0972" y="-427.499" font-family="Arial" font-size="10.00" fill="#ffffff">Performed</text>
<text text-anchor="middle" x="326.0972" y="-416" font-family="Arial" font-size="10.00" fill="#ffffff">Timespan</text>
</a>
</g>
</g>
<!-- tsmakers.SilentTimespan.SilentTimespan -->
<g id="node13" class="node">
<title>tsmakers.SilentTimespan.SilentTimespan</title>
<g id="a_node13"><a xlink:href="../api/tsmakers/SilentTimespan.html#tsmakers.SilentTimespan.SilentTimespan" xlink:title="Silent\nTimespan" target="_top">
<path fill="#000000" stroke="#000000" stroke-width="2" d="M345.3021,-390.498C345.3021,-390.498 306.8922,-390.498 306.8922,-390.498 301.7262,-390.498 296.5602,-385.332 296.5602,-380.166 296.5602,-380.166 296.5602,-369.834 296.5602,-369.834 296.5602,-364.668 301.7262,-359.502 306.8922,-359.502 306.8922,-359.502 345.3021,-359.502 345.3021,-359.502 350.4681,-359.502 355.6341,-364.668 355.6341,-369.834 355.6341,-369.834 355.6341,-380.166 355.6341,-380.166 355.6341,-385.332 350.4681,-390.498 345.3021,-390.498"/>
<text text-anchor="middle" x="326.0972" y="-378.499" font-family="Arial" font-size="10.00" fill="#ffffff">Silent</text>
<text text-anchor="middle" x="326.0972" y="-367" font-family="Arial" font-size="10.00" fill="#ffffff">Timespan</text>
</a>
</g>
</g>
<!-- tsmakers.TaleaTimespanMaker.TaleaTimespanMaker -->
<g id="node14" class="node">
<title>tsmakers.TaleaTimespanMaker.TaleaTimespanMaker</title>
<g id="a_node14"><a xlink:href="../api/tsmakers/TaleaTimespanMaker.html#tsmakers.TaleaTimespanMaker.TaleaTimespanMaker" xlink:title="Talea\nTimespan\nMaker" target="_top">
<path fill="#000000" stroke="#000000" stroke-width="2" d="M542.3997,-206.5C542.3997,-206.5 507.3258,-206.5 507.3258,-206.5 501.3258,-206.5 495.3258,-200.5 495.3258,-194.5 495.3258,-194.5 495.3258,-175.5 495.3258,-175.5 495.3258,-169.5 501.3258,-163.5 507.3258,-163.5 507.3258,-163.5 542.3997,-163.5 542.3997,-163.5 548.3997,-163.5 554.3997,-169.5 554.3997,-175.5 554.3997,-175.5 554.3997,-194.5 554.3997,-194.5 554.3997,-200.5 548.3997,-206.5 542.3997,-206.5"/>
<text text-anchor="middle" x="524.8628" y="-194.2485" font-family="Arial" font-size="10.00" fill="#ffffff">Talea</text>
<text text-anchor="middle" x="524.8628" y="-182.7495" font-family="Arial" font-size="10.00" fill="#ffffff">Timespan</text>
<text text-anchor="middle" x="524.8628" y="-171.2505" font-family="Arial" font-size="10.00" fill="#ffffff">Maker</text>
</a>
</g>
</g>
<!-- tsmakers.TimespanMaker.TimespanMaker -->
<g id="node15" class="node">
<title>tsmakers.TimespanMaker.TimespanMaker</title>
<g id="a_node15"><a xlink:href="../api/tsmakers/TimespanMaker.html#tsmakers.TimespanMaker.TimespanMaker" xlink:title="Timespan\nMaker" target="_top">
<path fill="#000000" stroke="#000000" stroke-width="2" d="M345.3021,-183.498C345.3021,-183.498 306.8922,-183.498 306.8922,-183.498 301.7262,-183.498 296.5602,-178.332 296.5602,-173.166 296.5602,-173.166 296.5602,-162.834 296.5602,-162.834 296.5602,-157.668 301.7262,-152.502 306.8922,-152.502 306.8922,-152.502 345.3021,-152.502 345.3021,-152.502 350.4681,-152.502 355.6341,-157.668 355.6341,-162.834 355.6341,-162.834 355.6341,-173.166 355.6341,-173.166 355.6341,-178.332 350.4681,-183.498 345.3021,-183.498"/>
<text text-anchor="middle" x="326.0972" y="-171.499" font-family="Arial" font-size="10.00" fill="#ffffff">Timespan</text>
<text text-anchor="middle" x="326.0972" y="-160" font-family="Arial" font-size="10.00" fill="#ffffff">Maker</text>
</a>
</g>
</g>
<!-- tsmakers.TimespanSpecifier.TimespanSpecifier -->
<g id="node16" class="node">
<title>tsmakers.TimespanSpecifier.TimespanSpecifier</title>
<g id="a_node16"><a xlink:href="../api/tsmakers/TimespanSpecifier.html#tsmakers.TimespanSpecifier.TimespanSpecifier" xlink:title="Timespan\nSpecifier" target="_top">
<path fill="#000000" stroke="#000000" stroke-width="2" d="M345.3021,-134.498C345.3021,-134.498 306.8922,-134.498 306.8922,-134.498 301.7262,-134.498 296.5602,-129.332 296.5602,-124.166 296.5602,-124.166 296.5602,-113.834 296.5602,-113.834 296.5602,-108.668 301.7262,-103.502 306.8922,-103.502 306.8922,-103.502 345.3021,-103.502 345.3021,-103.502 350.4681,-103.502 355.6341,-108.668 355.6341,-113.834 355.6341,-113.834 355.6341,-124.166 355.6341,-124.166 355.6341,-129.332 350.4681,-134.498 345.3021,-134.498"/>
<text text-anchor="middle" x="326.0972" y="-122.499" font-family="Arial" font-size="10.00" fill="#ffffff">Timespan</text>
<text text-anchor="middle" x="326.0972" y="-111" font-family="Arial" font-size="10.00" fill="#ffffff">Specifier</text>
</a>
</g>
</g>
<!-- tsmakers.tree.TimespanTree -->
<g id="node17" class="node">
<title>tsmakers.tree.TimespanTree</title>
<g id="a_node17"><a xlink:href="../api/tsmakers/tree.html#tsmakers.tree.TimespanTree" xlink:title="Timespan\nTree" target="_top">
<path fill="#decbe4" stroke="#decbe4" stroke-width="2" d="M247.1922,-107.498C247.1922,-107.498 208.7824,-107.498 208.7824,-107.498 203.6164,-107.498 198.4503,-102.332 198.4503,-97.166 198.4503,-97.166 198.4503,-86.834 198.4503,-86.834 198.4503,-81.668 203.6164,-76.502 208.7824,-76.502 208.7824,-76.502 247.1922,-76.502 247.1922,-76.502 252.3582,-76.502 257.5243,-81.668 257.5243,-86.834 257.5243,-86.834 257.5243,-97.166 257.5243,-97.166 257.5243,-102.332 252.3582,-107.498 247.1922,-107.498"/>
<text text-anchor="middle" x="227.9873" y="-95.499" font-family="Arial" font-size="10.00" fill="#000000">Timespan</text>
<text text-anchor="middle" x="227.9873" y="-84" font-family="Arial" font-size="10.00" fill="#000000">Tree</text>
</a>
</g>
</g>
<!-- tsmakers.tree.TimespanTreeNode -->
<g id="node18" class="node">
<title>tsmakers.tree.TimespanTreeNode</title>
<g id="a_node18"><a xlink:href="../api/tsmakers/tree.html#tsmakers.tree.TimespanTreeNode" xlink:title="Timespan\nTree\nNode" target="_top">
<path fill="#decbe4" stroke="#decbe4" stroke-width="2" d="M245.5243,-58.5C245.5243,-58.5 210.4503,-58.5 210.4503,-58.5 204.4503,-58.5 198.4503,-52.5 198.4503,-46.5 198.4503,-46.5 198.4503,-27.5 198.4503,-27.5 198.4503,-21.5 204.4503,-15.5 210.4503,-15.5 210.4503,-15.5 245.5243,-15.5 245.5243,-15.5 251.5243,-15.5 257.5243,-21.5 257.5243,-27.5 257.5243,-27.5 257.5243,-46.5 257.5243,-46.5 257.5243,-52.5 251.5243,-58.5 245.5243,-58.5"/>
<text text-anchor="middle" x="227.9873" y="-46.2485" font-family="Arial" font-size="10.00" fill="#000000">Timespan</text>
<text text-anchor="middle" x="227.9873" y="-34.7495" font-family="Arial" font-size="10.00" fill="#000000">Tree</text>
<text text-anchor="middle" x="227.9873" y="-23.2505" font-family="Arial" font-size="10.00" fill="#000000">Node</text>
</a>
</g>
</g>
</g>
</svg>
