<?xml version="1.0" encoding="UTF-8" standalone="no"?>
<!DOCTYPE svg PUBLIC "-//W3C//DTD SVG 1.1//EN"
 "http://www.w3.org/Graphics/SVG/1.1/DTD/svg11.dtd">
<!-- Generated by graphviz version 2.40.1 (20161225.0304)
 -->
<!-- Title: InheritanceGraph Pages: 1 -->
<svg width="215pt" height="151pt"
 viewBox="0.00 0.00 215.22 151.00" xmlns="http://www.w3.org/2000/svg" xmlns:xlink="http://www.w3.org/1999/xlink">
<g id="graph0" class="graph" transform="scale(1 1) rotate(0) translate(4 147)">
<title>InheritanceGraph</title>
<g id="clust1" class="cluster">
<title>cluster_tsmakers.tree</title>
<path fill="transparent" stroke="#bcd2ee" stroke-width="2" stroke-dasharray="5,2" d="M135.6846,-8C135.6846,-8 188.2197,-8 188.2197,-8 194.2197,-8 200.2197,-14 200.2197,-20 200.2197,-20 200.2197,-123 200.2197,-123 200.2197,-129 194.2197,-135 188.2197,-135 188.2197,-135 135.6846,-135 135.6846,-135 129.6846,-135 123.6846,-129 123.6846,-123 123.6846,-123 123.6846,-20 123.6846,-20 123.6846,-14 129.6846,-8 135.6846,-8"/>
<text text-anchor="middle" x="161.9521" y="-123" font-family="Arial" font-size="10.00" fill="#000000">tsmakers.tree</text>
</g>
<g id="clust2" class="cluster">
<title>cluster_builtins</title>
<path fill="transparent" stroke="#bcd2ee" stroke-width="2" stroke-dasharray="5,2" d="M20,-48C20,-48 54.6846,-48 54.6846,-48 60.6846,-48 66.6846,-54 66.6846,-60 66.6846,-60 66.6846,-91 66.6846,-91 66.6846,-97 60.6846,-103 54.6846,-103 54.6846,-103 20,-103 20,-103 14,-103 8,-97 8,-91 8,-91 8,-60 8,-60 8,-54 14,-48 20,-48"/>
<text text-anchor="middle" x="37.3423" y="-91" font-family="Arial" font-size="10.00" fill="#000000">builtins</text>
</g>
<!-- builtins.object&#45;&gt;tsmakers.tree.TimespanTree -->
<g id="edge1" class="edge">
<title>builtins.object&#45;&gt;tsmakers.tree.TimespanTree</title>
<path fill="none" stroke="#778899" d="M58.6775,-70.4696C75.95,-74.088 100.758,-79.2851 121.6732,-83.6666"/>
<polygon fill="#778899" stroke="#778899" points="121.0727,-87.1167 131.5779,-85.7416 122.5081,-80.2655 121.0727,-87.1167"/>
</g>
<!-- builtins.object&#45;&gt;tsmakers.tree.TimespanTreeNode -->
<g id="edge2" class="edge">
<title>builtins.object&#45;&gt;tsmakers.tree.TimespanTreeNode</title>
<path fill="none" stroke="#778899" d="M58.6775,-61.0147C75.95,-56.9788 100.758,-51.182 121.6732,-46.2949"/>
<polygon fill="#778899" stroke="#778899" points="122.6366,-49.6642 131.5779,-43.9805 121.0438,-42.8478 122.6366,-49.6642"/>
</g>
<!-- tsmakers.tree.TimespanTree -->
<g id="node1" class="node">
<title>tsmakers.tree.TimespanTree</title>
<g id="a_node1"><a xlink:href="../api/tsmakers/tree.html#tsmakers.tree.TimespanTree" xlink:title="Timespan\nTree" target="_top">
<path fill="#000000" stroke="#000000" stroke-width="2" d="M180.6571,-107.498C180.6571,-107.498 142.2472,-107.498 142.2472,-107.498 137.0812,-107.498 131.9152,-102.332 131.9152,-97.166 131.9152,-97.166 131.9152,-86.834 131.9152,-86.834 131.9152,-81.668 137.0812,-76.502 142.2472,-76.502 142.2472,-76.502 180.6571,-76.502 180.6571,-76.502 185.8231,-76.502 190.9891,-81.668 190.9891,-86.834 190.9891,-86.834 190.9891,-97.166 190.9891,-97.166 190.9891,-102.332 185.8231,-107.498 180.6571,-107.498"/>
<text text-anchor="middle" x="161.4521" y="-95.499" font-family="Arial" font-size="10.00" fill="#ffffff">Timespan</text>
<text text-anchor="middle" x="161.4521" y="-84" font-family="Arial" font-size="10.00" fill="#ffffff">Tree</text>
</a>
</g>
</g>
<!-- tsmakers.tree.TimespanTreeNode -->
<g id="node2" class="node">
<title>tsmakers.tree.TimespanTreeNode</title>
<g id="a_node2"><a xlink:href="../api/tsmakers/tree.html#tsmakers.tree.TimespanTreeNode" xlink:title="Timespan\nTree\nNode" target="_top">
<path fill="#000000" stroke="#000000" stroke-width="2" d="M178.9891,-58.5C178.9891,-58.5 143.9152,-58.5 143.9152,-58.5 137.9152,-58.5 131.9152,-52.5 131.9152,-46.5 131.9152,-46.5 131.9152,-27.5 131.9152,-27.5 131.9152,-21.5 137.9152,-15.5 143.9152,-15.5 143.9152,-15.5 178.9891,-15.5 178.9891,-15.5 184.9891,-15.5 190.9891,-21.5 190.9891,-27.5 190.9891,-27.5 190.9891,-46.5 190.9891,-46.5 190.9891,-52.5 184.9891,-58.5 178.9891,-58.5"/>
<text text-anchor="middle" x="161.4521" y="-46.2485" font-family="Arial" font-size="10.00" fill="#ffffff">Timespan</text>
<text text-anchor="middle" x="161.4521" y="-34.7495" font-family="Arial" font-size="10.00" fill="#ffffff">Tree</text>
<text text-anchor="middle" x="161.4521" y="-23.2505" font-family="Arial" font-size="10.00" fill="#ffffff">Node</text>
</a>
</g>
</g>
<!-- builtins.object -->
<g id="node3" class="node">
<title>builtins.object</title>
<g id="a_node3"><a xlink:href="https://docs.python.org/3.7/library/functions.html#object" xlink:title="object" target="_top">
<path fill="#fbb4ae" stroke="#fbb4ae" stroke-width="2" d="M51.8576,-76.0056C51.8576,-76.0056 22.8269,-76.0056 22.8269,-76.0056 19.4918,-76.0056 16.1566,-72.6704 16.1566,-69.3352 16.1566,-69.3352 16.1566,-62.6648 16.1566,-62.6648 16.1566,-59.3296 19.4918,-55.9944 22.8269,-55.9944 22.8269,-55.9944 51.8576,-55.9944 51.8576,-55.9944 55.1928,-55.9944 58.528,-59.3296 58.528,-62.6648 58.528,-62.6648 58.528,-69.3352 58.528,-69.3352 58.528,-72.6704 55.1928,-76.0056 51.8576,-76.0056"/>
<text text-anchor="middle" x="37.3423" y="-63.7495" font-family="Arial" font-size="10.00" fill="#000000">object</text>
</a>
</g>
</g>
</g>
</svg>
