<?xml version="1.0" encoding="UTF-8" standalone="no"?>
<!DOCTYPE svg PUBLIC "-//W3C//DTD SVG 1.1//EN"
 "http://www.w3.org/Graphics/SVG/1.1/DTD/svg11.dtd">
<!-- Generated by graphviz version 2.40.1 (20161225.0304)
 -->
<!-- Title: InheritanceGraph Pages: 1 -->
<svg width="262pt" height="102pt"
 viewBox="0.00 0.00 262.28 102.00" xmlns="http://www.w3.org/2000/svg" xmlns:xlink="http://www.w3.org/1999/xlink">
<g id="graph0" class="graph" transform="scale(1 1) rotate(0) translate(4 98)">
<title>InheritanceGraph</title>
<g id="clust1" class="cluster">
<title>cluster_builtins</title>
<path fill="transparent" stroke="#bcd2ee" stroke-width="2" stroke-dasharray="5,2" d="M20,-19C20,-19 54.6846,-19 54.6846,-19 60.6846,-19 66.6846,-25 66.6846,-31 66.6846,-31 66.6846,-62 66.6846,-62 66.6846,-68 60.6846,-74 54.6846,-74 54.6846,-74 20,-74 20,-74 14,-74 8,-68 8,-62 8,-62 8,-31 8,-31 8,-25 14,-19 20,-19"/>
<text text-anchor="middle" x="37.3423" y="-62" font-family="Arial" font-size="10.00" fill="#000000">builtins</text>
</g>
<g id="clust2" class="cluster">
<title>cluster_tsmakers</title>
<path fill="transparent" stroke="#bcd2ee" stroke-width="2" stroke-dasharray="5,2" d="M98.6846,-8C98.6846,-8 234.2803,-8 234.2803,-8 240.2803,-8 246.2803,-14 246.2803,-20 246.2803,-20 246.2803,-74 246.2803,-74 246.2803,-80 240.2803,-86 234.2803,-86 234.2803,-86 98.6846,-86 98.6846,-86 92.6846,-86 86.6846,-80 86.6846,-74 86.6846,-74 86.6846,-20 86.6846,-20 86.6846,-14 92.6846,-8 98.6846,-8"/>
<text text-anchor="middle" x="166.4824" y="-74" font-family="Arial" font-size="10.00" fill="#000000">tsmakers</text>
</g>
<!-- builtins.object&#45;&gt;tsmakers.HashCachingObject.HashCachingObject -->
<g id="edge2" class="edge">
<title>builtins.object&#45;&gt;tsmakers.HashCachingObject.HashCachingObject</title>
<path fill="none" stroke="#778899" d="M58.8938,-37C66.7605,-37 75.8899,-37 84.6888,-37"/>
<polygon fill="#778899" stroke="#778899" points="84.7709,-40.5001 94.7709,-37 84.7708,-33.5001 84.7709,-40.5001"/>
</g>
<!-- tsmakers.HashCachingObject.HashCachingObject&#45;&gt;tsmakers.MusicSpecifier.MusicSpecifier -->
<g id="edge1" class="edge">
<title>tsmakers.HashCachingObject.HashCachingObject&#45;&gt;tsmakers.MusicSpecifier.MusicSpecifier</title>
<path fill="none" stroke="#778899" d="M147.4859,-37C155.504,-37 164.4718,-37 173.0797,-37"/>
<polygon fill="#778899" stroke="#778899" points="173.3128,-40.5001 183.3128,-37 173.3128,-33.5001 173.3128,-40.5001"/>
</g>
<!-- builtins.object -->
<g id="node1" class="node">
<title>builtins.object</title>
<g id="a_node1"><a xlink:href="https://docs.python.org/3.7/library/functions.html#object" xlink:title="object" target="_top">
<path fill="#fbb4ae" stroke="#fbb4ae" stroke-width="2" d="M51.8576,-47.0056C51.8576,-47.0056 22.8269,-47.0056 22.8269,-47.0056 19.4918,-47.0056 16.1566,-43.6704 16.1566,-40.3352 16.1566,-40.3352 16.1566,-33.6648 16.1566,-33.6648 16.1566,-30.3296 19.4918,-26.9944 22.8269,-26.9944 22.8269,-26.9944 51.8576,-26.9944 51.8576,-26.9944 55.1928,-26.9944 58.528,-30.3296 58.528,-33.6648 58.528,-33.6648 58.528,-40.3352 58.528,-40.3352 58.528,-43.6704 55.1928,-47.0056 51.8576,-47.0056"/>
<text text-anchor="middle" x="37.3423" y="-34.7495" font-family="Arial" font-size="10.00" fill="#000000">object</text>
</a>
</g>
</g>
<!-- tsmakers.HashCachingObject.HashCachingObject -->
<g id="node2" class="node">
<title>tsmakers.HashCachingObject.HashCachingObject</title>
<g id="a_node2"><a xlink:href="../api/tsmakers/HashCachingObject.html#tsmakers.HashCachingObject.HashCachingObject" xlink:title="Hash\nCaching\nObject" target="_top">
<path fill="#b3cde3" stroke="#b3cde3" stroke-width="2" d="M135.2197,-58.5C135.2197,-58.5 106.8389,-58.5 106.8389,-58.5 100.8389,-58.5 94.8389,-52.5 94.8389,-46.5 94.8389,-46.5 94.8389,-27.5 94.8389,-27.5 94.8389,-21.5 100.8389,-15.5 106.8389,-15.5 106.8389,-15.5 135.2197,-15.5 135.2197,-15.5 141.2197,-15.5 147.2197,-21.5 147.2197,-27.5 147.2197,-27.5 147.2197,-46.5 147.2197,-46.5 147.2197,-52.5 141.2197,-58.5 135.2197,-58.5"/>
<text text-anchor="middle" x="121.0293" y="-46.2485" font-family="Arial" font-size="10.00" fill="#000000">Hash</text>
<text text-anchor="middle" x="121.0293" y="-34.7495" font-family="Arial" font-size="10.00" fill="#000000">Caching</text>
<text text-anchor="middle" x="121.0293" y="-23.2505" font-family="Arial" font-size="10.00" fill="#000000">Object</text>
</a>
</g>
</g>
<!-- tsmakers.MusicSpecifier.MusicSpecifier -->
<g id="node3" class="node">
<title>tsmakers.MusicSpecifier.MusicSpecifier</title>
<g id="a_node3"><a xlink:href="../api/tsmakers/MusicSpecifier.html#tsmakers.MusicSpecifier.MusicSpecifier" xlink:title="Music\nSpecifier" target="_top">
<path fill="#000000" stroke="#000000" stroke-width="2" d="M227.9014,-52.498C227.9014,-52.498 193.7528,-52.498 193.7528,-52.498 188.5868,-52.498 183.4208,-47.332 183.4208,-42.166 183.4208,-42.166 183.4208,-31.834 183.4208,-31.834 183.4208,-26.668 188.5868,-21.502 193.7528,-21.502 193.7528,-21.502 227.9014,-21.502 227.9014,-21.502 233.0675,-21.502 238.2335,-26.668 238.2335,-31.834 238.2335,-31.834 238.2335,-42.166 238.2335,-42.166 238.2335,-47.332 233.0675,-52.498 227.9014,-52.498"/>
<text text-anchor="middle" x="210.8271" y="-40.499" font-family="Arial" font-size="10.00" fill="#ffffff">Music</text>
<text text-anchor="middle" x="210.8271" y="-29" font-family="Arial" font-size="10.00" fill="#ffffff">Specifier</text>
</a>
</g>
</g>
</g>
</svg>
