<?xml version="1.0" encoding="UTF-8" standalone="no"?>
<!DOCTYPE svg PUBLIC "-//W3C//DTD SVG 1.1//EN"
 "http://www.w3.org/Graphics/SVG/1.1/DTD/svg11.dtd">
<!-- Generated by graphviz version 2.40.1 (20161225.0304)
 -->
<!-- Title: InheritanceGraph Pages: 1 -->
<svg width="181pt" height="102pt"
 viewBox="0.00 0.00 181.26 102.00" xmlns="http://www.w3.org/2000/svg" xmlns:xlink="http://www.w3.org/1999/xlink">
<g id="graph0" class="graph" transform="scale(1 1) rotate(0) translate(4 98)">
<title>InheritanceGraph</title>
<g id="clust1" class="cluster">
<title>cluster_builtins</title>
<path fill="transparent" stroke="#bcd2ee" stroke-width="2" stroke-dasharray="5,2" d="M20,-19C20,-19 54.6846,-19 54.6846,-19 60.6846,-19 66.6846,-25 66.6846,-31 66.6846,-31 66.6846,-62 66.6846,-62 66.6846,-68 60.6846,-74 54.6846,-74 54.6846,-74 20,-74 20,-74 14,-74 8,-68 8,-62 8,-62 8,-31 8,-31 8,-25 14,-19 20,-19"/>
<text text-anchor="middle" x="37.3423" y="-62" font-family="Arial" font-size="10.00" fill="#000000">builtins</text>
</g>
<g id="clust2" class="cluster">
<title>cluster_evans.spanners</title>
<path fill="transparent" stroke="#bcd2ee" stroke-width="2" stroke-dasharray="5,2" d="M98.6846,-8C98.6846,-8 161.2607,-8 161.2607,-8 167.2607,-8 173.2607,-14 173.2607,-20 173.2607,-20 173.2607,-74 173.2607,-74 173.2607,-80 167.2607,-86 161.2607,-86 161.2607,-86 98.6846,-86 98.6846,-86 92.6846,-86 86.6846,-80 86.6846,-74 86.6846,-74 86.6846,-20 86.6846,-20 86.6846,-14 92.6846,-8 98.6846,-8"/>
<text text-anchor="middle" x="129.9727" y="-74" font-family="Arial" font-size="10.00" fill="#000000">evans.spanners</text>
</g>
<!-- builtins.object&#45;&gt;evans.spanners.BowAnglePoint -->
<g id="edge1" class="edge">
<title>builtins.object&#45;&gt;evans.spanners.BowAnglePoint</title>
<path fill="none" stroke="#778899" d="M58.7104,-37C70.6225,-37 85.6628,-37 98.8111,-37"/>
<polygon fill="#778899" stroke="#778899" points="98.8542,-40.5001 108.8542,-37 98.8541,-33.5001 98.8542,-40.5001"/>
</g>
<!-- builtins.object -->
<g id="node1" class="node">
<title>builtins.object</title>
<g id="a_node1"><a xlink:href="https://docs.python.org/3.7/library/functions.html#object" xlink:title="object" target="_top">
<path fill="#fbb4ae" stroke="#fbb4ae" stroke-width="2" d="M51.8576,-47.0056C51.8576,-47.0056 22.8269,-47.0056 22.8269,-47.0056 19.4918,-47.0056 16.1566,-43.6704 16.1566,-40.3352 16.1566,-40.3352 16.1566,-33.6648 16.1566,-33.6648 16.1566,-30.3296 19.4918,-26.9944 22.8269,-26.9944 22.8269,-26.9944 51.8576,-26.9944 51.8576,-26.9944 55.1928,-26.9944 58.528,-30.3296 58.528,-33.6648 58.528,-33.6648 58.528,-40.3352 58.528,-40.3352 58.528,-43.6704 55.1928,-47.0056 51.8576,-47.0056"/>
<text text-anchor="middle" x="37.3423" y="-34.7495" font-family="Arial" font-size="10.00" fill="#000000">object</text>
</a>
</g>
</g>
<!-- evans.spanners.BowAnglePoint -->
<g id="node2" class="node">
<title>evans.spanners.BowAnglePoint</title>
<g id="a_node2"><a xlink:href="../api/evans/spanners.html#evans.spanners.BowAnglePoint" xlink:title="Bow\nAngle\nPoint" target="_top">
<path fill="#000000" stroke="#000000" stroke-width="2" d="M138.051,-58.5C138.051,-58.5 120.8943,-58.5 120.8943,-58.5 114.8943,-58.5 108.8943,-52.5 108.8943,-46.5 108.8943,-46.5 108.8943,-27.5 108.8943,-27.5 108.8943,-21.5 114.8943,-15.5 120.8943,-15.5 120.8943,-15.5 138.051,-15.5 138.051,-15.5 144.051,-15.5 150.051,-21.5 150.051,-27.5 150.051,-27.5 150.051,-46.5 150.051,-46.5 150.051,-52.5 144.051,-58.5 138.051,-58.5"/>
<text text-anchor="middle" x="129.4727" y="-46.2485" font-family="Arial" font-size="10.00" fill="#ffffff">Bow</text>
<text text-anchor="middle" x="129.4727" y="-34.7495" font-family="Arial" font-size="10.00" fill="#ffffff">Angle</text>
<text text-anchor="middle" x="129.4727" y="-23.2505" font-family="Arial" font-size="10.00" fill="#ffffff">Point</text>
</a>
</g>
</g>
</g>
</svg>
