<?xml version="1.0" encoding="UTF-8" standalone="no"?>
<!DOCTYPE svg PUBLIC "-//W3C//DTD SVG 1.1//EN"
 "http://www.w3.org/Graphics/SVG/1.1/DTD/svg11.dtd">
<!-- Generated by graphviz version 2.40.1 (20161225.0304)
 -->
<!-- Title: InheritanceGraph Pages: 1 -->
<svg width="285pt" height="79pt"
 viewBox="0.00 0.00 284.93 79.00" xmlns="http://www.w3.org/2000/svg" xmlns:xlink="http://www.w3.org/1999/xlink">
<g id="graph0" class="graph" transform="scale(1 1) rotate(0) translate(4 75)">
<title>InheritanceGraph</title>
<g id="clust1" class="cluster">
<title>cluster_abjad.pitch.pitches</title>
<path fill="transparent" stroke="#bcd2ee" stroke-width="2" stroke-dasharray="5,2" d="M98.6846,-8C98.6846,-8 172.916,-8 172.916,-8 178.916,-8 184.916,-14 184.916,-20 184.916,-20 184.916,-51 184.916,-51 184.916,-57 178.916,-63 172.916,-63 172.916,-63 98.6846,-63 98.6846,-63 92.6846,-63 86.6846,-57 86.6846,-51 86.6846,-51 86.6846,-20 86.6846,-20 86.6846,-14 92.6846,-8 98.6846,-8"/>
<text text-anchor="middle" x="135.8003" y="-51" font-family="Arial" font-size="10.00" fill="#000000">abjad.pitch.pitches</text>
</g>
<g id="clust2" class="cluster">
<title>cluster_builtins</title>
<path fill="transparent" stroke="#bcd2ee" stroke-width="2" stroke-dasharray="5,2" d="M20,-8C20,-8 54.6846,-8 54.6846,-8 60.6846,-8 66.6846,-14 66.6846,-20 66.6846,-20 66.6846,-51 66.6846,-51 66.6846,-57 60.6846,-63 54.6846,-63 54.6846,-63 20,-63 20,-63 14,-63 8,-57 8,-51 8,-51 8,-20 8,-20 8,-14 14,-8 20,-8"/>
<text text-anchor="middle" x="37.3423" y="-51" font-family="Arial" font-size="10.00" fill="#000000">builtins</text>
</g>
<g id="clust3" class="cluster">
<title>cluster_evans.pitch</title>
<path fill="transparent" stroke="#bcd2ee" stroke-width="2" stroke-dasharray="5,2" d="M216.916,-8C216.916,-8 258.9258,-8 258.9258,-8 264.9258,-8 270.9258,-14 270.9258,-20 270.9258,-20 270.9258,-51 270.9258,-51 270.9258,-57 264.9258,-63 258.9258,-63 258.9258,-63 216.916,-63 216.916,-63 210.916,-63 204.916,-57 204.916,-51 204.916,-51 204.916,-20 204.916,-20 204.916,-14 210.916,-8 216.916,-8"/>
<text text-anchor="middle" x="237.9209" y="-51" font-family="Arial" font-size="10.00" fill="#000000">evans.pitch</text>
</g>
<!-- abjad.pitch.pitches.Pitch&#45;&gt;evans.pitch.JIPitch -->
<g id="edge1" class="edge">
<title>abjad.pitch.pitches.Pitch&#45;&gt;evans.pitch.JIPitch</title>
<path fill="none" stroke="#778899" d="M155.0084,-26C168.9426,-26 188.1461,-26 204.5632,-26"/>
<polygon fill="#778899" stroke="#778899" points="204.8658,-29.5001 214.8658,-26 204.8657,-22.5001 204.8658,-29.5001"/>
</g>
<!-- builtins.object&#45;&gt;abjad.pitch.pitches.Pitch -->
<g id="edge2" class="edge">
<title>builtins.object&#45;&gt;abjad.pitch.pitches.Pitch</title>
<path fill="none" stroke="#778899" d="M58.7062,-26C72.6758,-26 91.1091,-26 106.4482,-26"/>
<polygon fill="#778899" stroke="#778899" points="106.4803,-29.5001 116.4803,-26 106.4803,-22.5001 106.4803,-29.5001"/>
</g>
<!-- abjad.pitch.pitches.Pitch -->
<g id="node1" class="node">
<title>abjad.pitch.pitches.Pitch</title>
<path fill="#fbb4ae" stroke="#fbb4ae" stroke-width="2" d="M148.3621,-36.0056C148.3621,-36.0056 123.2385,-36.0056 123.2385,-36.0056 119.9033,-36.0056 116.5681,-32.6704 116.5681,-29.3352 116.5681,-29.3352 116.5681,-22.6648 116.5681,-22.6648 116.5681,-19.3296 119.9033,-15.9944 123.2385,-15.9944 123.2385,-15.9944 148.3621,-15.9944 148.3621,-15.9944 151.6973,-15.9944 155.0324,-19.3296 155.0324,-22.6648 155.0324,-22.6648 155.0324,-29.3352 155.0324,-29.3352 155.0324,-32.6704 151.6973,-36.0056 148.3621,-36.0056"/>
<text text-anchor="middle" x="135.8003" y="-23.7495" font-family="Arial" font-size="10.00" fill="#000000">Pitch</text>
</g>
<!-- builtins.object -->
<g id="node2" class="node">
<title>builtins.object</title>
<g id="a_node2"><a xlink:href="https://docs.python.org/3.7/library/functions.html#object" xlink:title="object" target="_top">
<path fill="#b3cde3" stroke="#b3cde3" stroke-width="2" d="M51.8576,-36.0056C51.8576,-36.0056 22.8269,-36.0056 22.8269,-36.0056 19.4918,-36.0056 16.1566,-32.6704 16.1566,-29.3352 16.1566,-29.3352 16.1566,-22.6648 16.1566,-22.6648 16.1566,-19.3296 19.4918,-15.9944 22.8269,-15.9944 22.8269,-15.9944 51.8576,-15.9944 51.8576,-15.9944 55.1928,-15.9944 58.528,-19.3296 58.528,-22.6648 58.528,-22.6648 58.528,-29.3352 58.528,-29.3352 58.528,-32.6704 55.1928,-36.0056 51.8576,-36.0056"/>
<text text-anchor="middle" x="37.3423" y="-23.7495" font-family="Arial" font-size="10.00" fill="#000000">object</text>
</a>
</g>
</g>
<!-- evans.pitch.JIPitch -->
<g id="node3" class="node">
<title>evans.pitch.JIPitch</title>
<g id="a_node3"><a xlink:href="../api/evans/pitch.html#evans.pitch.JIPitch" xlink:title="JIPitch" target="_top">
<path fill="#000000" stroke="#000000" stroke-width="2" d="M254.2603,-36.0056C254.2603,-36.0056 221.5815,-36.0056 221.5815,-36.0056 218.2463,-36.0056 214.9111,-32.6704 214.9111,-29.3352 214.9111,-29.3352 214.9111,-22.6648 214.9111,-22.6648 214.9111,-19.3296 218.2463,-15.9944 221.5815,-15.9944 221.5815,-15.9944 254.2603,-15.9944 254.2603,-15.9944 257.5955,-15.9944 260.9307,-19.3296 260.9307,-22.6648 260.9307,-22.6648 260.9307,-29.3352 260.9307,-29.3352 260.9307,-32.6704 257.5955,-36.0056 254.2603,-36.0056"/>
<text text-anchor="middle" x="237.9209" y="-23.7495" font-family="Arial" font-size="10.00" fill="#ffffff">JIPitch</text>
</a>
</g>
</g>
</g>
</svg>
