<?xml version="1.0" encoding="UTF-8" standalone="no"?>
<!DOCTYPE svg PUBLIC "-//W3C//DTD SVG 1.1//EN"
 "http://www.w3.org/Graphics/SVG/1.1/DTD/svg11.dtd">
<!-- Generated by graphviz version 2.40.1 (20161225.0304)
 -->
<!-- Title: InheritanceGraph Pages: 1 -->
<svg width="243pt" height="151pt"
 viewBox="0.00 0.00 243.05 151.00" xmlns="http://www.w3.org/2000/svg" xmlns:xlink="http://www.w3.org/1999/xlink">
<g id="graph0" class="graph" transform="scale(1 1) rotate(0) translate(4 147)">
<title>InheritanceGraph</title>
<g id="clust1" class="cluster">
<title>cluster_builtins</title>
<path fill="transparent" stroke="#bcd2ee" stroke-width="2" stroke-dasharray="5,2" d="M20,-42C20,-42 54.6846,-42 54.6846,-42 60.6846,-42 66.6846,-48 66.6846,-54 66.6846,-54 66.6846,-85 66.6846,-85 66.6846,-91 60.6846,-97 54.6846,-97 54.6846,-97 20,-97 20,-97 14,-97 8,-91 8,-85 8,-85 8,-54 8,-54 8,-48 14,-42 20,-42"/>
<text text-anchor="middle" x="37.3423" y="-85" font-family="Arial" font-size="10.00" fill="#000000">builtins</text>
</g>
<g id="clust2" class="cluster">
<title>cluster_evans.segmentmaker</title>
<path fill="transparent" stroke="#bcd2ee" stroke-width="2" stroke-dasharray="5,2" d="M135.6846,-8C135.6846,-8 223.0537,-8 223.0537,-8 229.0537,-8 235.0537,-14 235.0537,-20 235.0537,-20 235.0537,-123 235.0537,-123 235.0537,-129 229.0537,-135 223.0537,-135 223.0537,-135 135.6846,-135 135.6846,-135 129.6846,-135 123.6846,-129 123.6846,-123 123.6846,-123 123.6846,-20 123.6846,-20 123.6846,-14 129.6846,-8 135.6846,-8"/>
<text text-anchor="middle" x="179.3691" y="-123" font-family="Arial" font-size="10.00" fill="#000000">evans.segmentmaker</text>
</g>
<!-- builtins.object&#45;&gt;evans.segmentmaker.NoteheadBracketMaker -->
<g id="edge1" class="edge">
<title>builtins.object&#45;&gt;evans.segmentmaker.NoteheadBracketMaker</title>
<path fill="none" stroke="#778899" d="M58.6051,-63.8925C79.9197,-67.7944 113.251,-73.8962 139.5014,-78.7017"/>
<polygon fill="#778899" stroke="#778899" points="139.0693,-82.1806 149.5362,-80.5387 140.3299,-75.2951 139.0693,-82.1806"/>
</g>
<!-- builtins.object&#45;&gt;evans.segmentmaker.SegmentMaker -->
<g id="edge2" class="edge">
<title>builtins.object&#45;&gt;evans.segmentmaker.SegmentMaker</title>
<path fill="none" stroke="#778899" d="M58.6051,-55.6584C80.3979,-51.2086 114.7527,-44.1938 141.2574,-38.7819"/>
<polygon fill="#778899" stroke="#778899" points="142.252,-42.1511 151.3496,-36.7212 140.8515,-35.2926 142.252,-42.1511"/>
</g>
<!-- builtins.object -->
<g id="node1" class="node">
<title>builtins.object</title>
<g id="a_node1"><a xlink:href="https://docs.python.org/3.7/library/functions.html#object" xlink:title="object" target="_top">
<path fill="#fbb4ae" stroke="#fbb4ae" stroke-width="2" d="M51.8576,-70.0056C51.8576,-70.0056 22.8269,-70.0056 22.8269,-70.0056 19.4918,-70.0056 16.1566,-66.6704 16.1566,-63.3352 16.1566,-63.3352 16.1566,-56.6648 16.1566,-56.6648 16.1566,-53.3296 19.4918,-49.9944 22.8269,-49.9944 22.8269,-49.9944 51.8576,-49.9944 51.8576,-49.9944 55.1928,-49.9944 58.528,-53.3296 58.528,-56.6648 58.528,-56.6648 58.528,-63.3352 58.528,-63.3352 58.528,-66.6704 55.1928,-70.0056 51.8576,-70.0056"/>
<text text-anchor="middle" x="37.3423" y="-57.7495" font-family="Arial" font-size="10.00" fill="#000000">object</text>
</a>
</g>
</g>
<!-- evans.segmentmaker.NoteheadBracketMaker -->
<g id="node2" class="node">
<title>evans.segmentmaker.NoteheadBracketMaker</title>
<g id="a_node2"><a xlink:href="../api/evans/segmentmaker.html#evans.segmentmaker.NoteheadBracketMaker" xlink:title="Notehead\nBracket\nMaker" target="_top">
<path fill="#000000" stroke="#000000" stroke-width="2" d="M197.2394,-107.5C197.2394,-107.5 161.4988,-107.5 161.4988,-107.5 155.4988,-107.5 149.4988,-101.5 149.4988,-95.5 149.4988,-95.5 149.4988,-76.5 149.4988,-76.5 149.4988,-70.5 155.4988,-64.5 161.4988,-64.5 161.4988,-64.5 197.2394,-64.5 197.2394,-64.5 203.2394,-64.5 209.2394,-70.5 209.2394,-76.5 209.2394,-76.5 209.2394,-95.5 209.2394,-95.5 209.2394,-101.5 203.2394,-107.5 197.2394,-107.5"/>
<text text-anchor="middle" x="179.3691" y="-95.2485" font-family="Arial" font-size="10.00" fill="#ffffff">Notehead</text>
<text text-anchor="middle" x="179.3691" y="-83.7495" font-family="Arial" font-size="10.00" fill="#ffffff">Bracket</text>
<text text-anchor="middle" x="179.3691" y="-72.2505" font-family="Arial" font-size="10.00" fill="#ffffff">Maker</text>
</a>
</g>
</g>
<!-- evans.segmentmaker.SegmentMaker -->
<g id="node3" class="node">
<title>evans.segmentmaker.SegmentMaker</title>
<g id="a_node3"><a xlink:href="../api/evans/segmentmaker.html#evans.segmentmaker.SegmentMaker" xlink:title="Segment\nMaker" target="_top">
<path fill="#000000" stroke="#000000" stroke-width="2" d="M197.0615,-46.498C197.0615,-46.498 161.6768,-46.498 161.6768,-46.498 156.5107,-46.498 151.3447,-41.332 151.3447,-36.166 151.3447,-36.166 151.3447,-25.834 151.3447,-25.834 151.3447,-20.668 156.5107,-15.502 161.6768,-15.502 161.6768,-15.502 197.0615,-15.502 197.0615,-15.502 202.2275,-15.502 207.3936,-20.668 207.3936,-25.834 207.3936,-25.834 207.3936,-36.166 207.3936,-36.166 207.3936,-41.332 202.2275,-46.498 197.0615,-46.498"/>
<text text-anchor="middle" x="179.3691" y="-34.499" font-family="Arial" font-size="10.00" fill="#ffffff">Segment</text>
<text text-anchor="middle" x="179.3691" y="-23" font-family="Arial" font-size="10.00" fill="#ffffff">Maker</text>
</a>
</g>
</g>
</g>
</svg>
