<?xml version="1.0" encoding="UTF-8" standalone="no"?>
<!DOCTYPE svg PUBLIC "-//W3C//DTD SVG 1.1//EN"
 "http://www.w3.org/Graphics/SVG/1.1/DTD/svg11.dtd">
<!-- Generated by graphviz version 2.40.1 (20161225.0304)
 -->
<!-- Title: InheritanceGraph Pages: 1 -->
<svg width="552pt" height="512pt"
 viewBox="0.00 0.00 551.54 512.00" xmlns="http://www.w3.org/2000/svg" xmlns:xlink="http://www.w3.org/1999/xlink">
<g id="graph0" class="graph" transform="scale(1 1) rotate(0) translate(4 508)">
<title>InheritanceGraph</title>
<g id="clust1" class="cluster">
<title>cluster_abjadext.microtones.et</title>
<path fill="transparent" stroke="#bcd2ee" stroke-width="2" stroke-dasharray="5,2" d="M98.6846,-432C98.6846,-432 190.6006,-432 190.6006,-432 196.6006,-432 202.6006,-438 202.6006,-444 202.6006,-444 202.6006,-475 202.6006,-475 202.6006,-481 196.6006,-487 190.6006,-487 190.6006,-487 98.6846,-487 98.6846,-487 92.6846,-487 86.6846,-481 86.6846,-475 86.6846,-475 86.6846,-444 86.6846,-444 86.6846,-438 92.6846,-432 98.6846,-432"/>
<text text-anchor="middle" x="144.6426" y="-475" font-family="Arial" font-size="10.00" fill="#000000">abjadext.microtones.et</text>
</g>
<g id="clust2" class="cluster">
<title>cluster_abjadext.microtones.et_utilities</title>
<path fill="transparent" stroke="#bcd2ee" stroke-width="2" stroke-dasharray="5,2" d="M403.5166,-260C403.5166,-260 531.541,-260 531.541,-260 537.541,-260 543.541,-266 543.541,-272 543.541,-272 543.541,-484 543.541,-484 543.541,-490 537.541,-496 531.541,-496 531.541,-496 403.5166,-496 403.5166,-496 397.5166,-496 391.5166,-490 391.5166,-484 391.5166,-484 391.5166,-272 391.5166,-272 391.5166,-266 397.5166,-260 403.5166,-260"/>
<text text-anchor="middle" x="467.5288" y="-484" font-family="Arial" font-size="10.00" fill="#000000">abjadext.microtones.et_utilities</text>
</g>
<g id="clust3" class="cluster">
<title>cluster_abjadext.microtones.ji</title>
<path fill="transparent" stroke="#bcd2ee" stroke-width="2" stroke-dasharray="5,2" d="M271.6006,-188C271.6006,-188 359.5166,-188 359.5166,-188 365.5166,-188 371.5166,-194 371.5166,-200 371.5166,-200 371.5166,-268 371.5166,-268 371.5166,-274 365.5166,-280 359.5166,-280 359.5166,-280 271.6006,-280 271.6006,-280 265.6006,-280 259.6006,-274 259.6006,-268 259.6006,-268 259.6006,-200 259.6006,-200 259.6006,-194 265.6006,-188 271.6006,-188"/>
<text text-anchor="middle" x="315.5586" y="-268" font-family="Arial" font-size="10.00" fill="#000000">abjadext.microtones.ji</text>
</g>
<g id="clust4" class="cluster">
<title>cluster_abjadext.microtones.ji_utilities</title>
<path fill="transparent" stroke="#bcd2ee" stroke-width="2" stroke-dasharray="5,2" d="M405.5166,-8C405.5166,-8 529.541,-8 529.541,-8 535.541,-8 541.541,-14 541.541,-20 541.541,-20 541.541,-232 541.541,-232 541.541,-238 535.541,-244 529.541,-244 529.541,-244 405.5166,-244 405.5166,-244 399.5166,-244 393.5166,-238 393.5166,-232 393.5166,-232 393.5166,-20 393.5166,-20 393.5166,-14 399.5166,-8 405.5166,-8"/>
<text text-anchor="middle" x="467.5288" y="-232" font-family="Arial" font-size="10.00" fill="#000000">abjadext.microtones.ji_utilities</text>
</g>
<g id="clust5" class="cluster">
<title>cluster_builtins</title>
<path fill="transparent" stroke="#bcd2ee" stroke-width="2" stroke-dasharray="5,2" d="M20,-226C20,-226 54.6846,-226 54.6846,-226 60.6846,-226 66.6846,-232 66.6846,-238 66.6846,-238 66.6846,-269 66.6846,-269 66.6846,-275 60.6846,-281 54.6846,-281 54.6846,-281 20,-281 20,-281 14,-281 8,-275 8,-269 8,-269 8,-238 8,-238 8,-232 14,-226 20,-226"/>
<text text-anchor="middle" x="37.3423" y="-269" font-family="Arial" font-size="10.00" fill="#000000">builtins</text>
</g>
<!-- builtins.object&#45;&gt;abjadext.microtones.et.ETBundle -->
<g id="edge1" class="edge">
<title>builtins.object&#45;&gt;abjadext.microtones.et.ETBundle</title>
<path fill="none" stroke="#778899" d="M38.8693,-253.9972C44.2593,-288.1357 63.3316,-399.4529 86.6846,-426 91.6794,-431.678 98.2286,-436.0415 105.1216,-439.3859"/>
<polygon fill="#778899" stroke="#778899" points="104.0435,-442.7282 114.6205,-443.3424 106.7351,-436.2663 104.0435,-442.7282"/>
</g>
<!-- builtins.object&#45;&gt;abjadext.microtones.et_utilities.PitchClassSegment -->
<g id="edge2" class="edge">
<title>builtins.object&#45;&gt;abjadext.microtones.et_utilities.PitchClassSegment</title>
<path fill="none" stroke="#778899" d="M39.0684,-253.8034C43.2658,-274.6433 56.0044,-323.5211 86.6846,-349 188.4325,-433.4985 354.2755,-446.2307 428.9434,-447.4247"/>
<polygon fill="#778899" stroke="#778899" points="429.2467,-450.9277 439.28,-447.5243 429.3142,-443.928 429.2467,-450.9277"/>
</g>
<!-- builtins.object&#45;&gt;abjadext.microtones.et_utilities.PitchClassSet -->
<g id="edge3" class="edge">
<title>builtins.object&#45;&gt;abjadext.microtones.et_utilities.PitchClassSet</title>
<path fill="none" stroke="#778899" d="M41.7664,-254.0214C48.92,-268.9786 64.5001,-296.8899 86.6846,-311 200.0871,-383.1281 367.7944,-389.0094 436.4804,-388.0792"/>
<polygon fill="#778899" stroke="#778899" points="436.7008,-391.5757 446.6304,-387.8806 436.5638,-384.577 436.7008,-391.5757"/>
</g>
<!-- builtins.object&#45;&gt;abjadext.microtones.et_utilities.PitchSegment -->
<g id="edge4" class="edge">
<title>builtins.object&#45;&gt;abjadext.microtones.et_utilities.PitchSegment</title>
<path fill="none" stroke="#778899" d="M47.3313,-253.9677C56.6669,-262.636 71.4227,-274.7574 86.6846,-281 204.4358,-329.1639 358.1027,-333.8707 428.8258,-333.1387"/>
<polygon fill="#778899" stroke="#778899" points="429.0983,-336.6351 439.0456,-332.9881 428.9951,-329.6359 429.0983,-336.6351"/>
</g>
<!-- builtins.object&#45;&gt;abjadext.microtones.et_utilities.PitchSet -->
<g id="edge5" class="edge">
<title>builtins.object&#45;&gt;abjadext.microtones.et_utilities.PitchSet</title>
<path fill="none" stroke="#778899" d="M58.8447,-250.1786C67.454,-252.5176 77.4934,-255.0769 86.6846,-257 162.8188,-272.9294 182.051,-277.982 259.6006,-284 309.1919,-287.8484 321.7768,-284.259 371.5166,-284 393.9162,-283.8834 419.2541,-283.6136 438.2741,-283.3837"/>
<polygon fill="#778899" stroke="#778899" points="438.4461,-286.8819 448.4018,-283.2578 438.3591,-279.8825 438.4461,-286.8819"/>
</g>
<!-- builtins.object&#45;&gt;abjadext.microtones.ji.JIBundle -->
<g id="edge6" class="edge">
<title>builtins.object&#45;&gt;abjadext.microtones.ji.JIBundle</title>
<path fill="none" stroke="#778899" d="M58.6731,-243.9232C105.6421,-243.7541 218.5093,-243.3477 277.5816,-243.1349"/>
<polygon fill="#778899" stroke="#778899" points="277.627,-246.6349 287.6143,-243.0988 277.6017,-239.635 277.627,-246.6349"/>
</g>
<!-- builtins.object&#45;&gt;abjadext.microtones.ji.JIVector -->
<g id="edge7" class="edge">
<title>builtins.object&#45;&gt;abjadext.microtones.ji.JIVector</title>
<path fill="none" stroke="#778899" d="M58.6731,-241.0813C106.0016,-234.6053 220.2407,-218.974 278.9284,-210.9437"/>
<polygon fill="#778899" stroke="#778899" points="279.439,-214.4065 288.8721,-209.5831 278.49,-207.4712 279.439,-214.4065"/>
</g>
<!-- builtins.object&#45;&gt;abjadext.microtones.ji_utilities.RatioClassSegment -->
<g id="edge8" class="edge">
<title>builtins.object&#45;&gt;abjadext.microtones.ji_utilities.RatioClassSegment</title>
<path fill="none" stroke="#778899" d="M52.3182,-234.1978C61.8132,-228.3972 74.5527,-221.3548 86.6846,-217 206.6299,-173.9446 244.285,-176.7354 371.5166,-184 390.5206,-185.0851 411.5377,-187.3689 429.051,-189.5757"/>
<polygon fill="#778899" stroke="#778899" points="429.0856,-193.1096 439.4535,-190.9285 429.9883,-186.1681 429.0856,-193.1096"/>
</g>
<!-- builtins.object&#45;&gt;abjadext.microtones.ji_utilities.RatioClassSet -->
<g id="edge9" class="edge">
<title>builtins.object&#45;&gt;abjadext.microtones.ji_utilities.RatioClassSet</title>
<path fill="none" stroke="#778899" d="M41.7594,-234.2058C48.9039,-219.6289 64.4723,-192.5946 86.6846,-180 202.1328,-114.5395 368.6999,-123.7377 436.781,-131.0167"/>
<polygon fill="#778899" stroke="#778899" points="436.5085,-134.5082 446.8391,-132.1568 437.297,-127.5527 436.5085,-134.5082"/>
</g>
<!-- builtins.object&#45;&gt;abjadext.microtones.ji_utilities.RatioSegment -->
<g id="edge10" class="edge">
<title>builtins.object&#45;&gt;abjadext.microtones.ji_utilities.RatioSegment</title>
<path fill="none" stroke="#778899" d="M38.6253,-234.2179C42.0395,-212.4493 53.4756,-159.9622 86.6846,-135 190.1342,-57.2399 355.1034,-65.6713 429.2456,-74.3755"/>
<polygon fill="#778899" stroke="#778899" points="429.1519,-77.8907 439.5074,-75.6514 430.0157,-70.9442 429.1519,-77.8907"/>
</g>
<!-- builtins.object&#45;&gt;abjadext.microtones.ji_utilities.RatioSet -->
<g id="edge11" class="edge">
<title>builtins.object&#45;&gt;abjadext.microtones.ji_utilities.RatioSet</title>
<path fill="none" stroke="#778899" d="M38.9197,-233.8034C44.1946,-201.0857 62.2733,-99.6783 86.6846,-79 189.4652,8.0633 367.3579,-12.4321 437.6818,-24.9148"/>
<polygon fill="#778899" stroke="#778899" points="437.1668,-28.3788 447.6369,-26.7582 438.4414,-21.4958 437.1668,-28.3788"/>
</g>
<!-- abjadext.microtones.et.ETBundle -->
<g id="node1" class="node">
<title>abjadext.microtones.et.ETBundle</title>
<g id="a_node1"><a xlink:href="../api/abjadext/microtones/et.html#abjadext.microtones.et.ETBundle" xlink:title="ETBundle" target="_top">
<path fill="#fbb4ae" stroke="#fbb4ae" stroke-width="2" d="M167.8883,-460.0056C167.8883,-460.0056 121.3969,-460.0056 121.3969,-460.0056 118.0617,-460.0056 114.7265,-456.6704 114.7265,-453.3352 114.7265,-453.3352 114.7265,-446.6648 114.7265,-446.6648 114.7265,-443.3296 118.0617,-439.9944 121.3969,-439.9944 121.3969,-439.9944 167.8883,-439.9944 167.8883,-439.9944 171.2235,-439.9944 174.5587,-443.3296 174.5587,-446.6648 174.5587,-446.6648 174.5587,-453.3352 174.5587,-453.3352 174.5587,-456.6704 171.2235,-460.0056 167.8883,-460.0056"/>
<text text-anchor="middle" x="144.6426" y="-447.7495" font-family="Arial" font-size="10.00" fill="#000000">ETBundle</text>
</a>
</g>
</g>
<!-- abjadext.microtones.et_utilities.PitchClassSegment -->
<g id="node2" class="node">
<title>abjadext.microtones.et_utilities.PitchClassSegment</title>
<g id="a_node2"><a xlink:href="../api/abjadext/microtones/et_utilities.html#abjadext.microtones.et_utilities.PitchClassSegment" xlink:title="Pitch\nClass\nSegment" target="_top">
<path fill="#b3cde3" stroke="#b3cde3" stroke-width="2" d="M483.5532,-468.5C483.5532,-468.5 451.5044,-468.5 451.5044,-468.5 445.5044,-468.5 439.5044,-462.5 439.5044,-456.5 439.5044,-456.5 439.5044,-437.5 439.5044,-437.5 439.5044,-431.5 445.5044,-425.5 451.5044,-425.5 451.5044,-425.5 483.5532,-425.5 483.5532,-425.5 489.5532,-425.5 495.5532,-431.5 495.5532,-437.5 495.5532,-437.5 495.5532,-456.5 495.5532,-456.5 495.5532,-462.5 489.5532,-468.5 483.5532,-468.5"/>
<text text-anchor="middle" x="467.5288" y="-456.2485" font-family="Arial" font-size="10.00" fill="#000000">Pitch</text>
<text text-anchor="middle" x="467.5288" y="-444.7495" font-family="Arial" font-size="10.00" fill="#000000">Class</text>
<text text-anchor="middle" x="467.5288" y="-433.2505" font-family="Arial" font-size="10.00" fill="#000000">Segment</text>
</a>
</g>
</g>
<!-- abjadext.microtones.et_utilities.PitchClassSet -->
<g id="node3" class="node">
<title>abjadext.microtones.et_utilities.PitchClassSet</title>
<g id="a_node3"><a xlink:href="../api/abjadext/microtones/et_utilities.html#abjadext.microtones.et_utilities.PitchClassSet" xlink:title="Pitch\nClass\nSet" target="_top">
<path fill="#b3cde3" stroke="#b3cde3" stroke-width="2" d="M476.0337,-408.5C476.0337,-408.5 459.0239,-408.5 459.0239,-408.5 453.0239,-408.5 447.0239,-402.5 447.0239,-396.5 447.0239,-396.5 447.0239,-377.5 447.0239,-377.5 447.0239,-371.5 453.0239,-365.5 459.0239,-365.5 459.0239,-365.5 476.0337,-365.5 476.0337,-365.5 482.0337,-365.5 488.0337,-371.5 488.0337,-377.5 488.0337,-377.5 488.0337,-396.5 488.0337,-396.5 488.0337,-402.5 482.0337,-408.5 476.0337,-408.5"/>
<text text-anchor="middle" x="467.5288" y="-396.2485" font-family="Arial" font-size="10.00" fill="#000000">Pitch</text>
<text text-anchor="middle" x="467.5288" y="-384.7495" font-family="Arial" font-size="10.00" fill="#000000">Class</text>
<text text-anchor="middle" x="467.5288" y="-373.2505" font-family="Arial" font-size="10.00" fill="#000000">Set</text>
</a>
</g>
</g>
<!-- abjadext.microtones.et_utilities.PitchSegment -->
<g id="node4" class="node">
<title>abjadext.microtones.et_utilities.PitchSegment</title>
<g id="a_node4"><a xlink:href="../api/abjadext/microtones/et_utilities.html#abjadext.microtones.et_utilities.PitchSegment" xlink:title="Pitch\nSegment" target="_top">
<path fill="#b3cde3" stroke="#b3cde3" stroke-width="2" d="M485.2212,-347.498C485.2212,-347.498 449.8364,-347.498 449.8364,-347.498 444.6704,-347.498 439.5044,-342.332 439.5044,-337.166 439.5044,-337.166 439.5044,-326.834 439.5044,-326.834 439.5044,-321.668 444.6704,-316.502 449.8364,-316.502 449.8364,-316.502 485.2212,-316.502 485.2212,-316.502 490.3872,-316.502 495.5532,-321.668 495.5532,-326.834 495.5532,-326.834 495.5532,-337.166 495.5532,-337.166 495.5532,-342.332 490.3872,-347.498 485.2212,-347.498"/>
<text text-anchor="middle" x="467.5288" y="-335.499" font-family="Arial" font-size="10.00" fill="#000000">Pitch</text>
<text text-anchor="middle" x="467.5288" y="-324" font-family="Arial" font-size="10.00" fill="#000000">Segment</text>
</a>
</g>
</g>
<!-- abjadext.microtones.et_utilities.PitchSet -->
<g id="node5" class="node">
<title>abjadext.microtones.et_utilities.PitchSet</title>
<g id="a_node5"><a xlink:href="../api/abjadext/microtones/et_utilities.html#abjadext.microtones.et_utilities.PitchSet" xlink:title="Pitch\nSet" target="_top">
<path fill="#b3cde3" stroke="#b3cde3" stroke-width="2" d="M476.4289,-298.498C476.4289,-298.498 458.6287,-298.498 458.6287,-298.498 453.4627,-298.498 448.2967,-293.332 448.2967,-288.166 448.2967,-288.166 448.2967,-277.834 448.2967,-277.834 448.2967,-272.668 453.4627,-267.502 458.6287,-267.502 458.6287,-267.502 476.4289,-267.502 476.4289,-267.502 481.5949,-267.502 486.761,-272.668 486.761,-277.834 486.761,-277.834 486.761,-288.166 486.761,-288.166 486.761,-293.332 481.5949,-298.498 476.4289,-298.498"/>
<text text-anchor="middle" x="467.5288" y="-286.499" font-family="Arial" font-size="10.00" fill="#000000">Pitch</text>
<text text-anchor="middle" x="467.5288" y="-275" font-family="Arial" font-size="10.00" fill="#000000">Set</text>
</a>
</g>
</g>
<!-- abjadext.microtones.ji.JIBundle -->
<g id="node6" class="node">
<title>abjadext.microtones.ji.JIBundle</title>
<g id="a_node6"><a xlink:href="../api/abjadext/microtones/ji.html#abjadext.microtones.ji.JIBundle" xlink:title="JIBundle" target="_top">
<path fill="#ccebc5" stroke="#ccebc5" stroke-width="2" d="M335.8043,-253.0056C335.8043,-253.0056 294.3129,-253.0056 294.3129,-253.0056 290.9777,-253.0056 287.6425,-249.6704 287.6425,-246.3352 287.6425,-246.3352 287.6425,-239.6648 287.6425,-239.6648 287.6425,-236.3296 290.9777,-232.9944 294.3129,-232.9944 294.3129,-232.9944 335.8043,-232.9944 335.8043,-232.9944 339.1395,-232.9944 342.4747,-236.3296 342.4747,-239.6648 342.4747,-239.6648 342.4747,-246.3352 342.4747,-246.3352 342.4747,-249.6704 339.1395,-253.0056 335.8043,-253.0056"/>
<text text-anchor="middle" x="315.0586" y="-240.7495" font-family="Arial" font-size="10.00" fill="#000000">JIBundle</text>
</a>
</g>
</g>
<!-- abjadext.microtones.ji.JIVector -->
<g id="node7" class="node">
<title>abjadext.microtones.ji.JIVector</title>
<g id="a_node7"><a xlink:href="../api/abjadext/microtones/ji.html#abjadext.microtones.ji.JIVector" xlink:title="JIVector" target="_top">
<path fill="#ccebc5" stroke="#ccebc5" stroke-width="2" d="M334.5163,-216.0056C334.5163,-216.0056 295.6009,-216.0056 295.6009,-216.0056 292.2657,-216.0056 288.9305,-212.6704 288.9305,-209.3352 288.9305,-209.3352 288.9305,-202.6648 288.9305,-202.6648 288.9305,-199.3296 292.2657,-195.9944 295.6009,-195.9944 295.6009,-195.9944 334.5163,-195.9944 334.5163,-195.9944 337.8515,-195.9944 341.1867,-199.3296 341.1867,-202.6648 341.1867,-202.6648 341.1867,-209.3352 341.1867,-209.3352 341.1867,-212.6704 337.8515,-216.0056 334.5163,-216.0056"/>
<text text-anchor="middle" x="315.0586" y="-203.7495" font-family="Arial" font-size="10.00" fill="#000000">JIVector</text>
</a>
</g>
</g>
<!-- abjadext.microtones.ji_utilities.RatioClassSegment -->
<g id="node8" class="node">
<title>abjadext.microtones.ji_utilities.RatioClassSegment</title>
<g id="a_node8"><a xlink:href="../api/abjadext/microtones/ji_utilities.html#abjadext.microtones.ji_utilities.RatioClassSegment" xlink:title="Ratio\nClass\nSegment" target="_top">
<path fill="#decbe4" stroke="#decbe4" stroke-width="2" d="M483.5532,-216.5C483.5532,-216.5 451.5044,-216.5 451.5044,-216.5 445.5044,-216.5 439.5044,-210.5 439.5044,-204.5 439.5044,-204.5 439.5044,-185.5 439.5044,-185.5 439.5044,-179.5 445.5044,-173.5 451.5044,-173.5 451.5044,-173.5 483.5532,-173.5 483.5532,-173.5 489.5532,-173.5 495.5532,-179.5 495.5532,-185.5 495.5532,-185.5 495.5532,-204.5 495.5532,-204.5 495.5532,-210.5 489.5532,-216.5 483.5532,-216.5"/>
<text text-anchor="middle" x="467.5288" y="-204.2485" font-family="Arial" font-size="10.00" fill="#000000">Ratio</text>
<text text-anchor="middle" x="467.5288" y="-192.7495" font-family="Arial" font-size="10.00" fill="#000000">Class</text>
<text text-anchor="middle" x="467.5288" y="-181.2505" font-family="Arial" font-size="10.00" fill="#000000">Segment</text>
</a>
</g>
</g>
<!-- abjadext.microtones.ji_utilities.RatioClassSet -->
<g id="node9" class="node">
<title>abjadext.microtones.ji_utilities.RatioClassSet</title>
<g id="a_node9"><a xlink:href="../api/abjadext/microtones/ji_utilities.html#abjadext.microtones.ji_utilities.RatioClassSet" xlink:title="Ratio\nClass\nSet" target="_top">
<path fill="#decbe4" stroke="#decbe4" stroke-width="2" d="M476.0337,-156.5C476.0337,-156.5 459.0239,-156.5 459.0239,-156.5 453.0239,-156.5 447.0239,-150.5 447.0239,-144.5 447.0239,-144.5 447.0239,-125.5 447.0239,-125.5 447.0239,-119.5 453.0239,-113.5 459.0239,-113.5 459.0239,-113.5 476.0337,-113.5 476.0337,-113.5 482.0337,-113.5 488.0337,-119.5 488.0337,-125.5 488.0337,-125.5 488.0337,-144.5 488.0337,-144.5 488.0337,-150.5 482.0337,-156.5 476.0337,-156.5"/>
<text text-anchor="middle" x="467.5288" y="-144.2485" font-family="Arial" font-size="10.00" fill="#000000">Ratio</text>
<text text-anchor="middle" x="467.5288" y="-132.7495" font-family="Arial" font-size="10.00" fill="#000000">Class</text>
<text text-anchor="middle" x="467.5288" y="-121.2505" font-family="Arial" font-size="10.00" fill="#000000">Set</text>
</a>
</g>
</g>
<!-- abjadext.microtones.ji_utilities.RatioSegment -->
<g id="node10" class="node">
<title>abjadext.microtones.ji_utilities.RatioSegment</title>
<g id="a_node10"><a xlink:href="../api/abjadext/microtones/ji_utilities.html#abjadext.microtones.ji_utilities.RatioSegment" xlink:title="Ratio\nSegment" target="_top">
<path fill="#decbe4" stroke="#decbe4" stroke-width="2" d="M485.2212,-95.498C485.2212,-95.498 449.8364,-95.498 449.8364,-95.498 444.6704,-95.498 439.5044,-90.332 439.5044,-85.166 439.5044,-85.166 439.5044,-74.834 439.5044,-74.834 439.5044,-69.668 444.6704,-64.502 449.8364,-64.502 449.8364,-64.502 485.2212,-64.502 485.2212,-64.502 490.3872,-64.502 495.5532,-69.668 495.5532,-74.834 495.5532,-74.834 495.5532,-85.166 495.5532,-85.166 495.5532,-90.332 490.3872,-95.498 485.2212,-95.498"/>
<text text-anchor="middle" x="467.5288" y="-83.499" font-family="Arial" font-size="10.00" fill="#000000">Ratio</text>
<text text-anchor="middle" x="467.5288" y="-72" font-family="Arial" font-size="10.00" fill="#000000">Segment</text>
</a>
</g>
</g>
<!-- abjadext.microtones.ji_utilities.RatioSet -->
<g id="node11" class="node">
<title>abjadext.microtones.ji_utilities.RatioSet</title>
<g id="a_node11"><a xlink:href="../api/abjadext/microtones/ji_utilities.html#abjadext.microtones.ji_utilities.RatioSet" xlink:title="Ratio\nSet" target="_top">
<path fill="#decbe4" stroke="#decbe4" stroke-width="2" d="M477.043,-46.498C477.043,-46.498 458.0146,-46.498 458.0146,-46.498 452.8486,-46.498 447.6826,-41.332 447.6826,-36.166 447.6826,-36.166 447.6826,-25.834 447.6826,-25.834 447.6826,-20.668 452.8486,-15.502 458.0146,-15.502 458.0146,-15.502 477.043,-15.502 477.043,-15.502 482.209,-15.502 487.3751,-20.668 487.3751,-25.834 487.3751,-25.834 487.3751,-36.166 487.3751,-36.166 487.3751,-41.332 482.209,-46.498 477.043,-46.498"/>
<text text-anchor="middle" x="467.5288" y="-34.499" font-family="Arial" font-size="10.00" fill="#000000">Ratio</text>
<text text-anchor="middle" x="467.5288" y="-23" font-family="Arial" font-size="10.00" fill="#000000">Set</text>
</a>
</g>
</g>
<!-- builtins.object -->
<g id="node12" class="node">
<title>builtins.object</title>
<g id="a_node12"><a xlink:href="https://docs.python.org/3.7/library/functions.html#object" xlink:title="object" target="_top">
<path fill="#fed9a6" stroke="#fed9a6" stroke-width="2" d="M51.8576,-254.0056C51.8576,-254.0056 22.8269,-254.0056 22.8269,-254.0056 19.4918,-254.0056 16.1566,-250.6704 16.1566,-247.3352 16.1566,-247.3352 16.1566,-240.6648 16.1566,-240.6648 16.1566,-237.3296 19.4918,-233.9944 22.8269,-233.9944 22.8269,-233.9944 51.8576,-233.9944 51.8576,-233.9944 55.1928,-233.9944 58.528,-237.3296 58.528,-240.6648 58.528,-240.6648 58.528,-247.3352 58.528,-247.3352 58.528,-250.6704 55.1928,-254.0056 51.8576,-254.0056"/>
<text text-anchor="middle" x="37.3423" y="-241.7495" font-family="Arial" font-size="10.00" fill="#000000">object</text>
</a>
</g>
</g>
</g>
</svg>
