<?xml version="1.0" encoding="UTF-8" standalone="no"?>
<!DOCTYPE svg PUBLIC "-//W3C//DTD SVG 1.1//EN"
 "http://www.w3.org/Graphics/SVG/1.1/DTD/svg11.dtd">
<!-- Generated by graphviz version 2.40.1 (20161225.0304)
 -->
<!-- Title: InheritanceGraph Pages: 1 -->
<svg width="649pt" height="1434pt"
 viewBox="0.00 0.00 648.99 1434.17" xmlns="http://www.w3.org/2000/svg" xmlns:xlink="http://www.w3.org/1999/xlink">
<g id="graph0" class="graph" transform="scale(1 1) rotate(0) translate(4 1430.1653)">
<title>InheritanceGraph</title>
<g id="clust1" class="cluster">
<title>cluster_abjad.timespan</title>
<path fill="transparent" stroke="#bcd2ee" stroke-width="2" stroke-dasharray="5,2" d="M98.6846,-229.1653C98.6846,-229.1653 158.2197,-229.1653 158.2197,-229.1653 164.2197,-229.1653 170.2197,-235.1653 170.2197,-241.1653 170.2197,-241.1653 170.2197,-272.1653 170.2197,-272.1653 170.2197,-278.1653 164.2197,-284.1653 158.2197,-284.1653 158.2197,-284.1653 98.6846,-284.1653 98.6846,-284.1653 92.6846,-284.1653 86.6846,-278.1653 86.6846,-272.1653 86.6846,-272.1653 86.6846,-241.1653 86.6846,-241.1653 86.6846,-235.1653 92.6846,-229.1653 98.6846,-229.1653"/>
<text text-anchor="middle" x="128.4521" y="-272.1653" font-family="Arial" font-size="10.00" fill="#000000">abjad.timespan</text>
</g>
<g id="clust2" class="cluster">
<title>cluster_builtins</title>
<path fill="transparent" stroke="#bcd2ee" stroke-width="2" stroke-dasharray="5,2" d="M20,-333.1653C20,-333.1653 54.6846,-333.1653 54.6846,-333.1653 60.6846,-333.1653 66.6846,-339.1653 66.6846,-345.1653 66.6846,-345.1653 66.6846,-376.1653 66.6846,-376.1653 66.6846,-382.1653 60.6846,-388.1653 54.6846,-388.1653 54.6846,-388.1653 20,-388.1653 20,-388.1653 14,-388.1653 8,-382.1653 8,-376.1653 8,-376.1653 8,-345.1653 8,-345.1653 8,-339.1653 14,-333.1653 20,-333.1653"/>
<text text-anchor="middle" x="37.3423" y="-376.1653" font-family="Arial" font-size="10.00" fill="#000000">builtins</text>
</g>
<g id="clust3" class="cluster">
<title>cluster_evans.commands</title>
<path fill="transparent" stroke="#bcd2ee" stroke-width="2" stroke-dasharray="5,2" d="M443.0542,-459.1653C443.0542,-459.1653 513.1821,-459.1653 513.1821,-459.1653 519.1821,-459.1653 525.1821,-465.1653 525.1821,-471.1653 525.1821,-471.1653 525.1821,-600.1653 525.1821,-600.1653 525.1821,-606.1653 519.1821,-612.1653 513.1821,-612.1653 513.1821,-612.1653 443.0542,-612.1653 443.0542,-612.1653 437.0542,-612.1653 431.0542,-606.1653 431.0542,-600.1653 431.0542,-600.1653 431.0542,-471.1653 431.0542,-471.1653 431.0542,-465.1653 437.0542,-459.1653 443.0542,-459.1653"/>
<text text-anchor="middle" x="478.1182" y="-600.1653" font-family="Arial" font-size="10.00" fill="#000000">evans.commands</text>
</g>
<g id="clust4" class="cluster">
<title>cluster_evans.consort</title>
<path fill="transparent" stroke="#bcd2ee" stroke-width="2" stroke-dasharray="5,2" d="M110.0015,-1201.1653C110.0015,-1201.1653 620.9922,-1201.1653 620.9922,-1201.1653 626.9922,-1201.1653 632.9922,-1207.1653 632.9922,-1213.1653 632.9922,-1213.1653 632.9922,-1406.1653 632.9922,-1406.1653 632.9922,-1412.1653 626.9922,-1418.1653 620.9922,-1418.1653 620.9922,-1418.1653 110.0015,-1418.1653 110.0015,-1418.1653 104.0015,-1418.1653 98.0015,-1412.1653 98.0015,-1406.1653 98.0015,-1406.1653 98.0015,-1213.1653 98.0015,-1213.1653 98.0015,-1207.1653 104.0015,-1201.1653 110.0015,-1201.1653"/>
<text text-anchor="middle" x="365.4968" y="-1406.1653" font-family="Arial" font-size="10.00" fill="#000000">evans.consort</text>
</g>
<g id="clust5" class="cluster">
<title>cluster_evans.handlers</title>
<path fill="transparent" stroke="#bcd2ee" stroke-width="2" stroke-dasharray="5,2" d="M106.9424,-620.1653C106.9424,-620.1653 620.7212,-620.1653 620.7212,-620.1653 626.7212,-620.1653 632.7212,-626.1653 632.7212,-632.1653 632.7212,-632.1653 632.7212,-1181.1653 632.7212,-1181.1653 632.7212,-1187.1653 626.7212,-1193.1653 620.7212,-1193.1653 620.7212,-1193.1653 106.9424,-1193.1653 106.9424,-1193.1653 100.9424,-1193.1653 94.9424,-1187.1653 94.9424,-1181.1653 94.9424,-1181.1653 94.9424,-632.1653 94.9424,-632.1653 94.9424,-626.1653 100.9424,-620.1653 106.9424,-620.1653"/>
<text text-anchor="middle" x="363.8318" y="-1181.1653" font-family="Arial" font-size="10.00" fill="#000000">evans.handlers</text>
</g>
<g id="clust6" class="cluster">
<title>cluster_evans.rtm</title>
<path fill="transparent" stroke="#bcd2ee" stroke-width="2" stroke-dasharray="5,2" d="M205.3223,-322.1653C205.3223,-322.1653 262.585,-322.1653 262.585,-322.1653 268.585,-322.1653 274.585,-328.1653 274.585,-334.1653 274.585,-334.1653 274.585,-425.1653 274.585,-425.1653 274.585,-431.1653 268.585,-437.1653 262.585,-437.1653 262.585,-437.1653 205.3223,-437.1653 205.3223,-437.1653 199.3223,-437.1653 193.3223,-431.1653 193.3223,-425.1653 193.3223,-425.1653 193.3223,-334.1653 193.3223,-334.1653 193.3223,-328.1653 199.3223,-322.1653 205.3223,-322.1653"/>
<text text-anchor="middle" x="233.9536" y="-425.1653" font-family="Arial" font-size="10.00" fill="#000000">evans.rtm</text>
</g>
<g id="clust7" class="cluster">
<title>cluster_evans.segmentmaker</title>
<path fill="transparent" stroke="#bcd2ee" stroke-width="2" stroke-dasharray="5,2" d="M434.4336,-298.1653C434.4336,-298.1653 521.8027,-298.1653 521.8027,-298.1653 527.8027,-298.1653 533.8027,-304.1653 533.8027,-310.1653 533.8027,-310.1653 533.8027,-413.1653 533.8027,-413.1653 533.8027,-419.1653 527.8027,-425.1653 521.8027,-425.1653 521.8027,-425.1653 434.4336,-425.1653 434.4336,-425.1653 428.4336,-425.1653 422.4336,-419.1653 422.4336,-413.1653 422.4336,-413.1653 422.4336,-310.1653 422.4336,-310.1653 422.4336,-304.1653 428.4336,-298.1653 434.4336,-298.1653"/>
<text text-anchor="middle" x="478.1182" y="-413.1653" font-family="Arial" font-size="10.00" fill="#000000">evans.segmentmaker</text>
</g>
<g id="clust8" class="cluster">
<title>cluster_evans.sequence</title>
<path fill="transparent" stroke="#bcd2ee" stroke-width="2" stroke-dasharray="5,2" d="M201.562,-131.1653C201.562,-131.1653 266.3452,-131.1653 266.3452,-131.1653 272.3452,-131.1653 278.3452,-137.1653 278.3452,-143.1653 278.3452,-143.1653 278.3452,-234.1653 278.3452,-234.1653 278.3452,-240.1653 272.3452,-246.1653 266.3452,-246.1653 266.3452,-246.1653 201.562,-246.1653 201.562,-246.1653 195.562,-246.1653 189.562,-240.1653 189.562,-234.1653 189.562,-234.1653 189.562,-143.1653 189.562,-143.1653 189.562,-137.1653 195.562,-131.1653 201.562,-131.1653"/>
<text text-anchor="middle" x="233.9536" y="-234.1653" font-family="Arial" font-size="10.00" fill="#000000">evans.sequence</text>
</g>
<g id="clust9" class="cluster">
<title>cluster_evans.spanners</title>
<path fill="transparent" stroke="#bcd2ee" stroke-width="2" stroke-dasharray="5,2" d="M317.1333,-93.1653C317.1333,-93.1653 379.7095,-93.1653 379.7095,-93.1653 385.7095,-93.1653 391.7095,-99.1653 391.7095,-105.1653 391.7095,-105.1653 391.7095,-159.1653 391.7095,-159.1653 391.7095,-165.1653 385.7095,-171.1653 379.7095,-171.1653 379.7095,-171.1653 317.1333,-171.1653 317.1333,-171.1653 311.1333,-171.1653 305.1333,-165.1653 305.1333,-159.1653 305.1333,-159.1653 305.1333,-105.1653 305.1333,-105.1653 305.1333,-99.1653 311.1333,-93.1653 317.1333,-93.1653"/>
<text text-anchor="middle" x="348.4214" y="-159.1653" font-family="Arial" font-size="10.00" fill="#000000">evans.spanners</text>
</g>
<g id="clust10" class="cluster">
<title>cluster_evans.timespan</title>
<path fill="transparent" stroke="#bcd2ee" stroke-width="2" stroke-dasharray="5,2" d="M447.3506,-12.1653C447.3506,-12.1653 508.8857,-12.1653 508.8857,-12.1653 514.8857,-12.1653 520.8857,-18.1653 520.8857,-24.1653 520.8857,-24.1653 520.8857,-164.1653 520.8857,-164.1653 520.8857,-170.1653 514.8857,-176.1653 508.8857,-176.1653 508.8857,-176.1653 447.3506,-176.1653 447.3506,-176.1653 441.3506,-176.1653 435.3506,-170.1653 435.3506,-164.1653 435.3506,-164.1653 435.3506,-24.1653 435.3506,-24.1653 435.3506,-18.1653 441.3506,-12.1653 447.3506,-12.1653"/>
<text text-anchor="middle" x="478.1182" y="-164.1653" font-family="Arial" font-size="10.00" fill="#000000">evans.timespan</text>
</g>
<!-- abjad.timespan.Timespan&#45;&gt;evans.timespan.SilentTimespan -->
<g id="edge26" class="edge">
<title>abjad.timespan.Timespan&#45;&gt;evans.timespan.SilentTimespan</title>
<path fill="none" stroke="#778899" d="M158.0635,-252.5889C188.7386,-257.0967 237.7758,-261.171 278.3452,-250.1653 346.3987,-231.7036 414.998,-183.5987 451.4351,-155.1494"/>
<polygon fill="#778899" stroke="#778899" points="453.8965,-157.6647 459.5615,-148.7116 449.5497,-152.1778 453.8965,-157.6647"/>
</g>
<!-- builtins.object&#45;&gt;abjad.timespan.Timespan -->
<g id="edge27" class="edge">
<title>builtins.object&#45;&gt;abjad.timespan.Timespan</title>
<path fill="none" stroke="#778899" d="M44.649,-341.0215C53.9584,-328.2947 70.7573,-305.979 86.6846,-288.1653 93.9462,-280.0436 102.4517,-271.5331 109.8854,-264.3841"/>
<polygon fill="#778899" stroke="#778899" points="112.5695,-266.6624 117.4215,-257.2439 107.755,-261.581 112.5695,-266.6624"/>
</g>
<!-- builtins.object&#45;&gt;evans.commands.Command -->
<g id="edge28" class="edge">
<title>builtins.object&#45;&gt;evans.commands.Command</title>
<path fill="none" stroke="#778899" d="M41.1971,-361.0109C47.9704,-377.0391 63.5226,-408.7313 86.6846,-426.1653 191.7967,-505.2831 359.3789,-494.421 436.6328,-484.0381"/>
<polygon fill="#778899" stroke="#778899" points="437.506,-487.4497 446.9183,-482.5857 436.5271,-480.5184 437.506,-487.4497"/>
</g>
<!-- builtins.object&#45;&gt;evans.commands.HandlerCommand -->
<g id="edge29" class="edge">
<title>builtins.object&#45;&gt;evans.commands.HandlerCommand</title>
<path fill="none" stroke="#778899" d="M37.8729,-361.2059C39.7808,-387.3064 48.4034,-458.0421 86.6846,-498.1653 179.1952,-595.1275 356.3476,-585.8924 436.6835,-575.7416"/>
<polygon fill="#778899" stroke="#778899" points="437.453,-579.17 446.9023,-574.3783 436.5273,-572.2315 437.453,-579.17"/>
</g>
<!-- builtins.object&#45;&gt;evans.commands.RhythmCommand -->
<g id="edge30" class="edge">
<title>builtins.object&#45;&gt;evans.commands.RhythmCommand</title>
<path fill="none" stroke="#778899" d="M38.9926,-360.9466C43.0989,-382.2698 55.7627,-433.2601 86.6846,-461.1653 185.3181,-550.1763 358.204,-538.3982 436.9507,-527.2946"/>
<polygon fill="#778899" stroke="#778899" points="437.5926,-530.7378 446.9729,-525.8122 436.5684,-523.8131 437.5926,-530.7378"/>
</g>
<!-- builtins.object&#45;&gt;evans.consort.AbjadObject.AbjadObject -->
<g id="edge31" class="edge">
<title>builtins.object&#45;&gt;evans.consort.AbjadObject.AbjadObject</title>
<path fill="none" stroke="#778899" d="M37.427,-361.1224C38.2093,-444.4944 45.1236,-1027.4702 86.6846,-1197.1653 92.6364,-1221.4668 104.7505,-1247.287 114.4067,-1265.5388"/>
<polygon fill="#778899" stroke="#778899" points="111.3401,-1267.2261 119.1865,-1274.3454 117.4923,-1263.8869 111.3401,-1267.2261"/>
</g>
<!-- builtins.object&#45;&gt;evans.handlers.Handler -->
<g id="edge32" class="edge">
<title>builtins.object&#45;&gt;evans.handlers.Handler</title>
<path fill="none" stroke="#778899" d="M39.081,-361.1841C50.0638,-424.4703 109.8405,-768.9201 124.9708,-856.1048"/>
<polygon fill="#778899" stroke="#778899" points="121.5368,-856.787 126.6952,-866.0413 128.4337,-855.5901 121.5368,-856.787"/>
</g>
<!-- builtins.object&#45;&gt;evans.rtm.RTMMaker -->
<g id="edge33" class="edge">
<title>builtins.object&#45;&gt;evans.rtm.RTMMaker</title>
<path fill="none" stroke="#778899" d="M58.9038,-357.5009C67.5213,-359.976 77.5508,-362.7853 86.6846,-365.1653 121.7171,-374.2936 161.6911,-383.7327 191.144,-390.5047"/>
<polygon fill="#778899" stroke="#778899" points="190.5688,-393.9635 201.0977,-392.784 192.1313,-387.1401 190.5688,-393.9635"/>
</g>
<!-- builtins.object&#45;&gt;evans.rtm.RhythmTreeQuantizer -->
<g id="edge34" class="edge">
<title>builtins.object&#45;&gt;evans.rtm.RhythmTreeQuantizer</title>
<path fill="none" stroke="#778899" d="M58.7574,-351.1653C91.1683,-351.1653 153.225,-351.1653 194.1039,-351.1653"/>
<polygon fill="#778899" stroke="#778899" points="194.2644,-354.6654 204.2644,-351.1653 194.2644,-347.6654 194.2644,-354.6654"/>
</g>
<!-- builtins.object&#45;&gt;evans.segmentmaker.NoteheadBracketMaker -->
<g id="edge35" class="edge">
<title>builtins.object&#45;&gt;evans.segmentmaker.NoteheadBracketMaker</title>
<path fill="none" stroke="#778899" d="M58.7835,-344.997C88.0387,-336.932 142.2409,-323.2358 189.562,-318.1653 277.8144,-308.7089 382.048,-316.642 437.9231,-322.4313"/>
<polygon fill="#778899" stroke="#778899" points="437.7914,-325.9371 448.1066,-323.5187 438.5347,-318.9766 437.7914,-325.9371"/>
</g>
<!-- builtins.object&#45;&gt;evans.segmentmaker.SegmentMaker -->
<g id="edge36" class="edge">
<title>builtins.object&#45;&gt;evans.segmentmaker.SegmentMaker</title>
<path fill="none" stroke="#778899" d="M48.5053,-361.0323C72.3281,-381.3007 130.7846,-426.9149 189.562,-441.1653 278.8659,-462.8167 384.987,-424.9951 440.3058,-400.53"/>
<polygon fill="#778899" stroke="#778899" points="442.0337,-403.59 449.706,-396.2834 439.1519,-397.2108 442.0337,-403.59"/>
</g>
<!-- builtins.object&#45;&gt;evans.sequence.CyclicList -->
<g id="edge37" class="edge">
<title>builtins.object&#45;&gt;evans.sequence.CyclicList</title>
<path fill="none" stroke="#778899" d="M39.1944,-341.1498C45.1574,-309.9373 64.7498,-215.2546 86.6846,-194.1653 117.9631,-164.0923 169.4947,-156.1265 202.5641,-154.29"/>
<polygon fill="#778899" stroke="#778899" points="202.7509,-157.7854 212.6031,-153.8888 202.4713,-150.791 202.7509,-157.7854"/>
</g>
<!-- builtins.object&#45;&gt;evans.sequence.MarkovChain -->
<g id="edge38" class="edge">
<title>builtins.object&#45;&gt;evans.sequence.MarkovChain</title>
<path fill="none" stroke="#778899" d="M37.9838,-341.3784C40.1265,-317.3112 49.2071,-255.0354 86.6846,-225.1653 118.3784,-199.9048 166.4858,-197.3329 199.0164,-199.1339"/>
<polygon fill="#778899" stroke="#778899" points="199.1785,-202.6547 209.4052,-199.8859 199.684,-195.673 199.1785,-202.6547"/>
</g>
<!-- builtins.object&#45;&gt;evans.spanners.BowAnglePoint -->
<g id="edge39" class="edge">
<title>builtins.object&#45;&gt;evans.spanners.BowAnglePoint</title>
<path fill="none" stroke="#778899" d="M38.4949,-341.2384C42.8815,-305.1343 59.6628,-181.4925 86.6846,-154.1653 147.8036,-92.3554 262.3478,-104.7387 317.1625,-115.1793"/>
<polygon fill="#778899" stroke="#778899" points="316.4926,-118.6146 326.9861,-117.1534 317.8717,-111.7518 316.4926,-118.6146"/>
</g>
<!-- builtins.object&#45;&gt;evans.timespan.TimespanMaker -->
<g id="edge40" class="edge">
<title>builtins.object&#45;&gt;evans.timespan.TimespanMaker</title>
<path fill="none" stroke="#778899" d="M37.5042,-341.1775C38.4751,-294.7614 45.0074,-100.7133 86.6846,-61.1653 183.0205,30.2493 359.7028,-2.5122 438.439,-23.3175"/>
<polygon fill="#778899" stroke="#778899" points="437.8679,-26.7892 448.4359,-26.0352 439.7043,-20.0344 437.8679,-26.7892"/>
</g>
<!-- builtins.object&#45;&gt;evans.timespan.TimespanSpecifier -->
<g id="edge41" class="edge">
<title>builtins.object&#45;&gt;evans.timespan.TimespanSpecifier</title>
<path fill="none" stroke="#778899" d="M37.8204,-341.409C40.0595,-300.0744 50.9528,-140.053 86.6846,-108.1653 185.6168,-19.8761 360.5681,-52.0313 438.6148,-72.4696"/>
<polygon fill="#778899" stroke="#778899" points="437.9594,-75.9177 448.5256,-75.1397 439.7804,-69.1587 437.9594,-75.9177"/>
</g>
<!-- evans.consort.AbjadObject.AbjadObject&#45;&gt;evans.consort.AbjadValueObject.AbjadValueObject -->
<g id="edge1" class="edge">
<title>evans.consort.AbjadObject.AbjadObject&#45;&gt;evans.consort.AbjadValueObject.AbjadValueObject</title>
<path fill="none" stroke="#778899" d="M151.0849,-1277.2938C166.1042,-1268.7521 186.0223,-1257.4244 202.5666,-1248.0154"/>
<polygon fill="#778899" stroke="#778899" points="204.396,-1251.0015 211.3583,-1243.0155 200.9355,-1244.9167 204.396,-1251.0015"/>
</g>
<!-- evans.consort.AbjadObject.AbjadObject&#45;&gt;evans.consort.LogicalTieCollection.LogicalTieCollection -->
<g id="edge2" class="edge">
<title>evans.consort.AbjadObject.AbjadObject&#45;&gt;evans.consort.LogicalTieCollection.LogicalTieCollection</title>
<path fill="none" stroke="#778899" d="M151.1126,-1286.0352C188.0729,-1279.2989 261.8147,-1265.8589 307.7924,-1257.4791"/>
<polygon fill="#778899" stroke="#778899" points="308.5096,-1260.9061 317.72,-1255.6697 307.2545,-1254.0196 308.5096,-1260.9061"/>
</g>
<!-- evans.consort.AbjadObject.AbjadObject&#45;&gt;evans.consort.RatioPartsExpression.RatioPartsExpression -->
<g id="edge3" class="edge">
<title>evans.consort.AbjadObject.AbjadObject&#45;&gt;evans.consort.RatioPartsExpression.RatioPartsExpression</title>
<path fill="none" stroke="#778899" d="M151.0233,-1289.895C196.5845,-1289.2197 302.7831,-1286.9897 391.7095,-1280.1653 405.8681,-1279.0787 421.2835,-1277.4412 435.1221,-1275.8041"/>
<polygon fill="#778899" stroke="#778899" points="435.8455,-1279.242 445.3504,-1274.5614 435.0012,-1272.2931 435.8455,-1279.242"/>
</g>
<!-- evans.consort.AbjadObject.AbjadObject&#45;&gt;evans.consort.TimespanCollection.TimespanCollection -->
<g id="edge4" class="edge">
<title>evans.consort.AbjadObject.AbjadObject&#45;&gt;evans.consort.TimespanCollection.TimespanCollection</title>
<path fill="none" stroke="#778899" d="M150.9565,-1291.1299C224.7365,-1294.2925 459.9897,-1304.3765 554.833,-1308.442"/>
<polygon fill="#778899" stroke="#778899" points="554.7506,-1311.9416 564.8914,-1308.8731 555.0505,-1304.948 554.7506,-1311.9416"/>
</g>
<!-- evans.consort.AbjadObject.AbjadObject&#45;&gt;evans.consort.TimespanCollectionNode.TimespanCollectionNode -->
<g id="edge5" class="edge">
<title>evans.consort.AbjadObject.AbjadObject&#45;&gt;evans.consort.TimespanCollectionNode.TimespanCollectionNode</title>
<path fill="none" stroke="#778899" d="M151.0849,-1303.0368C163.8204,-1310.2797 180.0783,-1319.5257 194.8148,-1327.9066"/>
<polygon fill="#778899" stroke="#778899" points="193.3259,-1331.0862 203.7487,-1332.9874 196.7864,-1325.0013 193.3259,-1331.0862"/>
</g>
<!-- evans.consort.AbjadObject.AbjadObject&#45;&gt;evans.consort.TimespanSimultaneity.TimespanSimultaneity -->
<g id="edge6" class="edge">
<title>evans.consort.AbjadObject.AbjadObject&#45;&gt;evans.consort.TimespanSimultaneity.TimespanSimultaneity</title>
<path fill="none" stroke="#778899" d="M133.7409,-1305.7564C141.9151,-1327.0642 159.8549,-1364.4283 189.562,-1380.1653 224.2561,-1398.544 269.4914,-1394.8741 302.728,-1388.0288"/>
<polygon fill="#778899" stroke="#778899" points="303.6324,-1391.4132 312.6326,-1385.8234 302.1109,-1384.5805 303.6324,-1391.4132"/>
</g>
<!-- evans.handlers.Handler&#45;&gt;evans.handlers.ArticulationHandler -->
<g id="edge7" class="edge">
<title>evans.handlers.Handler&#45;&gt;evans.handlers.ArticulationHandler</title>
<path fill="none" stroke="#778899" d="M129.0563,-866.1721C131.4247,-834.5839 142.433,-735.2552 189.562,-672.1653 191.3697,-669.7453 193.4434,-667.4693 195.685,-665.34"/>
<polygon fill="#778899" stroke="#778899" points="198.3021,-667.72 203.8116,-658.6704 193.8612,-662.3091 198.3021,-667.72"/>
</g>
<!-- evans.handlers.Handler&#45;&gt;evans.handlers.BendHandler -->
<g id="edge8" class="edge">
<title>evans.handlers.Handler&#45;&gt;evans.handlers.BendHandler</title>
<path fill="none" stroke="#778899" d="M130.3558,-866.3236C137.2555,-831.6739 162.0001,-716.1266 189.562,-692.1653 207.4625,-676.6032 271.2352,-668.929 312.1861,-665.5239"/>
<polygon fill="#778899" stroke="#778899" points="312.6205,-669.0007 322.3162,-664.7294 312.0731,-662.0221 312.6205,-669.0007"/>
</g>
<!-- evans.handlers.Handler&#45;&gt;evans.handlers.BisbigliandoHandler -->
<g id="edge9" class="edge">
<title>evans.handlers.Handler&#45;&gt;evans.handlers.BisbigliandoHandler</title>
<path fill="none" stroke="#778899" d="M130.7685,-865.9745C138.4128,-833.2836 163.8212,-732.0251 189.562,-712.1653 208.3842,-697.6434 356.4923,-688.7644 432.8774,-685.1063"/>
<polygon fill="#778899" stroke="#778899" points="433.3335,-688.5888 443.1588,-684.6247 433.0059,-681.5965 433.3335,-688.5888"/>
</g>
<!-- evans.handlers.Handler&#45;&gt;evans.handlers.BowAngleHandler -->
<g id="edge10" class="edge">
<title>evans.handlers.Handler&#45;&gt;evans.handlers.BowAngleHandler</title>
<path fill="none" stroke="#778899" d="M129.0088,-866.2942C131.1602,-838.6471 141.437,-760.3103 189.562,-727.1653 219.5414,-706.5176 465.6376,-712.7013 559.1596,-715.8424"/>
<polygon fill="#778899" stroke="#778899" points="559.157,-719.3443 569.2715,-716.1903 559.3978,-712.3484 559.157,-719.3443"/>
</g>
<!-- evans.handlers.Handler&#45;&gt;evans.handlers.ClefHandler -->
<g id="edge11" class="edge">
<title>evans.handlers.Handler&#45;&gt;evans.handlers.ClefHandler</title>
<path fill="none" stroke="#778899" d="M133.001,-866.2242C141.8557,-847.6557 162.8979,-807.146 189.562,-780.1653 192.7044,-776.9856 196.2521,-773.9686 199.9381,-771.1672"/>
<polygon fill="#778899" stroke="#778899" points="201.9661,-774.0198 208.1249,-765.3989 197.9343,-768.2975 201.9661,-774.0198"/>
</g>
<!-- evans.handlers.Handler&#45;&gt;evans.handlers.CompositeHandler -->
<g id="edge12" class="edge">
<title>evans.handlers.Handler&#45;&gt;evans.handlers.CompositeHandler</title>
<path fill="none" stroke="#778899" d="M133.3088,-866.3757C142.0785,-849.8079 162.2179,-816.4577 189.562,-800.1653 208.7789,-788.7153 265.8752,-780.2462 305.9692,-775.5067"/>
<polygon fill="#778899" stroke="#778899" points="306.4808,-778.9711 316.0168,-774.3543 305.6831,-772.0167 306.4808,-778.9711"/>
</g>
<!-- evans.handlers.Handler&#45;&gt;evans.handlers.DynamicHandler -->
<g id="edge13" class="edge">
<title>evans.handlers.Handler&#45;&gt;evans.handlers.DynamicHandler</title>
<path fill="none" stroke="#778899" d="M135.8534,-866.2092C146.2308,-853.1027 166.4464,-830.5152 189.562,-820.1653 211.9542,-810.1393 367.5255,-798.5691 440.4945,-793.6183"/>
<polygon fill="#778899" stroke="#778899" points="440.8925,-797.0995 450.6353,-792.9369 440.4231,-790.1153 440.8925,-797.0995"/>
</g>
<!-- evans.handlers.Handler&#45;&gt;evans.handlers.GettatoHandler -->
<g id="edge14" class="edge">
<title>evans.handlers.Handler&#45;&gt;evans.handlers.GettatoHandler</title>
<path fill="none" stroke="#778899" d="M139.1411,-866.1774C150.6054,-856.1887 169.8377,-841.4357 189.562,-835.1653 257.8472,-813.4572 473.8126,-819.9438 559.5018,-823.5163"/>
<polygon fill="#778899" stroke="#778899" points="559.383,-827.0144 569.5238,-823.9459 559.6828,-820.0208 559.383,-827.0144"/>
</g>
<!-- evans.handlers.Handler&#45;&gt;evans.handlers.GlissandoHandler -->
<g id="edge15" class="edge">
<title>evans.handlers.Handler&#45;&gt;evans.handlers.GlissandoHandler</title>
<path fill="none" stroke="#778899" d="M153.9911,-872.0501C165.8486,-870.1394 180.2321,-867.8217 193.513,-865.6817"/>
<polygon fill="#778899" stroke="#778899" points="194.0781,-869.1359 203.394,-864.0895 192.9645,-862.225 194.0781,-869.1359"/>
</g>
<!-- evans.handlers.Handler&#45;&gt;evans.handlers.GraceHandler -->
<g id="edge16" class="edge">
<title>evans.handlers.Handler&#45;&gt;evans.handlers.GraceHandler</title>
<path fill="none" stroke="#778899" d="M153.9664,-879.7454C164.9025,-881.1092 177.8345,-882.4958 189.562,-883.1653 231.6216,-885.5664 280.0472,-883.6617 312.1609,-881.7446"/>
<polygon fill="#778899" stroke="#778899" points="312.6333,-885.2218 322.3935,-881.1001 312.1932,-878.2357 312.6333,-885.2218"/>
</g>
<!-- evans.handlers.Handler&#45;&gt;evans.handlers.IntermittentVoiceHandler -->
<g id="edge17" class="edge">
<title>evans.handlers.Handler&#45;&gt;evans.handlers.IntermittentVoiceHandler</title>
<path fill="none" stroke="#778899" d="M154.2545,-881.6171C165.1251,-883.8137 177.9303,-886.2704 189.562,-888.1653 278.4802,-902.6503 301.7686,-908.3524 391.7095,-903.1653 405.766,-902.3546 421.0451,-900.808 434.7917,-899.1691"/>
<polygon fill="#778899" stroke="#778899" points="435.4661,-902.6124 444.9595,-897.9085 434.6048,-895.6656 435.4661,-902.6124"/>
</g>
<!-- evans.handlers.Handler&#45;&gt;evans.handlers.NoteheadHandler -->
<g id="edge18" class="edge">
<title>evans.handlers.Handler&#45;&gt;evans.handlers.NoteheadHandler</title>
<path fill="none" stroke="#778899" d="M150.3726,-885.984C161.8286,-890.7101 176.211,-896.0204 189.562,-899.1653 320.7998,-930.0787 481.7332,-933.7957 555.1328,-933.6859"/>
<polygon fill="#778899" stroke="#778899" points="555.3274,-937.1853 565.3131,-933.6447 555.299,-930.1853 555.3274,-937.1853"/>
</g>
<!-- evans.handlers.Handler&#45;&gt;evans.handlers.OnBeatGraceHandler -->
<g id="edge19" class="edge">
<title>evans.handlers.Handler&#45;&gt;evans.handlers.OnBeatGraceHandler</title>
<path fill="none" stroke="#778899" d="M137.84,-885.9705C149.719,-898.3121 170.8846,-920.0846 189.562,-938.1653 193.2367,-941.7225 197.1216,-945.4118 201.0034,-949.0537"/>
<polygon fill="#778899" stroke="#778899" points="198.7058,-951.6967 208.4086,-955.952 203.4772,-946.5748 198.7058,-951.6967"/>
</g>
<!-- evans.handlers.Handler&#45;&gt;evans.handlers.PitchHandler -->
<g id="edge20" class="edge">
<title>evans.handlers.Handler&#45;&gt;evans.handlers.PitchHandler</title>
<path fill="none" stroke="#778899" d="M129.2894,-886.215C132.1145,-912.8658 143.8674,-985.3388 189.562,-1015.1653 225.9815,-1038.9376 277.8354,-1031.8134 312.1573,-1022.8931"/>
<polygon fill="#778899" stroke="#778899" points="313.512,-1026.1493 322.2096,-1020.0993 311.6375,-1019.405 313.512,-1026.1493"/>
</g>
<!-- evans.handlers.Handler&#45;&gt;evans.handlers.RhythmHandler -->
<g id="edge21" class="edge">
<title>evans.handlers.Handler&#45;&gt;evans.handlers.RhythmHandler</title>
<path fill="none" stroke="#778899" d="M128.9989,-886.1397C131.1242,-914.0922 141.3389,-993.4086 189.562,-1028.1653 228.9126,-1056.5271 373.8315,-1043.6991 442.0986,-1035.7667"/>
<polygon fill="#778899" stroke="#778899" points="442.8535,-1039.2015 452.369,-1034.5426 442.025,-1032.2507 442.8535,-1039.2015"/>
</g>
<!-- evans.handlers.Handler&#45;&gt;evans.handlers.SlurHandler -->
<g id="edge22" class="edge">
<title>evans.handlers.Handler&#45;&gt;evans.handlers.SlurHandler</title>
<path fill="none" stroke="#778899" d="M130.6231,-886.0008C138.0113,-918.5173 163.1891,-1021.5992 189.562,-1041.1653 247.4531,-1084.1146 471.4724,-1073.7719 559.3627,-1067.8635"/>
<polygon fill="#778899" stroke="#778899" points="559.6519,-1071.352 569.3859,-1067.1688 559.1678,-1064.3687 559.6519,-1071.352"/>
</g>
<!-- evans.handlers.Handler&#45;&gt;evans.handlers.TempoSpannerHandler -->
<g id="edge23" class="edge">
<title>evans.handlers.Handler&#45;&gt;evans.handlers.TempoSpannerHandler</title>
<path fill="none" stroke="#778899" d="M129.4785,-885.9281C133.035,-915.9435 147.0358,-1008.5555 189.562,-1070.1653 192.3426,-1074.1936 195.7247,-1077.9808 199.3683,-1081.4679"/>
<polygon fill="#778899" stroke="#778899" points="197.2601,-1084.2726 207.1059,-1088.1853 201.8491,-1078.9866 197.2601,-1084.2726"/>
</g>
<!-- evans.handlers.Handler&#45;&gt;evans.handlers.TextSpanHandler -->
<g id="edge24" class="edge">
<title>evans.handlers.Handler&#45;&gt;evans.handlers.TextSpanHandler</title>
<path fill="none" stroke="#778899" d="M129.1995,-886.0791C132.7048,-929.617 149.0799,-1103.1232 189.562,-1135.1653 224.163,-1162.5524 277.4662,-1151.7501 312.5188,-1139.8279"/>
<polygon fill="#778899" stroke="#778899" points="314.1042,-1142.9773 322.3302,-1136.3002 311.7357,-1136.3902 314.1042,-1142.9773"/>
</g>
<!-- evans.handlers.Handler&#45;&gt;evans.handlers.TrillHandler -->
<g id="edge25" class="edge">
<title>evans.handlers.Handler&#45;&gt;evans.handlers.TrillHandler</title>
<path fill="none" stroke="#778899" d="M129.143,-886.2059C132.4548,-931.1317 148.2823,-1113.0311 189.562,-1148.1653 261.1489,-1209.0946 382.8237,-1181.7777 442.6974,-1162.8457"/>
<polygon fill="#778899" stroke="#778899" points="444.0266,-1166.0937 452.4466,-1159.6629 441.8541,-1159.4393 444.0266,-1166.0937"/>
</g>
<!-- abjad.timespan.Timespan -->
<g id="node1" class="node">
<title>abjad.timespan.Timespan</title>
<path fill="#fbb4ae" stroke="#fbb4ae" stroke-width="2" d="M151.3187,-257.1709C151.3187,-257.1709 105.5856,-257.1709 105.5856,-257.1709 102.2504,-257.1709 98.9152,-253.8357 98.9152,-250.5005 98.9152,-250.5005 98.9152,-243.8301 98.9152,-243.8301 98.9152,-240.4949 102.2504,-237.1597 105.5856,-237.1597 105.5856,-237.1597 151.3187,-237.1597 151.3187,-237.1597 154.6539,-237.1597 157.9891,-240.4949 157.9891,-243.8301 157.9891,-243.8301 157.9891,-250.5005 157.9891,-250.5005 157.9891,-253.8357 154.6539,-257.1709 151.3187,-257.1709"/>
<text text-anchor="middle" x="128.4521" y="-244.9148" font-family="Arial" font-size="10.00" fill="#000000">Timespan</text>
</g>
<!-- builtins.object -->
<g id="node2" class="node">
<title>builtins.object</title>
<g id="a_node2"><a xlink:href="https://docs.python.org/3.7/library/functions.html#object" xlink:title="object" target="_top">
<path fill="#b3cde3" stroke="#b3cde3" stroke-width="2" d="M51.8576,-361.1709C51.8576,-361.1709 22.8269,-361.1709 22.8269,-361.1709 19.4918,-361.1709 16.1566,-357.8357 16.1566,-354.5005 16.1566,-354.5005 16.1566,-347.8301 16.1566,-347.8301 16.1566,-344.4949 19.4918,-341.1597 22.8269,-341.1597 22.8269,-341.1597 51.8576,-341.1597 51.8576,-341.1597 55.1928,-341.1597 58.528,-344.4949 58.528,-347.8301 58.528,-347.8301 58.528,-354.5005 58.528,-354.5005 58.528,-357.8357 55.1928,-361.1709 51.8576,-361.1709"/>
<text text-anchor="middle" x="37.3423" y="-348.9148" font-family="Arial" font-size="10.00" fill="#000000">object</text>
</a>
</g>
</g>
<!-- evans.commands.Command -->
<g id="node3" class="node">
<title>evans.commands.Command</title>
<g id="a_node3"><a xlink:href="../api/evans/commands.html#evans.commands.Command" xlink:title="Command" target="_top">
<path fill="#ccebc5" stroke="#ccebc5" stroke-width="2" d="M502.5758,-487.1709C502.5758,-487.1709 453.6605,-487.1709 453.6605,-487.1709 450.3253,-487.1709 446.9901,-483.8357 446.9901,-480.5005 446.9901,-480.5005 446.9901,-473.8301 446.9901,-473.8301 446.9901,-470.4949 450.3253,-467.1597 453.6605,-467.1597 453.6605,-467.1597 502.5758,-467.1597 502.5758,-467.1597 505.911,-467.1597 509.2462,-470.4949 509.2462,-473.8301 509.2462,-473.8301 509.2462,-480.5005 509.2462,-480.5005 509.2462,-483.8357 505.911,-487.1709 502.5758,-487.1709"/>
<text text-anchor="middle" x="478.1182" y="-474.9148" font-family="Arial" font-size="10.00" fill="#000000">Command</text>
</a>
</g>
</g>
<!-- evans.commands.HandlerCommand -->
<g id="node4" class="node">
<title>evans.commands.HandlerCommand</title>
<g id="a_node4"><a xlink:href="../api/evans/commands.html#evans.commands.HandlerCommand" xlink:title="Handler\nCommand" target="_top">
<path fill="#ccebc5" stroke="#ccebc5" stroke-width="2" d="M498.9142,-584.6633C498.9142,-584.6633 457.3221,-584.6633 457.3221,-584.6633 452.1561,-584.6633 446.9901,-579.4973 446.9901,-574.3313 446.9901,-574.3313 446.9901,-563.9993 446.9901,-563.9993 446.9901,-558.8333 452.1561,-553.6672 457.3221,-553.6672 457.3221,-553.6672 498.9142,-553.6672 498.9142,-553.6672 504.0802,-553.6672 509.2462,-558.8333 509.2462,-563.9993 509.2462,-563.9993 509.2462,-574.3313 509.2462,-574.3313 509.2462,-579.4973 504.0802,-584.6633 498.9142,-584.6633"/>
<text text-anchor="middle" x="478.1182" y="-572.6643" font-family="Arial" font-size="10.00" fill="#000000">Handler</text>
<text text-anchor="middle" x="478.1182" y="-561.1653" font-family="Arial" font-size="10.00" fill="#000000">Command</text>
</a>
</g>
</g>
<!-- evans.commands.RhythmCommand -->
<g id="node5" class="node">
<title>evans.commands.RhythmCommand</title>
<g id="a_node5"><a xlink:href="../api/evans/commands.html#evans.commands.RhythmCommand" xlink:title="Rhythm\nCommand" target="_top">
<path fill="#ccebc5" stroke="#ccebc5" stroke-width="2" d="M498.9142,-535.6633C498.9142,-535.6633 457.3221,-535.6633 457.3221,-535.6633 452.1561,-535.6633 446.9901,-530.4973 446.9901,-525.3313 446.9901,-525.3313 446.9901,-514.9993 446.9901,-514.9993 446.9901,-509.8333 452.1561,-504.6672 457.3221,-504.6672 457.3221,-504.6672 498.9142,-504.6672 498.9142,-504.6672 504.0802,-504.6672 509.2462,-509.8333 509.2462,-514.9993 509.2462,-514.9993 509.2462,-525.3313 509.2462,-525.3313 509.2462,-530.4973 504.0802,-535.6633 498.9142,-535.6633"/>
<text text-anchor="middle" x="478.1182" y="-523.6643" font-family="Arial" font-size="10.00" fill="#000000">Rhythm</text>
<text text-anchor="middle" x="478.1182" y="-512.1653" font-family="Arial" font-size="10.00" fill="#000000">Command</text>
</a>
</g>
</g>
<!-- evans.consort.AbjadObject.AbjadObject -->
<g id="node6" class="node">
<title>evans.consort.AbjadObject.AbjadObject</title>
<g id="a_node6"><a xlink:href="../api/evans/consort/AbjadObject.html#evans.consort.AbjadObject.AbjadObject" xlink:title="Abjad\nObject" target="_top">
<path fill="#decbe4" stroke="#decbe4" stroke-width="2" d="M140.5216,-1305.6633C140.5216,-1305.6633 116.3827,-1305.6633 116.3827,-1305.6633 111.2167,-1305.6633 106.0507,-1300.4973 106.0507,-1295.3313 106.0507,-1295.3313 106.0507,-1284.9993 106.0507,-1284.9993 106.0507,-1279.8333 111.2167,-1274.6672 116.3827,-1274.6672 116.3827,-1274.6672 140.5216,-1274.6672 140.5216,-1274.6672 145.6876,-1274.6672 150.8536,-1279.8333 150.8536,-1284.9993 150.8536,-1284.9993 150.8536,-1295.3313 150.8536,-1295.3313 150.8536,-1300.4973 145.6876,-1305.6633 140.5216,-1305.6633"/>
<text text-anchor="middle" x="128.4521" y="-1293.6643" font-family="Arial" font-size="10.00" fill="#000000">Abjad</text>
<text text-anchor="middle" x="128.4521" y="-1282.1653" font-family="Arial" font-size="10.00" fill="#000000">Object</text>
</a>
</g>
</g>
<!-- evans.consort.AbjadValueObject.AbjadValueObject -->
<g id="node7" class="node">
<title>evans.consort.AbjadValueObject.AbjadValueObject</title>
<g id="a_node7"><a xlink:href="../api/evans/consort/AbjadValueObject.html#evans.consort.AbjadValueObject.AbjadValueObject" xlink:title="Abjad\nValue\nObject" target="_top">
<path fill="#decbe4" stroke="#decbe4" stroke-width="2" d="M244.3551,-1251.6653C244.3551,-1251.6653 223.5521,-1251.6653 223.5521,-1251.6653 217.5521,-1251.6653 211.5521,-1245.6653 211.5521,-1239.6653 211.5521,-1239.6653 211.5521,-1220.6653 211.5521,-1220.6653 211.5521,-1214.6653 217.5521,-1208.6653 223.5521,-1208.6653 223.5521,-1208.6653 244.3551,-1208.6653 244.3551,-1208.6653 250.3551,-1208.6653 256.3551,-1214.6653 256.3551,-1220.6653 256.3551,-1220.6653 256.3551,-1239.6653 256.3551,-1239.6653 256.3551,-1245.6653 250.3551,-1251.6653 244.3551,-1251.6653"/>
<text text-anchor="middle" x="233.9536" y="-1239.4138" font-family="Arial" font-size="10.00" fill="#000000">Abjad</text>
<text text-anchor="middle" x="233.9536" y="-1227.9148" font-family="Arial" font-size="10.00" fill="#000000">Value</text>
<text text-anchor="middle" x="233.9536" y="-1216.4158" font-family="Arial" font-size="10.00" fill="#000000">Object</text>
</a>
</g>
</g>
<!-- evans.consort.LogicalTieCollection.LogicalTieCollection -->
<g id="node8" class="node">
<title>evans.consort.LogicalTieCollection.LogicalTieCollection</title>
<g id="a_node8"><a xlink:href="../api/evans/consort/LogicalTieCollection.html#evans.consort.LogicalTieCollection.LogicalTieCollection" xlink:title="Logical\nTie\nCollection" target="_top">
<path fill="#decbe4" stroke="#decbe4" stroke-width="2" d="M365.8326,-1271.6653C365.8326,-1271.6653 330.0102,-1271.6653 330.0102,-1271.6653 324.0102,-1271.6653 318.0102,-1265.6653 318.0102,-1259.6653 318.0102,-1259.6653 318.0102,-1240.6653 318.0102,-1240.6653 318.0102,-1234.6653 324.0102,-1228.6653 330.0102,-1228.6653 330.0102,-1228.6653 365.8326,-1228.6653 365.8326,-1228.6653 371.8326,-1228.6653 377.8326,-1234.6653 377.8326,-1240.6653 377.8326,-1240.6653 377.8326,-1259.6653 377.8326,-1259.6653 377.8326,-1265.6653 371.8326,-1271.6653 365.8326,-1271.6653"/>
<text text-anchor="middle" x="347.9214" y="-1259.4138" font-family="Arial" font-size="10.00" fill="#000000">Logical</text>
<text text-anchor="middle" x="347.9214" y="-1247.9148" font-family="Arial" font-size="10.00" fill="#000000">Tie</text>
<text text-anchor="middle" x="347.9214" y="-1236.4158" font-family="Arial" font-size="10.00" fill="#000000">Collection</text>
</a>
</g>
</g>
<!-- evans.consort.RatioPartsExpression.RatioPartsExpression -->
<g id="node9" class="node">
<title>evans.consort.RatioPartsExpression.RatioPartsExpression</title>
<g id="a_node9"><a xlink:href="../api/evans/consort/RatioPartsExpression.html#evans.consort.RatioPartsExpression.RatioPartsExpression" xlink:title="Ratio\nParts\nExpression" target="_top">
<path fill="#decbe4" stroke="#decbe4" stroke-width="2" d="M499.0876,-1291.6653C499.0876,-1291.6653 457.1487,-1291.6653 457.1487,-1291.6653 451.1487,-1291.6653 445.1487,-1285.6653 445.1487,-1279.6653 445.1487,-1279.6653 445.1487,-1260.6653 445.1487,-1260.6653 445.1487,-1254.6653 451.1487,-1248.6653 457.1487,-1248.6653 457.1487,-1248.6653 499.0876,-1248.6653 499.0876,-1248.6653 505.0876,-1248.6653 511.0876,-1254.6653 511.0876,-1260.6653 511.0876,-1260.6653 511.0876,-1279.6653 511.0876,-1279.6653 511.0876,-1285.6653 505.0876,-1291.6653 499.0876,-1291.6653"/>
<text text-anchor="middle" x="478.1182" y="-1279.4138" font-family="Arial" font-size="10.00" fill="#000000">Ratio</text>
<text text-anchor="middle" x="478.1182" y="-1267.9148" font-family="Arial" font-size="10.00" fill="#000000">Parts</text>
<text text-anchor="middle" x="478.1182" y="-1256.4158" font-family="Arial" font-size="10.00" fill="#000000">Expression</text>
</a>
</g>
</g>
<!-- evans.consort.TimespanCollection.TimespanCollection -->
<g id="node10" class="node">
<title>evans.consort.TimespanCollection.TimespanCollection</title>
<g id="a_node10"><a xlink:href="../api/evans/consort/TimespanCollection.html#evans.consort.TimespanCollection.TimespanCollection" xlink:title="Timespan\nCollection" target="_top">
<path fill="#decbe4" stroke="#decbe4" stroke-width="2" d="M614.6158,-1325.6633C614.6158,-1325.6633 575.4575,-1325.6633 575.4575,-1325.6633 570.2914,-1325.6633 565.1254,-1320.4973 565.1254,-1315.3313 565.1254,-1315.3313 565.1254,-1304.9993 565.1254,-1304.9993 565.1254,-1299.8333 570.2914,-1294.6672 575.4575,-1294.6672 575.4575,-1294.6672 614.6158,-1294.6672 614.6158,-1294.6672 619.7818,-1294.6672 624.9478,-1299.8333 624.9478,-1304.9993 624.9478,-1304.9993 624.9478,-1315.3313 624.9478,-1315.3313 624.9478,-1320.4973 619.7818,-1325.6633 614.6158,-1325.6633"/>
<text text-anchor="middle" x="595.0366" y="-1313.6643" font-family="Arial" font-size="10.00" fill="#000000">Timespan</text>
<text text-anchor="middle" x="595.0366" y="-1302.1653" font-family="Arial" font-size="10.00" fill="#000000">Collection</text>
</a>
</g>
</g>
<!-- evans.consort.TimespanCollectionNode.TimespanCollectionNode -->
<g id="node11" class="node">
<title>evans.consort.TimespanCollectionNode.TimespanCollectionNode</title>
<g id="a_node11"><a xlink:href="../api/evans/consort/TimespanCollectionNode.html#evans.consort.TimespanCollectionNode.TimespanCollectionNode" xlink:title="Timespan\nCollection\nNode" target="_top">
<path fill="#decbe4" stroke="#decbe4" stroke-width="2" d="M251.8648,-1371.6653C251.8648,-1371.6653 216.0424,-1371.6653 216.0424,-1371.6653 210.0424,-1371.6653 204.0424,-1365.6653 204.0424,-1359.6653 204.0424,-1359.6653 204.0424,-1340.6653 204.0424,-1340.6653 204.0424,-1334.6653 210.0424,-1328.6653 216.0424,-1328.6653 216.0424,-1328.6653 251.8648,-1328.6653 251.8648,-1328.6653 257.8648,-1328.6653 263.8648,-1334.6653 263.8648,-1340.6653 263.8648,-1340.6653 263.8648,-1359.6653 263.8648,-1359.6653 263.8648,-1365.6653 257.8648,-1371.6653 251.8648,-1371.6653"/>
<text text-anchor="middle" x="233.9536" y="-1359.4138" font-family="Arial" font-size="10.00" fill="#000000">Timespan</text>
<text text-anchor="middle" x="233.9536" y="-1347.9148" font-family="Arial" font-size="10.00" fill="#000000">Collection</text>
<text text-anchor="middle" x="233.9536" y="-1336.4158" font-family="Arial" font-size="10.00" fill="#000000">Node</text>
</a>
</g>
</g>
<!-- evans.consort.TimespanSimultaneity.TimespanSimultaneity -->
<g id="node12" class="node">
<title>evans.consort.TimespanSimultaneity.TimespanSimultaneity</title>
<g id="a_node12"><a xlink:href="../api/evans/consort/TimespanSimultaneity.html#evans.consort.TimespanSimultaneity.TimespanSimultaneity" xlink:title="Timespan\nSimultaneity" target="_top">
<path fill="#decbe4" stroke="#decbe4" stroke-width="2" d="M373.0587,-1390.6633C373.0587,-1390.6633 322.7841,-1390.6633 322.7841,-1390.6633 317.6181,-1390.6633 312.4521,-1385.4973 312.4521,-1380.3313 312.4521,-1380.3313 312.4521,-1369.9993 312.4521,-1369.9993 312.4521,-1364.8333 317.6181,-1359.6672 322.7841,-1359.6672 322.7841,-1359.6672 373.0587,-1359.6672 373.0587,-1359.6672 378.2247,-1359.6672 383.3907,-1364.8333 383.3907,-1369.9993 383.3907,-1369.9993 383.3907,-1380.3313 383.3907,-1380.3313 383.3907,-1385.4973 378.2247,-1390.6633 373.0587,-1390.6633"/>
<text text-anchor="middle" x="347.9214" y="-1378.6643" font-family="Arial" font-size="10.00" fill="#000000">Timespan</text>
<text text-anchor="middle" x="347.9214" y="-1367.1653" font-family="Arial" font-size="10.00" fill="#000000">Simultaneity</text>
</a>
</g>
</g>
<!-- evans.handlers.ArticulationHandler -->
<g id="node13" class="node">
<title>evans.handlers.ArticulationHandler</title>
<g id="a_node13"><a xlink:href="../api/evans/handlers.html#evans.handlers.ArticulationHandler" xlink:title="Articulation\nHandler" target="_top">
<path fill="#fed9a6" stroke="#fed9a6" stroke-width="2" d="M256.591,-658.6633C256.591,-658.6633 211.3162,-658.6633 211.3162,-658.6633 206.1502,-658.6633 200.9842,-653.4973 200.9842,-648.3313 200.9842,-648.3313 200.9842,-637.9993 200.9842,-637.9993 200.9842,-632.8333 206.1502,-627.6672 211.3162,-627.6672 211.3162,-627.6672 256.591,-627.6672 256.591,-627.6672 261.7571,-627.6672 266.9231,-632.8333 266.9231,-637.9993 266.9231,-637.9993 266.9231,-648.3313 266.9231,-648.3313 266.9231,-653.4973 261.7571,-658.6633 256.591,-658.6633"/>
<text text-anchor="middle" x="233.9536" y="-646.6643" font-family="Arial" font-size="10.00" fill="#000000">Articulation</text>
<text text-anchor="middle" x="233.9536" y="-635.1653" font-family="Arial" font-size="10.00" fill="#000000">Handler</text>
</a>
</g>
</g>
<!-- evans.handlers.BendHandler -->
<g id="node14" class="node">
<title>evans.handlers.BendHandler</title>
<g id="a_node14"><a xlink:href="../api/evans/handlers.html#evans.handlers.BendHandler" xlink:title="Bend\nHandler" target="_top">
<path fill="#fed9a6" stroke="#fed9a6" stroke-width="2" d="M363.1089,-678.6633C363.1089,-678.6633 332.7339,-678.6633 332.7339,-678.6633 327.5679,-678.6633 322.4019,-673.4973 322.4019,-668.3313 322.4019,-668.3313 322.4019,-657.9993 322.4019,-657.9993 322.4019,-652.8333 327.5679,-647.6672 332.7339,-647.6672 332.7339,-647.6672 363.1089,-647.6672 363.1089,-647.6672 368.2749,-647.6672 373.4409,-652.8333 373.4409,-657.9993 373.4409,-657.9993 373.4409,-668.3313 373.4409,-668.3313 373.4409,-673.4973 368.2749,-678.6633 363.1089,-678.6633"/>
<text text-anchor="middle" x="347.9214" y="-666.6643" font-family="Arial" font-size="10.00" fill="#000000">Bend</text>
<text text-anchor="middle" x="347.9214" y="-655.1653" font-family="Arial" font-size="10.00" fill="#000000">Handler</text>
</a>
</g>
</g>
<!-- evans.handlers.BisbigliandoHandler -->
<g id="node15" class="node">
<title>evans.handlers.BisbigliandoHandler</title>
<g id="a_node15"><a xlink:href="../api/evans/handlers.html#evans.handlers.BisbigliandoHandler" xlink:title="Bisbigliando\nHandler" target="_top">
<path fill="#fed9a6" stroke="#fed9a6" stroke-width="2" d="M502.712,-698.6633C502.712,-698.6633 453.5244,-698.6633 453.5244,-698.6633 448.3584,-698.6633 443.1923,-693.4973 443.1923,-688.3313 443.1923,-688.3313 443.1923,-677.9993 443.1923,-677.9993 443.1923,-672.8333 448.3584,-667.6672 453.5244,-667.6672 453.5244,-667.6672 502.712,-667.6672 502.712,-667.6672 507.878,-667.6672 513.044,-672.8333 513.044,-677.9993 513.044,-677.9993 513.044,-688.3313 513.044,-688.3313 513.044,-693.4973 507.878,-698.6633 502.712,-698.6633"/>
<text text-anchor="middle" x="478.1182" y="-686.6643" font-family="Arial" font-size="10.00" fill="#000000">Bisbigliando</text>
<text text-anchor="middle" x="478.1182" y="-675.1653" font-family="Arial" font-size="10.00" fill="#000000">Handler</text>
</a>
</g>
</g>
<!-- evans.handlers.BowAngleHandler -->
<g id="node16" class="node">
<title>evans.handlers.BowAngleHandler</title>
<g id="a_node16"><a xlink:href="../api/evans/handlers.html#evans.handlers.BowAngleHandler" xlink:title="Bow\nAngle\nHandler" target="_top">
<path fill="#fed9a6" stroke="#fed9a6" stroke-width="2" d="M608.5562,-738.6653C608.5562,-738.6653 581.5171,-738.6653 581.5171,-738.6653 575.5171,-738.6653 569.5171,-732.6653 569.5171,-726.6653 569.5171,-726.6653 569.5171,-707.6653 569.5171,-707.6653 569.5171,-701.6653 575.5171,-695.6653 581.5171,-695.6653 581.5171,-695.6653 608.5562,-695.6653 608.5562,-695.6653 614.5562,-695.6653 620.5562,-701.6653 620.5562,-707.6653 620.5562,-707.6653 620.5562,-726.6653 620.5562,-726.6653 620.5562,-732.6653 614.5562,-738.6653 608.5562,-738.6653"/>
<text text-anchor="middle" x="595.0366" y="-726.4138" font-family="Arial" font-size="10.00" fill="#000000">Bow</text>
<text text-anchor="middle" x="595.0366" y="-714.9148" font-family="Arial" font-size="10.00" fill="#000000">Angle</text>
<text text-anchor="middle" x="595.0366" y="-703.4158" font-family="Arial" font-size="10.00" fill="#000000">Handler</text>
</a>
</g>
</g>
<!-- evans.handlers.ClefHandler -->
<g id="node17" class="node">
<title>evans.handlers.ClefHandler</title>
<g id="a_node17"><a xlink:href="../api/evans/handlers.html#evans.handlers.ClefHandler" xlink:title="Clef\nHandler" target="_top">
<path fill="#fed9a6" stroke="#fed9a6" stroke-width="2" d="M249.1411,-766.6633C249.1411,-766.6633 218.7661,-766.6633 218.7661,-766.6633 213.6001,-766.6633 208.4341,-761.4973 208.4341,-756.3313 208.4341,-756.3313 208.4341,-745.9993 208.4341,-745.9993 208.4341,-740.8333 213.6001,-735.6672 218.7661,-735.6672 218.7661,-735.6672 249.1411,-735.6672 249.1411,-735.6672 254.3071,-735.6672 259.4731,-740.8333 259.4731,-745.9993 259.4731,-745.9993 259.4731,-756.3313 259.4731,-756.3313 259.4731,-761.4973 254.3071,-766.6633 249.1411,-766.6633"/>
<text text-anchor="middle" x="233.9536" y="-754.6643" font-family="Arial" font-size="10.00" fill="#000000">Clef</text>
<text text-anchor="middle" x="233.9536" y="-743.1653" font-family="Arial" font-size="10.00" fill="#000000">Handler</text>
</a>
</g>
</g>
<!-- evans.handlers.CompositeHandler -->
<g id="node18" class="node">
<title>evans.handlers.CompositeHandler</title>
<g id="a_node18"><a xlink:href="../api/evans/handlers.html#evans.handlers.CompositeHandler" xlink:title="Composite\nHandler" target="_top">
<path fill="#fed9a6" stroke="#fed9a6" stroke-width="2" d="M369.3875,-786.6633C369.3875,-786.6633 326.4552,-786.6633 326.4552,-786.6633 321.2892,-786.6633 316.1232,-781.4973 316.1232,-776.3313 316.1232,-776.3313 316.1232,-765.9993 316.1232,-765.9993 316.1232,-760.8333 321.2892,-755.6672 326.4552,-755.6672 326.4552,-755.6672 369.3875,-755.6672 369.3875,-755.6672 374.5535,-755.6672 379.7196,-760.8333 379.7196,-765.9993 379.7196,-765.9993 379.7196,-776.3313 379.7196,-776.3313 379.7196,-781.4973 374.5535,-786.6633 369.3875,-786.6633"/>
<text text-anchor="middle" x="347.9214" y="-774.6643" font-family="Arial" font-size="10.00" fill="#000000">Composite</text>
<text text-anchor="middle" x="347.9214" y="-763.1653" font-family="Arial" font-size="10.00" fill="#000000">Handler</text>
</a>
</g>
</g>
<!-- evans.handlers.DynamicHandler -->
<g id="node19" class="node">
<title>evans.handlers.DynamicHandler</title>
<g id="a_node19"><a xlink:href="../api/evans/handlers.html#evans.handlers.DynamicHandler" xlink:title="Dynamic\nHandler" target="_top">
<path fill="#fed9a6" stroke="#fed9a6" stroke-width="2" d="M495.1827,-806.6633C495.1827,-806.6633 461.0536,-806.6633 461.0536,-806.6633 455.8876,-806.6633 450.7216,-801.4973 450.7216,-796.3313 450.7216,-796.3313 450.7216,-785.9993 450.7216,-785.9993 450.7216,-780.8333 455.8876,-775.6672 461.0536,-775.6672 461.0536,-775.6672 495.1827,-775.6672 495.1827,-775.6672 500.3487,-775.6672 505.5147,-780.8333 505.5147,-785.9993 505.5147,-785.9993 505.5147,-796.3313 505.5147,-796.3313 505.5147,-801.4973 500.3487,-806.6633 495.1827,-806.6633"/>
<text text-anchor="middle" x="478.1182" y="-794.6643" font-family="Arial" font-size="10.00" fill="#000000">Dynamic</text>
<text text-anchor="middle" x="478.1182" y="-783.1653" font-family="Arial" font-size="10.00" fill="#000000">Handler</text>
</a>
</g>
</g>
<!-- evans.handlers.GettatoHandler -->
<g id="node20" class="node">
<title>evans.handlers.GettatoHandler</title>
<g id="a_node20"><a xlink:href="../api/evans/handlers.html#evans.handlers.GettatoHandler" xlink:title="Gettato\nHandler" target="_top">
<path fill="#fed9a6" stroke="#fed9a6" stroke-width="2" d="M610.2241,-840.6633C610.2241,-840.6633 579.8491,-840.6633 579.8491,-840.6633 574.6831,-840.6633 569.5171,-835.4973 569.5171,-830.3313 569.5171,-830.3313 569.5171,-819.9993 569.5171,-819.9993 569.5171,-814.8333 574.6831,-809.6672 579.8491,-809.6672 579.8491,-809.6672 610.2241,-809.6672 610.2241,-809.6672 615.3901,-809.6672 620.5562,-814.8333 620.5562,-819.9993 620.5562,-819.9993 620.5562,-830.3313 620.5562,-830.3313 620.5562,-835.4973 615.3901,-840.6633 610.2241,-840.6633"/>
<text text-anchor="middle" x="595.0366" y="-828.6643" font-family="Arial" font-size="10.00" fill="#000000">Gettato</text>
<text text-anchor="middle" x="595.0366" y="-817.1653" font-family="Arial" font-size="10.00" fill="#000000">Handler</text>
</a>
</g>
</g>
<!-- evans.handlers.GlissandoHandler -->
<g id="node21" class="node">
<title>evans.handlers.GlissandoHandler</title>
<g id="a_node21"><a xlink:href="../api/evans/handlers.html#evans.handlers.GlissandoHandler" xlink:title="Glissando\nHandler" target="_top">
<path fill="#fed9a6" stroke="#fed9a6" stroke-width="2" d="M254.0912,-874.6633C254.0912,-874.6633 213.816,-874.6633 213.816,-874.6633 208.65,-874.6633 203.484,-869.4973 203.484,-864.3313 203.484,-864.3313 203.484,-853.9993 203.484,-853.9993 203.484,-848.8333 208.65,-843.6672 213.816,-843.6672 213.816,-843.6672 254.0912,-843.6672 254.0912,-843.6672 259.2572,-843.6672 264.4232,-848.8333 264.4232,-853.9993 264.4232,-853.9993 264.4232,-864.3313 264.4232,-864.3313 264.4232,-869.4973 259.2572,-874.6633 254.0912,-874.6633"/>
<text text-anchor="middle" x="233.9536" y="-862.6643" font-family="Arial" font-size="10.00" fill="#000000">Glissando</text>
<text text-anchor="middle" x="233.9536" y="-851.1653" font-family="Arial" font-size="10.00" fill="#000000">Handler</text>
</a>
</g>
</g>
<!-- evans.handlers.GraceHandler -->
<g id="node22" class="node">
<title>evans.handlers.GraceHandler</title>
<g id="a_node22"><a xlink:href="../api/evans/handlers.html#evans.handlers.GraceHandler" xlink:title="Grace\nHandler" target="_top">
<path fill="#fed9a6" stroke="#fed9a6" stroke-width="2" d="M363.1089,-894.6633C363.1089,-894.6633 332.7339,-894.6633 332.7339,-894.6633 327.5679,-894.6633 322.4019,-889.4973 322.4019,-884.3313 322.4019,-884.3313 322.4019,-873.9993 322.4019,-873.9993 322.4019,-868.8333 327.5679,-863.6672 332.7339,-863.6672 332.7339,-863.6672 363.1089,-863.6672 363.1089,-863.6672 368.2749,-863.6672 373.4409,-868.8333 373.4409,-873.9993 373.4409,-873.9993 373.4409,-884.3313 373.4409,-884.3313 373.4409,-889.4973 368.2749,-894.6633 363.1089,-894.6633"/>
<text text-anchor="middle" x="347.9214" y="-882.6643" font-family="Arial" font-size="10.00" fill="#000000">Grace</text>
<text text-anchor="middle" x="347.9214" y="-871.1653" font-family="Arial" font-size="10.00" fill="#000000">Handler</text>
</a>
</g>
</g>
<!-- evans.handlers.Handler -->
<g id="node23" class="node">
<title>evans.handlers.Handler</title>
<g id="a_node23"><a xlink:href="../api/evans/handlers.html#evans.handlers.Handler" xlink:title="Handler" target="_top">
<path fill="#fed9a6" stroke="#fed9a6" stroke-width="2" d="M147.3013,-886.1709C147.3013,-886.1709 109.603,-886.1709 109.603,-886.1709 106.2678,-886.1709 102.9326,-882.8357 102.9326,-879.5005 102.9326,-879.5005 102.9326,-872.8301 102.9326,-872.8301 102.9326,-869.4949 106.2678,-866.1597 109.603,-866.1597 109.603,-866.1597 147.3013,-866.1597 147.3013,-866.1597 150.6365,-866.1597 153.9717,-869.4949 153.9717,-872.8301 153.9717,-872.8301 153.9717,-879.5005 153.9717,-879.5005 153.9717,-882.8357 150.6365,-886.1709 147.3013,-886.1709"/>
<text text-anchor="middle" x="128.4521" y="-873.9148" font-family="Arial" font-size="10.00" fill="#000000">Handler</text>
</a>
</g>
</g>
<!-- evans.handlers.IntermittentVoiceHandler -->
<g id="node24" class="node">
<title>evans.handlers.IntermittentVoiceHandler</title>
<g id="a_node24"><a xlink:href="../api/evans/handlers.html#evans.handlers.IntermittentVoiceHandler" xlink:title="Intermittent\nVoice\nHandler" target="_top">
<path fill="#fed9a6" stroke="#fed9a6" stroke-width="2" d="M499.1377,-914.6653C499.1377,-914.6653 457.0986,-914.6653 457.0986,-914.6653 451.0986,-914.6653 445.0986,-908.6653 445.0986,-902.6653 445.0986,-902.6653 445.0986,-883.6653 445.0986,-883.6653 445.0986,-877.6653 451.0986,-871.6653 457.0986,-871.6653 457.0986,-871.6653 499.1377,-871.6653 499.1377,-871.6653 505.1377,-871.6653 511.1377,-877.6653 511.1377,-883.6653 511.1377,-883.6653 511.1377,-902.6653 511.1377,-902.6653 511.1377,-908.6653 505.1377,-914.6653 499.1377,-914.6653"/>
<text text-anchor="middle" x="478.1182" y="-902.4138" font-family="Arial" font-size="10.00" fill="#000000">Intermittent</text>
<text text-anchor="middle" x="478.1182" y="-890.9148" font-family="Arial" font-size="10.00" fill="#000000">Voice</text>
<text text-anchor="middle" x="478.1182" y="-879.4158" font-family="Arial" font-size="10.00" fill="#000000">Handler</text>
</a>
</g>
</g>
<!-- evans.handlers.NoteheadHandler -->
<g id="node25" class="node">
<title>evans.handlers.NoteheadHandler</title>
<g id="a_node25"><a xlink:href="../api/evans/handlers.html#evans.handlers.NoteheadHandler" xlink:title="Notehead\nHandler" target="_top">
<path fill="#fed9a6" stroke="#fed9a6" stroke-width="2" d="M614.5749,-948.6633C614.5749,-948.6633 575.4984,-948.6633 575.4984,-948.6633 570.3323,-948.6633 565.1663,-943.4973 565.1663,-938.3313 565.1663,-938.3313 565.1663,-927.9993 565.1663,-927.9993 565.1663,-922.8333 570.3323,-917.6672 575.4984,-917.6672 575.4984,-917.6672 614.5749,-917.6672 614.5749,-917.6672 619.7409,-917.6672 624.9069,-922.8333 624.9069,-927.9993 624.9069,-927.9993 624.9069,-938.3313 624.9069,-938.3313 624.9069,-943.4973 619.7409,-948.6633 614.5749,-948.6633"/>
<text text-anchor="middle" x="595.0366" y="-936.6643" font-family="Arial" font-size="10.00" fill="#000000">Notehead</text>
<text text-anchor="middle" x="595.0366" y="-925.1653" font-family="Arial" font-size="10.00" fill="#000000">Handler</text>
</a>
</g>
</g>
<!-- evans.handlers.OnBeatGraceHandler -->
<g id="node26" class="node">
<title>evans.handlers.OnBeatGraceHandler</title>
<g id="a_node26"><a xlink:href="../api/evans/handlers.html#evans.handlers.OnBeatGraceHandler" xlink:title="On\nBeat\nGrace\nHandler" target="_top">
<path fill="#fed9a6" stroke="#fed9a6" stroke-width="2" d="M247.4731,-1006.1614C247.4731,-1006.1614 220.4341,-1006.1614 220.4341,-1006.1614 214.4341,-1006.1614 208.4341,-1000.1614 208.4341,-994.1614 208.4341,-994.1614 208.4341,-964.1692 208.4341,-964.1692 208.4341,-958.1692 214.4341,-952.1692 220.4341,-952.1692 220.4341,-952.1692 247.4731,-952.1692 247.4731,-952.1692 253.4731,-952.1692 259.4731,-958.1692 259.4731,-964.1692 259.4731,-964.1692 259.4731,-994.1614 259.4731,-994.1614 259.4731,-1000.1614 253.4731,-1006.1614 247.4731,-1006.1614"/>
<text text-anchor="middle" x="233.9536" y="-994.1633" font-family="Arial" font-size="10.00" fill="#000000">On</text>
<text text-anchor="middle" x="233.9536" y="-982.6643" font-family="Arial" font-size="10.00" fill="#000000">Beat</text>
<text text-anchor="middle" x="233.9536" y="-971.1653" font-family="Arial" font-size="10.00" fill="#000000">Grace</text>
<text text-anchor="middle" x="233.9536" y="-959.6663" font-family="Arial" font-size="10.00" fill="#000000">Handler</text>
</a>
</g>
</g>
<!-- evans.handlers.PitchHandler -->
<g id="node27" class="node">
<title>evans.handlers.PitchHandler</title>
<g id="a_node27"><a xlink:href="../api/evans/handlers.html#evans.handlers.PitchHandler" xlink:title="Pitch\nHandler" target="_top">
<path fill="#fed9a6" stroke="#fed9a6" stroke-width="2" d="M363.1089,-1026.6633C363.1089,-1026.6633 332.7339,-1026.6633 332.7339,-1026.6633 327.5679,-1026.6633 322.4019,-1021.4973 322.4019,-1016.3313 322.4019,-1016.3313 322.4019,-1005.9993 322.4019,-1005.9993 322.4019,-1000.8333 327.5679,-995.6672 332.7339,-995.6672 332.7339,-995.6672 363.1089,-995.6672 363.1089,-995.6672 368.2749,-995.6672 373.4409,-1000.8333 373.4409,-1005.9993 373.4409,-1005.9993 373.4409,-1016.3313 373.4409,-1016.3313 373.4409,-1021.4973 368.2749,-1026.6633 363.1089,-1026.6633"/>
<text text-anchor="middle" x="347.9214" y="-1014.6643" font-family="Arial" font-size="10.00" fill="#000000">Pitch</text>
<text text-anchor="middle" x="347.9214" y="-1003.1653" font-family="Arial" font-size="10.00" fill="#000000">Handler</text>
</a>
</g>
</g>
<!-- evans.handlers.RhythmHandler -->
<g id="node28" class="node">
<title>evans.handlers.RhythmHandler</title>
<g id="a_node28"><a xlink:href="../api/evans/handlers.html#evans.handlers.RhythmHandler" xlink:title="Rhythm\nHandler" target="_top">
<path fill="#fed9a6" stroke="#fed9a6" stroke-width="2" d="M493.3057,-1046.6633C493.3057,-1046.6633 462.9307,-1046.6633 462.9307,-1046.6633 457.7646,-1046.6633 452.5986,-1041.4973 452.5986,-1036.3313 452.5986,-1036.3313 452.5986,-1025.9993 452.5986,-1025.9993 452.5986,-1020.8333 457.7646,-1015.6672 462.9307,-1015.6672 462.9307,-1015.6672 493.3057,-1015.6672 493.3057,-1015.6672 498.4717,-1015.6672 503.6377,-1020.8333 503.6377,-1025.9993 503.6377,-1025.9993 503.6377,-1036.3313 503.6377,-1036.3313 503.6377,-1041.4973 498.4717,-1046.6633 493.3057,-1046.6633"/>
<text text-anchor="middle" x="478.1182" y="-1034.6643" font-family="Arial" font-size="10.00" fill="#000000">Rhythm</text>
<text text-anchor="middle" x="478.1182" y="-1023.1653" font-family="Arial" font-size="10.00" fill="#000000">Handler</text>
</a>
</g>
</g>
<!-- evans.handlers.SlurHandler -->
<g id="node29" class="node">
<title>evans.handlers.SlurHandler</title>
<g id="a_node29"><a xlink:href="../api/evans/handlers.html#evans.handlers.SlurHandler" xlink:title="Slur\nHandler" target="_top">
<path fill="#fed9a6" stroke="#fed9a6" stroke-width="2" d="M610.2241,-1080.6633C610.2241,-1080.6633 579.8491,-1080.6633 579.8491,-1080.6633 574.6831,-1080.6633 569.5171,-1075.4973 569.5171,-1070.3313 569.5171,-1070.3313 569.5171,-1059.9993 569.5171,-1059.9993 569.5171,-1054.8333 574.6831,-1049.6672 579.8491,-1049.6672 579.8491,-1049.6672 610.2241,-1049.6672 610.2241,-1049.6672 615.3901,-1049.6672 620.5562,-1054.8333 620.5562,-1059.9993 620.5562,-1059.9993 620.5562,-1070.3313 620.5562,-1070.3313 620.5562,-1075.4973 615.3901,-1080.6633 610.2241,-1080.6633"/>
<text text-anchor="middle" x="595.0366" y="-1068.6643" font-family="Arial" font-size="10.00" fill="#000000">Slur</text>
<text text-anchor="middle" x="595.0366" y="-1057.1653" font-family="Arial" font-size="10.00" fill="#000000">Handler</text>
</a>
</g>
</g>
<!-- evans.handlers.TempoSpannerHandler -->
<g id="node30" class="node">
<title>evans.handlers.TempoSpannerHandler</title>
<g id="a_node30"><a xlink:href="../api/evans/handlers.html#evans.handlers.TempoSpannerHandler" xlink:title="Tempo\nSpanner\nHandler" target="_top">
<path fill="#fed9a6" stroke="#fed9a6" stroke-width="2" d="M248.7616,-1126.6653C248.7616,-1126.6653 219.1457,-1126.6653 219.1457,-1126.6653 213.1457,-1126.6653 207.1457,-1120.6653 207.1457,-1114.6653 207.1457,-1114.6653 207.1457,-1095.6653 207.1457,-1095.6653 207.1457,-1089.6653 213.1457,-1083.6653 219.1457,-1083.6653 219.1457,-1083.6653 248.7616,-1083.6653 248.7616,-1083.6653 254.7616,-1083.6653 260.7616,-1089.6653 260.7616,-1095.6653 260.7616,-1095.6653 260.7616,-1114.6653 260.7616,-1114.6653 260.7616,-1120.6653 254.7616,-1126.6653 248.7616,-1126.6653"/>
<text text-anchor="middle" x="233.9536" y="-1114.4138" font-family="Arial" font-size="10.00" fill="#000000">Tempo</text>
<text text-anchor="middle" x="233.9536" y="-1102.9148" font-family="Arial" font-size="10.00" fill="#000000">Spanner</text>
<text text-anchor="middle" x="233.9536" y="-1091.4158" font-family="Arial" font-size="10.00" fill="#000000">Handler</text>
</a>
</g>
</g>
<!-- evans.handlers.TextSpanHandler -->
<g id="node31" class="node">
<title>evans.handlers.TextSpanHandler</title>
<g id="a_node31"><a xlink:href="../api/evans/handlers.html#evans.handlers.TextSpanHandler" xlink:title="Text\nSpan\nHandler" target="_top">
<path fill="#fed9a6" stroke="#fed9a6" stroke-width="2" d="M361.4409,-1146.6653C361.4409,-1146.6653 334.4019,-1146.6653 334.4019,-1146.6653 328.4019,-1146.6653 322.4019,-1140.6653 322.4019,-1134.6653 322.4019,-1134.6653 322.4019,-1115.6653 322.4019,-1115.6653 322.4019,-1109.6653 328.4019,-1103.6653 334.4019,-1103.6653 334.4019,-1103.6653 361.4409,-1103.6653 361.4409,-1103.6653 367.4409,-1103.6653 373.4409,-1109.6653 373.4409,-1115.6653 373.4409,-1115.6653 373.4409,-1134.6653 373.4409,-1134.6653 373.4409,-1140.6653 367.4409,-1146.6653 361.4409,-1146.6653"/>
<text text-anchor="middle" x="347.9214" y="-1134.4138" font-family="Arial" font-size="10.00" fill="#000000">Text</text>
<text text-anchor="middle" x="347.9214" y="-1122.9148" font-family="Arial" font-size="10.00" fill="#000000">Span</text>
<text text-anchor="middle" x="347.9214" y="-1111.4158" font-family="Arial" font-size="10.00" fill="#000000">Handler</text>
</a>
</g>
</g>
<!-- evans.handlers.TrillHandler -->
<g id="node32" class="node">
<title>evans.handlers.TrillHandler</title>
<g id="a_node32"><a xlink:href="../api/evans/handlers.html#evans.handlers.TrillHandler" xlink:title="Trill\nHandler" target="_top">
<path fill="#fed9a6" stroke="#fed9a6" stroke-width="2" d="M493.3057,-1165.6633C493.3057,-1165.6633 462.9307,-1165.6633 462.9307,-1165.6633 457.7646,-1165.6633 452.5986,-1160.4973 452.5986,-1155.3313 452.5986,-1155.3313 452.5986,-1144.9993 452.5986,-1144.9993 452.5986,-1139.8333 457.7646,-1134.6672 462.9307,-1134.6672 462.9307,-1134.6672 493.3057,-1134.6672 493.3057,-1134.6672 498.4717,-1134.6672 503.6377,-1139.8333 503.6377,-1144.9993 503.6377,-1144.9993 503.6377,-1155.3313 503.6377,-1155.3313 503.6377,-1160.4973 498.4717,-1165.6633 493.3057,-1165.6633"/>
<text text-anchor="middle" x="478.1182" y="-1153.6643" font-family="Arial" font-size="10.00" fill="#000000">Trill</text>
<text text-anchor="middle" x="478.1182" y="-1142.1653" font-family="Arial" font-size="10.00" fill="#000000">Handler</text>
</a>
</g>
</g>
<!-- evans.rtm.RTMMaker -->
<g id="node33" class="node">
<title>evans.rtm.RTMMaker</title>
<g id="a_node33"><a xlink:href="../api/evans/rtm.html#evans.rtm.RTMMaker" xlink:title="RTMMaker" target="_top">
<path fill="#ffffcc" stroke="#ffffcc" stroke-width="2" d="M260.0465,-410.1709C260.0465,-410.1709 207.8608,-410.1709 207.8608,-410.1709 204.5256,-410.1709 201.1904,-406.8357 201.1904,-403.5005 201.1904,-403.5005 201.1904,-396.8301 201.1904,-396.8301 201.1904,-393.4949 204.5256,-390.1597 207.8608,-390.1597 207.8608,-390.1597 260.0465,-390.1597 260.0465,-390.1597 263.3816,-390.1597 266.7168,-393.4949 266.7168,-396.8301 266.7168,-396.8301 266.7168,-403.5005 266.7168,-403.5005 266.7168,-406.8357 263.3816,-410.1709 260.0465,-410.1709"/>
<text text-anchor="middle" x="233.9536" y="-397.9148" font-family="Arial" font-size="10.00" fill="#000000">RTMMaker</text>
</a>
</g>
</g>
<!-- evans.rtm.RhythmTreeQuantizer -->
<g id="node34" class="node">
<title>evans.rtm.RhythmTreeQuantizer</title>
<g id="a_node34"><a xlink:href="../api/evans/rtm.html#evans.rtm.RhythmTreeQuantizer" xlink:title="Rhythm\nTree\nQuantizer" target="_top">
<path fill="#ffffcc" stroke="#ffffcc" stroke-width="2" d="M251.8092,-372.6653C251.8092,-372.6653 216.0981,-372.6653 216.0981,-372.6653 210.0981,-372.6653 204.0981,-366.6653 204.0981,-360.6653 204.0981,-360.6653 204.0981,-341.6653 204.0981,-341.6653 204.0981,-335.6653 210.0981,-329.6653 216.0981,-329.6653 216.0981,-329.6653 251.8092,-329.6653 251.8092,-329.6653 257.8092,-329.6653 263.8092,-335.6653 263.8092,-341.6653 263.8092,-341.6653 263.8092,-360.6653 263.8092,-360.6653 263.8092,-366.6653 257.8092,-372.6653 251.8092,-372.6653"/>
<text text-anchor="middle" x="233.9536" y="-360.4138" font-family="Arial" font-size="10.00" fill="#000000">Rhythm</text>
<text text-anchor="middle" x="233.9536" y="-348.9148" font-family="Arial" font-size="10.00" fill="#000000">Tree</text>
<text text-anchor="middle" x="233.9536" y="-337.4158" font-family="Arial" font-size="10.00" fill="#000000">Quantizer</text>
</a>
</g>
</g>
<!-- evans.segmentmaker.NoteheadBracketMaker -->
<g id="node35" class="node">
<title>evans.segmentmaker.NoteheadBracketMaker</title>
<g id="a_node35"><a xlink:href="../api/evans/segmentmaker.html#evans.segmentmaker.NoteheadBracketMaker" xlink:title="Notehead\nBracket\nMaker" target="_top">
<path fill="#e5d8bd" stroke="#e5d8bd" stroke-width="2" d="M495.9885,-348.6653C495.9885,-348.6653 460.2479,-348.6653 460.2479,-348.6653 454.2479,-348.6653 448.2479,-342.6653 448.2479,-336.6653 448.2479,-336.6653 448.2479,-317.6653 448.2479,-317.6653 448.2479,-311.6653 454.2479,-305.6653 460.2479,-305.6653 460.2479,-305.6653 495.9885,-305.6653 495.9885,-305.6653 501.9885,-305.6653 507.9885,-311.6653 507.9885,-317.6653 507.9885,-317.6653 507.9885,-336.6653 507.9885,-336.6653 507.9885,-342.6653 501.9885,-348.6653 495.9885,-348.6653"/>
<text text-anchor="middle" x="478.1182" y="-336.4138" font-family="Arial" font-size="10.00" fill="#000000">Notehead</text>
<text text-anchor="middle" x="478.1182" y="-324.9148" font-family="Arial" font-size="10.00" fill="#000000">Bracket</text>
<text text-anchor="middle" x="478.1182" y="-313.4158" font-family="Arial" font-size="10.00" fill="#000000">Maker</text>
</a>
</g>
</g>
<!-- evans.segmentmaker.SegmentMaker -->
<g id="node36" class="node">
<title>evans.segmentmaker.SegmentMaker</title>
<g id="a_node36"><a xlink:href="../api/evans/segmentmaker.html#evans.segmentmaker.SegmentMaker" xlink:title="Segment\nMaker" target="_top">
<path fill="#e5d8bd" stroke="#e5d8bd" stroke-width="2" d="M495.8106,-397.6633C495.8106,-397.6633 460.4258,-397.6633 460.4258,-397.6633 455.2598,-397.6633 450.0937,-392.4973 450.0937,-387.3313 450.0937,-387.3313 450.0937,-376.9993 450.0937,-376.9993 450.0937,-371.8333 455.2598,-366.6672 460.4258,-366.6672 460.4258,-366.6672 495.8106,-366.6672 495.8106,-366.6672 500.9766,-366.6672 506.1426,-371.8333 506.1426,-376.9993 506.1426,-376.9993 506.1426,-387.3313 506.1426,-387.3313 506.1426,-392.4973 500.9766,-397.6633 495.8106,-397.6633"/>
<text text-anchor="middle" x="478.1182" y="-385.6643" font-family="Arial" font-size="10.00" fill="#000000">Segment</text>
<text text-anchor="middle" x="478.1182" y="-374.1653" font-family="Arial" font-size="10.00" fill="#000000">Maker</text>
</a>
</g>
</g>
<!-- evans.sequence.CyclicList -->
<g id="node37" class="node">
<title>evans.sequence.CyclicList</title>
<g id="a_node37"><a xlink:href="../api/evans/sequence.html#evans.sequence.CyclicList" xlink:title="Cyclic\nList" target="_top">
<path fill="#fddaec" stroke="#fddaec" stroke-width="2" d="M244.7879,-169.6633C244.7879,-169.6633 223.1193,-169.6633 223.1193,-169.6633 217.9533,-169.6633 212.7873,-164.4973 212.7873,-159.3313 212.7873,-159.3313 212.7873,-148.9993 212.7873,-148.9993 212.7873,-143.8333 217.9533,-138.6672 223.1193,-138.6672 223.1193,-138.6672 244.7879,-138.6672 244.7879,-138.6672 249.9539,-138.6672 255.12,-143.8333 255.12,-148.9993 255.12,-148.9993 255.12,-159.3313 255.12,-159.3313 255.12,-164.4973 249.9539,-169.6633 244.7879,-169.6633"/>
<text text-anchor="middle" x="233.9536" y="-157.6643" font-family="Arial" font-size="10.00" fill="#000000">Cyclic</text>
<text text-anchor="middle" x="233.9536" y="-146.1653" font-family="Arial" font-size="10.00" fill="#000000">List</text>
</a>
</g>
</g>
<!-- evans.sequence.MarkovChain -->
<g id="node38" class="node">
<title>evans.sequence.MarkovChain</title>
<g id="a_node38"><a xlink:href="../api/evans/sequence.html#evans.sequence.MarkovChain" xlink:title="Markov\nChain" target="_top">
<path fill="#fddaec" stroke="#fddaec" stroke-width="2" d="M247.9053,-218.6633C247.9053,-218.6633 220.002,-218.6633 220.002,-218.6633 214.8359,-218.6633 209.6699,-213.4973 209.6699,-208.3313 209.6699,-208.3313 209.6699,-197.9993 209.6699,-197.9993 209.6699,-192.8333 214.8359,-187.6672 220.002,-187.6672 220.002,-187.6672 247.9053,-187.6672 247.9053,-187.6672 253.0713,-187.6672 258.2373,-192.8333 258.2373,-197.9993 258.2373,-197.9993 258.2373,-208.3313 258.2373,-208.3313 258.2373,-213.4973 253.0713,-218.6633 247.9053,-218.6633"/>
<text text-anchor="middle" x="233.9536" y="-206.6643" font-family="Arial" font-size="10.00" fill="#000000">Markov</text>
<text text-anchor="middle" x="233.9536" y="-195.1653" font-family="Arial" font-size="10.00" fill="#000000">Chain</text>
</a>
</g>
</g>
<!-- evans.spanners.BowAnglePoint -->
<g id="node39" class="node">
<title>evans.spanners.BowAnglePoint</title>
<g id="a_node39"><a xlink:href="../api/evans/spanners.html#evans.spanners.BowAnglePoint" xlink:title="Bow\nAngle\nPoint" target="_top">
<path fill="#f2f2f2" stroke="#f2f2f2" stroke-width="2" d="M356.4997,-143.6653C356.4997,-143.6653 339.3431,-143.6653 339.3431,-143.6653 333.3431,-143.6653 327.3431,-137.6653 327.3431,-131.6653 327.3431,-131.6653 327.3431,-112.6653 327.3431,-112.6653 327.3431,-106.6653 333.3431,-100.6653 339.3431,-100.6653 339.3431,-100.6653 356.4997,-100.6653 356.4997,-100.6653 362.4997,-100.6653 368.4997,-106.6653 368.4997,-112.6653 368.4997,-112.6653 368.4997,-131.6653 368.4997,-131.6653 368.4997,-137.6653 362.4997,-143.6653 356.4997,-143.6653"/>
<text text-anchor="middle" x="347.9214" y="-131.4138" font-family="Arial" font-size="10.00" fill="#000000">Bow</text>
<text text-anchor="middle" x="347.9214" y="-119.9148" font-family="Arial" font-size="10.00" fill="#000000">Angle</text>
<text text-anchor="middle" x="347.9214" y="-108.4158" font-family="Arial" font-size="10.00" fill="#000000">Point</text>
</a>
</g>
</g>
<!-- evans.timespan.SilentTimespan -->
<g id="node40" class="node">
<title>evans.timespan.SilentTimespan</title>
<g id="a_node40"><a xlink:href="../api/evans/timespan.html#evans.timespan.SilentTimespan" xlink:title="Silent\nTimespan" target="_top">
<path fill="#fbb4ae" stroke="#fbb4ae" stroke-width="2" d="M497.3231,-148.6633C497.3231,-148.6633 458.9132,-148.6633 458.9132,-148.6633 453.7472,-148.6633 448.5812,-143.4973 448.5812,-138.3313 448.5812,-138.3313 448.5812,-127.9993 448.5812,-127.9993 448.5812,-122.8333 453.7472,-117.6672 458.9132,-117.6672 458.9132,-117.6672 497.3231,-117.6672 497.3231,-117.6672 502.4891,-117.6672 507.6551,-122.8333 507.6551,-127.9993 507.6551,-127.9993 507.6551,-138.3313 507.6551,-138.3313 507.6551,-143.4973 502.4891,-148.6633 497.3231,-148.6633"/>
<text text-anchor="middle" x="478.1182" y="-136.6643" font-family="Arial" font-size="10.00" fill="#000000">Silent</text>
<text text-anchor="middle" x="478.1182" y="-125.1653" font-family="Arial" font-size="10.00" fill="#000000">Timespan</text>
</a>
</g>
</g>
<!-- evans.timespan.TimespanMaker -->
<g id="node41" class="node">
<title>evans.timespan.TimespanMaker</title>
<g id="a_node41"><a xlink:href="../api/evans/timespan.html#evans.timespan.TimespanMaker" xlink:title="Timespan\nMaker" target="_top">
<path fill="#fbb4ae" stroke="#fbb4ae" stroke-width="2" d="M497.3231,-50.6633C497.3231,-50.6633 458.9132,-50.6633 458.9132,-50.6633 453.7472,-50.6633 448.5812,-45.4973 448.5812,-40.3313 448.5812,-40.3313 448.5812,-29.9993 448.5812,-29.9993 448.5812,-24.8333 453.7472,-19.6672 458.9132,-19.6672 458.9132,-19.6672 497.3231,-19.6672 497.3231,-19.6672 502.4891,-19.6672 507.6551,-24.8333 507.6551,-29.9993 507.6551,-29.9993 507.6551,-40.3313 507.6551,-40.3313 507.6551,-45.4973 502.4891,-50.6633 497.3231,-50.6633"/>
<text text-anchor="middle" x="478.1182" y="-38.6643" font-family="Arial" font-size="10.00" fill="#000000">Timespan</text>
<text text-anchor="middle" x="478.1182" y="-27.1653" font-family="Arial" font-size="10.00" fill="#000000">Maker</text>
</a>
</g>
</g>
<!-- evans.timespan.TimespanSpecifier -->
<g id="node42" class="node">
<title>evans.timespan.TimespanSpecifier</title>
<g id="a_node42"><a xlink:href="../api/evans/timespan.html#evans.timespan.TimespanSpecifier" xlink:title="Timespan\nSpecifier" target="_top">
<path fill="#fbb4ae" stroke="#fbb4ae" stroke-width="2" d="M497.3231,-99.6633C497.3231,-99.6633 458.9132,-99.6633 458.9132,-99.6633 453.7472,-99.6633 448.5812,-94.4973 448.5812,-89.3313 448.5812,-89.3313 448.5812,-78.9993 448.5812,-78.9993 448.5812,-73.8333 453.7472,-68.6672 458.9132,-68.6672 458.9132,-68.6672 497.3231,-68.6672 497.3231,-68.6672 502.4891,-68.6672 507.6551,-73.8333 507.6551,-78.9993 507.6551,-78.9993 507.6551,-89.3313 507.6551,-89.3313 507.6551,-94.4973 502.4891,-99.6633 497.3231,-99.6633"/>
<text text-anchor="middle" x="478.1182" y="-87.6643" font-family="Arial" font-size="10.00" fill="#000000">Timespan</text>
<text text-anchor="middle" x="478.1182" y="-76.1653" font-family="Arial" font-size="10.00" fill="#000000">Specifier</text>
</a>
</g>
</g>
</g>
</svg>
