<?xml version="1.0" encoding="UTF-8" standalone="no"?>
<!DOCTYPE svg PUBLIC "-//W3C//DTD SVG 1.1//EN"
 "http://www.w3.org/Graphics/SVG/1.1/DTD/svg11.dtd">
<!-- Generated by graphviz version 2.40.1 (20161225.0304)
 -->
<!-- Title: InheritanceGraph Pages: 1 -->
<svg width="572pt" height="597pt"
 viewBox="0.00 0.00 572.26 597.00" xmlns="http://www.w3.org/2000/svg" xmlns:xlink="http://www.w3.org/1999/xlink">
<g id="graph0" class="graph" transform="scale(1 1) rotate(0) translate(4 593)">
<title>InheritanceGraph</title>
<g id="clust1" class="cluster">
<title>cluster_builtins</title>
<path fill="transparent" stroke="#bcd2ee" stroke-width="2" stroke-dasharray="5,2" d="M20,-263C20,-263 54.6846,-263 54.6846,-263 60.6846,-263 66.6846,-269 66.6846,-275 66.6846,-275 66.6846,-306 66.6846,-306 66.6846,-312 60.6846,-318 54.6846,-318 54.6846,-318 20,-318 20,-318 14,-318 8,-312 8,-306 8,-306 8,-275 8,-275 8,-269 14,-263 20,-263"/>
<text text-anchor="middle" x="37.3423" y="-306" font-family="Arial" font-size="10.00" fill="#000000">builtins</text>
</g>
<g id="clust2" class="cluster">
<title>cluster_evans.handlers</title>
<path fill="transparent" stroke="#bcd2ee" stroke-width="2" stroke-dasharray="5,2" d="M98.6846,-8C98.6846,-8 544.2646,-8 544.2646,-8 550.2646,-8 556.2646,-14 556.2646,-20 556.2646,-20 556.2646,-569 556.2646,-569 556.2646,-575 550.2646,-581 544.2646,-581 544.2646,-581 98.6846,-581 98.6846,-581 92.6846,-581 86.6846,-575 86.6846,-569 86.6846,-569 86.6846,-20 86.6846,-20 86.6846,-14 92.6846,-8 98.6846,-8"/>
<text text-anchor="middle" x="321.4746" y="-569" font-family="Arial" font-size="10.00" fill="#000000">evans.handlers</text>
</g>
<!-- builtins.object&#45;&gt;evans.handlers.Handler -->
<g id="edge20" class="edge">
<title>builtins.object&#45;&gt;evans.handlers.Handler</title>
<path fill="none" stroke="#778899" d="M58.6787,-281C66.5359,-281 75.6653,-281 84.4476,-281"/>
<polygon fill="#778899" stroke="#778899" points="84.5009,-284.5001 94.5008,-281 84.5008,-277.5001 84.5009,-284.5001"/>
</g>
<!-- evans.handlers.Handler&#45;&gt;evans.handlers.ArticulationHandler -->
<g id="edge1" class="edge">
<title>evans.handlers.Handler&#45;&gt;evans.handlers.ArticulationHandler</title>
<path fill="none" stroke="#778899" d="M120.9702,-270.9422C123.8991,-238.1472 136.5307,-132.2722 181.7041,-60 182.9466,-58.0122 184.3655,-56.0821 185.9002,-54.2246"/>
<polygon fill="#778899" stroke="#778899" points="188.8111,-56.2439 193.1822,-46.5927 183.7466,-51.4116 188.8111,-56.2439"/>
</g>
<!-- evans.handlers.Handler&#45;&gt;evans.handlers.BendHandler -->
<g id="edge2" class="edge">
<title>evans.handlers.Handler&#45;&gt;evans.handlers.BendHandler</title>
<path fill="none" stroke="#778899" d="M121.8788,-271.0627C128.3007,-234.3364 152.3692,-106.9997 181.7041,-80 195.7266,-67.0938 244.7843,-58.9568 279.3115,-54.6914"/>
<polygon fill="#778899" stroke="#778899" points="279.9834,-58.1365 289.5054,-53.4909 279.1647,-51.1845 279.9834,-58.1365"/>
</g>
<!-- evans.handlers.Handler&#45;&gt;evans.handlers.BisbigliandoHandler -->
<g id="edge3" class="edge">
<title>evans.handlers.Handler&#45;&gt;evans.handlers.BisbigliandoHandler</title>
<path fill="none" stroke="#778899" d="M122.1933,-270.7803C129.2236,-235.923 153.8936,-122.6128 181.7041,-100 196.2052,-88.2091 308.2038,-78.5993 372.6441,-73.9771"/>
<polygon fill="#778899" stroke="#778899" points="373.2098,-77.446 382.9391,-73.252 372.7179,-70.4633 373.2098,-77.446"/>
</g>
<!-- evans.handlers.Handler&#45;&gt;evans.handlers.BowAngleHandler -->
<g id="edge4" class="edge">
<title>evans.handlers.Handler&#45;&gt;evans.handlers.BowAngleHandler</title>
<path fill="none" stroke="#778899" d="M122.3571,-271.0732C129.723,-238.2592 154.8681,-134.2725 181.7041,-115 205.6641,-97.793 400.9172,-101.4899 482.7277,-103.8346"/>
<polygon fill="#778899" stroke="#778899" points="482.7085,-107.3354 492.8078,-104.1332 482.9159,-100.3385 482.7085,-107.3354"/>
</g>
<!-- evans.handlers.Handler&#45;&gt;evans.handlers.ClefHandler -->
<g id="edge5" class="edge">
<title>evans.handlers.Handler&#45;&gt;evans.handlers.ClefHandler</title>
<path fill="none" stroke="#778899" d="M124.1239,-271.2468C132.6503,-250.7868 154.3054,-202.4312 181.7041,-168 183.3587,-165.9207 185.1728,-163.8678 187.0718,-161.8731"/>
<polygon fill="#778899" stroke="#778899" points="189.9043,-164.0027 194.659,-154.5347 185.0377,-158.9711 189.9043,-164.0027"/>
</g>
<!-- evans.handlers.Handler&#45;&gt;evans.handlers.CompositeHandler -->
<g id="edge6" class="edge">
<title>evans.handlers.Handler&#45;&gt;evans.handlers.CompositeHandler</title>
<path fill="none" stroke="#778899" d="M123.8174,-271.0103C131.3701,-251.6833 150.7153,-209.2134 181.7041,-188 208.4907,-169.6632 244.8018,-162.6471 272.7721,-160.0865"/>
<polygon fill="#778899" stroke="#778899" points="273.339,-163.5537 283.0463,-159.309 272.8107,-156.5737 273.339,-163.5537"/>
</g>
<!-- evans.handlers.Handler&#45;&gt;evans.handlers.DynamicHandler -->
<g id="edge7" class="edge">
<title>evans.handlers.Handler&#45;&gt;evans.handlers.DynamicHandler</title>
<path fill="none" stroke="#778899" d="M125.252,-271.1658C134.1936,-254.9079 154.4533,-222.7594 181.7041,-208 198.7483,-198.7686 317.7245,-187.4894 380.0458,-182.1241"/>
<polygon fill="#778899" stroke="#778899" points="380.5955,-185.5901 390.2623,-181.2539 380.0013,-178.6153 380.5955,-185.5901"/>
</g>
<!-- evans.handlers.Handler&#45;&gt;evans.handlers.GettatoHandler -->
<g id="edge8" class="edge">
<title>evans.handlers.Handler&#45;&gt;evans.handlers.GettatoHandler</title>
<path fill="none" stroke="#778899" d="M127.1235,-270.9135C137.2589,-257.1355 157.5684,-233.0018 181.7041,-223 235.1561,-200.8496 407.0793,-206.9555 482.5211,-210.879"/>
<polygon fill="#778899" stroke="#778899" points="482.7527,-214.3964 492.9262,-211.4384 483.1286,-207.4065 482.7527,-214.3964"/>
</g>
<!-- evans.handlers.Handler&#45;&gt;evans.handlers.GlissandoHandler -->
<g id="edge9" class="edge">
<title>evans.handlers.Handler&#45;&gt;evans.handlers.GlissandoHandler</title>
<path fill="none" stroke="#778899" d="M145.9468,-271.7094C154.7758,-268.5242 164.8745,-264.8809 174.5556,-261.3883"/>
<polygon fill="#778899" stroke="#778899" points="175.8161,-264.6544 184.035,-257.9684 173.4406,-258.0698 175.8161,-264.6544"/>
</g>
<!-- evans.handlers.Handler&#45;&gt;evans.handlers.GraceHandler -->
<g id="edge10" class="edge">
<title>evans.handlers.Handler&#45;&gt;evans.handlers.GraceHandler</title>
<path fill="none" stroke="#778899" d="M146.0724,-279.1409C180.2367,-276.6865 240.5597,-272.3529 279.133,-269.5818"/>
<polygon fill="#778899" stroke="#778899" points="279.6726,-273.0521 289.3961,-268.8445 279.1709,-266.0701 279.6726,-273.0521"/>
</g>
<!-- evans.handlers.Handler&#45;&gt;evans.handlers.IntermittentVoiceHandler -->
<g id="edge11" class="edge">
<title>evans.handlers.Handler&#45;&gt;evans.handlers.IntermittentVoiceHandler</title>
<path fill="none" stroke="#778899" d="M145.7258,-284.0208C187.7338,-288.5655 274.0451,-296.113 346.9697,-291 355.9872,-290.3678 365.6022,-289.2889 374.7492,-288.0678"/>
<polygon fill="#778899" stroke="#778899" points="375.4087,-291.5095 384.8208,-286.6451 374.4295,-284.5783 375.4087,-291.5095"/>
</g>
<!-- evans.handlers.Handler&#45;&gt;evans.handlers.NoteheadHandler -->
<g id="edge12" class="edge">
<title>evans.handlers.Handler&#45;&gt;evans.handlers.NoteheadHandler</title>
<path fill="none" stroke="#778899" d="M145.8037,-287.1545C156.7992,-289.6038 169.8262,-292.2501 181.7041,-294 288.1557,-309.6832 414.9698,-316.7525 478.3428,-319.5009"/>
<polygon fill="#778899" stroke="#778899" points="478.5501,-323.0126 488.6882,-319.9354 478.8439,-316.0188 478.5501,-323.0126"/>
</g>
<!-- evans.handlers.Handler&#45;&gt;evans.handlers.OnBeatGraceHandler -->
<g id="edge13" class="edge">
<title>evans.handlers.Handler&#45;&gt;evans.handlers.OnBeatGraceHandler</title>
<path fill="none" stroke="#778899" d="M131.0053,-290.8653C143.1643,-301.9608 163.5076,-320.5246 181.0618,-336.5433"/>
<polygon fill="#778899" stroke="#778899" points="179.1456,-339.5329 188.8916,-343.6882 183.864,-334.3622 179.1456,-339.5329"/>
</g>
<!-- evans.handlers.Handler&#45;&gt;evans.handlers.PitchHandler -->
<g id="edge14" class="edge">
<title>evans.handlers.Handler&#45;&gt;evans.handlers.PitchHandler</title>
<path fill="none" stroke="#778899" d="M121.6766,-290.9157C125.9053,-315.2218 140.4992,-377.6289 181.7041,-403 210.8664,-420.9561 250.8263,-416.8383 279.3859,-410.1538"/>
<polygon fill="#778899" stroke="#778899" points="280.5268,-413.4749 289.351,-407.6111 278.796,-406.6922 280.5268,-413.4749"/>
</g>
<!-- evans.handlers.Handler&#45;&gt;evans.handlers.RhythmHandler -->
<g id="edge15" class="edge">
<title>evans.handlers.Handler&#45;&gt;evans.handlers.RhythmHandler</title>
<path fill="none" stroke="#778899" d="M121.4117,-290.7881C125.1316,-316.1013 138.8406,-383.8476 181.7041,-414 241.5315,-456.0858 332.6268,-441.9679 382.4038,-429.5243"/>
<polygon fill="#778899" stroke="#778899" points="383.5845,-432.8333 392.3724,-426.9152 381.812,-426.0614 383.5845,-432.8333"/>
</g>
<!-- evans.handlers.Handler&#45;&gt;evans.handlers.SlurHandler -->
<g id="edge16" class="edge">
<title>evans.handlers.Handler&#45;&gt;evans.handlers.SlurHandler</title>
<path fill="none" stroke="#778899" d="M120.9723,-291.0838C123.6813,-318.6112 135.2593,-395.359 181.7041,-431 227.9444,-466.484 405.6805,-460.1104 482.6735,-455.5012"/>
<polygon fill="#778899" stroke="#778899" points="483.082,-458.9826 492.8448,-454.8671 482.6463,-451.9962 483.082,-458.9826"/>
</g>
<!-- evans.handlers.Handler&#45;&gt;evans.handlers.TempoSpannerHandler -->
<g id="edge17" class="edge">
<title>evans.handlers.Handler&#45;&gt;evans.handlers.TempoSpannerHandler</title>
<path fill="none" stroke="#778899" d="M122.0992,-290.8219C127.8024,-318.6541 146.5605,-399.7955 181.7041,-458 182.8571,-459.9096 184.1277,-461.8032 185.4786,-463.6631"/>
<polygon fill="#778899" stroke="#778899" points="182.8137,-465.9347 191.7997,-471.5475 188.2752,-461.556 182.8137,-465.9347"/>
</g>
<!-- evans.handlers.Handler&#45;&gt;evans.handlers.TextSpanHandler -->
<g id="edge18" class="edge">
<title>evans.handlers.Handler&#45;&gt;evans.handlers.TextSpanHandler</title>
<path fill="none" stroke="#778899" d="M121.1228,-290.8267C125.2755,-332.4438 143.6335,-493.3954 181.7041,-523 209.3699,-544.5136 250.7741,-537.1821 280.0991,-527.5409"/>
<polygon fill="#778899" stroke="#778899" points="281.2702,-530.8392 289.5437,-524.221 278.9489,-524.2353 281.2702,-530.8392"/>
</g>
<!-- evans.handlers.Handler&#45;&gt;evans.handlers.TrillHandler -->
<g id="edge19" class="edge">
<title>evans.handlers.Handler&#45;&gt;evans.handlers.TrillHandler</title>
<path fill="none" stroke="#778899" d="M121.0923,-290.8898C125.1792,-333.5487 143.4942,-501.1319 181.7041,-534 237.677,-582.1477 331.7258,-564.5652 382.6341,-549.8822"/>
<polygon fill="#778899" stroke="#778899" points="383.6457,-553.2329 392.2165,-547.0045 381.6323,-546.5286 383.6457,-553.2329"/>
</g>
<!-- builtins.object -->
<g id="node1" class="node">
<title>builtins.object</title>
<g id="a_node1"><a xlink:href="https://docs.python.org/3.7/library/functions.html#object" xlink:title="object" target="_top">
<path fill="#fbb4ae" stroke="#fbb4ae" stroke-width="2" d="M51.8576,-291.0056C51.8576,-291.0056 22.8269,-291.0056 22.8269,-291.0056 19.4918,-291.0056 16.1566,-287.6704 16.1566,-284.3352 16.1566,-284.3352 16.1566,-277.6648 16.1566,-277.6648 16.1566,-274.3296 19.4918,-270.9944 22.8269,-270.9944 22.8269,-270.9944 51.8576,-270.9944 51.8576,-270.9944 55.1928,-270.9944 58.528,-274.3296 58.528,-277.6648 58.528,-277.6648 58.528,-284.3352 58.528,-284.3352 58.528,-287.6704 55.1928,-291.0056 51.8576,-291.0056"/>
<text text-anchor="middle" x="37.3423" y="-278.7495" font-family="Arial" font-size="10.00" fill="#000000">object</text>
</a>
</g>
</g>
<!-- evans.handlers.ArticulationHandler -->
<g id="node2" class="node">
<title>evans.handlers.ArticulationHandler</title>
<g id="a_node2"><a xlink:href="../api/evans/handlers.html#evans.handlers.ArticulationHandler" xlink:title="Articulation\nHandler" target="_top">
<path fill="#000000" stroke="#000000" stroke-width="2" d="M237.0754,-46.498C237.0754,-46.498 191.8006,-46.498 191.8006,-46.498 186.6345,-46.498 181.4685,-41.332 181.4685,-36.166 181.4685,-36.166 181.4685,-25.834 181.4685,-25.834 181.4685,-20.668 186.6345,-15.502 191.8006,-15.502 191.8006,-15.502 237.0754,-15.502 237.0754,-15.502 242.2414,-15.502 247.4074,-20.668 247.4074,-25.834 247.4074,-25.834 247.4074,-36.166 247.4074,-36.166 247.4074,-41.332 242.2414,-46.498 237.0754,-46.498"/>
<text text-anchor="middle" x="214.438" y="-34.499" font-family="Arial" font-size="10.00" fill="#ffffff">Articulation</text>
<text text-anchor="middle" x="214.438" y="-23" font-family="Arial" font-size="10.00" fill="#ffffff">Handler</text>
</a>
</g>
</g>
<!-- evans.handlers.BendHandler -->
<g id="node3" class="node">
<title>evans.handlers.BendHandler</title>
<g id="a_node3"><a xlink:href="../api/evans/handlers.html#evans.handlers.BendHandler" xlink:title="Bend\nHandler" target="_top">
<path fill="#000000" stroke="#000000" stroke-width="2" d="M330.2583,-66.498C330.2583,-66.498 299.8833,-66.498 299.8833,-66.498 294.7173,-66.498 289.5513,-61.332 289.5513,-56.166 289.5513,-56.166 289.5513,-45.834 289.5513,-45.834 289.5513,-40.668 294.7173,-35.502 299.8833,-35.502 299.8833,-35.502 330.2583,-35.502 330.2583,-35.502 335.4243,-35.502 340.5903,-40.668 340.5903,-45.834 340.5903,-45.834 340.5903,-56.166 340.5903,-56.166 340.5903,-61.332 335.4243,-66.498 330.2583,-66.498"/>
<text text-anchor="middle" x="315.0708" y="-54.499" font-family="Arial" font-size="10.00" fill="#ffffff">Bend</text>
<text text-anchor="middle" x="315.0708" y="-43" font-family="Arial" font-size="10.00" fill="#ffffff">Handler</text>
</a>
</g>
</g>
<!-- evans.handlers.BisbigliandoHandler -->
<g id="node4" class="node">
<title>evans.handlers.BisbigliandoHandler</title>
<g id="a_node4"><a xlink:href="../api/evans/handlers.html#evans.handlers.BisbigliandoHandler" xlink:title="Bisbigliando\nHandler" target="_top">
<path fill="#000000" stroke="#000000" stroke-width="2" d="M442.5264,-86.498C442.5264,-86.498 393.3388,-86.498 393.3388,-86.498 388.1728,-86.498 383.0068,-81.332 383.0068,-76.166 383.0068,-76.166 383.0068,-65.834 383.0068,-65.834 383.0068,-60.668 388.1728,-55.502 393.3388,-55.502 393.3388,-55.502 442.5264,-55.502 442.5264,-55.502 447.6924,-55.502 452.8584,-60.668 452.8584,-65.834 452.8584,-65.834 452.8584,-76.166 452.8584,-76.166 452.8584,-81.332 447.6924,-86.498 442.5264,-86.498"/>
<text text-anchor="middle" x="417.9326" y="-74.499" font-family="Arial" font-size="10.00" fill="#ffffff">Bisbigliando</text>
<text text-anchor="middle" x="417.9326" y="-63" font-family="Arial" font-size="10.00" fill="#ffffff">Handler</text>
</a>
</g>
</g>
<!-- evans.handlers.BowAngleHandler -->
<g id="node5" class="node">
<title>evans.handlers.BowAngleHandler</title>
<g id="a_node5"><a xlink:href="../api/evans/handlers.html#evans.handlers.BowAngleHandler" xlink:title="Bow\nAngle\nHandler" target="_top">
<path fill="#000000" stroke="#000000" stroke-width="2" d="M532.0996,-126.5C532.0996,-126.5 505.0605,-126.5 505.0605,-126.5 499.0605,-126.5 493.0605,-120.5 493.0605,-114.5 493.0605,-114.5 493.0605,-95.5 493.0605,-95.5 493.0605,-89.5 499.0605,-83.5 505.0605,-83.5 505.0605,-83.5 532.0996,-83.5 532.0996,-83.5 538.0996,-83.5 544.0996,-89.5 544.0996,-95.5 544.0996,-95.5 544.0996,-114.5 544.0996,-114.5 544.0996,-120.5 538.0996,-126.5 532.0996,-126.5"/>
<text text-anchor="middle" x="518.5801" y="-114.2485" font-family="Arial" font-size="10.00" fill="#ffffff">Bow</text>
<text text-anchor="middle" x="518.5801" y="-102.7495" font-family="Arial" font-size="10.00" fill="#ffffff">Angle</text>
<text text-anchor="middle" x="518.5801" y="-91.2505" font-family="Arial" font-size="10.00" fill="#ffffff">Handler</text>
</a>
</g>
</g>
<!-- evans.handlers.ClefHandler -->
<g id="node6" class="node">
<title>evans.handlers.ClefHandler</title>
<g id="a_node6"><a xlink:href="../api/evans/handlers.html#evans.handlers.ClefHandler" xlink:title="Clef\nHandler" target="_top">
<path fill="#000000" stroke="#000000" stroke-width="2" d="M229.6255,-154.498C229.6255,-154.498 199.2505,-154.498 199.2505,-154.498 194.0845,-154.498 188.9185,-149.332 188.9185,-144.166 188.9185,-144.166 188.9185,-133.834 188.9185,-133.834 188.9185,-128.668 194.0845,-123.502 199.2505,-123.502 199.2505,-123.502 229.6255,-123.502 229.6255,-123.502 234.7915,-123.502 239.9575,-128.668 239.9575,-133.834 239.9575,-133.834 239.9575,-144.166 239.9575,-144.166 239.9575,-149.332 234.7915,-154.498 229.6255,-154.498"/>
<text text-anchor="middle" x="214.438" y="-142.499" font-family="Arial" font-size="10.00" fill="#ffffff">Clef</text>
<text text-anchor="middle" x="214.438" y="-131" font-family="Arial" font-size="10.00" fill="#ffffff">Handler</text>
</a>
</g>
</g>
<!-- evans.handlers.CompositeHandler -->
<g id="node7" class="node">
<title>evans.handlers.CompositeHandler</title>
<g id="a_node7"><a xlink:href="../api/evans/handlers.html#evans.handlers.CompositeHandler" xlink:title="Composite\nHandler" target="_top">
<path fill="#000000" stroke="#000000" stroke-width="2" d="M336.5369,-174.498C336.5369,-174.498 293.6047,-174.498 293.6047,-174.498 288.4386,-174.498 283.2726,-169.332 283.2726,-164.166 283.2726,-164.166 283.2726,-153.834 283.2726,-153.834 283.2726,-148.668 288.4386,-143.502 293.6047,-143.502 293.6047,-143.502 336.5369,-143.502 336.5369,-143.502 341.703,-143.502 346.869,-148.668 346.869,-153.834 346.869,-153.834 346.869,-164.166 346.869,-164.166 346.869,-169.332 341.703,-174.498 336.5369,-174.498"/>
<text text-anchor="middle" x="315.0708" y="-162.499" font-family="Arial" font-size="10.00" fill="#ffffff">Composite</text>
<text text-anchor="middle" x="315.0708" y="-151" font-family="Arial" font-size="10.00" fill="#ffffff">Handler</text>
</a>
</g>
</g>
<!-- evans.handlers.DynamicHandler -->
<g id="node8" class="node">
<title>evans.handlers.DynamicHandler</title>
<g id="a_node8"><a xlink:href="../api/evans/handlers.html#evans.handlers.DynamicHandler" xlink:title="Dynamic\nHandler" target="_top">
<path fill="#000000" stroke="#000000" stroke-width="2" d="M434.9972,-194.498C434.9972,-194.498 400.8681,-194.498 400.8681,-194.498 395.7021,-194.498 390.536,-189.332 390.536,-184.166 390.536,-184.166 390.536,-173.834 390.536,-173.834 390.536,-168.668 395.7021,-163.502 400.8681,-163.502 400.8681,-163.502 434.9972,-163.502 434.9972,-163.502 440.1632,-163.502 445.3292,-168.668 445.3292,-173.834 445.3292,-173.834 445.3292,-184.166 445.3292,-184.166 445.3292,-189.332 440.1632,-194.498 434.9972,-194.498"/>
<text text-anchor="middle" x="417.9326" y="-182.499" font-family="Arial" font-size="10.00" fill="#ffffff">Dynamic</text>
<text text-anchor="middle" x="417.9326" y="-171" font-family="Arial" font-size="10.00" fill="#ffffff">Handler</text>
</a>
</g>
</g>
<!-- evans.handlers.GettatoHandler -->
<g id="node9" class="node">
<title>evans.handlers.GettatoHandler</title>
<g id="a_node9"><a xlink:href="../api/evans/handlers.html#evans.handlers.GettatoHandler" xlink:title="Gettato\nHandler" target="_top">
<path fill="#000000" stroke="#000000" stroke-width="2" d="M533.7676,-228.498C533.7676,-228.498 503.3926,-228.498 503.3926,-228.498 498.2266,-228.498 493.0605,-223.332 493.0605,-218.166 493.0605,-218.166 493.0605,-207.834 493.0605,-207.834 493.0605,-202.668 498.2266,-197.502 503.3926,-197.502 503.3926,-197.502 533.7676,-197.502 533.7676,-197.502 538.9336,-197.502 544.0996,-202.668 544.0996,-207.834 544.0996,-207.834 544.0996,-218.166 544.0996,-218.166 544.0996,-223.332 538.9336,-228.498 533.7676,-228.498"/>
<text text-anchor="middle" x="518.5801" y="-216.499" font-family="Arial" font-size="10.00" fill="#ffffff">Gettato</text>
<text text-anchor="middle" x="518.5801" y="-205" font-family="Arial" font-size="10.00" fill="#ffffff">Handler</text>
</a>
</g>
</g>
<!-- evans.handlers.GlissandoHandler -->
<g id="node10" class="node">
<title>evans.handlers.GlissandoHandler</title>
<g id="a_node10"><a xlink:href="../api/evans/handlers.html#evans.handlers.GlissandoHandler" xlink:title="Glissando\nHandler" target="_top">
<path fill="#000000" stroke="#000000" stroke-width="2" d="M234.5756,-262.498C234.5756,-262.498 194.3004,-262.498 194.3004,-262.498 189.1344,-262.498 183.9684,-257.332 183.9684,-252.166 183.9684,-252.166 183.9684,-241.834 183.9684,-241.834 183.9684,-236.668 189.1344,-231.502 194.3004,-231.502 194.3004,-231.502 234.5756,-231.502 234.5756,-231.502 239.7416,-231.502 244.9076,-236.668 244.9076,-241.834 244.9076,-241.834 244.9076,-252.166 244.9076,-252.166 244.9076,-257.332 239.7416,-262.498 234.5756,-262.498"/>
<text text-anchor="middle" x="214.438" y="-250.499" font-family="Arial" font-size="10.00" fill="#ffffff">Glissando</text>
<text text-anchor="middle" x="214.438" y="-239" font-family="Arial" font-size="10.00" fill="#ffffff">Handler</text>
</a>
</g>
</g>
<!-- evans.handlers.GraceHandler -->
<g id="node11" class="node">
<title>evans.handlers.GraceHandler</title>
<g id="a_node11"><a xlink:href="../api/evans/handlers.html#evans.handlers.GraceHandler" xlink:title="Grace\nHandler" target="_top">
<path fill="#000000" stroke="#000000" stroke-width="2" d="M330.2583,-282.498C330.2583,-282.498 299.8833,-282.498 299.8833,-282.498 294.7173,-282.498 289.5513,-277.332 289.5513,-272.166 289.5513,-272.166 289.5513,-261.834 289.5513,-261.834 289.5513,-256.668 294.7173,-251.502 299.8833,-251.502 299.8833,-251.502 330.2583,-251.502 330.2583,-251.502 335.4243,-251.502 340.5903,-256.668 340.5903,-261.834 340.5903,-261.834 340.5903,-272.166 340.5903,-272.166 340.5903,-277.332 335.4243,-282.498 330.2583,-282.498"/>
<text text-anchor="middle" x="315.0708" y="-270.499" font-family="Arial" font-size="10.00" fill="#ffffff">Grace</text>
<text text-anchor="middle" x="315.0708" y="-259" font-family="Arial" font-size="10.00" fill="#ffffff">Handler</text>
</a>
</g>
</g>
<!-- evans.handlers.Handler -->
<g id="node12" class="node">
<title>evans.handlers.Handler</title>
<g id="a_node12"><a xlink:href="../api/evans/handlers.html#evans.handlers.Handler" xlink:title="Handler" target="_top">
<path fill="#000000" stroke="#000000" stroke-width="2" d="M139.0435,-291.0056C139.0435,-291.0056 101.3452,-291.0056 101.3452,-291.0056 98.01,-291.0056 94.6748,-287.6704 94.6748,-284.3352 94.6748,-284.3352 94.6748,-277.6648 94.6748,-277.6648 94.6748,-274.3296 98.01,-270.9944 101.3452,-270.9944 101.3452,-270.9944 139.0435,-270.9944 139.0435,-270.9944 142.3787,-270.9944 145.7139,-274.3296 145.7139,-277.6648 145.7139,-277.6648 145.7139,-284.3352 145.7139,-284.3352 145.7139,-287.6704 142.3787,-291.0056 139.0435,-291.0056"/>
<text text-anchor="middle" x="120.1943" y="-278.7495" font-family="Arial" font-size="10.00" fill="#ffffff">Handler</text>
</a>
</g>
</g>
<!-- evans.handlers.IntermittentVoiceHandler -->
<g id="node13" class="node">
<title>evans.handlers.IntermittentVoiceHandler</title>
<g id="a_node13"><a xlink:href="../api/evans/handlers.html#evans.handlers.IntermittentVoiceHandler" xlink:title="Intermittent\nVoice\nHandler" target="_top">
<path fill="#000000" stroke="#000000" stroke-width="2" d="M438.9522,-302.5C438.9522,-302.5 396.9131,-302.5 396.9131,-302.5 390.9131,-302.5 384.9131,-296.5 384.9131,-290.5 384.9131,-290.5 384.9131,-271.5 384.9131,-271.5 384.9131,-265.5 390.9131,-259.5 396.9131,-259.5 396.9131,-259.5 438.9522,-259.5 438.9522,-259.5 444.9522,-259.5 450.9522,-265.5 450.9522,-271.5 450.9522,-271.5 450.9522,-290.5 450.9522,-290.5 450.9522,-296.5 444.9522,-302.5 438.9522,-302.5"/>
<text text-anchor="middle" x="417.9326" y="-290.2485" font-family="Arial" font-size="10.00" fill="#ffffff">Intermittent</text>
<text text-anchor="middle" x="417.9326" y="-278.7495" font-family="Arial" font-size="10.00" fill="#ffffff">Voice</text>
<text text-anchor="middle" x="417.9326" y="-267.2505" font-family="Arial" font-size="10.00" fill="#ffffff">Handler</text>
</a>
</g>
</g>
<!-- evans.handlers.NoteheadHandler -->
<g id="node14" class="node">
<title>evans.handlers.NoteheadHandler</title>
<g id="a_node14"><a xlink:href="../api/evans/handlers.html#evans.handlers.NoteheadHandler" xlink:title="Notehead\nHandler" target="_top">
<path fill="#000000" stroke="#000000" stroke-width="2" d="M538.1183,-336.498C538.1183,-336.498 499.0418,-336.498 499.0418,-336.498 493.8758,-336.498 488.7098,-331.332 488.7098,-326.166 488.7098,-326.166 488.7098,-315.834 488.7098,-315.834 488.7098,-310.668 493.8758,-305.502 499.0418,-305.502 499.0418,-305.502 538.1183,-305.502 538.1183,-305.502 543.2844,-305.502 548.4504,-310.668 548.4504,-315.834 548.4504,-315.834 548.4504,-326.166 548.4504,-326.166 548.4504,-331.332 543.2844,-336.498 538.1183,-336.498"/>
<text text-anchor="middle" x="518.5801" y="-324.499" font-family="Arial" font-size="10.00" fill="#ffffff">Notehead</text>
<text text-anchor="middle" x="518.5801" y="-313" font-family="Arial" font-size="10.00" fill="#ffffff">Handler</text>
</a>
</g>
</g>
<!-- evans.handlers.OnBeatGraceHandler -->
<g id="node15" class="node">
<title>evans.handlers.OnBeatGraceHandler</title>
<g id="a_node15"><a xlink:href="../api/evans/handlers.html#evans.handlers.OnBeatGraceHandler" xlink:title="On\nBeat\nGrace\nHandler" target="_top">
<path fill="#000000" stroke="#000000" stroke-width="2" d="M227.9575,-393.9961C227.9575,-393.9961 200.9185,-393.9961 200.9185,-393.9961 194.9185,-393.9961 188.9185,-387.9961 188.9185,-381.9961 188.9185,-381.9961 188.9185,-352.0039 188.9185,-352.0039 188.9185,-346.0039 194.9185,-340.0039 200.9185,-340.0039 200.9185,-340.0039 227.9575,-340.0039 227.9575,-340.0039 233.9575,-340.0039 239.9575,-346.0039 239.9575,-352.0039 239.9575,-352.0039 239.9575,-381.9961 239.9575,-381.9961 239.9575,-387.9961 233.9575,-393.9961 227.9575,-393.9961"/>
<text text-anchor="middle" x="214.438" y="-381.998" font-family="Arial" font-size="10.00" fill="#ffffff">On</text>
<text text-anchor="middle" x="214.438" y="-370.499" font-family="Arial" font-size="10.00" fill="#ffffff">Beat</text>
<text text-anchor="middle" x="214.438" y="-359" font-family="Arial" font-size="10.00" fill="#ffffff">Grace</text>
<text text-anchor="middle" x="214.438" y="-347.501" font-family="Arial" font-size="10.00" fill="#ffffff">Handler</text>
</a>
</g>
</g>
<!-- evans.handlers.PitchHandler -->
<g id="node16" class="node">
<title>evans.handlers.PitchHandler</title>
<g id="a_node16"><a xlink:href="../api/evans/handlers.html#evans.handlers.PitchHandler" xlink:title="Pitch\nHandler" target="_top">
<path fill="#000000" stroke="#000000" stroke-width="2" d="M330.2583,-414.498C330.2583,-414.498 299.8833,-414.498 299.8833,-414.498 294.7173,-414.498 289.5513,-409.332 289.5513,-404.166 289.5513,-404.166 289.5513,-393.834 289.5513,-393.834 289.5513,-388.668 294.7173,-383.502 299.8833,-383.502 299.8833,-383.502 330.2583,-383.502 330.2583,-383.502 335.4243,-383.502 340.5903,-388.668 340.5903,-393.834 340.5903,-393.834 340.5903,-404.166 340.5903,-404.166 340.5903,-409.332 335.4243,-414.498 330.2583,-414.498"/>
<text text-anchor="middle" x="315.0708" y="-402.499" font-family="Arial" font-size="10.00" fill="#ffffff">Pitch</text>
<text text-anchor="middle" x="315.0708" y="-391" font-family="Arial" font-size="10.00" fill="#ffffff">Handler</text>
</a>
</g>
</g>
<!-- evans.handlers.RhythmHandler -->
<g id="node17" class="node">
<title>evans.handlers.RhythmHandler</title>
<g id="a_node17"><a xlink:href="../api/evans/handlers.html#evans.handlers.RhythmHandler" xlink:title="Rhythm\nHandler" target="_top">
<path fill="#000000" stroke="#000000" stroke-width="2" d="M433.1201,-434.498C433.1201,-434.498 402.7451,-434.498 402.7451,-434.498 397.5791,-434.498 392.4131,-429.332 392.4131,-424.166 392.4131,-424.166 392.4131,-413.834 392.4131,-413.834 392.4131,-408.668 397.5791,-403.502 402.7451,-403.502 402.7451,-403.502 433.1201,-403.502 433.1201,-403.502 438.2861,-403.502 443.4522,-408.668 443.4522,-413.834 443.4522,-413.834 443.4522,-424.166 443.4522,-424.166 443.4522,-429.332 438.2861,-434.498 433.1201,-434.498"/>
<text text-anchor="middle" x="417.9326" y="-422.499" font-family="Arial" font-size="10.00" fill="#ffffff">Rhythm</text>
<text text-anchor="middle" x="417.9326" y="-411" font-family="Arial" font-size="10.00" fill="#ffffff">Handler</text>
</a>
</g>
</g>
<!-- evans.handlers.SlurHandler -->
<g id="node18" class="node">
<title>evans.handlers.SlurHandler</title>
<g id="a_node18"><a xlink:href="../api/evans/handlers.html#evans.handlers.SlurHandler" xlink:title="Slur\nHandler" target="_top">
<path fill="#000000" stroke="#000000" stroke-width="2" d="M533.7676,-468.498C533.7676,-468.498 503.3926,-468.498 503.3926,-468.498 498.2266,-468.498 493.0605,-463.332 493.0605,-458.166 493.0605,-458.166 493.0605,-447.834 493.0605,-447.834 493.0605,-442.668 498.2266,-437.502 503.3926,-437.502 503.3926,-437.502 533.7676,-437.502 533.7676,-437.502 538.9336,-437.502 544.0996,-442.668 544.0996,-447.834 544.0996,-447.834 544.0996,-458.166 544.0996,-458.166 544.0996,-463.332 538.9336,-468.498 533.7676,-468.498"/>
<text text-anchor="middle" x="518.5801" y="-456.499" font-family="Arial" font-size="10.00" fill="#ffffff">Slur</text>
<text text-anchor="middle" x="518.5801" y="-445" font-family="Arial" font-size="10.00" fill="#ffffff">Handler</text>
</a>
</g>
</g>
<!-- evans.handlers.TempoSpannerHandler -->
<g id="node19" class="node">
<title>evans.handlers.TempoSpannerHandler</title>
<g id="a_node19"><a xlink:href="../api/evans/handlers.html#evans.handlers.TempoSpannerHandler" xlink:title="Tempo\nSpanner\nHandler" target="_top">
<path fill="#000000" stroke="#000000" stroke-width="2" d="M229.2459,-514.5C229.2459,-514.5 199.63,-514.5 199.63,-514.5 193.63,-514.5 187.63,-508.5 187.63,-502.5 187.63,-502.5 187.63,-483.5 187.63,-483.5 187.63,-477.5 193.63,-471.5 199.63,-471.5 199.63,-471.5 229.2459,-471.5 229.2459,-471.5 235.2459,-471.5 241.2459,-477.5 241.2459,-483.5 241.2459,-483.5 241.2459,-502.5 241.2459,-502.5 241.2459,-508.5 235.2459,-514.5 229.2459,-514.5"/>
<text text-anchor="middle" x="214.438" y="-502.2485" font-family="Arial" font-size="10.00" fill="#ffffff">Tempo</text>
<text text-anchor="middle" x="214.438" y="-490.7495" font-family="Arial" font-size="10.00" fill="#ffffff">Spanner</text>
<text text-anchor="middle" x="214.438" y="-479.2505" font-family="Arial" font-size="10.00" fill="#ffffff">Handler</text>
</a>
</g>
</g>
<!-- evans.handlers.TextSpanHandler -->
<g id="node20" class="node">
<title>evans.handlers.TextSpanHandler</title>
<g id="a_node20"><a xlink:href="../api/evans/handlers.html#evans.handlers.TextSpanHandler" xlink:title="Text\nSpan\nHandler" target="_top">
<path fill="#000000" stroke="#000000" stroke-width="2" d="M328.5903,-534.5C328.5903,-534.5 301.5513,-534.5 301.5513,-534.5 295.5513,-534.5 289.5513,-528.5 289.5513,-522.5 289.5513,-522.5 289.5513,-503.5 289.5513,-503.5 289.5513,-497.5 295.5513,-491.5 301.5513,-491.5 301.5513,-491.5 328.5903,-491.5 328.5903,-491.5 334.5903,-491.5 340.5903,-497.5 340.5903,-503.5 340.5903,-503.5 340.5903,-522.5 340.5903,-522.5 340.5903,-528.5 334.5903,-534.5 328.5903,-534.5"/>
<text text-anchor="middle" x="315.0708" y="-522.2485" font-family="Arial" font-size="10.00" fill="#ffffff">Text</text>
<text text-anchor="middle" x="315.0708" y="-510.7495" font-family="Arial" font-size="10.00" fill="#ffffff">Span</text>
<text text-anchor="middle" x="315.0708" y="-499.2505" font-family="Arial" font-size="10.00" fill="#ffffff">Handler</text>
</a>
</g>
</g>
<!-- evans.handlers.TrillHandler -->
<g id="node21" class="node">
<title>evans.handlers.TrillHandler</title>
<g id="a_node21"><a xlink:href="../api/evans/handlers.html#evans.handlers.TrillHandler" xlink:title="Trill\nHandler" target="_top">
<path fill="#000000" stroke="#000000" stroke-width="2" d="M433.1201,-553.498C433.1201,-553.498 402.7451,-553.498 402.7451,-553.498 397.5791,-553.498 392.4131,-548.332 392.4131,-543.166 392.4131,-543.166 392.4131,-532.834 392.4131,-532.834 392.4131,-527.668 397.5791,-522.502 402.7451,-522.502 402.7451,-522.502 433.1201,-522.502 433.1201,-522.502 438.2861,-522.502 443.4522,-527.668 443.4522,-532.834 443.4522,-532.834 443.4522,-543.166 443.4522,-543.166 443.4522,-548.332 438.2861,-553.498 433.1201,-553.498"/>
<text text-anchor="middle" x="417.9326" y="-541.499" font-family="Arial" font-size="10.00" fill="#ffffff">Trill</text>
<text text-anchor="middle" x="417.9326" y="-530" font-family="Arial" font-size="10.00" fill="#ffffff">Handler</text>
</a>
</g>
</g>
</g>
</svg>
