<?xml version="1.0" encoding="UTF-8" standalone="no"?>
<!DOCTYPE svg PUBLIC "-//W3C//DTD SVG 1.1//EN"
 "http://www.w3.org/Graphics/SVG/1.1/DTD/svg11.dtd">
<!-- Generated by graphviz version 2.40.1 (20161225.0304)
 -->
<!-- Title: InheritanceGraph Pages: 1 -->
<svg width="378pt" height="262pt"
 viewBox="0.00 0.00 378.40 262.00" xmlns="http://www.w3.org/2000/svg" xmlns:xlink="http://www.w3.org/1999/xlink">
<g id="graph0" class="graph" transform="scale(1 1) rotate(0) translate(4 258)">
<title>InheritanceGraph</title>
<g id="clust1" class="cluster">
<title>cluster_tsmakers</title>
<path fill="transparent" stroke="#bcd2ee" stroke-width="2" stroke-dasharray="5,2" d="M98.6846,-8C98.6846,-8 350.4014,-8 350.4014,-8 356.4014,-8 362.4014,-14 362.4014,-20 362.4014,-20 362.4014,-234 362.4014,-234 362.4014,-240 356.4014,-246 350.4014,-246 350.4014,-246 98.6846,-246 98.6846,-246 92.6846,-246 86.6846,-240 86.6846,-234 86.6846,-234 86.6846,-20 86.6846,-20 86.6846,-14 92.6846,-8 98.6846,-8"/>
<text text-anchor="middle" x="224.543" y="-234" font-family="Arial" font-size="10.00" fill="#000000">tsmakers</text>
</g>
<g id="clust2" class="cluster">
<title>cluster_builtins</title>
<path fill="transparent" stroke="#bcd2ee" stroke-width="2" stroke-dasharray="5,2" d="M20,-99C20,-99 54.6846,-99 54.6846,-99 60.6846,-99 66.6846,-105 66.6846,-111 66.6846,-111 66.6846,-142 66.6846,-142 66.6846,-148 60.6846,-154 54.6846,-154 54.6846,-154 20,-154 20,-154 14,-154 8,-148 8,-142 8,-142 8,-111 8,-111 8,-105 14,-99 20,-99"/>
<text text-anchor="middle" x="37.3423" y="-142" font-family="Arial" font-size="10.00" fill="#000000">builtins</text>
</g>
<!-- tsmakers.TimespanMaker.TimespanMaker&#45;&gt;tsmakers.BoundaryTimespanMaker.BoundaryTimespanMaker -->
<g id="edge1" class="edge">
<title>tsmakers.TimespanMaker.TimespanMaker&#45;&gt;tsmakers.BoundaryTimespanMaker.BoundaryTimespanMaker</title>
<path fill="none" stroke="#778899" d="M143.8598,-101.1946C156.5034,-90.8977 173.3542,-77.1746 188.2297,-65.0601"/>
<polygon fill="#778899" stroke="#778899" points="190.7076,-67.556 196.2514,-58.5273 186.2873,-62.1282 190.7076,-67.556"/>
</g>
<!-- tsmakers.TimespanMaker.TimespanMaker&#45;&gt;tsmakers.CascadingTimespanMaker.CascadingTimespanMaker -->
<g id="edge2" class="edge">
<title>tsmakers.TimespanMaker.TimespanMaker&#45;&gt;tsmakers.CascadingTimespanMaker.CascadingTimespanMaker</title>
<path fill="none" stroke="#778899" d="M152.7831,-101.425C164.1002,-95.9173 177.4574,-90.2809 190.2197,-87 219.9171,-79.3655 254.4938,-76.962 280.886,-76.4161"/>
<polygon fill="#778899" stroke="#778899" points="280.978,-79.9154 290.9329,-76.2891 280.8894,-72.9159 280.978,-79.9154"/>
</g>
<!-- tsmakers.TimespanMaker.TimespanMaker&#45;&gt;tsmakers.DependentTimespanMaker.DependentTimespanMaker -->
<g id="edge3" class="edge">
<title>tsmakers.TimespanMaker.TimespanMaker&#45;&gt;tsmakers.DependentTimespanMaker.DependentTimespanMaker</title>
<path fill="none" stroke="#778899" d="M154.1918,-117C162.3094,-117 171.2678,-117 179.9551,-117"/>
<polygon fill="#778899" stroke="#778899" points="179.9622,-120.5001 189.9621,-117 179.9621,-113.5001 179.9622,-120.5001"/>
</g>
<!-- tsmakers.TimespanMaker.TimespanMaker&#45;&gt;tsmakers.FloodedTimespanMaker.FloodedTimespanMaker -->
<g id="edge4" class="edge">
<title>tsmakers.TimespanMaker.TimespanMaker&#45;&gt;tsmakers.FloodedTimespanMaker.FloodedTimespanMaker</title>
<path fill="none" stroke="#778899" d="M152.7831,-132.575C164.1002,-138.0827 177.4574,-143.7191 190.2197,-147 220.7064,-154.8374 256.3353,-157.1621 282.9727,-157.6235"/>
<polygon fill="#778899" stroke="#778899" points="283.0401,-161.1242 293.0722,-157.7173 283.1052,-154.1245 283.0401,-161.1242"/>
</g>
<!-- tsmakers.TimespanMaker.TimespanMaker&#45;&gt;tsmakers.TaleaTimespanMaker.TaleaTimespanMaker -->
<g id="edge5" class="edge">
<title>tsmakers.TimespanMaker.TimespanMaker&#45;&gt;tsmakers.TaleaTimespanMaker.TaleaTimespanMaker</title>
<path fill="none" stroke="#778899" d="M143.8598,-132.8054C156.5034,-143.1023 173.3542,-156.8254 188.2297,-168.9399"/>
<polygon fill="#778899" stroke="#778899" points="186.2873,-171.8718 196.2514,-175.4727 190.7076,-166.444 186.2873,-171.8718"/>
</g>
<!-- builtins.object&#45;&gt;tsmakers.TimespanMaker.TimespanMaker -->
<g id="edge6" class="edge">
<title>builtins.object&#45;&gt;tsmakers.TimespanMaker.TimespanMaker</title>
<path fill="none" stroke="#778899" d="M58.8751,-117C66.6245,-117 75.6361,-117 84.4522,-117"/>
<polygon fill="#778899" stroke="#778899" points="84.6243,-120.5001 94.6243,-117 84.6243,-113.5001 84.6243,-120.5001"/>
</g>
<!-- tsmakers.BoundaryTimespanMaker.BoundaryTimespanMaker -->
<g id="node1" class="node">
<title>tsmakers.BoundaryTimespanMaker.BoundaryTimespanMaker</title>
<g id="a_node1"><a xlink:href="../api/tsmakers/BoundaryTimespanMaker.html#tsmakers.BoundaryTimespanMaker.BoundaryTimespanMaker" xlink:title="Boundary\nTimespan\nMaker" target="_top">
<path fill="#b3cde3" stroke="#b3cde3" stroke-width="2" d="M240.222,-58.5C240.222,-58.5 205.1481,-58.5 205.1481,-58.5 199.1481,-58.5 193.1481,-52.5 193.1481,-46.5 193.1481,-46.5 193.1481,-27.5 193.1481,-27.5 193.1481,-21.5 199.1481,-15.5 205.1481,-15.5 205.1481,-15.5 240.222,-15.5 240.222,-15.5 246.222,-15.5 252.222,-21.5 252.222,-27.5 252.222,-27.5 252.222,-46.5 252.222,-46.5 252.222,-52.5 246.222,-58.5 240.222,-58.5"/>
<text text-anchor="middle" x="222.6851" y="-46.2485" font-family="Arial" font-size="10.00" fill="#000000">Boundary</text>
<text text-anchor="middle" x="222.6851" y="-34.7495" font-family="Arial" font-size="10.00" fill="#000000">Timespan</text>
<text text-anchor="middle" x="222.6851" y="-23.2505" font-family="Arial" font-size="10.00" fill="#000000">Maker</text>
</a>
</g>
</g>
<!-- tsmakers.CascadingTimespanMaker.CascadingTimespanMaker -->
<g id="node2" class="node">
<title>tsmakers.CascadingTimespanMaker.CascadingTimespanMaker</title>
<g id="a_node2"><a xlink:href="../api/tsmakers/CascadingTimespanMaker.html#tsmakers.CascadingTimespanMaker.CascadingTimespanMaker" xlink:title="Cascading\nTimespan\nMaker" target="_top">
<path fill="#b3cde3" stroke="#b3cde3" stroke-width="2" d="M342.5274,-98.5C342.5274,-98.5 303.0244,-98.5 303.0244,-98.5 297.0244,-98.5 291.0244,-92.5 291.0244,-86.5 291.0244,-86.5 291.0244,-67.5 291.0244,-67.5 291.0244,-61.5 297.0244,-55.5 303.0244,-55.5 303.0244,-55.5 342.5274,-55.5 342.5274,-55.5 348.5274,-55.5 354.5274,-61.5 354.5274,-67.5 354.5274,-67.5 354.5274,-86.5 354.5274,-86.5 354.5274,-92.5 348.5274,-98.5 342.5274,-98.5"/>
<text text-anchor="middle" x="322.7759" y="-86.2485" font-family="Arial" font-size="10.00" fill="#000000">Cascading</text>
<text text-anchor="middle" x="322.7759" y="-74.7495" font-family="Arial" font-size="10.00" fill="#000000">Timespan</text>
<text text-anchor="middle" x="322.7759" y="-63.2505" font-family="Arial" font-size="10.00" fill="#000000">Maker</text>
</a>
</g>
</g>
<!-- tsmakers.DependentTimespanMaker.DependentTimespanMaker -->
<g id="node3" class="node">
<title>tsmakers.DependentTimespanMaker.DependentTimespanMaker</title>
<g id="a_node3"><a xlink:href="../api/tsmakers/DependentTimespanMaker.html#tsmakers.DependentTimespanMaker.DependentTimespanMaker" xlink:title="Dependent\nTimespan\nMaker" target="_top">
<path fill="#b3cde3" stroke="#b3cde3" stroke-width="2" d="M243.1158,-138.5C243.1158,-138.5 202.2544,-138.5 202.2544,-138.5 196.2544,-138.5 190.2544,-132.5 190.2544,-126.5 190.2544,-126.5 190.2544,-107.5 190.2544,-107.5 190.2544,-101.5 196.2544,-95.5 202.2544,-95.5 202.2544,-95.5 243.1158,-95.5 243.1158,-95.5 249.1158,-95.5 255.1158,-101.5 255.1158,-107.5 255.1158,-107.5 255.1158,-126.5 255.1158,-126.5 255.1158,-132.5 249.1158,-138.5 243.1158,-138.5"/>
<text text-anchor="middle" x="222.6851" y="-126.2485" font-family="Arial" font-size="10.00" fill="#000000">Dependent</text>
<text text-anchor="middle" x="222.6851" y="-114.7495" font-family="Arial" font-size="10.00" fill="#000000">Timespan</text>
<text text-anchor="middle" x="222.6851" y="-103.2505" font-family="Arial" font-size="10.00" fill="#000000">Maker</text>
</a>
</g>
</g>
<!-- tsmakers.FloodedTimespanMaker.FloodedTimespanMaker -->
<g id="node4" class="node">
<title>tsmakers.FloodedTimespanMaker.FloodedTimespanMaker</title>
<g id="a_node4"><a xlink:href="../api/tsmakers/FloodedTimespanMaker.html#tsmakers.FloodedTimespanMaker.FloodedTimespanMaker" xlink:title="Flooded\nTimespan\nMaker" target="_top">
<path fill="#b3cde3" stroke="#b3cde3" stroke-width="2" d="M340.3128,-178.5C340.3128,-178.5 305.2389,-178.5 305.2389,-178.5 299.2389,-178.5 293.2389,-172.5 293.2389,-166.5 293.2389,-166.5 293.2389,-147.5 293.2389,-147.5 293.2389,-141.5 299.2389,-135.5 305.2389,-135.5 305.2389,-135.5 340.3128,-135.5 340.3128,-135.5 346.3128,-135.5 352.3128,-141.5 352.3128,-147.5 352.3128,-147.5 352.3128,-166.5 352.3128,-166.5 352.3128,-172.5 346.3128,-178.5 340.3128,-178.5"/>
<text text-anchor="middle" x="322.7759" y="-166.2485" font-family="Arial" font-size="10.00" fill="#000000">Flooded</text>
<text text-anchor="middle" x="322.7759" y="-154.7495" font-family="Arial" font-size="10.00" fill="#000000">Timespan</text>
<text text-anchor="middle" x="322.7759" y="-143.2505" font-family="Arial" font-size="10.00" fill="#000000">Maker</text>
</a>
</g>
</g>
<!-- tsmakers.TaleaTimespanMaker.TaleaTimespanMaker -->
<g id="node5" class="node">
<title>tsmakers.TaleaTimespanMaker.TaleaTimespanMaker</title>
<g id="a_node5"><a xlink:href="../api/tsmakers/TaleaTimespanMaker.html#tsmakers.TaleaTimespanMaker.TaleaTimespanMaker" xlink:title="Talea\nTimespan\nMaker" target="_top">
<path fill="#b3cde3" stroke="#b3cde3" stroke-width="2" d="M240.222,-218.5C240.222,-218.5 205.1481,-218.5 205.1481,-218.5 199.1481,-218.5 193.1481,-212.5 193.1481,-206.5 193.1481,-206.5 193.1481,-187.5 193.1481,-187.5 193.1481,-181.5 199.1481,-175.5 205.1481,-175.5 205.1481,-175.5 240.222,-175.5 240.222,-175.5 246.222,-175.5 252.222,-181.5 252.222,-187.5 252.222,-187.5 252.222,-206.5 252.222,-206.5 252.222,-212.5 246.222,-218.5 240.222,-218.5"/>
<text text-anchor="middle" x="222.6851" y="-206.2485" font-family="Arial" font-size="10.00" fill="#000000">Talea</text>
<text text-anchor="middle" x="222.6851" y="-194.7495" font-family="Arial" font-size="10.00" fill="#000000">Timespan</text>
<text text-anchor="middle" x="222.6851" y="-183.2505" font-family="Arial" font-size="10.00" fill="#000000">Maker</text>
</a>
</g>
</g>
<!-- tsmakers.TimespanMaker.TimespanMaker -->
<g id="node6" class="node">
<title>tsmakers.TimespanMaker.TimespanMaker</title>
<g id="a_node6"><a xlink:href="../api/tsmakers/TimespanMaker.html#tsmakers.TimespanMaker.TimespanMaker" xlink:title="Timespan\nMaker" target="_top">
<path fill="#000000" stroke="#000000" stroke-width="2" d="M143.6571,-132.498C143.6571,-132.498 105.2472,-132.498 105.2472,-132.498 100.0812,-132.498 94.9152,-127.332 94.9152,-122.166 94.9152,-122.166 94.9152,-111.834 94.9152,-111.834 94.9152,-106.668 100.0812,-101.502 105.2472,-101.502 105.2472,-101.502 143.6571,-101.502 143.6571,-101.502 148.8231,-101.502 153.9891,-106.668 153.9891,-111.834 153.9891,-111.834 153.9891,-122.166 153.9891,-122.166 153.9891,-127.332 148.8231,-132.498 143.6571,-132.498"/>
<text text-anchor="middle" x="124.4521" y="-120.499" font-family="Arial" font-size="10.00" fill="#ffffff">Timespan</text>
<text text-anchor="middle" x="124.4521" y="-109" font-family="Arial" font-size="10.00" fill="#ffffff">Maker</text>
</a>
</g>
</g>
<!-- builtins.object -->
<g id="node7" class="node">
<title>builtins.object</title>
<g id="a_node7"><a xlink:href="https://docs.python.org/3.7/library/functions.html#object" xlink:title="object" target="_top">
<path fill="#fbb4ae" stroke="#fbb4ae" stroke-width="2" d="M51.8576,-127.0056C51.8576,-127.0056 22.8269,-127.0056 22.8269,-127.0056 19.4918,-127.0056 16.1566,-123.6704 16.1566,-120.3352 16.1566,-120.3352 16.1566,-113.6648 16.1566,-113.6648 16.1566,-110.3296 19.4918,-106.9944 22.8269,-106.9944 22.8269,-106.9944 51.8576,-106.9944 51.8576,-106.9944 55.1928,-106.9944 58.528,-110.3296 58.528,-113.6648 58.528,-113.6648 58.528,-120.3352 58.528,-120.3352 58.528,-123.6704 55.1928,-127.0056 51.8576,-127.0056"/>
<text text-anchor="middle" x="37.3423" y="-114.7495" font-family="Arial" font-size="10.00" fill="#000000">object</text>
</a>
</g>
</g>
</g>
</svg>
