<?xml version="1.0" encoding="UTF-8" standalone="no"?>
<!DOCTYPE svg PUBLIC "-//W3C//DTD SVG 1.1//EN"
 "http://www.w3.org/Graphics/SVG/1.1/DTD/svg11.dtd">
<!-- Generated by graphviz version 2.40.1 (20161225.0304)
 -->
<!-- Title: InheritanceGraph Pages: 1 -->
<svg width="372pt" height="281pt"
 viewBox="0.00 0.00 371.52 281.00" xmlns="http://www.w3.org/2000/svg" xmlns:xlink="http://www.w3.org/1999/xlink">
<g id="graph0" class="graph" transform="scale(1 1) rotate(0) translate(4 277)">
<title>InheritanceGraph</title>
<g id="clust2" class="cluster">
<title>cluster_evans.consort</title>
<path fill="transparent" stroke="#bcd2ee" stroke-width="2" stroke-dasharray="5,2" d="M98.6846,-8C98.6846,-8 343.5215,-8 343.5215,-8 349.5215,-8 355.5215,-14 355.5215,-20 355.5215,-20 355.5215,-253 355.5215,-253 355.5215,-259 349.5215,-265 343.5215,-265 343.5215,-265 98.6846,-265 98.6846,-265 92.6846,-265 86.6846,-259 86.6846,-253 86.6846,-253 86.6846,-20 86.6846,-20 86.6846,-14 92.6846,-8 98.6846,-8"/>
<text text-anchor="middle" x="221.103" y="-253" font-family="Arial" font-size="10.00" fill="#000000">evans.consort</text>
</g>
<g id="clust1" class="cluster">
<title>cluster_builtins</title>
<path fill="transparent" stroke="#bcd2ee" stroke-width="2" stroke-dasharray="5,2" d="M20,-119C20,-119 54.6846,-119 54.6846,-119 60.6846,-119 66.6846,-125 66.6846,-131 66.6846,-131 66.6846,-162 66.6846,-162 66.6846,-168 60.6846,-174 54.6846,-174 54.6846,-174 20,-174 20,-174 14,-174 8,-168 8,-162 8,-162 8,-131 8,-131 8,-125 14,-119 20,-119"/>
<text text-anchor="middle" x="37.3423" y="-162" font-family="Arial" font-size="10.00" fill="#000000">builtins</text>
</g>
<!-- builtins.object&#45;&gt;evans.consort.AbjadObject.AbjadObject -->
<g id="edge7" class="edge">
<title>builtins.object&#45;&gt;evans.consort.AbjadObject.AbjadObject</title>
<path fill="none" stroke="#778899" d="M58.7253,-137C66.602,-137 75.7156,-137 84.367,-137"/>
<polygon fill="#778899" stroke="#778899" points="84.5765,-140.5001 94.5764,-137 84.5764,-133.5001 84.5765,-140.5001"/>
</g>
<!-- evans.consort.AbjadObject.AbjadObject&#45;&gt;evans.consort.AbjadValueObject.AbjadValueObject -->
<g id="edge1" class="edge">
<title>evans.consort.AbjadObject.AbjadObject&#45;&gt;evans.consort.AbjadValueObject.AbjadValueObject</title>
<path fill="none" stroke="#778899" d="M130.9863,-121.4258C142.7767,-108.2098 160.1996,-88.7774 175.5859,-72 177.3573,-70.0685 179.1883,-68.0825 181.0375,-66.0845"/>
<polygon fill="#778899" stroke="#778899" points="183.927,-68.1168 188.1721,-58.4096 178.8001,-63.3507 183.927,-68.1168"/>
</g>
<!-- evans.consort.AbjadObject.AbjadObject&#45;&gt;evans.consort.LogicalTieCollection.LogicalTieCollection -->
<g id="edge2" class="edge">
<title>evans.consort.AbjadObject.AbjadObject&#45;&gt;evans.consort.LogicalTieCollection.LogicalTieCollection</title>
<path fill="none" stroke="#778899" d="M130.2496,-121.3477C141.0797,-109.638 157.5556,-94.4183 175.5859,-87 206.2222,-74.3951 243.9644,-72.5422 272.024,-73.4749"/>
<polygon fill="#778899" stroke="#778899" points="272.1169,-76.9829 282.269,-73.9521 272.4427,-69.9905 272.1169,-76.9829"/>
</g>
<!-- evans.consort.AbjadObject.AbjadObject&#45;&gt;evans.consort.RatioPartsExpression.RatioPartsExpression -->
<g id="edge3" class="edge">
<title>evans.consort.AbjadObject.AbjadObject&#45;&gt;evans.consort.RatioPartsExpression.RatioPartsExpression</title>
<path fill="none" stroke="#778899" d="M139.6753,-132.0562C147.4922,-130.3417 156.536,-128.358 165.4412,-126.4048"/>
<polygon fill="#778899" stroke="#778899" points="166.3459,-129.7896 175.3639,-124.2284 164.8462,-122.9522 166.3459,-129.7896"/>
</g>
<!-- evans.consort.AbjadObject.AbjadObject&#45;&gt;evans.consort.TimespanCollection.TimespanCollection -->
<g id="edge4" class="edge">
<title>evans.consort.AbjadObject.AbjadObject&#45;&gt;evans.consort.TimespanCollection.TimespanCollection</title>
<path fill="none" stroke="#778899" d="M139.5434,-141.3546C150.3925,-143.3293 163.629,-145.5433 175.5859,-147 207.9089,-150.9379 244.7342,-153.5231 272.0138,-155.0767"/>
<polygon fill="#778899" stroke="#778899" points="272.1636,-158.59 282.3399,-155.6415 272.546,-151.6005 272.1636,-158.59"/>
</g>
<!-- evans.consort.AbjadObject.AbjadObject&#45;&gt;evans.consort.TimespanCollectionNode.TimespanCollectionNode -->
<g id="edge5" class="edge">
<title>evans.consort.AbjadObject.AbjadObject&#45;&gt;evans.consort.TimespanCollectionNode.TimespanCollectionNode</title>
<path fill="none" stroke="#778899" d="M139.6753,-151.8315C148.7398,-157.796 159.4541,-164.846 169.689,-171.5807"/>
<polygon fill="#778899" stroke="#778899" points="167.8492,-174.5598 178.1268,-177.1328 171.697,-168.7122 167.8492,-174.5598"/>
</g>
<!-- evans.consort.AbjadObject.AbjadObject&#45;&gt;evans.consort.TimespanSimultaneity.TimespanSimultaneity -->
<g id="edge6" class="edge">
<title>evans.consort.AbjadObject.AbjadObject&#45;&gt;evans.consort.TimespanSimultaneity.TimespanSimultaneity</title>
<path fill="none" stroke="#778899" d="M121.9905,-152.567C129.5673,-173.8461 146.4412,-211.1763 175.5859,-227 203.2824,-242.0374 238.9978,-240.1413 266.9761,-234.8268"/>
<polygon fill="#778899" stroke="#778899" points="267.8389,-238.222 276.9047,-232.7391 266.3985,-231.3718 267.8389,-238.222"/>
</g>
<!-- builtins.object -->
<g id="node1" class="node">
<title>builtins.object</title>
<g id="a_node1"><a xlink:href="https://docs.python.org/3.7/library/functions.html#object" xlink:title="object" target="_top">
<path fill="#fbb4ae" stroke="#fbb4ae" stroke-width="2" d="M51.8576,-147.0056C51.8576,-147.0056 22.8269,-147.0056 22.8269,-147.0056 19.4918,-147.0056 16.1566,-143.6704 16.1566,-140.3352 16.1566,-140.3352 16.1566,-133.6648 16.1566,-133.6648 16.1566,-130.3296 19.4918,-126.9944 22.8269,-126.9944 22.8269,-126.9944 51.8576,-126.9944 51.8576,-126.9944 55.1928,-126.9944 58.528,-130.3296 58.528,-133.6648 58.528,-133.6648 58.528,-140.3352 58.528,-140.3352 58.528,-143.6704 55.1928,-147.0056 51.8576,-147.0056"/>
<text text-anchor="middle" x="37.3423" y="-134.7495" font-family="Arial" font-size="10.00" fill="#000000">object</text>
</a>
</g>
</g>
<!-- evans.consort.AbjadObject.AbjadObject -->
<g id="node2" class="node">
<title>evans.consort.AbjadObject.AbjadObject</title>
<g id="a_node2"><a xlink:href="../api/evans/consort/AbjadObject.html#evans.consort.AbjadObject.AbjadObject" xlink:title="Abjad\nObject" target="_top">
<path fill="#000000" stroke="#000000" stroke-width="2" d="M129.2047,-152.498C129.2047,-152.498 105.0658,-152.498 105.0658,-152.498 99.8998,-152.498 94.7338,-147.332 94.7338,-142.166 94.7338,-142.166 94.7338,-131.834 94.7338,-131.834 94.7338,-126.668 99.8998,-121.502 105.0658,-121.502 105.0658,-121.502 129.2047,-121.502 129.2047,-121.502 134.3707,-121.502 139.5367,-126.668 139.5367,-131.834 139.5367,-131.834 139.5367,-142.166 139.5367,-142.166 139.5367,-147.332 134.3707,-152.498 129.2047,-152.498"/>
<text text-anchor="middle" x="117.1353" y="-140.499" font-family="Arial" font-size="10.00" fill="#ffffff">Abjad</text>
<text text-anchor="middle" x="117.1353" y="-129" font-family="Arial" font-size="10.00" fill="#ffffff">Object</text>
</a>
</g>
</g>
<!-- evans.consort.AbjadValueObject.AbjadValueObject -->
<g id="node3" class="node">
<title>evans.consort.AbjadValueObject.AbjadValueObject</title>
<g id="a_node3"><a xlink:href="../api/evans/consort/AbjadValueObject.html#evans.consort.AbjadValueObject.AbjadValueObject" xlink:title="Abjad\nValue\nObject" target="_top">
<path fill="#000000" stroke="#000000" stroke-width="2" d="M218.7213,-58.5C218.7213,-58.5 197.9183,-58.5 197.9183,-58.5 191.9183,-58.5 185.9183,-52.5 185.9183,-46.5 185.9183,-46.5 185.9183,-27.5 185.9183,-27.5 185.9183,-21.5 191.9183,-15.5 197.9183,-15.5 197.9183,-15.5 218.7213,-15.5 218.7213,-15.5 224.7213,-15.5 230.7213,-21.5 230.7213,-27.5 230.7213,-27.5 230.7213,-46.5 230.7213,-46.5 230.7213,-52.5 224.7213,-58.5 218.7213,-58.5"/>
<text text-anchor="middle" x="208.3198" y="-46.2485" font-family="Arial" font-size="10.00" fill="#ffffff">Abjad</text>
<text text-anchor="middle" x="208.3198" y="-34.7495" font-family="Arial" font-size="10.00" fill="#ffffff">Value</text>
<text text-anchor="middle" x="208.3198" y="-23.2505" font-family="Arial" font-size="10.00" fill="#ffffff">Object</text>
</a>
</g>
</g>
<!-- evans.consort.LogicalTieCollection.LogicalTieCollection -->
<g id="node4" class="node">
<title>evans.consort.LogicalTieCollection.LogicalTieCollection</title>
<g id="a_node4"><a xlink:href="../api/evans/consort/LogicalTieCollection.html#evans.consort.LogicalTieCollection.LogicalTieCollection" xlink:title="Logical\nTie\nCollection" target="_top">
<path fill="#000000" stroke="#000000" stroke-width="2" d="M330.1988,-98.5C330.1988,-98.5 294.3764,-98.5 294.3764,-98.5 288.3764,-98.5 282.3764,-92.5 282.3764,-86.5 282.3764,-86.5 282.3764,-67.5 282.3764,-67.5 282.3764,-61.5 288.3764,-55.5 294.3764,-55.5 294.3764,-55.5 330.1988,-55.5 330.1988,-55.5 336.1988,-55.5 342.1988,-61.5 342.1988,-67.5 342.1988,-67.5 342.1988,-86.5 342.1988,-86.5 342.1988,-92.5 336.1988,-98.5 330.1988,-98.5"/>
<text text-anchor="middle" x="312.2876" y="-86.2485" font-family="Arial" font-size="10.00" fill="#ffffff">Logical</text>
<text text-anchor="middle" x="312.2876" y="-74.7495" font-family="Arial" font-size="10.00" fill="#ffffff">Tie</text>
<text text-anchor="middle" x="312.2876" y="-63.2505" font-family="Arial" font-size="10.00" fill="#ffffff">Collection</text>
</a>
</g>
</g>
<!-- evans.consort.RatioPartsExpression.RatioPartsExpression -->
<g id="node5" class="node">
<title>evans.consort.RatioPartsExpression.RatioPartsExpression</title>
<g id="a_node5"><a xlink:href="../api/evans/consort/RatioPartsExpression.html#evans.consort.RatioPartsExpression.RatioPartsExpression" xlink:title="Ratio\nParts\nExpression" target="_top">
<path fill="#000000" stroke="#000000" stroke-width="2" d="M229.2893,-138.5C229.2893,-138.5 187.3504,-138.5 187.3504,-138.5 181.3504,-138.5 175.3504,-132.5 175.3504,-126.5 175.3504,-126.5 175.3504,-107.5 175.3504,-107.5 175.3504,-101.5 181.3504,-95.5 187.3504,-95.5 187.3504,-95.5 229.2893,-95.5 229.2893,-95.5 235.2893,-95.5 241.2893,-101.5 241.2893,-107.5 241.2893,-107.5 241.2893,-126.5 241.2893,-126.5 241.2893,-132.5 235.2893,-138.5 229.2893,-138.5"/>
<text text-anchor="middle" x="208.3198" y="-126.2485" font-family="Arial" font-size="10.00" fill="#ffffff">Ratio</text>
<text text-anchor="middle" x="208.3198" y="-114.7495" font-family="Arial" font-size="10.00" fill="#ffffff">Parts</text>
<text text-anchor="middle" x="208.3198" y="-103.2505" font-family="Arial" font-size="10.00" fill="#ffffff">Expression</text>
</a>
</g>
</g>
<!-- evans.consort.TimespanCollection.TimespanCollection -->
<g id="node6" class="node">
<title>evans.consort.TimespanCollection.TimespanCollection</title>
<g id="a_node6"><a xlink:href="../api/evans/consort/TimespanCollection.html#evans.consort.TimespanCollection.TimespanCollection" xlink:title="Timespan\nCollection" target="_top">
<path fill="#000000" stroke="#000000" stroke-width="2" d="M331.8668,-172.498C331.8668,-172.498 292.7084,-172.498 292.7084,-172.498 287.5424,-172.498 282.3764,-167.332 282.3764,-162.166 282.3764,-162.166 282.3764,-151.834 282.3764,-151.834 282.3764,-146.668 287.5424,-141.502 292.7084,-141.502 292.7084,-141.502 331.8668,-141.502 331.8668,-141.502 337.0328,-141.502 342.1988,-146.668 342.1988,-151.834 342.1988,-151.834 342.1988,-162.166 342.1988,-162.166 342.1988,-167.332 337.0328,-172.498 331.8668,-172.498"/>
<text text-anchor="middle" x="312.2876" y="-160.499" font-family="Arial" font-size="10.00" fill="#ffffff">Timespan</text>
<text text-anchor="middle" x="312.2876" y="-149" font-family="Arial" font-size="10.00" fill="#ffffff">Collection</text>
</a>
</g>
</g>
<!-- evans.consort.TimespanCollectionNode.TimespanCollectionNode -->
<g id="node7" class="node">
<title>evans.consort.TimespanCollectionNode.TimespanCollectionNode</title>
<g id="a_node7"><a xlink:href="../api/evans/consort/TimespanCollectionNode.html#evans.consort.TimespanCollectionNode.TimespanCollectionNode" xlink:title="Timespan\nCollection\nNode" target="_top">
<path fill="#000000" stroke="#000000" stroke-width="2" d="M226.231,-218.5C226.231,-218.5 190.4086,-218.5 190.4086,-218.5 184.4086,-218.5 178.4086,-212.5 178.4086,-206.5 178.4086,-206.5 178.4086,-187.5 178.4086,-187.5 178.4086,-181.5 184.4086,-175.5 190.4086,-175.5 190.4086,-175.5 226.231,-175.5 226.231,-175.5 232.231,-175.5 238.231,-181.5 238.231,-187.5 238.231,-187.5 238.231,-206.5 238.231,-206.5 238.231,-212.5 232.231,-218.5 226.231,-218.5"/>
<text text-anchor="middle" x="208.3198" y="-206.2485" font-family="Arial" font-size="10.00" fill="#ffffff">Timespan</text>
<text text-anchor="middle" x="208.3198" y="-194.7495" font-family="Arial" font-size="10.00" fill="#ffffff">Collection</text>
<text text-anchor="middle" x="208.3198" y="-183.2505" font-family="Arial" font-size="10.00" fill="#ffffff">Node</text>
</a>
</g>
</g>
<!-- evans.consort.TimespanSimultaneity.TimespanSimultaneity -->
<g id="node8" class="node">
<title>evans.consort.TimespanSimultaneity.TimespanSimultaneity</title>
<g id="a_node8"><a xlink:href="../api/evans/consort/TimespanSimultaneity.html#evans.consort.TimespanSimultaneity.TimespanSimultaneity" xlink:title="Timespan\nSimultaneity" target="_top">
<path fill="#000000" stroke="#000000" stroke-width="2" d="M337.4249,-237.498C337.4249,-237.498 287.1503,-237.498 287.1503,-237.498 281.9843,-237.498 276.8183,-232.332 276.8183,-227.166 276.8183,-227.166 276.8183,-216.834 276.8183,-216.834 276.8183,-211.668 281.9843,-206.502 287.1503,-206.502 287.1503,-206.502 337.4249,-206.502 337.4249,-206.502 342.5909,-206.502 347.7569,-211.668 347.7569,-216.834 347.7569,-216.834 347.7569,-227.166 347.7569,-227.166 347.7569,-232.332 342.5909,-237.498 337.4249,-237.498"/>
<text text-anchor="middle" x="312.2876" y="-225.499" font-family="Arial" font-size="10.00" fill="#ffffff">Timespan</text>
<text text-anchor="middle" x="312.2876" y="-214" font-family="Arial" font-size="10.00" fill="#ffffff">Simultaneity</text>
</a>
</g>
</g>
</g>
</svg>
