<?xml version="1.0" encoding="UTF-8" standalone="no"?>
<!DOCTYPE svg PUBLIC "-//W3C//DTD SVG 1.1//EN"
 "http://www.w3.org/Graphics/SVG/1.1/DTD/svg11.dtd">
<!-- Generated by graphviz version 2.40.1 (20161225.0304)
 -->
<!-- Title: InheritanceGraph Pages: 1 -->
<svg width="816pt" height="752pt"
 viewBox="0.00 0.00 815.95 752.00" xmlns="http://www.w3.org/2000/svg" xmlns:xlink="http://www.w3.org/1999/xlink">
<g id="graph0" class="graph" transform="scale(1 1) rotate(0) translate(4 748)">
<title>InheritanceGraph</title>
<g id="clust1" class="cluster">
<title>cluster_abjad.ratio</title>
<path fill="transparent" stroke="#bcd2ee" stroke-width="2" stroke-dasharray="5,2" d="M466.3903,-670C466.3903,-670 645.0646,-670 645.0646,-670 651.0646,-670 657.0646,-676 657.0646,-682 657.0646,-682 657.0646,-724 657.0646,-724 657.0646,-730 651.0646,-736 645.0646,-736 645.0646,-736 466.3903,-736 466.3903,-736 460.3903,-736 454.3903,-730 454.3903,-724 454.3903,-724 454.3903,-682 454.3903,-682 454.3903,-676 460.3903,-670 466.3903,-670"/>
<text text-anchor="middle" x="555.7274" y="-724" font-family="Arial" font-size="10.00" fill="#000000">abjad.ratio</text>
</g>
<g id="clust2" class="cluster">
<title>cluster_abjad.sequence</title>
<path fill="transparent" stroke="#bcd2ee" stroke-width="2" stroke-dasharray="5,2" d="M598.8727,-607C598.8727,-607 660.9117,-607 660.9117,-607 666.9117,-607 672.9117,-613 672.9117,-619 672.9117,-619 672.9117,-650 672.9117,-650 672.9117,-656 666.9117,-662 660.9117,-662 660.9117,-662 598.8727,-662 598.8727,-662 592.8727,-662 586.8727,-656 586.8727,-650 586.8727,-650 586.8727,-619 586.8727,-619 586.8727,-613 592.8727,-607 598.8727,-607"/>
<text text-anchor="middle" x="629.8922" y="-650" font-family="Arial" font-size="10.00" fill="#000000">abjad.sequence</text>
</g>
<g id="clust3" class="cluster">
<title>cluster_abjadext.microtones.utilities</title>
<path fill="transparent" stroke="#bcd2ee" stroke-width="2" stroke-dasharray="5,2" d="M572.38,-144C572.38,-144 686.4044,-144 686.4044,-144 692.4044,-144 698.4044,-150 698.4044,-156 698.4044,-156 698.4044,-587 698.4044,-587 698.4044,-593 692.4044,-599 686.4044,-599 686.4044,-599 572.38,-599 572.38,-599 566.38,-599 560.38,-593 560.38,-587 560.38,-587 560.38,-156 560.38,-156 560.38,-150 566.38,-144 572.38,-144"/>
<text text-anchor="middle" x="629.3922" y="-587" font-family="Arial" font-size="10.00" fill="#000000">abjadext.microtones.utilities</text>
</g>
<g id="clust4" class="cluster">
<title>cluster_baca.classes</title>
<path fill="transparent" stroke="#bcd2ee" stroke-width="2" stroke-dasharray="5,2" d="M602.8727,-9C602.8727,-9 655.9117,-9 655.9117,-9 661.9117,-9 667.9117,-15 667.9117,-21 667.9117,-21 667.9117,-52 667.9117,-52 667.9117,-58 661.9117,-64 655.9117,-64 655.9117,-64 602.8727,-64 602.8727,-64 596.8727,-64 590.8727,-58 590.8727,-52 590.8727,-52 590.8727,-21 590.8727,-21 590.8727,-15 596.8727,-9 602.8727,-9"/>
<text text-anchor="middle" x="629.3922" y="-52" font-family="Arial" font-size="10.00" fill="#000000">baca.classes</text>
</g>
<g id="clust5" class="cluster">
<title>cluster_builtins</title>
<path fill="transparent" stroke="#bcd2ee" stroke-width="2" stroke-dasharray="5,2" d="M20,-356C20,-356 54.6846,-356 54.6846,-356 60.6846,-356 66.6846,-362 66.6846,-368 66.6846,-368 66.6846,-399 66.6846,-399 66.6846,-405 60.6846,-411 54.6846,-411 54.6846,-411 20,-411 20,-411 14,-411 8,-405 8,-399 8,-399 8,-368 8,-368 8,-362 14,-356 20,-356"/>
<text text-anchor="middle" x="37.3423" y="-399" font-family="Arial" font-size="10.00" fill="#000000">builtins</text>
</g>
<g id="clust6" class="cluster">
<title>cluster_collections.abc</title>
<path fill="transparent" stroke="#bcd2ee" stroke-width="2" stroke-dasharray="5,2" d="M98.6846,-508C98.6846,-508 422.3903,-508 422.3903,-508 428.3903,-508 434.3903,-514 434.3903,-520 434.3903,-520 434.3903,-651 434.3903,-651 434.3903,-657 428.3903,-663 422.3903,-663 422.3903,-663 98.6846,-663 98.6846,-663 92.6846,-663 86.6846,-657 86.6846,-651 86.6846,-651 86.6846,-520 86.6846,-520 86.6846,-514 92.6846,-508 98.6846,-508"/>
<text text-anchor="middle" x="260.5374" y="-651" font-family="Arial" font-size="10.00" fill="#000000">collections.abc</text>
</g>
<g id="clust7" class="cluster">
<title>cluster_evans.sequence</title>
<path fill="transparent" stroke="#bcd2ee" stroke-width="2" stroke-dasharray="5,2" d="M729.9117,-8C729.9117,-8 793.9508,-8 793.9508,-8 799.9508,-8 805.9508,-14 805.9508,-20 805.9508,-20 805.9508,-624 805.9508,-624 805.9508,-630 799.9508,-636 793.9508,-636 793.9508,-636 729.9117,-636 729.9117,-636 723.9117,-636 717.9117,-630 717.9117,-624 717.9117,-624 717.9117,-20 717.9117,-20 717.9117,-14 723.9117,-8 729.9117,-8"/>
<text text-anchor="middle" x="761.9313" y="-624" font-family="Arial" font-size="10.00" fill="#000000">evans.sequence</text>
</g>
<!-- abjad.ratio.NonreducedRatio&#45;&gt;abjad.ratio.Ratio -->
<g id="edge1" class="edge">
<title>abjad.ratio.NonreducedRatio&#45;&gt;abjad.ratio.Ratio</title>
<path fill="none" stroke="#778899" d="M532.9409,-692.1961C553.6513,-691.7245 579.5408,-691.135 599.2813,-690.6856"/>
<polygon fill="#778899" stroke="#778899" points="599.626,-694.1787 609.5437,-690.4519 599.4666,-687.1805 599.626,-694.1787"/>
</g>
<!-- abjad.ratio.Ratio&#45;&gt;evans.sequence.Ratio -->
<g id="edge8" class="edge">
<title>abjad.ratio.Ratio&#45;&gt;evans.sequence.Ratio</title>
<path fill="none" stroke="#778899" d="M649.2687,-685.7915C663.7107,-682.1131 683.2912,-675.8008 698.4044,-666 718.5657,-652.9256 736.8006,-632.074 748.4086,-617.1045"/>
<polygon fill="#778899" stroke="#778899" points="751.2337,-619.171 754.4418,-609.0736 745.637,-614.9665 751.2337,-619.171"/>
</g>
<!-- abjad.sequence.Sequence&#45;&gt;baca.classes.Sequence -->
<g id="edge9" class="edge">
<title>abjad.sequence.Sequence&#45;&gt;baca.classes.Sequence</title>
<path fill="none" stroke="#778899" d="M598.8479,-623.1188C579.6251,-620.0692 556.6246,-612.4912 546.6263,-594 534.8678,-572.2532 539.3666,-172.6323 546.6263,-149 559.4888,-107.1293 592.1418,-66.7186 612.3771,-44.5278"/>
<polygon fill="#778899" stroke="#778899" points="615.1876,-46.6464 619.4573,-36.95 610.0728,-41.8674 615.1876,-46.6464"/>
</g>
<!-- abjadext.microtones.utilities.PitchClassSegment&#45;&gt;evans.sequence.PitchClassSegment -->
<g id="edge10" class="edge">
<title>abjadext.microtones.utilities.PitchClassSegment&#45;&gt;evans.sequence.PitchClassSegment</title>
<path fill="none" stroke="#778899" d="M657.7179,-550C676.7762,-550 702.137,-550 723.0096,-550"/>
<polygon fill="#778899" stroke="#778899" points="723.1525,-553.5001 733.1524,-550 723.1524,-546.5001 723.1525,-553.5001"/>
</g>
<!-- abjadext.microtones.utilities.PitchClassSet&#45;&gt;evans.sequence.PitchClassSet -->
<g id="edge11" class="edge">
<title>abjadext.microtones.utilities.PitchClassSet&#45;&gt;evans.sequence.PitchClassSet</title>
<path fill="none" stroke="#778899" d="M650.0233,-490C671.505,-490 705.413,-490 730.183,-490"/>
<polygon fill="#778899" stroke="#778899" points="730.5093,-493.5001 740.5093,-490 730.5093,-486.5001 730.5093,-493.5001"/>
</g>
<!-- abjadext.microtones.utilities.PitchSegment&#45;&gt;evans.sequence.PitchSegment -->
<g id="edge12" class="edge">
<title>abjadext.microtones.utilities.PitchSegment&#45;&gt;evans.sequence.PitchSegment</title>
<path fill="none" stroke="#778899" d="M657.7179,-435C676.7762,-435 702.137,-435 723.0096,-435"/>
<polygon fill="#778899" stroke="#778899" points="723.1525,-438.5001 733.1524,-435 723.1524,-431.5001 723.1525,-438.5001"/>
</g>
<!-- abjadext.microtones.utilities.PitchSet&#45;&gt;evans.sequence.PitchSet -->
<g id="edge13" class="edge">
<title>abjadext.microtones.utilities.PitchSet&#45;&gt;evans.sequence.PitchSet</title>
<path fill="none" stroke="#778899" d="M648.5918,-386C670.4963,-386 706.568,-386 732.022,-386"/>
<polygon fill="#778899" stroke="#778899" points="732.2085,-389.5001 742.2085,-386 732.2084,-382.5001 732.2085,-389.5001"/>
</g>
<!-- abjadext.microtones.utilities.RatioClassSegment&#45;&gt;evans.sequence.RatioClassSegment -->
<g id="edge14" class="edge">
<title>abjadext.microtones.utilities.RatioClassSegment&#45;&gt;evans.sequence.RatioClassSegment</title>
<path fill="none" stroke="#778899" d="M657.7179,-331C676.7762,-331 702.137,-331 723.0096,-331"/>
<polygon fill="#778899" stroke="#778899" points="723.1525,-334.5001 733.1524,-331 723.1524,-327.5001 723.1525,-334.5001"/>
</g>
<!-- abjadext.microtones.utilities.RatioClassSet&#45;&gt;evans.sequence.RatioClassSet -->
<g id="edge15" class="edge">
<title>abjadext.microtones.utilities.RatioClassSet&#45;&gt;evans.sequence.RatioClassSet</title>
<path fill="none" stroke="#778899" d="M650.0233,-271C671.505,-271 705.413,-271 730.183,-271"/>
<polygon fill="#778899" stroke="#778899" points="730.5093,-274.5001 740.5093,-271 730.5093,-267.5001 730.5093,-274.5001"/>
</g>
<!-- abjadext.microtones.utilities.RatioSegment&#45;&gt;evans.sequence.RatioSegment -->
<g id="edge16" class="edge">
<title>abjadext.microtones.utilities.RatioSegment&#45;&gt;evans.sequence.RatioSegment</title>
<path fill="none" stroke="#778899" d="M657.7179,-216C676.7762,-216 702.137,-216 723.0096,-216"/>
<polygon fill="#778899" stroke="#778899" points="723.1525,-219.5001 733.1524,-216 723.1524,-212.5001 723.1525,-219.5001"/>
</g>
<!-- abjadext.microtones.utilities.RatioSet&#45;&gt;evans.sequence.RatioSet -->
<g id="edge17" class="edge">
<title>abjadext.microtones.utilities.RatioSet&#45;&gt;evans.sequence.RatioSet</title>
<path fill="none" stroke="#778899" d="M649.1598,-167C670.9403,-167 706.2181,-167 731.4155,-167"/>
<polygon fill="#778899" stroke="#778899" points="731.5286,-170.5001 741.5286,-167 731.5285,-163.5001 731.5286,-170.5001"/>
</g>
<!-- baca.classes.Sequence&#45;&gt;evans.sequence.Sequence -->
<g id="edge18" class="edge">
<title>baca.classes.Sequence&#45;&gt;evans.sequence.Sequence</title>
<path fill="none" stroke="#778899" d="M660.0165,-26.7681C677.9689,-26.6321 700.8789,-26.4586 720.3801,-26.3109"/>
<polygon fill="#778899" stroke="#778899" points="720.5425,-29.8099 730.5157,-26.2341 720.4894,-22.8101 720.5425,-29.8099"/>
</g>
<!-- builtins.object&#45;&gt;abjadext.microtones.utilities.PitchClassSegment -->
<g id="edge19" class="edge">
<title>builtins.object&#45;&gt;abjadext.microtones.utilities.PitchClassSegment</title>
<path fill="none" stroke="#778899" d="M41.8913,-383.8323C49.2081,-398.5424 64.9985,-426.1353 86.6846,-441 152.2852,-485.9659 179.8174,-488 259.3497,-488 259.3497,-488 259.3497,-488 383.2291,-488 458.9354,-488 543.8802,-515.9166 591.577,-534.2847"/>
<polygon fill="#778899" stroke="#778899" points="590.5852,-537.6551 601.1728,-538.0458 593.1397,-531.1379 590.5852,-537.6551"/>
</g>
<!-- builtins.object&#45;&gt;abjadext.microtones.utilities.PitchClassSet -->
<g id="edge20" class="edge">
<title>builtins.object&#45;&gt;abjadext.microtones.utilities.PitchClassSet</title>
<path fill="none" stroke="#778899" d="M47.8409,-383.9783C57.2852,-392.4102 71.91,-404.1743 86.6846,-411 158.1045,-443.9952 180.6764,-450 259.3497,-450 259.3497,-450 259.3497,-450 383.2291,-450 461.9234,-450 552.9581,-470.1626 599.1432,-481.8579"/>
<polygon fill="#778899" stroke="#778899" points="598.2707,-485.2474 608.8278,-484.3538 600.0177,-478.4689 598.2707,-485.2474"/>
</g>
<!-- builtins.object&#45;&gt;abjadext.microtones.utilities.PitchSegment -->
<g id="edge21" class="edge">
<title>builtins.object&#45;&gt;abjadext.microtones.utilities.PitchSegment</title>
<path fill="none" stroke="#778899" d="M58.7978,-380.7861C67.4007,-383.3233 77.4479,-386.0574 86.6846,-388 162.5038,-403.9456 181.8719,-412 259.3497,-412 259.3497,-412 259.3497,-412 383.2291,-412 457.0081,-412 542.6882,-422.369 591.0262,-429.1828"/>
<polygon fill="#778899" stroke="#778899" points="590.6484,-432.6643 601.044,-430.6197 591.6423,-425.7352 590.6484,-432.6643"/>
</g>
<!-- builtins.object&#45;&gt;abjadext.microtones.utilities.PitchSet -->
<g id="edge22" class="edge">
<title>builtins.object&#45;&gt;abjadext.microtones.utilities.PitchSet</title>
<path fill="none" stroke="#778899" d="M58.7737,-374C98.3843,-374 185.7327,-374 259.3497,-374 259.3497,-374 259.3497,-374 383.2291,-374 461.6604,-374 553.9817,-380.1525 600.0895,-383.6466"/>
<polygon fill="#778899" stroke="#778899" points="600.017,-387.1514 610.2567,-384.4312 600.5557,-380.1721 600.017,-387.1514"/>
</g>
<!-- builtins.object&#45;&gt;abjadext.microtones.utilities.RatioClassSegment -->
<g id="edge23" class="edge">
<title>builtins.object&#45;&gt;abjadext.microtones.utilities.RatioClassSegment</title>
<path fill="none" stroke="#778899" d="M58.83,-367.1585C98.1751,-355.2573 184.623,-332 259.3497,-332 259.3497,-332 259.3497,-332 383.2291,-332 456.8878,-332 542.9434,-331.5467 591.3158,-331.2505"/>
<polygon fill="#778899" stroke="#778899" points="591.3574,-334.7504 601.3354,-331.1881 591.3137,-327.7506 591.3574,-334.7504"/>
</g>
<!-- builtins.object&#45;&gt;abjadext.microtones.utilities.RatioClassSet -->
<g id="edge24" class="edge">
<title>builtins.object&#45;&gt;abjadext.microtones.utilities.RatioClassSet</title>
<path fill="none" stroke="#778899" d="M47.9372,-364.0364C57.4433,-355.559 72.1047,-343.5846 86.6846,-336 158.0155,-298.893 178.9442,-282 259.3497,-282 259.3497,-282 259.3497,-282 383.2291,-282 460.8188,-282 552.028,-276.4785 598.6121,-273.2594"/>
<polygon fill="#778899" stroke="#778899" points="598.9285,-276.7459 608.6582,-272.5527 598.4372,-269.7631 598.9285,-276.7459"/>
</g>
<!-- builtins.object&#45;&gt;abjadext.microtones.utilities.RatioSegment -->
<g id="edge25" class="edge">
<title>builtins.object&#45;&gt;abjadext.microtones.utilities.RatioSegment</title>
<path fill="none" stroke="#778899" d="M40.3537,-364.2154C46.3094,-346.461 61.2648,-308.8514 86.6846,-288 149.275,-236.6583 178.3958,-230 259.3497,-230 259.3497,-230 259.3497,-230 383.2291,-230 457.0063,-230 543.0208,-223.6542 591.3537,-219.5072"/>
<polygon fill="#778899" stroke="#778899" points="591.707,-222.9898 601.3647,-218.6333 591.0982,-216.0163 591.707,-222.9898"/>
</g>
<!-- builtins.object&#45;&gt;abjadext.microtones.utilities.RatioSet -->
<g id="edge26" class="edge">
<title>builtins.object&#45;&gt;abjadext.microtones.utilities.RatioSet</title>
<path fill="none" stroke="#778899" d="M37.7338,-364.0397C39.3059,-338.1966 47.1878,-268.476 86.6846,-232 144.9442,-178.1961 180.0463,-187 259.3497,-187 259.3497,-187 259.3497,-187 383.2291,-187 461.5936,-187 553.5311,-176.8063 599.7205,-170.974"/>
<polygon fill="#778899" stroke="#778899" points="600.1812,-174.4436 609.6534,-169.6973 599.2888,-167.5007 600.1812,-174.4436"/>
</g>
<!-- builtins.object&#45;&gt;collections.abc.Container -->
<g id="edge27" class="edge">
<title>builtins.object&#45;&gt;collections.abc.Container</title>
<path fill="none" stroke="#778899" d="M38.9289,-383.8014C44.5133,-417.2759 64.1445,-526.4673 86.6846,-553 89.5019,-556.3164 92.8994,-559.1809 96.5812,-561.6492"/>
<polygon fill="#778899" stroke="#778899" points="95.121,-564.8442 105.5492,-566.716 98.5644,-558.7496 95.121,-564.8442"/>
</g>
<!-- builtins.object&#45;&gt;collections.abc.Iterable -->
<g id="edge28" class="edge">
<title>builtins.object&#45;&gt;collections.abc.Iterable</title>
<path fill="none" stroke="#778899" d="M38.3309,-383.7987C42.4115,-422.5495 59.0412,-564.6524 86.6846,-599 90.0052,-603.1259 94.232,-606.5436 98.8167,-609.3662"/>
<polygon fill="#778899" stroke="#778899" points="97.4412,-612.5955 107.93,-614.0907 100.663,-606.3809 97.4412,-612.5955"/>
</g>
<!-- builtins.object&#45;&gt;collections.abc.Sized -->
<g id="edge29" class="edge">
<title>builtins.object&#45;&gt;collections.abc.Sized</title>
<path fill="none" stroke="#778899" d="M38.7971,-383.83C42.672,-406.9662 55.1798,-465.6422 86.6846,-502 91.6993,-507.7872 98.2184,-512.6262 104.8833,-516.5638"/>
<polygon fill="#778899" stroke="#778899" points="103.4621,-519.7722 113.9344,-521.379 106.7498,-513.5923 103.4621,-519.7722"/>
</g>
<!-- builtins.object&#45;&gt;evans.sequence.CyclicList -->
<g id="edge30" class="edge">
<title>builtins.object&#45;&gt;evans.sequence.CyclicList</title>
<path fill="none" stroke="#778899" d="M38.6756,-363.9547C43.5586,-328.5634 61.5029,-210.326 86.6846,-183 141.739,-123.2575 178.1084,-123 259.3497,-123 259.3497,-123 259.3497,-123 497.6315,-123 581.7022,-123 680.8166,-120.4301 730.1933,-118.9751"/>
<polygon fill="#778899" stroke="#778899" points="730.3428,-122.4723 740.2335,-118.6743 730.1331,-115.4755 730.3428,-122.4723"/>
</g>
<!-- builtins.object&#45;&gt;evans.sequence.MarkovChain -->
<g id="edge31" class="edge">
<title>builtins.object&#45;&gt;evans.sequence.MarkovChain</title>
<path fill="none" stroke="#778899" d="M37.8866,-364.0501C40.3969,-321.8774 52.242,-158.422 86.6846,-123 141.5297,-66.5953 180.6764,-84 259.3497,-84 259.3497,-84 259.3497,-84 497.6315,-84 580.0722,-84 676.7716,-76.6075 727.0806,-72.2019"/>
<polygon fill="#778899" stroke="#778899" points="727.4399,-75.6839 737.0901,-71.3109 726.8191,-68.7114 727.4399,-75.6839"/>
</g>
<!-- collections.abc.Collection&#45;&gt;collections.abc.Sequence -->
<g id="edge2" class="edge">
<title>collections.abc.Collection&#45;&gt;collections.abc.Sequence</title>
<path fill="none" stroke="#778899" d="M287.4599,-586.4381C304.6025,-592.8037 326.7322,-601.0211 345.3998,-607.9529"/>
<polygon fill="#778899" stroke="#778899" points="344.2084,-611.244 354.8014,-611.444 346.6452,-604.6818 344.2084,-611.244"/>
</g>
<!-- collections.abc.Sequence&#45;&gt;abjad.ratio.NonreducedRatio -->
<g id="edge32" class="edge">
<title>collections.abc.Sequence&#45;&gt;abjad.ratio.NonreducedRatio</title>
<path fill="none" stroke="#778899" d="M403.1565,-634.3673C419.8111,-644.7034 443.9326,-659.6736 463.6329,-671.8999"/>
<polygon fill="#778899" stroke="#778899" points="461.9883,-674.9985 472.3306,-677.2979 465.6795,-669.0508 461.9883,-674.9985"/>
</g>
<!-- collections.abc.Sequence&#45;&gt;abjad.sequence.Sequence -->
<g id="edge33" class="edge">
<title>collections.abc.Sequence&#45;&gt;abjad.sequence.Sequence</title>
<path fill="none" stroke="#778899" d="M426.3891,-622.526C472.0892,-623.0829 543.6878,-623.9555 588.5058,-624.5017"/>
<polygon fill="#778899" stroke="#778899" points="588.6994,-628.0042 598.7413,-624.6265 588.7847,-621.0048 588.6994,-628.0042"/>
</g>
<!-- collections.abc.Container&#45;&gt;collections.abc.Collection -->
<g id="edge3" class="edge">
<title>collections.abc.Container&#45;&gt;collections.abc.Collection</title>
<path fill="none" stroke="#778899" d="M178.8815,-576C187.7454,-576 197.2012,-576 206.4002,-576"/>
<polygon fill="#778899" stroke="#778899" points="206.6319,-579.5001 216.6318,-576 206.6318,-572.5001 206.6319,-579.5001"/>
</g>
<!-- collections.abc.Iterable&#45;&gt;collections.abc.Collection -->
<g id="edge4" class="edge">
<title>collections.abc.Iterable&#45;&gt;collections.abc.Collection</title>
<path fill="none" stroke="#778899" d="M162.0798,-612.4688C179.3728,-605.9852 202.5463,-597.2969 221.9365,-590.0271"/>
<polygon fill="#778899" stroke="#778899" points="223.2591,-593.2692 231.3939,-586.4813 220.8017,-586.7147 223.2591,-593.2692"/>
</g>
<!-- collections.abc.Iterable&#45;&gt;collections.abc.Reversible -->
<g id="edge5" class="edge">
<title>collections.abc.Iterable&#45;&gt;collections.abc.Reversible</title>
<path fill="none" stroke="#778899" d="M171.8165,-622C182.0088,-622 193.3885,-622 204.4823,-622"/>
<polygon fill="#778899" stroke="#778899" points="204.548,-625.5001 214.5479,-622 204.5479,-618.5001 204.548,-625.5001"/>
</g>
<!-- collections.abc.Reversible&#45;&gt;collections.abc.Sequence -->
<g id="edge6" class="edge">
<title>collections.abc.Reversible&#45;&gt;collections.abc.Sequence</title>
<path fill="none" stroke="#778899" d="M304.073,-622C312.3505,-622 321.0737,-622 329.5841,-622"/>
<polygon fill="#778899" stroke="#778899" points="329.8151,-625.5001 339.8151,-622 329.8151,-618.5001 329.8151,-625.5001"/>
</g>
<!-- collections.abc.Sized&#45;&gt;collections.abc.Collection -->
<g id="edge7" class="edge">
<title>collections.abc.Sized&#45;&gt;collections.abc.Collection</title>
<path fill="none" stroke="#778899" d="M159.4478,-538.5444C176.9569,-545.109 201.5128,-554.3156 221.8972,-561.9582"/>
<polygon fill="#778899" stroke="#778899" points="220.9276,-565.3325 231.5198,-565.5659 223.385,-558.778 220.9276,-565.3325"/>
</g>
<!-- abjad.ratio.NonreducedRatio -->
<g id="node1" class="node">
<title>abjad.ratio.NonreducedRatio</title>
<path fill="#fbb4ae" stroke="#fbb4ae" stroke-width="2" d="M522.7835,-708.498C522.7835,-708.498 472.4794,-708.498 472.4794,-708.498 467.3134,-708.498 462.1474,-703.332 462.1474,-698.166 462.1474,-698.166 462.1474,-687.834 462.1474,-687.834 462.1474,-682.668 467.3134,-677.502 472.4794,-677.502 472.4794,-677.502 522.7835,-677.502 522.7835,-677.502 527.9495,-677.502 533.1155,-682.668 533.1155,-687.834 533.1155,-687.834 533.1155,-698.166 533.1155,-698.166 533.1155,-703.332 527.9495,-708.498 522.7835,-708.498"/>
<text text-anchor="middle" x="497.6315" y="-696.499" font-family="Arial" font-size="10.00" fill="#000000">Nonreduced</text>
<text text-anchor="middle" x="497.6315" y="-685" font-family="Arial" font-size="10.00" fill="#000000">Ratio</text>
</g>
<!-- abjad.ratio.Ratio -->
<g id="node2" class="node">
<title>abjad.ratio.Ratio</title>
<path fill="#fbb4ae" stroke="#fbb4ae" stroke-width="2" d="M642.5681,-700.0056C642.5681,-700.0056 616.2163,-700.0056 616.2163,-700.0056 612.8811,-700.0056 609.546,-696.6704 609.546,-693.3352 609.546,-693.3352 609.546,-686.6648 609.546,-686.6648 609.546,-683.3296 612.8811,-679.9944 616.2163,-679.9944 616.2163,-679.9944 642.5681,-679.9944 642.5681,-679.9944 645.9033,-679.9944 649.2385,-683.3296 649.2385,-686.6648 649.2385,-686.6648 649.2385,-693.3352 649.2385,-693.3352 649.2385,-696.6704 645.9033,-700.0056 642.5681,-700.0056"/>
<text text-anchor="middle" x="629.3922" y="-687.7495" font-family="Arial" font-size="10.00" fill="#000000">Ratio</text>
</g>
<!-- abjad.sequence.Sequence -->
<g id="node3" class="node">
<title>abjad.sequence.Sequence</title>
<path fill="#b3cde3" stroke="#b3cde3" stroke-width="2" d="M653.2609,-635.0056C653.2609,-635.0056 605.5235,-635.0056 605.5235,-635.0056 602.1883,-635.0056 598.8531,-631.6704 598.8531,-628.3352 598.8531,-628.3352 598.8531,-621.6648 598.8531,-621.6648 598.8531,-618.3296 602.1883,-614.9944 605.5235,-614.9944 605.5235,-614.9944 653.2609,-614.9944 653.2609,-614.9944 656.5961,-614.9944 659.9313,-618.3296 659.9313,-621.6648 659.9313,-621.6648 659.9313,-628.3352 659.9313,-628.3352 659.9313,-631.6704 656.5961,-635.0056 653.2609,-635.0056"/>
<text text-anchor="middle" x="629.3922" y="-622.7495" font-family="Arial" font-size="10.00" fill="#000000">Sequence</text>
</g>
<!-- abjadext.microtones.utilities.PitchClassSegment -->
<g id="node4" class="node">
<title>abjadext.microtones.utilities.PitchClassSegment</title>
<g id="a_node4"><a xlink:href="../api/evans/../abjadext/microtones/utilities.html#abjadext.microtones.utilities.PitchClassSegment" xlink:title="Pitch\nClass\nSegment" target="_top">
<path fill="#ccebc5" stroke="#ccebc5" stroke-width="2" d="M645.4166,-571.5C645.4166,-571.5 613.3678,-571.5 613.3678,-571.5 607.3678,-571.5 601.3678,-565.5 601.3678,-559.5 601.3678,-559.5 601.3678,-540.5 601.3678,-540.5 601.3678,-534.5 607.3678,-528.5 613.3678,-528.5 613.3678,-528.5 645.4166,-528.5 645.4166,-528.5 651.4166,-528.5 657.4166,-534.5 657.4166,-540.5 657.4166,-540.5 657.4166,-559.5 657.4166,-559.5 657.4166,-565.5 651.4166,-571.5 645.4166,-571.5"/>
<text text-anchor="middle" x="629.3922" y="-559.2485" font-family="Arial" font-size="10.00" fill="#000000">Pitch</text>
<text text-anchor="middle" x="629.3922" y="-547.7495" font-family="Arial" font-size="10.00" fill="#000000">Class</text>
<text text-anchor="middle" x="629.3922" y="-536.2505" font-family="Arial" font-size="10.00" fill="#000000">Segment</text>
</a>
</g>
</g>
<!-- abjadext.microtones.utilities.PitchClassSet -->
<g id="node5" class="node">
<title>abjadext.microtones.utilities.PitchClassSet</title>
<g id="a_node5"><a xlink:href="../api/evans/../abjadext/microtones/utilities.html#abjadext.microtones.utilities.PitchClassSet" xlink:title="Pitch\nClass\nSet" target="_top">
<path fill="#ccebc5" stroke="#ccebc5" stroke-width="2" d="M637.8971,-511.5C637.8971,-511.5 620.8873,-511.5 620.8873,-511.5 614.8873,-511.5 608.8873,-505.5 608.8873,-499.5 608.8873,-499.5 608.8873,-480.5 608.8873,-480.5 608.8873,-474.5 614.8873,-468.5 620.8873,-468.5 620.8873,-468.5 637.8971,-468.5 637.8971,-468.5 643.8971,-468.5 649.8971,-474.5 649.8971,-480.5 649.8971,-480.5 649.8971,-499.5 649.8971,-499.5 649.8971,-505.5 643.8971,-511.5 637.8971,-511.5"/>
<text text-anchor="middle" x="629.3922" y="-499.2485" font-family="Arial" font-size="10.00" fill="#000000">Pitch</text>
<text text-anchor="middle" x="629.3922" y="-487.7495" font-family="Arial" font-size="10.00" fill="#000000">Class</text>
<text text-anchor="middle" x="629.3922" y="-476.2505" font-family="Arial" font-size="10.00" fill="#000000">Set</text>
</a>
</g>
</g>
<!-- abjadext.microtones.utilities.PitchSegment -->
<g id="node6" class="node">
<title>abjadext.microtones.utilities.PitchSegment</title>
<g id="a_node6"><a xlink:href="../api/evans/../abjadext/microtones/utilities.html#abjadext.microtones.utilities.PitchSegment" xlink:title="Pitch\nSegment" target="_top">
<path fill="#ccebc5" stroke="#ccebc5" stroke-width="2" d="M647.0846,-450.498C647.0846,-450.498 611.6998,-450.498 611.6998,-450.498 606.5338,-450.498 601.3678,-445.332 601.3678,-440.166 601.3678,-440.166 601.3678,-429.834 601.3678,-429.834 601.3678,-424.668 606.5338,-419.502 611.6998,-419.502 611.6998,-419.502 647.0846,-419.502 647.0846,-419.502 652.2506,-419.502 657.4166,-424.668 657.4166,-429.834 657.4166,-429.834 657.4166,-440.166 657.4166,-440.166 657.4166,-445.332 652.2506,-450.498 647.0846,-450.498"/>
<text text-anchor="middle" x="629.3922" y="-438.499" font-family="Arial" font-size="10.00" fill="#000000">Pitch</text>
<text text-anchor="middle" x="629.3922" y="-427" font-family="Arial" font-size="10.00" fill="#000000">Segment</text>
</a>
</g>
</g>
<!-- abjadext.microtones.utilities.PitchSet -->
<g id="node7" class="node">
<title>abjadext.microtones.utilities.PitchSet</title>
<g id="a_node7"><a xlink:href="../api/evans/../abjadext/microtones/utilities.html#abjadext.microtones.utilities.PitchSet" xlink:title="Pitch\nSet" target="_top">
<path fill="#ccebc5" stroke="#ccebc5" stroke-width="2" d="M638.2923,-401.498C638.2923,-401.498 620.4921,-401.498 620.4921,-401.498 615.3261,-401.498 610.1601,-396.332 610.1601,-391.166 610.1601,-391.166 610.1601,-380.834 610.1601,-380.834 610.1601,-375.668 615.3261,-370.502 620.4921,-370.502 620.4921,-370.502 638.2923,-370.502 638.2923,-370.502 643.4583,-370.502 648.6244,-375.668 648.6244,-380.834 648.6244,-380.834 648.6244,-391.166 648.6244,-391.166 648.6244,-396.332 643.4583,-401.498 638.2923,-401.498"/>
<text text-anchor="middle" x="629.3922" y="-389.499" font-family="Arial" font-size="10.00" fill="#000000">Pitch</text>
<text text-anchor="middle" x="629.3922" y="-378" font-family="Arial" font-size="10.00" fill="#000000">Set</text>
</a>
</g>
</g>
<!-- abjadext.microtones.utilities.RatioClassSegment -->
<g id="node8" class="node">
<title>abjadext.microtones.utilities.RatioClassSegment</title>
<g id="a_node8"><a xlink:href="../api/evans/../abjadext/microtones/utilities.html#abjadext.microtones.utilities.RatioClassSegment" xlink:title="Ratio\nClass\nSegment" target="_top">
<path fill="#ccebc5" stroke="#ccebc5" stroke-width="2" d="M645.4166,-352.5C645.4166,-352.5 613.3678,-352.5 613.3678,-352.5 607.3678,-352.5 601.3678,-346.5 601.3678,-340.5 601.3678,-340.5 601.3678,-321.5 601.3678,-321.5 601.3678,-315.5 607.3678,-309.5 613.3678,-309.5 613.3678,-309.5 645.4166,-309.5 645.4166,-309.5 651.4166,-309.5 657.4166,-315.5 657.4166,-321.5 657.4166,-321.5 657.4166,-340.5 657.4166,-340.5 657.4166,-346.5 651.4166,-352.5 645.4166,-352.5"/>
<text text-anchor="middle" x="629.3922" y="-340.2485" font-family="Arial" font-size="10.00" fill="#000000">Ratio</text>
<text text-anchor="middle" x="629.3922" y="-328.7495" font-family="Arial" font-size="10.00" fill="#000000">Class</text>
<text text-anchor="middle" x="629.3922" y="-317.2505" font-family="Arial" font-size="10.00" fill="#000000">Segment</text>
</a>
</g>
</g>
<!-- abjadext.microtones.utilities.RatioClassSet -->
<g id="node9" class="node">
<title>abjadext.microtones.utilities.RatioClassSet</title>
<g id="a_node9"><a xlink:href="../api/evans/../abjadext/microtones/utilities.html#abjadext.microtones.utilities.RatioClassSet" xlink:title="Ratio\nClass\nSet" target="_top">
<path fill="#ccebc5" stroke="#ccebc5" stroke-width="2" d="M637.8971,-292.5C637.8971,-292.5 620.8873,-292.5 620.8873,-292.5 614.8873,-292.5 608.8873,-286.5 608.8873,-280.5 608.8873,-280.5 608.8873,-261.5 608.8873,-261.5 608.8873,-255.5 614.8873,-249.5 620.8873,-249.5 620.8873,-249.5 637.8971,-249.5 637.8971,-249.5 643.8971,-249.5 649.8971,-255.5 649.8971,-261.5 649.8971,-261.5 649.8971,-280.5 649.8971,-280.5 649.8971,-286.5 643.8971,-292.5 637.8971,-292.5"/>
<text text-anchor="middle" x="629.3922" y="-280.2485" font-family="Arial" font-size="10.00" fill="#000000">Ratio</text>
<text text-anchor="middle" x="629.3922" y="-268.7495" font-family="Arial" font-size="10.00" fill="#000000">Class</text>
<text text-anchor="middle" x="629.3922" y="-257.2505" font-family="Arial" font-size="10.00" fill="#000000">Set</text>
</a>
</g>
</g>
<!-- abjadext.microtones.utilities.RatioSegment -->
<g id="node10" class="node">
<title>abjadext.microtones.utilities.RatioSegment</title>
<g id="a_node10"><a xlink:href="../api/evans/../abjadext/microtones/utilities.html#abjadext.microtones.utilities.RatioSegment" xlink:title="Ratio\nSegment" target="_top">
<path fill="#ccebc5" stroke="#ccebc5" stroke-width="2" d="M647.0846,-231.498C647.0846,-231.498 611.6998,-231.498 611.6998,-231.498 606.5338,-231.498 601.3678,-226.332 601.3678,-221.166 601.3678,-221.166 601.3678,-210.834 601.3678,-210.834 601.3678,-205.668 606.5338,-200.502 611.6998,-200.502 611.6998,-200.502 647.0846,-200.502 647.0846,-200.502 652.2506,-200.502 657.4166,-205.668 657.4166,-210.834 657.4166,-210.834 657.4166,-221.166 657.4166,-221.166 657.4166,-226.332 652.2506,-231.498 647.0846,-231.498"/>
<text text-anchor="middle" x="629.3922" y="-219.499" font-family="Arial" font-size="10.00" fill="#000000">Ratio</text>
<text text-anchor="middle" x="629.3922" y="-208" font-family="Arial" font-size="10.00" fill="#000000">Segment</text>
</a>
</g>
</g>
<!-- abjadext.microtones.utilities.RatioSet -->
<g id="node11" class="node">
<title>abjadext.microtones.utilities.RatioSet</title>
<g id="a_node11"><a xlink:href="../api/evans/../abjadext/microtones/utilities.html#abjadext.microtones.utilities.RatioSet" xlink:title="Ratio\nSet" target="_top">
<path fill="#ccebc5" stroke="#ccebc5" stroke-width="2" d="M638.9064,-182.498C638.9064,-182.498 619.878,-182.498 619.878,-182.498 614.712,-182.498 609.546,-177.332 609.546,-172.166 609.546,-172.166 609.546,-161.834 609.546,-161.834 609.546,-156.668 614.712,-151.502 619.878,-151.502 619.878,-151.502 638.9064,-151.502 638.9064,-151.502 644.0724,-151.502 649.2385,-156.668 649.2385,-161.834 649.2385,-161.834 649.2385,-172.166 649.2385,-172.166 649.2385,-177.332 644.0724,-182.498 638.9064,-182.498"/>
<text text-anchor="middle" x="629.3922" y="-170.499" font-family="Arial" font-size="10.00" fill="#000000">Ratio</text>
<text text-anchor="middle" x="629.3922" y="-159" font-family="Arial" font-size="10.00" fill="#000000">Set</text>
</a>
</g>
</g>
<!-- baca.classes.Sequence -->
<g id="node12" class="node">
<title>baca.classes.Sequence</title>
<path fill="#decbe4" stroke="#decbe4" stroke-width="2" d="M653.2609,-37.0056C653.2609,-37.0056 605.5235,-37.0056 605.5235,-37.0056 602.1883,-37.0056 598.8531,-33.6704 598.8531,-30.3352 598.8531,-30.3352 598.8531,-23.6648 598.8531,-23.6648 598.8531,-20.3296 602.1883,-16.9944 605.5235,-16.9944 605.5235,-16.9944 653.2609,-16.9944 653.2609,-16.9944 656.5961,-16.9944 659.9313,-20.3296 659.9313,-23.6648 659.9313,-23.6648 659.9313,-30.3352 659.9313,-30.3352 659.9313,-33.6704 656.5961,-37.0056 653.2609,-37.0056"/>
<text text-anchor="middle" x="629.3922" y="-24.7495" font-family="Arial" font-size="10.00" fill="#000000">Sequence</text>
</g>
<!-- builtins.object -->
<g id="node13" class="node">
<title>builtins.object</title>
<g id="a_node13"><a xlink:href="https://docs.python.org/3.7/library/functions.html#object" xlink:title="object" target="_top">
<path fill="#fed9a6" stroke="#fed9a6" stroke-width="2" d="M51.8576,-384.0056C51.8576,-384.0056 22.8269,-384.0056 22.8269,-384.0056 19.4918,-384.0056 16.1566,-380.6704 16.1566,-377.3352 16.1566,-377.3352 16.1566,-370.6648 16.1566,-370.6648 16.1566,-367.3296 19.4918,-363.9944 22.8269,-363.9944 22.8269,-363.9944 51.8576,-363.9944 51.8576,-363.9944 55.1928,-363.9944 58.528,-367.3296 58.528,-370.6648 58.528,-370.6648 58.528,-377.3352 58.528,-377.3352 58.528,-380.6704 55.1928,-384.0056 51.8576,-384.0056"/>
<text text-anchor="middle" x="37.3423" y="-371.7495" font-family="Arial" font-size="10.00" fill="#000000">object</text>
</a>
</g>
</g>
<!-- collections.abc.Collection -->
<g id="node14" class="node">
<title>collections.abc.Collection</title>
<g id="a_node14"><a xlink:href="https://docs.python.org/3.7/library/collections.abc.html#collections.abc.Collection" xlink:title="Collection" target="_top">
<ellipse fill="none" stroke="#ffffcc" stroke-width="2" cx="259.3497" cy="-576" rx="42.2276" ry="13.579"/>
<text text-anchor="middle" x="259.3497" y="-573.7495" font-family="Arial" font-size="10.00" fill="#000000">Collection</text>
</a>
</g>
</g>
<!-- collections.abc.Sequence -->
<g id="node15" class="node">
<title>collections.abc.Sequence</title>
<g id="a_node15"><a xlink:href="https://docs.python.org/3.7/library/collections.abc.html#collections.abc.Sequence" xlink:title="Sequence" target="_top">
<ellipse fill="none" stroke="#ffffcc" stroke-width="2" cx="383.2291" cy="-622" rx="43.3229" ry="13.579"/>
<text text-anchor="middle" x="383.2291" y="-619.7495" font-family="Arial" font-size="10.00" fill="#000000">Sequence</text>
</a>
</g>
</g>
<!-- collections.abc.Container -->
<g id="node16" class="node">
<title>collections.abc.Container</title>
<g id="a_node16"><a xlink:href="https://docs.python.org/3.7/library/collections.abc.html#collections.abc.Container" xlink:title="Container" target="_top">
<ellipse fill="none" stroke="#ffffcc" stroke-width="2" cx="136.658" cy="-576" rx="41.9469" ry="13.579"/>
<text text-anchor="middle" x="136.658" y="-573.7495" font-family="Arial" font-size="10.00" fill="#000000">Container</text>
</a>
</g>
</g>
<!-- collections.abc.Iterable -->
<g id="node17" class="node">
<title>collections.abc.Iterable</title>
<g id="a_node17"><a xlink:href="https://docs.python.org/3.7/library/collections.abc.html#collections.abc.Iterable" xlink:title="Iterable" target="_top">
<ellipse fill="none" stroke="#ffffcc" stroke-width="2" cx="136.658" cy="-622" rx="34.7981" ry="13.579"/>
<text text-anchor="middle" x="136.658" y="-619.7495" font-family="Arial" font-size="10.00" fill="#000000">Iterable</text>
</a>
</g>
</g>
<!-- collections.abc.Reversible -->
<g id="node18" class="node">
<title>collections.abc.Reversible</title>
<g id="a_node18"><a xlink:href="https://docs.python.org/3.7/library/collections.abc.html#collections.abc.Reversible" xlink:title="Reversible" target="_top">
<ellipse fill="none" stroke="#ffffcc" stroke-width="2" cx="259.3497" cy="-622" rx="44.9376" ry="13.579"/>
<text text-anchor="middle" x="259.3497" y="-619.7495" font-family="Arial" font-size="10.00" fill="#000000">Reversible</text>
</a>
</g>
</g>
<!-- collections.abc.Sized -->
<g id="node19" class="node">
<title>collections.abc.Sized</title>
<g id="a_node19"><a xlink:href="https://docs.python.org/3.7/library/collections.abc.html#collections.abc.Sized" xlink:title="Sized" target="_top">
<ellipse fill="none" stroke="#ffffcc" stroke-width="2" cx="136.658" cy="-530" rx="29.0035" ry="13.579"/>
<text text-anchor="middle" x="136.658" y="-527.7495" font-family="Arial" font-size="10.00" fill="#000000">Sized</text>
</a>
</g>
</g>
<!-- evans.sequence.CyclicList -->
<g id="node20" class="node">
<title>evans.sequence.CyclicList</title>
<g id="a_node20"><a xlink:href="../api/evans/sequence.html#evans.sequence.CyclicList" xlink:title="Cyclic\nList" target="_top">
<path fill="#000000" stroke="#000000" stroke-width="2" d="M772.2656,-133.498C772.2656,-133.498 750.597,-133.498 750.597,-133.498 745.4309,-133.498 740.2649,-128.332 740.2649,-123.166 740.2649,-123.166 740.2649,-112.834 740.2649,-112.834 740.2649,-107.668 745.4309,-102.502 750.597,-102.502 750.597,-102.502 772.2656,-102.502 772.2656,-102.502 777.4316,-102.502 782.5976,-107.668 782.5976,-112.834 782.5976,-112.834 782.5976,-123.166 782.5976,-123.166 782.5976,-128.332 777.4316,-133.498 772.2656,-133.498"/>
<text text-anchor="middle" x="761.4313" y="-121.499" font-family="Arial" font-size="10.00" fill="#ffffff">Cyclic</text>
<text text-anchor="middle" x="761.4313" y="-110" font-family="Arial" font-size="10.00" fill="#ffffff">List</text>
</a>
</g>
</g>
<!-- evans.sequence.MarkovChain -->
<g id="node21" class="node">
<title>evans.sequence.MarkovChain</title>
<g id="a_node21"><a xlink:href="../api/evans/sequence.html#evans.sequence.MarkovChain" xlink:title="Markov\nChain" target="_top">
<path fill="#000000" stroke="#000000" stroke-width="2" d="M775.3829,-84.498C775.3829,-84.498 747.4796,-84.498 747.4796,-84.498 742.3136,-84.498 737.1476,-79.332 737.1476,-74.166 737.1476,-74.166 737.1476,-63.834 737.1476,-63.834 737.1476,-58.668 742.3136,-53.502 747.4796,-53.502 747.4796,-53.502 775.3829,-53.502 775.3829,-53.502 780.5489,-53.502 785.715,-58.668 785.715,-63.834 785.715,-63.834 785.715,-74.166 785.715,-74.166 785.715,-79.332 780.5489,-84.498 775.3829,-84.498"/>
<text text-anchor="middle" x="761.4313" y="-72.499" font-family="Arial" font-size="10.00" fill="#ffffff">Markov</text>
<text text-anchor="middle" x="761.4313" y="-61" font-family="Arial" font-size="10.00" fill="#ffffff">Chain</text>
</a>
</g>
</g>
<!-- evans.sequence.PitchClassSegment -->
<g id="node22" class="node">
<title>evans.sequence.PitchClassSegment</title>
<g id="a_node22"><a xlink:href="../api/evans/sequence.html#evans.sequence.PitchClassSegment" xlink:title="Pitch\nClass\nSegment" target="_top">
<path fill="#000000" stroke="#000000" stroke-width="2" d="M777.4557,-571.5C777.4557,-571.5 745.4068,-571.5 745.4068,-571.5 739.4068,-571.5 733.4068,-565.5 733.4068,-559.5 733.4068,-559.5 733.4068,-540.5 733.4068,-540.5 733.4068,-534.5 739.4068,-528.5 745.4068,-528.5 745.4068,-528.5 777.4557,-528.5 777.4557,-528.5 783.4557,-528.5 789.4557,-534.5 789.4557,-540.5 789.4557,-540.5 789.4557,-559.5 789.4557,-559.5 789.4557,-565.5 783.4557,-571.5 777.4557,-571.5"/>
<text text-anchor="middle" x="761.4313" y="-559.2485" font-family="Arial" font-size="10.00" fill="#ffffff">Pitch</text>
<text text-anchor="middle" x="761.4313" y="-547.7495" font-family="Arial" font-size="10.00" fill="#ffffff">Class</text>
<text text-anchor="middle" x="761.4313" y="-536.2505" font-family="Arial" font-size="10.00" fill="#ffffff">Segment</text>
</a>
</g>
</g>
<!-- evans.sequence.PitchClassSet -->
<g id="node23" class="node">
<title>evans.sequence.PitchClassSet</title>
<g id="a_node23"><a xlink:href="../api/evans/sequence.html#evans.sequence.PitchClassSet" xlink:title="Pitch\nClass\nSet" target="_top">
<path fill="#000000" stroke="#000000" stroke-width="2" d="M769.9362,-511.5C769.9362,-511.5 752.9264,-511.5 752.9264,-511.5 746.9264,-511.5 740.9264,-505.5 740.9264,-499.5 740.9264,-499.5 740.9264,-480.5 740.9264,-480.5 740.9264,-474.5 746.9264,-468.5 752.9264,-468.5 752.9264,-468.5 769.9362,-468.5 769.9362,-468.5 775.9362,-468.5 781.9362,-474.5 781.9362,-480.5 781.9362,-480.5 781.9362,-499.5 781.9362,-499.5 781.9362,-505.5 775.9362,-511.5 769.9362,-511.5"/>
<text text-anchor="middle" x="761.4313" y="-499.2485" font-family="Arial" font-size="10.00" fill="#ffffff">Pitch</text>
<text text-anchor="middle" x="761.4313" y="-487.7495" font-family="Arial" font-size="10.00" fill="#ffffff">Class</text>
<text text-anchor="middle" x="761.4313" y="-476.2505" font-family="Arial" font-size="10.00" fill="#ffffff">Set</text>
</a>
</g>
</g>
<!-- evans.sequence.PitchSegment -->
<g id="node24" class="node">
<title>evans.sequence.PitchSegment</title>
<g id="a_node24"><a xlink:href="../api/evans/sequence.html#evans.sequence.PitchSegment" xlink:title="Pitch\nSegment" target="_top">
<path fill="#000000" stroke="#000000" stroke-width="2" d="M779.1237,-450.498C779.1237,-450.498 743.7389,-450.498 743.7389,-450.498 738.5729,-450.498 733.4068,-445.332 733.4068,-440.166 733.4068,-440.166 733.4068,-429.834 733.4068,-429.834 733.4068,-424.668 738.5729,-419.502 743.7389,-419.502 743.7389,-419.502 779.1237,-419.502 779.1237,-419.502 784.2897,-419.502 789.4557,-424.668 789.4557,-429.834 789.4557,-429.834 789.4557,-440.166 789.4557,-440.166 789.4557,-445.332 784.2897,-450.498 779.1237,-450.498"/>
<text text-anchor="middle" x="761.4313" y="-438.499" font-family="Arial" font-size="10.00" fill="#ffffff">Pitch</text>
<text text-anchor="middle" x="761.4313" y="-427" font-family="Arial" font-size="10.00" fill="#ffffff">Segment</text>
</a>
</g>
</g>
<!-- evans.sequence.PitchSet -->
<g id="node25" class="node">
<title>evans.sequence.PitchSet</title>
<g id="a_node25"><a xlink:href="../api/evans/sequence.html#evans.sequence.PitchSet" xlink:title="Pitch\nSet" target="_top">
<path fill="#000000" stroke="#000000" stroke-width="2" d="M770.3314,-401.498C770.3314,-401.498 752.5311,-401.498 752.5311,-401.498 747.3651,-401.498 742.1991,-396.332 742.1991,-391.166 742.1991,-391.166 742.1991,-380.834 742.1991,-380.834 742.1991,-375.668 747.3651,-370.502 752.5311,-370.502 752.5311,-370.502 770.3314,-370.502 770.3314,-370.502 775.4974,-370.502 780.6634,-375.668 780.6634,-380.834 780.6634,-380.834 780.6634,-391.166 780.6634,-391.166 780.6634,-396.332 775.4974,-401.498 770.3314,-401.498"/>
<text text-anchor="middle" x="761.4313" y="-389.499" font-family="Arial" font-size="10.00" fill="#ffffff">Pitch</text>
<text text-anchor="middle" x="761.4313" y="-378" font-family="Arial" font-size="10.00" fill="#ffffff">Set</text>
</a>
</g>
</g>
<!-- evans.sequence.Ratio -->
<g id="node26" class="node">
<title>evans.sequence.Ratio</title>
<g id="a_node26"><a xlink:href="../api/evans/sequence.html#evans.sequence.Ratio" xlink:title="Ratio" target="_top">
<path fill="#000000" stroke="#000000" stroke-width="2" d="M774.6071,-609.0056C774.6071,-609.0056 748.2554,-609.0056 748.2554,-609.0056 744.9202,-609.0056 741.585,-605.6704 741.585,-602.3352 741.585,-602.3352 741.585,-595.6648 741.585,-595.6648 741.585,-592.3296 744.9202,-588.9944 748.2554,-588.9944 748.2554,-588.9944 774.6071,-588.9944 774.6071,-588.9944 777.9423,-588.9944 781.2775,-592.3296 781.2775,-595.6648 781.2775,-595.6648 781.2775,-602.3352 781.2775,-602.3352 781.2775,-605.6704 777.9423,-609.0056 774.6071,-609.0056"/>
<text text-anchor="middle" x="761.4313" y="-596.7495" font-family="Arial" font-size="10.00" fill="#ffffff">Ratio</text>
</a>
</g>
</g>
<!-- evans.sequence.RatioClassSegment -->
<g id="node27" class="node">
<title>evans.sequence.RatioClassSegment</title>
<g id="a_node27"><a xlink:href="../api/evans/sequence.html#evans.sequence.RatioClassSegment" xlink:title="Ratio\nClass\nSegment" target="_top">
<path fill="#000000" stroke="#000000" stroke-width="2" d="M777.4557,-352.5C777.4557,-352.5 745.4068,-352.5 745.4068,-352.5 739.4068,-352.5 733.4068,-346.5 733.4068,-340.5 733.4068,-340.5 733.4068,-321.5 733.4068,-321.5 733.4068,-315.5 739.4068,-309.5 745.4068,-309.5 745.4068,-309.5 777.4557,-309.5 777.4557,-309.5 783.4557,-309.5 789.4557,-315.5 789.4557,-321.5 789.4557,-321.5 789.4557,-340.5 789.4557,-340.5 789.4557,-346.5 783.4557,-352.5 777.4557,-352.5"/>
<text text-anchor="middle" x="761.4313" y="-340.2485" font-family="Arial" font-size="10.00" fill="#ffffff">Ratio</text>
<text text-anchor="middle" x="761.4313" y="-328.7495" font-family="Arial" font-size="10.00" fill="#ffffff">Class</text>
<text text-anchor="middle" x="761.4313" y="-317.2505" font-family="Arial" font-size="10.00" fill="#ffffff">Segment</text>
</a>
</g>
</g>
<!-- evans.sequence.RatioClassSet -->
<g id="node28" class="node">
<title>evans.sequence.RatioClassSet</title>
<g id="a_node28"><a xlink:href="../api/evans/sequence.html#evans.sequence.RatioClassSet" xlink:title="Ratio\nClass\nSet" target="_top">
<path fill="#000000" stroke="#000000" stroke-width="2" d="M769.9362,-292.5C769.9362,-292.5 752.9264,-292.5 752.9264,-292.5 746.9264,-292.5 740.9264,-286.5 740.9264,-280.5 740.9264,-280.5 740.9264,-261.5 740.9264,-261.5 740.9264,-255.5 746.9264,-249.5 752.9264,-249.5 752.9264,-249.5 769.9362,-249.5 769.9362,-249.5 775.9362,-249.5 781.9362,-255.5 781.9362,-261.5 781.9362,-261.5 781.9362,-280.5 781.9362,-280.5 781.9362,-286.5 775.9362,-292.5 769.9362,-292.5"/>
<text text-anchor="middle" x="761.4313" y="-280.2485" font-family="Arial" font-size="10.00" fill="#ffffff">Ratio</text>
<text text-anchor="middle" x="761.4313" y="-268.7495" font-family="Arial" font-size="10.00" fill="#ffffff">Class</text>
<text text-anchor="middle" x="761.4313" y="-257.2505" font-family="Arial" font-size="10.00" fill="#ffffff">Set</text>
</a>
</g>
</g>
<!-- evans.sequence.RatioSegment -->
<g id="node29" class="node">
<title>evans.sequence.RatioSegment</title>
<g id="a_node29"><a xlink:href="../api/evans/sequence.html#evans.sequence.RatioSegment" xlink:title="Ratio\nSegment" target="_top">
<path fill="#000000" stroke="#000000" stroke-width="2" d="M779.1237,-231.498C779.1237,-231.498 743.7389,-231.498 743.7389,-231.498 738.5729,-231.498 733.4068,-226.332 733.4068,-221.166 733.4068,-221.166 733.4068,-210.834 733.4068,-210.834 733.4068,-205.668 738.5729,-200.502 743.7389,-200.502 743.7389,-200.502 779.1237,-200.502 779.1237,-200.502 784.2897,-200.502 789.4557,-205.668 789.4557,-210.834 789.4557,-210.834 789.4557,-221.166 789.4557,-221.166 789.4557,-226.332 784.2897,-231.498 779.1237,-231.498"/>
<text text-anchor="middle" x="761.4313" y="-219.499" font-family="Arial" font-size="10.00" fill="#ffffff">Ratio</text>
<text text-anchor="middle" x="761.4313" y="-208" font-family="Arial" font-size="10.00" fill="#ffffff">Segment</text>
</a>
</g>
</g>
<!-- evans.sequence.RatioSet -->
<g id="node30" class="node">
<title>evans.sequence.RatioSet</title>
<g id="a_node30"><a xlink:href="../api/evans/sequence.html#evans.sequence.RatioSet" xlink:title="Ratio\nSet" target="_top">
<path fill="#000000" stroke="#000000" stroke-width="2" d="M770.9455,-182.498C770.9455,-182.498 751.917,-182.498 751.917,-182.498 746.751,-182.498 741.585,-177.332 741.585,-172.166 741.585,-172.166 741.585,-161.834 741.585,-161.834 741.585,-156.668 746.751,-151.502 751.917,-151.502 751.917,-151.502 770.9455,-151.502 770.9455,-151.502 776.1115,-151.502 781.2775,-156.668 781.2775,-161.834 781.2775,-161.834 781.2775,-172.166 781.2775,-172.166 781.2775,-177.332 776.1115,-182.498 770.9455,-182.498"/>
<text text-anchor="middle" x="761.4313" y="-170.499" font-family="Arial" font-size="10.00" fill="#ffffff">Ratio</text>
<text text-anchor="middle" x="761.4313" y="-159" font-family="Arial" font-size="10.00" fill="#ffffff">Set</text>
</a>
</g>
</g>
<!-- evans.sequence.Sequence -->
<g id="node31" class="node">
<title>evans.sequence.Sequence</title>
<g id="a_node31"><a xlink:href="../api/evans/sequence.html#evans.sequence.Sequence" xlink:title="Sequence" target="_top">
<path fill="#000000" stroke="#000000" stroke-width="2" d="M785.3,-36.0056C785.3,-36.0056 737.5626,-36.0056 737.5626,-36.0056 734.2274,-36.0056 730.8922,-32.6704 730.8922,-29.3352 730.8922,-29.3352 730.8922,-22.6648 730.8922,-22.6648 730.8922,-19.3296 734.2274,-15.9944 737.5626,-15.9944 737.5626,-15.9944 785.3,-15.9944 785.3,-15.9944 788.6352,-15.9944 791.9703,-19.3296 791.9703,-22.6648 791.9703,-22.6648 791.9703,-29.3352 791.9703,-29.3352 791.9703,-32.6704 788.6352,-36.0056 785.3,-36.0056"/>
<text text-anchor="middle" x="761.4313" y="-23.7495" font-family="Arial" font-size="10.00" fill="#ffffff">Sequence</text>
</a>
</g>
</g>
</g>
</svg>
