<?xml version="1.0" encoding="UTF-8" standalone="no"?>
<!DOCTYPE svg PUBLIC "-//W3C//DTD SVG 1.1//EN"
 "http://www.w3.org/Graphics/SVG/1.1/DTD/svg11.dtd">
<!-- Generated by graphviz version 2.40.1 (20161225.0304)
 -->
<!-- Title: InheritanceGraph Pages: 1 -->
<svg width="468pt" height="493pt"
 viewBox="0.00 0.00 467.99 493.00" xmlns="http://www.w3.org/2000/svg" xmlns:xlink="http://www.w3.org/1999/xlink">
<g id="graph0" class="graph" transform="scale(1 1) rotate(0) translate(4 489)">
<title>InheritanceGraph</title>
<g id="clust1" class="cluster">
<title>cluster_builtins</title>
<path fill="transparent" stroke="#bcd2ee" stroke-width="2" stroke-dasharray="5,2" d="M20,-223C20,-223 54.6846,-223 54.6846,-223 60.6846,-223 66.6846,-229 66.6846,-235 66.6846,-235 66.6846,-266 66.6846,-266 66.6846,-272 60.6846,-278 54.6846,-278 54.6846,-278 20,-278 20,-278 14,-278 8,-272 8,-266 8,-266 8,-235 8,-235 8,-229 14,-223 20,-223"/>
<text text-anchor="middle" x="37.3423" y="-266" font-family="Arial" font-size="10.00" fill="#000000">builtins</text>
</g>
<g id="clust2" class="cluster">
<title>cluster_evans.handlers</title>
<path fill="transparent" stroke="#bcd2ee" stroke-width="2" stroke-dasharray="5,2" d="M98.6846,-8C98.6846,-8 439.9941,-8 439.9941,-8 445.9941,-8 451.9941,-14 451.9941,-20 451.9941,-20 451.9941,-465 451.9941,-465 451.9941,-471 445.9941,-477 439.9941,-477 439.9941,-477 98.6846,-477 98.6846,-477 92.6846,-477 86.6846,-471 86.6846,-465 86.6846,-465 86.6846,-20 86.6846,-20 86.6846,-14 92.6846,-8 98.6846,-8"/>
<text text-anchor="middle" x="269.3394" y="-465" font-family="Arial" font-size="10.00" fill="#000000">evans.handlers</text>
</g>
<!-- builtins.object&#45;&gt;evans.handlers.Handler -->
<g id="edge16" class="edge">
<title>builtins.object&#45;&gt;evans.handlers.Handler</title>
<path fill="none" stroke="#778899" d="M58.6787,-241C66.5359,-241 75.6653,-241 84.4476,-241"/>
<polygon fill="#778899" stroke="#778899" points="84.5009,-244.5001 94.5008,-241 84.5008,-237.5001 84.5009,-244.5001"/>
</g>
<!-- evans.handlers.Handler&#45;&gt;evans.handlers.ArticulationHandler -->
<g id="edge1" class="edge">
<title>evans.handlers.Handler&#45;&gt;evans.handlers.ArticulationHandler</title>
<path fill="none" stroke="#778899" d="M121.7012,-231.19C126.447,-202.6556 143.1194,-118.0409 181.7041,-60 183.1017,-57.8977 184.6884,-55.8523 186.3916,-53.8844"/>
<polygon fill="#778899" stroke="#778899" points="188.9022,-56.3231 193.384,-46.7229 183.8937,-51.4328 188.9022,-56.3231"/>
</g>
<!-- evans.handlers.Handler&#45;&gt;evans.handlers.BendHandler -->
<g id="edge2" class="edge">
<title>evans.handlers.Handler&#45;&gt;evans.handlers.BendHandler</title>
<path fill="none" stroke="#778899" d="M120.872,-230.8514C123.3461,-202.3394 134.4243,-120.9323 181.7041,-80 195.4371,-68.1107 241.5112,-59.8336 274.659,-55.2492"/>
<polygon fill="#778899" stroke="#778899" points="275.4563,-58.6743 284.9097,-53.8907 274.5365,-51.7349 275.4563,-58.6743"/>
</g>
<!-- evans.handlers.Handler&#45;&gt;evans.handlers.BisbigliandoHandler -->
<g id="edge3" class="edge">
<title>evans.handlers.Handler&#45;&gt;evans.handlers.BisbigliandoHandler</title>
<path fill="none" stroke="#778899" d="M120.9183,-230.9731C123.4891,-203.638 134.7469,-127.6806 181.7041,-95 210.0923,-75.2428 305.9994,-77.8346 363.7796,-81.4457"/>
<polygon fill="#778899" stroke="#778899" points="363.8911,-84.9606 374.0999,-82.1267 364.352,-77.9758 363.8911,-84.9606"/>
</g>
<!-- evans.handlers.Handler&#45;&gt;evans.handlers.ClefHandler -->
<g id="edge4" class="edge">
<title>evans.handlers.Handler&#45;&gt;evans.handlers.ClefHandler</title>
<path fill="none" stroke="#778899" d="M125.5427,-231.1804C135.3873,-213.5474 157.5885,-175.7703 181.7041,-148 183.4465,-145.9936 185.3242,-143.9937 187.2679,-142.0362"/>
<polygon fill="#778899" stroke="#778899" points="190.0868,-144.1872 194.9433,-134.771 185.2747,-139.1035 190.0868,-144.1872"/>
</g>
<!-- evans.handlers.Handler&#45;&gt;evans.handlers.DynamicHandler -->
<g id="edge5" class="edge">
<title>evans.handlers.Handler&#45;&gt;evans.handlers.DynamicHandler</title>
<path fill="none" stroke="#778899" d="M125.567,-231.2007C134.8264,-215.2891 155.3596,-184.0052 181.7041,-168 209.3974,-151.1753 245.7775,-144.0883 272.8275,-141.1153"/>
<polygon fill="#778899" stroke="#778899" points="273.4432,-144.5724 283.0643,-140.1357 272.7763,-137.6043 273.4432,-144.5724"/>
</g>
<!-- evans.handlers.Handler&#45;&gt;evans.handlers.GettatoHandler -->
<g id="edge6" class="edge">
<title>evans.handlers.Handler&#45;&gt;evans.handlers.GettatoHandler</title>
<path fill="none" stroke="#778899" d="M127.1435,-230.9614C137.3028,-217.2404 157.6404,-193.1739 181.7041,-183 215.2036,-168.8366 318.12,-169.8743 373.2635,-171.5732"/>
<polygon fill="#778899" stroke="#778899" points="373.1882,-175.0725 383.2987,-171.906 373.4203,-168.0763 373.1882,-175.0725"/>
</g>
<!-- evans.handlers.Handler&#45;&gt;evans.handlers.GlissandoHandler -->
<g id="edge7" class="edge">
<title>evans.handlers.Handler&#45;&gt;evans.handlers.GlissandoHandler</title>
<path fill="none" stroke="#778899" d="M145.9468,-231.7094C154.7758,-228.5242 164.8745,-224.8809 174.5556,-221.3883"/>
<polygon fill="#778899" stroke="#778899" points="175.8161,-224.6544 184.035,-217.9684 173.4406,-218.0698 175.8161,-224.6544"/>
</g>
<!-- evans.handlers.Handler&#45;&gt;evans.handlers.GraceHandler -->
<g id="edge8" class="edge">
<title>evans.handlers.Handler&#45;&gt;evans.handlers.GraceHandler</title>
<path fill="none" stroke="#778899" d="M145.876,-239.1119C179.1895,-236.6627 237.473,-232.3777 275.035,-229.6162"/>
<polygon fill="#778899" stroke="#778899" points="275.3255,-233.1044 285.0419,-228.8805 274.8122,-226.1232 275.3255,-233.1044"/>
</g>
<!-- evans.handlers.Handler&#45;&gt;evans.handlers.NoteheadHandler -->
<g id="edge9" class="edge">
<title>evans.handlers.Handler&#45;&gt;evans.handlers.NoteheadHandler</title>
<path fill="none" stroke="#778899" d="M145.8267,-242.7749C196.2314,-246.2651 308.577,-254.0442 368.9023,-258.2213"/>
<polygon fill="#778899" stroke="#778899" points="368.9632,-261.7338 379.1811,-258.9331 369.4468,-254.7506 368.9632,-261.7338"/>
</g>
<!-- evans.handlers.Handler&#45;&gt;evans.handlers.PitchHandler -->
<g id="edge10" class="edge">
<title>evans.handlers.Handler&#45;&gt;evans.handlers.PitchHandler</title>
<path fill="none" stroke="#778899" d="M137.4801,-250.9044C149.3617,-257.7124 165.5426,-266.9838 180.0018,-275.2686"/>
<polygon fill="#778899" stroke="#778899" points="178.3116,-278.334 188.7283,-280.2688 181.7917,-272.2604 178.3116,-278.334"/>
</g>
<!-- evans.handlers.Handler&#45;&gt;evans.handlers.RhythmHandler -->
<g id="edge11" class="edge">
<title>evans.handlers.Handler&#45;&gt;evans.handlers.RhythmHandler</title>
<path fill="none" stroke="#778899" d="M124.3448,-250.7523C132.4137,-268.2822 152.066,-304.6273 181.7041,-319 210.825,-333.1219 248.1567,-330.0225 275.1451,-324.6463"/>
<polygon fill="#778899" stroke="#778899" points="275.9211,-328.0594 284.9435,-322.5055 274.4269,-321.2208 275.9211,-328.0594"/>
</g>
<!-- evans.handlers.Handler&#45;&gt;evans.handlers.SlurHandler -->
<g id="edge12" class="edge">
<title>evans.handlers.Handler&#45;&gt;evans.handlers.SlurHandler</title>
<path fill="none" stroke="#778899" d="M123.7785,-250.7707C131.2632,-269.6162 150.4946,-310.7349 181.7041,-329 241.627,-364.0694 326.0379,-360.4973 373.3292,-354.754"/>
<polygon fill="#778899" stroke="#778899" points="373.9377,-358.2042 383.3956,-353.4294 373.0244,-351.264 373.9377,-358.2042"/>
</g>
<!-- evans.handlers.Handler&#45;&gt;evans.handlers.TempoSpannerHandler -->
<g id="edge13" class="edge">
<title>evans.handlers.Handler&#45;&gt;evans.handlers.TempoSpannerHandler</title>
<path fill="none" stroke="#778899" d="M124.5245,-250.8624C133.6376,-271.122 156.0814,-318.5025 181.7041,-354 183.0493,-355.8636 184.4853,-357.7325 185.9769,-359.584"/>
<polygon fill="#778899" stroke="#778899" points="183.6034,-362.1937 192.7631,-367.5183 188.9231,-357.6439 183.6034,-362.1937"/>
</g>
<!-- evans.handlers.Handler&#45;&gt;evans.handlers.TextSpanHandler -->
<g id="edge14" class="edge">
<title>evans.handlers.Handler&#45;&gt;evans.handlers.TextSpanHandler</title>
<path fill="none" stroke="#778899" d="M122.1238,-251.1784C128.9273,-285.8763 152.9452,-398.5103 181.7041,-419 208.6527,-438.1999 247.3065,-431.975 275.2524,-423.2381"/>
<polygon fill="#778899" stroke="#778899" points="276.6623,-426.4565 285.0223,-419.948 274.4282,-419.8226 276.6623,-426.4565"/>
</g>
<!-- evans.handlers.Handler&#45;&gt;evans.handlers.TrillHandler -->
<g id="edge15" class="edge">
<title>evans.handlers.Handler&#45;&gt;evans.handlers.TrillHandler</title>
<path fill="none" stroke="#778899" d="M122.0026,-251.1993C128.5831,-287.095 152.412,-406.6828 181.7041,-430 236.4848,-473.6068 324.4928,-458.7036 373.3808,-445.4376"/>
<polygon fill="#778899" stroke="#778899" points="374.5284,-448.7502 383.1931,-442.6532 372.6175,-442.0161 374.5284,-448.7502"/>
</g>
<!-- builtins.object -->
<g id="node1" class="node">
<title>builtins.object</title>
<g id="a_node1"><a xlink:href="https://docs.python.org/3.7/library/functions.html#object" xlink:title="object" target="_top">
<path fill="#fbb4ae" stroke="#fbb4ae" stroke-width="2" d="M51.8576,-251.0056C51.8576,-251.0056 22.8269,-251.0056 22.8269,-251.0056 19.4918,-251.0056 16.1566,-247.6704 16.1566,-244.3352 16.1566,-244.3352 16.1566,-237.6648 16.1566,-237.6648 16.1566,-234.3296 19.4918,-230.9944 22.8269,-230.9944 22.8269,-230.9944 51.8576,-230.9944 51.8576,-230.9944 55.1928,-230.9944 58.528,-234.3296 58.528,-237.6648 58.528,-237.6648 58.528,-244.3352 58.528,-244.3352 58.528,-247.6704 55.1928,-251.0056 51.8576,-251.0056"/>
<text text-anchor="middle" x="37.3423" y="-238.7495" font-family="Arial" font-size="10.00" fill="#000000">object</text>
</a>
</g>
</g>
<!-- evans.handlers.ArticulationHandler -->
<g id="node2" class="node">
<title>evans.handlers.ArticulationHandler</title>
<g id="a_node2"><a xlink:href="../api/evans/handlers.html#evans.handlers.ArticulationHandler" xlink:title="Articulation\nHandler" target="_top">
<path fill="#000000" stroke="#000000" stroke-width="2" d="M237.0754,-46.498C237.0754,-46.498 191.8006,-46.498 191.8006,-46.498 186.6345,-46.498 181.4685,-41.332 181.4685,-36.166 181.4685,-36.166 181.4685,-25.834 181.4685,-25.834 181.4685,-20.668 186.6345,-15.502 191.8006,-15.502 191.8006,-15.502 237.0754,-15.502 237.0754,-15.502 242.2414,-15.502 247.4074,-20.668 247.4074,-25.834 247.4074,-25.834 247.4074,-36.166 247.4074,-36.166 247.4074,-41.332 242.2414,-46.498 237.0754,-46.498"/>
<text text-anchor="middle" x="214.438" y="-34.499" font-family="Arial" font-size="10.00" fill="#ffffff">Articulation</text>
<text text-anchor="middle" x="214.438" y="-23" font-family="Arial" font-size="10.00" fill="#ffffff">Handler</text>
</a>
</g>
</g>
<!-- evans.handlers.BendHandler -->
<g id="node3" class="node">
<title>evans.handlers.BendHandler</title>
<g id="a_node3"><a xlink:href="../api/evans/handlers.html#evans.handlers.BendHandler" xlink:title="Bend\nHandler" target="_top">
<path fill="#000000" stroke="#000000" stroke-width="2" d="M325.8076,-66.498C325.8076,-66.498 295.4326,-66.498 295.4326,-66.498 290.2666,-66.498 285.1006,-61.332 285.1006,-56.166 285.1006,-56.166 285.1006,-45.834 285.1006,-45.834 285.1006,-40.668 290.2666,-35.502 295.4326,-35.502 295.4326,-35.502 325.8076,-35.502 325.8076,-35.502 330.9736,-35.502 336.1397,-40.668 336.1397,-45.834 336.1397,-45.834 336.1397,-56.166 336.1397,-56.166 336.1397,-61.332 330.9736,-66.498 325.8076,-66.498"/>
<text text-anchor="middle" x="310.6201" y="-54.499" font-family="Arial" font-size="10.00" fill="#ffffff">Bend</text>
<text text-anchor="middle" x="310.6201" y="-43" font-family="Arial" font-size="10.00" fill="#ffffff">Handler</text>
</a>
</g>
</g>
<!-- evans.handlers.BisbigliandoHandler -->
<g id="node4" class="node">
<title>evans.handlers.BisbigliandoHandler</title>
<g id="a_node4"><a xlink:href="../api/evans/handlers.html#evans.handlers.BisbigliandoHandler" xlink:title="Bisbigliando\nHandler" target="_top">
<path fill="#000000" stroke="#000000" stroke-width="2" d="M433.625,-100.498C433.625,-100.498 384.4375,-100.498 384.4375,-100.498 379.2714,-100.498 374.1054,-95.332 374.1054,-90.166 374.1054,-90.166 374.1054,-79.834 374.1054,-79.834 374.1054,-74.668 379.2714,-69.502 384.4375,-69.502 384.4375,-69.502 433.625,-69.502 433.625,-69.502 438.7911,-69.502 443.9571,-74.668 443.9571,-79.834 443.9571,-79.834 443.9571,-90.166 443.9571,-90.166 443.9571,-95.332 438.7911,-100.498 433.625,-100.498"/>
<text text-anchor="middle" x="409.0313" y="-88.499" font-family="Arial" font-size="10.00" fill="#ffffff">Bisbigliando</text>
<text text-anchor="middle" x="409.0313" y="-77" font-family="Arial" font-size="10.00" fill="#ffffff">Handler</text>
</a>
</g>
</g>
<!-- evans.handlers.ClefHandler -->
<g id="node5" class="node">
<title>evans.handlers.ClefHandler</title>
<g id="a_node5"><a xlink:href="../api/evans/handlers.html#evans.handlers.ClefHandler" xlink:title="Clef\nHandler" target="_top">
<path fill="#000000" stroke="#000000" stroke-width="2" d="M229.6255,-134.498C229.6255,-134.498 199.2505,-134.498 199.2505,-134.498 194.0845,-134.498 188.9185,-129.332 188.9185,-124.166 188.9185,-124.166 188.9185,-113.834 188.9185,-113.834 188.9185,-108.668 194.0845,-103.502 199.2505,-103.502 199.2505,-103.502 229.6255,-103.502 229.6255,-103.502 234.7915,-103.502 239.9575,-108.668 239.9575,-113.834 239.9575,-113.834 239.9575,-124.166 239.9575,-124.166 239.9575,-129.332 234.7915,-134.498 229.6255,-134.498"/>
<text text-anchor="middle" x="214.438" y="-122.499" font-family="Arial" font-size="10.00" fill="#ffffff">Clef</text>
<text text-anchor="middle" x="214.438" y="-111" font-family="Arial" font-size="10.00" fill="#ffffff">Handler</text>
</a>
</g>
</g>
<!-- evans.handlers.DynamicHandler -->
<g id="node6" class="node">
<title>evans.handlers.DynamicHandler</title>
<g id="a_node6"><a xlink:href="../api/evans/handlers.html#evans.handlers.DynamicHandler" xlink:title="Dynamic\nHandler" target="_top">
<path fill="#000000" stroke="#000000" stroke-width="2" d="M327.6847,-154.498C327.6847,-154.498 293.5556,-154.498 293.5556,-154.498 288.3896,-154.498 283.2235,-149.332 283.2235,-144.166 283.2235,-144.166 283.2235,-133.834 283.2235,-133.834 283.2235,-128.668 288.3896,-123.502 293.5556,-123.502 293.5556,-123.502 327.6847,-123.502 327.6847,-123.502 332.8507,-123.502 338.0167,-128.668 338.0167,-133.834 338.0167,-133.834 338.0167,-144.166 338.0167,-144.166 338.0167,-149.332 332.8507,-154.498 327.6847,-154.498"/>
<text text-anchor="middle" x="310.6201" y="-142.499" font-family="Arial" font-size="10.00" fill="#ffffff">Dynamic</text>
<text text-anchor="middle" x="310.6201" y="-131" font-family="Arial" font-size="10.00" fill="#ffffff">Handler</text>
</a>
</g>
</g>
<!-- evans.handlers.GettatoHandler -->
<g id="node7" class="node">
<title>evans.handlers.GettatoHandler</title>
<g id="a_node7"><a xlink:href="../api/evans/handlers.html#evans.handlers.GettatoHandler" xlink:title="Gettato\nHandler" target="_top">
<path fill="#000000" stroke="#000000" stroke-width="2" d="M424.2188,-188.498C424.2188,-188.498 393.8437,-188.498 393.8437,-188.498 388.6777,-188.498 383.5117,-183.332 383.5117,-178.166 383.5117,-178.166 383.5117,-167.834 383.5117,-167.834 383.5117,-162.668 388.6777,-157.502 393.8437,-157.502 393.8437,-157.502 424.2188,-157.502 424.2188,-157.502 429.3848,-157.502 434.5508,-162.668 434.5508,-167.834 434.5508,-167.834 434.5508,-178.166 434.5508,-178.166 434.5508,-183.332 429.3848,-188.498 424.2188,-188.498"/>
<text text-anchor="middle" x="409.0313" y="-176.499" font-family="Arial" font-size="10.00" fill="#ffffff">Gettato</text>
<text text-anchor="middle" x="409.0313" y="-165" font-family="Arial" font-size="10.00" fill="#ffffff">Handler</text>
</a>
</g>
</g>
<!-- evans.handlers.GlissandoHandler -->
<g id="node8" class="node">
<title>evans.handlers.GlissandoHandler</title>
<g id="a_node8"><a xlink:href="../api/evans/handlers.html#evans.handlers.GlissandoHandler" xlink:title="Glissando\nHandler" target="_top">
<path fill="#000000" stroke="#000000" stroke-width="2" d="M234.5756,-222.498C234.5756,-222.498 194.3004,-222.498 194.3004,-222.498 189.1344,-222.498 183.9684,-217.332 183.9684,-212.166 183.9684,-212.166 183.9684,-201.834 183.9684,-201.834 183.9684,-196.668 189.1344,-191.502 194.3004,-191.502 194.3004,-191.502 234.5756,-191.502 234.5756,-191.502 239.7416,-191.502 244.9076,-196.668 244.9076,-201.834 244.9076,-201.834 244.9076,-212.166 244.9076,-212.166 244.9076,-217.332 239.7416,-222.498 234.5756,-222.498"/>
<text text-anchor="middle" x="214.438" y="-210.499" font-family="Arial" font-size="10.00" fill="#ffffff">Glissando</text>
<text text-anchor="middle" x="214.438" y="-199" font-family="Arial" font-size="10.00" fill="#ffffff">Handler</text>
</a>
</g>
</g>
<!-- evans.handlers.GraceHandler -->
<g id="node9" class="node">
<title>evans.handlers.GraceHandler</title>
<g id="a_node9"><a xlink:href="../api/evans/handlers.html#evans.handlers.GraceHandler" xlink:title="Grace\nHandler" target="_top">
<path fill="#000000" stroke="#000000" stroke-width="2" d="M325.8076,-242.498C325.8076,-242.498 295.4326,-242.498 295.4326,-242.498 290.2666,-242.498 285.1006,-237.332 285.1006,-232.166 285.1006,-232.166 285.1006,-221.834 285.1006,-221.834 285.1006,-216.668 290.2666,-211.502 295.4326,-211.502 295.4326,-211.502 325.8076,-211.502 325.8076,-211.502 330.9736,-211.502 336.1397,-216.668 336.1397,-221.834 336.1397,-221.834 336.1397,-232.166 336.1397,-232.166 336.1397,-237.332 330.9736,-242.498 325.8076,-242.498"/>
<text text-anchor="middle" x="310.6201" y="-230.499" font-family="Arial" font-size="10.00" fill="#ffffff">Grace</text>
<text text-anchor="middle" x="310.6201" y="-219" font-family="Arial" font-size="10.00" fill="#ffffff">Handler</text>
</a>
</g>
</g>
<!-- evans.handlers.Handler -->
<g id="node10" class="node">
<title>evans.handlers.Handler</title>
<g id="a_node10"><a xlink:href="../api/evans/handlers.html#evans.handlers.Handler" xlink:title="Handler" target="_top">
<path fill="#000000" stroke="#000000" stroke-width="2" d="M139.0435,-251.0056C139.0435,-251.0056 101.3452,-251.0056 101.3452,-251.0056 98.01,-251.0056 94.6748,-247.6704 94.6748,-244.3352 94.6748,-244.3352 94.6748,-237.6648 94.6748,-237.6648 94.6748,-234.3296 98.01,-230.9944 101.3452,-230.9944 101.3452,-230.9944 139.0435,-230.9944 139.0435,-230.9944 142.3787,-230.9944 145.7139,-234.3296 145.7139,-237.6648 145.7139,-237.6648 145.7139,-244.3352 145.7139,-244.3352 145.7139,-247.6704 142.3787,-251.0056 139.0435,-251.0056"/>
<text text-anchor="middle" x="120.1943" y="-238.7495" font-family="Arial" font-size="10.00" fill="#ffffff">Handler</text>
</a>
</g>
</g>
<!-- evans.handlers.NoteheadHandler -->
<g id="node11" class="node">
<title>evans.handlers.NoteheadHandler</title>
<g id="a_node11"><a xlink:href="../api/evans/handlers.html#evans.handlers.NoteheadHandler" xlink:title="Notehead\nHandler" target="_top">
<path fill="#000000" stroke="#000000" stroke-width="2" d="M428.5695,-276.498C428.5695,-276.498 389.493,-276.498 389.493,-276.498 384.327,-276.498 379.161,-271.332 379.161,-266.166 379.161,-266.166 379.161,-255.834 379.161,-255.834 379.161,-250.668 384.327,-245.502 389.493,-245.502 389.493,-245.502 428.5695,-245.502 428.5695,-245.502 433.7355,-245.502 438.9015,-250.668 438.9015,-255.834 438.9015,-255.834 438.9015,-266.166 438.9015,-266.166 438.9015,-271.332 433.7355,-276.498 428.5695,-276.498"/>
<text text-anchor="middle" x="409.0313" y="-264.499" font-family="Arial" font-size="10.00" fill="#ffffff">Notehead</text>
<text text-anchor="middle" x="409.0313" y="-253" font-family="Arial" font-size="10.00" fill="#ffffff">Handler</text>
</a>
</g>
</g>
<!-- evans.handlers.PitchHandler -->
<g id="node12" class="node">
<title>evans.handlers.PitchHandler</title>
<g id="a_node12"><a xlink:href="../api/evans/handlers.html#evans.handlers.PitchHandler" xlink:title="Pitch\nHandler" target="_top">
<path fill="#000000" stroke="#000000" stroke-width="2" d="M229.6255,-310.498C229.6255,-310.498 199.2505,-310.498 199.2505,-310.498 194.0845,-310.498 188.9185,-305.332 188.9185,-300.166 188.9185,-300.166 188.9185,-289.834 188.9185,-289.834 188.9185,-284.668 194.0845,-279.502 199.2505,-279.502 199.2505,-279.502 229.6255,-279.502 229.6255,-279.502 234.7915,-279.502 239.9575,-284.668 239.9575,-289.834 239.9575,-289.834 239.9575,-300.166 239.9575,-300.166 239.9575,-305.332 234.7915,-310.498 229.6255,-310.498"/>
<text text-anchor="middle" x="214.438" y="-298.499" font-family="Arial" font-size="10.00" fill="#ffffff">Pitch</text>
<text text-anchor="middle" x="214.438" y="-287" font-family="Arial" font-size="10.00" fill="#ffffff">Handler</text>
</a>
</g>
</g>
<!-- evans.handlers.RhythmHandler -->
<g id="node13" class="node">
<title>evans.handlers.RhythmHandler</title>
<g id="a_node13"><a xlink:href="../api/evans/handlers.html#evans.handlers.RhythmHandler" xlink:title="Rhythm\nHandler" target="_top">
<path fill="#000000" stroke="#000000" stroke-width="2" d="M325.8076,-330.498C325.8076,-330.498 295.4326,-330.498 295.4326,-330.498 290.2666,-330.498 285.1006,-325.332 285.1006,-320.166 285.1006,-320.166 285.1006,-309.834 285.1006,-309.834 285.1006,-304.668 290.2666,-299.502 295.4326,-299.502 295.4326,-299.502 325.8076,-299.502 325.8076,-299.502 330.9736,-299.502 336.1397,-304.668 336.1397,-309.834 336.1397,-309.834 336.1397,-320.166 336.1397,-320.166 336.1397,-325.332 330.9736,-330.498 325.8076,-330.498"/>
<text text-anchor="middle" x="310.6201" y="-318.499" font-family="Arial" font-size="10.00" fill="#ffffff">Rhythm</text>
<text text-anchor="middle" x="310.6201" y="-307" font-family="Arial" font-size="10.00" fill="#ffffff">Handler</text>
</a>
</g>
</g>
<!-- evans.handlers.SlurHandler -->
<g id="node14" class="node">
<title>evans.handlers.SlurHandler</title>
<g id="a_node14"><a xlink:href="../api/evans/handlers.html#evans.handlers.SlurHandler" xlink:title="Slur\nHandler" target="_top">
<path fill="#000000" stroke="#000000" stroke-width="2" d="M424.2188,-364.498C424.2188,-364.498 393.8437,-364.498 393.8437,-364.498 388.6777,-364.498 383.5117,-359.332 383.5117,-354.166 383.5117,-354.166 383.5117,-343.834 383.5117,-343.834 383.5117,-338.668 388.6777,-333.502 393.8437,-333.502 393.8437,-333.502 424.2188,-333.502 424.2188,-333.502 429.3848,-333.502 434.5508,-338.668 434.5508,-343.834 434.5508,-343.834 434.5508,-354.166 434.5508,-354.166 434.5508,-359.332 429.3848,-364.498 424.2188,-364.498"/>
<text text-anchor="middle" x="409.0313" y="-352.499" font-family="Arial" font-size="10.00" fill="#ffffff">Slur</text>
<text text-anchor="middle" x="409.0313" y="-341" font-family="Arial" font-size="10.00" fill="#ffffff">Handler</text>
</a>
</g>
</g>
<!-- evans.handlers.TempoSpannerHandler -->
<g id="node15" class="node">
<title>evans.handlers.TempoSpannerHandler</title>
<g id="a_node15"><a xlink:href="../api/evans/handlers.html#evans.handlers.TempoSpannerHandler" xlink:title="Tempo\nSpanner\nHandler" target="_top">
<path fill="#000000" stroke="#000000" stroke-width="2" d="M229.2459,-410.5C229.2459,-410.5 199.63,-410.5 199.63,-410.5 193.63,-410.5 187.63,-404.5 187.63,-398.5 187.63,-398.5 187.63,-379.5 187.63,-379.5 187.63,-373.5 193.63,-367.5 199.63,-367.5 199.63,-367.5 229.2459,-367.5 229.2459,-367.5 235.2459,-367.5 241.2459,-373.5 241.2459,-379.5 241.2459,-379.5 241.2459,-398.5 241.2459,-398.5 241.2459,-404.5 235.2459,-410.5 229.2459,-410.5"/>
<text text-anchor="middle" x="214.438" y="-398.2485" font-family="Arial" font-size="10.00" fill="#ffffff">Tempo</text>
<text text-anchor="middle" x="214.438" y="-386.7495" font-family="Arial" font-size="10.00" fill="#ffffff">Spanner</text>
<text text-anchor="middle" x="214.438" y="-375.2505" font-family="Arial" font-size="10.00" fill="#ffffff">Handler</text>
</a>
</g>
</g>
<!-- evans.handlers.TextSpanHandler -->
<g id="node16" class="node">
<title>evans.handlers.TextSpanHandler</title>
<g id="a_node16"><a xlink:href="../api/evans/handlers.html#evans.handlers.TextSpanHandler" xlink:title="Text\nSpan\nHandler" target="_top">
<path fill="#000000" stroke="#000000" stroke-width="2" d="M324.1397,-430.5C324.1397,-430.5 297.1006,-430.5 297.1006,-430.5 291.1006,-430.5 285.1006,-424.5 285.1006,-418.5 285.1006,-418.5 285.1006,-399.5 285.1006,-399.5 285.1006,-393.5 291.1006,-387.5 297.1006,-387.5 297.1006,-387.5 324.1397,-387.5 324.1397,-387.5 330.1397,-387.5 336.1397,-393.5 336.1397,-399.5 336.1397,-399.5 336.1397,-418.5 336.1397,-418.5 336.1397,-424.5 330.1397,-430.5 324.1397,-430.5"/>
<text text-anchor="middle" x="310.6201" y="-418.2485" font-family="Arial" font-size="10.00" fill="#ffffff">Text</text>
<text text-anchor="middle" x="310.6201" y="-406.7495" font-family="Arial" font-size="10.00" fill="#ffffff">Span</text>
<text text-anchor="middle" x="310.6201" y="-395.2505" font-family="Arial" font-size="10.00" fill="#ffffff">Handler</text>
</a>
</g>
</g>
<!-- evans.handlers.TrillHandler -->
<g id="node17" class="node">
<title>evans.handlers.TrillHandler</title>
<g id="a_node17"><a xlink:href="../api/evans/handlers.html#evans.handlers.TrillHandler" xlink:title="Trill\nHandler" target="_top">
<path fill="#000000" stroke="#000000" stroke-width="2" d="M424.2188,-449.498C424.2188,-449.498 393.8437,-449.498 393.8437,-449.498 388.6777,-449.498 383.5117,-444.332 383.5117,-439.166 383.5117,-439.166 383.5117,-428.834 383.5117,-428.834 383.5117,-423.668 388.6777,-418.502 393.8437,-418.502 393.8437,-418.502 424.2188,-418.502 424.2188,-418.502 429.3848,-418.502 434.5508,-423.668 434.5508,-428.834 434.5508,-428.834 434.5508,-439.166 434.5508,-439.166 434.5508,-444.332 429.3848,-449.498 424.2188,-449.498"/>
<text text-anchor="middle" x="409.0313" y="-437.499" font-family="Arial" font-size="10.00" fill="#ffffff">Trill</text>
<text text-anchor="middle" x="409.0313" y="-426" font-family="Arial" font-size="10.00" fill="#ffffff">Handler</text>
</a>
</g>
</g>
</g>
</svg>
