<?xml version="1.0" encoding="UTF-8" standalone="no"?>
<!DOCTYPE svg PUBLIC "-//W3C//DTD SVG 1.1//EN"
 "http://www.w3.org/Graphics/SVG/1.1/DTD/svg11.dtd">
<!-- Generated by graphviz version 2.40.1 (20161225.0304)
 -->
<!-- Title: InheritanceGraph Pages: 1 -->
<svg width="165pt" height="79pt"
 viewBox="0.00 0.00 164.69 79.00" xmlns="http://www.w3.org/2000/svg" xmlns:xlink="http://www.w3.org/1999/xlink">
<g id="graph0" class="graph" transform="scale(1 1) rotate(0) translate(4 75)">
<title>InheritanceGraph</title>
<g id="clust1" class="cluster">
<title>cluster_builtins</title>
<path fill="transparent" stroke="#bcd2ee" stroke-width="2" stroke-dasharray="5,2" d="M20,-8C20,-8 54.6846,-8 54.6846,-8 60.6846,-8 66.6846,-14 66.6846,-20 66.6846,-20 66.6846,-51 66.6846,-51 66.6846,-57 60.6846,-63 54.6846,-63 54.6846,-63 20,-63 20,-63 14,-63 8,-57 8,-51 8,-51 8,-20 8,-20 8,-14 14,-8 20,-8"/>
<text text-anchor="middle" x="37.3423" y="-51" font-family="Arial" font-size="10.00" fill="#000000">builtins</text>
</g>
<g id="clust2" class="cluster">
<title>cluster_tsmakers</title>
<path fill="transparent" stroke="#bcd2ee" stroke-width="2" stroke-dasharray="5,2" d="M98.6846,-8C98.6846,-8 136.6895,-8 136.6895,-8 142.6895,-8 148.6895,-14 148.6895,-20 148.6895,-20 148.6895,-51 148.6895,-51 148.6895,-57 142.6895,-63 136.6895,-63 136.6895,-63 98.6846,-63 98.6846,-63 92.6846,-63 86.6846,-57 86.6846,-51 86.6846,-51 86.6846,-20 86.6846,-20 86.6846,-14 92.6846,-8 98.6846,-8"/>
<text text-anchor="middle" x="117.687" y="-51" font-family="Arial" font-size="10.00" fill="#000000">tsmakers</text>
</g>
<!-- builtins.object&#45;&gt;tsmakers.Cursor.Cursor -->
<g id="edge1" class="edge">
<title>builtins.object&#45;&gt;tsmakers.Cursor.Cursor</title>
<path fill="none" stroke="#778899" d="M58.8732,-26C66.6721,-26 75.6754,-26 84.2563,-26"/>
<polygon fill="#778899" stroke="#778899" points="84.4042,-29.5001 94.4042,-26 84.4041,-22.5001 84.4042,-29.5001"/>
</g>
<!-- builtins.object -->
<g id="node1" class="node">
<title>builtins.object</title>
<g id="a_node1"><a xlink:href="https://docs.python.org/3.7/library/functions.html#object" xlink:title="object" target="_top">
<path fill="#fbb4ae" stroke="#fbb4ae" stroke-width="2" d="M51.8576,-36.0056C51.8576,-36.0056 22.8269,-36.0056 22.8269,-36.0056 19.4918,-36.0056 16.1566,-32.6704 16.1566,-29.3352 16.1566,-29.3352 16.1566,-22.6648 16.1566,-22.6648 16.1566,-19.3296 19.4918,-15.9944 22.8269,-15.9944 22.8269,-15.9944 51.8576,-15.9944 51.8576,-15.9944 55.1928,-15.9944 58.528,-19.3296 58.528,-22.6648 58.528,-22.6648 58.528,-29.3352 58.528,-29.3352 58.528,-32.6704 55.1928,-36.0056 51.8576,-36.0056"/>
<text text-anchor="middle" x="37.3423" y="-23.7495" font-family="Arial" font-size="10.00" fill="#000000">object</text>
</a>
</g>
</g>
<!-- tsmakers.Cursor.Cursor -->
<g id="node2" class="node">
<title>tsmakers.Cursor.Cursor</title>
<g id="a_node2"><a xlink:href="../api/tsmakers/Cursor.html#tsmakers.Cursor.Cursor" xlink:title="Cursor" target="_top">
<path fill="#000000" stroke="#000000" stroke-width="2" d="M134.0215,-36.0056C134.0215,-36.0056 101.3525,-36.0056 101.3525,-36.0056 98.0173,-36.0056 94.6821,-32.6704 94.6821,-29.3352 94.6821,-29.3352 94.6821,-22.6648 94.6821,-22.6648 94.6821,-19.3296 98.0173,-15.9944 101.3525,-15.9944 101.3525,-15.9944 134.0215,-15.9944 134.0215,-15.9944 137.3567,-15.9944 140.6919,-19.3296 140.6919,-22.6648 140.6919,-22.6648 140.6919,-29.3352 140.6919,-29.3352 140.6919,-32.6704 137.3567,-36.0056 134.0215,-36.0056"/>
<text text-anchor="middle" x="117.687" y="-23.7495" font-family="Arial" font-size="10.00" fill="#ffffff">Cursor</text>
</a>
</g>
</g>
</g>
</svg>
