<?xml version="1.0" encoding="UTF-8" standalone="no"?>
<!DOCTYPE svg PUBLIC "-//W3C//DTD SVG 1.1//EN"
 "http://www.w3.org/Graphics/SVG/1.1/DTD/svg11.dtd">
<!-- Generated by graphviz version 2.40.1 (20161225.0304)
 -->
<!-- Title: InheritanceGraph Pages: 1 -->
<svg width="538pt" height="526pt"
 viewBox="0.00 0.00 537.54 526.00" xmlns="http://www.w3.org/2000/svg" xmlns:xlink="http://www.w3.org/1999/xlink">
<g id="graph0" class="graph" transform="scale(1 1) rotate(0) translate(4 522)">
<title>InheritanceGraph</title>
<g id="clust1" class="cluster">
<title>cluster_abjadext.microtones.et</title>
<path fill="transparent" stroke="#bcd2ee" stroke-width="2" stroke-dasharray="5,2" d="M98.6846,-455C98.6846,-455 190.6006,-455 190.6006,-455 196.6006,-455 202.6006,-461 202.6006,-467 202.6006,-467 202.6006,-498 202.6006,-498 202.6006,-504 196.6006,-510 190.6006,-510 190.6006,-510 98.6846,-510 98.6846,-510 92.6846,-510 86.6846,-504 86.6846,-498 86.6846,-498 86.6846,-467 86.6846,-467 86.6846,-461 92.6846,-455 98.6846,-455"/>
<text text-anchor="middle" x="144.6426" y="-498" font-family="Arial" font-size="10.00" fill="#000000">abjadext.microtones.et</text>
</g>
<g id="clust2" class="cluster">
<title>cluster_abjadext.microtones.ji</title>
<path fill="transparent" stroke="#bcd2ee" stroke-width="2" stroke-dasharray="5,2" d="M271.6006,-379C271.6006,-379 359.5166,-379 359.5166,-379 365.5166,-379 371.5166,-385 371.5166,-391 371.5166,-391 371.5166,-459 371.5166,-459 371.5166,-465 365.5166,-471 359.5166,-471 359.5166,-471 271.6006,-471 271.6006,-471 265.6006,-471 259.6006,-465 259.6006,-459 259.6006,-459 259.6006,-391 259.6006,-391 259.6006,-385 265.6006,-379 271.6006,-379"/>
<text text-anchor="middle" x="315.5586" y="-459" font-family="Arial" font-size="10.00" fill="#000000">abjadext.microtones.ji</text>
</g>
<g id="clust3" class="cluster">
<title>cluster_abjadext.microtones.utilities</title>
<path fill="transparent" stroke="#bcd2ee" stroke-width="2" stroke-dasharray="5,2" d="M403.5166,-8C403.5166,-8 517.541,-8 517.541,-8 523.541,-8 529.541,-14 529.541,-20 529.541,-20 529.541,-451 529.541,-451 529.541,-457 523.541,-463 517.541,-463 517.541,-463 403.5166,-463 403.5166,-463 397.5166,-463 391.5166,-457 391.5166,-451 391.5166,-451 391.5166,-20 391.5166,-20 391.5166,-14 397.5166,-8 403.5166,-8"/>
<text text-anchor="middle" x="460.5288" y="-451" font-family="Arial" font-size="10.00" fill="#000000">abjadext.microtones.utilities</text>
</g>
<g id="clust4" class="cluster">
<title>cluster_builtins</title>
<path fill="transparent" stroke="#bcd2ee" stroke-width="2" stroke-dasharray="5,2" d="M20,-265C20,-265 54.6846,-265 54.6846,-265 60.6846,-265 66.6846,-271 66.6846,-277 66.6846,-277 66.6846,-308 66.6846,-308 66.6846,-314 60.6846,-320 54.6846,-320 54.6846,-320 20,-320 20,-320 14,-320 8,-314 8,-308 8,-308 8,-277 8,-277 8,-271 14,-265 20,-265"/>
<text text-anchor="middle" x="37.3423" y="-308" font-family="Arial" font-size="10.00" fill="#000000">builtins</text>
</g>
<!-- builtins.object&#45;&gt;abjadext.microtones.et.ETBundle -->
<g id="edge1" class="edge">
<title>builtins.object&#45;&gt;abjadext.microtones.et.ETBundle</title>
<path fill="none" stroke="#778899" d="M39.1516,-293.0087C45.1372,-325.1598 65.1459,-425.1041 86.6846,-449 91.6975,-454.5616 98.198,-458.8669 105.0255,-462.1896"/>
<polygon fill="#778899" stroke="#778899" points="103.8541,-465.4937 114.4294,-466.1372 106.5636,-459.0393 103.8541,-465.4937"/>
</g>
<!-- builtins.object&#45;&gt;abjadext.microtones.ji.JIBundle -->
<g id="edge2" class="edge">
<title>builtins.object&#45;&gt;abjadext.microtones.ji.JIBundle</title>
<path fill="none" stroke="#778899" d="M38.196,-293.0521C40.7724,-316.5495 50.677,-375.181 86.6846,-403 141.9942,-445.7315 228.1549,-444.5808 277.3114,-439.5382"/>
<polygon fill="#778899" stroke="#778899" points="277.966,-442.9865 287.5075,-438.3811 277.1766,-436.0311 277.966,-442.9865"/>
</g>
<!-- builtins.object&#45;&gt;abjadext.microtones.ji.JIVector -->
<g id="edge3" class="edge">
<title>builtins.object&#45;&gt;abjadext.microtones.ji.JIVector</title>
<path fill="none" stroke="#778899" d="M39.5582,-292.9107C44.4068,-312.0406 57.9021,-353.8532 86.6846,-373 144.9764,-411.7771 230.7624,-408.6466 278.8896,-402.8572"/>
<polygon fill="#778899" stroke="#778899" points="279.3876,-406.322 288.8496,-401.5554 278.4803,-399.381 279.3876,-406.322"/>
</g>
<!-- builtins.object&#45;&gt;abjadext.microtones.utilities.PitchClassSegment -->
<g id="edge4" class="edge">
<title>builtins.object&#45;&gt;abjadext.microtones.utilities.PitchClassSegment</title>
<path fill="none" stroke="#778899" d="M46.1374,-292.8028C55.291,-302.3491 70.5256,-316.4863 86.6846,-324 203.2995,-378.2244 248.6559,-336.9927 371.5166,-375 380.8286,-377.8807 382.6023,-380.0569 391.5166,-384 401.6572,-388.4855 412.6596,-393.2944 422.8377,-397.7191"/>
<polygon fill="#778899" stroke="#778899" points="421.7217,-401.0501 432.2884,-401.8206 424.5085,-394.6288 421.7217,-401.0501"/>
</g>
<!-- builtins.object&#45;&gt;abjadext.microtones.utilities.PitchClassSet -->
<g id="edge5" class="edge">
<title>builtins.object&#45;&gt;abjadext.microtones.utilities.PitchClassSet</title>
<path fill="none" stroke="#778899" d="M58.654,-291.8797C67.2371,-295.1631 77.3083,-298.6526 86.6846,-301 151.8211,-317.3074 352.117,-341.4561 429.5358,-350.4527"/>
<polygon fill="#778899" stroke="#778899" points="429.2816,-353.9466 439.6176,-351.6193 430.0862,-346.993 429.2816,-353.9466"/>
</g>
<!-- builtins.object&#45;&gt;abjadext.microtones.utilities.PitchSegment -->
<g id="edge6" class="edge">
<title>builtins.object&#45;&gt;abjadext.microtones.utilities.PitchSegment</title>
<path fill="none" stroke="#778899" d="M58.6182,-283.8044C126.0339,-286.3533 335.5687,-294.2755 422.321,-297.5554"/>
<polygon fill="#778899" stroke="#778899" points="422.3909,-301.0605 432.5161,-297.9409 422.6555,-294.0655 422.3909,-301.0605"/>
</g>
<!-- builtins.object&#45;&gt;abjadext.microtones.utilities.PitchSet -->
<g id="edge7" class="edge">
<title>builtins.object&#45;&gt;abjadext.microtones.utilities.PitchSet</title>
<path fill="none" stroke="#778899" d="M58.6182,-281.3409C128.2522,-275.9109 349.5122,-258.657 430.4766,-252.3435"/>
<polygon fill="#778899" stroke="#778899" points="431.2419,-255.7945 440.9395,-251.5276 430.6977,-248.8157 431.2419,-255.7945"/>
</g>
<!-- builtins.object&#45;&gt;abjadext.microtones.utilities.RatioClassSegment -->
<g id="edge8" class="edge">
<title>builtins.object&#45;&gt;abjadext.microtones.utilities.RatioClassSegment</title>
<path fill="none" stroke="#778899" d="M58.7511,-274.8707C67.3476,-271.8052 77.4026,-268.4666 86.6846,-266 207.2893,-233.9502 353.4529,-210.5415 421.7938,-200.4714"/>
<polygon fill="#778899" stroke="#778899" points="422.6883,-203.878 432.078,-198.9705 421.6774,-196.9514 422.6883,-203.878"/>
</g>
<!-- builtins.object&#45;&gt;abjadext.microtones.utilities.RatioClassSet -->
<g id="edge9" class="edge">
<title>builtins.object&#45;&gt;abjadext.microtones.utilities.RatioClassSet</title>
<path fill="none" stroke="#778899" d="M44.9534,-273.0061C53.808,-262.0711 69.4337,-244.797 86.6846,-235 202.3467,-169.3142 362.7005,-145.4175 429.4464,-137.9595"/>
<polygon fill="#778899" stroke="#778899" points="430.1287,-141.4066 439.6995,-136.8624 429.3838,-134.4463 430.1287,-141.4066"/>
</g>
<!-- builtins.object&#45;&gt;abjadext.microtones.utilities.RatioSegment -->
<g id="edge10" class="edge">
<title>builtins.object&#45;&gt;abjadext.microtones.utilities.RatioSegment</title>
<path fill="none" stroke="#778899" d="M39.2423,-273.1843C43.712,-252.8007 56.8472,-205.7289 86.6846,-181 186.5919,-98.1979 348.3524,-82.8404 421.9099,-80.296"/>
<polygon fill="#778899" stroke="#778899" points="422.208,-83.7891 432.1048,-80.0071 422.0096,-76.7919 422.208,-83.7891"/>
</g>
<!-- builtins.object&#45;&gt;abjadext.microtones.utilities.RatioSet -->
<g id="edge11" class="edge">
<title>builtins.object&#45;&gt;abjadext.microtones.utilities.RatioSet</title>
<path fill="none" stroke="#778899" d="M38.8991,-273.1724C44.2447,-240.6552 62.8426,-137.3483 86.6846,-115 184.5812,-23.2362 360.2999,-23.929 430.4277,-28.35"/>
<polygon fill="#778899" stroke="#778899" points="430.5266,-31.8656 440.7481,-29.078 431.0192,-24.883 430.5266,-31.8656"/>
</g>
<!-- abjadext.microtones.et.ETBundle -->
<g id="node1" class="node">
<title>abjadext.microtones.et.ETBundle</title>
<g id="a_node1"><a xlink:href="../api/abjadext/microtones/et.html#abjadext.microtones.et.ETBundle" xlink:title="ETBundle" target="_top">
<path fill="#fbb4ae" stroke="#fbb4ae" stroke-width="2" d="M167.8883,-483.0056C167.8883,-483.0056 121.3969,-483.0056 121.3969,-483.0056 118.0617,-483.0056 114.7265,-479.6704 114.7265,-476.3352 114.7265,-476.3352 114.7265,-469.6648 114.7265,-469.6648 114.7265,-466.3296 118.0617,-462.9944 121.3969,-462.9944 121.3969,-462.9944 167.8883,-462.9944 167.8883,-462.9944 171.2235,-462.9944 174.5587,-466.3296 174.5587,-469.6648 174.5587,-469.6648 174.5587,-476.3352 174.5587,-476.3352 174.5587,-479.6704 171.2235,-483.0056 167.8883,-483.0056"/>
<text text-anchor="middle" x="144.6426" y="-470.7495" font-family="Arial" font-size="10.00" fill="#000000">ETBundle</text>
</a>
</g>
</g>
<!-- abjadext.microtones.ji.JIBundle -->
<g id="node2" class="node">
<title>abjadext.microtones.ji.JIBundle</title>
<g id="a_node2"><a xlink:href="../api/abjadext/microtones/ji.html#abjadext.microtones.ji.JIBundle" xlink:title="JIBundle" target="_top">
<path fill="#b3cde3" stroke="#b3cde3" stroke-width="2" d="M335.8043,-444.0056C335.8043,-444.0056 294.3129,-444.0056 294.3129,-444.0056 290.9777,-444.0056 287.6425,-440.6704 287.6425,-437.3352 287.6425,-437.3352 287.6425,-430.6648 287.6425,-430.6648 287.6425,-427.3296 290.9777,-423.9944 294.3129,-423.9944 294.3129,-423.9944 335.8043,-423.9944 335.8043,-423.9944 339.1395,-423.9944 342.4747,-427.3296 342.4747,-430.6648 342.4747,-430.6648 342.4747,-437.3352 342.4747,-437.3352 342.4747,-440.6704 339.1395,-444.0056 335.8043,-444.0056"/>
<text text-anchor="middle" x="315.0586" y="-431.7495" font-family="Arial" font-size="10.00" fill="#000000">JIBundle</text>
</a>
</g>
</g>
<!-- abjadext.microtones.ji.JIVector -->
<g id="node3" class="node">
<title>abjadext.microtones.ji.JIVector</title>
<g id="a_node3"><a xlink:href="../api/abjadext/microtones/ji.html#abjadext.microtones.ji.JIVector" xlink:title="JIVector" target="_top">
<path fill="#b3cde3" stroke="#b3cde3" stroke-width="2" d="M334.5163,-407.0056C334.5163,-407.0056 295.6009,-407.0056 295.6009,-407.0056 292.2657,-407.0056 288.9305,-403.6704 288.9305,-400.3352 288.9305,-400.3352 288.9305,-393.6648 288.9305,-393.6648 288.9305,-390.3296 292.2657,-386.9944 295.6009,-386.9944 295.6009,-386.9944 334.5163,-386.9944 334.5163,-386.9944 337.8515,-386.9944 341.1867,-390.3296 341.1867,-393.6648 341.1867,-393.6648 341.1867,-400.3352 341.1867,-400.3352 341.1867,-403.6704 337.8515,-407.0056 334.5163,-407.0056"/>
<text text-anchor="middle" x="315.0586" y="-394.7495" font-family="Arial" font-size="10.00" fill="#000000">JIVector</text>
</a>
</g>
</g>
<!-- abjadext.microtones.utilities.PitchClassSegment -->
<g id="node4" class="node">
<title>abjadext.microtones.utilities.PitchClassSegment</title>
<g id="a_node4"><a xlink:href="../api/abjadext/microtones/utilities.html#abjadext.microtones.utilities.PitchClassSegment" xlink:title="Pitch\nClass\nSegment" target="_top">
<path fill="#ccebc5" stroke="#ccebc5" stroke-width="2" d="M476.5532,-435.5C476.5532,-435.5 444.5044,-435.5 444.5044,-435.5 438.5044,-435.5 432.5044,-429.5 432.5044,-423.5 432.5044,-423.5 432.5044,-404.5 432.5044,-404.5 432.5044,-398.5 438.5044,-392.5 444.5044,-392.5 444.5044,-392.5 476.5532,-392.5 476.5532,-392.5 482.5532,-392.5 488.5532,-398.5 488.5532,-404.5 488.5532,-404.5 488.5532,-423.5 488.5532,-423.5 488.5532,-429.5 482.5532,-435.5 476.5532,-435.5"/>
<text text-anchor="middle" x="460.5288" y="-423.2485" font-family="Arial" font-size="10.00" fill="#000000">Pitch</text>
<text text-anchor="middle" x="460.5288" y="-411.7495" font-family="Arial" font-size="10.00" fill="#000000">Class</text>
<text text-anchor="middle" x="460.5288" y="-400.2505" font-family="Arial" font-size="10.00" fill="#000000">Segment</text>
</a>
</g>
</g>
<!-- abjadext.microtones.utilities.PitchClassSet -->
<g id="node5" class="node">
<title>abjadext.microtones.utilities.PitchClassSet</title>
<g id="a_node5"><a xlink:href="../api/abjadext/microtones/utilities.html#abjadext.microtones.utilities.PitchClassSet" xlink:title="Pitch\nClass\nSet" target="_top">
<path fill="#ccebc5" stroke="#ccebc5" stroke-width="2" d="M469.0337,-375.5C469.0337,-375.5 452.0239,-375.5 452.0239,-375.5 446.0239,-375.5 440.0239,-369.5 440.0239,-363.5 440.0239,-363.5 440.0239,-344.5 440.0239,-344.5 440.0239,-338.5 446.0239,-332.5 452.0239,-332.5 452.0239,-332.5 469.0337,-332.5 469.0337,-332.5 475.0337,-332.5 481.0337,-338.5 481.0337,-344.5 481.0337,-344.5 481.0337,-363.5 481.0337,-363.5 481.0337,-369.5 475.0337,-375.5 469.0337,-375.5"/>
<text text-anchor="middle" x="460.5288" y="-363.2485" font-family="Arial" font-size="10.00" fill="#000000">Pitch</text>
<text text-anchor="middle" x="460.5288" y="-351.7495" font-family="Arial" font-size="10.00" fill="#000000">Class</text>
<text text-anchor="middle" x="460.5288" y="-340.2505" font-family="Arial" font-size="10.00" fill="#000000">Set</text>
</a>
</g>
</g>
<!-- abjadext.microtones.utilities.PitchSegment -->
<g id="node6" class="node">
<title>abjadext.microtones.utilities.PitchSegment</title>
<g id="a_node6"><a xlink:href="../api/abjadext/microtones/utilities.html#abjadext.microtones.utilities.PitchSegment" xlink:title="Pitch\nSegment" target="_top">
<path fill="#ccebc5" stroke="#ccebc5" stroke-width="2" d="M478.2212,-314.498C478.2212,-314.498 442.8364,-314.498 442.8364,-314.498 437.6704,-314.498 432.5044,-309.332 432.5044,-304.166 432.5044,-304.166 432.5044,-293.834 432.5044,-293.834 432.5044,-288.668 437.6704,-283.502 442.8364,-283.502 442.8364,-283.502 478.2212,-283.502 478.2212,-283.502 483.3872,-283.502 488.5532,-288.668 488.5532,-293.834 488.5532,-293.834 488.5532,-304.166 488.5532,-304.166 488.5532,-309.332 483.3872,-314.498 478.2212,-314.498"/>
<text text-anchor="middle" x="460.5288" y="-302.499" font-family="Arial" font-size="10.00" fill="#000000">Pitch</text>
<text text-anchor="middle" x="460.5288" y="-291" font-family="Arial" font-size="10.00" fill="#000000">Segment</text>
</a>
</g>
</g>
<!-- abjadext.microtones.utilities.PitchSet -->
<g id="node7" class="node">
<title>abjadext.microtones.utilities.PitchSet</title>
<g id="a_node7"><a xlink:href="../api/abjadext/microtones/utilities.html#abjadext.microtones.utilities.PitchSet" xlink:title="Pitch\nSet" target="_top">
<path fill="#ccebc5" stroke="#ccebc5" stroke-width="2" d="M469.4289,-265.498C469.4289,-265.498 451.6287,-265.498 451.6287,-265.498 446.4627,-265.498 441.2967,-260.332 441.2967,-255.166 441.2967,-255.166 441.2967,-244.834 441.2967,-244.834 441.2967,-239.668 446.4627,-234.502 451.6287,-234.502 451.6287,-234.502 469.4289,-234.502 469.4289,-234.502 474.5949,-234.502 479.761,-239.668 479.761,-244.834 479.761,-244.834 479.761,-255.166 479.761,-255.166 479.761,-260.332 474.5949,-265.498 469.4289,-265.498"/>
<text text-anchor="middle" x="460.5288" y="-253.499" font-family="Arial" font-size="10.00" fill="#000000">Pitch</text>
<text text-anchor="middle" x="460.5288" y="-242" font-family="Arial" font-size="10.00" fill="#000000">Set</text>
</a>
</g>
</g>
<!-- abjadext.microtones.utilities.RatioClassSegment -->
<g id="node8" class="node">
<title>abjadext.microtones.utilities.RatioClassSegment</title>
<g id="a_node8"><a xlink:href="../api/abjadext/microtones/utilities.html#abjadext.microtones.utilities.RatioClassSegment" xlink:title="Ratio\nClass\nSegment" target="_top">
<path fill="#ccebc5" stroke="#ccebc5" stroke-width="2" d="M476.5532,-216.5C476.5532,-216.5 444.5044,-216.5 444.5044,-216.5 438.5044,-216.5 432.5044,-210.5 432.5044,-204.5 432.5044,-204.5 432.5044,-185.5 432.5044,-185.5 432.5044,-179.5 438.5044,-173.5 444.5044,-173.5 444.5044,-173.5 476.5532,-173.5 476.5532,-173.5 482.5532,-173.5 488.5532,-179.5 488.5532,-185.5 488.5532,-185.5 488.5532,-204.5 488.5532,-204.5 488.5532,-210.5 482.5532,-216.5 476.5532,-216.5"/>
<text text-anchor="middle" x="460.5288" y="-204.2485" font-family="Arial" font-size="10.00" fill="#000000">Ratio</text>
<text text-anchor="middle" x="460.5288" y="-192.7495" font-family="Arial" font-size="10.00" fill="#000000">Class</text>
<text text-anchor="middle" x="460.5288" y="-181.2505" font-family="Arial" font-size="10.00" fill="#000000">Segment</text>
</a>
</g>
</g>
<!-- abjadext.microtones.utilities.RatioClassSet -->
<g id="node9" class="node">
<title>abjadext.microtones.utilities.RatioClassSet</title>
<g id="a_node9"><a xlink:href="../api/abjadext/microtones/utilities.html#abjadext.microtones.utilities.RatioClassSet" xlink:title="Ratio\nClass\nSet" target="_top">
<path fill="#ccebc5" stroke="#ccebc5" stroke-width="2" d="M469.0337,-156.5C469.0337,-156.5 452.0239,-156.5 452.0239,-156.5 446.0239,-156.5 440.0239,-150.5 440.0239,-144.5 440.0239,-144.5 440.0239,-125.5 440.0239,-125.5 440.0239,-119.5 446.0239,-113.5 452.0239,-113.5 452.0239,-113.5 469.0337,-113.5 469.0337,-113.5 475.0337,-113.5 481.0337,-119.5 481.0337,-125.5 481.0337,-125.5 481.0337,-144.5 481.0337,-144.5 481.0337,-150.5 475.0337,-156.5 469.0337,-156.5"/>
<text text-anchor="middle" x="460.5288" y="-144.2485" font-family="Arial" font-size="10.00" fill="#000000">Ratio</text>
<text text-anchor="middle" x="460.5288" y="-132.7495" font-family="Arial" font-size="10.00" fill="#000000">Class</text>
<text text-anchor="middle" x="460.5288" y="-121.2505" font-family="Arial" font-size="10.00" fill="#000000">Set</text>
</a>
</g>
</g>
<!-- abjadext.microtones.utilities.RatioSegment -->
<g id="node10" class="node">
<title>abjadext.microtones.utilities.RatioSegment</title>
<g id="a_node10"><a xlink:href="../api/abjadext/microtones/utilities.html#abjadext.microtones.utilities.RatioSegment" xlink:title="Ratio\nSegment" target="_top">
<path fill="#ccebc5" stroke="#ccebc5" stroke-width="2" d="M478.2212,-95.498C478.2212,-95.498 442.8364,-95.498 442.8364,-95.498 437.6704,-95.498 432.5044,-90.332 432.5044,-85.166 432.5044,-85.166 432.5044,-74.834 432.5044,-74.834 432.5044,-69.668 437.6704,-64.502 442.8364,-64.502 442.8364,-64.502 478.2212,-64.502 478.2212,-64.502 483.3872,-64.502 488.5532,-69.668 488.5532,-74.834 488.5532,-74.834 488.5532,-85.166 488.5532,-85.166 488.5532,-90.332 483.3872,-95.498 478.2212,-95.498"/>
<text text-anchor="middle" x="460.5288" y="-83.499" font-family="Arial" font-size="10.00" fill="#000000">Ratio</text>
<text text-anchor="middle" x="460.5288" y="-72" font-family="Arial" font-size="10.00" fill="#000000">Segment</text>
</a>
</g>
</g>
<!-- abjadext.microtones.utilities.RatioSet -->
<g id="node11" class="node">
<title>abjadext.microtones.utilities.RatioSet</title>
<g id="a_node11"><a xlink:href="../api/abjadext/microtones/utilities.html#abjadext.microtones.utilities.RatioSet" xlink:title="Ratio\nSet" target="_top">
<path fill="#ccebc5" stroke="#ccebc5" stroke-width="2" d="M470.043,-46.498C470.043,-46.498 451.0146,-46.498 451.0146,-46.498 445.8486,-46.498 440.6826,-41.332 440.6826,-36.166 440.6826,-36.166 440.6826,-25.834 440.6826,-25.834 440.6826,-20.668 445.8486,-15.502 451.0146,-15.502 451.0146,-15.502 470.043,-15.502 470.043,-15.502 475.209,-15.502 480.3751,-20.668 480.3751,-25.834 480.3751,-25.834 480.3751,-36.166 480.3751,-36.166 480.3751,-41.332 475.209,-46.498 470.043,-46.498"/>
<text text-anchor="middle" x="460.5288" y="-34.499" font-family="Arial" font-size="10.00" fill="#000000">Ratio</text>
<text text-anchor="middle" x="460.5288" y="-23" font-family="Arial" font-size="10.00" fill="#000000">Set</text>
</a>
</g>
</g>
<!-- builtins.object -->
<g id="node12" class="node">
<title>builtins.object</title>
<g id="a_node12"><a xlink:href="https://docs.python.org/3.7/library/functions.html#object" xlink:title="object" target="_top">
<path fill="#decbe4" stroke="#decbe4" stroke-width="2" d="M51.8576,-293.0056C51.8576,-293.0056 22.8269,-293.0056 22.8269,-293.0056 19.4918,-293.0056 16.1566,-289.6704 16.1566,-286.3352 16.1566,-286.3352 16.1566,-279.6648 16.1566,-279.6648 16.1566,-276.3296 19.4918,-272.9944 22.8269,-272.9944 22.8269,-272.9944 51.8576,-272.9944 51.8576,-272.9944 55.1928,-272.9944 58.528,-276.3296 58.528,-279.6648 58.528,-279.6648 58.528,-286.3352 58.528,-286.3352 58.528,-289.6704 55.1928,-293.0056 51.8576,-293.0056"/>
<text text-anchor="middle" x="37.3423" y="-280.7495" font-family="Arial" font-size="10.00" fill="#000000">object</text>
</a>
</g>
</g>
</g>
</svg>
