<?xml version="1.0" encoding="UTF-8" standalone="no"?>
<!DOCTYPE svg PUBLIC "-//W3C//DTD SVG 1.1//EN"
 "http://www.w3.org/Graphics/SVG/1.1/DTD/svg11.dtd">
<!-- Generated by graphviz version 2.40.1 (20161225.0304)
 -->
<!-- Title: InheritanceGraph Pages: 1 -->
<svg width="220pt" height="139pt"
 viewBox="0.00 0.00 220.47 139.00" xmlns="http://www.w3.org/2000/svg" xmlns:xlink="http://www.w3.org/1999/xlink">
<g id="graph0" class="graph" transform="scale(1 1) rotate(0) translate(4 135)">
<title>InheritanceGraph</title>
<g id="clust1" class="cluster">
<title>cluster_builtins</title>
<path fill="transparent" stroke="#bcd2ee" stroke-width="2" stroke-dasharray="5,2" d="M20,-39C20,-39 54.6846,-39 54.6846,-39 60.6846,-39 66.6846,-45 66.6846,-51 66.6846,-51 66.6846,-82 66.6846,-82 66.6846,-88 60.6846,-94 54.6846,-94 54.6846,-94 20,-94 20,-94 14,-94 8,-88 8,-82 8,-82 8,-51 8,-51 8,-45 14,-39 20,-39"/>
<text text-anchor="middle" x="37.3423" y="-82" font-family="Arial" font-size="10.00" fill="#000000">builtins</text>
</g>
<g id="clust2" class="cluster">
<title>cluster_evans.sequence</title>
<path fill="transparent" stroke="#bcd2ee" stroke-width="2" stroke-dasharray="5,2" d="M135.6846,-8C135.6846,-8 200.4678,-8 200.4678,-8 206.4678,-8 212.4678,-14 212.4678,-20 212.4678,-20 212.4678,-111 212.4678,-111 212.4678,-117 206.4678,-123 200.4678,-123 200.4678,-123 135.6846,-123 135.6846,-123 129.6846,-123 123.6846,-117 123.6846,-111 123.6846,-111 123.6846,-20 123.6846,-20 123.6846,-14 129.6846,-8 135.6846,-8"/>
<text text-anchor="middle" x="168.0762" y="-111" font-family="Arial" font-size="10.00" fill="#000000">evans.sequence</text>
</g>
<!-- builtins.object&#45;&gt;evans.sequence.CyclicList -->
<g id="edge1" class="edge">
<title>builtins.object&#45;&gt;evans.sequence.CyclicList</title>
<path fill="none" stroke="#778899" d="M58.6379,-60.7465C79.8149,-64.4722 112.5433,-70.2301 136.6959,-74.4793"/>
<polygon fill="#778899" stroke="#778899" points="136.3344,-77.9694 146.7897,-76.2551 137.5474,-71.0752 136.3344,-77.9694"/>
</g>
<!-- builtins.object&#45;&gt;evans.sequence.MarkovChain -->
<g id="edge2" class="edge">
<title>builtins.object&#45;&gt;evans.sequence.MarkovChain</title>
<path fill="none" stroke="#778899" d="M58.6379,-52.7648C78.9325,-48.7287 109.836,-42.5827 133.6336,-37.8499"/>
<polygon fill="#778899" stroke="#778899" points="134.549,-41.2364 143.6742,-35.853 133.1835,-34.3709 134.549,-41.2364"/>
</g>
<!-- builtins.object -->
<g id="node1" class="node">
<title>builtins.object</title>
<g id="a_node1"><a xlink:href="https://docs.python.org/3.7/library/functions.html#object" xlink:title="object" target="_top">
<path fill="#fbb4ae" stroke="#fbb4ae" stroke-width="2" d="M51.8576,-67.0056C51.8576,-67.0056 22.8269,-67.0056 22.8269,-67.0056 19.4918,-67.0056 16.1566,-63.6704 16.1566,-60.3352 16.1566,-60.3352 16.1566,-53.6648 16.1566,-53.6648 16.1566,-50.3296 19.4918,-46.9944 22.8269,-46.9944 22.8269,-46.9944 51.8576,-46.9944 51.8576,-46.9944 55.1928,-46.9944 58.528,-50.3296 58.528,-53.6648 58.528,-53.6648 58.528,-60.3352 58.528,-60.3352 58.528,-63.6704 55.1928,-67.0056 51.8576,-67.0056"/>
<text text-anchor="middle" x="37.3423" y="-54.7495" font-family="Arial" font-size="10.00" fill="#000000">object</text>
</a>
</g>
</g>
<!-- evans.sequence.CyclicList -->
<g id="node2" class="node">
<title>evans.sequence.CyclicList</title>
<g id="a_node2"><a xlink:href="../api/evans/sequence.html#evans.sequence.CyclicList" xlink:title="Cyclic\nList" target="_top">
<path fill="#000000" stroke="#000000" stroke-width="2" d="M178.9105,-95.498C178.9105,-95.498 157.2419,-95.498 157.2419,-95.498 152.0758,-95.498 146.9098,-90.332 146.9098,-85.166 146.9098,-85.166 146.9098,-74.834 146.9098,-74.834 146.9098,-69.668 152.0758,-64.502 157.2419,-64.502 157.2419,-64.502 178.9105,-64.502 178.9105,-64.502 184.0765,-64.502 189.2425,-69.668 189.2425,-74.834 189.2425,-74.834 189.2425,-85.166 189.2425,-85.166 189.2425,-90.332 184.0765,-95.498 178.9105,-95.498"/>
<text text-anchor="middle" x="168.0762" y="-83.499" font-family="Arial" font-size="10.00" fill="#ffffff">Cyclic</text>
<text text-anchor="middle" x="168.0762" y="-72" font-family="Arial" font-size="10.00" fill="#ffffff">List</text>
</a>
</g>
</g>
<!-- evans.sequence.MarkovChain -->
<g id="node3" class="node">
<title>evans.sequence.MarkovChain</title>
<g id="a_node3"><a xlink:href="../api/evans/sequence.html#evans.sequence.MarkovChain" xlink:title="Markov\nChain" target="_top">
<path fill="#000000" stroke="#000000" stroke-width="2" d="M182.0278,-46.498C182.0278,-46.498 154.1245,-46.498 154.1245,-46.498 148.9585,-46.498 143.7925,-41.332 143.7925,-36.166 143.7925,-36.166 143.7925,-25.834 143.7925,-25.834 143.7925,-20.668 148.9585,-15.502 154.1245,-15.502 154.1245,-15.502 182.0278,-15.502 182.0278,-15.502 187.1938,-15.502 192.3599,-20.668 192.3599,-25.834 192.3599,-25.834 192.3599,-36.166 192.3599,-36.166 192.3599,-41.332 187.1938,-46.498 182.0278,-46.498"/>
<text text-anchor="middle" x="168.0762" y="-34.499" font-family="Arial" font-size="10.00" fill="#ffffff">Markov</text>
<text text-anchor="middle" x="168.0762" y="-23" font-family="Arial" font-size="10.00" fill="#ffffff">Chain</text>
</a>
</g>
</g>
</g>
</svg>
