<?xml version="1.0" encoding="UTF-8" standalone="no"?>
<!DOCTYPE svg PUBLIC "-//W3C//DTD SVG 1.1//EN"
 "http://www.w3.org/Graphics/SVG/1.1/DTD/svg11.dtd">
<!-- Generated by graphviz version 2.40.1 (20161225.0304)
 -->
<!-- Title: InheritanceGraph Pages: 1 -->
<svg width="180pt" height="102pt"
 viewBox="0.00 0.00 179.72 102.00" xmlns="http://www.w3.org/2000/svg" xmlns:xlink="http://www.w3.org/1999/xlink">
<g id="graph0" class="graph" transform="scale(1 1) rotate(0) translate(4 98)">
<title>InheritanceGraph</title>
<g id="clust1" class="cluster">
<title>cluster_builtins</title>
<path fill="transparent" stroke="#bcd2ee" stroke-width="2" stroke-dasharray="5,2" d="M20,-19C20,-19 54.6846,-19 54.6846,-19 60.6846,-19 66.6846,-25 66.6846,-31 66.6846,-31 66.6846,-62 66.6846,-62 66.6846,-68 60.6846,-74 54.6846,-74 54.6846,-74 20,-74 20,-74 14,-74 8,-68 8,-62 8,-62 8,-31 8,-31 8,-25 14,-19 20,-19"/>
<text text-anchor="middle" x="37.3423" y="-62" font-family="Arial" font-size="10.00" fill="#000000">builtins</text>
</g>
<g id="clust2" class="cluster">
<title>cluster_tsmakers</title>
<path fill="transparent" stroke="#bcd2ee" stroke-width="2" stroke-dasharray="5,2" d="M98.6846,-8C98.6846,-8 151.7236,-8 151.7236,-8 157.7236,-8 163.7236,-14 163.7236,-20 163.7236,-20 163.7236,-74 163.7236,-74 163.7236,-80 157.7236,-86 151.7236,-86 151.7236,-86 98.6846,-86 98.6846,-86 92.6846,-86 86.6846,-80 86.6846,-74 86.6846,-74 86.6846,-20 86.6846,-20 86.6846,-14 92.6846,-8 98.6846,-8"/>
<text text-anchor="middle" x="125.2041" y="-74" font-family="Arial" font-size="10.00" fill="#000000">tsmakers</text>
</g>
<!-- builtins.object&#45;&gt;tsmakers.MusicSpecifierSequence.MusicSpecifierSequence -->
<g id="edge1" class="edge">
<title>builtins.object&#45;&gt;tsmakers.MusicSpecifierSequence.MusicSpecifierSequence</title>
<path fill="none" stroke="#778899" d="M58.6112,-37C66.3499,-37 75.3805,-37 84.2487,-37"/>
<polygon fill="#778899" stroke="#778899" points="84.4975,-40.5001 94.4974,-37 84.4974,-33.5001 84.4975,-40.5001"/>
</g>
<!-- builtins.object -->
<g id="node1" class="node">
<title>builtins.object</title>
<g id="a_node1"><a xlink:href="https://docs.python.org/3.7/library/functions.html#object" xlink:title="object" target="_top">
<path fill="#fbb4ae" stroke="#fbb4ae" stroke-width="2" d="M51.8576,-47.0056C51.8576,-47.0056 22.8269,-47.0056 22.8269,-47.0056 19.4918,-47.0056 16.1566,-43.6704 16.1566,-40.3352 16.1566,-40.3352 16.1566,-33.6648 16.1566,-33.6648 16.1566,-30.3296 19.4918,-26.9944 22.8269,-26.9944 22.8269,-26.9944 51.8576,-26.9944 51.8576,-26.9944 55.1928,-26.9944 58.528,-30.3296 58.528,-33.6648 58.528,-33.6648 58.528,-40.3352 58.528,-40.3352 58.528,-43.6704 55.1928,-47.0056 51.8576,-47.0056"/>
<text text-anchor="middle" x="37.3423" y="-34.7495" font-family="Arial" font-size="10.00" fill="#000000">object</text>
</a>
</g>
</g>
<!-- tsmakers.MusicSpecifierSequence.MusicSpecifierSequence -->
<g id="node2" class="node">
<title>tsmakers.MusicSpecifierSequence.MusicSpecifierSequence</title>
<g id="a_node2"><a xlink:href="../api/tsmakers/MusicSpecifierSequence.html#tsmakers.MusicSpecifierSequence.MusicSpecifierSequence" xlink:title="Music\nSpecifier\nSequence" target="_top">
<path fill="#000000" stroke="#000000" stroke-width="2" d="M143.7432,-58.5C143.7432,-58.5 106.665,-58.5 106.665,-58.5 100.665,-58.5 94.665,-52.5 94.665,-46.5 94.665,-46.5 94.665,-27.5 94.665,-27.5 94.665,-21.5 100.665,-15.5 106.665,-15.5 106.665,-15.5 143.7432,-15.5 143.7432,-15.5 149.7432,-15.5 155.7432,-21.5 155.7432,-27.5 155.7432,-27.5 155.7432,-46.5 155.7432,-46.5 155.7432,-52.5 149.7432,-58.5 143.7432,-58.5"/>
<text text-anchor="middle" x="125.2041" y="-46.2485" font-family="Arial" font-size="10.00" fill="#ffffff">Music</text>
<text text-anchor="middle" x="125.2041" y="-34.7495" font-family="Arial" font-size="10.00" fill="#ffffff">Specifier</text>
<text text-anchor="middle" x="125.2041" y="-23.2505" font-family="Arial" font-size="10.00" fill="#ffffff">Sequence</text>
</a>
</g>
</g>
</g>
</svg>
