<?xml version="1.0" encoding="UTF-8" standalone="no"?>
<!DOCTYPE svg PUBLIC "-//W3C//DTD SVG 1.1//EN"
 "http://www.w3.org/Graphics/SVG/1.1/DTD/svg11.dtd">
<!-- Generated by graphviz version 2.40.1 (20161225.0304)
 -->
<!-- Title: InheritanceGraph Pages: 1 -->
<svg width="331pt" height="143pt"
 viewBox="0.00 0.00 331.40 143.00" xmlns="http://www.w3.org/2000/svg" xmlns:xlink="http://www.w3.org/1999/xlink">
<g id="graph0" class="graph" transform="scale(1 1) rotate(0) translate(4 139)">
<title>InheritanceGraph</title>
<g id="clust1" class="cluster">
<title>cluster_abjadext.rmakers.makers</title>
<path fill="transparent" stroke="#bcd2ee" stroke-width="2" stroke-dasharray="5,2" d="M98.6846,-61C98.6846,-61 202.1377,-61 202.1377,-61 208.1377,-61 214.1377,-67 214.1377,-73 214.1377,-73 214.1377,-115 214.1377,-115 214.1377,-121 208.1377,-127 202.1377,-127 202.1377,-127 98.6846,-127 98.6846,-127 92.6846,-127 86.6846,-121 86.6846,-115 86.6846,-115 86.6846,-73 86.6846,-73 86.6846,-67 92.6846,-61 98.6846,-61"/>
<text text-anchor="middle" x="150.4111" y="-115" font-family="Arial" font-size="10.00" fill="#000000">abjadext.rmakers.makers</text>
</g>
<g id="clust2" class="cluster">
<title>cluster_builtins</title>
<path fill="transparent" stroke="#bcd2ee" stroke-width="2" stroke-dasharray="5,2" d="M20,-43C20,-43 54.6846,-43 54.6846,-43 60.6846,-43 66.6846,-49 66.6846,-55 66.6846,-55 66.6846,-86 66.6846,-86 66.6846,-92 60.6846,-98 54.6846,-98 54.6846,-98 20,-98 20,-98 14,-98 8,-92 8,-86 8,-86 8,-55 8,-55 8,-49 14,-43 20,-43"/>
<text text-anchor="middle" x="37.3423" y="-86" font-family="Arial" font-size="10.00" fill="#000000">builtins</text>
</g>
<g id="clust3" class="cluster">
<title>cluster_evans.rtm</title>
<path fill="transparent" stroke="#bcd2ee" stroke-width="2" stroke-dasharray="5,2" d="M246.1377,-8C246.1377,-8 303.4004,-8 303.4004,-8 309.4004,-8 315.4004,-14 315.4004,-20 315.4004,-20 315.4004,-111 315.4004,-111 315.4004,-117 309.4004,-123 303.4004,-123 303.4004,-123 246.1377,-123 246.1377,-123 240.1377,-123 234.1377,-117 234.1377,-111 234.1377,-111 234.1377,-20 234.1377,-20 234.1377,-14 240.1377,-8 246.1377,-8"/>
<text text-anchor="middle" x="274.769" y="-111" font-family="Arial" font-size="10.00" fill="#000000">evans.rtm</text>
</g>
<!-- abjadext.rmakers.makers.RhythmMaker&#45;&gt;evans.rtm.RTMMaker -->
<g id="edge1" class="edge">
<title>abjadext.rmakers.makers.RhythmMaker&#45;&gt;evans.rtm.RTMMaker</title>
<path fill="none" stroke="#778899" d="M175.178,-84.4047C191.4113,-84.6648 212.9155,-85.0092 231.7862,-85.3115"/>
<polygon fill="#778899" stroke="#778899" points="231.894,-88.8136 241.9488,-85.4743 232.0062,-81.8145 231.894,-88.8136"/>
</g>
<!-- builtins.object&#45;&gt;abjadext.rmakers.makers.RhythmMaker -->
<g id="edge2" class="edge">
<title>builtins.object&#45;&gt;abjadext.rmakers.makers.RhythmMaker</title>
<path fill="none" stroke="#778899" d="M58.7806,-65.3803C74.5314,-68.5985 96.2846,-73.0431 114.5876,-76.7827"/>
<polygon fill="#778899" stroke="#778899" points="114.1185,-80.2591 124.6167,-78.8319 115.5198,-73.4008 114.1185,-80.2591"/>
</g>
<!-- builtins.object&#45;&gt;evans.rtm.RhythmTreeQuantizer -->
<g id="edge3" class="edge">
<title>builtins.object&#45;&gt;evans.rtm.RhythmTreeQuantizer</title>
<path fill="none" stroke="#778899" d="M58.8311,-58.8278C98.5816,-54.8097 184.1506,-46.1601 234.8243,-41.0378"/>
<polygon fill="#778899" stroke="#778899" points="235.4815,-44.4893 245.0788,-40.0012 234.7774,-37.5248 235.4815,-44.4893"/>
</g>
<!-- abjadext.rmakers.makers.RhythmMaker -->
<g id="node1" class="node">
<title>abjadext.rmakers.makers.RhythmMaker</title>
<path fill="#fbb4ae" stroke="#fbb4ae" stroke-width="2" d="M165.0343,-99.498C165.0343,-99.498 134.788,-99.498 134.788,-99.498 129.622,-99.498 124.456,-94.332 124.456,-89.166 124.456,-89.166 124.456,-78.834 124.456,-78.834 124.456,-73.668 129.622,-68.502 134.788,-68.502 134.788,-68.502 165.0343,-68.502 165.0343,-68.502 170.2003,-68.502 175.3663,-73.668 175.3663,-78.834 175.3663,-78.834 175.3663,-89.166 175.3663,-89.166 175.3663,-94.332 170.2003,-99.498 165.0343,-99.498"/>
<text text-anchor="middle" x="149.9111" y="-87.499" font-family="Arial" font-size="10.00" fill="#000000">Rhythm</text>
<text text-anchor="middle" x="149.9111" y="-76" font-family="Arial" font-size="10.00" fill="#000000">Maker</text>
</g>
<!-- builtins.object -->
<g id="node2" class="node">
<title>builtins.object</title>
<g id="a_node2"><a xlink:href="https://docs.python.org/3.7/library/functions.html#object" xlink:title="object" target="_top">
<path fill="#b3cde3" stroke="#b3cde3" stroke-width="2" d="M51.8576,-71.0056C51.8576,-71.0056 22.8269,-71.0056 22.8269,-71.0056 19.4918,-71.0056 16.1566,-67.6704 16.1566,-64.3352 16.1566,-64.3352 16.1566,-57.6648 16.1566,-57.6648 16.1566,-54.3296 19.4918,-50.9944 22.8269,-50.9944 22.8269,-50.9944 51.8576,-50.9944 51.8576,-50.9944 55.1928,-50.9944 58.528,-54.3296 58.528,-57.6648 58.528,-57.6648 58.528,-64.3352 58.528,-64.3352 58.528,-67.6704 55.1928,-71.0056 51.8576,-71.0056"/>
<text text-anchor="middle" x="37.3423" y="-58.7495" font-family="Arial" font-size="10.00" fill="#000000">object</text>
</a>
</g>
</g>
<!-- evans.rtm.RTMMaker -->
<g id="node3" class="node">
<title>evans.rtm.RTMMaker</title>
<g id="a_node3"><a xlink:href="../api/evans/rtm.html#evans.rtm.RTMMaker" xlink:title="RTMMaker" target="_top">
<path fill="#000000" stroke="#000000" stroke-width="2" d="M300.8619,-96.0056C300.8619,-96.0056 248.6762,-96.0056 248.6762,-96.0056 245.341,-96.0056 242.0058,-92.6704 242.0058,-89.3352 242.0058,-89.3352 242.0058,-82.6648 242.0058,-82.6648 242.0058,-79.3296 245.341,-75.9944 248.6762,-75.9944 248.6762,-75.9944 300.8619,-75.9944 300.8619,-75.9944 304.1971,-75.9944 307.5323,-79.3296 307.5323,-82.6648 307.5323,-82.6648 307.5323,-89.3352 307.5323,-89.3352 307.5323,-92.6704 304.1971,-96.0056 300.8619,-96.0056"/>
<text text-anchor="middle" x="274.769" y="-83.7495" font-family="Arial" font-size="10.00" fill="#ffffff">RTMMaker</text>
</a>
</g>
</g>
<!-- evans.rtm.RhythmTreeQuantizer -->
<g id="node4" class="node">
<title>evans.rtm.RhythmTreeQuantizer</title>
<g id="a_node4"><a xlink:href="../api/evans/rtm.html#evans.rtm.RhythmTreeQuantizer" xlink:title="Rhythm\nTree\nQuantizer" target="_top">
<path fill="#000000" stroke="#000000" stroke-width="2" d="M292.6246,-58.5C292.6246,-58.5 256.9135,-58.5 256.9135,-58.5 250.9135,-58.5 244.9135,-52.5 244.9135,-46.5 244.9135,-46.5 244.9135,-27.5 244.9135,-27.5 244.9135,-21.5 250.9135,-15.5 256.9135,-15.5 256.9135,-15.5 292.6246,-15.5 292.6246,-15.5 298.6246,-15.5 304.6246,-21.5 304.6246,-27.5 304.6246,-27.5 304.6246,-46.5 304.6246,-46.5 304.6246,-52.5 298.6246,-58.5 292.6246,-58.5"/>
<text text-anchor="middle" x="274.769" y="-46.2485" font-family="Arial" font-size="10.00" fill="#ffffff">Rhythm</text>
<text text-anchor="middle" x="274.769" y="-34.7495" font-family="Arial" font-size="10.00" fill="#ffffff">Tree</text>
<text text-anchor="middle" x="274.769" y="-23.2505" font-family="Arial" font-size="10.00" fill="#ffffff">Quantizer</text>
</a>
</g>
</g>
</g>
</svg>
