<?xml version="1.0" encoding="UTF-8" standalone="no"?>
<!DOCTYPE svg PUBLIC "-//W3C//DTD SVG 1.1//EN"
 "http://www.w3.org/Graphics/SVG/1.1/DTD/svg11.dtd">
<!-- Generated by graphviz version 2.40.1 (20161225.0304)
 -->
<!-- Title: InheritanceGraph Pages: 1 -->
<svg width="681pt" height="472pt"
 viewBox="0.00 0.00 681.42 472.00" xmlns="http://www.w3.org/2000/svg" xmlns:xlink="http://www.w3.org/1999/xlink">
<g id="graph0" class="graph" transform="scale(1 1) rotate(0) translate(4 468)">
<title>InheritanceGraph</title>
<g id="clust1" class="cluster">
<title>cluster_tsmakers.tree</title>
<path fill="transparent" stroke="#bcd2ee" stroke-width="2" stroke-dasharray="5,2" d="M202.2197,-329C202.2197,-329 254.7549,-329 254.7549,-329 260.7549,-329 266.7549,-335 266.7549,-341 266.7549,-341 266.7549,-444 266.7549,-444 266.7549,-450 260.7549,-456 254.7549,-456 254.7549,-456 202.2197,-456 202.2197,-456 196.2197,-456 190.2197,-450 190.2197,-444 190.2197,-444 190.2197,-341 190.2197,-341 190.2197,-335 196.2197,-329 202.2197,-329"/>
<text text-anchor="middle" x="228.4873" y="-444" font-family="Arial" font-size="10.00" fill="#000000">tsmakers.tree</text>
</g>
<g id="clust2" class="cluster">
<title>cluster_abjad.timespan</title>
<path fill="transparent" stroke="#bcd2ee" stroke-width="2" stroke-dasharray="5,2" d="M98.6846,-253C98.6846,-253 158.2197,-253 158.2197,-253 164.2197,-253 170.2197,-259 170.2197,-265 170.2197,-265 170.2197,-296 170.2197,-296 170.2197,-302 164.2197,-308 158.2197,-308 158.2197,-308 98.6846,-308 98.6846,-308 92.6846,-308 86.6846,-302 86.6846,-296 86.6846,-296 86.6846,-265 86.6846,-265 86.6846,-259 92.6846,-253 98.6846,-253"/>
<text text-anchor="middle" x="128.4521" y="-296" font-family="Arial" font-size="10.00" fill="#000000">abjad.timespan</text>
</g>
<g id="clust3" class="cluster">
<title>cluster_builtins</title>
<path fill="transparent" stroke="#bcd2ee" stroke-width="2" stroke-dasharray="5,2" d="M20,-196C20,-196 54.6846,-196 54.6846,-196 60.6846,-196 66.6846,-202 66.6846,-208 66.6846,-208 66.6846,-239 66.6846,-239 66.6846,-245 60.6846,-251 54.6846,-251 54.6846,-251 20,-251 20,-251 14,-251 8,-245 8,-239 8,-239 8,-208 8,-208 8,-202 14,-196 20,-196"/>
<text text-anchor="middle" x="37.3423" y="-239" font-family="Arial" font-size="10.00" fill="#000000">builtins</text>
</g>
<g id="clust4" class="cluster">
<title>cluster_tsmakers</title>
<path fill="transparent" stroke="#bcd2ee" stroke-width="2" stroke-dasharray="5,2" d="M298.7549,-8C298.7549,-8 653.4189,-8 653.4189,-8 659.4189,-8 665.4189,-14 665.4189,-20 665.4189,-20 665.4189,-367 665.4189,-367 665.4189,-373 659.4189,-379 653.4189,-379 653.4189,-379 298.7549,-379 298.7549,-379 292.7549,-379 286.7549,-373 286.7549,-367 286.7549,-367 286.7549,-20 286.7549,-20 286.7549,-14 292.7549,-8 298.7549,-8"/>
<text text-anchor="middle" x="476.0869" y="-367" font-family="Arial" font-size="10.00" fill="#000000">tsmakers</text>
</g>
<!-- abjad.timespan.Timespan&#45;&gt;tsmakers.PerformedTimespan.PerformedTimespan -->
<g id="edge8" class="edge">
<title>abjad.timespan.Timespan&#45;&gt;tsmakers.PerformedTimespan.PerformedTimespan</title>
<path fill="none" stroke="#778899" d="M155.4396,-280.8476C166.2267,-284.722 178.7824,-289.1548 190.2197,-293 221.8299,-303.6273 257.8192,-314.9835 284.8145,-323.3553"/>
<polygon fill="#778899" stroke="#778899" points="284.1048,-326.7993 294.6925,-326.41 286.1729,-320.1117 284.1048,-326.7993"/>
</g>
<!-- abjad.timespan.Timespan&#45;&gt;tsmakers.SilentTimespan.SilentTimespan -->
<g id="edge9" class="edge">
<title>abjad.timespan.Timespan&#45;&gt;tsmakers.SilentTimespan.SilentTimespan</title>
<path fill="none" stroke="#778899" d="M158.0416,-273.3954C192.0997,-276.1525 248.2054,-280.6944 286.1257,-283.7642"/>
<polygon fill="#778899" stroke="#778899" points="286.0556,-287.2699 296.3054,-284.5883 286.6205,-280.2927 286.0556,-287.2699"/>
</g>
<!-- builtins.object&#45;&gt;tsmakers.tree.TimespanTree -->
<g id="edge16" class="edge">
<title>builtins.object&#45;&gt;tsmakers.tree.TimespanTree</title>
<path fill="none" stroke="#778899" d="M38.564,-223.7541C41.9813,-247.2669 53.6536,-307.7997 86.6846,-344 113.9985,-373.9348 157.1435,-392.3533 188.5782,-402.5464"/>
<polygon fill="#778899" stroke="#778899" points="187.7499,-405.9539 198.3379,-405.571 189.8221,-399.2676 187.7499,-405.9539"/>
</g>
<!-- builtins.object&#45;&gt;tsmakers.tree.TimespanTreeNode -->
<g id="edge17" class="edge">
<title>builtins.object&#45;&gt;tsmakers.tree.TimespanTreeNode</title>
<path fill="none" stroke="#778899" d="M39.6117,-223.919C44.6256,-243.6063 58.504,-287.8005 86.6846,-312 115.3478,-336.6139 157.4577,-348.1202 188.25,-353.4605"/>
<polygon fill="#778899" stroke="#778899" points="187.7976,-356.9325 198.223,-355.0453 188.8962,-350.0192 187.7976,-356.9325"/>
</g>
<!-- builtins.object&#45;&gt;abjad.timespan.Timespan -->
<g id="edge10" class="edge">
<title>builtins.object&#45;&gt;abjad.timespan.Timespan</title>
<path fill="none" stroke="#778899" d="M51.4264,-223.7898C61.207,-230.4963 74.6013,-239.4998 86.6846,-247 91.5697,-250.0322 96.8433,-253.1668 101.9444,-256.1299"/>
<polygon fill="#778899" stroke="#778899" points="100.4031,-259.2807 110.819,-261.2195 103.8855,-253.2084 100.4031,-259.2807"/>
</g>
<!-- builtins.object&#45;&gt;tsmakers.Cursor.Cursor -->
<g id="edge11" class="edge">
<title>builtins.object&#45;&gt;tsmakers.Cursor.Cursor</title>
<path fill="none" stroke="#778899" d="M58.5751,-216.206C108.3358,-221.3758 232.7974,-234.3067 292.7661,-240.5371"/>
<polygon fill="#778899" stroke="#778899" points="292.5321,-244.0315 302.8403,-241.5837 293.2555,-237.069 292.5321,-244.0315"/>
</g>
<!-- builtins.object&#45;&gt;tsmakers.HashCachingObject.HashCachingObject -->
<g id="edge12" class="edge">
<title>builtins.object&#45;&gt;tsmakers.HashCachingObject.HashCachingObject</title>
<path fill="none" stroke="#778899" d="M58.5751,-212.6029C107.4539,-209.3867 228.409,-201.4279 289.5175,-197.4069"/>
<polygon fill="#778899" stroke="#778899" points="289.7481,-200.8994 299.4967,-196.7503 289.2884,-193.9145 289.7481,-200.8994"/>
</g>
<!-- builtins.object&#45;&gt;tsmakers.MusicSpecifierSequence.MusicSpecifierSequence -->
<g id="edge13" class="edge">
<title>builtins.object&#45;&gt;tsmakers.MusicSpecifierSequence.MusicSpecifierSequence</title>
<path fill="none" stroke="#778899" d="M58.5751,-208.1909C106.4445,-195.0944 223.4441,-163.0847 285.6563,-146.0642"/>
<polygon fill="#778899" stroke="#778899" points="286.7937,-149.3817 295.5156,-143.3668 284.9464,-142.6298 286.7937,-149.3817"/>
</g>
<!-- builtins.object&#45;&gt;tsmakers.TimespanMaker.TimespanMaker -->
<g id="edge14" class="edge">
<title>builtins.object&#45;&gt;tsmakers.TimespanMaker.TimespanMaker</title>
<path fill="none" stroke="#778899" d="M47.1926,-204.1532C56.6632,-195.1094 71.7102,-181.8123 86.6846,-173 152.5203,-134.2562 237.4568,-105.7192 286.4468,-91.0787"/>
<polygon fill="#778899" stroke="#778899" points="287.7312,-94.3491 296.3353,-88.1668 285.7539,-87.6342 287.7312,-94.3491"/>
</g>
<!-- builtins.object&#45;&gt;tsmakers.TimespanSpecifier.TimespanSpecifier -->
<g id="edge15" class="edge">
<title>builtins.object&#45;&gt;tsmakers.TimespanSpecifier.TimespanSpecifier</title>
<path fill="none" stroke="#778899" d="M40.6159,-204.2105C46.9007,-186.8025 62.2403,-150.2963 86.6846,-129 145.6105,-77.6627 235.0461,-50.8371 286.2886,-38.9201"/>
<polygon fill="#778899" stroke="#778899" points="287.3245,-42.2746 296.3131,-36.6662 285.7889,-35.4451 287.3245,-42.2746"/>
</g>
<!-- tsmakers.HashCachingObject.HashCachingObject&#45;&gt;tsmakers.CompositeMusicSpecifier.CompositeMusicSpecifier -->
<g id="edge1" class="edge">
<title>tsmakers.HashCachingObject.HashCachingObject&#45;&gt;tsmakers.CompositeMusicSpecifier.CompositeMusicSpecifier</title>
<path fill="none" stroke="#778899" d="M352.4314,-206.145C362.0157,-210.2011 373.099,-214.8917 383.6855,-219.372"/>
<polygon fill="#778899" stroke="#778899" points="382.6374,-222.729 393.2108,-223.4032 385.3657,-216.2825 382.6374,-222.729"/>
</g>
<!-- tsmakers.HashCachingObject.HashCachingObject&#45;&gt;tsmakers.MusicSpecifier.MusicSpecifier -->
<g id="edge2" class="edge">
<title>tsmakers.HashCachingObject.HashCachingObject&#45;&gt;tsmakers.MusicSpecifier.MusicSpecifier</title>
<path fill="none" stroke="#778899" d="M352.343,-196.4181C378.9036,-198.0835 421.0945,-201.3613 457.2373,-207 467.1143,-208.5409 477.7072,-210.6627 487.5095,-212.8256"/>
<polygon fill="#778899" stroke="#778899" points="486.8479,-216.2644 497.3754,-215.0718 488.4019,-209.4391 486.8479,-216.2644"/>
</g>
<!-- tsmakers.TimespanMaker.TimespanMaker&#45;&gt;tsmakers.BoundaryTimespanMaker.BoundaryTimespanMaker -->
<g id="edge3" class="edge">
<title>tsmakers.TimespanMaker.TimespanMaker&#45;&gt;tsmakers.BoundaryTimespanMaker.BoundaryTimespanMaker</title>
<path fill="none" stroke="#778899" d="M353.2153,-95.5755C363.54,-101.5056 375.5138,-108.3829 386.703,-114.8095"/>
<polygon fill="#778899" stroke="#778899" points="385.0471,-117.8946 395.4618,-119.8402 388.5335,-111.8246 385.0471,-117.8946"/>
</g>
<!-- tsmakers.TimespanMaker.TimespanMaker&#45;&gt;tsmakers.CascadingTimespanMaker.CascadingTimespanMaker -->
<g id="edge4" class="edge">
<title>tsmakers.TimespanMaker.TimespanMaker&#45;&gt;tsmakers.CascadingTimespanMaker.CascadingTimespanMaker</title>
<path fill="none" stroke="#778899" d="M347.9585,-95.6816C351.3289,-98.5811 354.6207,-101.7324 357.4395,-105 378.2524,-129.1274 365.8249,-151.1021 393.4395,-167 420.3538,-182.4948 455.8002,-181.5129 483.0974,-177.1949"/>
<polygon fill="#778899" stroke="#778899" points="483.8967,-180.6076 493.1256,-175.404 482.666,-173.7166 483.8967,-180.6076"/>
</g>
<!-- tsmakers.TimespanMaker.TimespanMaker&#45;&gt;tsmakers.DependentTimespanMaker.DependentTimespanMaker -->
<g id="edge5" class="edge">
<title>tsmakers.TimespanMaker.TimespanMaker&#45;&gt;tsmakers.DependentTimespanMaker.DependentTimespanMaker</title>
<path fill="none" stroke="#778899" d="M345.6587,-64.4816C365.2843,-48.9306 392.7189,-27.2495 393.4395,-27 456.4817,-5.1674 534.9969,-15.8165 582.485,-26.0267"/>
<polygon fill="#778899" stroke="#778899" points="581.8954,-29.4813 592.4189,-28.2541 583.427,-22.6509 581.8954,-29.4813"/>
</g>
<!-- tsmakers.TimespanMaker.TimespanMaker&#45;&gt;tsmakers.FloodedTimespanMaker.FloodedTimespanMaker -->
<g id="edge6" class="edge">
<title>tsmakers.TimespanMaker.TimespanMaker&#45;&gt;tsmakers.FloodedTimespanMaker.FloodedTimespanMaker</title>
<path fill="none" stroke="#778899" d="M355.8728,-73.0992C365.1952,-70.9387 375.6364,-68.5189 385.5348,-66.2248"/>
<polygon fill="#778899" stroke="#778899" points="386.6322,-69.5633 395.5838,-63.8959 385.0517,-62.7441 386.6322,-69.5633"/>
</g>
<!-- tsmakers.TimespanMaker.TimespanMaker&#45;&gt;tsmakers.TaleaTimespanMaker.TaleaTimespanMaker -->
<g id="edge7" class="edge">
<title>tsmakers.TimespanMaker.TimespanMaker&#45;&gt;tsmakers.TaleaTimespanMaker.TaleaTimespanMaker</title>
<path fill="none" stroke="#778899" d="M355.9159,-83.2785C367.6094,-84.5173 381.1471,-85.8937 393.4395,-87 424.0863,-89.7582 458.7993,-92.378 484.8505,-94.2437"/>
<polygon fill="#778899" stroke="#778899" points="484.8691,-97.7537 495.0918,-94.9703 485.3646,-90.7713 484.8691,-97.7537"/>
</g>
<!-- tsmakers.tree.TimespanTree -->
<g id="node1" class="node">
<title>tsmakers.tree.TimespanTree</title>
<g id="a_node1"><a xlink:href="../api/tsmakers/tree.html#tsmakers.tree.TimespanTree" xlink:title="Timespan\nTree" target="_top">
<path fill="#decbe4" stroke="#decbe4" stroke-width="2" d="M247.1922,-428.498C247.1922,-428.498 208.7824,-428.498 208.7824,-428.498 203.6164,-428.498 198.4503,-423.332 198.4503,-418.166 198.4503,-418.166 198.4503,-407.834 198.4503,-407.834 198.4503,-402.668 203.6164,-397.502 208.7824,-397.502 208.7824,-397.502 247.1922,-397.502 247.1922,-397.502 252.3582,-397.502 257.5243,-402.668 257.5243,-407.834 257.5243,-407.834 257.5243,-418.166 257.5243,-418.166 257.5243,-423.332 252.3582,-428.498 247.1922,-428.498"/>
<text text-anchor="middle" x="227.9873" y="-416.499" font-family="Arial" font-size="10.00" fill="#000000">Timespan</text>
<text text-anchor="middle" x="227.9873" y="-405" font-family="Arial" font-size="10.00" fill="#000000">Tree</text>
</a>
</g>
</g>
<!-- tsmakers.tree.TimespanTreeNode -->
<g id="node2" class="node">
<title>tsmakers.tree.TimespanTreeNode</title>
<g id="a_node2"><a xlink:href="../api/tsmakers/tree.html#tsmakers.tree.TimespanTreeNode" xlink:title="Timespan\nTree\nNode" target="_top">
<path fill="#decbe4" stroke="#decbe4" stroke-width="2" d="M245.5243,-379.5C245.5243,-379.5 210.4503,-379.5 210.4503,-379.5 204.4503,-379.5 198.4503,-373.5 198.4503,-367.5 198.4503,-367.5 198.4503,-348.5 198.4503,-348.5 198.4503,-342.5 204.4503,-336.5 210.4503,-336.5 210.4503,-336.5 245.5243,-336.5 245.5243,-336.5 251.5243,-336.5 257.5243,-342.5 257.5243,-348.5 257.5243,-348.5 257.5243,-367.5 257.5243,-367.5 257.5243,-373.5 251.5243,-379.5 245.5243,-379.5"/>
<text text-anchor="middle" x="227.9873" y="-367.2485" font-family="Arial" font-size="10.00" fill="#000000">Timespan</text>
<text text-anchor="middle" x="227.9873" y="-355.7495" font-family="Arial" font-size="10.00" fill="#000000">Tree</text>
<text text-anchor="middle" x="227.9873" y="-344.2505" font-family="Arial" font-size="10.00" fill="#000000">Node</text>
</a>
</g>
</g>
<!-- abjad.timespan.Timespan -->
<g id="node3" class="node">
<title>abjad.timespan.Timespan</title>
<path fill="#fbb4ae" stroke="#fbb4ae" stroke-width="2" d="M151.3187,-281.0056C151.3187,-281.0056 105.5856,-281.0056 105.5856,-281.0056 102.2504,-281.0056 98.9152,-277.6704 98.9152,-274.3352 98.9152,-274.3352 98.9152,-267.6648 98.9152,-267.6648 98.9152,-264.3296 102.2504,-260.9944 105.5856,-260.9944 105.5856,-260.9944 151.3187,-260.9944 151.3187,-260.9944 154.6539,-260.9944 157.9891,-264.3296 157.9891,-267.6648 157.9891,-267.6648 157.9891,-274.3352 157.9891,-274.3352 157.9891,-277.6704 154.6539,-281.0056 151.3187,-281.0056"/>
<text text-anchor="middle" x="128.4521" y="-268.7495" font-family="Arial" font-size="10.00" fill="#000000">Timespan</text>
</g>
<!-- builtins.object -->
<g id="node4" class="node">
<title>builtins.object</title>
<g id="a_node4"><a xlink:href="https://docs.python.org/3.7/library/functions.html#object" xlink:title="object" target="_top">
<path fill="#b3cde3" stroke="#b3cde3" stroke-width="2" d="M51.8576,-224.0056C51.8576,-224.0056 22.8269,-224.0056 22.8269,-224.0056 19.4918,-224.0056 16.1566,-220.6704 16.1566,-217.3352 16.1566,-217.3352 16.1566,-210.6648 16.1566,-210.6648 16.1566,-207.3296 19.4918,-203.9944 22.8269,-203.9944 22.8269,-203.9944 51.8576,-203.9944 51.8576,-203.9944 55.1928,-203.9944 58.528,-207.3296 58.528,-210.6648 58.528,-210.6648 58.528,-217.3352 58.528,-217.3352 58.528,-220.6704 55.1928,-224.0056 51.8576,-224.0056"/>
<text text-anchor="middle" x="37.3423" y="-211.7495" font-family="Arial" font-size="10.00" fill="#000000">object</text>
</a>
</g>
</g>
<!-- tsmakers.BoundaryTimespanMaker.BoundaryTimespanMaker -->
<g id="node5" class="node">
<title>tsmakers.BoundaryTimespanMaker.BoundaryTimespanMaker</title>
<g id="a_node5"><a xlink:href="../api/tsmakers/BoundaryTimespanMaker.html#tsmakers.BoundaryTimespanMaker.BoundaryTimespanMaker" xlink:title="Boundary\nTimespan\nMaker" target="_top">
<path fill="#000000" stroke="#000000" stroke-width="2" d="M442.8753,-158.5C442.8753,-158.5 407.8014,-158.5 407.8014,-158.5 401.8014,-158.5 395.8014,-152.5 395.8014,-146.5 395.8014,-146.5 395.8014,-127.5 395.8014,-127.5 395.8014,-121.5 401.8014,-115.5 407.8014,-115.5 407.8014,-115.5 442.8753,-115.5 442.8753,-115.5 448.8753,-115.5 454.8753,-121.5 454.8753,-127.5 454.8753,-127.5 454.8753,-146.5 454.8753,-146.5 454.8753,-152.5 448.8753,-158.5 442.8753,-158.5"/>
<text text-anchor="middle" x="425.3384" y="-146.2485" font-family="Arial" font-size="10.00" fill="#ffffff">Boundary</text>
<text text-anchor="middle" x="425.3384" y="-134.7495" font-family="Arial" font-size="10.00" fill="#ffffff">Timespan</text>
<text text-anchor="middle" x="425.3384" y="-123.2505" font-family="Arial" font-size="10.00" fill="#ffffff">Maker</text>
</a>
</g>
</g>
<!-- tsmakers.CascadingTimespanMaker.CascadingTimespanMaker -->
<g id="node6" class="node">
<title>tsmakers.CascadingTimespanMaker.CascadingTimespanMaker</title>
<g id="a_node6"><a xlink:href="../api/tsmakers/CascadingTimespanMaker.html#tsmakers.CascadingTimespanMaker.CascadingTimespanMaker" xlink:title="Cascading\nTimespan\nMaker" target="_top">
<path fill="#000000" stroke="#000000" stroke-width="2" d="M544.6143,-188.5C544.6143,-188.5 505.1113,-188.5 505.1113,-188.5 499.1113,-188.5 493.1113,-182.5 493.1113,-176.5 493.1113,-176.5 493.1113,-157.5 493.1113,-157.5 493.1113,-151.5 499.1113,-145.5 505.1113,-145.5 505.1113,-145.5 544.6143,-145.5 544.6143,-145.5 550.6143,-145.5 556.6143,-151.5 556.6143,-157.5 556.6143,-157.5 556.6143,-176.5 556.6143,-176.5 556.6143,-182.5 550.6143,-188.5 544.6143,-188.5"/>
<text text-anchor="middle" x="524.8628" y="-176.2485" font-family="Arial" font-size="10.00" fill="#ffffff">Cascading</text>
<text text-anchor="middle" x="524.8628" y="-164.7495" font-family="Arial" font-size="10.00" fill="#ffffff">Timespan</text>
<text text-anchor="middle" x="524.8628" y="-153.2505" font-family="Arial" font-size="10.00" fill="#ffffff">Maker</text>
</a>
</g>
</g>
<!-- tsmakers.CompositeMusicSpecifier.CompositeMusicSpecifier -->
<g id="node7" class="node">
<title>tsmakers.CompositeMusicSpecifier.CompositeMusicSpecifier</title>
<g id="a_node7"><a xlink:href="../api/tsmakers/CompositeMusicSpecifier.html#tsmakers.CompositeMusicSpecifier.CompositeMusicSpecifier" xlink:title="Composite\nMusic\nSpecifier" target="_top">
<path fill="#000000" stroke="#000000" stroke-width="2" d="M445.1365,-258.5C445.1365,-258.5 405.5402,-258.5 405.5402,-258.5 399.5402,-258.5 393.5402,-252.5 393.5402,-246.5 393.5402,-246.5 393.5402,-227.5 393.5402,-227.5 393.5402,-221.5 399.5402,-215.5 405.5402,-215.5 405.5402,-215.5 445.1365,-215.5 445.1365,-215.5 451.1365,-215.5 457.1365,-221.5 457.1365,-227.5 457.1365,-227.5 457.1365,-246.5 457.1365,-246.5 457.1365,-252.5 451.1365,-258.5 445.1365,-258.5"/>
<text text-anchor="middle" x="425.3384" y="-246.2485" font-family="Arial" font-size="10.00" fill="#ffffff">Composite</text>
<text text-anchor="middle" x="425.3384" y="-234.7495" font-family="Arial" font-size="10.00" fill="#ffffff">Music</text>
<text text-anchor="middle" x="425.3384" y="-223.2505" font-family="Arial" font-size="10.00" fill="#ffffff">Specifier</text>
</a>
</g>
</g>
<!-- tsmakers.Cursor.Cursor -->
<g id="node8" class="node">
<title>tsmakers.Cursor.Cursor</title>
<g id="a_node8"><a xlink:href="../api/tsmakers/Cursor.html#tsmakers.Cursor.Cursor" xlink:title="Cursor" target="_top">
<path fill="#000000" stroke="#000000" stroke-width="2" d="M342.4317,-254.0056C342.4317,-254.0056 309.7627,-254.0056 309.7627,-254.0056 306.4275,-254.0056 303.0923,-250.6704 303.0923,-247.3352 303.0923,-247.3352 303.0923,-240.6648 303.0923,-240.6648 303.0923,-237.3296 306.4275,-233.9944 309.7627,-233.9944 309.7627,-233.9944 342.4317,-233.9944 342.4317,-233.9944 345.7669,-233.9944 349.1021,-237.3296 349.1021,-240.6648 349.1021,-240.6648 349.1021,-247.3352 349.1021,-247.3352 349.1021,-250.6704 345.7669,-254.0056 342.4317,-254.0056"/>
<text text-anchor="middle" x="326.0972" y="-241.7495" font-family="Arial" font-size="10.00" fill="#ffffff">Cursor</text>
</a>
</g>
</g>
<!-- tsmakers.DependentTimespanMaker.DependentTimespanMaker -->
<g id="node9" class="node">
<title>tsmakers.DependentTimespanMaker.DependentTimespanMaker</title>
<g id="a_node9"><a xlink:href="../api/tsmakers/DependentTimespanMaker.html#tsmakers.DependentTimespanMaker.DependentTimespanMaker" xlink:title="Dependent\nTimespan\nMaker" target="_top">
<path fill="#000000" stroke="#000000" stroke-width="2" d="M645.3843,-58.5C645.3843,-58.5 604.5229,-58.5 604.5229,-58.5 598.5229,-58.5 592.5229,-52.5 592.5229,-46.5 592.5229,-46.5 592.5229,-27.5 592.5229,-27.5 592.5229,-21.5 598.5229,-15.5 604.5229,-15.5 604.5229,-15.5 645.3843,-15.5 645.3843,-15.5 651.3843,-15.5 657.3843,-21.5 657.3843,-27.5 657.3843,-27.5 657.3843,-46.5 657.3843,-46.5 657.3843,-52.5 651.3843,-58.5 645.3843,-58.5"/>
<text text-anchor="middle" x="624.9536" y="-46.2485" font-family="Arial" font-size="10.00" fill="#ffffff">Dependent</text>
<text text-anchor="middle" x="624.9536" y="-34.7495" font-family="Arial" font-size="10.00" fill="#ffffff">Timespan</text>
<text text-anchor="middle" x="624.9536" y="-23.2505" font-family="Arial" font-size="10.00" fill="#ffffff">Maker</text>
</a>
</g>
</g>
<!-- tsmakers.FloodedTimespanMaker.FloodedTimespanMaker -->
<g id="node10" class="node">
<title>tsmakers.FloodedTimespanMaker.FloodedTimespanMaker</title>
<g id="a_node10"><a xlink:href="../api/tsmakers/FloodedTimespanMaker.html#tsmakers.FloodedTimespanMaker.FloodedTimespanMaker" xlink:title="Flooded\nTimespan\nMaker" target="_top">
<path fill="#000000" stroke="#000000" stroke-width="2" d="M442.8753,-78.5C442.8753,-78.5 407.8014,-78.5 407.8014,-78.5 401.8014,-78.5 395.8014,-72.5 395.8014,-66.5 395.8014,-66.5 395.8014,-47.5 395.8014,-47.5 395.8014,-41.5 401.8014,-35.5 407.8014,-35.5 407.8014,-35.5 442.8753,-35.5 442.8753,-35.5 448.8753,-35.5 454.8753,-41.5 454.8753,-47.5 454.8753,-47.5 454.8753,-66.5 454.8753,-66.5 454.8753,-72.5 448.8753,-78.5 442.8753,-78.5"/>
<text text-anchor="middle" x="425.3384" y="-66.2485" font-family="Arial" font-size="10.00" fill="#ffffff">Flooded</text>
<text text-anchor="middle" x="425.3384" y="-54.7495" font-family="Arial" font-size="10.00" fill="#ffffff">Timespan</text>
<text text-anchor="middle" x="425.3384" y="-43.2505" font-family="Arial" font-size="10.00" fill="#ffffff">Maker</text>
</a>
</g>
</g>
<!-- tsmakers.HashCachingObject.HashCachingObject -->
<g id="node11" class="node">
<title>tsmakers.HashCachingObject.HashCachingObject</title>
<g id="a_node11"><a xlink:href="../api/tsmakers/HashCachingObject.html#tsmakers.HashCachingObject.HashCachingObject" xlink:title="Hash\nCaching\nObject" target="_top">
<path fill="#000000" stroke="#000000" stroke-width="2" d="M340.2875,-216.5C340.2875,-216.5 311.9068,-216.5 311.9068,-216.5 305.9068,-216.5 299.9068,-210.5 299.9068,-204.5 299.9068,-204.5 299.9068,-185.5 299.9068,-185.5 299.9068,-179.5 305.9068,-173.5 311.9068,-173.5 311.9068,-173.5 340.2875,-173.5 340.2875,-173.5 346.2875,-173.5 352.2875,-179.5 352.2875,-185.5 352.2875,-185.5 352.2875,-204.5 352.2875,-204.5 352.2875,-210.5 346.2875,-216.5 340.2875,-216.5"/>
<text text-anchor="middle" x="326.0972" y="-204.2485" font-family="Arial" font-size="10.00" fill="#ffffff">Hash</text>
<text text-anchor="middle" x="326.0972" y="-192.7495" font-family="Arial" font-size="10.00" fill="#ffffff">Caching</text>
<text text-anchor="middle" x="326.0972" y="-181.2505" font-family="Arial" font-size="10.00" fill="#ffffff">Object</text>
</a>
</g>
</g>
<!-- tsmakers.MusicSpecifier.MusicSpecifier -->
<g id="node12" class="node">
<title>tsmakers.MusicSpecifier.MusicSpecifier</title>
<g id="a_node12"><a xlink:href="../api/tsmakers/MusicSpecifier.html#tsmakers.MusicSpecifier.MusicSpecifier" xlink:title="Music\nSpecifier" target="_top">
<path fill="#000000" stroke="#000000" stroke-width="2" d="M541.9371,-237.498C541.9371,-237.498 507.7885,-237.498 507.7885,-237.498 502.6225,-237.498 497.4565,-232.332 497.4565,-227.166 497.4565,-227.166 497.4565,-216.834 497.4565,-216.834 497.4565,-211.668 502.6225,-206.502 507.7885,-206.502 507.7885,-206.502 541.9371,-206.502 541.9371,-206.502 547.1031,-206.502 552.2691,-211.668 552.2691,-216.834 552.2691,-216.834 552.2691,-227.166 552.2691,-227.166 552.2691,-232.332 547.1031,-237.498 541.9371,-237.498"/>
<text text-anchor="middle" x="524.8628" y="-225.499" font-family="Arial" font-size="10.00" fill="#ffffff">Music</text>
<text text-anchor="middle" x="524.8628" y="-214" font-family="Arial" font-size="10.00" fill="#ffffff">Specifier</text>
</a>
</g>
</g>
<!-- tsmakers.MusicSpecifierSequence.MusicSpecifierSequence -->
<g id="node13" class="node">
<title>tsmakers.MusicSpecifierSequence.MusicSpecifierSequence</title>
<g id="a_node13"><a xlink:href="../api/tsmakers/MusicSpecifierSequence.html#tsmakers.MusicSpecifierSequence.MusicSpecifierSequence" xlink:title="Music\nSpecifier\nSequence" target="_top">
<path fill="#000000" stroke="#000000" stroke-width="2" d="M344.6362,-156.5C344.6362,-156.5 307.5581,-156.5 307.5581,-156.5 301.5581,-156.5 295.5581,-150.5 295.5581,-144.5 295.5581,-144.5 295.5581,-125.5 295.5581,-125.5 295.5581,-119.5 301.5581,-113.5 307.5581,-113.5 307.5581,-113.5 344.6362,-113.5 344.6362,-113.5 350.6362,-113.5 356.6362,-119.5 356.6362,-125.5 356.6362,-125.5 356.6362,-144.5 356.6362,-144.5 356.6362,-150.5 350.6362,-156.5 344.6362,-156.5"/>
<text text-anchor="middle" x="326.0972" y="-144.2485" font-family="Arial" font-size="10.00" fill="#ffffff">Music</text>
<text text-anchor="middle" x="326.0972" y="-132.7495" font-family="Arial" font-size="10.00" fill="#ffffff">Specifier</text>
<text text-anchor="middle" x="326.0972" y="-121.2505" font-family="Arial" font-size="10.00" fill="#ffffff">Sequence</text>
</a>
</g>
</g>
<!-- tsmakers.PerformedTimespan.PerformedTimespan -->
<g id="node14" class="node">
<title>tsmakers.PerformedTimespan.PerformedTimespan</title>
<g id="a_node14"><a xlink:href="../api/tsmakers/PerformedTimespan.html#tsmakers.PerformedTimespan.PerformedTimespan" xlink:title="Performed\nTimespan" target="_top">
<path fill="#000000" stroke="#000000" stroke-width="2" d="M346.9505,-351.498C346.9505,-351.498 305.2438,-351.498 305.2438,-351.498 300.0778,-351.498 294.9118,-346.332 294.9118,-341.166 294.9118,-341.166 294.9118,-330.834 294.9118,-330.834 294.9118,-325.668 300.0778,-320.502 305.2438,-320.502 305.2438,-320.502 346.9505,-320.502 346.9505,-320.502 352.1165,-320.502 357.2825,-325.668 357.2825,-330.834 357.2825,-330.834 357.2825,-341.166 357.2825,-341.166 357.2825,-346.332 352.1165,-351.498 346.9505,-351.498"/>
<text text-anchor="middle" x="326.0972" y="-339.499" font-family="Arial" font-size="10.00" fill="#ffffff">Performed</text>
<text text-anchor="middle" x="326.0972" y="-328" font-family="Arial" font-size="10.00" fill="#ffffff">Timespan</text>
</a>
</g>
</g>
<!-- tsmakers.SilentTimespan.SilentTimespan -->
<g id="node15" class="node">
<title>tsmakers.SilentTimespan.SilentTimespan</title>
<g id="a_node15"><a xlink:href="../api/tsmakers/SilentTimespan.html#tsmakers.SilentTimespan.SilentTimespan" xlink:title="Silent\nTimespan" target="_top">
<path fill="#000000" stroke="#000000" stroke-width="2" d="M345.3021,-302.498C345.3021,-302.498 306.8922,-302.498 306.8922,-302.498 301.7262,-302.498 296.5602,-297.332 296.5602,-292.166 296.5602,-292.166 296.5602,-281.834 296.5602,-281.834 296.5602,-276.668 301.7262,-271.502 306.8922,-271.502 306.8922,-271.502 345.3021,-271.502 345.3021,-271.502 350.4681,-271.502 355.6341,-276.668 355.6341,-281.834 355.6341,-281.834 355.6341,-292.166 355.6341,-292.166 355.6341,-297.332 350.4681,-302.498 345.3021,-302.498"/>
<text text-anchor="middle" x="326.0972" y="-290.499" font-family="Arial" font-size="10.00" fill="#ffffff">Silent</text>
<text text-anchor="middle" x="326.0972" y="-279" font-family="Arial" font-size="10.00" fill="#ffffff">Timespan</text>
</a>
</g>
</g>
<!-- tsmakers.TaleaTimespanMaker.TaleaTimespanMaker -->
<g id="node16" class="node">
<title>tsmakers.TaleaTimespanMaker.TaleaTimespanMaker</title>
<g id="a_node16"><a xlink:href="../api/tsmakers/TaleaTimespanMaker.html#tsmakers.TaleaTimespanMaker.TaleaTimespanMaker" xlink:title="Talea\nTimespan\nMaker" target="_top">
<path fill="#000000" stroke="#000000" stroke-width="2" d="M542.3997,-118.5C542.3997,-118.5 507.3258,-118.5 507.3258,-118.5 501.3258,-118.5 495.3258,-112.5 495.3258,-106.5 495.3258,-106.5 495.3258,-87.5 495.3258,-87.5 495.3258,-81.5 501.3258,-75.5 507.3258,-75.5 507.3258,-75.5 542.3997,-75.5 542.3997,-75.5 548.3997,-75.5 554.3997,-81.5 554.3997,-87.5 554.3997,-87.5 554.3997,-106.5 554.3997,-106.5 554.3997,-112.5 548.3997,-118.5 542.3997,-118.5"/>
<text text-anchor="middle" x="524.8628" y="-106.2485" font-family="Arial" font-size="10.00" fill="#ffffff">Talea</text>
<text text-anchor="middle" x="524.8628" y="-94.7495" font-family="Arial" font-size="10.00" fill="#ffffff">Timespan</text>
<text text-anchor="middle" x="524.8628" y="-83.2505" font-family="Arial" font-size="10.00" fill="#ffffff">Maker</text>
</a>
</g>
</g>
<!-- tsmakers.TimespanMaker.TimespanMaker -->
<g id="node17" class="node">
<title>tsmakers.TimespanMaker.TimespanMaker</title>
<g id="a_node17"><a xlink:href="../api/tsmakers/TimespanMaker.html#tsmakers.TimespanMaker.TimespanMaker" xlink:title="Timespan\nMaker" target="_top">
<path fill="#000000" stroke="#000000" stroke-width="2" d="M345.3021,-95.498C345.3021,-95.498 306.8922,-95.498 306.8922,-95.498 301.7262,-95.498 296.5602,-90.332 296.5602,-85.166 296.5602,-85.166 296.5602,-74.834 296.5602,-74.834 296.5602,-69.668 301.7262,-64.502 306.8922,-64.502 306.8922,-64.502 345.3021,-64.502 345.3021,-64.502 350.4681,-64.502 355.6341,-69.668 355.6341,-74.834 355.6341,-74.834 355.6341,-85.166 355.6341,-85.166 355.6341,-90.332 350.4681,-95.498 345.3021,-95.498"/>
<text text-anchor="middle" x="326.0972" y="-83.499" font-family="Arial" font-size="10.00" fill="#ffffff">Timespan</text>
<text text-anchor="middle" x="326.0972" y="-72" font-family="Arial" font-size="10.00" fill="#ffffff">Maker</text>
</a>
</g>
</g>
<!-- tsmakers.TimespanSpecifier.TimespanSpecifier -->
<g id="node18" class="node">
<title>tsmakers.TimespanSpecifier.TimespanSpecifier</title>
<g id="a_node18"><a xlink:href="../api/tsmakers/TimespanSpecifier.html#tsmakers.TimespanSpecifier.TimespanSpecifier" xlink:title="Timespan\nSpecifier" target="_top">
<path fill="#000000" stroke="#000000" stroke-width="2" d="M345.3021,-46.498C345.3021,-46.498 306.8922,-46.498 306.8922,-46.498 301.7262,-46.498 296.5602,-41.332 296.5602,-36.166 296.5602,-36.166 296.5602,-25.834 296.5602,-25.834 296.5602,-20.668 301.7262,-15.502 306.8922,-15.502 306.8922,-15.502 345.3021,-15.502 345.3021,-15.502 350.4681,-15.502 355.6341,-20.668 355.6341,-25.834 355.6341,-25.834 355.6341,-36.166 355.6341,-36.166 355.6341,-41.332 350.4681,-46.498 345.3021,-46.498"/>
<text text-anchor="middle" x="326.0972" y="-34.499" font-family="Arial" font-size="10.00" fill="#ffffff">Timespan</text>
<text text-anchor="middle" x="326.0972" y="-23" font-family="Arial" font-size="10.00" fill="#ffffff">Specifier</text>
</a>
</g>
</g>
</g>
</svg>
