<?xml version="1.0" encoding="UTF-8" standalone="no"?>
<!DOCTYPE svg PUBLIC "-//W3C//DTD SVG 1.1//EN"
 "http://www.w3.org/Graphics/SVG/1.1/DTD/svg11.dtd">
<!-- Generated by graphviz version 2.40.1 (20161225.0304)
 -->
<!-- Title: InheritanceGraph Pages: 1 -->
<svg width="285pt" height="90pt"
 viewBox="0.00 0.00 284.90 90.00" xmlns="http://www.w3.org/2000/svg" xmlns:xlink="http://www.w3.org/1999/xlink">
<g id="graph0" class="graph" transform="scale(1 1) rotate(0) translate(4 86)">
<title>InheritanceGraph</title>
<g id="clust1" class="cluster">
<title>cluster_abjad.timespan</title>
<path fill="transparent" stroke="#bcd2ee" stroke-width="2" stroke-dasharray="5,2" d="M98.6846,-13C98.6846,-13 158.2197,-13 158.2197,-13 164.2197,-13 170.2197,-19 170.2197,-25 170.2197,-25 170.2197,-56 170.2197,-56 170.2197,-62 164.2197,-68 158.2197,-68 158.2197,-68 98.6846,-68 98.6846,-68 92.6846,-68 86.6846,-62 86.6846,-56 86.6846,-56 86.6846,-25 86.6846,-25 86.6846,-19 92.6846,-13 98.6846,-13"/>
<text text-anchor="middle" x="128.4521" y="-56" font-family="Arial" font-size="10.00" fill="#000000">abjad.timespan</text>
</g>
<g id="clust2" class="cluster">
<title>cluster_builtins</title>
<path fill="transparent" stroke="#bcd2ee" stroke-width="2" stroke-dasharray="5,2" d="M20,-13C20,-13 54.6846,-13 54.6846,-13 60.6846,-13 66.6846,-19 66.6846,-25 66.6846,-25 66.6846,-56 66.6846,-56 66.6846,-62 60.6846,-68 54.6846,-68 54.6846,-68 20,-68 20,-68 14,-68 8,-62 8,-56 8,-56 8,-25 8,-25 8,-19 14,-13 20,-13"/>
<text text-anchor="middle" x="37.3423" y="-56" font-family="Arial" font-size="10.00" fill="#000000">builtins</text>
</g>
<g id="clust3" class="cluster">
<title>cluster_tsmakers</title>
<path fill="transparent" stroke="#bcd2ee" stroke-width="2" stroke-dasharray="5,2" d="M202.2197,-8C202.2197,-8 256.9043,-8 256.9043,-8 262.9043,-8 268.9043,-14 268.9043,-20 268.9043,-20 268.9043,-62 268.9043,-62 268.9043,-68 262.9043,-74 256.9043,-74 256.9043,-74 202.2197,-74 202.2197,-74 196.2197,-74 190.2197,-68 190.2197,-62 190.2197,-62 190.2197,-20 190.2197,-20 190.2197,-14 196.2197,-8 202.2197,-8"/>
<text text-anchor="middle" x="229.562" y="-62" font-family="Arial" font-size="10.00" fill="#000000">tsmakers</text>
</g>
<!-- abjad.timespan.Timespan&#45;&gt;tsmakers.PerformedTimespan.PerformedTimespan -->
<g id="edge1" class="edge">
<title>abjad.timespan.Timespan&#45;&gt;tsmakers.PerformedTimespan.PerformedTimespan</title>
<path fill="none" stroke="#778899" d="M158.2416,-31C167.5801,-31 178.0627,-31 188.0575,-31"/>
<polygon fill="#778899" stroke="#778899" points="188.2282,-34.5001 198.2281,-31 188.2281,-27.5001 188.2282,-34.5001"/>
</g>
<!-- builtins.object&#45;&gt;abjad.timespan.Timespan -->
<g id="edge2" class="edge">
<title>builtins.object&#45;&gt;abjad.timespan.Timespan</title>
<path fill="none" stroke="#778899" d="M58.9341,-31C67.8535,-31 78.4862,-31 88.7204,-31"/>
<polygon fill="#778899" stroke="#778899" points="88.7435,-34.5001 98.7435,-31 88.7434,-27.5001 88.7435,-34.5001"/>
</g>
<!-- abjad.timespan.Timespan -->
<g id="node1" class="node">
<title>abjad.timespan.Timespan</title>
<path fill="#fbb4ae" stroke="#fbb4ae" stroke-width="2" d="M151.3187,-41.0056C151.3187,-41.0056 105.5856,-41.0056 105.5856,-41.0056 102.2504,-41.0056 98.9152,-37.6704 98.9152,-34.3352 98.9152,-34.3352 98.9152,-27.6648 98.9152,-27.6648 98.9152,-24.3296 102.2504,-20.9944 105.5856,-20.9944 105.5856,-20.9944 151.3187,-20.9944 151.3187,-20.9944 154.6539,-20.9944 157.9891,-24.3296 157.9891,-27.6648 157.9891,-27.6648 157.9891,-34.3352 157.9891,-34.3352 157.9891,-37.6704 154.6539,-41.0056 151.3187,-41.0056"/>
<text text-anchor="middle" x="128.4521" y="-28.7495" font-family="Arial" font-size="10.00" fill="#000000">Timespan</text>
</g>
<!-- builtins.object -->
<g id="node2" class="node">
<title>builtins.object</title>
<g id="a_node2"><a xlink:href="https://docs.python.org/3.7/library/functions.html#object" xlink:title="object" target="_top">
<path fill="#b3cde3" stroke="#b3cde3" stroke-width="2" d="M51.8576,-41.0056C51.8576,-41.0056 22.8269,-41.0056 22.8269,-41.0056 19.4918,-41.0056 16.1566,-37.6704 16.1566,-34.3352 16.1566,-34.3352 16.1566,-27.6648 16.1566,-27.6648 16.1566,-24.3296 19.4918,-20.9944 22.8269,-20.9944 22.8269,-20.9944 51.8576,-20.9944 51.8576,-20.9944 55.1928,-20.9944 58.528,-24.3296 58.528,-27.6648 58.528,-27.6648 58.528,-34.3352 58.528,-34.3352 58.528,-37.6704 55.1928,-41.0056 51.8576,-41.0056"/>
<text text-anchor="middle" x="37.3423" y="-28.7495" font-family="Arial" font-size="10.00" fill="#000000">object</text>
</a>
</g>
</g>
<!-- tsmakers.PerformedTimespan.PerformedTimespan -->
<g id="node3" class="node">
<title>tsmakers.PerformedTimespan.PerformedTimespan</title>
<g id="a_node3"><a xlink:href="../api/tsmakers/PerformedTimespan.html#tsmakers.PerformedTimespan.PerformedTimespan" xlink:title="Performed\nTimespan" target="_top">
<path fill="#000000" stroke="#000000" stroke-width="2" d="M250.4153,-46.498C250.4153,-46.498 208.7087,-46.498 208.7087,-46.498 203.5427,-46.498 198.3767,-41.332 198.3767,-36.166 198.3767,-36.166 198.3767,-25.834 198.3767,-25.834 198.3767,-20.668 203.5427,-15.502 208.7087,-15.502 208.7087,-15.502 250.4153,-15.502 250.4153,-15.502 255.5814,-15.502 260.7474,-20.668 260.7474,-25.834 260.7474,-25.834 260.7474,-36.166 260.7474,-36.166 260.7474,-41.332 255.5814,-46.498 250.4153,-46.498"/>
<text text-anchor="middle" x="229.562" y="-34.499" font-family="Arial" font-size="10.00" fill="#ffffff">Performed</text>
<text text-anchor="middle" x="229.562" y="-23" font-family="Arial" font-size="10.00" fill="#ffffff">Timespan</text>
</a>
</g>
</g>
</g>
</svg>
