<?xml version="1.0" encoding="UTF-8" standalone="no"?>
<!DOCTYPE svg PUBLIC "-//W3C//DTD SVG 1.1//EN"
 "http://www.w3.org/Graphics/SVG/1.1/DTD/svg11.dtd">
<!-- Generated by graphviz version 2.40.1 (20161225.0304)
 -->
<!-- Title: InheritanceGraph Pages: 1 -->
<svg width="284pt" height="260pt"
 viewBox="0.00 0.00 283.71 260.00" xmlns="http://www.w3.org/2000/svg" xmlns:xlink="http://www.w3.org/1999/xlink">
<g id="graph0" class="graph" transform="scale(1 1) rotate(0) translate(4 256)">
<title>InheritanceGraph</title>
<g id="clust1" class="cluster">
<title>cluster_abjadext.microtones.et_utilities</title>
<path fill="transparent" stroke="#bcd2ee" stroke-width="2" stroke-dasharray="5,2" d="M135.6846,-8C135.6846,-8 263.709,-8 263.709,-8 269.709,-8 275.709,-14 275.709,-20 275.709,-20 275.709,-232 275.709,-232 275.709,-238 269.709,-244 263.709,-244 263.709,-244 135.6846,-244 135.6846,-244 129.6846,-244 123.6846,-238 123.6846,-232 123.6846,-232 123.6846,-20 123.6846,-20 123.6846,-14 129.6846,-8 135.6846,-8"/>
<text text-anchor="middle" x="199.6968" y="-232" font-family="Arial" font-size="10.00" fill="#000000">abjadext.microtones.et_utilities</text>
</g>
<g id="clust2" class="cluster">
<title>cluster_builtins</title>
<path fill="transparent" stroke="#bcd2ee" stroke-width="2" stroke-dasharray="5,2" d="M20,-89C20,-89 54.6846,-89 54.6846,-89 60.6846,-89 66.6846,-95 66.6846,-101 66.6846,-101 66.6846,-132 66.6846,-132 66.6846,-138 60.6846,-144 54.6846,-144 54.6846,-144 20,-144 20,-144 14,-144 8,-138 8,-132 8,-132 8,-101 8,-101 8,-95 14,-89 20,-89"/>
<text text-anchor="middle" x="37.3423" y="-132" font-family="Arial" font-size="10.00" fill="#000000">builtins</text>
</g>
<!-- builtins.object&#45;&gt;abjadext.microtones.et_utilities.PitchClassSegment -->
<g id="edge1" class="edge">
<title>builtins.object&#45;&gt;abjadext.microtones.et_utilities.PitchClassSegment</title>
<path fill="none" stroke="#778899" d="M49.9638,-116.7554C66.3203,-129.0915 96.0282,-150.4712 123.6846,-165 135.7751,-171.3516 149.5211,-177.1684 161.9679,-181.9545"/>
<polygon fill="#778899" stroke="#778899" points="161.0225,-185.3377 171.615,-185.5625 163.4746,-178.7812 161.0225,-185.3377"/>
</g>
<!-- builtins.object&#45;&gt;abjadext.microtones.et_utilities.PitchClassSet -->
<g id="edge2" class="edge">
<title>builtins.object&#45;&gt;abjadext.microtones.et_utilities.PitchClassSet</title>
<path fill="none" stroke="#778899" d="M58.5673,-110.6605C86.6767,-115.5083 136.4553,-124.0932 168.7533,-129.6634"/>
<polygon fill="#778899" stroke="#778899" points="168.5305,-133.1766 178.9799,-131.4271 169.7202,-126.2784 168.5305,-133.1766"/>
</g>
<!-- builtins.object&#45;&gt;abjadext.microtones.et_utilities.PitchSegment -->
<g id="edge3" class="edge">
<title>builtins.object&#45;&gt;abjadext.microtones.et_utilities.PitchSegment</title>
<path fill="none" stroke="#778899" d="M58.5673,-103.4702C84.7048,-99.1235 129.5779,-91.661 161.7116,-86.317"/>
<polygon fill="#778899" stroke="#778899" points="162.3668,-89.7562 171.6571,-84.6631 161.2183,-82.8511 162.3668,-89.7562"/>
</g>
<!-- builtins.object&#45;&gt;abjadext.microtones.et_utilities.PitchSet -->
<g id="edge4" class="edge">
<title>builtins.object&#45;&gt;abjadext.microtones.et_utilities.PitchSet</title>
<path fill="none" stroke="#778899" d="M51.7919,-97.1466C68.5296,-86.0503 97.2046,-68.0048 123.6846,-56 138.7529,-49.1687 156.2519,-43.2829 170.659,-38.9413"/>
<polygon fill="#778899" stroke="#778899" points="171.9056,-42.2235 180.5241,-36.0614 169.944,-35.504 171.9056,-42.2235"/>
</g>
<!-- abjadext.microtones.et_utilities.PitchClassSegment -->
<g id="node1" class="node">
<title>abjadext.microtones.et_utilities.PitchClassSegment</title>
<g id="a_node1"><a xlink:href="../api/abjadext/microtones/et_utilities.html#abjadext.microtones.et_utilities.PitchClassSegment" xlink:title="Pitch\nClass\nSegment" target="_top">
<path fill="#000000" stroke="#000000" stroke-width="2" d="M215.7212,-216.5C215.7212,-216.5 183.6724,-216.5 183.6724,-216.5 177.6724,-216.5 171.6724,-210.5 171.6724,-204.5 171.6724,-204.5 171.6724,-185.5 171.6724,-185.5 171.6724,-179.5 177.6724,-173.5 183.6724,-173.5 183.6724,-173.5 215.7212,-173.5 215.7212,-173.5 221.7212,-173.5 227.7212,-179.5 227.7212,-185.5 227.7212,-185.5 227.7212,-204.5 227.7212,-204.5 227.7212,-210.5 221.7212,-216.5 215.7212,-216.5"/>
<text text-anchor="middle" x="199.6968" y="-204.2485" font-family="Arial" font-size="10.00" fill="#ffffff">Pitch</text>
<text text-anchor="middle" x="199.6968" y="-192.7495" font-family="Arial" font-size="10.00" fill="#ffffff">Class</text>
<text text-anchor="middle" x="199.6968" y="-181.2505" font-family="Arial" font-size="10.00" fill="#ffffff">Segment</text>
</a>
</g>
</g>
<!-- abjadext.microtones.et_utilities.PitchClassSet -->
<g id="node2" class="node">
<title>abjadext.microtones.et_utilities.PitchClassSet</title>
<g id="a_node2"><a xlink:href="../api/abjadext/microtones/et_utilities.html#abjadext.microtones.et_utilities.PitchClassSet" xlink:title="Pitch\nClass\nSet" target="_top">
<path fill="#000000" stroke="#000000" stroke-width="2" d="M208.2017,-156.5C208.2017,-156.5 191.1919,-156.5 191.1919,-156.5 185.1919,-156.5 179.1919,-150.5 179.1919,-144.5 179.1919,-144.5 179.1919,-125.5 179.1919,-125.5 179.1919,-119.5 185.1919,-113.5 191.1919,-113.5 191.1919,-113.5 208.2017,-113.5 208.2017,-113.5 214.2017,-113.5 220.2017,-119.5 220.2017,-125.5 220.2017,-125.5 220.2017,-144.5 220.2017,-144.5 220.2017,-150.5 214.2017,-156.5 208.2017,-156.5"/>
<text text-anchor="middle" x="199.6968" y="-144.2485" font-family="Arial" font-size="10.00" fill="#ffffff">Pitch</text>
<text text-anchor="middle" x="199.6968" y="-132.7495" font-family="Arial" font-size="10.00" fill="#ffffff">Class</text>
<text text-anchor="middle" x="199.6968" y="-121.2505" font-family="Arial" font-size="10.00" fill="#ffffff">Set</text>
</a>
</g>
</g>
<!-- abjadext.microtones.et_utilities.PitchSegment -->
<g id="node3" class="node">
<title>abjadext.microtones.et_utilities.PitchSegment</title>
<g id="a_node3"><a xlink:href="../api/abjadext/microtones/et_utilities.html#abjadext.microtones.et_utilities.PitchSegment" xlink:title="Pitch\nSegment" target="_top">
<path fill="#000000" stroke="#000000" stroke-width="2" d="M217.3892,-95.498C217.3892,-95.498 182.0044,-95.498 182.0044,-95.498 176.8384,-95.498 171.6724,-90.332 171.6724,-85.166 171.6724,-85.166 171.6724,-74.834 171.6724,-74.834 171.6724,-69.668 176.8384,-64.502 182.0044,-64.502 182.0044,-64.502 217.3892,-64.502 217.3892,-64.502 222.5552,-64.502 227.7212,-69.668 227.7212,-74.834 227.7212,-74.834 227.7212,-85.166 227.7212,-85.166 227.7212,-90.332 222.5552,-95.498 217.3892,-95.498"/>
<text text-anchor="middle" x="199.6968" y="-83.499" font-family="Arial" font-size="10.00" fill="#ffffff">Pitch</text>
<text text-anchor="middle" x="199.6968" y="-72" font-family="Arial" font-size="10.00" fill="#ffffff">Segment</text>
</a>
</g>
</g>
<!-- abjadext.microtones.et_utilities.PitchSet -->
<g id="node4" class="node">
<title>abjadext.microtones.et_utilities.PitchSet</title>
<g id="a_node4"><a xlink:href="../api/abjadext/microtones/et_utilities.html#abjadext.microtones.et_utilities.PitchSet" xlink:title="Pitch\nSet" target="_top">
<path fill="#000000" stroke="#000000" stroke-width="2" d="M208.5969,-46.498C208.5969,-46.498 190.7967,-46.498 190.7967,-46.498 185.6306,-46.498 180.4646,-41.332 180.4646,-36.166 180.4646,-36.166 180.4646,-25.834 180.4646,-25.834 180.4646,-20.668 185.6306,-15.502 190.7967,-15.502 190.7967,-15.502 208.5969,-15.502 208.5969,-15.502 213.7629,-15.502 218.9289,-20.668 218.9289,-25.834 218.9289,-25.834 218.9289,-36.166 218.9289,-36.166 218.9289,-41.332 213.7629,-46.498 208.5969,-46.498"/>
<text text-anchor="middle" x="199.6968" y="-34.499" font-family="Arial" font-size="10.00" fill="#ffffff">Pitch</text>
<text text-anchor="middle" x="199.6968" y="-23" font-family="Arial" font-size="10.00" fill="#ffffff">Set</text>
</a>
</g>
</g>
<!-- builtins.object -->
<g id="node5" class="node">
<title>builtins.object</title>
<g id="a_node5"><a xlink:href="https://docs.python.org/3.7/library/functions.html#object" xlink:title="object" target="_top">
<path fill="#b3cde3" stroke="#b3cde3" stroke-width="2" d="M51.8576,-117.0056C51.8576,-117.0056 22.8269,-117.0056 22.8269,-117.0056 19.4918,-117.0056 16.1566,-113.6704 16.1566,-110.3352 16.1566,-110.3352 16.1566,-103.6648 16.1566,-103.6648 16.1566,-100.3296 19.4918,-96.9944 22.8269,-96.9944 22.8269,-96.9944 51.8576,-96.9944 51.8576,-96.9944 55.1928,-96.9944 58.528,-100.3296 58.528,-103.6648 58.528,-103.6648 58.528,-110.3352 58.528,-110.3352 58.528,-113.6704 55.1928,-117.0056 51.8576,-117.0056"/>
<text text-anchor="middle" x="37.3423" y="-104.7495" font-family="Arial" font-size="10.00" fill="#000000">object</text>
</a>
</g>
</g>
</g>
</svg>
