<?xml version="1.0" encoding="UTF-8" standalone="no"?>
<!DOCTYPE svg PUBLIC "-//W3C//DTD SVG 1.1//EN"
 "http://www.w3.org/Graphics/SVG/1.1/DTD/svg11.dtd">
<!-- Generated by graphviz version 2.40.1 (20161225.0304)
 -->
<!-- Title: InheritanceGraph Pages: 1 -->
<svg width="634pt" height="1405pt"
 viewBox="0.00 0.00 633.99 1405.00" xmlns="http://www.w3.org/2000/svg" xmlns:xlink="http://www.w3.org/1999/xlink">
<g id="graph0" class="graph" transform="scale(1 1) rotate(0) translate(4 1401)">
<title>InheritanceGraph</title>
<g id="clust1" class="cluster">
<title>cluster_abjad.timespan</title>
<path fill="transparent" stroke="#bcd2ee" stroke-width="2" stroke-dasharray="5,2" d="M98.6846,-8C98.6846,-8 158.2197,-8 158.2197,-8 164.2197,-8 170.2197,-14 170.2197,-20 170.2197,-20 170.2197,-51 170.2197,-51 170.2197,-57 164.2197,-63 158.2197,-63 158.2197,-63 98.6846,-63 98.6846,-63 92.6846,-63 86.6846,-57 86.6846,-51 86.6846,-51 86.6846,-20 86.6846,-20 86.6846,-14 92.6846,-8 98.6846,-8"/>
<text text-anchor="middle" x="128.4521" y="-51" font-family="Arial" font-size="10.00" fill="#000000">abjad.timespan</text>
</g>
<g id="clust2" class="cluster">
<title>cluster_builtins</title>
<path fill="transparent" stroke="#bcd2ee" stroke-width="2" stroke-dasharray="5,2" d="M20,-317C20,-317 54.6846,-317 54.6846,-317 60.6846,-317 66.6846,-323 66.6846,-329 66.6846,-329 66.6846,-360 66.6846,-360 66.6846,-366 60.6846,-372 54.6846,-372 54.6846,-372 20,-372 20,-372 14,-372 8,-366 8,-360 8,-360 8,-329 8,-329 8,-323 14,-317 20,-317"/>
<text text-anchor="middle" x="37.3423" y="-360" font-family="Arial" font-size="10.00" fill="#000000">builtins</text>
</g>
<g id="clust3" class="cluster">
<title>cluster_evans.commands</title>
<path fill="transparent" stroke="#bcd2ee" stroke-width="2" stroke-dasharray="5,2" d="M428.0542,-431C428.0542,-431 498.1821,-431 498.1821,-431 504.1821,-431 510.1821,-437 510.1821,-443 510.1821,-443 510.1821,-571 510.1821,-571 510.1821,-577 504.1821,-583 498.1821,-583 498.1821,-583 428.0542,-583 428.0542,-583 422.0542,-583 416.0542,-577 416.0542,-571 416.0542,-571 416.0542,-443 416.0542,-443 416.0542,-437 422.0542,-431 428.0542,-431"/>
<text text-anchor="middle" x="463.1182" y="-571" font-family="Arial" font-size="10.00" fill="#000000">evans.commands</text>
</g>
<g id="clust4" class="cluster">
<title>cluster_evans.consort</title>
<path fill="transparent" stroke="#bcd2ee" stroke-width="2" stroke-dasharray="5,2" d="M110.0015,-1172C110.0015,-1172 605.9922,-1172 605.9922,-1172 611.9922,-1172 617.9922,-1178 617.9922,-1184 617.9922,-1184 617.9922,-1377 617.9922,-1377 617.9922,-1383 611.9922,-1389 605.9922,-1389 605.9922,-1389 110.0015,-1389 110.0015,-1389 104.0015,-1389 98.0015,-1383 98.0015,-1377 98.0015,-1377 98.0015,-1184 98.0015,-1184 98.0015,-1178 104.0015,-1172 110.0015,-1172"/>
<text text-anchor="middle" x="357.9968" y="-1377" font-family="Arial" font-size="10.00" fill="#000000">evans.consort</text>
</g>
<g id="clust5" class="cluster">
<title>cluster_evans.handlers</title>
<path fill="transparent" stroke="#bcd2ee" stroke-width="2" stroke-dasharray="5,2" d="M106.9424,-591C106.9424,-591 605.7212,-591 605.7212,-591 611.7212,-591 617.7212,-597 617.7212,-603 617.7212,-603 617.7212,-1152 617.7212,-1152 617.7212,-1158 611.7212,-1164 605.7212,-1164 605.7212,-1164 106.9424,-1164 106.9424,-1164 100.9424,-1164 94.9424,-1158 94.9424,-1152 94.9424,-1152 94.9424,-603 94.9424,-603 94.9424,-597 100.9424,-591 106.9424,-591"/>
<text text-anchor="middle" x="356.3318" y="-1152" font-family="Arial" font-size="10.00" fill="#000000">evans.handlers</text>
</g>
<g id="clust6" class="cluster">
<title>cluster_evans.rtm</title>
<path fill="transparent" stroke="#bcd2ee" stroke-width="2" stroke-dasharray="5,2" d="M205.3223,-292C205.3223,-292 262.585,-292 262.585,-292 268.585,-292 274.585,-298 274.585,-304 274.585,-304 274.585,-396 274.585,-396 274.585,-402 268.585,-408 262.585,-408 262.585,-408 205.3223,-408 205.3223,-408 199.3223,-408 193.3223,-402 193.3223,-396 193.3223,-396 193.3223,-304 193.3223,-304 193.3223,-298 199.3223,-292 205.3223,-292"/>
<text text-anchor="middle" x="233.9536" y="-396" font-family="Arial" font-size="10.00" fill="#000000">evans.rtm</text>
</g>
<g id="clust7" class="cluster">
<title>cluster_evans.segmentmaker</title>
<path fill="transparent" stroke="#bcd2ee" stroke-width="2" stroke-dasharray="5,2" d="M419.4336,-273C419.4336,-273 506.8027,-273 506.8027,-273 512.8027,-273 518.8027,-279 518.8027,-285 518.8027,-285 518.8027,-388 518.8027,-388 518.8027,-394 512.8027,-400 506.8027,-400 506.8027,-400 419.4336,-400 419.4336,-400 413.4336,-400 407.4336,-394 407.4336,-388 407.4336,-388 407.4336,-285 407.4336,-285 407.4336,-279 413.4336,-273 419.4336,-273"/>
<text text-anchor="middle" x="463.1182" y="-388" font-family="Arial" font-size="10.00" fill="#000000">evans.segmentmaker</text>
</g>
<g id="clust8" class="cluster">
<title>cluster_evans.sequence</title>
<path fill="transparent" stroke="#bcd2ee" stroke-width="2" stroke-dasharray="5,2" d="M201.562,-101C201.562,-101 266.3452,-101 266.3452,-101 272.3452,-101 278.3452,-107 278.3452,-113 278.3452,-113 278.3452,-204 278.3452,-204 278.3452,-210 272.3452,-216 266.3452,-216 266.3452,-216 201.562,-216 201.562,-216 195.562,-216 189.562,-210 189.562,-204 189.562,-204 189.562,-113 189.562,-113 189.562,-107 195.562,-101 201.562,-101"/>
<text text-anchor="middle" x="233.9536" y="-204" font-family="Arial" font-size="10.00" fill="#000000">evans.sequence</text>
</g>
<g id="clust9" class="cluster">
<title>cluster_evans.timespan</title>
<path fill="transparent" stroke="#bcd2ee" stroke-width="2" stroke-dasharray="5,2" d="M432.3506,-9C432.3506,-9 493.8857,-9 493.8857,-9 499.8857,-9 505.8857,-15 505.8857,-21 505.8857,-21 505.8857,-161 505.8857,-161 505.8857,-167 499.8857,-173 493.8857,-173 493.8857,-173 432.3506,-173 432.3506,-173 426.3506,-173 420.3506,-167 420.3506,-161 420.3506,-161 420.3506,-21 420.3506,-21 420.3506,-15 426.3506,-9 432.3506,-9"/>
<text text-anchor="middle" x="463.1182" y="-161" font-family="Arial" font-size="10.00" fill="#000000">evans.timespan</text>
</g>
<!-- abjad.timespan.Timespan&#45;&gt;evans.timespan.SilentTimespan -->
<g id="edge26" class="edge">
<title>abjad.timespan.Timespan&#45;&gt;evans.timespan.SilentTimespan</title>
<path fill="none" stroke="#778899" d="M158.1515,-26.5325C218.4351,-27.6132 355.1855,-30.0649 423.1845,-31.2841"/>
<polygon fill="#778899" stroke="#778899" points="423.4242,-34.7888 433.4853,-31.4687 423.5497,-27.7899 423.4242,-34.7888"/>
</g>
<!-- builtins.object&#45;&gt;abjad.timespan.Timespan -->
<g id="edge27" class="edge">
<title>builtins.object&#45;&gt;abjad.timespan.Timespan</title>
<path fill="none" stroke="#778899" d="M38.3568,-325.1104C42.8626,-282.3694 61.9346,-113.5838 86.6846,-67 91.5861,-57.7744 99.2874,-49.346 106.749,-42.5626"/>
<polygon fill="#778899" stroke="#778899" points="109.2519,-45.0289 114.6078,-35.8875 104.7202,-39.6937 109.2519,-45.0289"/>
</g>
<!-- builtins.object&#45;&gt;evans.commands.Command -->
<g id="edge28" class="edge">
<title>builtins.object&#45;&gt;evans.commands.Command</title>
<path fill="none" stroke="#778899" d="M39.5538,-345.0508C44.4635,-364.9938 58.1638,-409.7328 86.6846,-434 183.3238,-516.2266 346.0143,-510.6895 421.8678,-502.6782"/>
<polygon fill="#778899" stroke="#778899" points="422.433,-506.1368 431.9788,-501.5402 421.65,-499.1807 422.433,-506.1368"/>
</g>
<!-- builtins.object&#45;&gt;evans.commands.HandlerCommand -->
<g id="edge29" class="edge">
<title>builtins.object&#45;&gt;evans.commands.HandlerCommand</title>
<path fill="none" stroke="#778899" d="M42.1592,-345.1932C49.6087,-359.829 65.3258,-386.6141 86.6846,-401 190.6398,-471.0176 347.519,-466.319 421.5914,-459.2264"/>
<polygon fill="#778899" stroke="#778899" points="422.3114,-462.6711 431.9031,-458.1712 421.5988,-455.7075 422.3114,-462.6711"/>
</g>
<!-- builtins.object&#45;&gt;evans.commands.RhythmCommand -->
<g id="edge30" class="edge">
<title>builtins.object&#45;&gt;evans.commands.RhythmCommand</title>
<path fill="none" stroke="#778899" d="M38.1511,-345.0567C40.6754,-369.8772 50.5582,-434.664 86.6846,-471 176.8377,-561.6762 344.1792,-555.0145 421.7079,-546.1188"/>
<polygon fill="#778899" stroke="#778899" points="422.5318,-549.5443 432.0341,-544.8587 421.6838,-542.5959 422.5318,-549.5443"/>
</g>
<!-- builtins.object&#45;&gt;evans.consort.AbjadObject.AbjadObject -->
<g id="edge31" class="edge">
<title>builtins.object&#45;&gt;evans.consort.AbjadObject.AbjadObject</title>
<path fill="none" stroke="#778899" d="M37.4357,-344.8042C38.2903,-426.8964 45.6843,-1000.9222 86.6846,-1168 92.6474,-1192.2989 104.7604,-1218.1193 114.4133,-1236.3719"/>
<polygon fill="#778899" stroke="#778899" points="111.3462,-1238.0582 119.1913,-1245.1789 117.499,-1234.7201 111.3462,-1238.0582"/>
</g>
<!-- builtins.object&#45;&gt;evans.handlers.Handler -->
<g id="edge32" class="edge">
<title>builtins.object&#45;&gt;evans.handlers.Handler</title>
<path fill="none" stroke="#778899" d="M39.081,-344.7707C50.0526,-406.4269 109.7187,-741.7258 124.9244,-827.1755"/>
<polygon fill="#778899" stroke="#778899" points="121.4973,-827.8946 126.6952,-837.1267 128.389,-826.6681 121.4973,-827.8946"/>
</g>
<!-- builtins.object&#45;&gt;evans.rtm.RTMMaker -->
<g id="edge33" class="edge">
<title>builtins.object&#45;&gt;evans.rtm.RTMMaker</title>
<path fill="none" stroke="#778899" d="M58.7574,-332.277C90.4114,-328.252 150.3425,-320.6315 191.2058,-315.4356"/>
<polygon fill="#778899" stroke="#778899" points="191.6765,-318.904 201.1551,-314.1705 190.7935,-311.9599 191.6765,-318.904"/>
</g>
<!-- builtins.object&#45;&gt;evans.rtm.RhythmTreeQuantizer -->
<g id="edge34" class="edge">
<title>builtins.object&#45;&gt;evans.rtm.RhythmTreeQuantizer</title>
<path fill="none" stroke="#778899" d="M58.7574,-337.6141C91.1683,-341.5704 153.225,-349.1456 194.1039,-354.1356"/>
<polygon fill="#778899" stroke="#778899" points="193.9139,-357.6383 204.2644,-355.3759 194.7622,-350.6899 193.9139,-357.6383"/>
</g>
<!-- builtins.object&#45;&gt;evans.segmentmaker.NoteheadBracketMaker -->
<g id="edge35" class="edge">
<title>builtins.object&#45;&gt;evans.segmentmaker.NoteheadBracketMaker</title>
<path fill="none" stroke="#778899" d="M51.1574,-344.833C76.8869,-362.4726 134.5396,-398.8753 189.562,-412 272.8344,-431.8632 370.8533,-395.6131 424.0188,-370.996"/>
<polygon fill="#778899" stroke="#778899" points="425.5537,-374.1418 433.0972,-366.7023 422.5608,-367.8139 425.5537,-374.1418"/>
</g>
<!-- builtins.object&#45;&gt;evans.segmentmaker.SegmentMaker -->
<g id="edge36" class="edge">
<title>builtins.object&#45;&gt;evans.segmentmaker.SegmentMaker</title>
<path fill="none" stroke="#778899" d="M58.679,-325.0648C67.2655,-321.2927 77.3325,-317.1507 86.6846,-314 131.3772,-298.9429 142.7619,-293.8223 189.562,-288 273.1045,-277.6066 372.0497,-285.433 425.0545,-291.237"/>
<polygon fill="#778899" stroke="#778899" points="424.6947,-294.7185 435.0247,-292.3648 425.4815,-287.7629 424.6947,-294.7185"/>
</g>
<!-- builtins.object&#45;&gt;evans.sequence.CyclicList -->
<g id="edge37" class="edge">
<title>builtins.object&#45;&gt;evans.sequence.CyclicList</title>
<path fill="none" stroke="#778899" d="M39.2588,-324.9948C45.4132,-293.8034 65.5112,-199.0987 86.6846,-177 117.5575,-144.778 169.4262,-132.0861 202.6474,-127.1273"/>
<polygon fill="#778899" stroke="#778899" points="203.2826,-130.5735 212.728,-125.774 202.3512,-123.6357 203.2826,-130.5735"/>
</g>
<!-- builtins.object&#45;&gt;evans.sequence.MarkovChain -->
<g id="edge38" class="edge">
<title>builtins.object&#45;&gt;evans.sequence.MarkovChain</title>
<path fill="none" stroke="#778899" d="M38.7746,-325.0918C42.4946,-302.9692 54.5158,-249.2087 86.6846,-220 118.0605,-191.5112 166.7628,-180.2854 199.4783,-175.8653"/>
<polygon fill="#778899" stroke="#778899" points="199.9877,-179.3293 209.4962,-174.656 199.1488,-172.3797 199.9877,-179.3293"/>
</g>
<!-- builtins.object&#45;&gt;evans.timespan.TimespanMaker -->
<g id="edge39" class="edge">
<title>builtins.object&#45;&gt;evans.timespan.TimespanMaker</title>
<path fill="none" stroke="#778899" d="M38.4274,-325.2319C42.6909,-288.5159 59.4115,-159.3757 86.6846,-130 173.9075,-36.0526 345.9122,-56.5836 423.5016,-71.8645"/>
<polygon fill="#778899" stroke="#778899" points="422.867,-75.307 433.3653,-73.8801 424.2685,-68.4488 422.867,-75.307"/>
</g>
<!-- builtins.object&#45;&gt;evans.timespan.TimespanSpecifier -->
<g id="edge40" class="edge">
<title>builtins.object&#45;&gt;evans.timespan.TimespanSpecifier</title>
<path fill="none" stroke="#778899" d="M45.0413,-325.0165C53.9747,-314.0496 69.6708,-296.5906 86.6846,-286 163.1689,-238.3907 195.1028,-254.4559 278.3452,-220 330.1657,-198.5503 388.0072,-169.5123 424.9411,-150.2902"/>
<polygon fill="#778899" stroke="#778899" points="426.6237,-153.3601 433.8642,-145.6254 423.3806,-147.1567 426.6237,-153.3601"/>
</g>
<!-- evans.consort.AbjadObject.AbjadObject&#45;&gt;evans.consort.AbjadValueObject.AbjadValueObject -->
<g id="edge1" class="edge">
<title>evans.consort.AbjadObject.AbjadObject&#45;&gt;evans.consort.AbjadValueObject.AbjadValueObject</title>
<path fill="none" stroke="#778899" d="M151.0849,-1248.1285C166.1042,-1239.5868 186.0223,-1228.2592 202.5666,-1218.8502"/>
<polygon fill="#778899" stroke="#778899" points="204.396,-1221.8363 211.3583,-1213.8502 200.9355,-1215.7514 204.396,-1221.8363"/>
</g>
<!-- evans.consort.AbjadObject.AbjadObject&#45;&gt;evans.consort.LogicalTieCollection.LogicalTieCollection -->
<g id="edge2" class="edge">
<title>evans.consort.AbjadObject.AbjadObject&#45;&gt;evans.consort.LogicalTieCollection.LogicalTieCollection</title>
<path fill="none" stroke="#778899" d="M151.1901,-1256.7193C186.9442,-1249.9881 256.7856,-1236.8396 301.0293,-1228.5102"/>
<polygon fill="#778899" stroke="#778899" points="301.6944,-1231.9465 310.8742,-1226.6568 300.3992,-1225.0674 301.6944,-1231.9465"/>
</g>
<!-- evans.consort.AbjadObject.AbjadObject&#45;&gt;evans.consort.RatioPartsExpression.RatioPartsExpression -->
<g id="edge3" class="edge">
<title>evans.consort.AbjadObject.AbjadObject&#45;&gt;evans.consort.RatioPartsExpression.RatioPartsExpression</title>
<path fill="none" stroke="#778899" d="M151.0263,-1260.6484C194.6058,-1259.8458 293.3387,-1257.4244 376.1553,-1251 390.4026,-1249.8948 405.9163,-1248.2523 419.8438,-1246.6164"/>
<polygon fill="#778899" stroke="#778899" points="420.6286,-1250.0472 430.1379,-1245.3757 419.7909,-1243.0975 420.6286,-1250.0472"/>
</g>
<!-- evans.consort.AbjadObject.AbjadObject&#45;&gt;evans.consort.TimespanCollection.TimespanCollection -->
<g id="edge4" class="edge">
<title>evans.consort.AbjadObject.AbjadObject&#45;&gt;evans.consort.TimespanCollection.TimespanCollection</title>
<path fill="none" stroke="#778899" d="M151.1558,-1262.0055C223.2288,-1265.1975 447.5211,-1275.1311 539.7787,-1279.217"/>
<polygon fill="#778899" stroke="#778899" points="539.6957,-1282.7167 549.8408,-1279.6627 540.0055,-1275.7236 539.6957,-1282.7167"/>
</g>
<!-- evans.consort.AbjadObject.AbjadObject&#45;&gt;evans.consort.TimespanCollectionNode.TimespanCollectionNode -->
<g id="edge5" class="edge">
<title>evans.consort.AbjadObject.AbjadObject&#45;&gt;evans.consort.TimespanCollectionNode.TimespanCollectionNode</title>
<path fill="none" stroke="#778899" d="M151.0849,-1273.8715C163.8204,-1281.1144 180.0783,-1290.3604 194.8148,-1298.7413"/>
<polygon fill="#778899" stroke="#778899" points="193.3259,-1301.9209 203.7487,-1303.8221 196.7864,-1295.8361 193.3259,-1301.9209"/>
</g>
<!-- evans.consort.AbjadObject.AbjadObject&#45;&gt;evans.consort.TimespanSimultaneity.TimespanSimultaneity -->
<g id="edge6" class="edge">
<title>evans.consort.AbjadObject.AbjadObject&#45;&gt;evans.consort.TimespanSimultaneity.TimespanSimultaneity</title>
<path fill="none" stroke="#778899" d="M133.7409,-1276.5911C141.9151,-1297.899 159.8549,-1335.2631 189.562,-1351 222.0571,-1368.2138 264.2244,-1365.1259 295.7959,-1358.7816"/>
<polygon fill="#778899" stroke="#778899" points="296.6259,-1362.1829 305.6483,-1356.6289 295.1317,-1355.3442 296.6259,-1362.1829"/>
</g>
<!-- evans.handlers.Handler&#45;&gt;evans.handlers.ArticulationHandler -->
<g id="edge7" class="edge">
<title>evans.handlers.Handler&#45;&gt;evans.handlers.ArticulationHandler</title>
<path fill="none" stroke="#778899" d="M129.0563,-837.0068C131.4247,-805.4186 142.433,-706.09 189.562,-643 191.3697,-640.58 193.4434,-638.304 195.685,-636.1748"/>
<polygon fill="#778899" stroke="#778899" points="198.3021,-638.5548 203.8116,-629.5051 193.8612,-633.1438 198.3021,-638.5548"/>
</g>
<!-- evans.handlers.Handler&#45;&gt;evans.handlers.BendHandler -->
<g id="edge8" class="edge">
<title>evans.handlers.Handler&#45;&gt;evans.handlers.BendHandler</title>
<path fill="none" stroke="#778899" d="M130.3627,-837.1661C137.2855,-802.5429 162.0984,-687.0739 189.562,-663 206.4154,-648.2267 266.031,-640.3697 305.2231,-636.7035"/>
<polygon fill="#778899" stroke="#778899" points="305.5439,-640.1888 315.1956,-635.819 304.9254,-633.2162 305.5439,-640.1888"/>
</g>
<!-- evans.handlers.Handler&#45;&gt;evans.handlers.BisbigliandoHandler -->
<g id="edge9" class="edge">
<title>evans.handlers.Handler&#45;&gt;evans.handlers.BisbigliandoHandler</title>
<path fill="none" stroke="#778899" d="M130.7728,-836.8149C138.4306,-804.1413 163.8754,-702.9299 189.562,-683 207.1844,-669.327 344.7602,-660.1664 417.8365,-656.2136"/>
<polygon fill="#778899" stroke="#778899" points="418.3275,-659.6926 428.1283,-655.6683 417.957,-652.7024 418.3275,-659.6926"/>
</g>
<!-- evans.handlers.Handler&#45;&gt;evans.handlers.BowAngleHandler -->
<g id="edge10" class="edge">
<title>evans.handlers.Handler&#45;&gt;evans.handlers.BowAngleHandler</title>
<path fill="none" stroke="#778899" d="M129.0104,-837.1312C131.166,-809.4902 141.4527,-731.1678 189.562,-698 218.2937,-678.1916 453.2909,-683.7733 544.2602,-686.7204"/>
<polygon fill="#778899" stroke="#778899" points="544.2558,-690.2221 554.3666,-687.0563 544.4884,-683.226 544.2558,-690.2221"/>
</g>
<!-- evans.handlers.Handler&#45;&gt;evans.handlers.ClefHandler -->
<g id="edge11" class="edge">
<title>evans.handlers.Handler&#45;&gt;evans.handlers.ClefHandler</title>
<path fill="none" stroke="#778899" d="M133.001,-837.0589C141.8557,-818.4904 162.8979,-777.9808 189.562,-751 192.7044,-747.8203 196.2521,-744.8033 199.9381,-742.0019"/>
<polygon fill="#778899" stroke="#778899" points="201.9661,-744.8545 208.1249,-736.2336 197.9343,-739.1322 201.9661,-744.8545"/>
</g>
<!-- evans.handlers.Handler&#45;&gt;evans.handlers.CompositeHandler -->
<g id="edge12" class="edge">
<title>evans.handlers.Handler&#45;&gt;evans.handlers.CompositeHandler</title>
<path fill="none" stroke="#778899" d="M133.3229,-837.2341C142.114,-820.702 162.2848,-787.4041 189.562,-771 207.5861,-760.1605 260.5589,-751.6971 298.7558,-746.7796"/>
<polygon fill="#778899" stroke="#778899" points="299.6073,-750.2005 309.0961,-745.4876 298.7393,-743.2545 299.6073,-750.2005"/>
</g>
<!-- evans.handlers.Handler&#45;&gt;evans.handlers.DynamicHandler -->
<g id="edge13" class="edge">
<title>evans.handlers.Handler&#45;&gt;evans.handlers.DynamicHandler</title>
<path fill="none" stroke="#778899" d="M135.8617,-837.0624C146.2485,-823.9768 166.4747,-801.4129 189.562,-791 210.5774,-781.5216 355.5151,-769.8435 425.4829,-764.6761"/>
<polygon fill="#778899" stroke="#778899" points="425.9208,-768.1535 435.6387,-763.933 425.4099,-761.1722 425.9208,-768.1535"/>
</g>
<!-- evans.handlers.Handler&#45;&gt;evans.handlers.GettatoHandler -->
<g id="edge14" class="edge">
<title>evans.handlers.Handler&#45;&gt;evans.handlers.GettatoHandler</title>
<path fill="none" stroke="#778899" d="M139.1423,-837.0159C150.6076,-827.0302 169.8406,-812.2798 189.562,-806 254.936,-785.1833 460.9151,-791.0266 544.3846,-794.3904"/>
<polygon fill="#778899" stroke="#778899" points="544.2651,-797.8884 554.4016,-794.8062 544.5554,-790.8944 544.2651,-797.8884"/>
</g>
<!-- evans.handlers.Handler&#45;&gt;evans.handlers.GlissandoHandler -->
<g id="edge15" class="edge">
<title>evans.handlers.Handler&#45;&gt;evans.handlers.GlissandoHandler</title>
<path fill="none" stroke="#778899" d="M153.9911,-842.8848C165.8486,-840.9741 180.2321,-838.6564 193.513,-836.5164"/>
<polygon fill="#778899" stroke="#778899" points="194.0781,-839.9706 203.394,-834.9242 192.9645,-833.0597 194.0781,-839.9706"/>
</g>
<!-- evans.handlers.Handler&#45;&gt;evans.handlers.GraceHandler -->
<g id="edge16" class="edge">
<title>evans.handlers.Handler&#45;&gt;evans.handlers.GraceHandler</title>
<path fill="none" stroke="#778899" d="M153.9664,-850.5801C164.9025,-851.9439 177.8345,-853.3305 189.562,-854 228.9571,-856.249 238.9061,-855.2592 278.3452,-854 287.1041,-853.7203 296.542,-853.221 305.3658,-852.6679"/>
<polygon fill="#778899" stroke="#778899" points="305.6187,-856.1589 315.3647,-852.0037 305.1547,-849.1743 305.6187,-856.1589"/>
</g>
<!-- evans.handlers.Handler&#45;&gt;evans.handlers.IntermittentVoiceHandler -->
<g id="edge17" class="edge">
<title>evans.handlers.Handler&#45;&gt;evans.handlers.IntermittentVoiceHandler</title>
<path fill="none" stroke="#778899" d="M154.2539,-852.4553C165.1245,-854.6525 177.9297,-857.1087 189.562,-859 271.6815,-872.3518 293.0937,-878.76 376.1553,-874 390.3011,-873.1893 405.6779,-871.6428 419.5127,-870.0038"/>
<polygon fill="#778899" stroke="#778899" points="420.2488,-873.4397 429.7458,-868.7432 419.3929,-866.4922 420.2488,-873.4397"/>
</g>
<!-- evans.handlers.Handler&#45;&gt;evans.handlers.NoteheadHandler -->
<g id="edge18" class="edge">
<title>evans.handlers.Handler&#45;&gt;evans.handlers.NoteheadHandler</title>
<path fill="none" stroke="#778899" d="M150.3819,-856.7797C161.8404,-861.4955 176.2221,-866.8083 189.562,-870 314.8285,-899.971 468.3241,-904.2092 539.8219,-904.3827"/>
<polygon fill="#778899" stroke="#778899" points="540.1706,-907.8827 550.1697,-904.3802 540.1688,-900.8827 540.1706,-907.8827"/>
</g>
<!-- evans.handlers.Handler&#45;&gt;evans.handlers.OnBeatGraceHandler -->
<g id="edge19" class="edge">
<title>evans.handlers.Handler&#45;&gt;evans.handlers.OnBeatGraceHandler</title>
<path fill="none" stroke="#778899" d="M137.84,-856.8052C149.719,-869.1468 170.8846,-890.9193 189.562,-909 193.2367,-912.5572 197.1216,-916.2465 201.0034,-919.8884"/>
<polygon fill="#778899" stroke="#778899" points="198.7058,-922.5314 208.4086,-926.7867 203.4772,-917.4095 198.7058,-922.5314"/>
</g>
<!-- evans.handlers.Handler&#45;&gt;evans.handlers.PitchHandler -->
<g id="edge20" class="edge">
<title>evans.handlers.Handler&#45;&gt;evans.handlers.PitchHandler</title>
<path fill="none" stroke="#778899" d="M129.2894,-857.0497C132.1145,-883.7005 143.8674,-956.1735 189.562,-986 223.8254,-1008.3649 272.3794,-1002.0542 305.1791,-993.6707"/>
<polygon fill="#778899" stroke="#778899" points="306.52,-996.9321 315.2366,-990.9097 304.6668,-990.1819 306.52,-996.9321"/>
</g>
<!-- evans.handlers.Handler&#45;&gt;evans.handlers.RhythmHandler -->
<g id="edge21" class="edge">
<title>evans.handlers.Handler&#45;&gt;evans.handlers.RhythmHandler</title>
<path fill="none" stroke="#778899" d="M129.037,-856.891C131.2626,-884.6129 141.7157,-963.2965 189.562,-998 260.5059,-1049.4565 371.2949,-1028.815 427.6357,-1013.2751"/>
<polygon fill="#778899" stroke="#778899" points="428.8496,-1016.5683 437.5002,-1010.4514 426.9231,-1009.8386 428.8496,-1016.5683"/>
</g>
<!-- evans.handlers.Handler&#45;&gt;evans.handlers.SlurHandler -->
<g id="edge22" class="edge">
<title>evans.handlers.Handler&#45;&gt;evans.handlers.SlurHandler</title>
<path fill="none" stroke="#778899" d="M130.6076,-857.135C137.9469,-890.6501 162.9878,-996.9669 189.562,-1018 243.7085,-1060.8562 458.5352,-1046.9493 544.3518,-1039.445"/>
<polygon fill="#778899" stroke="#778899" points="544.7483,-1042.9236 554.3955,-1038.544 544.1227,-1035.9516 544.7483,-1042.9236"/>
</g>
<!-- evans.handlers.Handler&#45;&gt;evans.handlers.TempoSpannerHandler -->
<g id="edge23" class="edge">
<title>evans.handlers.Handler&#45;&gt;evans.handlers.TempoSpannerHandler</title>
<path fill="none" stroke="#778899" d="M129.4785,-856.7628C133.035,-886.7782 147.0358,-979.3902 189.562,-1041 192.3426,-1045.0284 195.7247,-1048.8156 199.3683,-1052.3027"/>
<polygon fill="#778899" stroke="#778899" points="197.2601,-1055.1073 207.1059,-1059.02 201.8491,-1049.8213 197.2601,-1055.1073"/>
</g>
<!-- evans.handlers.Handler&#45;&gt;evans.handlers.TextSpanHandler -->
<g id="edge24" class="edge">
<title>evans.handlers.Handler&#45;&gt;evans.handlers.TextSpanHandler</title>
<path fill="none" stroke="#778899" d="M129.1995,-856.9138C132.7048,-900.4517 149.0799,-1073.9579 189.562,-1106 222.1235,-1131.7728 271.9994,-1122.0011 305.5052,-1110.6947"/>
<polygon fill="#778899" stroke="#778899" points="307.1052,-1113.8396 315.3407,-1107.1742 304.7462,-1107.249 307.1052,-1113.8396"/>
</g>
<!-- evans.handlers.Handler&#45;&gt;evans.handlers.TrillHandler -->
<g id="edge25" class="edge">
<title>evans.handlers.Handler&#45;&gt;evans.handlers.TrillHandler</title>
<path fill="none" stroke="#778899" d="M129.1427,-857.0409C132.4536,-901.9679 148.2772,-1083.8718 189.562,-1119 256.7841,-1176.1976 370.57,-1151.4046 427.8885,-1133.5194"/>
<polygon fill="#778899" stroke="#778899" points="429.1382,-1136.7939 437.58,-1130.3918 426.9883,-1130.1322 429.1382,-1136.7939"/>
</g>
<!-- abjad.timespan.Timespan -->
<g id="node1" class="node">
<title>abjad.timespan.Timespan</title>
<path fill="#fbb4ae" stroke="#fbb4ae" stroke-width="2" d="M151.3187,-36.0056C151.3187,-36.0056 105.5856,-36.0056 105.5856,-36.0056 102.2504,-36.0056 98.9152,-32.6704 98.9152,-29.3352 98.9152,-29.3352 98.9152,-22.6648 98.9152,-22.6648 98.9152,-19.3296 102.2504,-15.9944 105.5856,-15.9944 105.5856,-15.9944 151.3187,-15.9944 151.3187,-15.9944 154.6539,-15.9944 157.9891,-19.3296 157.9891,-22.6648 157.9891,-22.6648 157.9891,-29.3352 157.9891,-29.3352 157.9891,-32.6704 154.6539,-36.0056 151.3187,-36.0056"/>
<text text-anchor="middle" x="128.4521" y="-23.7495" font-family="Arial" font-size="10.00" fill="#000000">Timespan</text>
</g>
<!-- builtins.object -->
<g id="node2" class="node">
<title>builtins.object</title>
<g id="a_node2"><a xlink:href="https://docs.python.org/3.7/library/functions.html#object" xlink:title="object" target="_top">
<path fill="#b3cde3" stroke="#b3cde3" stroke-width="2" d="M51.8576,-345.0056C51.8576,-345.0056 22.8269,-345.0056 22.8269,-345.0056 19.4918,-345.0056 16.1566,-341.6704 16.1566,-338.3352 16.1566,-338.3352 16.1566,-331.6648 16.1566,-331.6648 16.1566,-328.3296 19.4918,-324.9944 22.8269,-324.9944 22.8269,-324.9944 51.8576,-324.9944 51.8576,-324.9944 55.1928,-324.9944 58.528,-328.3296 58.528,-331.6648 58.528,-331.6648 58.528,-338.3352 58.528,-338.3352 58.528,-341.6704 55.1928,-345.0056 51.8576,-345.0056"/>
<text text-anchor="middle" x="37.3423" y="-332.7495" font-family="Arial" font-size="10.00" fill="#000000">object</text>
</a>
</g>
</g>
<!-- evans.commands.Command -->
<g id="node3" class="node">
<title>evans.commands.Command</title>
<g id="a_node3"><a xlink:href="../api/evans/commands.html#evans.commands.Command" xlink:title="Command" target="_top">
<path fill="#ccebc5" stroke="#ccebc5" stroke-width="2" d="M487.5758,-507.0056C487.5758,-507.0056 438.6605,-507.0056 438.6605,-507.0056 435.3253,-507.0056 431.9901,-503.6704 431.9901,-500.3352 431.9901,-500.3352 431.9901,-493.6648 431.9901,-493.6648 431.9901,-490.3296 435.3253,-486.9944 438.6605,-486.9944 438.6605,-486.9944 487.5758,-486.9944 487.5758,-486.9944 490.911,-486.9944 494.2462,-490.3296 494.2462,-493.6648 494.2462,-493.6648 494.2462,-500.3352 494.2462,-500.3352 494.2462,-503.6704 490.911,-507.0056 487.5758,-507.0056"/>
<text text-anchor="middle" x="463.1182" y="-494.7495" font-family="Arial" font-size="10.00" fill="#000000">Command</text>
</a>
</g>
</g>
<!-- evans.commands.HandlerCommand -->
<g id="node4" class="node">
<title>evans.commands.HandlerCommand</title>
<g id="a_node4"><a xlink:href="../api/evans/commands.html#evans.commands.HandlerCommand" xlink:title="Handler\nCommand" target="_top">
<path fill="#ccebc5" stroke="#ccebc5" stroke-width="2" d="M483.9142,-469.498C483.9142,-469.498 442.3221,-469.498 442.3221,-469.498 437.1561,-469.498 431.9901,-464.332 431.9901,-459.166 431.9901,-459.166 431.9901,-448.834 431.9901,-448.834 431.9901,-443.668 437.1561,-438.502 442.3221,-438.502 442.3221,-438.502 483.9142,-438.502 483.9142,-438.502 489.0802,-438.502 494.2462,-443.668 494.2462,-448.834 494.2462,-448.834 494.2462,-459.166 494.2462,-459.166 494.2462,-464.332 489.0802,-469.498 483.9142,-469.498"/>
<text text-anchor="middle" x="463.1182" y="-457.499" font-family="Arial" font-size="10.00" fill="#000000">Handler</text>
<text text-anchor="middle" x="463.1182" y="-446" font-family="Arial" font-size="10.00" fill="#000000">Command</text>
</a>
</g>
</g>
<!-- evans.commands.RhythmCommand -->
<g id="node5" class="node">
<title>evans.commands.RhythmCommand</title>
<g id="a_node5"><a xlink:href="../api/evans/commands.html#evans.commands.RhythmCommand" xlink:title="Rhythm\nCommand" target="_top">
<path fill="#ccebc5" stroke="#ccebc5" stroke-width="2" d="M483.9142,-555.498C483.9142,-555.498 442.3221,-555.498 442.3221,-555.498 437.1561,-555.498 431.9901,-550.332 431.9901,-545.166 431.9901,-545.166 431.9901,-534.834 431.9901,-534.834 431.9901,-529.668 437.1561,-524.502 442.3221,-524.502 442.3221,-524.502 483.9142,-524.502 483.9142,-524.502 489.0802,-524.502 494.2462,-529.668 494.2462,-534.834 494.2462,-534.834 494.2462,-545.166 494.2462,-545.166 494.2462,-550.332 489.0802,-555.498 483.9142,-555.498"/>
<text text-anchor="middle" x="463.1182" y="-543.499" font-family="Arial" font-size="10.00" fill="#000000">Rhythm</text>
<text text-anchor="middle" x="463.1182" y="-532" font-family="Arial" font-size="10.00" fill="#000000">Command</text>
</a>
</g>
</g>
<!-- evans.consort.AbjadObject.AbjadObject -->
<g id="node6" class="node">
<title>evans.consort.AbjadObject.AbjadObject</title>
<g id="a_node6"><a xlink:href="../api/evans/consort/AbjadObject.html#evans.consort.AbjadObject.AbjadObject" xlink:title="Abjad\nObject" target="_top">
<path fill="#decbe4" stroke="#decbe4" stroke-width="2" d="M140.5216,-1276.498C140.5216,-1276.498 116.3827,-1276.498 116.3827,-1276.498 111.2167,-1276.498 106.0507,-1271.332 106.0507,-1266.166 106.0507,-1266.166 106.0507,-1255.834 106.0507,-1255.834 106.0507,-1250.668 111.2167,-1245.502 116.3827,-1245.502 116.3827,-1245.502 140.5216,-1245.502 140.5216,-1245.502 145.6876,-1245.502 150.8536,-1250.668 150.8536,-1255.834 150.8536,-1255.834 150.8536,-1266.166 150.8536,-1266.166 150.8536,-1271.332 145.6876,-1276.498 140.5216,-1276.498"/>
<text text-anchor="middle" x="128.4521" y="-1264.499" font-family="Arial" font-size="10.00" fill="#000000">Abjad</text>
<text text-anchor="middle" x="128.4521" y="-1253" font-family="Arial" font-size="10.00" fill="#000000">Object</text>
</a>
</g>
</g>
<!-- evans.consort.AbjadValueObject.AbjadValueObject -->
<g id="node7" class="node">
<title>evans.consort.AbjadValueObject.AbjadValueObject</title>
<g id="a_node7"><a xlink:href="../api/evans/consort/AbjadValueObject.html#evans.consort.AbjadValueObject.AbjadValueObject" xlink:title="Abjad\nValue\nObject" target="_top">
<path fill="#decbe4" stroke="#decbe4" stroke-width="2" d="M244.3551,-1222.5C244.3551,-1222.5 223.5521,-1222.5 223.5521,-1222.5 217.5521,-1222.5 211.5521,-1216.5 211.5521,-1210.5 211.5521,-1210.5 211.5521,-1191.5 211.5521,-1191.5 211.5521,-1185.5 217.5521,-1179.5 223.5521,-1179.5 223.5521,-1179.5 244.3551,-1179.5 244.3551,-1179.5 250.3551,-1179.5 256.3551,-1185.5 256.3551,-1191.5 256.3551,-1191.5 256.3551,-1210.5 256.3551,-1210.5 256.3551,-1216.5 250.3551,-1222.5 244.3551,-1222.5"/>
<text text-anchor="middle" x="233.9536" y="-1210.2485" font-family="Arial" font-size="10.00" fill="#000000">Abjad</text>
<text text-anchor="middle" x="233.9536" y="-1198.7495" font-family="Arial" font-size="10.00" fill="#000000">Value</text>
<text text-anchor="middle" x="233.9536" y="-1187.2505" font-family="Arial" font-size="10.00" fill="#000000">Object</text>
</a>
</g>
</g>
<!-- evans.consort.LogicalTieCollection.LogicalTieCollection -->
<g id="node8" class="node">
<title>evans.consort.LogicalTieCollection.LogicalTieCollection</title>
<g id="a_node8"><a xlink:href="../api/evans/consort/LogicalTieCollection.html#evans.consort.LogicalTieCollection.LogicalTieCollection" xlink:title="Logical\nTie\nCollection" target="_top">
<path fill="#decbe4" stroke="#decbe4" stroke-width="2" d="M358.8326,-1242.5C358.8326,-1242.5 323.0102,-1242.5 323.0102,-1242.5 317.0102,-1242.5 311.0102,-1236.5 311.0102,-1230.5 311.0102,-1230.5 311.0102,-1211.5 311.0102,-1211.5 311.0102,-1205.5 317.0102,-1199.5 323.0102,-1199.5 323.0102,-1199.5 358.8326,-1199.5 358.8326,-1199.5 364.8326,-1199.5 370.8326,-1205.5 370.8326,-1211.5 370.8326,-1211.5 370.8326,-1230.5 370.8326,-1230.5 370.8326,-1236.5 364.8326,-1242.5 358.8326,-1242.5"/>
<text text-anchor="middle" x="340.9214" y="-1230.2485" font-family="Arial" font-size="10.00" fill="#000000">Logical</text>
<text text-anchor="middle" x="340.9214" y="-1218.7495" font-family="Arial" font-size="10.00" fill="#000000">Tie</text>
<text text-anchor="middle" x="340.9214" y="-1207.2505" font-family="Arial" font-size="10.00" fill="#000000">Collection</text>
</a>
</g>
</g>
<!-- evans.consort.RatioPartsExpression.RatioPartsExpression -->
<g id="node9" class="node">
<title>evans.consort.RatioPartsExpression.RatioPartsExpression</title>
<g id="a_node9"><a xlink:href="../api/evans/consort/RatioPartsExpression.html#evans.consort.RatioPartsExpression.RatioPartsExpression" xlink:title="Ratio\nParts\nExpression" target="_top">
<path fill="#decbe4" stroke="#decbe4" stroke-width="2" d="M484.0876,-1262.5C484.0876,-1262.5 442.1487,-1262.5 442.1487,-1262.5 436.1487,-1262.5 430.1487,-1256.5 430.1487,-1250.5 430.1487,-1250.5 430.1487,-1231.5 430.1487,-1231.5 430.1487,-1225.5 436.1487,-1219.5 442.1487,-1219.5 442.1487,-1219.5 484.0876,-1219.5 484.0876,-1219.5 490.0876,-1219.5 496.0876,-1225.5 496.0876,-1231.5 496.0876,-1231.5 496.0876,-1250.5 496.0876,-1250.5 496.0876,-1256.5 490.0876,-1262.5 484.0876,-1262.5"/>
<text text-anchor="middle" x="463.1182" y="-1250.2485" font-family="Arial" font-size="10.00" fill="#000000">Ratio</text>
<text text-anchor="middle" x="463.1182" y="-1238.7495" font-family="Arial" font-size="10.00" fill="#000000">Parts</text>
<text text-anchor="middle" x="463.1182" y="-1227.2505" font-family="Arial" font-size="10.00" fill="#000000">Expression</text>
</a>
</g>
</g>
<!-- evans.consort.TimespanCollection.TimespanCollection -->
<g id="node10" class="node">
<title>evans.consort.TimespanCollection.TimespanCollection</title>
<g id="a_node10"><a xlink:href="../api/evans/consort/TimespanCollection.html#evans.consort.TimespanCollection.TimespanCollection" xlink:title="Timespan\nCollection" target="_top">
<path fill="#decbe4" stroke="#decbe4" stroke-width="2" d="M599.6158,-1296.498C599.6158,-1296.498 560.4575,-1296.498 560.4575,-1296.498 555.2914,-1296.498 550.1254,-1291.332 550.1254,-1286.166 550.1254,-1286.166 550.1254,-1275.834 550.1254,-1275.834 550.1254,-1270.668 555.2914,-1265.502 560.4575,-1265.502 560.4575,-1265.502 599.6158,-1265.502 599.6158,-1265.502 604.7818,-1265.502 609.9478,-1270.668 609.9478,-1275.834 609.9478,-1275.834 609.9478,-1286.166 609.9478,-1286.166 609.9478,-1291.332 604.7818,-1296.498 599.6158,-1296.498"/>
<text text-anchor="middle" x="580.0366" y="-1284.499" font-family="Arial" font-size="10.00" fill="#000000">Timespan</text>
<text text-anchor="middle" x="580.0366" y="-1273" font-family="Arial" font-size="10.00" fill="#000000">Collection</text>
</a>
</g>
</g>
<!-- evans.consort.TimespanCollectionNode.TimespanCollectionNode -->
<g id="node11" class="node">
<title>evans.consort.TimespanCollectionNode.TimespanCollectionNode</title>
<g id="a_node11"><a xlink:href="../api/evans/consort/TimespanCollectionNode.html#evans.consort.TimespanCollectionNode.TimespanCollectionNode" xlink:title="Timespan\nCollection\nNode" target="_top">
<path fill="#decbe4" stroke="#decbe4" stroke-width="2" d="M251.8648,-1342.5C251.8648,-1342.5 216.0424,-1342.5 216.0424,-1342.5 210.0424,-1342.5 204.0424,-1336.5 204.0424,-1330.5 204.0424,-1330.5 204.0424,-1311.5 204.0424,-1311.5 204.0424,-1305.5 210.0424,-1299.5 216.0424,-1299.5 216.0424,-1299.5 251.8648,-1299.5 251.8648,-1299.5 257.8648,-1299.5 263.8648,-1305.5 263.8648,-1311.5 263.8648,-1311.5 263.8648,-1330.5 263.8648,-1330.5 263.8648,-1336.5 257.8648,-1342.5 251.8648,-1342.5"/>
<text text-anchor="middle" x="233.9536" y="-1330.2485" font-family="Arial" font-size="10.00" fill="#000000">Timespan</text>
<text text-anchor="middle" x="233.9536" y="-1318.7495" font-family="Arial" font-size="10.00" fill="#000000">Collection</text>
<text text-anchor="middle" x="233.9536" y="-1307.2505" font-family="Arial" font-size="10.00" fill="#000000">Node</text>
</a>
</g>
</g>
<!-- evans.consort.TimespanSimultaneity.TimespanSimultaneity -->
<g id="node12" class="node">
<title>evans.consort.TimespanSimultaneity.TimespanSimultaneity</title>
<g id="a_node12"><a xlink:href="../api/evans/consort/TimespanSimultaneity.html#evans.consort.TimespanSimultaneity.TimespanSimultaneity" xlink:title="Timespan\nSimultaneity" target="_top">
<path fill="#decbe4" stroke="#decbe4" stroke-width="2" d="M366.0587,-1361.498C366.0587,-1361.498 315.7841,-1361.498 315.7841,-1361.498 310.6181,-1361.498 305.4521,-1356.332 305.4521,-1351.166 305.4521,-1351.166 305.4521,-1340.834 305.4521,-1340.834 305.4521,-1335.668 310.6181,-1330.502 315.7841,-1330.502 315.7841,-1330.502 366.0587,-1330.502 366.0587,-1330.502 371.2247,-1330.502 376.3907,-1335.668 376.3907,-1340.834 376.3907,-1340.834 376.3907,-1351.166 376.3907,-1351.166 376.3907,-1356.332 371.2247,-1361.498 366.0587,-1361.498"/>
<text text-anchor="middle" x="340.9214" y="-1349.499" font-family="Arial" font-size="10.00" fill="#000000">Timespan</text>
<text text-anchor="middle" x="340.9214" y="-1338" font-family="Arial" font-size="10.00" fill="#000000">Simultaneity</text>
</a>
</g>
</g>
<!-- evans.handlers.ArticulationHandler -->
<g id="node13" class="node">
<title>evans.handlers.ArticulationHandler</title>
<g id="a_node13"><a xlink:href="../api/evans/handlers.html#evans.handlers.ArticulationHandler" xlink:title="Articulation\nHandler" target="_top">
<path fill="#fed9a6" stroke="#fed9a6" stroke-width="2" d="M256.591,-629.498C256.591,-629.498 211.3162,-629.498 211.3162,-629.498 206.1502,-629.498 200.9842,-624.332 200.9842,-619.166 200.9842,-619.166 200.9842,-608.834 200.9842,-608.834 200.9842,-603.668 206.1502,-598.502 211.3162,-598.502 211.3162,-598.502 256.591,-598.502 256.591,-598.502 261.7571,-598.502 266.9231,-603.668 266.9231,-608.834 266.9231,-608.834 266.9231,-619.166 266.9231,-619.166 266.9231,-624.332 261.7571,-629.498 256.591,-629.498"/>
<text text-anchor="middle" x="233.9536" y="-617.499" font-family="Arial" font-size="10.00" fill="#000000">Articulation</text>
<text text-anchor="middle" x="233.9536" y="-606" font-family="Arial" font-size="10.00" fill="#000000">Handler</text>
</a>
</g>
</g>
<!-- evans.handlers.BendHandler -->
<g id="node14" class="node">
<title>evans.handlers.BendHandler</title>
<g id="a_node14"><a xlink:href="../api/evans/handlers.html#evans.handlers.BendHandler" xlink:title="Bend\nHandler" target="_top">
<path fill="#fed9a6" stroke="#fed9a6" stroke-width="2" d="M356.1089,-649.498C356.1089,-649.498 325.7339,-649.498 325.7339,-649.498 320.5679,-649.498 315.4019,-644.332 315.4019,-639.166 315.4019,-639.166 315.4019,-628.834 315.4019,-628.834 315.4019,-623.668 320.5679,-618.502 325.7339,-618.502 325.7339,-618.502 356.1089,-618.502 356.1089,-618.502 361.2749,-618.502 366.4409,-623.668 366.4409,-628.834 366.4409,-628.834 366.4409,-639.166 366.4409,-639.166 366.4409,-644.332 361.2749,-649.498 356.1089,-649.498"/>
<text text-anchor="middle" x="340.9214" y="-637.499" font-family="Arial" font-size="10.00" fill="#000000">Bend</text>
<text text-anchor="middle" x="340.9214" y="-626" font-family="Arial" font-size="10.00" fill="#000000">Handler</text>
</a>
</g>
</g>
<!-- evans.handlers.BisbigliandoHandler -->
<g id="node15" class="node">
<title>evans.handlers.BisbigliandoHandler</title>
<g id="a_node15"><a xlink:href="../api/evans/handlers.html#evans.handlers.BisbigliandoHandler" xlink:title="Bisbigliando\nHandler" target="_top">
<path fill="#fed9a6" stroke="#fed9a6" stroke-width="2" d="M487.712,-669.498C487.712,-669.498 438.5244,-669.498 438.5244,-669.498 433.3584,-669.498 428.1923,-664.332 428.1923,-659.166 428.1923,-659.166 428.1923,-648.834 428.1923,-648.834 428.1923,-643.668 433.3584,-638.502 438.5244,-638.502 438.5244,-638.502 487.712,-638.502 487.712,-638.502 492.878,-638.502 498.044,-643.668 498.044,-648.834 498.044,-648.834 498.044,-659.166 498.044,-659.166 498.044,-664.332 492.878,-669.498 487.712,-669.498"/>
<text text-anchor="middle" x="463.1182" y="-657.499" font-family="Arial" font-size="10.00" fill="#000000">Bisbigliando</text>
<text text-anchor="middle" x="463.1182" y="-646" font-family="Arial" font-size="10.00" fill="#000000">Handler</text>
</a>
</g>
</g>
<!-- evans.handlers.BowAngleHandler -->
<g id="node16" class="node">
<title>evans.handlers.BowAngleHandler</title>
<g id="a_node16"><a xlink:href="../api/evans/handlers.html#evans.handlers.BowAngleHandler" xlink:title="Bow\nAngle\nHandler" target="_top">
<path fill="#fed9a6" stroke="#fed9a6" stroke-width="2" d="M593.5562,-709.5C593.5562,-709.5 566.5171,-709.5 566.5171,-709.5 560.5171,-709.5 554.5171,-703.5 554.5171,-697.5 554.5171,-697.5 554.5171,-678.5 554.5171,-678.5 554.5171,-672.5 560.5171,-666.5 566.5171,-666.5 566.5171,-666.5 593.5562,-666.5 593.5562,-666.5 599.5562,-666.5 605.5562,-672.5 605.5562,-678.5 605.5562,-678.5 605.5562,-697.5 605.5562,-697.5 605.5562,-703.5 599.5562,-709.5 593.5562,-709.5"/>
<text text-anchor="middle" x="580.0366" y="-697.2485" font-family="Arial" font-size="10.00" fill="#000000">Bow</text>
<text text-anchor="middle" x="580.0366" y="-685.7495" font-family="Arial" font-size="10.00" fill="#000000">Angle</text>
<text text-anchor="middle" x="580.0366" y="-674.2505" font-family="Arial" font-size="10.00" fill="#000000">Handler</text>
</a>
</g>
</g>
<!-- evans.handlers.ClefHandler -->
<g id="node17" class="node">
<title>evans.handlers.ClefHandler</title>
<g id="a_node17"><a xlink:href="../api/evans/handlers.html#evans.handlers.ClefHandler" xlink:title="Clef\nHandler" target="_top">
<path fill="#fed9a6" stroke="#fed9a6" stroke-width="2" d="M249.1411,-737.498C249.1411,-737.498 218.7661,-737.498 218.7661,-737.498 213.6001,-737.498 208.4341,-732.332 208.4341,-727.166 208.4341,-727.166 208.4341,-716.834 208.4341,-716.834 208.4341,-711.668 213.6001,-706.502 218.7661,-706.502 218.7661,-706.502 249.1411,-706.502 249.1411,-706.502 254.3071,-706.502 259.4731,-711.668 259.4731,-716.834 259.4731,-716.834 259.4731,-727.166 259.4731,-727.166 259.4731,-732.332 254.3071,-737.498 249.1411,-737.498"/>
<text text-anchor="middle" x="233.9536" y="-725.499" font-family="Arial" font-size="10.00" fill="#000000">Clef</text>
<text text-anchor="middle" x="233.9536" y="-714" font-family="Arial" font-size="10.00" fill="#000000">Handler</text>
</a>
</g>
</g>
<!-- evans.handlers.CompositeHandler -->
<g id="node18" class="node">
<title>evans.handlers.CompositeHandler</title>
<g id="a_node18"><a xlink:href="../api/evans/handlers.html#evans.handlers.CompositeHandler" xlink:title="Composite\nHandler" target="_top">
<path fill="#fed9a6" stroke="#fed9a6" stroke-width="2" d="M362.3875,-757.498C362.3875,-757.498 319.4552,-757.498 319.4552,-757.498 314.2892,-757.498 309.1232,-752.332 309.1232,-747.166 309.1232,-747.166 309.1232,-736.834 309.1232,-736.834 309.1232,-731.668 314.2892,-726.502 319.4552,-726.502 319.4552,-726.502 362.3875,-726.502 362.3875,-726.502 367.5535,-726.502 372.7196,-731.668 372.7196,-736.834 372.7196,-736.834 372.7196,-747.166 372.7196,-747.166 372.7196,-752.332 367.5535,-757.498 362.3875,-757.498"/>
<text text-anchor="middle" x="340.9214" y="-745.499" font-family="Arial" font-size="10.00" fill="#000000">Composite</text>
<text text-anchor="middle" x="340.9214" y="-734" font-family="Arial" font-size="10.00" fill="#000000">Handler</text>
</a>
</g>
</g>
<!-- evans.handlers.DynamicHandler -->
<g id="node19" class="node">
<title>evans.handlers.DynamicHandler</title>
<g id="a_node19"><a xlink:href="../api/evans/handlers.html#evans.handlers.DynamicHandler" xlink:title="Dynamic\nHandler" target="_top">
<path fill="#fed9a6" stroke="#fed9a6" stroke-width="2" d="M480.1827,-777.498C480.1827,-777.498 446.0536,-777.498 446.0536,-777.498 440.8876,-777.498 435.7216,-772.332 435.7216,-767.166 435.7216,-767.166 435.7216,-756.834 435.7216,-756.834 435.7216,-751.668 440.8876,-746.502 446.0536,-746.502 446.0536,-746.502 480.1827,-746.502 480.1827,-746.502 485.3487,-746.502 490.5147,-751.668 490.5147,-756.834 490.5147,-756.834 490.5147,-767.166 490.5147,-767.166 490.5147,-772.332 485.3487,-777.498 480.1827,-777.498"/>
<text text-anchor="middle" x="463.1182" y="-765.499" font-family="Arial" font-size="10.00" fill="#000000">Dynamic</text>
<text text-anchor="middle" x="463.1182" y="-754" font-family="Arial" font-size="10.00" fill="#000000">Handler</text>
</a>
</g>
</g>
<!-- evans.handlers.GettatoHandler -->
<g id="node20" class="node">
<title>evans.handlers.GettatoHandler</title>
<g id="a_node20"><a xlink:href="../api/evans/handlers.html#evans.handlers.GettatoHandler" xlink:title="Gettato\nHandler" target="_top">
<path fill="#fed9a6" stroke="#fed9a6" stroke-width="2" d="M595.2241,-811.498C595.2241,-811.498 564.8491,-811.498 564.8491,-811.498 559.6831,-811.498 554.5171,-806.332 554.5171,-801.166 554.5171,-801.166 554.5171,-790.834 554.5171,-790.834 554.5171,-785.668 559.6831,-780.502 564.8491,-780.502 564.8491,-780.502 595.2241,-780.502 595.2241,-780.502 600.3901,-780.502 605.5562,-785.668 605.5562,-790.834 605.5562,-790.834 605.5562,-801.166 605.5562,-801.166 605.5562,-806.332 600.3901,-811.498 595.2241,-811.498"/>
<text text-anchor="middle" x="580.0366" y="-799.499" font-family="Arial" font-size="10.00" fill="#000000">Gettato</text>
<text text-anchor="middle" x="580.0366" y="-788" font-family="Arial" font-size="10.00" fill="#000000">Handler</text>
</a>
</g>
</g>
<!-- evans.handlers.GlissandoHandler -->
<g id="node21" class="node">
<title>evans.handlers.GlissandoHandler</title>
<g id="a_node21"><a xlink:href="../api/evans/handlers.html#evans.handlers.GlissandoHandler" xlink:title="Glissando\nHandler" target="_top">
<path fill="#fed9a6" stroke="#fed9a6" stroke-width="2" d="M254.0912,-845.498C254.0912,-845.498 213.816,-845.498 213.816,-845.498 208.65,-845.498 203.484,-840.332 203.484,-835.166 203.484,-835.166 203.484,-824.834 203.484,-824.834 203.484,-819.668 208.65,-814.502 213.816,-814.502 213.816,-814.502 254.0912,-814.502 254.0912,-814.502 259.2572,-814.502 264.4232,-819.668 264.4232,-824.834 264.4232,-824.834 264.4232,-835.166 264.4232,-835.166 264.4232,-840.332 259.2572,-845.498 254.0912,-845.498"/>
<text text-anchor="middle" x="233.9536" y="-833.499" font-family="Arial" font-size="10.00" fill="#000000">Glissando</text>
<text text-anchor="middle" x="233.9536" y="-822" font-family="Arial" font-size="10.00" fill="#000000">Handler</text>
</a>
</g>
</g>
<!-- evans.handlers.GraceHandler -->
<g id="node22" class="node">
<title>evans.handlers.GraceHandler</title>
<g id="a_node22"><a xlink:href="../api/evans/handlers.html#evans.handlers.GraceHandler" xlink:title="Grace\nHandler" target="_top">
<path fill="#fed9a6" stroke="#fed9a6" stroke-width="2" d="M356.1089,-865.498C356.1089,-865.498 325.7339,-865.498 325.7339,-865.498 320.5679,-865.498 315.4019,-860.332 315.4019,-855.166 315.4019,-855.166 315.4019,-844.834 315.4019,-844.834 315.4019,-839.668 320.5679,-834.502 325.7339,-834.502 325.7339,-834.502 356.1089,-834.502 356.1089,-834.502 361.2749,-834.502 366.4409,-839.668 366.4409,-844.834 366.4409,-844.834 366.4409,-855.166 366.4409,-855.166 366.4409,-860.332 361.2749,-865.498 356.1089,-865.498"/>
<text text-anchor="middle" x="340.9214" y="-853.499" font-family="Arial" font-size="10.00" fill="#000000">Grace</text>
<text text-anchor="middle" x="340.9214" y="-842" font-family="Arial" font-size="10.00" fill="#000000">Handler</text>
</a>
</g>
</g>
<!-- evans.handlers.Handler -->
<g id="node23" class="node">
<title>evans.handlers.Handler</title>
<g id="a_node23"><a xlink:href="../api/evans/handlers.html#evans.handlers.Handler" xlink:title="Handler" target="_top">
<path fill="#fed9a6" stroke="#fed9a6" stroke-width="2" d="M147.3013,-857.0056C147.3013,-857.0056 109.603,-857.0056 109.603,-857.0056 106.2678,-857.0056 102.9326,-853.6704 102.9326,-850.3352 102.9326,-850.3352 102.9326,-843.6648 102.9326,-843.6648 102.9326,-840.3296 106.2678,-836.9944 109.603,-836.9944 109.603,-836.9944 147.3013,-836.9944 147.3013,-836.9944 150.6365,-836.9944 153.9717,-840.3296 153.9717,-843.6648 153.9717,-843.6648 153.9717,-850.3352 153.9717,-850.3352 153.9717,-853.6704 150.6365,-857.0056 147.3013,-857.0056"/>
<text text-anchor="middle" x="128.4521" y="-844.7495" font-family="Arial" font-size="10.00" fill="#000000">Handler</text>
</a>
</g>
</g>
<!-- evans.handlers.IntermittentVoiceHandler -->
<g id="node24" class="node">
<title>evans.handlers.IntermittentVoiceHandler</title>
<g id="a_node24"><a xlink:href="../api/evans/handlers.html#evans.handlers.IntermittentVoiceHandler" xlink:title="Intermittent\nVoice\nHandler" target="_top">
<path fill="#fed9a6" stroke="#fed9a6" stroke-width="2" d="M484.1377,-885.5C484.1377,-885.5 442.0986,-885.5 442.0986,-885.5 436.0986,-885.5 430.0986,-879.5 430.0986,-873.5 430.0986,-873.5 430.0986,-854.5 430.0986,-854.5 430.0986,-848.5 436.0986,-842.5 442.0986,-842.5 442.0986,-842.5 484.1377,-842.5 484.1377,-842.5 490.1377,-842.5 496.1377,-848.5 496.1377,-854.5 496.1377,-854.5 496.1377,-873.5 496.1377,-873.5 496.1377,-879.5 490.1377,-885.5 484.1377,-885.5"/>
<text text-anchor="middle" x="463.1182" y="-873.2485" font-family="Arial" font-size="10.00" fill="#000000">Intermittent</text>
<text text-anchor="middle" x="463.1182" y="-861.7495" font-family="Arial" font-size="10.00" fill="#000000">Voice</text>
<text text-anchor="middle" x="463.1182" y="-850.2505" font-family="Arial" font-size="10.00" fill="#000000">Handler</text>
</a>
</g>
</g>
<!-- evans.handlers.NoteheadHandler -->
<g id="node25" class="node">
<title>evans.handlers.NoteheadHandler</title>
<g id="a_node25"><a xlink:href="../api/evans/handlers.html#evans.handlers.NoteheadHandler" xlink:title="Notehead\nHandler" target="_top">
<path fill="#fed9a6" stroke="#fed9a6" stroke-width="2" d="M599.5749,-919.498C599.5749,-919.498 560.4984,-919.498 560.4984,-919.498 555.3323,-919.498 550.1663,-914.332 550.1663,-909.166 550.1663,-909.166 550.1663,-898.834 550.1663,-898.834 550.1663,-893.668 555.3323,-888.502 560.4984,-888.502 560.4984,-888.502 599.5749,-888.502 599.5749,-888.502 604.7409,-888.502 609.9069,-893.668 609.9069,-898.834 609.9069,-898.834 609.9069,-909.166 609.9069,-909.166 609.9069,-914.332 604.7409,-919.498 599.5749,-919.498"/>
<text text-anchor="middle" x="580.0366" y="-907.499" font-family="Arial" font-size="10.00" fill="#000000">Notehead</text>
<text text-anchor="middle" x="580.0366" y="-896" font-family="Arial" font-size="10.00" fill="#000000">Handler</text>
</a>
</g>
</g>
<!-- evans.handlers.OnBeatGraceHandler -->
<g id="node26" class="node">
<title>evans.handlers.OnBeatGraceHandler</title>
<g id="a_node26"><a xlink:href="../api/evans/handlers.html#evans.handlers.OnBeatGraceHandler" xlink:title="On\nBeat\nGrace\nHandler" target="_top">
<path fill="#fed9a6" stroke="#fed9a6" stroke-width="2" d="M247.4731,-976.9961C247.4731,-976.9961 220.4341,-976.9961 220.4341,-976.9961 214.4341,-976.9961 208.4341,-970.9961 208.4341,-964.9961 208.4341,-964.9961 208.4341,-935.0039 208.4341,-935.0039 208.4341,-929.0039 214.4341,-923.0039 220.4341,-923.0039 220.4341,-923.0039 247.4731,-923.0039 247.4731,-923.0039 253.4731,-923.0039 259.4731,-929.0039 259.4731,-935.0039 259.4731,-935.0039 259.4731,-964.9961 259.4731,-964.9961 259.4731,-970.9961 253.4731,-976.9961 247.4731,-976.9961"/>
<text text-anchor="middle" x="233.9536" y="-964.998" font-family="Arial" font-size="10.00" fill="#000000">On</text>
<text text-anchor="middle" x="233.9536" y="-953.499" font-family="Arial" font-size="10.00" fill="#000000">Beat</text>
<text text-anchor="middle" x="233.9536" y="-942" font-family="Arial" font-size="10.00" fill="#000000">Grace</text>
<text text-anchor="middle" x="233.9536" y="-930.501" font-family="Arial" font-size="10.00" fill="#000000">Handler</text>
</a>
</g>
</g>
<!-- evans.handlers.PitchHandler -->
<g id="node27" class="node">
<title>evans.handlers.PitchHandler</title>
<g id="a_node27"><a xlink:href="../api/evans/handlers.html#evans.handlers.PitchHandler" xlink:title="Pitch\nHandler" target="_top">
<path fill="#fed9a6" stroke="#fed9a6" stroke-width="2" d="M356.1089,-997.498C356.1089,-997.498 325.7339,-997.498 325.7339,-997.498 320.5679,-997.498 315.4019,-992.332 315.4019,-987.166 315.4019,-987.166 315.4019,-976.834 315.4019,-976.834 315.4019,-971.668 320.5679,-966.502 325.7339,-966.502 325.7339,-966.502 356.1089,-966.502 356.1089,-966.502 361.2749,-966.502 366.4409,-971.668 366.4409,-976.834 366.4409,-976.834 366.4409,-987.166 366.4409,-987.166 366.4409,-992.332 361.2749,-997.498 356.1089,-997.498"/>
<text text-anchor="middle" x="340.9214" y="-985.499" font-family="Arial" font-size="10.00" fill="#000000">Pitch</text>
<text text-anchor="middle" x="340.9214" y="-974" font-family="Arial" font-size="10.00" fill="#000000">Handler</text>
</a>
</g>
</g>
<!-- evans.handlers.RhythmHandler -->
<g id="node28" class="node">
<title>evans.handlers.RhythmHandler</title>
<g id="a_node28"><a xlink:href="../api/evans/handlers.html#evans.handlers.RhythmHandler" xlink:title="Rhythm\nHandler" target="_top">
<path fill="#fed9a6" stroke="#fed9a6" stroke-width="2" d="M478.3057,-1017.498C478.3057,-1017.498 447.9307,-1017.498 447.9307,-1017.498 442.7646,-1017.498 437.5986,-1012.332 437.5986,-1007.166 437.5986,-1007.166 437.5986,-996.834 437.5986,-996.834 437.5986,-991.668 442.7646,-986.502 447.9307,-986.502 447.9307,-986.502 478.3057,-986.502 478.3057,-986.502 483.4717,-986.502 488.6377,-991.668 488.6377,-996.834 488.6377,-996.834 488.6377,-1007.166 488.6377,-1007.166 488.6377,-1012.332 483.4717,-1017.498 478.3057,-1017.498"/>
<text text-anchor="middle" x="463.1182" y="-1005.499" font-family="Arial" font-size="10.00" fill="#000000">Rhythm</text>
<text text-anchor="middle" x="463.1182" y="-994" font-family="Arial" font-size="10.00" fill="#000000">Handler</text>
</a>
</g>
</g>
<!-- evans.handlers.SlurHandler -->
<g id="node29" class="node">
<title>evans.handlers.SlurHandler</title>
<g id="a_node29"><a xlink:href="../api/evans/handlers.html#evans.handlers.SlurHandler" xlink:title="Slur\nHandler" target="_top">
<path fill="#fed9a6" stroke="#fed9a6" stroke-width="2" d="M595.2241,-1051.498C595.2241,-1051.498 564.8491,-1051.498 564.8491,-1051.498 559.6831,-1051.498 554.5171,-1046.332 554.5171,-1041.166 554.5171,-1041.166 554.5171,-1030.834 554.5171,-1030.834 554.5171,-1025.668 559.6831,-1020.502 564.8491,-1020.502 564.8491,-1020.502 595.2241,-1020.502 595.2241,-1020.502 600.3901,-1020.502 605.5562,-1025.668 605.5562,-1030.834 605.5562,-1030.834 605.5562,-1041.166 605.5562,-1041.166 605.5562,-1046.332 600.3901,-1051.498 595.2241,-1051.498"/>
<text text-anchor="middle" x="580.0366" y="-1039.499" font-family="Arial" font-size="10.00" fill="#000000">Slur</text>
<text text-anchor="middle" x="580.0366" y="-1028" font-family="Arial" font-size="10.00" fill="#000000">Handler</text>
</a>
</g>
</g>
<!-- evans.handlers.TempoSpannerHandler -->
<g id="node30" class="node">
<title>evans.handlers.TempoSpannerHandler</title>
<g id="a_node30"><a xlink:href="../api/evans/handlers.html#evans.handlers.TempoSpannerHandler" xlink:title="Tempo\nSpanner\nHandler" target="_top">
<path fill="#fed9a6" stroke="#fed9a6" stroke-width="2" d="M248.7616,-1097.5C248.7616,-1097.5 219.1457,-1097.5 219.1457,-1097.5 213.1457,-1097.5 207.1457,-1091.5 207.1457,-1085.5 207.1457,-1085.5 207.1457,-1066.5 207.1457,-1066.5 207.1457,-1060.5 213.1457,-1054.5 219.1457,-1054.5 219.1457,-1054.5 248.7616,-1054.5 248.7616,-1054.5 254.7616,-1054.5 260.7616,-1060.5 260.7616,-1066.5 260.7616,-1066.5 260.7616,-1085.5 260.7616,-1085.5 260.7616,-1091.5 254.7616,-1097.5 248.7616,-1097.5"/>
<text text-anchor="middle" x="233.9536" y="-1085.2485" font-family="Arial" font-size="10.00" fill="#000000">Tempo</text>
<text text-anchor="middle" x="233.9536" y="-1073.7495" font-family="Arial" font-size="10.00" fill="#000000">Spanner</text>
<text text-anchor="middle" x="233.9536" y="-1062.2505" font-family="Arial" font-size="10.00" fill="#000000">Handler</text>
</a>
</g>
</g>
<!-- evans.handlers.TextSpanHandler -->
<g id="node31" class="node">
<title>evans.handlers.TextSpanHandler</title>
<g id="a_node31"><a xlink:href="../api/evans/handlers.html#evans.handlers.TextSpanHandler" xlink:title="Text\nSpan\nHandler" target="_top">
<path fill="#fed9a6" stroke="#fed9a6" stroke-width="2" d="M354.4409,-1117.5C354.4409,-1117.5 327.4019,-1117.5 327.4019,-1117.5 321.4019,-1117.5 315.4019,-1111.5 315.4019,-1105.5 315.4019,-1105.5 315.4019,-1086.5 315.4019,-1086.5 315.4019,-1080.5 321.4019,-1074.5 327.4019,-1074.5 327.4019,-1074.5 354.4409,-1074.5 354.4409,-1074.5 360.4409,-1074.5 366.4409,-1080.5 366.4409,-1086.5 366.4409,-1086.5 366.4409,-1105.5 366.4409,-1105.5 366.4409,-1111.5 360.4409,-1117.5 354.4409,-1117.5"/>
<text text-anchor="middle" x="340.9214" y="-1105.2485" font-family="Arial" font-size="10.00" fill="#000000">Text</text>
<text text-anchor="middle" x="340.9214" y="-1093.7495" font-family="Arial" font-size="10.00" fill="#000000">Span</text>
<text text-anchor="middle" x="340.9214" y="-1082.2505" font-family="Arial" font-size="10.00" fill="#000000">Handler</text>
</a>
</g>
</g>
<!-- evans.handlers.TrillHandler -->
<g id="node32" class="node">
<title>evans.handlers.TrillHandler</title>
<g id="a_node32"><a xlink:href="../api/evans/handlers.html#evans.handlers.TrillHandler" xlink:title="Trill\nHandler" target="_top">
<path fill="#fed9a6" stroke="#fed9a6" stroke-width="2" d="M478.3057,-1136.498C478.3057,-1136.498 447.9307,-1136.498 447.9307,-1136.498 442.7646,-1136.498 437.5986,-1131.332 437.5986,-1126.166 437.5986,-1126.166 437.5986,-1115.834 437.5986,-1115.834 437.5986,-1110.668 442.7646,-1105.502 447.9307,-1105.502 447.9307,-1105.502 478.3057,-1105.502 478.3057,-1105.502 483.4717,-1105.502 488.6377,-1110.668 488.6377,-1115.834 488.6377,-1115.834 488.6377,-1126.166 488.6377,-1126.166 488.6377,-1131.332 483.4717,-1136.498 478.3057,-1136.498"/>
<text text-anchor="middle" x="463.1182" y="-1124.499" font-family="Arial" font-size="10.00" fill="#000000">Trill</text>
<text text-anchor="middle" x="463.1182" y="-1113" font-family="Arial" font-size="10.00" fill="#000000">Handler</text>
</a>
</g>
</g>
<!-- evans.rtm.RTMMaker -->
<g id="node33" class="node">
<title>evans.rtm.RTMMaker</title>
<g id="a_node33"><a xlink:href="../api/evans/rtm.html#evans.rtm.RTMMaker" xlink:title="RTMMaker" target="_top">
<path fill="#ffffcc" stroke="#ffffcc" stroke-width="2" d="M260.0465,-320.0056C260.0465,-320.0056 207.8608,-320.0056 207.8608,-320.0056 204.5256,-320.0056 201.1904,-316.6704 201.1904,-313.3352 201.1904,-313.3352 201.1904,-306.6648 201.1904,-306.6648 201.1904,-303.3296 204.5256,-299.9944 207.8608,-299.9944 207.8608,-299.9944 260.0465,-299.9944 260.0465,-299.9944 263.3816,-299.9944 266.7168,-303.3296 266.7168,-306.6648 266.7168,-306.6648 266.7168,-313.3352 266.7168,-313.3352 266.7168,-316.6704 263.3816,-320.0056 260.0465,-320.0056"/>
<text text-anchor="middle" x="233.9536" y="-307.7495" font-family="Arial" font-size="10.00" fill="#000000">RTMMaker</text>
</a>
</g>
</g>
<!-- evans.rtm.RhythmTreeQuantizer -->
<g id="node34" class="node">
<title>evans.rtm.RhythmTreeQuantizer</title>
<g id="a_node34"><a xlink:href="../api/evans/rtm.html#evans.rtm.RhythmTreeQuantizer" xlink:title="Rhythm\nTree\nQuantizer" target="_top">
<path fill="#ffffcc" stroke="#ffffcc" stroke-width="2" d="M251.8092,-380.5C251.8092,-380.5 216.0981,-380.5 216.0981,-380.5 210.0981,-380.5 204.0981,-374.5 204.0981,-368.5 204.0981,-368.5 204.0981,-349.5 204.0981,-349.5 204.0981,-343.5 210.0981,-337.5 216.0981,-337.5 216.0981,-337.5 251.8092,-337.5 251.8092,-337.5 257.8092,-337.5 263.8092,-343.5 263.8092,-349.5 263.8092,-349.5 263.8092,-368.5 263.8092,-368.5 263.8092,-374.5 257.8092,-380.5 251.8092,-380.5"/>
<text text-anchor="middle" x="233.9536" y="-368.2485" font-family="Arial" font-size="10.00" fill="#000000">Rhythm</text>
<text text-anchor="middle" x="233.9536" y="-356.7495" font-family="Arial" font-size="10.00" fill="#000000">Tree</text>
<text text-anchor="middle" x="233.9536" y="-345.2505" font-family="Arial" font-size="10.00" fill="#000000">Quantizer</text>
</a>
</g>
</g>
<!-- evans.segmentmaker.NoteheadBracketMaker -->
<g id="node35" class="node">
<title>evans.segmentmaker.NoteheadBracketMaker</title>
<g id="a_node35"><a xlink:href="../api/evans/segmentmaker.html#evans.segmentmaker.NoteheadBracketMaker" xlink:title="Notehead\nBracket\nMaker" target="_top">
<path fill="#e5d8bd" stroke="#e5d8bd" stroke-width="2" d="M480.9885,-372.5C480.9885,-372.5 445.2479,-372.5 445.2479,-372.5 439.2479,-372.5 433.2479,-366.5 433.2479,-360.5 433.2479,-360.5 433.2479,-341.5 433.2479,-341.5 433.2479,-335.5 439.2479,-329.5 445.2479,-329.5 445.2479,-329.5 480.9885,-329.5 480.9885,-329.5 486.9885,-329.5 492.9885,-335.5 492.9885,-341.5 492.9885,-341.5 492.9885,-360.5 492.9885,-360.5 492.9885,-366.5 486.9885,-372.5 480.9885,-372.5"/>
<text text-anchor="middle" x="463.1182" y="-360.2485" font-family="Arial" font-size="10.00" fill="#000000">Notehead</text>
<text text-anchor="middle" x="463.1182" y="-348.7495" font-family="Arial" font-size="10.00" fill="#000000">Bracket</text>
<text text-anchor="middle" x="463.1182" y="-337.2505" font-family="Arial" font-size="10.00" fill="#000000">Maker</text>
</a>
</g>
</g>
<!-- evans.segmentmaker.SegmentMaker -->
<g id="node36" class="node">
<title>evans.segmentmaker.SegmentMaker</title>
<g id="a_node36"><a xlink:href="../api/evans/segmentmaker.html#evans.segmentmaker.SegmentMaker" xlink:title="Segment\nMaker" target="_top">
<path fill="#e5d8bd" stroke="#e5d8bd" stroke-width="2" d="M480.8106,-311.498C480.8106,-311.498 445.4258,-311.498 445.4258,-311.498 440.2598,-311.498 435.0937,-306.332 435.0937,-301.166 435.0937,-301.166 435.0937,-290.834 435.0937,-290.834 435.0937,-285.668 440.2598,-280.502 445.4258,-280.502 445.4258,-280.502 480.8106,-280.502 480.8106,-280.502 485.9766,-280.502 491.1426,-285.668 491.1426,-290.834 491.1426,-290.834 491.1426,-301.166 491.1426,-301.166 491.1426,-306.332 485.9766,-311.498 480.8106,-311.498"/>
<text text-anchor="middle" x="463.1182" y="-299.499" font-family="Arial" font-size="10.00" fill="#000000">Segment</text>
<text text-anchor="middle" x="463.1182" y="-288" font-family="Arial" font-size="10.00" fill="#000000">Maker</text>
</a>
</g>
</g>
<!-- evans.sequence.CyclicList -->
<g id="node37" class="node">
<title>evans.sequence.CyclicList</title>
<g id="a_node37"><a xlink:href="../api/evans/sequence.html#evans.sequence.CyclicList" xlink:title="Cyclic\nList" target="_top">
<path fill="#fddaec" stroke="#fddaec" stroke-width="2" d="M244.7879,-139.498C244.7879,-139.498 223.1193,-139.498 223.1193,-139.498 217.9533,-139.498 212.7873,-134.332 212.7873,-129.166 212.7873,-129.166 212.7873,-118.834 212.7873,-118.834 212.7873,-113.668 217.9533,-108.502 223.1193,-108.502 223.1193,-108.502 244.7879,-108.502 244.7879,-108.502 249.9539,-108.502 255.12,-113.668 255.12,-118.834 255.12,-118.834 255.12,-129.166 255.12,-129.166 255.12,-134.332 249.9539,-139.498 244.7879,-139.498"/>
<text text-anchor="middle" x="233.9536" y="-127.499" font-family="Arial" font-size="10.00" fill="#000000">Cyclic</text>
<text text-anchor="middle" x="233.9536" y="-116" font-family="Arial" font-size="10.00" fill="#000000">List</text>
</a>
</g>
</g>
<!-- evans.sequence.MarkovChain -->
<g id="node38" class="node">
<title>evans.sequence.MarkovChain</title>
<g id="a_node38"><a xlink:href="../api/evans/sequence.html#evans.sequence.MarkovChain" xlink:title="Markov\nChain" target="_top">
<path fill="#fddaec" stroke="#fddaec" stroke-width="2" d="M247.9053,-188.498C247.9053,-188.498 220.002,-188.498 220.002,-188.498 214.8359,-188.498 209.6699,-183.332 209.6699,-178.166 209.6699,-178.166 209.6699,-167.834 209.6699,-167.834 209.6699,-162.668 214.8359,-157.502 220.002,-157.502 220.002,-157.502 247.9053,-157.502 247.9053,-157.502 253.0713,-157.502 258.2373,-162.668 258.2373,-167.834 258.2373,-167.834 258.2373,-178.166 258.2373,-178.166 258.2373,-183.332 253.0713,-188.498 247.9053,-188.498"/>
<text text-anchor="middle" x="233.9536" y="-176.499" font-family="Arial" font-size="10.00" fill="#000000">Markov</text>
<text text-anchor="middle" x="233.9536" y="-165" font-family="Arial" font-size="10.00" fill="#000000">Chain</text>
</a>
</g>
</g>
<!-- evans.timespan.SilentTimespan -->
<g id="node39" class="node">
<title>evans.timespan.SilentTimespan</title>
<g id="a_node39"><a xlink:href="../api/evans/timespan.html#evans.timespan.SilentTimespan" xlink:title="Silent\nTimespan" target="_top">
<path fill="#f2f2f2" stroke="#f2f2f2" stroke-width="2" d="M482.3231,-47.498C482.3231,-47.498 443.9132,-47.498 443.9132,-47.498 438.7472,-47.498 433.5812,-42.332 433.5812,-37.166 433.5812,-37.166 433.5812,-26.834 433.5812,-26.834 433.5812,-21.668 438.7472,-16.502 443.9132,-16.502 443.9132,-16.502 482.3231,-16.502 482.3231,-16.502 487.4891,-16.502 492.6551,-21.668 492.6551,-26.834 492.6551,-26.834 492.6551,-37.166 492.6551,-37.166 492.6551,-42.332 487.4891,-47.498 482.3231,-47.498"/>
<text text-anchor="middle" x="463.1182" y="-35.499" font-family="Arial" font-size="10.00" fill="#000000">Silent</text>
<text text-anchor="middle" x="463.1182" y="-24" font-family="Arial" font-size="10.00" fill="#000000">Timespan</text>
</a>
</g>
</g>
<!-- evans.timespan.TimespanMaker -->
<g id="node40" class="node">
<title>evans.timespan.TimespanMaker</title>
<g id="a_node40"><a xlink:href="../api/evans/timespan.html#evans.timespan.TimespanMaker" xlink:title="Timespan\nMaker" target="_top">
<path fill="#f2f2f2" stroke="#f2f2f2" stroke-width="2" d="M482.3231,-96.498C482.3231,-96.498 443.9132,-96.498 443.9132,-96.498 438.7472,-96.498 433.5812,-91.332 433.5812,-86.166 433.5812,-86.166 433.5812,-75.834 433.5812,-75.834 433.5812,-70.668 438.7472,-65.502 443.9132,-65.502 443.9132,-65.502 482.3231,-65.502 482.3231,-65.502 487.4891,-65.502 492.6551,-70.668 492.6551,-75.834 492.6551,-75.834 492.6551,-86.166 492.6551,-86.166 492.6551,-91.332 487.4891,-96.498 482.3231,-96.498"/>
<text text-anchor="middle" x="463.1182" y="-84.499" font-family="Arial" font-size="10.00" fill="#000000">Timespan</text>
<text text-anchor="middle" x="463.1182" y="-73" font-family="Arial" font-size="10.00" fill="#000000">Maker</text>
</a>
</g>
</g>
<!-- evans.timespan.TimespanSpecifier -->
<g id="node41" class="node">
<title>evans.timespan.TimespanSpecifier</title>
<g id="a_node41"><a xlink:href="../api/evans/timespan.html#evans.timespan.TimespanSpecifier" xlink:title="Timespan\nSpecifier" target="_top">
<path fill="#f2f2f2" stroke="#f2f2f2" stroke-width="2" d="M482.3231,-145.498C482.3231,-145.498 443.9132,-145.498 443.9132,-145.498 438.7472,-145.498 433.5812,-140.332 433.5812,-135.166 433.5812,-135.166 433.5812,-124.834 433.5812,-124.834 433.5812,-119.668 438.7472,-114.502 443.9132,-114.502 443.9132,-114.502 482.3231,-114.502 482.3231,-114.502 487.4891,-114.502 492.6551,-119.668 492.6551,-124.834 492.6551,-124.834 492.6551,-135.166 492.6551,-135.166 492.6551,-140.332 487.4891,-145.498 482.3231,-145.498"/>
<text text-anchor="middle" x="463.1182" y="-133.499" font-family="Arial" font-size="10.00" fill="#000000">Timespan</text>
<text text-anchor="middle" x="463.1182" y="-122" font-family="Arial" font-size="10.00" fill="#000000">Specifier</text>
</a>
</g>
</g>
</g>
</svg>
