<?xml version="1.0" encoding="UTF-8" standalone="no"?>
<!DOCTYPE svg PUBLIC "-//W3C//DTD SVG 1.1//EN"
 "http://www.w3.org/Graphics/SVG/1.1/DTD/svg11.dtd">
<!-- Generated by graphviz version 2.40.1 (20161225.0304)
 -->
<!-- Title: InheritanceGraph Pages: 1 -->
<svg width="1020pt" height="1623pt"
 viewBox="0.00 0.00 1019.95 1623.00" xmlns="http://www.w3.org/2000/svg" xmlns:xlink="http://www.w3.org/1999/xlink">
<g id="graph0" class="graph" transform="scale(1 1) rotate(0) translate(4 1619)">
<title>InheritanceGraph</title>
<g id="clust1" class="cluster">
<title>cluster_abjad.ratio</title>
<path fill="transparent" stroke="#bcd2ee" stroke-width="2" stroke-dasharray="5,2" d="M725.3932,-586C725.3932,-586 879.0675,-586 879.0675,-586 885.0675,-586 891.0675,-592 891.0675,-598 891.0675,-598 891.0675,-640 891.0675,-640 891.0675,-646 885.0675,-652 879.0675,-652 879.0675,-652 725.3932,-652 725.3932,-652 719.3932,-652 713.3932,-646 713.3932,-640 713.3932,-640 713.3932,-598 713.3932,-598 713.3932,-592 719.3932,-586 725.3932,-586"/>
<text text-anchor="middle" x="802.2303" y="-640" font-family="Arial" font-size="10.00" fill="#000000">abjad.ratio</text>
</g>
<g id="clust2" class="cluster">
<title>cluster_abjad.sequence</title>
<path fill="transparent" stroke="#bcd2ee" stroke-width="2" stroke-dasharray="5,2" d="M726.1149,-416C726.1149,-416 788.1539,-416 788.1539,-416 794.1539,-416 800.1539,-422 800.1539,-428 800.1539,-428 800.1539,-459 800.1539,-459 800.1539,-465 794.1539,-471 788.1539,-471 788.1539,-471 726.1149,-471 726.1149,-471 720.1149,-471 714.1149,-465 714.1149,-459 714.1149,-459 714.1149,-428 714.1149,-428 714.1149,-422 720.1149,-416 726.1149,-416"/>
<text text-anchor="middle" x="757.1344" y="-459" font-family="Arial" font-size="10.00" fill="#000000">abjad.sequence</text>
</g>
<g id="clust3" class="cluster">
<title>cluster_abjad.timespan</title>
<path fill="transparent" stroke="#bcd2ee" stroke-width="2" stroke-dasharray="5,2" d="M99.6846,-175C99.6846,-175 159.2197,-175 159.2197,-175 165.2197,-175 171.2197,-181 171.2197,-187 171.2197,-187 171.2197,-218 171.2197,-218 171.2197,-224 165.2197,-230 159.2197,-230 159.2197,-230 99.6846,-230 99.6846,-230 93.6846,-230 87.6846,-224 87.6846,-218 87.6846,-218 87.6846,-187 87.6846,-187 87.6846,-181 93.6846,-175 99.6846,-175"/>
<text text-anchor="middle" x="129.4521" y="-218" font-family="Arial" font-size="10.00" fill="#000000">abjad.timespan</text>
</g>
<g id="clust4" class="cluster">
<title>cluster_collections.abc</title>
<path fill="transparent" stroke="#bcd2ee" stroke-width="2" stroke-dasharray="5,2" d="M308.6875,-601C308.6875,-601 645.3932,-601 645.3932,-601 651.3932,-601 657.3932,-607 657.3932,-613 657.3932,-613 657.3932,-744 657.3932,-744 657.3932,-750 651.3932,-756 645.3932,-756 645.3932,-756 308.6875,-756 308.6875,-756 302.6875,-756 296.6875,-750 296.6875,-744 296.6875,-744 296.6875,-613 296.6875,-613 296.6875,-607 302.6875,-601 308.6875,-601"/>
<text text-anchor="middle" x="477.0403" y="-744" font-family="Arial" font-size="10.00" fill="#000000">collections.abc</text>
</g>
<g id="clust5" class="cluster">
<title>cluster_baca.classes</title>
<path fill="transparent" stroke="#bcd2ee" stroke-width="2" stroke-dasharray="5,2" d="M836.8756,-403C836.8756,-403 889.9147,-403 889.9147,-403 895.9147,-403 901.9147,-409 901.9147,-415 901.9147,-415 901.9147,-446 901.9147,-446 901.9147,-452 895.9147,-458 889.9147,-458 889.9147,-458 836.8756,-458 836.8756,-458 830.8756,-458 824.8756,-452 824.8756,-446 824.8756,-446 824.8756,-415 824.8756,-415 824.8756,-409 830.8756,-403 836.8756,-403"/>
<text text-anchor="middle" x="863.3951" y="-446" font-family="Arial" font-size="10.00" fill="#000000">baca.classes</text>
</g>
<g id="clust6" class="cluster">
<title>cluster_builtins</title>
<path fill="transparent" stroke="#bcd2ee" stroke-width="2" stroke-dasharray="5,2" d="M20,-433C20,-433 54.6846,-433 54.6846,-433 60.6846,-433 66.6846,-439 66.6846,-445 66.6846,-445 66.6846,-476 66.6846,-476 66.6846,-482 60.6846,-488 54.6846,-488 54.6846,-488 20,-488 20,-488 14,-488 8,-482 8,-476 8,-476 8,-445 8,-445 8,-439 14,-433 20,-433"/>
<text text-anchor="middle" x="37.3423" y="-476" font-family="Arial" font-size="10.00" fill="#000000">builtins</text>
</g>
<g id="clust7" class="cluster">
<title>cluster_evans.commands</title>
<path fill="transparent" stroke="#bcd2ee" stroke-width="2" stroke-dasharray="5,2" d="M311.597,-441C311.597,-441 381.7249,-441 381.7249,-441 387.7249,-441 393.7249,-447 393.7249,-453 393.7249,-453 393.7249,-581 393.7249,-581 393.7249,-587 387.7249,-593 381.7249,-593 381.7249,-593 311.597,-593 311.597,-593 305.597,-593 299.597,-587 299.597,-581 299.597,-581 299.597,-453 299.597,-453 299.597,-447 305.597,-441 311.597,-441"/>
<text text-anchor="middle" x="346.6609" y="-581" font-family="Arial" font-size="10.00" fill="#000000">evans.commands</text>
</g>
<g id="clust8" class="cluster">
<title>cluster_evans.consort</title>
<path fill="transparent" stroke="#bcd2ee" stroke-width="2" stroke-dasharray="5,2" d="M111.0015,-1402C111.0015,-1402 513.5865,-1402 513.5865,-1402 519.5865,-1402 525.5865,-1408 525.5865,-1414 525.5865,-1414 525.5865,-1595 525.5865,-1595 525.5865,-1601 519.5865,-1607 513.5865,-1607 513.5865,-1607 111.0015,-1607 111.0015,-1607 105.0015,-1607 99.0015,-1601 99.0015,-1595 99.0015,-1595 99.0015,-1414 99.0015,-1414 99.0015,-1408 105.0015,-1402 111.0015,-1402"/>
<text text-anchor="middle" x="312.294" y="-1595" font-family="Arial" font-size="10.00" fill="#000000">evans.consort</text>
</g>
<g id="clust9" class="cluster">
<title>cluster_evans.handlers</title>
<path fill="transparent" stroke="#bcd2ee" stroke-width="2" stroke-dasharray="5,2" d="M107.9424,-764C107.9424,-764 513.3155,-764 513.3155,-764 519.3155,-764 525.3155,-770 525.3155,-776 525.3155,-776 525.3155,-1382 525.3155,-1382 525.3155,-1388 519.3155,-1394 513.3155,-1394 513.3155,-1394 107.9424,-1394 107.9424,-1394 101.9424,-1394 95.9424,-1388 95.9424,-1382 95.9424,-1382 95.9424,-776 95.9424,-776 95.9424,-770 101.9424,-764 107.9424,-764"/>
<text text-anchor="middle" x="310.6289" y="-1382" font-family="Arial" font-size="10.00" fill="#000000">evans.handlers</text>
</g>
<g id="clust10" class="cluster">
<title>cluster_evans.rtm</title>
<path fill="transparent" stroke="#bcd2ee" stroke-width="2" stroke-dasharray="5,2" d="M205.3223,-344C205.3223,-344 262.585,-344 262.585,-344 268.585,-344 274.585,-350 274.585,-356 274.585,-356 274.585,-448 274.585,-448 274.585,-454 268.585,-460 262.585,-460 262.585,-460 205.3223,-460 205.3223,-460 199.3223,-460 193.3223,-454 193.3223,-448 193.3223,-448 193.3223,-356 193.3223,-356 193.3223,-350 199.3223,-344 205.3223,-344"/>
<text text-anchor="middle" x="233.9536" y="-448" font-family="Arial" font-size="10.00" fill="#000000">evans.rtm</text>
</g>
<g id="clust11" class="cluster">
<title>cluster_evans.segmentmaker</title>
<path fill="transparent" stroke="#bcd2ee" stroke-width="2" stroke-dasharray="5,2" d="M302.9763,-306C302.9763,-306 390.3455,-306 390.3455,-306 396.3455,-306 402.3455,-312 402.3455,-318 402.3455,-318 402.3455,-421 402.3455,-421 402.3455,-427 396.3455,-433 390.3455,-433 390.3455,-433 302.9763,-433 302.9763,-433 296.9763,-433 290.9763,-427 290.9763,-421 290.9763,-421 290.9763,-318 290.9763,-318 290.9763,-312 296.9763,-306 302.9763,-306"/>
<text text-anchor="middle" x="346.6609" y="-421" font-family="Arial" font-size="10.00" fill="#000000">evans.segmentmaker</text>
</g>
<g id="clust12" class="cluster">
<title>cluster_evans.sequence</title>
<path fill="transparent" stroke="#bcd2ee" stroke-width="2" stroke-dasharray="5,2" d="M933.9147,-279C933.9147,-279 997.9537,-279 997.9537,-279 1003.9537,-279 1009.9537,-285 1009.9537,-291 1009.9537,-291 1009.9537,-456 1009.9537,-456 1009.9537,-462 1003.9537,-468 997.9537,-468 997.9537,-468 933.9147,-468 933.9147,-468 927.9147,-468 921.9147,-462 921.9147,-456 921.9147,-456 921.9147,-291 921.9147,-291 921.9147,-285 927.9147,-279 933.9147,-279"/>
<text text-anchor="middle" x="965.9342" y="-456" font-family="Arial" font-size="10.00" fill="#000000">evans.sequence</text>
</g>
<g id="clust13" class="cluster">
<title>cluster_evans.spanners</title>
<path fill="transparent" stroke="#bcd2ee" stroke-width="2" stroke-dasharray="5,2" d="M98.6641,-89C98.6641,-89 161.2402,-89 161.2402,-89 167.2402,-89 173.2402,-95 173.2402,-101 173.2402,-101 173.2402,-155 173.2402,-155 173.2402,-161 167.2402,-167 161.2402,-167 161.2402,-167 98.6641,-167 98.6641,-167 92.6641,-167 86.6641,-161 86.6641,-155 86.6641,-155 86.6641,-101 86.6641,-101 86.6641,-95 92.6641,-89 98.6641,-89"/>
<text text-anchor="middle" x="129.9521" y="-155" font-family="Arial" font-size="10.00" fill="#000000">evans.spanners</text>
</g>
<g id="clust14" class="cluster">
<title>cluster_evans.timespan</title>
<path fill="transparent" stroke="#bcd2ee" stroke-width="2" stroke-dasharray="5,2" d="M315.8933,-8C315.8933,-8 377.4285,-8 377.4285,-8 383.4285,-8 389.4285,-14 389.4285,-20 389.4285,-20 389.4285,-160 389.4285,-160 389.4285,-166 383.4285,-172 377.4285,-172 377.4285,-172 315.8933,-172 315.8933,-172 309.8933,-172 303.8933,-166 303.8933,-160 303.8933,-160 303.8933,-20 303.8933,-20 303.8933,-14 309.8933,-8 315.8933,-8"/>
<text text-anchor="middle" x="346.6609" y="-160" font-family="Arial" font-size="10.00" fill="#000000">evans.timespan</text>
</g>
<!-- abjad.ratio.NonreducedRatio&#45;&gt;abjad.ratio.Ratio -->
<g id="edge1" class="edge">
<title>abjad.ratio.NonreducedRatio&#45;&gt;abjad.ratio.Ratio</title>
<path fill="none" stroke="#778899" d="M791.8877,-608.0094C805.2687,-607.6334 820.3741,-607.2089 833.2424,-606.8473"/>
<polygon fill="#778899" stroke="#778899" points="833.5408,-610.3404 843.4385,-606.5608 833.3441,-603.3432 833.5408,-610.3404"/>
</g>
<!-- abjad.ratio.Ratio&#45;&gt;evans.sequence.Ratio -->
<g id="edge33" class="edge">
<title>abjad.ratio.Ratio&#45;&gt;evans.sequence.Ratio</title>
<path fill="none" stroke="#778899" d="M869.1736,-596.0898C885.6603,-567.8146 933.117,-486.425 954.6176,-449.5508"/>
<polygon fill="#778899" stroke="#778899" points="957.7056,-451.2032 959.7191,-440.8015 951.6585,-447.6772 957.7056,-451.2032"/>
</g>
<!-- abjad.sequence.Sequence&#45;&gt;baca.classes.Sequence -->
<g id="edge34" class="edge">
<title>abjad.sequence.Sequence&#45;&gt;baca.classes.Sequence</title>
<path fill="none" stroke="#778899" d="M787.2277,-430.2747C798.284,-428.9284 810.9459,-427.3866 822.73,-425.9517"/>
<polygon fill="#778899" stroke="#778899" points="823.2937,-429.409 832.7973,-424.7258 822.4476,-422.4603 823.2937,-429.409"/>
</g>
<!-- abjad.timespan.Timespan&#45;&gt;evans.timespan.SilentTimespan -->
<g id="edge35" class="edge">
<title>abjad.timespan.Timespan&#45;&gt;evans.timespan.SilentTimespan</title>
<path fill="none" stroke="#778899" d="M159.1987,-184.2353C197.5991,-172.9207 264.5371,-153.1976 307.1686,-140.6363"/>
<polygon fill="#778899" stroke="#778899" points="308.3229,-143.945 316.9259,-137.7613 306.3444,-137.2304 308.3229,-143.945"/>
</g>
<!-- collections.abc.Collection&#45;&gt;collections.abc.Sequence -->
<g id="edge2" class="edge">
<title>collections.abc.Collection&#45;&gt;collections.abc.Sequence</title>
<path fill="none" stroke="#778899" d="M510.4628,-658.5619C527.6055,-652.1963 549.7352,-643.9789 568.4027,-637.0471"/>
<polygon fill="#778899" stroke="#778899" points="569.6481,-640.3182 577.8043,-633.556 567.2114,-633.756 569.6481,-640.3182"/>
</g>
<!-- collections.abc.Sequence&#45;&gt;abjad.ratio.NonreducedRatio -->
<g id="edge55" class="edge">
<title>collections.abc.Sequence&#45;&gt;abjad.ratio.NonreducedRatio</title>
<path fill="none" stroke="#778899" d="M647.7283,-619.1374C667.4237,-617.3041 691.0083,-615.1087 711.1857,-613.2305"/>
<polygon fill="#778899" stroke="#778899" points="711.7555,-616.6927 721.388,-612.2809 711.1067,-609.7228 711.7555,-616.6927"/>
</g>
<!-- collections.abc.Sequence&#45;&gt;abjad.sequence.Sequence -->
<g id="edge56" class="edge">
<title>collections.abc.Sequence&#45;&gt;abjad.sequence.Sequence</title>
<path fill="none" stroke="#778899" d="M617.0486,-609.4076C643.6124,-576.0268 712.0735,-489.9965 742.1256,-452.2322"/>
<polygon fill="#778899" stroke="#778899" points="745.0832,-454.1364 748.5714,-444.1322 739.6059,-449.7776 745.0832,-454.1364"/>
</g>
<!-- collections.abc.Container&#45;&gt;collections.abc.Collection -->
<g id="edge3" class="edge">
<title>collections.abc.Container&#45;&gt;collections.abc.Collection</title>
<path fill="none" stroke="#778899" d="M388.8508,-669C401.7458,-669 416.091,-669 429.5959,-669"/>
<polygon fill="#778899" stroke="#778899" points="429.7215,-672.5001 439.7215,-669 429.7214,-665.5001 429.7215,-672.5001"/>
</g>
<!-- collections.abc.Iterable&#45;&gt;collections.abc.Collection -->
<g id="edge4" class="edge">
<title>collections.abc.Iterable&#45;&gt;collections.abc.Collection</title>
<path fill="none" stroke="#778899" d="M373.4692,-632.0881C393.384,-638.8393 420.8549,-648.152 443.2208,-655.7342"/>
<polygon fill="#778899" stroke="#778899" points="442.1793,-659.0767 452.7736,-658.9726 444.4267,-652.4472 442.1793,-659.0767"/>
</g>
<!-- collections.abc.Iterable&#45;&gt;collections.abc.Reversible -->
<g id="edge5" class="edge">
<title>collections.abc.Iterable&#45;&gt;collections.abc.Reversible</title>
<path fill="none" stroke="#778899" d="M381.6049,-623C395.5829,-623 412.0193,-623 427.5151,-623"/>
<polygon fill="#778899" stroke="#778899" points="427.5269,-626.5001 437.5269,-623 427.5269,-619.5001 427.5269,-626.5001"/>
</g>
<!-- collections.abc.Reversible&#45;&gt;collections.abc.Sequence -->
<g id="edge6" class="edge">
<title>collections.abc.Reversible&#45;&gt;collections.abc.Sequence</title>
<path fill="none" stroke="#778899" d="M527.0759,-623C535.3535,-623 544.0766,-623 552.587,-623"/>
<polygon fill="#778899" stroke="#778899" points="552.8181,-626.5001 562.818,-623 552.818,-619.5001 552.8181,-626.5001"/>
</g>
<!-- collections.abc.Sized&#45;&gt;collections.abc.Collection -->
<g id="edge7" class="edge">
<title>collections.abc.Sized&#45;&gt;collections.abc.Collection</title>
<path fill="none" stroke="#778899" d="M370.2966,-706.9874C390.3613,-700.1854 419.5634,-690.2858 443.1263,-682.2979"/>
<polygon fill="#778899" stroke="#778899" points="444.4895,-685.5315 452.8364,-679.0061 442.242,-678.902 444.4895,-685.5315"/>
</g>
<!-- baca.classes.Sequence&#45;&gt;evans.sequence.Sequence -->
<g id="edge36" class="edge">
<title>baca.classes.Sequence&#45;&gt;evans.sequence.Sequence</title>
<path fill="none" stroke="#778899" d="M894.0102,-412.8991C903.7972,-410.3094 914.7836,-407.4024 925.1505,-404.6593"/>
<polygon fill="#778899" stroke="#778899" points="926.0688,-408.0368 934.8407,-402.0952 924.2781,-401.2697 926.0688,-408.0368"/>
</g>
<!-- builtins.object&#45;&gt;abjad.timespan.Timespan -->
<g id="edge37" class="edge">
<title>builtins.object&#45;&gt;abjad.timespan.Timespan</title>
<path fill="none" stroke="#778899" d="M37.6005,-441.2038C38.8339,-409.2461 45.9342,-305.9492 86.6641,-234 91.875,-224.7949 99.8017,-216.3706 107.4224,-209.5847"/>
<polygon fill="#778899" stroke="#778899" points="109.9924,-211.9987 115.4286,-202.9048 105.5079,-206.6238 109.9924,-211.9987"/>
</g>
<!-- builtins.object&#45;&gt;collections.abc.Container -->
<g id="edge38" class="edge">
<title>builtins.object&#45;&gt;collections.abc.Container</title>
<path fill="none" stroke="#778899" d="M39.3848,-460.8996C45.7505,-490.8657 66.0412,-579.7776 86.6641,-600 142.3412,-654.596 235.9967,-667.3263 294.4019,-669.5778"/>
<polygon fill="#778899" stroke="#778899" points="294.426,-673.08 304.5251,-669.8769 294.6328,-666.083 294.426,-673.08"/>
</g>
<!-- builtins.object&#45;&gt;collections.abc.Iterable -->
<g id="edge39" class="edge">
<title>builtins.object&#45;&gt;collections.abc.Iterable</title>
<path fill="none" stroke="#778899" d="M38.6189,-461.0329C42.0195,-483.3949 53.4277,-537.5142 86.6641,-565 148.231,-615.9145 245.0974,-624.5255 301.5887,-624.7415"/>
<polygon fill="#778899" stroke="#778899" points="301.6667,-628.2413 311.6495,-624.6925 301.6325,-621.2414 301.6667,-628.2413"/>
</g>
<!-- builtins.object&#45;&gt;collections.abc.Sized -->
<g id="edge40" class="edge">
<title>builtins.object&#45;&gt;collections.abc.Sized</title>
<path fill="none" stroke="#778899" d="M38.7113,-460.8301C43.7147,-495.4639 62.0139,-611.177 86.6641,-638 144.2408,-700.6521 250.1248,-713.2181 307.3981,-715.1921"/>
<polygon fill="#778899" stroke="#778899" points="307.4188,-718.6937 317.504,-715.4472 307.5955,-711.6959 307.4188,-718.6937"/>
</g>
<!-- builtins.object&#45;&gt;evans.commands.Command -->
<g id="edge41" class="edge">
<title>builtins.object&#45;&gt;evans.commands.Command</title>
<path fill="none" stroke="#778899" d="M41.626,-460.9738C48.5957,-475.7572 63.9361,-502.9288 86.6641,-514 157.4077,-548.4605 252.3189,-532.7601 305.7114,-519.2225"/>
<polygon fill="#778899" stroke="#778899" points="306.7201,-522.5763 315.4998,-516.646 304.9382,-515.8069 306.7201,-522.5763"/>
</g>
<!-- builtins.object&#45;&gt;evans.commands.HandlerCommand -->
<g id="edge42" class="edge">
<title>builtins.object&#45;&gt;evans.commands.HandlerCommand</title>
<path fill="none" stroke="#778899" d="M45.5464,-461.0445C54.4544,-471.0794 69.699,-485.8695 86.6641,-492 165.2132,-520.3847 192.4938,-507.3853 274.585,-492 285.0839,-490.0323 296.0195,-486.5828 306.106,-482.7626"/>
<polygon fill="#778899" stroke="#778899" points="307.4848,-485.9809 315.4744,-479.0227 304.8895,-479.4797 307.4848,-485.9809"/>
</g>
<!-- builtins.object&#45;&gt;evans.commands.RhythmCommand -->
<g id="edge43" class="edge">
<title>builtins.object&#45;&gt;evans.commands.RhythmCommand</title>
<path fill="none" stroke="#778899" d="M39.6608,-461.002C44.6188,-479.8517 58.1952,-520.3245 86.6641,-538 153.9247,-579.7603 250.9038,-569.9796 305.4166,-559.6467"/>
<polygon fill="#778899" stroke="#778899" points="306.2849,-563.0426 315.408,-557.6557 304.9168,-556.1776 306.2849,-563.0426"/>
</g>
<!-- builtins.object&#45;&gt;evans.consort.AbjadObject.AbjadObject -->
<g id="edge44" class="edge">
<title>builtins.object&#45;&gt;evans.consort.AbjadObject.AbjadObject</title>
<path fill="none" stroke="#778899" d="M37.6278,-460.8046C40.4076,-555.2455 63.0529,-1302.1898 86.6641,-1398 92.6756,-1422.3936 105.0946,-1448.2041 115.0119,-1466.4289"/>
<polygon fill="#778899" stroke="#778899" points="111.9904,-1468.1969 119.9228,-1475.2202 118.1015,-1464.7831 111.9904,-1468.1969"/>
</g>
<!-- builtins.object&#45;&gt;evans.handlers.Handler -->
<g id="edge45" class="edge">
<title>builtins.object&#45;&gt;evans.handlers.Handler</title>
<path fill="none" stroke="#778899" d="M38.8642,-460.8309C49.4059,-528.927 111.5779,-930.5379 126.3189,-1025.7599"/>
<polygon fill="#778899" stroke="#778899" points="122.886,-1026.4637 127.8748,-1035.8105 129.8036,-1025.3928 122.886,-1026.4637"/>
</g>
<!-- builtins.object&#45;&gt;evans.rtm.RTMMaker -->
<g id="edge46" class="edge">
<title>builtins.object&#45;&gt;evans.rtm.RTMMaker</title>
<path fill="none" stroke="#778899" d="M50.7072,-441.2485C60.3812,-434.4629 73.939,-425.5021 86.6641,-419 121.5431,-401.1777 163.3592,-385.497 193.5097,-375.1172"/>
<polygon fill="#778899" stroke="#778899" points="194.9177,-378.3354 203.2605,-371.8049 192.6661,-371.7074 194.9177,-378.3354"/>
</g>
<!-- builtins.object&#45;&gt;evans.rtm.RhythmTreeQuantizer -->
<g id="edge47" class="edge">
<title>builtins.object&#45;&gt;evans.rtm.RhythmTreeQuantizer</title>
<path fill="none" stroke="#778899" d="M58.7574,-446.6432C91.2371,-440.0353 153.4886,-427.3704 194.364,-419.0544"/>
<polygon fill="#778899" stroke="#778899" points="195.1629,-422.4636 204.2644,-417.0402 193.7673,-415.6042 195.1629,-422.4636"/>
</g>
<!-- builtins.object&#45;&gt;evans.segmentmaker.NoteheadBracketMaker -->
<g id="edge48" class="edge">
<title>builtins.object&#45;&gt;evans.segmentmaker.NoteheadBracketMaker</title>
<path fill="none" stroke="#778899" d="M58.7187,-459.342C102.4902,-474.9663 204.1265,-503.6516 274.585,-464 286.819,-457.1151 282.1726,-447.9347 290.9763,-437 297.7559,-428.5794 305.82,-420.1815 313.6771,-412.635"/>
<polygon fill="#778899" stroke="#778899" points="316.497,-414.7898 321.4099,-405.4028 311.7155,-409.6773 316.497,-414.7898"/>
</g>
<!-- builtins.object&#45;&gt;evans.segmentmaker.SegmentMaker -->
<g id="edge49" class="edge">
<title>builtins.object&#45;&gt;evans.segmentmaker.SegmentMaker</title>
<path fill="none" stroke="#778899" d="M41.5737,-441.0166C48.6729,-425.4108 64.4214,-395.2424 86.6641,-378 151.804,-327.5039 253.3617,-323.7221 308.2828,-325.9768"/>
<polygon fill="#778899" stroke="#778899" points="308.1361,-329.4737 318.2983,-326.4771 308.4854,-322.4824 308.1361,-329.4737"/>
</g>
<!-- builtins.object&#45;&gt;evans.sequence.CyclicList -->
<g id="edge50" class="edge">
<title>builtins.object&#45;&gt;evans.sequence.CyclicList</title>
<path fill="none" stroke="#778899" d="M38.7714,-441.0357C42.4843,-418.7822 54.4901,-364.6719 86.6641,-335 137.3791,-288.2289 164.9641,-286 233.9536,-286 233.9536,-286 233.9536,-286 756.6344,-286 822.5733,-286 895.147,-315.9179 935.0029,-335.159"/>
<polygon fill="#778899" stroke="#778899" points="933.6551,-338.3966 944.1722,-339.6779 936.7495,-332.1177 933.6551,-338.3966"/>
</g>
<!-- builtins.object&#45;&gt;evans.sequence.MarkovChain -->
<g id="edge51" class="edge">
<title>builtins.object&#45;&gt;evans.sequence.MarkovChain</title>
<path fill="none" stroke="#778899" d="M38.9226,-441.2473C44.3422,-408.9754 63.1454,-306.4281 86.6641,-284 135.4325,-237.4928 166.5646,-248 233.9536,-248 233.9536,-248 233.9536,-248 756.6344,-248 819.9351,-248 890.6906,-271.5504 931.4481,-287.5462"/>
<polygon fill="#778899" stroke="#778899" points="930.3126,-290.8616 940.897,-291.3313 932.9157,-284.3636 930.3126,-290.8616"/>
</g>
<!-- builtins.object&#45;&gt;evans.spanners.BowAnglePoint -->
<g id="edge52" class="edge">
<title>builtins.object&#45;&gt;evans.spanners.BowAnglePoint</title>
<path fill="none" stroke="#778899" d="M38.4212,-441.0353C43.2732,-397.1681 63.8316,-221.2118 86.6641,-171 90.6184,-162.3039 96.3377,-153.8185 102.3143,-146.2769"/>
<polygon fill="#778899" stroke="#778899" points="105.0914,-148.412 108.8292,-138.4984 99.725,-143.9173 105.0914,-148.412"/>
</g>
<!-- builtins.object&#45;&gt;evans.timespan.TimespanMaker -->
<g id="edge53" class="edge">
<title>builtins.object&#45;&gt;evans.timespan.TimespanMaker</title>
<path fill="none" stroke="#778899" d="M37.9136,-441.2002C41.2619,-385.4144 59.1437,-109.5313 86.6641,-85 147.2285,-31.0136 250.886,-50.3593 307.2889,-66.6841"/>
<polygon fill="#778899" stroke="#778899" points="306.3337,-70.0516 316.9178,-69.5754 308.3468,-63.3473 306.3337,-70.0516"/>
</g>
<!-- builtins.object&#45;&gt;evans.timespan.TimespanSpecifier -->
<g id="edge54" class="edge">
<title>builtins.object&#45;&gt;evans.timespan.TimespanSpecifier</title>
<path fill="none" stroke="#778899" d="M37.8081,-440.9681C40.6791,-381.2278 56.8351,-73.9909 86.6641,-46 145.9476,9.6306 250.2176,-5.4862 307.0325,-19.412"/>
<polygon fill="#778899" stroke="#778899" points="306.5117,-22.8915 317.0673,-21.9811 308.2478,-16.1102 306.5117,-22.8915"/>
</g>
<!-- evans.consort.AbjadObject.AbjadObject&#45;&gt;evans.consort.AbjadValueObject.AbjadValueObject -->
<g id="edge8" class="edge">
<title>evans.consort.AbjadObject.AbjadObject&#45;&gt;evans.consort.AbjadValueObject.AbjadValueObject</title>
<path fill="none" stroke="#778899" d="M151.8703,-1478.1285C166.6461,-1469.6449 186.2084,-1458.4131 202.5292,-1449.0425"/>
<polygon fill="#778899" stroke="#778899" points="204.2824,-1452.0718 211.2119,-1444.0572 200.7969,-1446.0012 204.2824,-1452.0718"/>
</g>
<!-- evans.consort.AbjadObject.AbjadObject&#45;&gt;evans.consort.LogicalTieCollection.LogicalTieCollection -->
<g id="edge9" class="edge">
<title>evans.consort.AbjadObject.AbjadObject&#45;&gt;evans.consort.LogicalTieCollection.LogicalTieCollection</title>
<path fill="none" stroke="#778899" d="M151.8792,-1486.87C188.358,-1480.1522 261.0392,-1466.7676 306.5686,-1458.3832"/>
<polygon fill="#778899" stroke="#778899" points="307.2047,-1461.825 316.4054,-1456.5717 305.9369,-1454.9407 307.2047,-1461.825"/>
</g>
<!-- evans.consort.AbjadObject.AbjadObject&#45;&gt;evans.consort.RatioPartsExpression.RatioPartsExpression -->
<g id="edge10" class="edge">
<title>evans.consort.AbjadObject.AbjadObject&#45;&gt;evans.consort.RatioPartsExpression.RatioPartsExpression</title>
<path fill="none" stroke="#778899" d="M152.0645,-1491C209.891,-1491 363.9066,-1491 439.4115,-1491"/>
<polygon fill="#778899" stroke="#778899" points="439.5263,-1494.5001 449.5263,-1491 439.5263,-1487.5001 439.5263,-1494.5001"/>
</g>
<!-- evans.consort.AbjadObject.AbjadObject&#45;&gt;evans.consort.TimespanCollection.TimespanCollection -->
<g id="edge11" class="edge">
<title>evans.consort.AbjadObject.AbjadObject&#45;&gt;evans.consort.TimespanCollection.TimespanCollection</title>
<path fill="none" stroke="#778899" d="M151.8703,-1498.2939C164.2472,-1502.3207 179.9825,-1507.4403 194.358,-1512.1174"/>
<polygon fill="#778899" stroke="#778899" points="193.4428,-1515.5002 204.035,-1515.2659 195.6086,-1508.8436 193.4428,-1515.5002"/>
</g>
<!-- evans.consort.AbjadObject.AbjadObject&#45;&gt;evans.consort.TimespanCollectionNode.TimespanCollectionNode -->
<g id="edge12" class="edge">
<title>evans.consort.AbjadObject.AbjadObject&#45;&gt;evans.consort.TimespanCollectionNode.TimespanCollectionNode</title>
<path fill="none" stroke="#778899" d="M140.8782,-1506.5114C152.3336,-1520.6315 171.3861,-1540.5262 193.3223,-1549 229.9246,-1563.1392 275.0843,-1557.7304 306.8861,-1550.5685"/>
<polygon fill="#778899" stroke="#778899" points="307.8102,-1553.9461 316.7142,-1548.2042 306.1729,-1547.1403 307.8102,-1553.9461"/>
</g>
<!-- evans.consort.AbjadObject.AbjadObject&#45;&gt;evans.consort.TimespanSimultaneity.TimespanSimultaneity -->
<g id="edge13" class="edge">
<title>evans.consort.AbjadObject.AbjadObject&#45;&gt;evans.consort.TimespanSimultaneity.TimespanSimultaneity</title>
<path fill="none" stroke="#778899" d="M139.5301,-1506.7844C150.6202,-1522.6693 170.0029,-1546.425 193.3223,-1558 271.7303,-1596.9194 377.4562,-1585.593 436.8837,-1574.42"/>
<polygon fill="#778899" stroke="#778899" points="437.5785,-1577.8505 446.7185,-1572.4922 436.2319,-1570.9812 437.5785,-1577.8505"/>
</g>
<!-- evans.handlers.Handler&#45;&gt;evans.handlers.ArticulationHandler -->
<g id="edge14" class="edge">
<title>evans.handlers.Handler&#45;&gt;evans.handlers.ArticulationHandler</title>
<path fill="none" stroke="#778899" d="M129.9095,-1035.8073C131.902,-1001.6055 142.215,-888.9846 193.3223,-816 194.8447,-813.8259 196.5843,-811.757 198.4674,-809.7991"/>
<polygon fill="#778899" stroke="#778899" points="201.1622,-812.0849 206.2855,-802.8111 196.4972,-806.8658 201.1622,-812.0849"/>
</g>
<!-- evans.handlers.Handler&#45;&gt;evans.handlers.BendHandler -->
<g id="edge15" class="edge">
<title>evans.handlers.Handler&#45;&gt;evans.handlers.BendHandler</title>
<path fill="none" stroke="#778899" d="M131.0785,-1036.1136C137.4895,-998.3502 162.1913,-863.9286 193.3223,-836 210.2613,-820.8034 270.9976,-813.0634 310.7573,-809.5377"/>
<polygon fill="#778899" stroke="#778899" points="311.1945,-813.0134 320.8675,-808.6911 310.6103,-806.0378 311.1945,-813.0134"/>
</g>
<!-- evans.handlers.Handler&#45;&gt;evans.handlers.BisbigliandoHandler -->
<g id="edge16" class="edge">
<title>evans.handlers.Handler&#45;&gt;evans.handlers.BisbigliandoHandler</title>
<path fill="none" stroke="#778899" d="M131.2043,-1035.9278C137.7906,-999.3311 162.2798,-874.3268 193.3223,-851 212.2747,-836.7583 360.5789,-838.0876 437.058,-839.7642"/>
<polygon fill="#778899" stroke="#778899" points="437.2739,-843.27 447.3519,-840.0015 437.4353,-836.2719 437.2739,-843.27"/>
</g>
<!-- evans.handlers.Handler&#45;&gt;evans.handlers.BowAngleHandler -->
<g id="edge17" class="edge">
<title>evans.handlers.Handler&#45;&gt;evans.handlers.BowAngleHandler</title>
<path fill="none" stroke="#778899" d="M132.7485,-1036.1137C140.6635,-1013.3223 162.405,-955.9853 193.3223,-916 195.6216,-913.0262 198.2064,-910.1199 200.9293,-907.3337"/>
<polygon fill="#778899" stroke="#778899" points="203.5196,-909.7004 208.3586,-900.2752 198.6981,-904.6257 203.5196,-909.7004"/>
</g>
<!-- evans.handlers.Handler&#45;&gt;evans.handlers.ClefHandler -->
<g id="edge18" class="edge">
<title>evans.handlers.Handler&#45;&gt;evans.handlers.ClefHandler</title>
<path fill="none" stroke="#778899" d="M132.1084,-1036.1742C138.566,-1014.3001 157.2697,-961.5118 193.3223,-936 211.8477,-922.8909 271.7946,-914.5199 311.0159,-910.2997"/>
<polygon fill="#778899" stroke="#778899" points="311.4033,-913.7784 320.9897,-909.2674 310.6825,-906.8156 311.4033,-913.7784"/>
</g>
<!-- evans.handlers.Handler&#45;&gt;evans.handlers.CompositeHandler -->
<g id="edge19" class="edge">
<title>evans.handlers.Handler&#45;&gt;evans.handlers.CompositeHandler</title>
<path fill="none" stroke="#778899" d="M132.6112,-1036.2157C139.7211,-1016.0154 159.0906,-970.0015 193.3223,-951 234.4517,-928.1697 370.2222,-933.4034 440.052,-937.8494"/>
<polygon fill="#778899" stroke="#778899" points="440.054,-941.357 450.263,-938.5239 440.5155,-934.3723 440.054,-941.357"/>
</g>
<!-- evans.handlers.Handler&#45;&gt;evans.handlers.DynamicHandler -->
<g id="edge20" class="edge">
<title>evans.handlers.Handler&#45;&gt;evans.handlers.DynamicHandler</title>
<path fill="none" stroke="#778899" d="M143.9826,-1036.1278C159.127,-1025.8384 183.3239,-1009.3986 202.8116,-996.1584"/>
<polygon fill="#778899" stroke="#778899" points="204.8045,-999.0358 211.1091,-990.5209 200.8707,-993.2457 204.8045,-999.0358"/>
</g>
<!-- evans.handlers.Handler&#45;&gt;evans.handlers.GettatoHandler -->
<g id="edge21" class="edge">
<title>evans.handlers.Handler&#45;&gt;evans.handlers.GettatoHandler</title>
<path fill="none" stroke="#778899" d="M154.9844,-1036.2563C166.5673,-1032.0829 180.5128,-1027.3982 193.3223,-1024 233.0841,-1013.4515 279.6209,-1005.2143 310.9088,-1000.2573"/>
<polygon fill="#778899" stroke="#778899" points="311.5595,-1003.6983 320.9031,-998.7035 310.484,-996.7814 311.5595,-1003.6983"/>
</g>
<!-- evans.handlers.Handler&#45;&gt;evans.handlers.GlissandoHandler -->
<g id="edge22" class="edge">
<title>evans.handlers.Handler&#45;&gt;evans.handlers.GlissandoHandler</title>
<path fill="none" stroke="#778899" d="M155.2062,-1042.7349C166.8319,-1041.3751 180.7497,-1039.9052 193.3223,-1039 281.7709,-1032.6319 385.748,-1030.2909 441.7275,-1029.4514"/>
<polygon fill="#778899" stroke="#778899" points="441.9864,-1032.9481 451.9359,-1029.3071 441.8874,-1025.9488 441.9864,-1032.9481"/>
</g>
<!-- evans.handlers.Handler&#45;&gt;evans.handlers.GraceHandler -->
<g id="edge23" class="edge">
<title>evans.handlers.Handler&#45;&gt;evans.handlers.GraceHandler</title>
<path fill="none" stroke="#778899" d="M155.0161,-1050.1587C168.0471,-1052.2785 184.1052,-1054.8908 198.3285,-1057.2046"/>
<polygon fill="#778899" stroke="#778899" points="197.8591,-1060.6742 208.2914,-1058.8253 198.9832,-1053.765 197.8591,-1060.6742"/>
</g>
<!-- evans.handlers.Handler&#45;&gt;evans.handlers.IntermittentVoiceHandler -->
<g id="edge24" class="edge">
<title>evans.handlers.Handler&#45;&gt;evans.handlers.IntermittentVoiceHandler</title>
<path fill="none" stroke="#778899" d="M140.6774,-1056.0938C152.7032,-1066.1689 172.8393,-1080.9914 193.3223,-1087 229.4311,-1097.5923 272.3012,-1093.4761 303.5194,-1087.6441"/>
<polygon fill="#778899" stroke="#778899" points="304.5148,-1091.0144 313.6331,-1085.6194 303.1406,-1084.1506 304.5148,-1091.0144"/>
</g>
<!-- evans.handlers.Handler&#45;&gt;evans.handlers.NoteheadHandler -->
<g id="edge25" class="edge">
<title>evans.handlers.Handler&#45;&gt;evans.handlers.NoteheadHandler</title>
<path fill="none" stroke="#778899" d="M138.7883,-1055.8284C150.3825,-1067.3476 171.3324,-1086.0037 193.3223,-1095 276.633,-1129.0836 384.6246,-1126.2788 442.1373,-1121.4944"/>
<polygon fill="#778899" stroke="#778899" points="442.6237,-1124.965 452.2714,-1120.5865 441.999,-1117.9929 442.6237,-1124.965"/>
</g>
<!-- evans.handlers.Handler&#45;&gt;evans.handlers.OnBeatGraceHandler -->
<g id="edge26" class="edge">
<title>evans.handlers.Handler&#45;&gt;evans.handlers.OnBeatGraceHandler</title>
<path fill="none" stroke="#778899" d="M137.4671,-1056.0596C149.327,-1070.8227 172.4063,-1099.088 193.3223,-1122 195.8348,-1124.7523 198.4748,-1127.5702 201.1521,-1130.3764"/>
<polygon fill="#778899" stroke="#778899" points="198.7949,-1132.9736 208.2647,-1137.7248 203.8247,-1128.1051 198.7949,-1132.9736"/>
</g>
<!-- evans.handlers.Handler&#45;&gt;evans.handlers.PitchHandler -->
<g id="edge27" class="edge">
<title>evans.handlers.Handler&#45;&gt;evans.handlers.PitchHandler</title>
<path fill="none" stroke="#778899" d="M130.0249,-1055.7985C132.2646,-1084.0007 143.0165,-1165.4871 193.3223,-1199 228.1697,-1222.2148 278.0559,-1215.4037 311.3616,-1206.6929"/>
<polygon fill="#778899" stroke="#778899" points="312.4434,-1210.0247 321.1305,-1203.9597 310.5572,-1203.2836 312.4434,-1210.0247"/>
</g>
<!-- evans.handlers.Handler&#45;&gt;evans.handlers.RhythmHandler -->
<g id="edge28" class="edge">
<title>evans.handlers.Handler&#45;&gt;evans.handlers.RhythmHandler</title>
<path fill="none" stroke="#778899" d="M129.8657,-1055.907C131.6784,-1085.2726 141.3981,-1172.2106 193.3223,-1211 232.3196,-1240.1325 377.691,-1235.4916 446.1994,-1231.502"/>
<polygon fill="#778899" stroke="#778899" points="446.7386,-1234.9757 456.5066,-1230.8726 446.3118,-1227.9887 446.7386,-1234.9757"/>
</g>
<!-- evans.handlers.Handler&#45;&gt;evans.handlers.SlurHandler -->
<g id="edge29" class="edge">
<title>evans.handlers.Handler&#45;&gt;evans.handlers.SlurHandler</title>
<path fill="none" stroke="#778899" d="M130.6568,-1055.9737C134.6786,-1085.7626 149.9322,-1175.626 193.3223,-1234 195.3386,-1236.7126 197.6836,-1239.2718 200.2103,-1241.6613"/>
<polygon fill="#778899" stroke="#778899" points="198.2642,-1244.5954 208.1886,-1248.3047 202.7435,-1239.2161 198.2642,-1244.5954"/>
</g>
<!-- evans.handlers.Handler&#45;&gt;evans.handlers.TempoSpannerHandler -->
<g id="edge30" class="edge">
<title>evans.handlers.Handler&#45;&gt;evans.handlers.TempoSpannerHandler</title>
<path fill="none" stroke="#778899" d="M130.4865,-1055.792C135.0864,-1097.2615 155.1591,-1257.6334 193.3223,-1287 226.4206,-1312.4692 276.3793,-1303.0495 310.2008,-1291.8868"/>
<polygon fill="#778899" stroke="#778899" points="311.4279,-1295.1655 319.7131,-1288.562 309.1183,-1288.5575 311.4279,-1295.1655"/>
</g>
<!-- evans.handlers.Handler&#45;&gt;evans.handlers.TextSpanHandler -->
<g id="edge31" class="edge">
<title>evans.handlers.Handler&#45;&gt;evans.handlers.TextSpanHandler</title>
<path fill="none" stroke="#778899" d="M130.4262,-1055.9496C134.8434,-1098.8632 154.4803,-1267.4163 193.3223,-1300 230.699,-1331.3546 377.5745,-1324.9335 446.4009,-1319.9968"/>
<polygon fill="#778899" stroke="#778899" points="447.0371,-1323.4591 456.7483,-1319.2233 446.5152,-1316.4786 447.0371,-1323.4591"/>
</g>
<!-- evans.handlers.Handler&#45;&gt;evans.handlers.TrillHandler -->
<g id="edge32" class="edge">
<title>evans.handlers.Handler&#45;&gt;evans.handlers.TrillHandler</title>
<path fill="none" stroke="#778899" d="M130.8023,-1056.0061C136.8854,-1100.0274 162.7819,-1276.3042 193.3223,-1322 195.2485,-1324.8822 197.5648,-1327.5716 200.1022,-1330.0583"/>
<polygon fill="#778899" stroke="#778899" points="198.3092,-1333.1249 208.2088,-1336.8997 202.8239,-1327.7754 198.3092,-1333.1249"/>
</g>
<!-- abjad.ratio.NonreducedRatio -->
<g id="node1" class="node">
<title>abjad.ratio.NonreducedRatio</title>
<path fill="#fbb4ae" stroke="#fbb4ae" stroke-width="2" d="M781.7864,-624.498C781.7864,-624.498 731.4823,-624.498 731.4823,-624.498 726.3163,-624.498 721.1503,-619.332 721.1503,-614.166 721.1503,-614.166 721.1503,-603.834 721.1503,-603.834 721.1503,-598.668 726.3163,-593.502 731.4823,-593.502 731.4823,-593.502 781.7864,-593.502 781.7864,-593.502 786.9525,-593.502 792.1185,-598.668 792.1185,-603.834 792.1185,-603.834 792.1185,-614.166 792.1185,-614.166 792.1185,-619.332 786.9525,-624.498 781.7864,-624.498"/>
<text text-anchor="middle" x="756.6344" y="-612.499" font-family="Arial" font-size="10.00" fill="#000000">Nonreduced</text>
<text text-anchor="middle" x="756.6344" y="-601" font-family="Arial" font-size="10.00" fill="#000000">Ratio</text>
</g>
<!-- abjad.ratio.Ratio -->
<g id="node2" class="node">
<title>abjad.ratio.Ratio</title>
<path fill="#fbb4ae" stroke="#fbb4ae" stroke-width="2" d="M876.571,-616.0056C876.571,-616.0056 850.2193,-616.0056 850.2193,-616.0056 846.8841,-616.0056 843.5489,-612.6704 843.5489,-609.3352 843.5489,-609.3352 843.5489,-602.6648 843.5489,-602.6648 843.5489,-599.3296 846.8841,-595.9944 850.2193,-595.9944 850.2193,-595.9944 876.571,-595.9944 876.571,-595.9944 879.9062,-595.9944 883.2414,-599.3296 883.2414,-602.6648 883.2414,-602.6648 883.2414,-609.3352 883.2414,-609.3352 883.2414,-612.6704 879.9062,-616.0056 876.571,-616.0056"/>
<text text-anchor="middle" x="863.3951" y="-603.7495" font-family="Arial" font-size="10.00" fill="#000000">Ratio</text>
</g>
<!-- abjad.sequence.Sequence -->
<g id="node3" class="node">
<title>abjad.sequence.Sequence</title>
<path fill="#b3cde3" stroke="#b3cde3" stroke-width="2" d="M780.5031,-444.0056C780.5031,-444.0056 732.7657,-444.0056 732.7657,-444.0056 729.4305,-444.0056 726.0953,-440.6704 726.0953,-437.3352 726.0953,-437.3352 726.0953,-430.6648 726.0953,-430.6648 726.0953,-427.3296 729.4305,-423.9944 732.7657,-423.9944 732.7657,-423.9944 780.5031,-423.9944 780.5031,-423.9944 783.8383,-423.9944 787.1735,-427.3296 787.1735,-430.6648 787.1735,-430.6648 787.1735,-437.3352 787.1735,-437.3352 787.1735,-440.6704 783.8383,-444.0056 780.5031,-444.0056"/>
<text text-anchor="middle" x="756.6344" y="-431.7495" font-family="Arial" font-size="10.00" fill="#000000">Sequence</text>
</g>
<!-- abjad.timespan.Timespan -->
<g id="node4" class="node">
<title>abjad.timespan.Timespan</title>
<path fill="#ccebc5" stroke="#ccebc5" stroke-width="2" d="M152.3187,-203.0056C152.3187,-203.0056 106.5856,-203.0056 106.5856,-203.0056 103.2504,-203.0056 99.9152,-199.6704 99.9152,-196.3352 99.9152,-196.3352 99.9152,-189.6648 99.9152,-189.6648 99.9152,-186.3296 103.2504,-182.9944 106.5856,-182.9944 106.5856,-182.9944 152.3187,-182.9944 152.3187,-182.9944 155.6539,-182.9944 158.9891,-186.3296 158.9891,-189.6648 158.9891,-189.6648 158.9891,-196.3352 158.9891,-196.3352 158.9891,-199.6704 155.6539,-203.0056 152.3187,-203.0056"/>
<text text-anchor="middle" x="129.4521" y="-190.7495" font-family="Arial" font-size="10.00" fill="#000000">Timespan</text>
</g>
<!-- collections.abc.Collection -->
<g id="node5" class="node">
<title>collections.abc.Collection</title>
<g id="a_node5"><a xlink:href="https://docs.python.org/3.7/library/collections.abc.html#collections.abc.Collection" xlink:title="Collection" target="_top">
<ellipse fill="none" stroke="#ffffcc" stroke-width="2" cx="482.3526" cy="-669" rx="42.2276" ry="13.579"/>
<text text-anchor="middle" x="482.3526" y="-666.7495" font-family="Arial" font-size="10.00" fill="#000000">Collection</text>
</a>
</g>
</g>
<!-- collections.abc.Sequence -->
<g id="node6" class="node">
<title>collections.abc.Sequence</title>
<g id="a_node6"><a xlink:href="https://docs.python.org/3.7/library/collections.abc.html#collections.abc.Sequence" xlink:title="Sequence" target="_top">
<ellipse fill="none" stroke="#ffffcc" stroke-width="2" cx="606.232" cy="-623" rx="43.3229" ry="13.579"/>
<text text-anchor="middle" x="606.232" y="-620.7495" font-family="Arial" font-size="10.00" fill="#000000">Sequence</text>
</a>
</g>
</g>
<!-- collections.abc.Container -->
<g id="node7" class="node">
<title>collections.abc.Container</title>
<g id="a_node7"><a xlink:href="https://docs.python.org/3.7/library/collections.abc.html#collections.abc.Container" xlink:title="Container" target="_top">
<ellipse fill="none" stroke="#ffffcc" stroke-width="2" cx="346.6609" cy="-669" rx="41.9469" ry="13.579"/>
<text text-anchor="middle" x="346.6609" y="-666.7495" font-family="Arial" font-size="10.00" fill="#000000">Container</text>
</a>
</g>
</g>
<!-- collections.abc.Iterable -->
<g id="node8" class="node">
<title>collections.abc.Iterable</title>
<g id="a_node8"><a xlink:href="https://docs.python.org/3.7/library/collections.abc.html#collections.abc.Iterable" xlink:title="Iterable" target="_top">
<ellipse fill="none" stroke="#ffffcc" stroke-width="2" cx="346.6609" cy="-623" rx="34.7981" ry="13.579"/>
<text text-anchor="middle" x="346.6609" y="-620.7495" font-family="Arial" font-size="10.00" fill="#000000">Iterable</text>
</a>
</g>
</g>
<!-- collections.abc.Reversible -->
<g id="node9" class="node">
<title>collections.abc.Reversible</title>
<g id="a_node9"><a xlink:href="https://docs.python.org/3.7/library/collections.abc.html#collections.abc.Reversible" xlink:title="Reversible" target="_top">
<ellipse fill="none" stroke="#ffffcc" stroke-width="2" cx="482.3526" cy="-623" rx="44.9376" ry="13.579"/>
<text text-anchor="middle" x="482.3526" y="-620.7495" font-family="Arial" font-size="10.00" fill="#000000">Reversible</text>
</a>
</g>
</g>
<!-- collections.abc.Sized -->
<g id="node10" class="node">
<title>collections.abc.Sized</title>
<g id="a_node10"><a xlink:href="https://docs.python.org/3.7/library/collections.abc.html#collections.abc.Sized" xlink:title="Sized" target="_top">
<ellipse fill="none" stroke="#ffffcc" stroke-width="2" cx="346.6609" cy="-715" rx="29.0035" ry="13.579"/>
<text text-anchor="middle" x="346.6609" y="-712.7495" font-family="Arial" font-size="10.00" fill="#000000">Sized</text>
</a>
</g>
</g>
<!-- baca.classes.Sequence -->
<g id="node11" class="node">
<title>baca.classes.Sequence</title>
<path fill="#decbe4" stroke="#decbe4" stroke-width="2" d="M887.2638,-431.0056C887.2638,-431.0056 839.5264,-431.0056 839.5264,-431.0056 836.1913,-431.0056 832.8561,-427.6704 832.8561,-424.3352 832.8561,-424.3352 832.8561,-417.6648 832.8561,-417.6648 832.8561,-414.3296 836.1913,-410.9944 839.5264,-410.9944 839.5264,-410.9944 887.2638,-410.9944 887.2638,-410.9944 890.599,-410.9944 893.9342,-414.3296 893.9342,-417.6648 893.9342,-417.6648 893.9342,-424.3352 893.9342,-424.3352 893.9342,-427.6704 890.599,-431.0056 887.2638,-431.0056"/>
<text text-anchor="middle" x="863.3951" y="-418.7495" font-family="Arial" font-size="10.00" fill="#000000">Sequence</text>
</g>
<!-- builtins.object -->
<g id="node12" class="node">
<title>builtins.object</title>
<g id="a_node12"><a xlink:href="https://docs.python.org/3.7/library/functions.html#object" xlink:title="object" target="_top">
<path fill="#fed9a6" stroke="#fed9a6" stroke-width="2" d="M51.8576,-461.0056C51.8576,-461.0056 22.8269,-461.0056 22.8269,-461.0056 19.4918,-461.0056 16.1566,-457.6704 16.1566,-454.3352 16.1566,-454.3352 16.1566,-447.6648 16.1566,-447.6648 16.1566,-444.3296 19.4918,-440.9944 22.8269,-440.9944 22.8269,-440.9944 51.8576,-440.9944 51.8576,-440.9944 55.1928,-440.9944 58.528,-444.3296 58.528,-447.6648 58.528,-447.6648 58.528,-454.3352 58.528,-454.3352 58.528,-457.6704 55.1928,-461.0056 51.8576,-461.0056"/>
<text text-anchor="middle" x="37.3423" y="-448.7495" font-family="Arial" font-size="10.00" fill="#000000">object</text>
</a>
</g>
</g>
<!-- evans.commands.Command -->
<g id="node13" class="node">
<title>evans.commands.Command</title>
<g id="a_node13"><a xlink:href="../api/evans/commands.html#evans.commands.Command" xlink:title="Command" target="_top">
<path fill="#e5d8bd" stroke="#e5d8bd" stroke-width="2" d="M371.1186,-517.0056C371.1186,-517.0056 322.2032,-517.0056 322.2032,-517.0056 318.868,-517.0056 315.5329,-513.6704 315.5329,-510.3352 315.5329,-510.3352 315.5329,-503.6648 315.5329,-503.6648 315.5329,-500.3296 318.868,-496.9944 322.2032,-496.9944 322.2032,-496.9944 371.1186,-496.9944 371.1186,-496.9944 374.4538,-496.9944 377.789,-500.3296 377.789,-503.6648 377.789,-503.6648 377.789,-510.3352 377.789,-510.3352 377.789,-513.6704 374.4538,-517.0056 371.1186,-517.0056"/>
<text text-anchor="middle" x="346.6609" y="-504.7495" font-family="Arial" font-size="10.00" fill="#000000">Command</text>
</a>
</g>
</g>
<!-- evans.commands.HandlerCommand -->
<g id="node14" class="node">
<title>evans.commands.HandlerCommand</title>
<g id="a_node14"><a xlink:href="../api/evans/commands.html#evans.commands.HandlerCommand" xlink:title="Handler\nCommand" target="_top">
<path fill="#e5d8bd" stroke="#e5d8bd" stroke-width="2" d="M367.4569,-479.498C367.4569,-479.498 325.8649,-479.498 325.8649,-479.498 320.6989,-479.498 315.5329,-474.332 315.5329,-469.166 315.5329,-469.166 315.5329,-458.834 315.5329,-458.834 315.5329,-453.668 320.6989,-448.502 325.8649,-448.502 325.8649,-448.502 367.4569,-448.502 367.4569,-448.502 372.623,-448.502 377.789,-453.668 377.789,-458.834 377.789,-458.834 377.789,-469.166 377.789,-469.166 377.789,-474.332 372.623,-479.498 367.4569,-479.498"/>
<text text-anchor="middle" x="346.6609" y="-467.499" font-family="Arial" font-size="10.00" fill="#000000">Handler</text>
<text text-anchor="middle" x="346.6609" y="-456" font-family="Arial" font-size="10.00" fill="#000000">Command</text>
</a>
</g>
</g>
<!-- evans.commands.RhythmCommand -->
<g id="node15" class="node">
<title>evans.commands.RhythmCommand</title>
<g id="a_node15"><a xlink:href="../api/evans/commands.html#evans.commands.RhythmCommand" xlink:title="Rhythm\nCommand" target="_top">
<path fill="#e5d8bd" stroke="#e5d8bd" stroke-width="2" d="M367.4569,-565.498C367.4569,-565.498 325.8649,-565.498 325.8649,-565.498 320.6989,-565.498 315.5329,-560.332 315.5329,-555.166 315.5329,-555.166 315.5329,-544.834 315.5329,-544.834 315.5329,-539.668 320.6989,-534.502 325.8649,-534.502 325.8649,-534.502 367.4569,-534.502 367.4569,-534.502 372.623,-534.502 377.789,-539.668 377.789,-544.834 377.789,-544.834 377.789,-555.166 377.789,-555.166 377.789,-560.332 372.623,-565.498 367.4569,-565.498"/>
<text text-anchor="middle" x="346.6609" y="-553.499" font-family="Arial" font-size="10.00" fill="#000000">Rhythm</text>
<text text-anchor="middle" x="346.6609" y="-542" font-family="Arial" font-size="10.00" fill="#000000">Command</text>
</a>
</g>
</g>
<!-- evans.consort.AbjadObject.AbjadObject -->
<g id="node16" class="node">
<title>evans.consort.AbjadObject.AbjadObject</title>
<g id="a_node16"><a xlink:href="../api/evans/consort/AbjadObject.html#evans.consort.AbjadObject.AbjadObject" xlink:title="Abjad\nObject" target="_top">
<path fill="#fddaec" stroke="#fddaec" stroke-width="2" d="M141.5216,-1506.498C141.5216,-1506.498 117.3827,-1506.498 117.3827,-1506.498 112.2167,-1506.498 107.0507,-1501.332 107.0507,-1496.166 107.0507,-1496.166 107.0507,-1485.834 107.0507,-1485.834 107.0507,-1480.668 112.2167,-1475.502 117.3827,-1475.502 117.3827,-1475.502 141.5216,-1475.502 141.5216,-1475.502 146.6876,-1475.502 151.8536,-1480.668 151.8536,-1485.834 151.8536,-1485.834 151.8536,-1496.166 151.8536,-1496.166 151.8536,-1501.332 146.6876,-1506.498 141.5216,-1506.498"/>
<text text-anchor="middle" x="129.4521" y="-1494.499" font-family="Arial" font-size="10.00" fill="#000000">Abjad</text>
<text text-anchor="middle" x="129.4521" y="-1483" font-family="Arial" font-size="10.00" fill="#000000">Object</text>
</a>
</g>
</g>
<!-- evans.consort.AbjadValueObject.AbjadValueObject -->
<g id="node17" class="node">
<title>evans.consort.AbjadValueObject.AbjadValueObject</title>
<g id="a_node17"><a xlink:href="../api/evans/consort/AbjadValueObject.html#evans.consort.AbjadValueObject.AbjadValueObject" xlink:title="Abjad\nValue\nObject" target="_top">
<path fill="#fddaec" stroke="#fddaec" stroke-width="2" d="M244.3551,-1452.5C244.3551,-1452.5 223.5521,-1452.5 223.5521,-1452.5 217.5521,-1452.5 211.5521,-1446.5 211.5521,-1440.5 211.5521,-1440.5 211.5521,-1421.5 211.5521,-1421.5 211.5521,-1415.5 217.5521,-1409.5 223.5521,-1409.5 223.5521,-1409.5 244.3551,-1409.5 244.3551,-1409.5 250.3551,-1409.5 256.3551,-1415.5 256.3551,-1421.5 256.3551,-1421.5 256.3551,-1440.5 256.3551,-1440.5 256.3551,-1446.5 250.3551,-1452.5 244.3551,-1452.5"/>
<text text-anchor="middle" x="233.9536" y="-1440.2485" font-family="Arial" font-size="10.00" fill="#000000">Abjad</text>
<text text-anchor="middle" x="233.9536" y="-1428.7495" font-family="Arial" font-size="10.00" fill="#000000">Value</text>
<text text-anchor="middle" x="233.9536" y="-1417.2505" font-family="Arial" font-size="10.00" fill="#000000">Object</text>
</a>
</g>
</g>
<!-- evans.consort.LogicalTieCollection.LogicalTieCollection -->
<g id="node18" class="node">
<title>evans.consort.LogicalTieCollection.LogicalTieCollection</title>
<g id="a_node18"><a xlink:href="../api/evans/consort/LogicalTieCollection.html#evans.consort.LogicalTieCollection.LogicalTieCollection" xlink:title="Logical\nTie\nCollection" target="_top">
<path fill="#fddaec" stroke="#fddaec" stroke-width="2" d="M364.5721,-1472.5C364.5721,-1472.5 328.7497,-1472.5 328.7497,-1472.5 322.7497,-1472.5 316.7497,-1466.5 316.7497,-1460.5 316.7497,-1460.5 316.7497,-1441.5 316.7497,-1441.5 316.7497,-1435.5 322.7497,-1429.5 328.7497,-1429.5 328.7497,-1429.5 364.5721,-1429.5 364.5721,-1429.5 370.5721,-1429.5 376.5721,-1435.5 376.5721,-1441.5 376.5721,-1441.5 376.5721,-1460.5 376.5721,-1460.5 376.5721,-1466.5 370.5721,-1472.5 364.5721,-1472.5"/>
<text text-anchor="middle" x="346.6609" y="-1460.2485" font-family="Arial" font-size="10.00" fill="#000000">Logical</text>
<text text-anchor="middle" x="346.6609" y="-1448.7495" font-family="Arial" font-size="10.00" fill="#000000">Tie</text>
<text text-anchor="middle" x="346.6609" y="-1437.2505" font-family="Arial" font-size="10.00" fill="#000000">Collection</text>
</a>
</g>
</g>
<!-- evans.consort.RatioPartsExpression.RatioPartsExpression -->
<g id="node19" class="node">
<title>evans.consort.RatioPartsExpression.RatioPartsExpression</title>
<g id="a_node19"><a xlink:href="../api/evans/consort/RatioPartsExpression.html#evans.consort.RatioPartsExpression.RatioPartsExpression" xlink:title="Ratio\nParts\nExpression" target="_top">
<path fill="#fddaec" stroke="#fddaec" stroke-width="2" d="M503.3221,-1512.5C503.3221,-1512.5 461.3832,-1512.5 461.3832,-1512.5 455.3832,-1512.5 449.3832,-1506.5 449.3832,-1500.5 449.3832,-1500.5 449.3832,-1481.5 449.3832,-1481.5 449.3832,-1475.5 455.3832,-1469.5 461.3832,-1469.5 461.3832,-1469.5 503.3221,-1469.5 503.3221,-1469.5 509.3221,-1469.5 515.3221,-1475.5 515.3221,-1481.5 515.3221,-1481.5 515.3221,-1500.5 515.3221,-1500.5 515.3221,-1506.5 509.3221,-1512.5 503.3221,-1512.5"/>
<text text-anchor="middle" x="482.3526" y="-1500.2485" font-family="Arial" font-size="10.00" fill="#000000">Ratio</text>
<text text-anchor="middle" x="482.3526" y="-1488.7495" font-family="Arial" font-size="10.00" fill="#000000">Parts</text>
<text text-anchor="middle" x="482.3526" y="-1477.2505" font-family="Arial" font-size="10.00" fill="#000000">Expression</text>
</a>
</g>
</g>
<!-- evans.consort.TimespanCollection.TimespanCollection -->
<g id="node20" class="node">
<title>evans.consort.TimespanCollection.TimespanCollection</title>
<g id="a_node20"><a xlink:href="../api/evans/consort/TimespanCollection.html#evans.consort.TimespanCollection.TimespanCollection" xlink:title="Timespan\nCollection" target="_top">
<path fill="#fddaec" stroke="#fddaec" stroke-width="2" d="M253.5328,-1540.498C253.5328,-1540.498 214.3744,-1540.498 214.3744,-1540.498 209.2084,-1540.498 204.0424,-1535.332 204.0424,-1530.166 204.0424,-1530.166 204.0424,-1519.834 204.0424,-1519.834 204.0424,-1514.668 209.2084,-1509.502 214.3744,-1509.502 214.3744,-1509.502 253.5328,-1509.502 253.5328,-1509.502 258.6988,-1509.502 263.8648,-1514.668 263.8648,-1519.834 263.8648,-1519.834 263.8648,-1530.166 263.8648,-1530.166 263.8648,-1535.332 258.6988,-1540.498 253.5328,-1540.498"/>
<text text-anchor="middle" x="233.9536" y="-1528.499" font-family="Arial" font-size="10.00" fill="#000000">Timespan</text>
<text text-anchor="middle" x="233.9536" y="-1517" font-family="Arial" font-size="10.00" fill="#000000">Collection</text>
</a>
</g>
</g>
<!-- evans.consort.TimespanCollectionNode.TimespanCollectionNode -->
<g id="node21" class="node">
<title>evans.consort.TimespanCollectionNode.TimespanCollectionNode</title>
<g id="a_node21"><a xlink:href="../api/evans/consort/TimespanCollectionNode.html#evans.consort.TimespanCollectionNode.TimespanCollectionNode" xlink:title="Timespan\nCollection\nNode" target="_top">
<path fill="#fddaec" stroke="#fddaec" stroke-width="2" d="M364.5721,-1560.5C364.5721,-1560.5 328.7497,-1560.5 328.7497,-1560.5 322.7497,-1560.5 316.7497,-1554.5 316.7497,-1548.5 316.7497,-1548.5 316.7497,-1529.5 316.7497,-1529.5 316.7497,-1523.5 322.7497,-1517.5 328.7497,-1517.5 328.7497,-1517.5 364.5721,-1517.5 364.5721,-1517.5 370.5721,-1517.5 376.5721,-1523.5 376.5721,-1529.5 376.5721,-1529.5 376.5721,-1548.5 376.5721,-1548.5 376.5721,-1554.5 370.5721,-1560.5 364.5721,-1560.5"/>
<text text-anchor="middle" x="346.6609" y="-1548.2485" font-family="Arial" font-size="10.00" fill="#000000">Timespan</text>
<text text-anchor="middle" x="346.6609" y="-1536.7495" font-family="Arial" font-size="10.00" fill="#000000">Collection</text>
<text text-anchor="middle" x="346.6609" y="-1525.2505" font-family="Arial" font-size="10.00" fill="#000000">Node</text>
</a>
</g>
</g>
<!-- evans.consort.TimespanSimultaneity.TimespanSimultaneity -->
<g id="node22" class="node">
<title>evans.consort.TimespanSimultaneity.TimespanSimultaneity</title>
<g id="a_node22"><a xlink:href="../api/evans/consort/TimespanSimultaneity.html#evans.consort.TimespanSimultaneity.TimespanSimultaneity" xlink:title="Timespan\nSimultaneity" target="_top">
<path fill="#fddaec" stroke="#fddaec" stroke-width="2" d="M507.4899,-1579.498C507.4899,-1579.498 457.2153,-1579.498 457.2153,-1579.498 452.0493,-1579.498 446.8833,-1574.332 446.8833,-1569.166 446.8833,-1569.166 446.8833,-1558.834 446.8833,-1558.834 446.8833,-1553.668 452.0493,-1548.502 457.2153,-1548.502 457.2153,-1548.502 507.4899,-1548.502 507.4899,-1548.502 512.6559,-1548.502 517.822,-1553.668 517.822,-1558.834 517.822,-1558.834 517.822,-1569.166 517.822,-1569.166 517.822,-1574.332 512.6559,-1579.498 507.4899,-1579.498"/>
<text text-anchor="middle" x="482.3526" y="-1567.499" font-family="Arial" font-size="10.00" fill="#000000">Timespan</text>
<text text-anchor="middle" x="482.3526" y="-1556" font-family="Arial" font-size="10.00" fill="#000000">Simultaneity</text>
</a>
</g>
</g>
<!-- evans.handlers.ArticulationHandler -->
<g id="node23" class="node">
<title>evans.handlers.ArticulationHandler</title>
<g id="a_node23"><a xlink:href="../api/evans/handlers.html#evans.handlers.ArticulationHandler" xlink:title="Articulation\nHandler" target="_top">
<path fill="#f2f2f2" stroke="#f2f2f2" stroke-width="2" d="M256.591,-802.498C256.591,-802.498 211.3162,-802.498 211.3162,-802.498 206.1502,-802.498 200.9842,-797.332 200.9842,-792.166 200.9842,-792.166 200.9842,-781.834 200.9842,-781.834 200.9842,-776.668 206.1502,-771.502 211.3162,-771.502 211.3162,-771.502 256.591,-771.502 256.591,-771.502 261.7571,-771.502 266.9231,-776.668 266.9231,-781.834 266.9231,-781.834 266.9231,-792.166 266.9231,-792.166 266.9231,-797.332 261.7571,-802.498 256.591,-802.498"/>
<text text-anchor="middle" x="233.9536" y="-790.499" font-family="Arial" font-size="10.00" fill="#000000">Articulation</text>
<text text-anchor="middle" x="233.9536" y="-779" font-family="Arial" font-size="10.00" fill="#000000">Handler</text>
</a>
</g>
</g>
<!-- evans.handlers.BendHandler -->
<g id="node24" class="node">
<title>evans.handlers.BendHandler</title>
<g id="a_node24"><a xlink:href="../api/evans/handlers.html#evans.handlers.BendHandler" xlink:title="Bend\nHandler" target="_top">
<path fill="#f2f2f2" stroke="#f2f2f2" stroke-width="2" d="M361.8484,-822.498C361.8484,-822.498 331.4734,-822.498 331.4734,-822.498 326.3074,-822.498 321.1414,-817.332 321.1414,-812.166 321.1414,-812.166 321.1414,-801.834 321.1414,-801.834 321.1414,-796.668 326.3074,-791.502 331.4734,-791.502 331.4734,-791.502 361.8484,-791.502 361.8484,-791.502 367.0144,-791.502 372.1805,-796.668 372.1805,-801.834 372.1805,-801.834 372.1805,-812.166 372.1805,-812.166 372.1805,-817.332 367.0144,-822.498 361.8484,-822.498"/>
<text text-anchor="middle" x="346.6609" y="-810.499" font-family="Arial" font-size="10.00" fill="#000000">Bend</text>
<text text-anchor="middle" x="346.6609" y="-799" font-family="Arial" font-size="10.00" fill="#000000">Handler</text>
</a>
</g>
</g>
<!-- evans.handlers.BisbigliandoHandler -->
<g id="node25" class="node">
<title>evans.handlers.BisbigliandoHandler</title>
<g id="a_node25"><a xlink:href="../api/evans/handlers.html#evans.handlers.BisbigliandoHandler" xlink:title="Bisbigliando\nHandler" target="_top">
<path fill="#f2f2f2" stroke="#f2f2f2" stroke-width="2" d="M506.9464,-856.498C506.9464,-856.498 457.7588,-856.498 457.7588,-856.498 452.5928,-856.498 447.4268,-851.332 447.4268,-846.166 447.4268,-846.166 447.4268,-835.834 447.4268,-835.834 447.4268,-830.668 452.5928,-825.502 457.7588,-825.502 457.7588,-825.502 506.9464,-825.502 506.9464,-825.502 512.1124,-825.502 517.2784,-830.668 517.2784,-835.834 517.2784,-835.834 517.2784,-846.166 517.2784,-846.166 517.2784,-851.332 512.1124,-856.498 506.9464,-856.498"/>
<text text-anchor="middle" x="482.3526" y="-844.499" font-family="Arial" font-size="10.00" fill="#000000">Bisbigliando</text>
<text text-anchor="middle" x="482.3526" y="-833" font-family="Arial" font-size="10.00" fill="#000000">Handler</text>
</a>
</g>
</g>
<!-- evans.handlers.BowAngleHandler -->
<g id="node26" class="node">
<title>evans.handlers.BowAngleHandler</title>
<g id="a_node26"><a xlink:href="../api/evans/handlers.html#evans.handlers.BowAngleHandler" xlink:title="Bow\nAngle\nHandler" target="_top">
<path fill="#f2f2f2" stroke="#f2f2f2" stroke-width="2" d="M247.4731,-902.5C247.4731,-902.5 220.4341,-902.5 220.4341,-902.5 214.4341,-902.5 208.4341,-896.5 208.4341,-890.5 208.4341,-890.5 208.4341,-871.5 208.4341,-871.5 208.4341,-865.5 214.4341,-859.5 220.4341,-859.5 220.4341,-859.5 247.4731,-859.5 247.4731,-859.5 253.4731,-859.5 259.4731,-865.5 259.4731,-871.5 259.4731,-871.5 259.4731,-890.5 259.4731,-890.5 259.4731,-896.5 253.4731,-902.5 247.4731,-902.5"/>
<text text-anchor="middle" x="233.9536" y="-890.2485" font-family="Arial" font-size="10.00" fill="#000000">Bow</text>
<text text-anchor="middle" x="233.9536" y="-878.7495" font-family="Arial" font-size="10.00" fill="#000000">Angle</text>
<text text-anchor="middle" x="233.9536" y="-867.2505" font-family="Arial" font-size="10.00" fill="#000000">Handler</text>
</a>
</g>
</g>
<!-- evans.handlers.ClefHandler -->
<g id="node27" class="node">
<title>evans.handlers.ClefHandler</title>
<g id="a_node27"><a xlink:href="../api/evans/handlers.html#evans.handlers.ClefHandler" xlink:title="Clef\nHandler" target="_top">
<path fill="#f2f2f2" stroke="#f2f2f2" stroke-width="2" d="M361.8484,-922.498C361.8484,-922.498 331.4734,-922.498 331.4734,-922.498 326.3074,-922.498 321.1414,-917.332 321.1414,-912.166 321.1414,-912.166 321.1414,-901.834 321.1414,-901.834 321.1414,-896.668 326.3074,-891.502 331.4734,-891.502 331.4734,-891.502 361.8484,-891.502 361.8484,-891.502 367.0144,-891.502 372.1805,-896.668 372.1805,-901.834 372.1805,-901.834 372.1805,-912.166 372.1805,-912.166 372.1805,-917.332 367.0144,-922.498 361.8484,-922.498"/>
<text text-anchor="middle" x="346.6609" y="-910.499" font-family="Arial" font-size="10.00" fill="#000000">Clef</text>
<text text-anchor="middle" x="346.6609" y="-899" font-family="Arial" font-size="10.00" fill="#000000">Handler</text>
</a>
</g>
</g>
<!-- evans.handlers.CompositeHandler -->
<g id="node28" class="node">
<title>evans.handlers.CompositeHandler</title>
<g id="a_node28"><a xlink:href="../api/evans/handlers.html#evans.handlers.CompositeHandler" xlink:title="Composite\nHandler" target="_top">
<path fill="#f2f2f2" stroke="#f2f2f2" stroke-width="2" d="M503.8188,-956.498C503.8188,-956.498 460.8865,-956.498 460.8865,-956.498 455.7205,-956.498 450.5545,-951.332 450.5545,-946.166 450.5545,-946.166 450.5545,-935.834 450.5545,-935.834 450.5545,-930.668 455.7205,-925.502 460.8865,-925.502 460.8865,-925.502 503.8188,-925.502 503.8188,-925.502 508.9848,-925.502 514.1508,-930.668 514.1508,-935.834 514.1508,-935.834 514.1508,-946.166 514.1508,-946.166 514.1508,-951.332 508.9848,-956.498 503.8188,-956.498"/>
<text text-anchor="middle" x="482.3526" y="-944.499" font-family="Arial" font-size="10.00" fill="#000000">Composite</text>
<text text-anchor="middle" x="482.3526" y="-933" font-family="Arial" font-size="10.00" fill="#000000">Handler</text>
</a>
</g>
</g>
<!-- evans.handlers.DynamicHandler -->
<g id="node29" class="node">
<title>evans.handlers.DynamicHandler</title>
<g id="a_node29"><a xlink:href="../api/evans/handlers.html#evans.handlers.DynamicHandler" xlink:title="Dynamic\nHandler" target="_top">
<path fill="#f2f2f2" stroke="#f2f2f2" stroke-width="2" d="M251.0182,-990.498C251.0182,-990.498 216.8891,-990.498 216.8891,-990.498 211.723,-990.498 206.557,-985.332 206.557,-980.166 206.557,-980.166 206.557,-969.834 206.557,-969.834 206.557,-964.668 211.723,-959.502 216.8891,-959.502 216.8891,-959.502 251.0182,-959.502 251.0182,-959.502 256.1842,-959.502 261.3502,-964.668 261.3502,-969.834 261.3502,-969.834 261.3502,-980.166 261.3502,-980.166 261.3502,-985.332 256.1842,-990.498 251.0182,-990.498"/>
<text text-anchor="middle" x="233.9536" y="-978.499" font-family="Arial" font-size="10.00" fill="#000000">Dynamic</text>
<text text-anchor="middle" x="233.9536" y="-967" font-family="Arial" font-size="10.00" fill="#000000">Handler</text>
</a>
</g>
</g>
<!-- evans.handlers.GettatoHandler -->
<g id="node30" class="node">
<title>evans.handlers.GettatoHandler</title>
<g id="a_node30"><a xlink:href="../api/evans/handlers.html#evans.handlers.GettatoHandler" xlink:title="Gettato\nHandler" target="_top">
<path fill="#f2f2f2" stroke="#f2f2f2" stroke-width="2" d="M361.8484,-1010.498C361.8484,-1010.498 331.4734,-1010.498 331.4734,-1010.498 326.3074,-1010.498 321.1414,-1005.332 321.1414,-1000.166 321.1414,-1000.166 321.1414,-989.834 321.1414,-989.834 321.1414,-984.668 326.3074,-979.502 331.4734,-979.502 331.4734,-979.502 361.8484,-979.502 361.8484,-979.502 367.0144,-979.502 372.1805,-984.668 372.1805,-989.834 372.1805,-989.834 372.1805,-1000.166 372.1805,-1000.166 372.1805,-1005.332 367.0144,-1010.498 361.8484,-1010.498"/>
<text text-anchor="middle" x="346.6609" y="-998.499" font-family="Arial" font-size="10.00" fill="#000000">Gettato</text>
<text text-anchor="middle" x="346.6609" y="-987" font-family="Arial" font-size="10.00" fill="#000000">Handler</text>
</a>
</g>
</g>
<!-- evans.handlers.GlissandoHandler -->
<g id="node31" class="node">
<title>evans.handlers.GlissandoHandler</title>
<g id="a_node31"><a xlink:href="../api/evans/handlers.html#evans.handlers.GlissandoHandler" xlink:title="Glissando\nHandler" target="_top">
<path fill="#f2f2f2" stroke="#f2f2f2" stroke-width="2" d="M502.4902,-1044.498C502.4902,-1044.498 462.2151,-1044.498 462.2151,-1044.498 457.049,-1044.498 451.883,-1039.332 451.883,-1034.166 451.883,-1034.166 451.883,-1023.834 451.883,-1023.834 451.883,-1018.668 457.049,-1013.502 462.2151,-1013.502 462.2151,-1013.502 502.4902,-1013.502 502.4902,-1013.502 507.6562,-1013.502 512.8222,-1018.668 512.8222,-1023.834 512.8222,-1023.834 512.8222,-1034.166 512.8222,-1034.166 512.8222,-1039.332 507.6562,-1044.498 502.4902,-1044.498"/>
<text text-anchor="middle" x="482.3526" y="-1032.499" font-family="Arial" font-size="10.00" fill="#000000">Glissando</text>
<text text-anchor="middle" x="482.3526" y="-1021" font-family="Arial" font-size="10.00" fill="#000000">Handler</text>
</a>
</g>
</g>
<!-- evans.handlers.GraceHandler -->
<g id="node32" class="node">
<title>evans.handlers.GraceHandler</title>
<g id="a_node32"><a xlink:href="../api/evans/handlers.html#evans.handlers.GraceHandler" xlink:title="Grace\nHandler" target="_top">
<path fill="#f2f2f2" stroke="#f2f2f2" stroke-width="2" d="M249.1411,-1078.498C249.1411,-1078.498 218.7661,-1078.498 218.7661,-1078.498 213.6001,-1078.498 208.4341,-1073.332 208.4341,-1068.166 208.4341,-1068.166 208.4341,-1057.834 208.4341,-1057.834 208.4341,-1052.668 213.6001,-1047.502 218.7661,-1047.502 218.7661,-1047.502 249.1411,-1047.502 249.1411,-1047.502 254.3071,-1047.502 259.4731,-1052.668 259.4731,-1057.834 259.4731,-1057.834 259.4731,-1068.166 259.4731,-1068.166 259.4731,-1073.332 254.3071,-1078.498 249.1411,-1078.498"/>
<text text-anchor="middle" x="233.9536" y="-1066.499" font-family="Arial" font-size="10.00" fill="#000000">Grace</text>
<text text-anchor="middle" x="233.9536" y="-1055" font-family="Arial" font-size="10.00" fill="#000000">Handler</text>
</a>
</g>
</g>
<!-- evans.handlers.Handler -->
<g id="node33" class="node">
<title>evans.handlers.Handler</title>
<g id="a_node33"><a xlink:href="../api/evans/handlers.html#evans.handlers.Handler" xlink:title="Handler" target="_top">
<path fill="#f2f2f2" stroke="#f2f2f2" stroke-width="2" d="M148.3013,-1056.0056C148.3013,-1056.0056 110.603,-1056.0056 110.603,-1056.0056 107.2678,-1056.0056 103.9326,-1052.6704 103.9326,-1049.3352 103.9326,-1049.3352 103.9326,-1042.6648 103.9326,-1042.6648 103.9326,-1039.3296 107.2678,-1035.9944 110.603,-1035.9944 110.603,-1035.9944 148.3013,-1035.9944 148.3013,-1035.9944 151.6365,-1035.9944 154.9717,-1039.3296 154.9717,-1042.6648 154.9717,-1042.6648 154.9717,-1049.3352 154.9717,-1049.3352 154.9717,-1052.6704 151.6365,-1056.0056 148.3013,-1056.0056"/>
<text text-anchor="middle" x="129.4521" y="-1043.7495" font-family="Arial" font-size="10.00" fill="#000000">Handler</text>
</a>
</g>
</g>
<!-- evans.handlers.IntermittentVoiceHandler -->
<g id="node34" class="node">
<title>evans.handlers.IntermittentVoiceHandler</title>
<g id="a_node34"><a xlink:href="../api/evans/handlers.html#evans.handlers.IntermittentVoiceHandler" xlink:title="Intermittent\nVoice\nHandler" target="_top">
<path fill="#f2f2f2" stroke="#f2f2f2" stroke-width="2" d="M367.6805,-1098.5C367.6805,-1098.5 325.6414,-1098.5 325.6414,-1098.5 319.6414,-1098.5 313.6414,-1092.5 313.6414,-1086.5 313.6414,-1086.5 313.6414,-1067.5 313.6414,-1067.5 313.6414,-1061.5 319.6414,-1055.5 325.6414,-1055.5 325.6414,-1055.5 367.6805,-1055.5 367.6805,-1055.5 373.6805,-1055.5 379.6805,-1061.5 379.6805,-1067.5 379.6805,-1067.5 379.6805,-1086.5 379.6805,-1086.5 379.6805,-1092.5 373.6805,-1098.5 367.6805,-1098.5"/>
<text text-anchor="middle" x="346.6609" y="-1086.2485" font-family="Arial" font-size="10.00" fill="#000000">Intermittent</text>
<text text-anchor="middle" x="346.6609" y="-1074.7495" font-family="Arial" font-size="10.00" fill="#000000">Voice</text>
<text text-anchor="middle" x="346.6609" y="-1063.2505" font-family="Arial" font-size="10.00" fill="#000000">Handler</text>
</a>
</g>
</g>
<!-- evans.handlers.NoteheadHandler -->
<g id="node35" class="node">
<title>evans.handlers.NoteheadHandler</title>
<g id="a_node35"><a xlink:href="../api/evans/handlers.html#evans.handlers.NoteheadHandler" xlink:title="Notehead\nHandler" target="_top">
<path fill="#f2f2f2" stroke="#f2f2f2" stroke-width="2" d="M501.8909,-1132.498C501.8909,-1132.498 462.8144,-1132.498 462.8144,-1132.498 457.6483,-1132.498 452.4823,-1127.332 452.4823,-1122.166 452.4823,-1122.166 452.4823,-1111.834 452.4823,-1111.834 452.4823,-1106.668 457.6483,-1101.502 462.8144,-1101.502 462.8144,-1101.502 501.8909,-1101.502 501.8909,-1101.502 507.0569,-1101.502 512.2229,-1106.668 512.2229,-1111.834 512.2229,-1111.834 512.2229,-1122.166 512.2229,-1122.166 512.2229,-1127.332 507.0569,-1132.498 501.8909,-1132.498"/>
<text text-anchor="middle" x="482.3526" y="-1120.499" font-family="Arial" font-size="10.00" fill="#000000">Notehead</text>
<text text-anchor="middle" x="482.3526" y="-1109" font-family="Arial" font-size="10.00" fill="#000000">Handler</text>
</a>
</g>
</g>
<!-- evans.handlers.OnBeatGraceHandler -->
<g id="node36" class="node">
<title>evans.handlers.OnBeatGraceHandler</title>
<g id="a_node36"><a xlink:href="../api/evans/handlers.html#evans.handlers.OnBeatGraceHandler" xlink:title="On\nBeat\nGrace\nHandler" target="_top">
<path fill="#f2f2f2" stroke="#f2f2f2" stroke-width="2" d="M247.4731,-1189.9961C247.4731,-1189.9961 220.4341,-1189.9961 220.4341,-1189.9961 214.4341,-1189.9961 208.4341,-1183.9961 208.4341,-1177.9961 208.4341,-1177.9961 208.4341,-1148.0039 208.4341,-1148.0039 208.4341,-1142.0039 214.4341,-1136.0039 220.4341,-1136.0039 220.4341,-1136.0039 247.4731,-1136.0039 247.4731,-1136.0039 253.4731,-1136.0039 259.4731,-1142.0039 259.4731,-1148.0039 259.4731,-1148.0039 259.4731,-1177.9961 259.4731,-1177.9961 259.4731,-1183.9961 253.4731,-1189.9961 247.4731,-1189.9961"/>
<text text-anchor="middle" x="233.9536" y="-1177.998" font-family="Arial" font-size="10.00" fill="#000000">On</text>
<text text-anchor="middle" x="233.9536" y="-1166.499" font-family="Arial" font-size="10.00" fill="#000000">Beat</text>
<text text-anchor="middle" x="233.9536" y="-1155" font-family="Arial" font-size="10.00" fill="#000000">Grace</text>
<text text-anchor="middle" x="233.9536" y="-1143.501" font-family="Arial" font-size="10.00" fill="#000000">Handler</text>
</a>
</g>
</g>
<!-- evans.handlers.PitchHandler -->
<g id="node37" class="node">
<title>evans.handlers.PitchHandler</title>
<g id="a_node37"><a xlink:href="../api/evans/handlers.html#evans.handlers.PitchHandler" xlink:title="Pitch\nHandler" target="_top">
<path fill="#f2f2f2" stroke="#f2f2f2" stroke-width="2" d="M361.8484,-1210.498C361.8484,-1210.498 331.4734,-1210.498 331.4734,-1210.498 326.3074,-1210.498 321.1414,-1205.332 321.1414,-1200.166 321.1414,-1200.166 321.1414,-1189.834 321.1414,-1189.834 321.1414,-1184.668 326.3074,-1179.502 331.4734,-1179.502 331.4734,-1179.502 361.8484,-1179.502 361.8484,-1179.502 367.0144,-1179.502 372.1805,-1184.668 372.1805,-1189.834 372.1805,-1189.834 372.1805,-1200.166 372.1805,-1200.166 372.1805,-1205.332 367.0144,-1210.498 361.8484,-1210.498"/>
<text text-anchor="middle" x="346.6609" y="-1198.499" font-family="Arial" font-size="10.00" fill="#000000">Pitch</text>
<text text-anchor="middle" x="346.6609" y="-1187" font-family="Arial" font-size="10.00" fill="#000000">Handler</text>
</a>
</g>
</g>
<!-- evans.handlers.RhythmHandler -->
<g id="node38" class="node">
<title>evans.handlers.RhythmHandler</title>
<g id="a_node38"><a xlink:href="../api/evans/handlers.html#evans.handlers.RhythmHandler" xlink:title="Rhythm\nHandler" target="_top">
<path fill="#f2f2f2" stroke="#f2f2f2" stroke-width="2" d="M497.5401,-1244.498C497.5401,-1244.498 467.1651,-1244.498 467.1651,-1244.498 461.9991,-1244.498 456.8331,-1239.332 456.8331,-1234.166 456.8331,-1234.166 456.8331,-1223.834 456.8331,-1223.834 456.8331,-1218.668 461.9991,-1213.502 467.1651,-1213.502 467.1651,-1213.502 497.5401,-1213.502 497.5401,-1213.502 502.7061,-1213.502 507.8722,-1218.668 507.8722,-1223.834 507.8722,-1223.834 507.8722,-1234.166 507.8722,-1234.166 507.8722,-1239.332 502.7061,-1244.498 497.5401,-1244.498"/>
<text text-anchor="middle" x="482.3526" y="-1232.499" font-family="Arial" font-size="10.00" fill="#000000">Rhythm</text>
<text text-anchor="middle" x="482.3526" y="-1221" font-family="Arial" font-size="10.00" fill="#000000">Handler</text>
</a>
</g>
</g>
<!-- evans.handlers.SlurHandler -->
<g id="node39" class="node">
<title>evans.handlers.SlurHandler</title>
<g id="a_node39"><a xlink:href="../api/evans/handlers.html#evans.handlers.SlurHandler" xlink:title="Slur\nHandler" target="_top">
<path fill="#f2f2f2" stroke="#f2f2f2" stroke-width="2" d="M249.1411,-1278.498C249.1411,-1278.498 218.7661,-1278.498 218.7661,-1278.498 213.6001,-1278.498 208.4341,-1273.332 208.4341,-1268.166 208.4341,-1268.166 208.4341,-1257.834 208.4341,-1257.834 208.4341,-1252.668 213.6001,-1247.502 218.7661,-1247.502 218.7661,-1247.502 249.1411,-1247.502 249.1411,-1247.502 254.3071,-1247.502 259.4731,-1252.668 259.4731,-1257.834 259.4731,-1257.834 259.4731,-1268.166 259.4731,-1268.166 259.4731,-1273.332 254.3071,-1278.498 249.1411,-1278.498"/>
<text text-anchor="middle" x="233.9536" y="-1266.499" font-family="Arial" font-size="10.00" fill="#000000">Slur</text>
<text text-anchor="middle" x="233.9536" y="-1255" font-family="Arial" font-size="10.00" fill="#000000">Handler</text>
</a>
</g>
</g>
<!-- evans.handlers.TempoSpannerHandler -->
<g id="node40" class="node">
<title>evans.handlers.TempoSpannerHandler</title>
<g id="a_node40"><a xlink:href="../api/evans/handlers.html#evans.handlers.TempoSpannerHandler" xlink:title="Tempo\nSpanner\nHandler" target="_top">
<path fill="#f2f2f2" stroke="#f2f2f2" stroke-width="2" d="M361.4689,-1298.5C361.4689,-1298.5 331.853,-1298.5 331.853,-1298.5 325.853,-1298.5 319.853,-1292.5 319.853,-1286.5 319.853,-1286.5 319.853,-1267.5 319.853,-1267.5 319.853,-1261.5 325.853,-1255.5 331.853,-1255.5 331.853,-1255.5 361.4689,-1255.5 361.4689,-1255.5 367.4689,-1255.5 373.4689,-1261.5 373.4689,-1267.5 373.4689,-1267.5 373.4689,-1286.5 373.4689,-1286.5 373.4689,-1292.5 367.4689,-1298.5 361.4689,-1298.5"/>
<text text-anchor="middle" x="346.6609" y="-1286.2485" font-family="Arial" font-size="10.00" fill="#000000">Tempo</text>
<text text-anchor="middle" x="346.6609" y="-1274.7495" font-family="Arial" font-size="10.00" fill="#000000">Spanner</text>
<text text-anchor="middle" x="346.6609" y="-1263.2505" font-family="Arial" font-size="10.00" fill="#000000">Handler</text>
</a>
</g>
</g>
<!-- evans.handlers.TextSpanHandler -->
<g id="node41" class="node">
<title>evans.handlers.TextSpanHandler</title>
<g id="a_node41"><a xlink:href="../api/evans/handlers.html#evans.handlers.TextSpanHandler" xlink:title="Text\nSpan\nHandler" target="_top">
<path fill="#f2f2f2" stroke="#f2f2f2" stroke-width="2" d="M495.8722,-1338.5C495.8722,-1338.5 468.8331,-1338.5 468.8331,-1338.5 462.8331,-1338.5 456.8331,-1332.5 456.8331,-1326.5 456.8331,-1326.5 456.8331,-1307.5 456.8331,-1307.5 456.8331,-1301.5 462.8331,-1295.5 468.8331,-1295.5 468.8331,-1295.5 495.8722,-1295.5 495.8722,-1295.5 501.8722,-1295.5 507.8722,-1301.5 507.8722,-1307.5 507.8722,-1307.5 507.8722,-1326.5 507.8722,-1326.5 507.8722,-1332.5 501.8722,-1338.5 495.8722,-1338.5"/>
<text text-anchor="middle" x="482.3526" y="-1326.2485" font-family="Arial" font-size="10.00" fill="#000000">Text</text>
<text text-anchor="middle" x="482.3526" y="-1314.7495" font-family="Arial" font-size="10.00" fill="#000000">Span</text>
<text text-anchor="middle" x="482.3526" y="-1303.2505" font-family="Arial" font-size="10.00" fill="#000000">Handler</text>
</a>
</g>
</g>
<!-- evans.handlers.TrillHandler -->
<g id="node42" class="node">
<title>evans.handlers.TrillHandler</title>
<g id="a_node42"><a xlink:href="../api/evans/handlers.html#evans.handlers.TrillHandler" xlink:title="Trill\nHandler" target="_top">
<path fill="#f2f2f2" stroke="#f2f2f2" stroke-width="2" d="M249.1411,-1366.498C249.1411,-1366.498 218.7661,-1366.498 218.7661,-1366.498 213.6001,-1366.498 208.4341,-1361.332 208.4341,-1356.166 208.4341,-1356.166 208.4341,-1345.834 208.4341,-1345.834 208.4341,-1340.668 213.6001,-1335.502 218.7661,-1335.502 218.7661,-1335.502 249.1411,-1335.502 249.1411,-1335.502 254.3071,-1335.502 259.4731,-1340.668 259.4731,-1345.834 259.4731,-1345.834 259.4731,-1356.166 259.4731,-1356.166 259.4731,-1361.332 254.3071,-1366.498 249.1411,-1366.498"/>
<text text-anchor="middle" x="233.9536" y="-1354.499" font-family="Arial" font-size="10.00" fill="#000000">Trill</text>
<text text-anchor="middle" x="233.9536" y="-1343" font-family="Arial" font-size="10.00" fill="#000000">Handler</text>
</a>
</g>
</g>
<!-- evans.rtm.RTMMaker -->
<g id="node43" class="node">
<title>evans.rtm.RTMMaker</title>
<g id="a_node43"><a xlink:href="../api/evans/rtm.html#evans.rtm.RTMMaker" xlink:title="RTMMaker" target="_top">
<path fill="#fbb4ae" stroke="#fbb4ae" stroke-width="2" d="M260.0465,-372.0056C260.0465,-372.0056 207.8608,-372.0056 207.8608,-372.0056 204.5256,-372.0056 201.1904,-368.6704 201.1904,-365.3352 201.1904,-365.3352 201.1904,-358.6648 201.1904,-358.6648 201.1904,-355.3296 204.5256,-351.9944 207.8608,-351.9944 207.8608,-351.9944 260.0465,-351.9944 260.0465,-351.9944 263.3816,-351.9944 266.7168,-355.3296 266.7168,-358.6648 266.7168,-358.6648 266.7168,-365.3352 266.7168,-365.3352 266.7168,-368.6704 263.3816,-372.0056 260.0465,-372.0056"/>
<text text-anchor="middle" x="233.9536" y="-359.7495" font-family="Arial" font-size="10.00" fill="#000000">RTMMaker</text>
</a>
</g>
</g>
<!-- evans.rtm.RhythmTreeQuantizer -->
<g id="node44" class="node">
<title>evans.rtm.RhythmTreeQuantizer</title>
<g id="a_node44"><a xlink:href="../api/evans/rtm.html#evans.rtm.RhythmTreeQuantizer" xlink:title="Rhythm\nTree\nQuantizer" target="_top">
<path fill="#fbb4ae" stroke="#fbb4ae" stroke-width="2" d="M251.8092,-432.5C251.8092,-432.5 216.0981,-432.5 216.0981,-432.5 210.0981,-432.5 204.0981,-426.5 204.0981,-420.5 204.0981,-420.5 204.0981,-401.5 204.0981,-401.5 204.0981,-395.5 210.0981,-389.5 216.0981,-389.5 216.0981,-389.5 251.8092,-389.5 251.8092,-389.5 257.8092,-389.5 263.8092,-395.5 263.8092,-401.5 263.8092,-401.5 263.8092,-420.5 263.8092,-420.5 263.8092,-426.5 257.8092,-432.5 251.8092,-432.5"/>
<text text-anchor="middle" x="233.9536" y="-420.2485" font-family="Arial" font-size="10.00" fill="#000000">Rhythm</text>
<text text-anchor="middle" x="233.9536" y="-408.7495" font-family="Arial" font-size="10.00" fill="#000000">Tree</text>
<text text-anchor="middle" x="233.9536" y="-397.2505" font-family="Arial" font-size="10.00" fill="#000000">Quantizer</text>
</a>
</g>
</g>
<!-- evans.segmentmaker.NoteheadBracketMaker -->
<g id="node45" class="node">
<title>evans.segmentmaker.NoteheadBracketMaker</title>
<g id="a_node45"><a xlink:href="../api/evans/segmentmaker.html#evans.segmentmaker.NoteheadBracketMaker" xlink:title="Notehead\nBracket\nMaker" target="_top">
<path fill="#b3cde3" stroke="#b3cde3" stroke-width="2" d="M364.5312,-405.5C364.5312,-405.5 328.7906,-405.5 328.7906,-405.5 322.7906,-405.5 316.7906,-399.5 316.7906,-393.5 316.7906,-393.5 316.7906,-374.5 316.7906,-374.5 316.7906,-368.5 322.7906,-362.5 328.7906,-362.5 328.7906,-362.5 364.5312,-362.5 364.5312,-362.5 370.5312,-362.5 376.5312,-368.5 376.5312,-374.5 376.5312,-374.5 376.5312,-393.5 376.5312,-393.5 376.5312,-399.5 370.5312,-405.5 364.5312,-405.5"/>
<text text-anchor="middle" x="346.6609" y="-393.2485" font-family="Arial" font-size="10.00" fill="#000000">Notehead</text>
<text text-anchor="middle" x="346.6609" y="-381.7495" font-family="Arial" font-size="10.00" fill="#000000">Bracket</text>
<text text-anchor="middle" x="346.6609" y="-370.2505" font-family="Arial" font-size="10.00" fill="#000000">Maker</text>
</a>
</g>
</g>
<!-- evans.segmentmaker.SegmentMaker -->
<g id="node46" class="node">
<title>evans.segmentmaker.SegmentMaker</title>
<g id="a_node46"><a xlink:href="../api/evans/segmentmaker.html#evans.segmentmaker.SegmentMaker" xlink:title="Segment\nMaker" target="_top">
<path fill="#b3cde3" stroke="#b3cde3" stroke-width="2" d="M364.3533,-344.498C364.3533,-344.498 328.9685,-344.498 328.9685,-344.498 323.8025,-344.498 318.6365,-339.332 318.6365,-334.166 318.6365,-334.166 318.6365,-323.834 318.6365,-323.834 318.6365,-318.668 323.8025,-313.502 328.9685,-313.502 328.9685,-313.502 364.3533,-313.502 364.3533,-313.502 369.5193,-313.502 374.6853,-318.668 374.6853,-323.834 374.6853,-323.834 374.6853,-334.166 374.6853,-334.166 374.6853,-339.332 369.5193,-344.498 364.3533,-344.498"/>
<text text-anchor="middle" x="346.6609" y="-332.499" font-family="Arial" font-size="10.00" fill="#000000">Segment</text>
<text text-anchor="middle" x="346.6609" y="-321" font-family="Arial" font-size="10.00" fill="#000000">Maker</text>
</a>
</g>
</g>
<!-- evans.sequence.CyclicList -->
<g id="node47" class="node">
<title>evans.sequence.CyclicList</title>
<g id="a_node47"><a xlink:href="../api/evans/sequence.html#evans.sequence.CyclicList" xlink:title="Cyclic\nList" target="_top">
<path fill="#ccebc5" stroke="#ccebc5" stroke-width="2" d="M976.2685,-366.498C976.2685,-366.498 954.5999,-366.498 954.5999,-366.498 949.4339,-366.498 944.2679,-361.332 944.2679,-356.166 944.2679,-356.166 944.2679,-345.834 944.2679,-345.834 944.2679,-340.668 949.4339,-335.502 954.5999,-335.502 954.5999,-335.502 976.2685,-335.502 976.2685,-335.502 981.4345,-335.502 986.6005,-340.668 986.6005,-345.834 986.6005,-345.834 986.6005,-356.166 986.6005,-356.166 986.6005,-361.332 981.4345,-366.498 976.2685,-366.498"/>
<text text-anchor="middle" x="965.4342" y="-354.499" font-family="Arial" font-size="10.00" fill="#000000">Cyclic</text>
<text text-anchor="middle" x="965.4342" y="-343" font-family="Arial" font-size="10.00" fill="#000000">List</text>
</a>
</g>
</g>
<!-- evans.sequence.MarkovChain -->
<g id="node48" class="node">
<title>evans.sequence.MarkovChain</title>
<g id="a_node48"><a xlink:href="../api/evans/sequence.html#evans.sequence.MarkovChain" xlink:title="Markov\nChain" target="_top">
<path fill="#ccebc5" stroke="#ccebc5" stroke-width="2" d="M979.3858,-317.498C979.3858,-317.498 951.4825,-317.498 951.4825,-317.498 946.3165,-317.498 941.1505,-312.332 941.1505,-307.166 941.1505,-307.166 941.1505,-296.834 941.1505,-296.834 941.1505,-291.668 946.3165,-286.502 951.4825,-286.502 951.4825,-286.502 979.3858,-286.502 979.3858,-286.502 984.5519,-286.502 989.7179,-291.668 989.7179,-296.834 989.7179,-296.834 989.7179,-307.166 989.7179,-307.166 989.7179,-312.332 984.5519,-317.498 979.3858,-317.498"/>
<text text-anchor="middle" x="965.4342" y="-305.499" font-family="Arial" font-size="10.00" fill="#000000">Markov</text>
<text text-anchor="middle" x="965.4342" y="-294" font-family="Arial" font-size="10.00" fill="#000000">Chain</text>
</a>
</g>
</g>
<!-- evans.sequence.Ratio -->
<g id="node49" class="node">
<title>evans.sequence.Ratio</title>
<g id="a_node49"><a xlink:href="../api/evans/sequence.html#evans.sequence.Ratio" xlink:title="Ratio" target="_top">
<path fill="#ccebc5" stroke="#ccebc5" stroke-width="2" d="M978.6101,-441.0056C978.6101,-441.0056 952.2583,-441.0056 952.2583,-441.0056 948.9231,-441.0056 945.5879,-437.6704 945.5879,-434.3352 945.5879,-434.3352 945.5879,-427.6648 945.5879,-427.6648 945.5879,-424.3296 948.9231,-420.9944 952.2583,-420.9944 952.2583,-420.9944 978.6101,-420.9944 978.6101,-420.9944 981.9453,-420.9944 985.2804,-424.3296 985.2804,-427.6648 985.2804,-427.6648 985.2804,-434.3352 985.2804,-434.3352 985.2804,-437.6704 981.9453,-441.0056 978.6101,-441.0056"/>
<text text-anchor="middle" x="965.4342" y="-428.7495" font-family="Arial" font-size="10.00" fill="#000000">Ratio</text>
</a>
</g>
</g>
<!-- evans.sequence.Sequence -->
<g id="node50" class="node">
<title>evans.sequence.Sequence</title>
<g id="a_node50"><a xlink:href="../api/evans/sequence.html#evans.sequence.Sequence" xlink:title="Sequence" target="_top">
<path fill="#ccebc5" stroke="#ccebc5" stroke-width="2" d="M989.3029,-404.0056C989.3029,-404.0056 941.5655,-404.0056 941.5655,-404.0056 938.2303,-404.0056 934.8951,-400.6704 934.8951,-397.3352 934.8951,-397.3352 934.8951,-390.6648 934.8951,-390.6648 934.8951,-387.3296 938.2303,-383.9944 941.5655,-383.9944 941.5655,-383.9944 989.3029,-383.9944 989.3029,-383.9944 992.6381,-383.9944 995.9733,-387.3296 995.9733,-390.6648 995.9733,-390.6648 995.9733,-397.3352 995.9733,-397.3352 995.9733,-400.6704 992.6381,-404.0056 989.3029,-404.0056"/>
<text text-anchor="middle" x="965.4342" y="-391.7495" font-family="Arial" font-size="10.00" fill="#000000">Sequence</text>
</a>
</g>
</g>
<!-- evans.spanners.BowAnglePoint -->
<g id="node51" class="node">
<title>evans.spanners.BowAnglePoint</title>
<g id="a_node51"><a xlink:href="../api/evans/spanners.html#evans.spanners.BowAnglePoint" xlink:title="Bow\nAngle\nPoint" target="_top">
<path fill="#decbe4" stroke="#decbe4" stroke-width="2" d="M138.0305,-139.5C138.0305,-139.5 120.8738,-139.5 120.8738,-139.5 114.8738,-139.5 108.8738,-133.5 108.8738,-127.5 108.8738,-127.5 108.8738,-108.5 108.8738,-108.5 108.8738,-102.5 114.8738,-96.5 120.8738,-96.5 120.8738,-96.5 138.0305,-96.5 138.0305,-96.5 144.0305,-96.5 150.0305,-102.5 150.0305,-108.5 150.0305,-108.5 150.0305,-127.5 150.0305,-127.5 150.0305,-133.5 144.0305,-139.5 138.0305,-139.5"/>
<text text-anchor="middle" x="129.4521" y="-127.2485" font-family="Arial" font-size="10.00" fill="#000000">Bow</text>
<text text-anchor="middle" x="129.4521" y="-115.7495" font-family="Arial" font-size="10.00" fill="#000000">Angle</text>
<text text-anchor="middle" x="129.4521" y="-104.2505" font-family="Arial" font-size="10.00" fill="#000000">Point</text>
</a>
</g>
</g>
<!-- evans.timespan.SilentTimespan -->
<g id="node52" class="node">
<title>evans.timespan.SilentTimespan</title>
<g id="a_node52"><a xlink:href="../api/evans/timespan.html#evans.timespan.SilentTimespan" xlink:title="Silent\nTimespan" target="_top">
<path fill="#fed9a6" stroke="#fed9a6" stroke-width="2" d="M365.8658,-144.498C365.8658,-144.498 327.456,-144.498 327.456,-144.498 322.29,-144.498 317.124,-139.332 317.124,-134.166 317.124,-134.166 317.124,-123.834 317.124,-123.834 317.124,-118.668 322.29,-113.502 327.456,-113.502 327.456,-113.502 365.8658,-113.502 365.8658,-113.502 371.0319,-113.502 376.1979,-118.668 376.1979,-123.834 376.1979,-123.834 376.1979,-134.166 376.1979,-134.166 376.1979,-139.332 371.0319,-144.498 365.8658,-144.498"/>
<text text-anchor="middle" x="346.6609" y="-132.499" font-family="Arial" font-size="10.00" fill="#000000">Silent</text>
<text text-anchor="middle" x="346.6609" y="-121" font-family="Arial" font-size="10.00" fill="#000000">Timespan</text>
</a>
</g>
</g>
<!-- evans.timespan.TimespanMaker -->
<g id="node53" class="node">
<title>evans.timespan.TimespanMaker</title>
<g id="a_node53"><a xlink:href="../api/evans/timespan.html#evans.timespan.TimespanMaker" xlink:title="Timespan\nMaker" target="_top">
<path fill="#fed9a6" stroke="#fed9a6" stroke-width="2" d="M365.8658,-95.498C365.8658,-95.498 327.456,-95.498 327.456,-95.498 322.29,-95.498 317.124,-90.332 317.124,-85.166 317.124,-85.166 317.124,-74.834 317.124,-74.834 317.124,-69.668 322.29,-64.502 327.456,-64.502 327.456,-64.502 365.8658,-64.502 365.8658,-64.502 371.0319,-64.502 376.1979,-69.668 376.1979,-74.834 376.1979,-74.834 376.1979,-85.166 376.1979,-85.166 376.1979,-90.332 371.0319,-95.498 365.8658,-95.498"/>
<text text-anchor="middle" x="346.6609" y="-83.499" font-family="Arial" font-size="10.00" fill="#000000">Timespan</text>
<text text-anchor="middle" x="346.6609" y="-72" font-family="Arial" font-size="10.00" fill="#000000">Maker</text>
</a>
</g>
</g>
<!-- evans.timespan.TimespanSpecifier -->
<g id="node54" class="node">
<title>evans.timespan.TimespanSpecifier</title>
<g id="a_node54"><a xlink:href="../api/evans/timespan.html#evans.timespan.TimespanSpecifier" xlink:title="Timespan\nSpecifier" target="_top">
<path fill="#fed9a6" stroke="#fed9a6" stroke-width="2" d="M365.8658,-46.498C365.8658,-46.498 327.456,-46.498 327.456,-46.498 322.29,-46.498 317.124,-41.332 317.124,-36.166 317.124,-36.166 317.124,-25.834 317.124,-25.834 317.124,-20.668 322.29,-15.502 327.456,-15.502 327.456,-15.502 365.8658,-15.502 365.8658,-15.502 371.0319,-15.502 376.1979,-20.668 376.1979,-25.834 376.1979,-25.834 376.1979,-36.166 376.1979,-36.166 376.1979,-41.332 371.0319,-46.498 365.8658,-46.498"/>
<text text-anchor="middle" x="346.6609" y="-34.499" font-family="Arial" font-size="10.00" fill="#000000">Timespan</text>
<text text-anchor="middle" x="346.6609" y="-23" font-family="Arial" font-size="10.00" fill="#000000">Specifier</text>
</a>
</g>
</g>
</g>
</svg>
