<?xml version="1.0" encoding="UTF-8" standalone="no"?>
<!DOCTYPE svg PUBLIC "-//W3C//DTD SVG 1.1//EN"
 "http://www.w3.org/Graphics/SVG/1.1/DTD/svg11.dtd">
<!-- Generated by graphviz version 2.40.1 (20161225.0304)
 -->
<!-- Title: InheritanceGraph Pages: 1 -->
<svg width="649pt" height="1453pt"
 viewBox="0.00 0.00 648.99 1453.00" xmlns="http://www.w3.org/2000/svg" xmlns:xlink="http://www.w3.org/1999/xlink">
<g id="graph0" class="graph" transform="scale(1 1) rotate(0) translate(4 1449)">
<title>InheritanceGraph</title>
<g id="clust1" class="cluster">
<title>cluster_evans.rtm</title>
<path fill="transparent" stroke="#bcd2ee" stroke-width="2" stroke-dasharray="5,2" d="M205.3223,-1097C205.3223,-1097 262.585,-1097 262.585,-1097 268.585,-1097 274.585,-1103 274.585,-1109 274.585,-1109 274.585,-1200 274.585,-1200 274.585,-1206 268.585,-1212 262.585,-1212 262.585,-1212 205.3223,-1212 205.3223,-1212 199.3223,-1212 193.3223,-1206 193.3223,-1200 193.3223,-1200 193.3223,-1109 193.3223,-1109 193.3223,-1103 199.3223,-1097 205.3223,-1097"/>
<text text-anchor="middle" x="233.9536" y="-1200" font-family="Arial" font-size="10.00" fill="#000000">evans.rtm</text>
</g>
<g id="clust2" class="cluster">
<title>cluster_evans.segmentmaker</title>
<path fill="transparent" stroke="#bcd2ee" stroke-width="2" stroke-dasharray="5,2" d="M434.4336,-381C434.4336,-381 521.8027,-381 521.8027,-381 527.8027,-381 533.8027,-387 533.8027,-393 533.8027,-393 533.8027,-496 533.8027,-496 533.8027,-502 527.8027,-508 521.8027,-508 521.8027,-508 434.4336,-508 434.4336,-508 428.4336,-508 422.4336,-502 422.4336,-496 422.4336,-496 422.4336,-393 422.4336,-393 422.4336,-387 428.4336,-381 434.4336,-381"/>
<text text-anchor="middle" x="478.1182" y="-496" font-family="Arial" font-size="10.00" fill="#000000">evans.segmentmaker</text>
</g>
<g id="clust3" class="cluster">
<title>cluster_evans.sequence</title>
<path fill="transparent" stroke="#bcd2ee" stroke-width="2" stroke-dasharray="5,2" d="M201.562,-325C201.562,-325 266.3452,-325 266.3452,-325 272.3452,-325 278.3452,-331 278.3452,-337 278.3452,-337 278.3452,-428 278.3452,-428 278.3452,-434 272.3452,-440 266.3452,-440 266.3452,-440 201.562,-440 201.562,-440 195.562,-440 189.562,-434 189.562,-428 189.562,-428 189.562,-337 189.562,-337 189.562,-331 195.562,-325 201.562,-325"/>
<text text-anchor="middle" x="233.9536" y="-428" font-family="Arial" font-size="10.00" fill="#000000">evans.sequence</text>
</g>
<g id="clust4" class="cluster">
<title>cluster_evans.spanners</title>
<path fill="transparent" stroke="#bcd2ee" stroke-width="2" stroke-dasharray="5,2" d="M317.1333,-287C317.1333,-287 379.7095,-287 379.7095,-287 385.7095,-287 391.7095,-293 391.7095,-299 391.7095,-299 391.7095,-353 391.7095,-353 391.7095,-359 385.7095,-365 379.7095,-365 379.7095,-365 317.1333,-365 317.1333,-365 311.1333,-365 305.1333,-359 305.1333,-353 305.1333,-353 305.1333,-299 305.1333,-299 305.1333,-293 311.1333,-287 317.1333,-287"/>
<text text-anchor="middle" x="348.4214" y="-353" font-family="Arial" font-size="10.00" fill="#000000">evans.spanners</text>
</g>
<g id="clust5" class="cluster">
<title>cluster_evans.timespan</title>
<path fill="transparent" stroke="#bcd2ee" stroke-width="2" stroke-dasharray="5,2" d="M447.3506,-168C447.3506,-168 508.8857,-168 508.8857,-168 514.8857,-168 520.8857,-174 520.8857,-180 520.8857,-180 520.8857,-320 520.8857,-320 520.8857,-326 514.8857,-332 508.8857,-332 508.8857,-332 447.3506,-332 447.3506,-332 441.3506,-332 435.3506,-326 435.3506,-320 435.3506,-320 435.3506,-180 435.3506,-180 435.3506,-174 441.3506,-168 447.3506,-168"/>
<text text-anchor="middle" x="478.1182" y="-320" font-family="Arial" font-size="10.00" fill="#000000">evans.timespan</text>
</g>
<g id="clust6" class="cluster">
<title>cluster_abjad.timespan</title>
<path fill="transparent" stroke="#bcd2ee" stroke-width="2" stroke-dasharray="5,2" d="M98.6846,-156C98.6846,-156 158.2197,-156 158.2197,-156 164.2197,-156 170.2197,-162 170.2197,-168 170.2197,-168 170.2197,-199 170.2197,-199 170.2197,-205 164.2197,-211 158.2197,-211 158.2197,-211 98.6846,-211 98.6846,-211 92.6846,-211 86.6846,-205 86.6846,-199 86.6846,-199 86.6846,-168 86.6846,-168 86.6846,-162 92.6846,-156 98.6846,-156"/>
<text text-anchor="middle" x="128.4521" y="-199" font-family="Arial" font-size="10.00" fill="#000000">abjad.timespan</text>
</g>
<g id="clust7" class="cluster">
<title>cluster_builtins</title>
<path fill="transparent" stroke="#bcd2ee" stroke-width="2" stroke-dasharray="5,2" d="M20,-330C20,-330 54.6846,-330 54.6846,-330 60.6846,-330 66.6846,-336 66.6846,-342 66.6846,-342 66.6846,-373 66.6846,-373 66.6846,-379 60.6846,-385 54.6846,-385 54.6846,-385 20,-385 20,-385 14,-385 8,-379 8,-373 8,-373 8,-342 8,-342 8,-336 14,-330 20,-330"/>
<text text-anchor="middle" x="37.3423" y="-373" font-family="Arial" font-size="10.00" fill="#000000">builtins</text>
</g>
<g id="clust8" class="cluster">
<title>cluster_evans.commands</title>
<path fill="transparent" stroke="#bcd2ee" stroke-width="2" stroke-dasharray="5,2" d="M443.0542,-8C443.0542,-8 513.1821,-8 513.1821,-8 519.1821,-8 525.1821,-14 525.1821,-20 525.1821,-20 525.1821,-148 525.1821,-148 525.1821,-154 519.1821,-160 513.1821,-160 513.1821,-160 443.0542,-160 443.0542,-160 437.0542,-160 431.0542,-154 431.0542,-148 431.0542,-148 431.0542,-20 431.0542,-20 431.0542,-14 437.0542,-8 443.0542,-8"/>
<text text-anchor="middle" x="478.1182" y="-148" font-family="Arial" font-size="10.00" fill="#000000">evans.commands</text>
</g>
<g id="clust9" class="cluster">
<title>cluster_evans.consort</title>
<path fill="transparent" stroke="#bcd2ee" stroke-width="2" stroke-dasharray="5,2" d="M110.0015,-1220C110.0015,-1220 620.9922,-1220 620.9922,-1220 626.9922,-1220 632.9922,-1226 632.9922,-1232 632.9922,-1232 632.9922,-1425 632.9922,-1425 632.9922,-1431 626.9922,-1437 620.9922,-1437 620.9922,-1437 110.0015,-1437 110.0015,-1437 104.0015,-1437 98.0015,-1431 98.0015,-1425 98.0015,-1425 98.0015,-1232 98.0015,-1232 98.0015,-1226 104.0015,-1220 110.0015,-1220"/>
<text text-anchor="middle" x="365.4968" y="-1425" font-family="Arial" font-size="10.00" fill="#000000">evans.consort</text>
</g>
<g id="clust10" class="cluster">
<title>cluster_evans.handlers</title>
<path fill="transparent" stroke="#bcd2ee" stroke-width="2" stroke-dasharray="5,2" d="M106.9424,-516C106.9424,-516 620.7212,-516 620.7212,-516 626.7212,-516 632.7212,-522 632.7212,-528 632.7212,-528 632.7212,-1077 632.7212,-1077 632.7212,-1083 626.7212,-1089 620.7212,-1089 620.7212,-1089 106.9424,-1089 106.9424,-1089 100.9424,-1089 94.9424,-1083 94.9424,-1077 94.9424,-1077 94.9424,-528 94.9424,-528 94.9424,-522 100.9424,-516 106.9424,-516"/>
<text text-anchor="middle" x="363.8318" y="-1077" font-family="Arial" font-size="10.00" fill="#000000">evans.handlers</text>
</g>
<!-- abjad.timespan.Timespan&#45;&gt;evans.timespan.SilentTimespan -->
<g id="edge26" class="edge">
<title>abjad.timespan.Timespan&#45;&gt;evans.timespan.SilentTimespan</title>
<path fill="none" stroke="#778899" d="M158.2645,-175.4494C221.1005,-178.5044 367.1731,-185.6061 438.0774,-189.0533"/>
<polygon fill="#778899" stroke="#778899" points="438.2231,-192.5644 448.3813,-189.5543 438.5631,-185.5727 438.2231,-192.5644"/>
</g>
<!-- builtins.object&#45;&gt;evans.rtm.RTMMaker -->
<g id="edge33" class="edge">
<title>builtins.object&#45;&gt;evans.rtm.RTMMaker</title>
<path fill="none" stroke="#778899" d="M37.6608,-357.934C40.5258,-446.0888 62.3141,-1091.9726 86.6846,-1124 111.1104,-1156.1 157.0293,-1168.1089 191.1258,-1172.5407"/>
<polygon fill="#778899" stroke="#778899" points="190.9619,-1176.0443 201.291,-1173.6866 191.7461,-1169.0883 190.9619,-1176.0443"/>
</g>
<!-- builtins.object&#45;&gt;evans.rtm.RhythmTreeQuantizer -->
<g id="edge34" class="edge">
<title>builtins.object&#45;&gt;evans.rtm.RhythmTreeQuantizer</title>
<path fill="none" stroke="#778899" d="M37.6589,-357.8252C40.4652,-443.6632 61.5729,-1063.6805 86.6846,-1093 112.7116,-1123.3882 160.0881,-1129.2652 194.0836,-1129.0603"/>
<polygon fill="#778899" stroke="#778899" points="194.2515,-1132.5574 204.166,-1128.8218 194.086,-1125.5593 194.2515,-1132.5574"/>
</g>
<!-- builtins.object&#45;&gt;evans.segmentmaker.NoteheadBracketMaker -->
<g id="edge35" class="edge">
<title>builtins.object&#45;&gt;evans.segmentmaker.NoteheadBracketMaker</title>
<path fill="none" stroke="#778899" d="M40.8418,-357.9093C47.2858,-374.7519 62.6128,-408.9815 86.6846,-428 124.47,-457.8534 142.0183,-454.3472 189.562,-462 277.3861,-476.1365 382.1951,-469.2202 438.1801,-463.6544"/>
<polygon fill="#778899" stroke="#778899" points="438.7912,-467.11 448.3786,-462.601 438.072,-460.147 438.7912,-467.11"/>
</g>
<!-- builtins.object&#45;&gt;evans.segmentmaker.SegmentMaker -->
<g id="edge36" class="edge">
<title>builtins.object&#45;&gt;evans.segmentmaker.SegmentMaker</title>
<path fill="none" stroke="#778899" d="M47.6855,-357.7781C70.827,-378.8634 129.4825,-427.9949 189.562,-444 277.6189,-467.4582 384.6666,-438.0797 440.3505,-418.6203"/>
<polygon fill="#778899" stroke="#778899" points="441.5733,-421.9002 449.8098,-415.236 439.2152,-415.3093 441.5733,-421.9002"/>
</g>
<!-- builtins.object&#45;&gt;evans.sequence.CyclicList -->
<g id="edge37" class="edge">
<title>builtins.object&#45;&gt;evans.sequence.CyclicList</title>
<path fill="none" stroke="#778899" d="M58.9038,-354.3356C67.5213,-356.8107 77.5508,-359.62 86.6846,-362 126.4943,-372.3731 172.685,-383.1474 202.5668,-389.9535"/>
<polygon fill="#778899" stroke="#778899" points="201.8925,-393.3894 212.419,-392.1883 203.441,-386.5628 201.8925,-393.3894"/>
</g>
<!-- builtins.object&#45;&gt;evans.sequence.MarkovChain -->
<g id="edge38" class="edge">
<title>builtins.object&#45;&gt;evans.sequence.MarkovChain</title>
<path fill="none" stroke="#778899" d="M58.7574,-348C92.5613,-348 158.614,-348 199.2533,-348"/>
<polygon fill="#778899" stroke="#778899" points="199.4982,-351.5001 209.4982,-348 199.4981,-344.5001 199.4982,-351.5001"/>
</g>
<!-- builtins.object&#45;&gt;evans.spanners.BowAnglePoint -->
<g id="edge39" class="edge">
<title>builtins.object&#45;&gt;evans.spanners.BowAnglePoint</title>
<path fill="none" stroke="#778899" d="M58.8822,-343.1684C88.2491,-336.8136 142.5775,-325.883 189.562,-321 233.6842,-316.4145 285.0607,-315.6221 317.0419,-315.6636"/>
<polygon fill="#778899" stroke="#778899" points="317.0911,-319.1637 327.1056,-315.7053 317.1203,-312.1638 317.0911,-319.1637"/>
</g>
<!-- builtins.object&#45;&gt;evans.timespan.TimespanMaker -->
<g id="edge40" class="edge">
<title>builtins.object&#45;&gt;evans.timespan.TimespanMaker</title>
<path fill="none" stroke="#778899" d="M50.9101,-338.1708C60.4603,-331.73 73.7913,-323.6676 86.6846,-319 215.0401,-272.5331 255.2839,-278.2692 391.7095,-283 406.9471,-283.5284 423.6689,-284.5794 438.3091,-285.6562"/>
<polygon fill="#778899" stroke="#778899" points="438.3133,-289.1666 448.5506,-286.4377 438.8459,-282.1869 438.3133,-289.1666"/>
</g>
<!-- builtins.object&#45;&gt;evans.timespan.TimespanSpecifier -->
<g id="edge41" class="edge">
<title>builtins.object&#45;&gt;evans.timespan.TimespanSpecifier</title>
<path fill="none" stroke="#778899" d="M42.499,-338.1073C50.1521,-324.5287 65.8806,-300.4947 86.6846,-289 201.5279,-225.5464 363.6996,-229.6225 438.0473,-235.6924"/>
<polygon fill="#778899" stroke="#778899" points="438.0964,-239.2099 448.3633,-236.5946 438.7063,-232.2365 438.0964,-239.2099"/>
</g>
<!-- builtins.object&#45;&gt;abjad.timespan.Timespan -->
<g id="edge27" class="edge">
<title>builtins.object&#45;&gt;abjad.timespan.Timespan</title>
<path fill="none" stroke="#778899" d="M39.4686,-337.9735C44.6995,-314.8411 59.7649,-256.5431 86.6846,-215 92.4468,-206.1076 100.4452,-197.6566 107.9018,-190.7628"/>
<polygon fill="#778899" stroke="#778899" points="110.4532,-193.1799 115.6489,-183.9465 105.8292,-187.9245 110.4532,-193.1799"/>
</g>
<!-- builtins.object&#45;&gt;evans.commands.Command -->
<g id="edge28" class="edge">
<title>builtins.object&#45;&gt;evans.commands.Command</title>
<path fill="none" stroke="#778899" d="M38.3459,-337.9532C42.2122,-301.4379 57.4082,-176.6123 86.6846,-152 138.6769,-108.2907 347.0702,-115.071 436.7442,-120.2113"/>
<polygon fill="#778899" stroke="#778899" points="436.6301,-123.7106 446.8204,-120.811 437.046,-116.723 436.6301,-123.7106"/>
</g>
<!-- builtins.object&#45;&gt;evans.commands.HandlerCommand -->
<g id="edge29" class="edge">
<title>builtins.object&#45;&gt;evans.commands.HandlerCommand</title>
<path fill="none" stroke="#778899" d="M37.9866,-338.0531C40.7914,-298.0762 53.329,-149.8356 86.6846,-120 137.497,-74.5497 347.0256,-75.6567 436.8872,-78.3507"/>
<polygon fill="#778899" stroke="#778899" points="436.8736,-81.852 446.981,-78.6754 437.0988,-74.8556 436.8736,-81.852"/>
</g>
<!-- builtins.object&#45;&gt;evans.commands.RhythmCommand -->
<g id="edge30" class="edge">
<title>builtins.object&#45;&gt;evans.commands.RhythmCommand</title>
<path fill="none" stroke="#778899" d="M37.717,-338.1309C39.5752,-294.7671 49.2686,-121.7134 86.6846,-86 182.7701,5.7133 357.3295,-9.8186 436.7661,-22.8515"/>
<polygon fill="#778899" stroke="#778899" points="436.4276,-26.3444 446.8748,-24.5819 437.6087,-19.4448 436.4276,-26.3444"/>
</g>
<!-- builtins.object&#45;&gt;evans.consort.AbjadObject.AbjadObject -->
<g id="edge31" class="edge">
<title>builtins.object&#45;&gt;evans.consort.AbjadObject.AbjadObject</title>
<path fill="none" stroke="#778899" d="M37.5934,-357.9959C39.7158,-440.4695 55.3523,-1009.6538 86.6846,-1178 93.7025,-1215.7066 108.3639,-1257.6846 118.3099,-1283.7192"/>
<polygon fill="#778899" stroke="#778899" points="115.1083,-1285.1434 121.9926,-1293.1968 121.6331,-1282.6081 115.1083,-1285.1434"/>
</g>
<!-- builtins.object&#45;&gt;evans.handlers.Handler -->
<g id="edge32" class="edge">
<title>builtins.object&#45;&gt;evans.handlers.Handler</title>
<path fill="none" stroke="#778899" d="M39.5046,-358.0628C51.3208,-413.0522 108.1376,-677.4617 124.2088,-752.2527"/>
<polygon fill="#778899" stroke="#778899" points="120.8273,-753.1763 126.3501,-762.2178 127.6711,-751.7056 120.8273,-753.1763"/>
</g>
<!-- evans.consort.AbjadObject.AbjadObject&#45;&gt;evans.consort.AbjadValueObject.AbjadValueObject -->
<g id="edge1" class="edge">
<title>evans.consort.AbjadObject.AbjadObject&#45;&gt;evans.consort.AbjadValueObject.AbjadValueObject</title>
<path fill="none" stroke="#778899" d="M151.0849,-1296.1285C166.1042,-1287.5868 186.0223,-1276.2592 202.5666,-1266.8502"/>
<polygon fill="#778899" stroke="#778899" points="204.396,-1269.8363 211.3583,-1261.8502 200.9355,-1263.7514 204.396,-1269.8363"/>
</g>
<!-- evans.consort.AbjadObject.AbjadObject&#45;&gt;evans.consort.LogicalTieCollection.LogicalTieCollection -->
<g id="edge2" class="edge">
<title>evans.consort.AbjadObject.AbjadObject&#45;&gt;evans.consort.LogicalTieCollection.LogicalTieCollection</title>
<path fill="none" stroke="#778899" d="M151.1126,-1304.87C188.0729,-1298.1337 261.8147,-1284.6936 307.7924,-1276.3138"/>
<polygon fill="#778899" stroke="#778899" points="308.5096,-1279.7408 317.72,-1274.5044 307.2545,-1272.8543 308.5096,-1279.7408"/>
</g>
<!-- evans.consort.AbjadObject.AbjadObject&#45;&gt;evans.consort.RatioPartsExpression.RatioPartsExpression -->
<g id="edge3" class="edge">
<title>evans.consort.AbjadObject.AbjadObject&#45;&gt;evans.consort.RatioPartsExpression.RatioPartsExpression</title>
<path fill="none" stroke="#778899" d="M151.0233,-1308.7297C196.5845,-1308.0544 302.7831,-1305.8244 391.7095,-1299 405.8681,-1297.9134 421.2835,-1296.2759 435.1221,-1294.6388"/>
<polygon fill="#778899" stroke="#778899" points="435.8455,-1298.0767 445.3504,-1293.3961 435.0012,-1291.1278 435.8455,-1298.0767"/>
</g>
<!-- evans.consort.AbjadObject.AbjadObject&#45;&gt;evans.consort.TimespanCollection.TimespanCollection -->
<g id="edge4" class="edge">
<title>evans.consort.AbjadObject.AbjadObject&#45;&gt;evans.consort.TimespanCollection.TimespanCollection</title>
<path fill="none" stroke="#778899" d="M150.9565,-1309.9646C224.7365,-1313.1272 459.9897,-1323.2113 554.833,-1327.2767"/>
<polygon fill="#778899" stroke="#778899" points="554.7506,-1330.7763 564.8914,-1327.7078 555.0505,-1323.7827 554.7506,-1330.7763"/>
</g>
<!-- evans.consort.AbjadObject.AbjadObject&#45;&gt;evans.consort.TimespanCollectionNode.TimespanCollectionNode -->
<g id="edge5" class="edge">
<title>evans.consort.AbjadObject.AbjadObject&#45;&gt;evans.consort.TimespanCollectionNode.TimespanCollectionNode</title>
<path fill="none" stroke="#778899" d="M151.0849,-1321.8715C163.8204,-1329.1144 180.0783,-1338.3604 194.8148,-1346.7413"/>
<polygon fill="#778899" stroke="#778899" points="193.3259,-1349.9209 203.7487,-1351.8221 196.7864,-1343.8361 193.3259,-1349.9209"/>
</g>
<!-- evans.consort.AbjadObject.AbjadObject&#45;&gt;evans.consort.TimespanSimultaneity.TimespanSimultaneity -->
<g id="edge6" class="edge">
<title>evans.consort.AbjadObject.AbjadObject&#45;&gt;evans.consort.TimespanSimultaneity.TimespanSimultaneity</title>
<path fill="none" stroke="#778899" d="M133.7409,-1324.5911C141.9151,-1345.899 159.8549,-1383.2631 189.562,-1399 224.2561,-1417.3787 269.4914,-1413.7088 302.728,-1406.8635"/>
<polygon fill="#778899" stroke="#778899" points="303.6324,-1410.2479 312.6326,-1404.6581 302.1109,-1403.4153 303.6324,-1410.2479"/>
</g>
<!-- evans.handlers.Handler&#45;&gt;evans.handlers.ArticulationHandler -->
<g id="edge7" class="edge">
<title>evans.handlers.Handler&#45;&gt;evans.handlers.ArticulationHandler</title>
<path fill="none" stroke="#778899" d="M129.0563,-762.0068C131.4247,-730.4186 142.433,-631.09 189.562,-568 191.3697,-565.58 193.4434,-563.304 195.685,-561.1748"/>
<polygon fill="#778899" stroke="#778899" points="198.3021,-563.5548 203.8116,-554.5051 193.8612,-558.1438 198.3021,-563.5548"/>
</g>
<!-- evans.handlers.Handler&#45;&gt;evans.handlers.BendHandler -->
<g id="edge8" class="edge">
<title>evans.handlers.Handler&#45;&gt;evans.handlers.BendHandler</title>
<path fill="none" stroke="#778899" d="M130.3558,-762.1583C137.2555,-727.5086 162.0001,-611.9613 189.562,-588 207.4625,-572.4379 271.2352,-564.7637 312.1861,-561.3587"/>
<polygon fill="#778899" stroke="#778899" points="312.6205,-564.8354 322.3162,-560.5641 312.0731,-557.8569 312.6205,-564.8354"/>
</g>
<!-- evans.handlers.Handler&#45;&gt;evans.handlers.BisbigliandoHandler -->
<g id="edge9" class="edge">
<title>evans.handlers.Handler&#45;&gt;evans.handlers.BisbigliandoHandler</title>
<path fill="none" stroke="#778899" d="M130.7685,-761.8092C138.4128,-729.1183 163.8212,-627.8598 189.562,-608 208.3842,-593.4781 356.4923,-584.5992 432.8774,-580.941"/>
<polygon fill="#778899" stroke="#778899" points="433.3335,-584.4236 443.1588,-580.4594 433.0059,-577.4312 433.3335,-584.4236"/>
</g>
<!-- evans.handlers.Handler&#45;&gt;evans.handlers.BowAngleHandler -->
<g id="edge10" class="edge">
<title>evans.handlers.Handler&#45;&gt;evans.handlers.BowAngleHandler</title>
<path fill="none" stroke="#778899" d="M129.0088,-762.1289C131.1602,-734.4818 141.437,-656.1451 189.562,-623 219.5414,-602.3523 465.6376,-608.536 559.1596,-611.6771"/>
<polygon fill="#778899" stroke="#778899" points="559.157,-615.179 569.2715,-612.025 559.3978,-608.1831 559.157,-615.179"/>
</g>
<!-- evans.handlers.Handler&#45;&gt;evans.handlers.ClefHandler -->
<g id="edge11" class="edge">
<title>evans.handlers.Handler&#45;&gt;evans.handlers.ClefHandler</title>
<path fill="none" stroke="#778899" d="M133.001,-762.0589C141.8557,-743.4904 162.8979,-702.9808 189.562,-676 192.7044,-672.8203 196.2521,-669.8033 199.9381,-667.0019"/>
<polygon fill="#778899" stroke="#778899" points="201.9661,-669.8545 208.1249,-661.2336 197.9343,-664.1322 201.9661,-669.8545"/>
</g>
<!-- evans.handlers.Handler&#45;&gt;evans.handlers.CompositeHandler -->
<g id="edge12" class="edge">
<title>evans.handlers.Handler&#45;&gt;evans.handlers.CompositeHandler</title>
<path fill="none" stroke="#778899" d="M133.3088,-762.2104C142.0785,-745.6427 162.2179,-712.2924 189.562,-696 208.7789,-684.55 265.8752,-676.0809 305.9692,-671.3414"/>
<polygon fill="#778899" stroke="#778899" points="306.4808,-674.8058 316.0168,-670.189 305.6831,-667.8514 306.4808,-674.8058"/>
</g>
<!-- evans.handlers.Handler&#45;&gt;evans.handlers.DynamicHandler -->
<g id="edge13" class="edge">
<title>evans.handlers.Handler&#45;&gt;evans.handlers.DynamicHandler</title>
<path fill="none" stroke="#778899" d="M135.8534,-762.0439C146.2308,-748.9375 166.4464,-726.3499 189.562,-716 211.9542,-705.974 367.5255,-694.4038 440.4945,-689.453"/>
<polygon fill="#778899" stroke="#778899" points="440.8925,-692.9343 450.6353,-688.7716 440.4231,-685.95 440.8925,-692.9343"/>
</g>
<!-- evans.handlers.Handler&#45;&gt;evans.handlers.GettatoHandler -->
<g id="edge14" class="edge">
<title>evans.handlers.Handler&#45;&gt;evans.handlers.GettatoHandler</title>
<path fill="none" stroke="#778899" d="M139.1411,-762.0121C150.6054,-752.0234 169.8377,-737.2704 189.562,-731 257.8472,-709.2919 473.8126,-715.7785 559.5018,-719.351"/>
<polygon fill="#778899" stroke="#778899" points="559.383,-722.8491 569.5238,-719.7806 559.6828,-715.8555 559.383,-722.8491"/>
</g>
<!-- evans.handlers.Handler&#45;&gt;evans.handlers.GlissandoHandler -->
<g id="edge15" class="edge">
<title>evans.handlers.Handler&#45;&gt;evans.handlers.GlissandoHandler</title>
<path fill="none" stroke="#778899" d="M153.9911,-767.8848C165.8486,-765.9741 180.2321,-763.6564 193.513,-761.5164"/>
<polygon fill="#778899" stroke="#778899" points="194.0781,-764.9706 203.394,-759.9242 192.9645,-758.0597 194.0781,-764.9706"/>
</g>
<!-- evans.handlers.Handler&#45;&gt;evans.handlers.GraceHandler -->
<g id="edge16" class="edge">
<title>evans.handlers.Handler&#45;&gt;evans.handlers.GraceHandler</title>
<path fill="none" stroke="#778899" d="M153.9664,-775.5801C164.9025,-776.9439 177.8345,-778.3305 189.562,-779 231.6216,-781.4011 280.0472,-779.4965 312.1609,-777.5793"/>
<polygon fill="#778899" stroke="#778899" points="312.6333,-781.0566 322.3935,-776.9348 312.1932,-774.0704 312.6333,-781.0566"/>
</g>
<!-- evans.handlers.Handler&#45;&gt;evans.handlers.IntermittentVoiceHandler -->
<g id="edge17" class="edge">
<title>evans.handlers.Handler&#45;&gt;evans.handlers.IntermittentVoiceHandler</title>
<path fill="none" stroke="#778899" d="M154.2545,-777.4518C165.1251,-779.6484 177.9303,-782.1052 189.562,-784 278.4802,-798.485 301.7686,-804.1871 391.7095,-799 405.766,-798.1893 421.0451,-796.6428 434.7917,-795.0038"/>
<polygon fill="#778899" stroke="#778899" points="435.4661,-798.4471 444.9595,-793.7432 434.6048,-791.5003 435.4661,-798.4471"/>
</g>
<!-- evans.handlers.Handler&#45;&gt;evans.handlers.NoteheadHandler -->
<g id="edge18" class="edge">
<title>evans.handlers.Handler&#45;&gt;evans.handlers.NoteheadHandler</title>
<path fill="none" stroke="#778899" d="M150.3726,-781.8187C161.8286,-786.5448 176.211,-791.8551 189.562,-795 320.7998,-825.9134 481.7332,-829.6304 555.1328,-829.5206"/>
<polygon fill="#778899" stroke="#778899" points="555.3274,-833.02 565.3131,-829.4795 555.299,-826.02 555.3274,-833.02"/>
</g>
<!-- evans.handlers.Handler&#45;&gt;evans.handlers.OnBeatGraceHandler -->
<g id="edge19" class="edge">
<title>evans.handlers.Handler&#45;&gt;evans.handlers.OnBeatGraceHandler</title>
<path fill="none" stroke="#778899" d="M137.84,-781.8052C149.719,-794.1468 170.8846,-815.9193 189.562,-834 193.2367,-837.5572 197.1216,-841.2465 201.0034,-844.8884"/>
<polygon fill="#778899" stroke="#778899" points="198.7058,-847.5314 208.4086,-851.7867 203.4772,-842.4095 198.7058,-847.5314"/>
</g>
<!-- evans.handlers.Handler&#45;&gt;evans.handlers.PitchHandler -->
<g id="edge20" class="edge">
<title>evans.handlers.Handler&#45;&gt;evans.handlers.PitchHandler</title>
<path fill="none" stroke="#778899" d="M129.2894,-782.0497C132.1145,-808.7005 143.8674,-881.1735 189.562,-911 225.9815,-934.7723 277.8354,-927.6481 312.1573,-918.7278"/>
<polygon fill="#778899" stroke="#778899" points="313.512,-921.984 322.2096,-915.934 311.6375,-915.2397 313.512,-921.984"/>
</g>
<!-- evans.handlers.Handler&#45;&gt;evans.handlers.RhythmHandler -->
<g id="edge21" class="edge">
<title>evans.handlers.Handler&#45;&gt;evans.handlers.RhythmHandler</title>
<path fill="none" stroke="#778899" d="M128.9989,-781.9744C131.1242,-809.9269 141.3389,-889.2434 189.562,-924 228.9126,-952.3618 373.8315,-939.5338 442.0986,-931.6014"/>
<polygon fill="#778899" stroke="#778899" points="442.8535,-935.0363 452.369,-930.3774 442.025,-928.0855 442.8535,-935.0363"/>
</g>
<!-- evans.handlers.Handler&#45;&gt;evans.handlers.SlurHandler -->
<g id="edge22" class="edge">
<title>evans.handlers.Handler&#45;&gt;evans.handlers.SlurHandler</title>
<path fill="none" stroke="#778899" d="M130.6231,-781.8355C138.0113,-814.3521 163.1891,-917.434 189.562,-937 247.4531,-979.9493 471.4724,-969.6067 559.3627,-963.6982"/>
<polygon fill="#778899" stroke="#778899" points="559.6519,-967.1867 569.3859,-963.0035 559.1678,-960.2034 559.6519,-967.1867"/>
</g>
<!-- evans.handlers.Handler&#45;&gt;evans.handlers.TempoSpannerHandler -->
<g id="edge23" class="edge">
<title>evans.handlers.Handler&#45;&gt;evans.handlers.TempoSpannerHandler</title>
<path fill="none" stroke="#778899" d="M129.4785,-781.7628C133.035,-811.7782 147.0358,-904.3902 189.562,-966 192.3426,-970.0284 195.7247,-973.8156 199.3683,-977.3027"/>
<polygon fill="#778899" stroke="#778899" points="197.2601,-980.1073 207.1059,-984.02 201.8491,-974.8213 197.2601,-980.1073"/>
</g>
<!-- evans.handlers.Handler&#45;&gt;evans.handlers.TextSpanHandler -->
<g id="edge24" class="edge">
<title>evans.handlers.Handler&#45;&gt;evans.handlers.TextSpanHandler</title>
<path fill="none" stroke="#778899" d="M129.1995,-781.9138C132.7048,-825.4517 149.0799,-998.9579 189.562,-1031 224.163,-1058.3871 277.4662,-1047.5848 312.5188,-1035.6626"/>
<polygon fill="#778899" stroke="#778899" points="314.1042,-1038.812 322.3302,-1032.1349 311.7357,-1032.2249 314.1042,-1038.812"/>
</g>
<!-- evans.handlers.Handler&#45;&gt;evans.handlers.TrillHandler -->
<g id="edge25" class="edge">
<title>evans.handlers.Handler&#45;&gt;evans.handlers.TrillHandler</title>
<path fill="none" stroke="#778899" d="M129.143,-782.0406C132.4548,-826.9665 148.2823,-1008.8658 189.562,-1044 261.1489,-1104.9293 382.8237,-1077.6125 442.6974,-1058.6805"/>
<polygon fill="#778899" stroke="#778899" points="444.0266,-1061.9284 452.4466,-1055.4976 441.8541,-1055.274 444.0266,-1061.9284"/>
</g>
<!-- evans.rtm.RTMMaker -->
<g id="node1" class="node">
<title>evans.rtm.RTMMaker</title>
<g id="a_node1"><a xlink:href="../api/evans/rtm.html#evans.rtm.RTMMaker" xlink:title="RTMMaker" target="_top">
<path fill="#ffffcc" stroke="#ffffcc" stroke-width="2" d="M260.0465,-1185.0056C260.0465,-1185.0056 207.8608,-1185.0056 207.8608,-1185.0056 204.5256,-1185.0056 201.1904,-1181.6704 201.1904,-1178.3352 201.1904,-1178.3352 201.1904,-1171.6648 201.1904,-1171.6648 201.1904,-1168.3296 204.5256,-1164.9944 207.8608,-1164.9944 207.8608,-1164.9944 260.0465,-1164.9944 260.0465,-1164.9944 263.3816,-1164.9944 266.7168,-1168.3296 266.7168,-1171.6648 266.7168,-1171.6648 266.7168,-1178.3352 266.7168,-1178.3352 266.7168,-1181.6704 263.3816,-1185.0056 260.0465,-1185.0056"/>
<text text-anchor="middle" x="233.9536" y="-1172.7495" font-family="Arial" font-size="10.00" fill="#000000">RTMMaker</text>
</a>
</g>
</g>
<!-- evans.rtm.RhythmTreeQuantizer -->
<g id="node2" class="node">
<title>evans.rtm.RhythmTreeQuantizer</title>
<g id="a_node2"><a xlink:href="../api/evans/rtm.html#evans.rtm.RhythmTreeQuantizer" xlink:title="Rhythm\nTree\nQuantizer" target="_top">
<path fill="#ffffcc" stroke="#ffffcc" stroke-width="2" d="M251.8092,-1147.5C251.8092,-1147.5 216.0981,-1147.5 216.0981,-1147.5 210.0981,-1147.5 204.0981,-1141.5 204.0981,-1135.5 204.0981,-1135.5 204.0981,-1116.5 204.0981,-1116.5 204.0981,-1110.5 210.0981,-1104.5 216.0981,-1104.5 216.0981,-1104.5 251.8092,-1104.5 251.8092,-1104.5 257.8092,-1104.5 263.8092,-1110.5 263.8092,-1116.5 263.8092,-1116.5 263.8092,-1135.5 263.8092,-1135.5 263.8092,-1141.5 257.8092,-1147.5 251.8092,-1147.5"/>
<text text-anchor="middle" x="233.9536" y="-1135.2485" font-family="Arial" font-size="10.00" fill="#000000">Rhythm</text>
<text text-anchor="middle" x="233.9536" y="-1123.7495" font-family="Arial" font-size="10.00" fill="#000000">Tree</text>
<text text-anchor="middle" x="233.9536" y="-1112.2505" font-family="Arial" font-size="10.00" fill="#000000">Quantizer</text>
</a>
</g>
</g>
<!-- evans.segmentmaker.NoteheadBracketMaker -->
<g id="node3" class="node">
<title>evans.segmentmaker.NoteheadBracketMaker</title>
<g id="a_node3"><a xlink:href="../api/evans/segmentmaker.html#evans.segmentmaker.NoteheadBracketMaker" xlink:title="Notehead\nBracket\nMaker" target="_top">
<path fill="#e5d8bd" stroke="#e5d8bd" stroke-width="2" d="M495.9885,-480.5C495.9885,-480.5 460.2479,-480.5 460.2479,-480.5 454.2479,-480.5 448.2479,-474.5 448.2479,-468.5 448.2479,-468.5 448.2479,-449.5 448.2479,-449.5 448.2479,-443.5 454.2479,-437.5 460.2479,-437.5 460.2479,-437.5 495.9885,-437.5 495.9885,-437.5 501.9885,-437.5 507.9885,-443.5 507.9885,-449.5 507.9885,-449.5 507.9885,-468.5 507.9885,-468.5 507.9885,-474.5 501.9885,-480.5 495.9885,-480.5"/>
<text text-anchor="middle" x="478.1182" y="-468.2485" font-family="Arial" font-size="10.00" fill="#000000">Notehead</text>
<text text-anchor="middle" x="478.1182" y="-456.7495" font-family="Arial" font-size="10.00" fill="#000000">Bracket</text>
<text text-anchor="middle" x="478.1182" y="-445.2505" font-family="Arial" font-size="10.00" fill="#000000">Maker</text>
</a>
</g>
</g>
<!-- evans.segmentmaker.SegmentMaker -->
<g id="node4" class="node">
<title>evans.segmentmaker.SegmentMaker</title>
<g id="a_node4"><a xlink:href="../api/evans/segmentmaker.html#evans.segmentmaker.SegmentMaker" xlink:title="Segment\nMaker" target="_top">
<path fill="#e5d8bd" stroke="#e5d8bd" stroke-width="2" d="M495.8106,-419.498C495.8106,-419.498 460.4258,-419.498 460.4258,-419.498 455.2598,-419.498 450.0937,-414.332 450.0937,-409.166 450.0937,-409.166 450.0937,-398.834 450.0937,-398.834 450.0937,-393.668 455.2598,-388.502 460.4258,-388.502 460.4258,-388.502 495.8106,-388.502 495.8106,-388.502 500.9766,-388.502 506.1426,-393.668 506.1426,-398.834 506.1426,-398.834 506.1426,-409.166 506.1426,-409.166 506.1426,-414.332 500.9766,-419.498 495.8106,-419.498"/>
<text text-anchor="middle" x="478.1182" y="-407.499" font-family="Arial" font-size="10.00" fill="#000000">Segment</text>
<text text-anchor="middle" x="478.1182" y="-396" font-family="Arial" font-size="10.00" fill="#000000">Maker</text>
</a>
</g>
</g>
<!-- evans.sequence.CyclicList -->
<g id="node5" class="node">
<title>evans.sequence.CyclicList</title>
<g id="a_node5"><a xlink:href="../api/evans/sequence.html#evans.sequence.CyclicList" xlink:title="Cyclic\nList" target="_top">
<path fill="#fddaec" stroke="#fddaec" stroke-width="2" d="M244.7879,-412.498C244.7879,-412.498 223.1193,-412.498 223.1193,-412.498 217.9533,-412.498 212.7873,-407.332 212.7873,-402.166 212.7873,-402.166 212.7873,-391.834 212.7873,-391.834 212.7873,-386.668 217.9533,-381.502 223.1193,-381.502 223.1193,-381.502 244.7879,-381.502 244.7879,-381.502 249.9539,-381.502 255.12,-386.668 255.12,-391.834 255.12,-391.834 255.12,-402.166 255.12,-402.166 255.12,-407.332 249.9539,-412.498 244.7879,-412.498"/>
<text text-anchor="middle" x="233.9536" y="-400.499" font-family="Arial" font-size="10.00" fill="#000000">Cyclic</text>
<text text-anchor="middle" x="233.9536" y="-389" font-family="Arial" font-size="10.00" fill="#000000">List</text>
</a>
</g>
</g>
<!-- evans.sequence.MarkovChain -->
<g id="node6" class="node">
<title>evans.sequence.MarkovChain</title>
<g id="a_node6"><a xlink:href="../api/evans/sequence.html#evans.sequence.MarkovChain" xlink:title="Markov\nChain" target="_top">
<path fill="#fddaec" stroke="#fddaec" stroke-width="2" d="M247.9053,-363.498C247.9053,-363.498 220.002,-363.498 220.002,-363.498 214.8359,-363.498 209.6699,-358.332 209.6699,-353.166 209.6699,-353.166 209.6699,-342.834 209.6699,-342.834 209.6699,-337.668 214.8359,-332.502 220.002,-332.502 220.002,-332.502 247.9053,-332.502 247.9053,-332.502 253.0713,-332.502 258.2373,-337.668 258.2373,-342.834 258.2373,-342.834 258.2373,-353.166 258.2373,-353.166 258.2373,-358.332 253.0713,-363.498 247.9053,-363.498"/>
<text text-anchor="middle" x="233.9536" y="-351.499" font-family="Arial" font-size="10.00" fill="#000000">Markov</text>
<text text-anchor="middle" x="233.9536" y="-340" font-family="Arial" font-size="10.00" fill="#000000">Chain</text>
</a>
</g>
</g>
<!-- evans.spanners.BowAnglePoint -->
<g id="node7" class="node">
<title>evans.spanners.BowAnglePoint</title>
<g id="a_node7"><a xlink:href="../api/evans/spanners.html#evans.spanners.BowAnglePoint" xlink:title="Bow\nAngle\nPoint" target="_top">
<path fill="#f2f2f2" stroke="#f2f2f2" stroke-width="2" d="M356.4997,-337.5C356.4997,-337.5 339.3431,-337.5 339.3431,-337.5 333.3431,-337.5 327.3431,-331.5 327.3431,-325.5 327.3431,-325.5 327.3431,-306.5 327.3431,-306.5 327.3431,-300.5 333.3431,-294.5 339.3431,-294.5 339.3431,-294.5 356.4997,-294.5 356.4997,-294.5 362.4997,-294.5 368.4997,-300.5 368.4997,-306.5 368.4997,-306.5 368.4997,-325.5 368.4997,-325.5 368.4997,-331.5 362.4997,-337.5 356.4997,-337.5"/>
<text text-anchor="middle" x="347.9214" y="-325.2485" font-family="Arial" font-size="10.00" fill="#000000">Bow</text>
<text text-anchor="middle" x="347.9214" y="-313.7495" font-family="Arial" font-size="10.00" fill="#000000">Angle</text>
<text text-anchor="middle" x="347.9214" y="-302.2505" font-family="Arial" font-size="10.00" fill="#000000">Point</text>
</a>
</g>
</g>
<!-- evans.timespan.SilentTimespan -->
<g id="node8" class="node">
<title>evans.timespan.SilentTimespan</title>
<g id="a_node8"><a xlink:href="../api/evans/timespan.html#evans.timespan.SilentTimespan" xlink:title="Silent\nTimespan" target="_top">
<path fill="#fbb4ae" stroke="#fbb4ae" stroke-width="2" d="M497.3231,-206.498C497.3231,-206.498 458.9132,-206.498 458.9132,-206.498 453.7472,-206.498 448.5812,-201.332 448.5812,-196.166 448.5812,-196.166 448.5812,-185.834 448.5812,-185.834 448.5812,-180.668 453.7472,-175.502 458.9132,-175.502 458.9132,-175.502 497.3231,-175.502 497.3231,-175.502 502.4891,-175.502 507.6551,-180.668 507.6551,-185.834 507.6551,-185.834 507.6551,-196.166 507.6551,-196.166 507.6551,-201.332 502.4891,-206.498 497.3231,-206.498"/>
<text text-anchor="middle" x="478.1182" y="-194.499" font-family="Arial" font-size="10.00" fill="#000000">Silent</text>
<text text-anchor="middle" x="478.1182" y="-183" font-family="Arial" font-size="10.00" fill="#000000">Timespan</text>
</a>
</g>
</g>
<!-- evans.timespan.TimespanMaker -->
<g id="node9" class="node">
<title>evans.timespan.TimespanMaker</title>
<g id="a_node9"><a xlink:href="../api/evans/timespan.html#evans.timespan.TimespanMaker" xlink:title="Timespan\nMaker" target="_top">
<path fill="#fbb4ae" stroke="#fbb4ae" stroke-width="2" d="M497.3231,-304.498C497.3231,-304.498 458.9132,-304.498 458.9132,-304.498 453.7472,-304.498 448.5812,-299.332 448.5812,-294.166 448.5812,-294.166 448.5812,-283.834 448.5812,-283.834 448.5812,-278.668 453.7472,-273.502 458.9132,-273.502 458.9132,-273.502 497.3231,-273.502 497.3231,-273.502 502.4891,-273.502 507.6551,-278.668 507.6551,-283.834 507.6551,-283.834 507.6551,-294.166 507.6551,-294.166 507.6551,-299.332 502.4891,-304.498 497.3231,-304.498"/>
<text text-anchor="middle" x="478.1182" y="-292.499" font-family="Arial" font-size="10.00" fill="#000000">Timespan</text>
<text text-anchor="middle" x="478.1182" y="-281" font-family="Arial" font-size="10.00" fill="#000000">Maker</text>
</a>
</g>
</g>
<!-- evans.timespan.TimespanSpecifier -->
<g id="node10" class="node">
<title>evans.timespan.TimespanSpecifier</title>
<g id="a_node10"><a xlink:href="../api/evans/timespan.html#evans.timespan.TimespanSpecifier" xlink:title="Timespan\nSpecifier" target="_top">
<path fill="#fbb4ae" stroke="#fbb4ae" stroke-width="2" d="M497.3231,-255.498C497.3231,-255.498 458.9132,-255.498 458.9132,-255.498 453.7472,-255.498 448.5812,-250.332 448.5812,-245.166 448.5812,-245.166 448.5812,-234.834 448.5812,-234.834 448.5812,-229.668 453.7472,-224.502 458.9132,-224.502 458.9132,-224.502 497.3231,-224.502 497.3231,-224.502 502.4891,-224.502 507.6551,-229.668 507.6551,-234.834 507.6551,-234.834 507.6551,-245.166 507.6551,-245.166 507.6551,-250.332 502.4891,-255.498 497.3231,-255.498"/>
<text text-anchor="middle" x="478.1182" y="-243.499" font-family="Arial" font-size="10.00" fill="#000000">Timespan</text>
<text text-anchor="middle" x="478.1182" y="-232" font-family="Arial" font-size="10.00" fill="#000000">Specifier</text>
</a>
</g>
</g>
<!-- abjad.timespan.Timespan -->
<g id="node11" class="node">
<title>abjad.timespan.Timespan</title>
<path fill="#fbb4ae" stroke="#fbb4ae" stroke-width="2" d="M151.3187,-184.0056C151.3187,-184.0056 105.5856,-184.0056 105.5856,-184.0056 102.2504,-184.0056 98.9152,-180.6704 98.9152,-177.3352 98.9152,-177.3352 98.9152,-170.6648 98.9152,-170.6648 98.9152,-167.3296 102.2504,-163.9944 105.5856,-163.9944 105.5856,-163.9944 151.3187,-163.9944 151.3187,-163.9944 154.6539,-163.9944 157.9891,-167.3296 157.9891,-170.6648 157.9891,-170.6648 157.9891,-177.3352 157.9891,-177.3352 157.9891,-180.6704 154.6539,-184.0056 151.3187,-184.0056"/>
<text text-anchor="middle" x="128.4521" y="-171.7495" font-family="Arial" font-size="10.00" fill="#000000">Timespan</text>
</g>
<!-- builtins.object -->
<g id="node12" class="node">
<title>builtins.object</title>
<g id="a_node12"><a xlink:href="https://docs.python.org/3.7/library/functions.html#object" xlink:title="object" target="_top">
<path fill="#b3cde3" stroke="#b3cde3" stroke-width="2" d="M51.8576,-358.0056C51.8576,-358.0056 22.8269,-358.0056 22.8269,-358.0056 19.4918,-358.0056 16.1566,-354.6704 16.1566,-351.3352 16.1566,-351.3352 16.1566,-344.6648 16.1566,-344.6648 16.1566,-341.3296 19.4918,-337.9944 22.8269,-337.9944 22.8269,-337.9944 51.8576,-337.9944 51.8576,-337.9944 55.1928,-337.9944 58.528,-341.3296 58.528,-344.6648 58.528,-344.6648 58.528,-351.3352 58.528,-351.3352 58.528,-354.6704 55.1928,-358.0056 51.8576,-358.0056"/>
<text text-anchor="middle" x="37.3423" y="-345.7495" font-family="Arial" font-size="10.00" fill="#000000">object</text>
</a>
</g>
</g>
<!-- evans.commands.Command -->
<g id="node13" class="node">
<title>evans.commands.Command</title>
<g id="a_node13"><a xlink:href="../api/evans/commands.html#evans.commands.Command" xlink:title="Command" target="_top">
<path fill="#ccebc5" stroke="#ccebc5" stroke-width="2" d="M502.5758,-133.0056C502.5758,-133.0056 453.6605,-133.0056 453.6605,-133.0056 450.3253,-133.0056 446.9901,-129.6704 446.9901,-126.3352 446.9901,-126.3352 446.9901,-119.6648 446.9901,-119.6648 446.9901,-116.3296 450.3253,-112.9944 453.6605,-112.9944 453.6605,-112.9944 502.5758,-112.9944 502.5758,-112.9944 505.911,-112.9944 509.2462,-116.3296 509.2462,-119.6648 509.2462,-119.6648 509.2462,-126.3352 509.2462,-126.3352 509.2462,-129.6704 505.911,-133.0056 502.5758,-133.0056"/>
<text text-anchor="middle" x="478.1182" y="-120.7495" font-family="Arial" font-size="10.00" fill="#000000">Command</text>
</a>
</g>
</g>
<!-- evans.commands.HandlerCommand -->
<g id="node14" class="node">
<title>evans.commands.HandlerCommand</title>
<g id="a_node14"><a xlink:href="../api/evans/commands.html#evans.commands.HandlerCommand" xlink:title="Handler\nCommand" target="_top">
<path fill="#ccebc5" stroke="#ccebc5" stroke-width="2" d="M498.9142,-95.498C498.9142,-95.498 457.3221,-95.498 457.3221,-95.498 452.1561,-95.498 446.9901,-90.332 446.9901,-85.166 446.9901,-85.166 446.9901,-74.834 446.9901,-74.834 446.9901,-69.668 452.1561,-64.502 457.3221,-64.502 457.3221,-64.502 498.9142,-64.502 498.9142,-64.502 504.0802,-64.502 509.2462,-69.668 509.2462,-74.834 509.2462,-74.834 509.2462,-85.166 509.2462,-85.166 509.2462,-90.332 504.0802,-95.498 498.9142,-95.498"/>
<text text-anchor="middle" x="478.1182" y="-83.499" font-family="Arial" font-size="10.00" fill="#000000">Handler</text>
<text text-anchor="middle" x="478.1182" y="-72" font-family="Arial" font-size="10.00" fill="#000000">Command</text>
</a>
</g>
</g>
<!-- evans.commands.RhythmCommand -->
<g id="node15" class="node">
<title>evans.commands.RhythmCommand</title>
<g id="a_node15"><a xlink:href="../api/evans/commands.html#evans.commands.RhythmCommand" xlink:title="Rhythm\nCommand" target="_top">
<path fill="#ccebc5" stroke="#ccebc5" stroke-width="2" d="M498.9142,-46.498C498.9142,-46.498 457.3221,-46.498 457.3221,-46.498 452.1561,-46.498 446.9901,-41.332 446.9901,-36.166 446.9901,-36.166 446.9901,-25.834 446.9901,-25.834 446.9901,-20.668 452.1561,-15.502 457.3221,-15.502 457.3221,-15.502 498.9142,-15.502 498.9142,-15.502 504.0802,-15.502 509.2462,-20.668 509.2462,-25.834 509.2462,-25.834 509.2462,-36.166 509.2462,-36.166 509.2462,-41.332 504.0802,-46.498 498.9142,-46.498"/>
<text text-anchor="middle" x="478.1182" y="-34.499" font-family="Arial" font-size="10.00" fill="#000000">Rhythm</text>
<text text-anchor="middle" x="478.1182" y="-23" font-family="Arial" font-size="10.00" fill="#000000">Command</text>
</a>
</g>
</g>
<!-- evans.consort.AbjadObject.AbjadObject -->
<g id="node16" class="node">
<title>evans.consort.AbjadObject.AbjadObject</title>
<g id="a_node16"><a xlink:href="../api/evans/consort/AbjadObject.html#evans.consort.AbjadObject.AbjadObject" xlink:title="Abjad\nObject" target="_top">
<path fill="#decbe4" stroke="#decbe4" stroke-width="2" d="M140.5216,-1324.498C140.5216,-1324.498 116.3827,-1324.498 116.3827,-1324.498 111.2167,-1324.498 106.0507,-1319.332 106.0507,-1314.166 106.0507,-1314.166 106.0507,-1303.834 106.0507,-1303.834 106.0507,-1298.668 111.2167,-1293.502 116.3827,-1293.502 116.3827,-1293.502 140.5216,-1293.502 140.5216,-1293.502 145.6876,-1293.502 150.8536,-1298.668 150.8536,-1303.834 150.8536,-1303.834 150.8536,-1314.166 150.8536,-1314.166 150.8536,-1319.332 145.6876,-1324.498 140.5216,-1324.498"/>
<text text-anchor="middle" x="128.4521" y="-1312.499" font-family="Arial" font-size="10.00" fill="#000000">Abjad</text>
<text text-anchor="middle" x="128.4521" y="-1301" font-family="Arial" font-size="10.00" fill="#000000">Object</text>
</a>
</g>
</g>
<!-- evans.consort.AbjadValueObject.AbjadValueObject -->
<g id="node17" class="node">
<title>evans.consort.AbjadValueObject.AbjadValueObject</title>
<g id="a_node17"><a xlink:href="../api/evans/consort/AbjadValueObject.html#evans.consort.AbjadValueObject.AbjadValueObject" xlink:title="Abjad\nValue\nObject" target="_top">
<path fill="#decbe4" stroke="#decbe4" stroke-width="2" d="M244.3551,-1270.5C244.3551,-1270.5 223.5521,-1270.5 223.5521,-1270.5 217.5521,-1270.5 211.5521,-1264.5 211.5521,-1258.5 211.5521,-1258.5 211.5521,-1239.5 211.5521,-1239.5 211.5521,-1233.5 217.5521,-1227.5 223.5521,-1227.5 223.5521,-1227.5 244.3551,-1227.5 244.3551,-1227.5 250.3551,-1227.5 256.3551,-1233.5 256.3551,-1239.5 256.3551,-1239.5 256.3551,-1258.5 256.3551,-1258.5 256.3551,-1264.5 250.3551,-1270.5 244.3551,-1270.5"/>
<text text-anchor="middle" x="233.9536" y="-1258.2485" font-family="Arial" font-size="10.00" fill="#000000">Abjad</text>
<text text-anchor="middle" x="233.9536" y="-1246.7495" font-family="Arial" font-size="10.00" fill="#000000">Value</text>
<text text-anchor="middle" x="233.9536" y="-1235.2505" font-family="Arial" font-size="10.00" fill="#000000">Object</text>
</a>
</g>
</g>
<!-- evans.consort.LogicalTieCollection.LogicalTieCollection -->
<g id="node18" class="node">
<title>evans.consort.LogicalTieCollection.LogicalTieCollection</title>
<g id="a_node18"><a xlink:href="../api/evans/consort/LogicalTieCollection.html#evans.consort.LogicalTieCollection.LogicalTieCollection" xlink:title="Logical\nTie\nCollection" target="_top">
<path fill="#decbe4" stroke="#decbe4" stroke-width="2" d="M365.8326,-1290.5C365.8326,-1290.5 330.0102,-1290.5 330.0102,-1290.5 324.0102,-1290.5 318.0102,-1284.5 318.0102,-1278.5 318.0102,-1278.5 318.0102,-1259.5 318.0102,-1259.5 318.0102,-1253.5 324.0102,-1247.5 330.0102,-1247.5 330.0102,-1247.5 365.8326,-1247.5 365.8326,-1247.5 371.8326,-1247.5 377.8326,-1253.5 377.8326,-1259.5 377.8326,-1259.5 377.8326,-1278.5 377.8326,-1278.5 377.8326,-1284.5 371.8326,-1290.5 365.8326,-1290.5"/>
<text text-anchor="middle" x="347.9214" y="-1278.2485" font-family="Arial" font-size="10.00" fill="#000000">Logical</text>
<text text-anchor="middle" x="347.9214" y="-1266.7495" font-family="Arial" font-size="10.00" fill="#000000">Tie</text>
<text text-anchor="middle" x="347.9214" y="-1255.2505" font-family="Arial" font-size="10.00" fill="#000000">Collection</text>
</a>
</g>
</g>
<!-- evans.consort.RatioPartsExpression.RatioPartsExpression -->
<g id="node19" class="node">
<title>evans.consort.RatioPartsExpression.RatioPartsExpression</title>
<g id="a_node19"><a xlink:href="../api/evans/consort/RatioPartsExpression.html#evans.consort.RatioPartsExpression.RatioPartsExpression" xlink:title="Ratio\nParts\nExpression" target="_top">
<path fill="#decbe4" stroke="#decbe4" stroke-width="2" d="M499.0876,-1310.5C499.0876,-1310.5 457.1487,-1310.5 457.1487,-1310.5 451.1487,-1310.5 445.1487,-1304.5 445.1487,-1298.5 445.1487,-1298.5 445.1487,-1279.5 445.1487,-1279.5 445.1487,-1273.5 451.1487,-1267.5 457.1487,-1267.5 457.1487,-1267.5 499.0876,-1267.5 499.0876,-1267.5 505.0876,-1267.5 511.0876,-1273.5 511.0876,-1279.5 511.0876,-1279.5 511.0876,-1298.5 511.0876,-1298.5 511.0876,-1304.5 505.0876,-1310.5 499.0876,-1310.5"/>
<text text-anchor="middle" x="478.1182" y="-1298.2485" font-family="Arial" font-size="10.00" fill="#000000">Ratio</text>
<text text-anchor="middle" x="478.1182" y="-1286.7495" font-family="Arial" font-size="10.00" fill="#000000">Parts</text>
<text text-anchor="middle" x="478.1182" y="-1275.2505" font-family="Arial" font-size="10.00" fill="#000000">Expression</text>
</a>
</g>
</g>
<!-- evans.consort.TimespanCollection.TimespanCollection -->
<g id="node20" class="node">
<title>evans.consort.TimespanCollection.TimespanCollection</title>
<g id="a_node20"><a xlink:href="../api/evans/consort/TimespanCollection.html#evans.consort.TimespanCollection.TimespanCollection" xlink:title="Timespan\nCollection" target="_top">
<path fill="#decbe4" stroke="#decbe4" stroke-width="2" d="M614.6158,-1344.498C614.6158,-1344.498 575.4575,-1344.498 575.4575,-1344.498 570.2914,-1344.498 565.1254,-1339.332 565.1254,-1334.166 565.1254,-1334.166 565.1254,-1323.834 565.1254,-1323.834 565.1254,-1318.668 570.2914,-1313.502 575.4575,-1313.502 575.4575,-1313.502 614.6158,-1313.502 614.6158,-1313.502 619.7818,-1313.502 624.9478,-1318.668 624.9478,-1323.834 624.9478,-1323.834 624.9478,-1334.166 624.9478,-1334.166 624.9478,-1339.332 619.7818,-1344.498 614.6158,-1344.498"/>
<text text-anchor="middle" x="595.0366" y="-1332.499" font-family="Arial" font-size="10.00" fill="#000000">Timespan</text>
<text text-anchor="middle" x="595.0366" y="-1321" font-family="Arial" font-size="10.00" fill="#000000">Collection</text>
</a>
</g>
</g>
<!-- evans.consort.TimespanCollectionNode.TimespanCollectionNode -->
<g id="node21" class="node">
<title>evans.consort.TimespanCollectionNode.TimespanCollectionNode</title>
<g id="a_node21"><a xlink:href="../api/evans/consort/TimespanCollectionNode.html#evans.consort.TimespanCollectionNode.TimespanCollectionNode" xlink:title="Timespan\nCollection\nNode" target="_top">
<path fill="#decbe4" stroke="#decbe4" stroke-width="2" d="M251.8648,-1390.5C251.8648,-1390.5 216.0424,-1390.5 216.0424,-1390.5 210.0424,-1390.5 204.0424,-1384.5 204.0424,-1378.5 204.0424,-1378.5 204.0424,-1359.5 204.0424,-1359.5 204.0424,-1353.5 210.0424,-1347.5 216.0424,-1347.5 216.0424,-1347.5 251.8648,-1347.5 251.8648,-1347.5 257.8648,-1347.5 263.8648,-1353.5 263.8648,-1359.5 263.8648,-1359.5 263.8648,-1378.5 263.8648,-1378.5 263.8648,-1384.5 257.8648,-1390.5 251.8648,-1390.5"/>
<text text-anchor="middle" x="233.9536" y="-1378.2485" font-family="Arial" font-size="10.00" fill="#000000">Timespan</text>
<text text-anchor="middle" x="233.9536" y="-1366.7495" font-family="Arial" font-size="10.00" fill="#000000">Collection</text>
<text text-anchor="middle" x="233.9536" y="-1355.2505" font-family="Arial" font-size="10.00" fill="#000000">Node</text>
</a>
</g>
</g>
<!-- evans.consort.TimespanSimultaneity.TimespanSimultaneity -->
<g id="node22" class="node">
<title>evans.consort.TimespanSimultaneity.TimespanSimultaneity</title>
<g id="a_node22"><a xlink:href="../api/evans/consort/TimespanSimultaneity.html#evans.consort.TimespanSimultaneity.TimespanSimultaneity" xlink:title="Timespan\nSimultaneity" target="_top">
<path fill="#decbe4" stroke="#decbe4" stroke-width="2" d="M373.0587,-1409.498C373.0587,-1409.498 322.7841,-1409.498 322.7841,-1409.498 317.6181,-1409.498 312.4521,-1404.332 312.4521,-1399.166 312.4521,-1399.166 312.4521,-1388.834 312.4521,-1388.834 312.4521,-1383.668 317.6181,-1378.502 322.7841,-1378.502 322.7841,-1378.502 373.0587,-1378.502 373.0587,-1378.502 378.2247,-1378.502 383.3907,-1383.668 383.3907,-1388.834 383.3907,-1388.834 383.3907,-1399.166 383.3907,-1399.166 383.3907,-1404.332 378.2247,-1409.498 373.0587,-1409.498"/>
<text text-anchor="middle" x="347.9214" y="-1397.499" font-family="Arial" font-size="10.00" fill="#000000">Timespan</text>
<text text-anchor="middle" x="347.9214" y="-1386" font-family="Arial" font-size="10.00" fill="#000000">Simultaneity</text>
</a>
</g>
</g>
<!-- evans.handlers.ArticulationHandler -->
<g id="node23" class="node">
<title>evans.handlers.ArticulationHandler</title>
<g id="a_node23"><a xlink:href="../api/evans/handlers.html#evans.handlers.ArticulationHandler" xlink:title="Articulation\nHandler" target="_top">
<path fill="#fed9a6" stroke="#fed9a6" stroke-width="2" d="M256.591,-554.498C256.591,-554.498 211.3162,-554.498 211.3162,-554.498 206.1502,-554.498 200.9842,-549.332 200.9842,-544.166 200.9842,-544.166 200.9842,-533.834 200.9842,-533.834 200.9842,-528.668 206.1502,-523.502 211.3162,-523.502 211.3162,-523.502 256.591,-523.502 256.591,-523.502 261.7571,-523.502 266.9231,-528.668 266.9231,-533.834 266.9231,-533.834 266.9231,-544.166 266.9231,-544.166 266.9231,-549.332 261.7571,-554.498 256.591,-554.498"/>
<text text-anchor="middle" x="233.9536" y="-542.499" font-family="Arial" font-size="10.00" fill="#000000">Articulation</text>
<text text-anchor="middle" x="233.9536" y="-531" font-family="Arial" font-size="10.00" fill="#000000">Handler</text>
</a>
</g>
</g>
<!-- evans.handlers.BendHandler -->
<g id="node24" class="node">
<title>evans.handlers.BendHandler</title>
<g id="a_node24"><a xlink:href="../api/evans/handlers.html#evans.handlers.BendHandler" xlink:title="Bend\nHandler" target="_top">
<path fill="#fed9a6" stroke="#fed9a6" stroke-width="2" d="M363.1089,-574.498C363.1089,-574.498 332.7339,-574.498 332.7339,-574.498 327.5679,-574.498 322.4019,-569.332 322.4019,-564.166 322.4019,-564.166 322.4019,-553.834 322.4019,-553.834 322.4019,-548.668 327.5679,-543.502 332.7339,-543.502 332.7339,-543.502 363.1089,-543.502 363.1089,-543.502 368.2749,-543.502 373.4409,-548.668 373.4409,-553.834 373.4409,-553.834 373.4409,-564.166 373.4409,-564.166 373.4409,-569.332 368.2749,-574.498 363.1089,-574.498"/>
<text text-anchor="middle" x="347.9214" y="-562.499" font-family="Arial" font-size="10.00" fill="#000000">Bend</text>
<text text-anchor="middle" x="347.9214" y="-551" font-family="Arial" font-size="10.00" fill="#000000">Handler</text>
</a>
</g>
</g>
<!-- evans.handlers.BisbigliandoHandler -->
<g id="node25" class="node">
<title>evans.handlers.BisbigliandoHandler</title>
<g id="a_node25"><a xlink:href="../api/evans/handlers.html#evans.handlers.BisbigliandoHandler" xlink:title="Bisbigliando\nHandler" target="_top">
<path fill="#fed9a6" stroke="#fed9a6" stroke-width="2" d="M502.712,-594.498C502.712,-594.498 453.5244,-594.498 453.5244,-594.498 448.3584,-594.498 443.1923,-589.332 443.1923,-584.166 443.1923,-584.166 443.1923,-573.834 443.1923,-573.834 443.1923,-568.668 448.3584,-563.502 453.5244,-563.502 453.5244,-563.502 502.712,-563.502 502.712,-563.502 507.878,-563.502 513.044,-568.668 513.044,-573.834 513.044,-573.834 513.044,-584.166 513.044,-584.166 513.044,-589.332 507.878,-594.498 502.712,-594.498"/>
<text text-anchor="middle" x="478.1182" y="-582.499" font-family="Arial" font-size="10.00" fill="#000000">Bisbigliando</text>
<text text-anchor="middle" x="478.1182" y="-571" font-family="Arial" font-size="10.00" fill="#000000">Handler</text>
</a>
</g>
</g>
<!-- evans.handlers.BowAngleHandler -->
<g id="node26" class="node">
<title>evans.handlers.BowAngleHandler</title>
<g id="a_node26"><a xlink:href="../api/evans/handlers.html#evans.handlers.BowAngleHandler" xlink:title="Bow\nAngle\nHandler" target="_top">
<path fill="#fed9a6" stroke="#fed9a6" stroke-width="2" d="M608.5562,-634.5C608.5562,-634.5 581.5171,-634.5 581.5171,-634.5 575.5171,-634.5 569.5171,-628.5 569.5171,-622.5 569.5171,-622.5 569.5171,-603.5 569.5171,-603.5 569.5171,-597.5 575.5171,-591.5 581.5171,-591.5 581.5171,-591.5 608.5562,-591.5 608.5562,-591.5 614.5562,-591.5 620.5562,-597.5 620.5562,-603.5 620.5562,-603.5 620.5562,-622.5 620.5562,-622.5 620.5562,-628.5 614.5562,-634.5 608.5562,-634.5"/>
<text text-anchor="middle" x="595.0366" y="-622.2485" font-family="Arial" font-size="10.00" fill="#000000">Bow</text>
<text text-anchor="middle" x="595.0366" y="-610.7495" font-family="Arial" font-size="10.00" fill="#000000">Angle</text>
<text text-anchor="middle" x="595.0366" y="-599.2505" font-family="Arial" font-size="10.00" fill="#000000">Handler</text>
</a>
</g>
</g>
<!-- evans.handlers.ClefHandler -->
<g id="node27" class="node">
<title>evans.handlers.ClefHandler</title>
<g id="a_node27"><a xlink:href="../api/evans/handlers.html#evans.handlers.ClefHandler" xlink:title="Clef\nHandler" target="_top">
<path fill="#fed9a6" stroke="#fed9a6" stroke-width="2" d="M249.1411,-662.498C249.1411,-662.498 218.7661,-662.498 218.7661,-662.498 213.6001,-662.498 208.4341,-657.332 208.4341,-652.166 208.4341,-652.166 208.4341,-641.834 208.4341,-641.834 208.4341,-636.668 213.6001,-631.502 218.7661,-631.502 218.7661,-631.502 249.1411,-631.502 249.1411,-631.502 254.3071,-631.502 259.4731,-636.668 259.4731,-641.834 259.4731,-641.834 259.4731,-652.166 259.4731,-652.166 259.4731,-657.332 254.3071,-662.498 249.1411,-662.498"/>
<text text-anchor="middle" x="233.9536" y="-650.499" font-family="Arial" font-size="10.00" fill="#000000">Clef</text>
<text text-anchor="middle" x="233.9536" y="-639" font-family="Arial" font-size="10.00" fill="#000000">Handler</text>
</a>
</g>
</g>
<!-- evans.handlers.CompositeHandler -->
<g id="node28" class="node">
<title>evans.handlers.CompositeHandler</title>
<g id="a_node28"><a xlink:href="../api/evans/handlers.html#evans.handlers.CompositeHandler" xlink:title="Composite\nHandler" target="_top">
<path fill="#fed9a6" stroke="#fed9a6" stroke-width="2" d="M369.3875,-682.498C369.3875,-682.498 326.4552,-682.498 326.4552,-682.498 321.2892,-682.498 316.1232,-677.332 316.1232,-672.166 316.1232,-672.166 316.1232,-661.834 316.1232,-661.834 316.1232,-656.668 321.2892,-651.502 326.4552,-651.502 326.4552,-651.502 369.3875,-651.502 369.3875,-651.502 374.5535,-651.502 379.7196,-656.668 379.7196,-661.834 379.7196,-661.834 379.7196,-672.166 379.7196,-672.166 379.7196,-677.332 374.5535,-682.498 369.3875,-682.498"/>
<text text-anchor="middle" x="347.9214" y="-670.499" font-family="Arial" font-size="10.00" fill="#000000">Composite</text>
<text text-anchor="middle" x="347.9214" y="-659" font-family="Arial" font-size="10.00" fill="#000000">Handler</text>
</a>
</g>
</g>
<!-- evans.handlers.DynamicHandler -->
<g id="node29" class="node">
<title>evans.handlers.DynamicHandler</title>
<g id="a_node29"><a xlink:href="../api/evans/handlers.html#evans.handlers.DynamicHandler" xlink:title="Dynamic\nHandler" target="_top">
<path fill="#fed9a6" stroke="#fed9a6" stroke-width="2" d="M495.1827,-702.498C495.1827,-702.498 461.0536,-702.498 461.0536,-702.498 455.8876,-702.498 450.7216,-697.332 450.7216,-692.166 450.7216,-692.166 450.7216,-681.834 450.7216,-681.834 450.7216,-676.668 455.8876,-671.502 461.0536,-671.502 461.0536,-671.502 495.1827,-671.502 495.1827,-671.502 500.3487,-671.502 505.5147,-676.668 505.5147,-681.834 505.5147,-681.834 505.5147,-692.166 505.5147,-692.166 505.5147,-697.332 500.3487,-702.498 495.1827,-702.498"/>
<text text-anchor="middle" x="478.1182" y="-690.499" font-family="Arial" font-size="10.00" fill="#000000">Dynamic</text>
<text text-anchor="middle" x="478.1182" y="-679" font-family="Arial" font-size="10.00" fill="#000000">Handler</text>
</a>
</g>
</g>
<!-- evans.handlers.GettatoHandler -->
<g id="node30" class="node">
<title>evans.handlers.GettatoHandler</title>
<g id="a_node30"><a xlink:href="../api/evans/handlers.html#evans.handlers.GettatoHandler" xlink:title="Gettato\nHandler" target="_top">
<path fill="#fed9a6" stroke="#fed9a6" stroke-width="2" d="M610.2241,-736.498C610.2241,-736.498 579.8491,-736.498 579.8491,-736.498 574.6831,-736.498 569.5171,-731.332 569.5171,-726.166 569.5171,-726.166 569.5171,-715.834 569.5171,-715.834 569.5171,-710.668 574.6831,-705.502 579.8491,-705.502 579.8491,-705.502 610.2241,-705.502 610.2241,-705.502 615.3901,-705.502 620.5562,-710.668 620.5562,-715.834 620.5562,-715.834 620.5562,-726.166 620.5562,-726.166 620.5562,-731.332 615.3901,-736.498 610.2241,-736.498"/>
<text text-anchor="middle" x="595.0366" y="-724.499" font-family="Arial" font-size="10.00" fill="#000000">Gettato</text>
<text text-anchor="middle" x="595.0366" y="-713" font-family="Arial" font-size="10.00" fill="#000000">Handler</text>
</a>
</g>
</g>
<!-- evans.handlers.GlissandoHandler -->
<g id="node31" class="node">
<title>evans.handlers.GlissandoHandler</title>
<g id="a_node31"><a xlink:href="../api/evans/handlers.html#evans.handlers.GlissandoHandler" xlink:title="Glissando\nHandler" target="_top">
<path fill="#fed9a6" stroke="#fed9a6" stroke-width="2" d="M254.0912,-770.498C254.0912,-770.498 213.816,-770.498 213.816,-770.498 208.65,-770.498 203.484,-765.332 203.484,-760.166 203.484,-760.166 203.484,-749.834 203.484,-749.834 203.484,-744.668 208.65,-739.502 213.816,-739.502 213.816,-739.502 254.0912,-739.502 254.0912,-739.502 259.2572,-739.502 264.4232,-744.668 264.4232,-749.834 264.4232,-749.834 264.4232,-760.166 264.4232,-760.166 264.4232,-765.332 259.2572,-770.498 254.0912,-770.498"/>
<text text-anchor="middle" x="233.9536" y="-758.499" font-family="Arial" font-size="10.00" fill="#000000">Glissando</text>
<text text-anchor="middle" x="233.9536" y="-747" font-family="Arial" font-size="10.00" fill="#000000">Handler</text>
</a>
</g>
</g>
<!-- evans.handlers.GraceHandler -->
<g id="node32" class="node">
<title>evans.handlers.GraceHandler</title>
<g id="a_node32"><a xlink:href="../api/evans/handlers.html#evans.handlers.GraceHandler" xlink:title="Grace\nHandler" target="_top">
<path fill="#fed9a6" stroke="#fed9a6" stroke-width="2" d="M363.1089,-790.498C363.1089,-790.498 332.7339,-790.498 332.7339,-790.498 327.5679,-790.498 322.4019,-785.332 322.4019,-780.166 322.4019,-780.166 322.4019,-769.834 322.4019,-769.834 322.4019,-764.668 327.5679,-759.502 332.7339,-759.502 332.7339,-759.502 363.1089,-759.502 363.1089,-759.502 368.2749,-759.502 373.4409,-764.668 373.4409,-769.834 373.4409,-769.834 373.4409,-780.166 373.4409,-780.166 373.4409,-785.332 368.2749,-790.498 363.1089,-790.498"/>
<text text-anchor="middle" x="347.9214" y="-778.499" font-family="Arial" font-size="10.00" fill="#000000">Grace</text>
<text text-anchor="middle" x="347.9214" y="-767" font-family="Arial" font-size="10.00" fill="#000000">Handler</text>
</a>
</g>
</g>
<!-- evans.handlers.Handler -->
<g id="node33" class="node">
<title>evans.handlers.Handler</title>
<g id="a_node33"><a xlink:href="../api/evans/handlers.html#evans.handlers.Handler" xlink:title="Handler" target="_top">
<path fill="#fed9a6" stroke="#fed9a6" stroke-width="2" d="M147.3013,-782.0056C147.3013,-782.0056 109.603,-782.0056 109.603,-782.0056 106.2678,-782.0056 102.9326,-778.6704 102.9326,-775.3352 102.9326,-775.3352 102.9326,-768.6648 102.9326,-768.6648 102.9326,-765.3296 106.2678,-761.9944 109.603,-761.9944 109.603,-761.9944 147.3013,-761.9944 147.3013,-761.9944 150.6365,-761.9944 153.9717,-765.3296 153.9717,-768.6648 153.9717,-768.6648 153.9717,-775.3352 153.9717,-775.3352 153.9717,-778.6704 150.6365,-782.0056 147.3013,-782.0056"/>
<text text-anchor="middle" x="128.4521" y="-769.7495" font-family="Arial" font-size="10.00" fill="#000000">Handler</text>
</a>
</g>
</g>
<!-- evans.handlers.IntermittentVoiceHandler -->
<g id="node34" class="node">
<title>evans.handlers.IntermittentVoiceHandler</title>
<g id="a_node34"><a xlink:href="../api/evans/handlers.html#evans.handlers.IntermittentVoiceHandler" xlink:title="Intermittent\nVoice\nHandler" target="_top">
<path fill="#fed9a6" stroke="#fed9a6" stroke-width="2" d="M499.1377,-810.5C499.1377,-810.5 457.0986,-810.5 457.0986,-810.5 451.0986,-810.5 445.0986,-804.5 445.0986,-798.5 445.0986,-798.5 445.0986,-779.5 445.0986,-779.5 445.0986,-773.5 451.0986,-767.5 457.0986,-767.5 457.0986,-767.5 499.1377,-767.5 499.1377,-767.5 505.1377,-767.5 511.1377,-773.5 511.1377,-779.5 511.1377,-779.5 511.1377,-798.5 511.1377,-798.5 511.1377,-804.5 505.1377,-810.5 499.1377,-810.5"/>
<text text-anchor="middle" x="478.1182" y="-798.2485" font-family="Arial" font-size="10.00" fill="#000000">Intermittent</text>
<text text-anchor="middle" x="478.1182" y="-786.7495" font-family="Arial" font-size="10.00" fill="#000000">Voice</text>
<text text-anchor="middle" x="478.1182" y="-775.2505" font-family="Arial" font-size="10.00" fill="#000000">Handler</text>
</a>
</g>
</g>
<!-- evans.handlers.NoteheadHandler -->
<g id="node35" class="node">
<title>evans.handlers.NoteheadHandler</title>
<g id="a_node35"><a xlink:href="../api/evans/handlers.html#evans.handlers.NoteheadHandler" xlink:title="Notehead\nHandler" target="_top">
<path fill="#fed9a6" stroke="#fed9a6" stroke-width="2" d="M614.5749,-844.498C614.5749,-844.498 575.4984,-844.498 575.4984,-844.498 570.3323,-844.498 565.1663,-839.332 565.1663,-834.166 565.1663,-834.166 565.1663,-823.834 565.1663,-823.834 565.1663,-818.668 570.3323,-813.502 575.4984,-813.502 575.4984,-813.502 614.5749,-813.502 614.5749,-813.502 619.7409,-813.502 624.9069,-818.668 624.9069,-823.834 624.9069,-823.834 624.9069,-834.166 624.9069,-834.166 624.9069,-839.332 619.7409,-844.498 614.5749,-844.498"/>
<text text-anchor="middle" x="595.0366" y="-832.499" font-family="Arial" font-size="10.00" fill="#000000">Notehead</text>
<text text-anchor="middle" x="595.0366" y="-821" font-family="Arial" font-size="10.00" fill="#000000">Handler</text>
</a>
</g>
</g>
<!-- evans.handlers.OnBeatGraceHandler -->
<g id="node36" class="node">
<title>evans.handlers.OnBeatGraceHandler</title>
<g id="a_node36"><a xlink:href="../api/evans/handlers.html#evans.handlers.OnBeatGraceHandler" xlink:title="On\nBeat\nGrace\nHandler" target="_top">
<path fill="#fed9a6" stroke="#fed9a6" stroke-width="2" d="M247.4731,-901.9961C247.4731,-901.9961 220.4341,-901.9961 220.4341,-901.9961 214.4341,-901.9961 208.4341,-895.9961 208.4341,-889.9961 208.4341,-889.9961 208.4341,-860.0039 208.4341,-860.0039 208.4341,-854.0039 214.4341,-848.0039 220.4341,-848.0039 220.4341,-848.0039 247.4731,-848.0039 247.4731,-848.0039 253.4731,-848.0039 259.4731,-854.0039 259.4731,-860.0039 259.4731,-860.0039 259.4731,-889.9961 259.4731,-889.9961 259.4731,-895.9961 253.4731,-901.9961 247.4731,-901.9961"/>
<text text-anchor="middle" x="233.9536" y="-889.998" font-family="Arial" font-size="10.00" fill="#000000">On</text>
<text text-anchor="middle" x="233.9536" y="-878.499" font-family="Arial" font-size="10.00" fill="#000000">Beat</text>
<text text-anchor="middle" x="233.9536" y="-867" font-family="Arial" font-size="10.00" fill="#000000">Grace</text>
<text text-anchor="middle" x="233.9536" y="-855.501" font-family="Arial" font-size="10.00" fill="#000000">Handler</text>
</a>
</g>
</g>
<!-- evans.handlers.PitchHandler -->
<g id="node37" class="node">
<title>evans.handlers.PitchHandler</title>
<g id="a_node37"><a xlink:href="../api/evans/handlers.html#evans.handlers.PitchHandler" xlink:title="Pitch\nHandler" target="_top">
<path fill="#fed9a6" stroke="#fed9a6" stroke-width="2" d="M363.1089,-922.498C363.1089,-922.498 332.7339,-922.498 332.7339,-922.498 327.5679,-922.498 322.4019,-917.332 322.4019,-912.166 322.4019,-912.166 322.4019,-901.834 322.4019,-901.834 322.4019,-896.668 327.5679,-891.502 332.7339,-891.502 332.7339,-891.502 363.1089,-891.502 363.1089,-891.502 368.2749,-891.502 373.4409,-896.668 373.4409,-901.834 373.4409,-901.834 373.4409,-912.166 373.4409,-912.166 373.4409,-917.332 368.2749,-922.498 363.1089,-922.498"/>
<text text-anchor="middle" x="347.9214" y="-910.499" font-family="Arial" font-size="10.00" fill="#000000">Pitch</text>
<text text-anchor="middle" x="347.9214" y="-899" font-family="Arial" font-size="10.00" fill="#000000">Handler</text>
</a>
</g>
</g>
<!-- evans.handlers.RhythmHandler -->
<g id="node38" class="node">
<title>evans.handlers.RhythmHandler</title>
<g id="a_node38"><a xlink:href="../api/evans/handlers.html#evans.handlers.RhythmHandler" xlink:title="Rhythm\nHandler" target="_top">
<path fill="#fed9a6" stroke="#fed9a6" stroke-width="2" d="M493.3057,-942.498C493.3057,-942.498 462.9307,-942.498 462.9307,-942.498 457.7646,-942.498 452.5986,-937.332 452.5986,-932.166 452.5986,-932.166 452.5986,-921.834 452.5986,-921.834 452.5986,-916.668 457.7646,-911.502 462.9307,-911.502 462.9307,-911.502 493.3057,-911.502 493.3057,-911.502 498.4717,-911.502 503.6377,-916.668 503.6377,-921.834 503.6377,-921.834 503.6377,-932.166 503.6377,-932.166 503.6377,-937.332 498.4717,-942.498 493.3057,-942.498"/>
<text text-anchor="middle" x="478.1182" y="-930.499" font-family="Arial" font-size="10.00" fill="#000000">Rhythm</text>
<text text-anchor="middle" x="478.1182" y="-919" font-family="Arial" font-size="10.00" fill="#000000">Handler</text>
</a>
</g>
</g>
<!-- evans.handlers.SlurHandler -->
<g id="node39" class="node">
<title>evans.handlers.SlurHandler</title>
<g id="a_node39"><a xlink:href="../api/evans/handlers.html#evans.handlers.SlurHandler" xlink:title="Slur\nHandler" target="_top">
<path fill="#fed9a6" stroke="#fed9a6" stroke-width="2" d="M610.2241,-976.498C610.2241,-976.498 579.8491,-976.498 579.8491,-976.498 574.6831,-976.498 569.5171,-971.332 569.5171,-966.166 569.5171,-966.166 569.5171,-955.834 569.5171,-955.834 569.5171,-950.668 574.6831,-945.502 579.8491,-945.502 579.8491,-945.502 610.2241,-945.502 610.2241,-945.502 615.3901,-945.502 620.5562,-950.668 620.5562,-955.834 620.5562,-955.834 620.5562,-966.166 620.5562,-966.166 620.5562,-971.332 615.3901,-976.498 610.2241,-976.498"/>
<text text-anchor="middle" x="595.0366" y="-964.499" font-family="Arial" font-size="10.00" fill="#000000">Slur</text>
<text text-anchor="middle" x="595.0366" y="-953" font-family="Arial" font-size="10.00" fill="#000000">Handler</text>
</a>
</g>
</g>
<!-- evans.handlers.TempoSpannerHandler -->
<g id="node40" class="node">
<title>evans.handlers.TempoSpannerHandler</title>
<g id="a_node40"><a xlink:href="../api/evans/handlers.html#evans.handlers.TempoSpannerHandler" xlink:title="Tempo\nSpanner\nHandler" target="_top">
<path fill="#fed9a6" stroke="#fed9a6" stroke-width="2" d="M248.7616,-1022.5C248.7616,-1022.5 219.1457,-1022.5 219.1457,-1022.5 213.1457,-1022.5 207.1457,-1016.5 207.1457,-1010.5 207.1457,-1010.5 207.1457,-991.5 207.1457,-991.5 207.1457,-985.5 213.1457,-979.5 219.1457,-979.5 219.1457,-979.5 248.7616,-979.5 248.7616,-979.5 254.7616,-979.5 260.7616,-985.5 260.7616,-991.5 260.7616,-991.5 260.7616,-1010.5 260.7616,-1010.5 260.7616,-1016.5 254.7616,-1022.5 248.7616,-1022.5"/>
<text text-anchor="middle" x="233.9536" y="-1010.2485" font-family="Arial" font-size="10.00" fill="#000000">Tempo</text>
<text text-anchor="middle" x="233.9536" y="-998.7495" font-family="Arial" font-size="10.00" fill="#000000">Spanner</text>
<text text-anchor="middle" x="233.9536" y="-987.2505" font-family="Arial" font-size="10.00" fill="#000000">Handler</text>
</a>
</g>
</g>
<!-- evans.handlers.TextSpanHandler -->
<g id="node41" class="node">
<title>evans.handlers.TextSpanHandler</title>
<g id="a_node41"><a xlink:href="../api/evans/handlers.html#evans.handlers.TextSpanHandler" xlink:title="Text\nSpan\nHandler" target="_top">
<path fill="#fed9a6" stroke="#fed9a6" stroke-width="2" d="M361.4409,-1042.5C361.4409,-1042.5 334.4019,-1042.5 334.4019,-1042.5 328.4019,-1042.5 322.4019,-1036.5 322.4019,-1030.5 322.4019,-1030.5 322.4019,-1011.5 322.4019,-1011.5 322.4019,-1005.5 328.4019,-999.5 334.4019,-999.5 334.4019,-999.5 361.4409,-999.5 361.4409,-999.5 367.4409,-999.5 373.4409,-1005.5 373.4409,-1011.5 373.4409,-1011.5 373.4409,-1030.5 373.4409,-1030.5 373.4409,-1036.5 367.4409,-1042.5 361.4409,-1042.5"/>
<text text-anchor="middle" x="347.9214" y="-1030.2485" font-family="Arial" font-size="10.00" fill="#000000">Text</text>
<text text-anchor="middle" x="347.9214" y="-1018.7495" font-family="Arial" font-size="10.00" fill="#000000">Span</text>
<text text-anchor="middle" x="347.9214" y="-1007.2505" font-family="Arial" font-size="10.00" fill="#000000">Handler</text>
</a>
</g>
</g>
<!-- evans.handlers.TrillHandler -->
<g id="node42" class="node">
<title>evans.handlers.TrillHandler</title>
<g id="a_node42"><a xlink:href="../api/evans/handlers.html#evans.handlers.TrillHandler" xlink:title="Trill\nHandler" target="_top">
<path fill="#fed9a6" stroke="#fed9a6" stroke-width="2" d="M493.3057,-1061.498C493.3057,-1061.498 462.9307,-1061.498 462.9307,-1061.498 457.7646,-1061.498 452.5986,-1056.332 452.5986,-1051.166 452.5986,-1051.166 452.5986,-1040.834 452.5986,-1040.834 452.5986,-1035.668 457.7646,-1030.502 462.9307,-1030.502 462.9307,-1030.502 493.3057,-1030.502 493.3057,-1030.502 498.4717,-1030.502 503.6377,-1035.668 503.6377,-1040.834 503.6377,-1040.834 503.6377,-1051.166 503.6377,-1051.166 503.6377,-1056.332 498.4717,-1061.498 493.3057,-1061.498"/>
<text text-anchor="middle" x="478.1182" y="-1049.499" font-family="Arial" font-size="10.00" fill="#000000">Trill</text>
<text text-anchor="middle" x="478.1182" y="-1038" font-family="Arial" font-size="10.00" fill="#000000">Handler</text>
</a>
</g>
</g>
</g>
</svg>
