<svg xmlns="http://www.w3.org/2000/svg" xmlns:xlink="http://www.w3.org/1999/xlink" version="1.2" width="210.00mm" height="297.00mm" viewBox="0 0 132.7795 187.7882">
<style text="style/css">
<![CDATA[
tspan { white-space: pre; }
]]>
</style>
<!-- Page: 1/1 -->
<g color="rgb(49.8039%, 49.8039%, 49.8039%)">
<line transform="translate(16.0600, 10.8151)" stroke-linejoin="round" stroke-linecap="round" stroke-width="0.1073" stroke="currentColor" x1="0.0537" y1="-0.0000" x2="105.6436" y2="-0.0000"/>
<line transform="translate(16.0600, 9.8151)" stroke-linejoin="round" stroke-linecap="round" stroke-width="0.1073" stroke="currentColor" x1="0.0537" y1="-0.0000" x2="105.6436" y2="-0.0000"/>
<line transform="translate(16.0600, 8.8151)" stroke-linejoin="round" stroke-linecap="round" stroke-width="0.1073" stroke="currentColor" x1="0.0537" y1="-0.0000" x2="105.6436" y2="-0.0000"/>
<line transform="translate(16.0600, 7.8151)" stroke-linejoin="round" stroke-linecap="round" stroke-width="0.1073" stroke="currentColor" x1="0.0537" y1="-0.0000" x2="105.6436" y2="-0.0000"/>
<line transform="translate(16.0600, 6.8151)" stroke-linejoin="round" stroke-linecap="round" stroke-width="0.1073" stroke="currentColor" x1="0.0537" y1="-0.0000" x2="105.6436" y2="-0.0000"/>
</g>
<rect transform="translate(16.0600, 11.8151)" x="93.3715" y="-0.1037" width="1.9542" height="0.2073" ry="0.1037" fill="currentColor"/>
<rect transform="translate(16.0600, 11.8151)" x="81.3715" y="-0.1037" width="1.9542" height="0.2073" ry="0.1037" fill="currentColor"/>
<rect transform="translate(16.0600, 11.8151)" x="69.3715" y="-0.1037" width="1.9542" height="0.2073" ry="0.1037" fill="currentColor"/>
<rect transform="translate(16.0600, 11.8151)" x="57.3715" y="-0.1037" width="1.9542" height="0.2073" ry="0.1037" fill="currentColor"/>
<rect transform="translate(16.0600, 11.8151)" x="44.2677" y="-0.1037" width="1.9542" height="0.2073" ry="0.1037" fill="currentColor"/>
<rect transform="translate(16.0600, 11.8151)" x="32.2677" y="-0.1037" width="1.9542" height="0.2073" ry="0.1037" fill="currentColor"/>
<rect transform="translate(16.0600, 11.8151)" x="20.2677" y="-0.1037" width="1.9542" height="0.2073" ry="0.1037" fill="currentColor"/>
<rect transform="translate(16.0600, 11.8151)" x="8.2677" y="-0.1037" width="1.9542" height="0.2073" ry="0.1037" fill="currentColor"/>
<rect transform="translate(72.6534, 8.8151)" x="0.0000" y="-2.0537" width="0.2039" height="4.1073" ry="0.0000" fill="currentColor"/>
<rect transform="translate(121.5534, 8.8151)" x="0.0000" y="-2.0537" width="0.2039" height="4.1073" ry="0.0000" fill="currentColor"/>
<rect transform="translate(37.8864, 8.8151)" x="-0.0697" y="-0.5000" width="0.1395" height="3.3206" ry="0.0444" fill="currentColor"/>
<path transform="translate(36.6534, 11.8151) scale(0.0040, -0.0040)" d="M215 137c57 0 111 -29 111 -92c0 -71 -54 -120 -101 -148c-35 -21 -74 -34 -114 -34c-57 0 -111 29 -111 92c0 71 54 120 101 148c35 21 74 34 114 34z" fill="currentColor"/>
<rect transform="translate(110.9903, 8.8151)" x="-0.0697" y="-0.5000" width="0.1395" height="3.3206" ry="0.0444" fill="currentColor"/>
<path transform="translate(109.7572, 11.8151) scale(0.0040, -0.0040)" d="M215 137c57 0 111 -29 111 -92c0 -71 -54 -120 -101 -148c-35 -21 -74 -34 -114 -34c-57 0 -111 29 -111 92c0 71 54 120 101 148c35 21 74 34 114 34z" fill="currentColor"/>
<g transform="rotate(-0.0000, 62.6548, 5.2614)">
<path transform="translate(72.6548, 5.6614) scale(0.0040, -0.0040)" d="M-28 42c-4 -4 -8 -6 -12 -6c-9 0 -16 7 -16 16c0 3 0 7 3 10l109 129c6 8 13 11 20 11c24 0 50 -41 77 -69c14 -15 33 -22 52 -22c17 0 33 5 47 17l26 30c4 4 8 6 12 6c9 0 17 -7 17 -16c0 -3 -1 -7 -4 -10l-109 -129c-6 -8 -13 -11 -20 -11c-24 0 -50 41 -77 69
c-14 15 -33 22 -52 22c-17 0 -33 -5 -47 -17z" fill="currentColor"/>
<path transform="translate(71.6548, 5.6614) scale(0.0040, -0.0040)" d="M-28 42c-4 -4 -8 -6 -12 -6c-9 0 -16 7 -16 16c0 3 0 7 3 10l109 129c6 8 13 11 20 11c24 0 50 -41 77 -69c14 -15 33 -22 52 -22c17 0 33 5 47 17l26 30c4 4 8 6 12 6c9 0 17 -7 17 -16c0 -3 -1 -7 -4 -10l-109 -129c-6 -8 -13 -11 -20 -11c-24 0 -50 41 -77 69
c-14 15 -33 22 -52 22c-17 0 -33 -5 -47 -17z" fill="currentColor"/>
<path transform="translate(70.6548, 5.6614) scale(0.0040, -0.0040)" d="M-28 42c-4 -4 -8 -6 -12 -6c-9 0 -16 7 -16 16c0 3 0 7 3 10l109 129c6 8 13 11 20 11c24 0 50 -41 77 -69c14 -15 33 -22 52 -22c17 0 33 5 47 17l26 30c4 4 8 6 12 6c9 0 17 -7 17 -16c0 -3 -1 -7 -4 -10l-109 -129c-6 -8 -13 -11 -20 -11c-24 0 -50 41 -77 69
c-14 15 -33 22 -52 22c-17 0 -33 -5 -47 -17z" fill="currentColor"/>
<path transform="translate(69.6548, 5.6614) scale(0.0040, -0.0040)" d="M-28 42c-4 -4 -8 -6 -12 -6c-9 0 -16 7 -16 16c0 3 0 7 3 10l109 129c6 8 13 11 20 11c24 0 50 -41 77 -69c14 -15 33 -22 52 -22c17 0 33 5 47 17l26 30c4 4 8 6 12 6c9 0 17 -7 17 -16c0 -3 -1 -7 -4 -10l-109 -129c-6 -8 -13 -11 -20 -11c-24 0 -50 41 -77 69
c-14 15 -33 22 -52 22c-17 0 -33 -5 -47 -17z" fill="currentColor"/>
<path transform="translate(68.6548, 5.6614) scale(0.0040, -0.0040)" d="M-28 42c-4 -4 -8 -6 -12 -6c-9 0 -16 7 -16 16c0 3 0 7 3 10l109 129c6 8 13 11 20 11c24 0 50 -41 77 -69c14 -15 33 -22 52 -22c17 0 33 5 47 17l26 30c4 4 8 6 12 6c9 0 17 -7 17 -16c0 -3 -1 -7 -4 -10l-109 -129c-6 -8 -13 -11 -20 -11c-24 0 -50 41 -77 69
c-14 15 -33 22 -52 22c-17 0 -33 -5 -47 -17z" fill="currentColor"/>
<path transform="translate(67.6548, 5.6614) scale(0.0040, -0.0040)" d="M-28 42c-4 -4 -8 -6 -12 -6c-9 0 -16 7 -16 16c0 3 0 7 3 10l109 129c6 8 13 11 20 11c24 0 50 -41 77 -69c14 -15 33 -22 52 -22c17 0 33 5 47 17l26 30c4 4 8 6 12 6c9 0 17 -7 17 -16c0 -3 -1 -7 -4 -10l-109 -129c-6 -8 -13 -11 -20 -11c-24 0 -50 41 -77 69
c-14 15 -33 22 -52 22c-17 0 -33 -5 -47 -17z" fill="currentColor"/>
<path transform="translate(66.6548, 5.6614) scale(0.0040, -0.0040)" d="M-28 42c-4 -4 -8 -6 -12 -6c-9 0 -16 7 -16 16c0 3 0 7 3 10l109 129c6 8 13 11 20 11c24 0 50 -41 77 -69c14 -15 33 -22 52 -22c17 0 33 5 47 17l26 30c4 4 8 6 12 6c9 0 17 -7 17 -16c0 -3 -1 -7 -4 -10l-109 -129c-6 -8 -13 -11 -20 -11c-24 0 -50 41 -77 69
c-14 15 -33 22 -52 22c-17 0 -33 -5 -47 -17z" fill="currentColor"/>
<path transform="translate(65.6548, 5.6614) scale(0.0040, -0.0040)" d="M-28 42c-4 -4 -8 -6 -12 -6c-9 0 -16 7 -16 16c0 3 0 7 3 10l109 129c6 8 13 11 20 11c24 0 50 -41 77 -69c14 -15 33 -22 52 -22c17 0 33 5 47 17l26 30c4 4 8 6 12 6c9 0 17 -7 17 -16c0 -3 -1 -7 -4 -10l-109 -129c-6 -8 -13 -11 -20 -11c-24 0 -50 41 -77 69
c-14 15 -33 22 -52 22c-17 0 -33 -5 -47 -17z" fill="currentColor"/>
<path transform="translate(64.6548, 5.6614) scale(0.0040, -0.0040)" d="M-28 42c-4 -4 -8 -6 -12 -6c-9 0 -16 7 -16 16c0 3 0 7 3 10l109 129c6 8 13 11 20 11c24 0 50 -41 77 -69c14 -15 33 -22 52 -22c17 0 33 5 47 17l26 30c4 4 8 6 12 6c9 0 17 -7 17 -16c0 -3 -1 -7 -4 -10l-109 -129c-6 -8 -13 -11 -20 -11c-24 0 -50 41 -77 69
c-14 15 -33 22 -52 22c-17 0 -33 -5 -47 -17z" fill="currentColor"/>
<path transform="translate(63.6548, 5.6614) scale(0.0040, -0.0040)" d="M-28 42c-4 -4 -8 -6 -12 -6c-9 0 -16 7 -16 16c0 3 0 7 3 10l109 129c6 8 13 11 20 11c24 0 50 -41 77 -69c14 -15 33 -22 52 -22c17 0 33 5 47 17l26 30c4 4 8 6 12 6c9 0 17 -7 17 -16c0 -3 -1 -7 -4 -10l-109 -129c-6 -8 -13 -11 -20 -11c-24 0 -50 41 -77 69
c-14 15 -33 22 -52 22c-17 0 -33 -5 -47 -17z" fill="currentColor"/>
<path transform="translate(62.6548, 5.6614) scale(0.0040, -0.0040)" d="M-28 42c-4 -4 -8 -6 -12 -6c-9 0 -16 7 -16 16c0 3 0 7 3 10l109 129c6 8 13 11 20 11c24 0 50 -41 77 -69c14 -15 33 -22 52 -22c17 0 33 5 47 17l26 30c4 4 8 6 12 6c9 0 17 -7 17 -16c0 -3 -1 -7 -4 -10l-109 -129c-6 -8 -13 -11 -20 -11c-24 0 -50 41 -77 69
c-14 15 -33 22 -52 22c-17 0 -33 -5 -47 -17z" fill="currentColor"/>
</g>
<path transform="translate(61.3048, 6.2614) scale(0.0040, -0.0040)" d="M-295 228c0 -21 17 -30 38 -30c39 0 71 14 102 28l5 22c-23 17 -50 29 -81 29s-64 -15 -64 -49zM-26 104c0 -62 -47 -114 -98 -114c-39 0 -56 43 -56 90c0 14 1 28 4 41l15 75c-31 -13 -62 -24 -101 -24c-35 0 -60 17 -60 50c0 52 49 82 97 82c30 0 57 -9 81 -24l46 230
c6 -3 13 -5 20 -5c22 0 48 16 68 35l-53 -265l64 35c26 14 51 21 74 21c28 0 52 -10 63 -28c18 19 43 29 68 29c36 0 70 -22 70 -70c0 -46 -27 -91 -65 -91c-25 0 -39 22 -39 48c0 42 30 64 61 64h3c-8 14 -23 21 -38 21c-23 0 -49 -16 -54 -42l-54 -270
c-11 7 -24 11 -38 11s-30 -4 -44 -11l54 270c0 2 1 5 1 7c0 15 -13 25 -29 25c-7 0 -15 -3 -23 -7l-81 -44l-5 -29c27 -31 49 -68 49 -110zM-87 39c22 0 34 34 34 61c0 29 -13 54 -30 76l-5 -25c-4 -19 -14 -57 -14 -84c0 -16 4 -28 15 -28z" fill="currentColor"/>
<path transform="translate(62.6665, 11.3151) scale(0.0025, -0.0025)" d="M-94 0c0 -84 12 -170 60 -239c3 -4 3 -7 3 -11c0 -10 -9 -19 -19 -19c-5 0 -12 2 -16 8c-54 77 -90 167 -90 261s36 184 90 261c4 6 11 8 16 8c10 0 19 -9 19 -19c0 -4 0 -7 -3 -11c-48 -69 -60 -155 -60 -239z" fill="currentColor"/>
<path transform="translate(64.6988, 11.3151) scale(0.0025, -0.0025)" d="M94 0c0 84 -12 170 -60 239c-3 4 -3 7 -3 11c0 10 9 19 19 19c5 0 12 -2 16 -8c54 -77 90 -167 90 -261s-36 -184 -90 -261c-4 -6 -11 -8 -16 -8c-10 0 -19 9 -19 19c0 4 0 7 3 11c48 69 60 155 60 239z" fill="currentColor"/>
<rect transform="translate(74.9903, 8.8151)" x="-0.0697" y="-0.5000" width="0.1395" height="3.3206" ry="0.0444" fill="currentColor"/>
<path transform="translate(73.7572, 11.8151) scale(0.0040, -0.0040)" d="M215 137c57 0 111 -29 111 -92c0 -71 -54 -120 -101 -148c-35 -21 -74 -34 -114 -34c-57 0 -111 29 -111 92c0 71 54 120 101 148c35 21 74 34 114 34z" fill="currentColor"/>
<rect transform="translate(61.8864, 8.8151)" x="-0.0697" y="-0.5000" width="0.1395" height="3.3206" ry="0.0444" fill="currentColor"/>
<path transform="translate(62.9665, 11.3151) scale(0.0025, -0.0025)" d="M-9 375c9 5 20 8 30 8s20 -3 29 -8l-3 -207l93 27c2 1 4 0 6 0c11 0 21 -9 21 -20l9 -550c-9 -5 -20 -8 -30 -8s-21 3 -30 8l4 207l-94 -27c-2 -1 -3 0 -5 0c-11 0 -21 9 -21 20zM124 106l-78 -23l-3 -189l78 23z" fill="currentColor"/>
<path transform="translate(63.5865, 11.3151) scale(0.0025, -0.0025)" d="M199 142c66 0 123 -38 123 -108s-48 -117 -94 -145c-32 -19 -68 -31 -105 -31c-66 0 -123 38 -123 108s48 117 94 145c32 19 68 31 105 31z" fill="currentColor"/>
<path transform="translate(60.6534, 11.8151) scale(0.0040, -0.0040)" d="M215 137c57 0 111 -29 111 -92c0 -71 -54 -120 -101 -148c-35 -21 -74 -34 -114 -34c-57 0 -111 29 -111 92c0 71 54 120 101 148c35 21 74 34 114 34z" fill="currentColor"/>
<rect transform="translate(49.8864, 8.8151)" x="-0.0697" y="-0.5000" width="0.1395" height="3.3206" ry="0.0444" fill="currentColor"/>
<path transform="translate(48.6534, 11.8151) scale(0.0040, -0.0040)" d="M215 137c57 0 111 -29 111 -92c0 -71 -54 -120 -101 -148c-35 -21 -74 -34 -114 -34c-57 0 -111 29 -111 92c0 71 54 120 101 148c35 21 74 34 114 34z" fill="currentColor"/>
<rect transform="translate(25.8864, 8.8151)" x="-0.0697" y="-1.0000" width="0.1395" height="3.8206" ry="0.0444" fill="currentColor"/>
<path transform="translate(21.0600, 8.8151) scale(0.0040, -0.0040)" d="M203 301c22 15 45 30 61 51c12 15 19 34 27 51c2 4 5 6 9 6c6 0 14 -6 14 -15v-238h74c10 0 16 -8 16 -16s-6 -15 -16 -15h-74v-5c0 -49 29 -95 75 -95c8 0 12 -7 12 -13s-4 -12 -12 -12c-45 0 -90 13 -135 13s-90 -13 -135 -13c-8 0 -12 6 -12 12s4 13 12 13
c46 0 75 46 75 95v5h-163c-24 0 -33 15 -33 24c0 3 1 6 2 7c80 92 134 205 134 327c0 10 6 17 14 17h3c24 -7 48 -13 73 -13s48 6 72 13c2 1 4 1 6 1c9 0 14 -7 14 -13c0 -2 0 -3 -2 -5l-283 -327h163v122c0 9 2 18 9 23z" fill="currentColor"/>
<path transform="translate(21.0600, 10.8637) scale(0.0040, -0.0040)" d="M203 301c22 15 45 30 61 51c12 15 19 34 27 51c2 4 5 6 9 6c6 0 14 -6 14 -15v-238h74c10 0 16 -8 16 -16s-6 -15 -16 -15h-74v-5c0 -49 29 -95 75 -95c8 0 12 -7 12 -13s-4 -12 -12 -12c-45 0 -90 13 -135 13s-90 -13 -135 -13c-8 0 -12 6 -12 12s4 13 12 13
c46 0 75 46 75 95v5h-163c-24 0 -33 15 -33 24c0 3 1 6 2 7c80 92 134 205 134 327c0 10 6 17 14 17h3c24 -7 48 -13 73 -13s48 6 72 13c2 1 4 1 6 1c9 0 14 -7 14 -13c0 -2 0 -3 -2 -5l-283 -327h163v122c0 9 2 18 9 23z" fill="currentColor"/>
<path transform="translate(16.8600, 9.8151) scale(0.0040, -0.0040)" d="M378 263c4 0 7 1 11 1c156 0 257 -129 257 -262c0 -76 -34 -154 -108 -210c-22 -17 -46 -29 -72 -37c3 -34 4 -68 4 -102c0 -20 0 -40 -1 -60c-7 -121 -90 -228 -209 -228c-108 0 -196 87 -196 196c0 58 53 104 112 104c54 0 95 -48 95 -104c0 -52 -43 -95 -95 -95
c-10 0 -20 2 -29 6c26 -38 68 -63 116 -63c95 0 156 91 162 190c1 19 2 37 2 56c0 30 -2 60 -4 90c-29 -5 -58 -8 -88 -8c-188 0 -333 173 -333 375c0 177 130 307 246 442c-20 62 -38 125 -46 190c-6 52 -7 104 -7 157c0 115 55 223 148 290c3 2 7 3 11 3s8 -1 11 -4
c71 -83 134 -244 134 -357c0 -143 -85 -255 -178 -364c21 -68 40 -137 57 -206zM462 -202c67 24 111 94 111 162c0 89 -65 178 -170 190c24 -115 46 -230 59 -352zM75 26c0 -134 129 -245 263 -245c28 0 55 2 81 6c-14 126 -36 244 -61 363c-79 -8 -124 -61 -124 -119
c0 -43 25 -89 80 -121c5 -5 7 -11 7 -16c0 -12 -10 -23 -22 -23c-3 0 -6 1 -9 2c-81 43 -118 116 -118 186c0 89 58 175 161 198c-14 58 -29 116 -46 173c-106 -122 -212 -244 -212 -404zM406 1042c-99 -47 -162 -148 -162 -257c0 -73 20 -132 38 -191
c79 97 144 199 144 324c0 53 -4 76 -20 124z" fill="currentColor"/>
<path transform="translate(25.8864, 11.3151) scale(0.0040, -0.0040)" d="M215 137c57 0 111 -29 111 -92c0 -71 -54 -120 -101 -148c-35 -21 -74 -34 -114 -34c-57 0 -111 29 -111 92c0 71 54 120 101 148c35 21 74 34 114 34z" fill="currentColor"/>
<path transform="translate(24.6534, 11.8151) scale(0.0040, -0.0040)" d="M215 137c57 0 111 -29 111 -92c0 -71 -54 -120 -101 -148c-35 -21 -74 -34 -114 -34c-57 0 -111 29 -111 92c0 71 54 120 101 148c35 21 74 34 114 34z" fill="currentColor"/>
<rect transform="translate(86.9903, 8.8151)" x="-0.0697" y="-0.5000" width="0.1395" height="3.3206" ry="0.0444" fill="currentColor"/>
<path transform="translate(85.7572, 11.8151) scale(0.0040, -0.0040)" d="M215 137c57 0 111 -29 111 -92c0 -71 -54 -120 -101 -148c-35 -21 -74 -34 -114 -34c-57 0 -111 29 -111 92c0 71 54 120 101 148c35 21 74 34 114 34z" fill="currentColor"/>
<path transform="translate(97.7572, 11.8151) scale(0.0040, -0.0040)" d="M215 137c57 0 111 -29 111 -92c0 -71 -54 -120 -101 -148c-35 -21 -74 -34 -114 -34c-57 0 -111 29 -111 92c0 71 54 120 101 148c35 21 74 34 114 34z" fill="currentColor"/>
<rect transform="translate(98.9903, 8.8151)" x="-0.0697" y="-0.5000" width="0.1395" height="3.3206" ry="0.0444" fill="currentColor"/>
</svg>
