<svg xmlns="http://www.w3.org/2000/svg" xmlns:xlink="http://www.w3.org/1999/xlink" version="1.2" width="31.29mm" height="9.69mm" viewBox="0.7587 -0.0240 23.7390 7.3500">
<style text="style/css">
<![CDATA[
tspan { white-space: pre; }
]]>
</style>
<g color="rgb(49.8039%, 49.8039%, 49.8039%)">
<line transform="translate(0.7587, 5.7760)" stroke-linejoin="round" stroke-linecap="round" stroke-width="0.1219" stroke="currentColor" x1="0.0610" y1="-0.0000" x2="23.7390" y2="-0.0000"/>
<line transform="translate(0.7587, 4.7760)" stroke-linejoin="round" stroke-linecap="round" stroke-width="0.1219" stroke="currentColor" x1="0.0610" y1="-0.0000" x2="23.7390" y2="-0.0000"/>
<line transform="translate(0.7587, 3.7760)" stroke-linejoin="round" stroke-linecap="round" stroke-width="0.1219" stroke="currentColor" x1="0.0610" y1="-0.0000" x2="23.7390" y2="-0.0000"/>
<line transform="translate(0.7587, 2.7760)" stroke-linejoin="round" stroke-linecap="round" stroke-width="0.1219" stroke="currentColor" x1="0.0610" y1="-0.0000" x2="23.7390" y2="-0.0000"/>
<line transform="translate(0.7587, 1.7760)" stroke-linejoin="round" stroke-linecap="round" stroke-width="0.1219" stroke="currentColor" x1="0.0610" y1="-0.0000" x2="23.7390" y2="-0.0000"/>
</g>
<rect transform="translate(7.7803, 3.7760)" x="-0.0792" y="-1.0000" width="0.1585" height="3.3287" ry="0.0533" fill="currentColor"/>
<path transform="translate(1.5587, 4.7760) scale(0.0040, -0.0040)" d="M379 264c3 0 7 1 10 1c157 0 258 -129 258 -263c0 -77 -33 -155 -108 -211c-22 -16 -46 -29 -72 -37c3 -33 4 -66 4 -99c0 -21 0 -41 -1 -62c-7 -121 -91 -229 -211 -229c-108 0 -196 88 -196 197c0 58 54 103 113 103c54 0 95 -47 95 -103c0 -52 -43 -95 -95 -95
c-9 0 -18 1 -27 4c25 -37 66 -61 113 -61c95 0 156 93 162 191c1 19 2 38 2 57c0 29 -1 58 -3 87c-29 -5 -58 -8 -88 -8c-189 0 -333 173 -333 376c0 177 129 308 244 443c-20 62 -40 124 -48 189c-7 52 -7 105 -7 158c0 114 54 221 147 288c4 3 8 4 12 4c5 0 9 -2 13 -5
c72 -83 135 -243 135 -356c0 -142 -84 -255 -176 -364c21 -68 40 -136 57 -205zM463 -201c65 24 110 94 110 161c0 88 -64 175 -167 188c24 -114 44 -227 57 -349zM77 25c0 -133 128 -243 261 -243c27 0 55 1 81 5c-13 126 -35 244 -60 362c-79 -8 -124 -60 -124 -118
c0 -43 25 -88 80 -120c5 -5 7 -11 7 -17c0 -12 -10 -23 -23 -23c-3 0 -7 1 -10 2c-81 43 -118 115 -118 186c0 89 60 177 163 200c-14 57 -30 113 -47 169c-105 -122 -210 -243 -210 -403zM403 1038c-99 -46 -161 -145 -161 -254c0 -71 21 -130 39 -188
c78 97 142 199 142 324c0 51 -4 72 -20 118z" fill="currentColor"/>
<path transform="translate(6.5587, 6.2760) scale(0.0040, -0.0040)" d="M212 138c59 0 113 -31 113 -95c0 -71 -52 -120 -99 -148c-34 -21 -73 -33 -113 -33c-59 0 -113 31 -113 95c0 71 53 120 100 148c34 21 72 33 112 33z" fill="currentColor"/>
<path transform="translate(5.4511, 6.2760) scale(0.0040, -0.0040)" d="M134 37c-1 33 -19 65 -50 65c-28 0 -42 -33 -42 -65c0 -57 46 -99 89 -137c3 21 5 42 5 64v11zM181 -140c0 -16 -11 -29 -26 -29c-24 0 -32 29 -49 44c-58 52 -141 91 -141 169c0 54 34 104 84 104c35 0 69 -14 94 -38l-8 340c9 5 20 8 30 8s21 -3 30 -8z" fill="currentColor"/>
</svg>
