<svg xmlns="http://www.w3.org/2000/svg" xmlns:xlink="http://www.w3.org/1999/xlink" version="1.2" width="210.00mm" height="297.00mm" viewBox="0 0 132.7795 187.7882">
<style text="style/css">
<![CDATA[
tspan { white-space: pre; }
]]>
</style>
<!-- Page: 1/1 -->
<g color="rgb(49.8039%, 49.8039%, 49.8039%)">
<line transform="translate(16.0600, 19.6132)" stroke-linejoin="round" stroke-linecap="round" stroke-width="0.1073" stroke="currentColor" x1="0.0537" y1="-0.0000" x2="56.5397" y2="-0.0000"/>
<line transform="translate(16.0600, 18.6132)" stroke-linejoin="round" stroke-linecap="round" stroke-width="0.1073" stroke="currentColor" x1="0.0537" y1="-0.0000" x2="56.5397" y2="-0.0000"/>
<line transform="translate(16.0600, 17.6132)" stroke-linejoin="round" stroke-linecap="round" stroke-width="0.1073" stroke="currentColor" x1="0.0537" y1="-0.0000" x2="56.5397" y2="-0.0000"/>
<line transform="translate(16.0600, 16.6132)" stroke-linejoin="round" stroke-linecap="round" stroke-width="0.1073" stroke="currentColor" x1="0.0537" y1="-0.0000" x2="56.5397" y2="-0.0000"/>
<line transform="translate(16.0600, 15.6132)" stroke-linejoin="round" stroke-linecap="round" stroke-width="0.1073" stroke="currentColor" x1="0.0537" y1="-0.0000" x2="56.5397" y2="-0.0000"/>
</g>
<rect transform="translate(72.4495, 17.6132)" x="0.0000" y="-2.0537" width="0.2039" height="4.1073" ry="0.0000" fill="currentColor"/>
<g transform="rotate(-0.0000, 26.0876, 13.1595)">
<path transform="translate(34.0876, 13.5595) scale(0.0040, -0.0040)" d="M-28 42c-4 -4 -8 -6 -12 -6c-9 0 -16 7 -16 16c0 3 0 7 3 10l109 129c6 8 13 11 20 11c24 0 50 -41 77 -69c14 -15 33 -22 52 -22c17 0 33 5 47 17l26 30c4 4 8 6 12 6c9 0 17 -7 17 -16c0 -3 -1 -7 -4 -10l-109 -129c-6 -8 -13 -11 -20 -11c-24 0 -50 41 -77 69
c-14 15 -33 22 -52 22c-17 0 -33 -5 -47 -17z" fill="currentColor"/>
<path transform="translate(33.0876, 13.5595) scale(0.0040, -0.0040)" d="M-28 42c-4 -4 -8 -6 -12 -6c-9 0 -16 7 -16 16c0 3 0 7 3 10l109 129c6 8 13 11 20 11c24 0 50 -41 77 -69c14 -15 33 -22 52 -22c17 0 33 5 47 17l26 30c4 4 8 6 12 6c9 0 17 -7 17 -16c0 -3 -1 -7 -4 -10l-109 -129c-6 -8 -13 -11 -20 -11c-24 0 -50 41 -77 69
c-14 15 -33 22 -52 22c-17 0 -33 -5 -47 -17z" fill="currentColor"/>
<path transform="translate(32.0876, 13.5595) scale(0.0040, -0.0040)" d="M-28 42c-4 -4 -8 -6 -12 -6c-9 0 -16 7 -16 16c0 3 0 7 3 10l109 129c6 8 13 11 20 11c24 0 50 -41 77 -69c14 -15 33 -22 52 -22c17 0 33 5 47 17l26 30c4 4 8 6 12 6c9 0 17 -7 17 -16c0 -3 -1 -7 -4 -10l-109 -129c-6 -8 -13 -11 -20 -11c-24 0 -50 41 -77 69
c-14 15 -33 22 -52 22c-17 0 -33 -5 -47 -17z" fill="currentColor"/>
<path transform="translate(31.0876, 13.5595) scale(0.0040, -0.0040)" d="M-28 42c-4 -4 -8 -6 -12 -6c-9 0 -16 7 -16 16c0 3 0 7 3 10l109 129c6 8 13 11 20 11c24 0 50 -41 77 -69c14 -15 33 -22 52 -22c17 0 33 5 47 17l26 30c4 4 8 6 12 6c9 0 17 -7 17 -16c0 -3 -1 -7 -4 -10l-109 -129c-6 -8 -13 -11 -20 -11c-24 0 -50 41 -77 69
c-14 15 -33 22 -52 22c-17 0 -33 -5 -47 -17z" fill="currentColor"/>
<path transform="translate(30.0876, 13.5595) scale(0.0040, -0.0040)" d="M-28 42c-4 -4 -8 -6 -12 -6c-9 0 -16 7 -16 16c0 3 0 7 3 10l109 129c6 8 13 11 20 11c24 0 50 -41 77 -69c14 -15 33 -22 52 -22c17 0 33 5 47 17l26 30c4 4 8 6 12 6c9 0 17 -7 17 -16c0 -3 -1 -7 -4 -10l-109 -129c-6 -8 -13 -11 -20 -11c-24 0 -50 41 -77 69
c-14 15 -33 22 -52 22c-17 0 -33 -5 -47 -17z" fill="currentColor"/>
<path transform="translate(29.0876, 13.5595) scale(0.0040, -0.0040)" d="M-28 42c-4 -4 -8 -6 -12 -6c-9 0 -16 7 -16 16c0 3 0 7 3 10l109 129c6 8 13 11 20 11c24 0 50 -41 77 -69c14 -15 33 -22 52 -22c17 0 33 5 47 17l26 30c4 4 8 6 12 6c9 0 17 -7 17 -16c0 -3 -1 -7 -4 -10l-109 -129c-6 -8 -13 -11 -20 -11c-24 0 -50 41 -77 69
c-14 15 -33 22 -52 22c-17 0 -33 -5 -47 -17z" fill="currentColor"/>
<path transform="translate(28.0876, 13.5595) scale(0.0040, -0.0040)" d="M-28 42c-4 -4 -8 -6 -12 -6c-9 0 -16 7 -16 16c0 3 0 7 3 10l109 129c6 8 13 11 20 11c24 0 50 -41 77 -69c14 -15 33 -22 52 -22c17 0 33 5 47 17l26 30c4 4 8 6 12 6c9 0 17 -7 17 -16c0 -3 -1 -7 -4 -10l-109 -129c-6 -8 -13 -11 -20 -11c-24 0 -50 41 -77 69
c-14 15 -33 22 -52 22c-17 0 -33 -5 -47 -17z" fill="currentColor"/>
<path transform="translate(27.0876, 13.5595) scale(0.0040, -0.0040)" d="M-28 42c-4 -4 -8 -6 -12 -6c-9 0 -16 7 -16 16c0 3 0 7 3 10l109 129c6 8 13 11 20 11c24 0 50 -41 77 -69c14 -15 33 -22 52 -22c17 0 33 5 47 17l26 30c4 4 8 6 12 6c9 0 17 -7 17 -16c0 -3 -1 -7 -4 -10l-109 -129c-6 -8 -13 -11 -20 -11c-24 0 -50 41 -77 69
c-14 15 -33 22 -52 22c-17 0 -33 -5 -47 -17z" fill="currentColor"/>
<path transform="translate(26.0876, 13.5595) scale(0.0040, -0.0040)" d="M-28 42c-4 -4 -8 -6 -12 -6c-9 0 -16 7 -16 16c0 3 0 7 3 10l109 129c6 8 13 11 20 11c24 0 50 -41 77 -69c14 -15 33 -22 52 -22c17 0 33 5 47 17l26 30c4 4 8 6 12 6c9 0 17 -7 17 -16c0 -3 -1 -7 -4 -10l-109 -129c-6 -8 -13 -11 -20 -11c-24 0 -50 41 -77 69
c-14 15 -33 22 -52 22c-17 0 -33 -5 -47 -17z" fill="currentColor"/>
</g>
<path transform="translate(25.3048, 13.1595) scale(0.0028, -0.0028)" d="M18 123c50 -11 82 -65 82 -123s-32 -112 -82 -123v-65c0 -10 -8 -18 -18 -18s-18 8 -18 18v65c-50 11 -82 65 -82 123s32 112 82 123v65c0 10 8 18 18 18s18 -8 18 -18v-65zM18 -85c25 12 36 49 36 85s-11 73 -36 85v-170zM-18 -85v170c-25 -12 -36 -49 -36 -85
s11 -73 36 -85z" fill="currentColor"/>
<path transform="translate(36.6534, 17.1132) scale(0.0040, -0.0040)" d="M215 137c57 0 111 -29 111 -92c0 -71 -54 -120 -101 -148c-35 -21 -74 -34 -114 -34c-57 0 -111 29 -111 92c0 71 54 120 101 148c35 21 74 34 114 34z" fill="currentColor"/>
<rect transform="translate(36.7231, 17.6132)" x="-0.0697" y="-0.3206" width="0.1395" height="3.3206" ry="0.0444" fill="currentColor"/>
<path transform="translate(48.6534, 17.1132) scale(0.0040, -0.0040)" d="M215 137c57 0 111 -29 111 -92c0 -71 -54 -120 -101 -148c-35 -21 -74 -34 -114 -34c-57 0 -111 29 -111 92c0 71 54 120 101 148c35 21 74 34 114 34z" fill="currentColor"/>
<rect transform="translate(48.7231, 17.6132)" x="-0.0697" y="-0.3206" width="0.1395" height="3.3206" ry="0.0444" fill="currentColor"/>
<path transform="translate(60.6534, 17.1132) scale(0.0040, -0.0040)" d="M215 137c57 0 111 -29 111 -92c0 -71 -54 -120 -101 -148c-35 -21 -74 -34 -114 -34c-57 0 -111 29 -111 92c0 71 54 120 101 148c35 21 74 34 114 34z" fill="currentColor"/>
<rect transform="translate(60.7231, 17.6132)" x="-0.0697" y="-0.3206" width="0.1395" height="3.3206" ry="0.0444" fill="currentColor"/>
<g transform="rotate(-0.0000, 50.0876, 13.1595)">
<path transform="translate(58.0876, 13.5595) scale(0.0040, -0.0040)" d="M-28 42c-4 -4 -8 -6 -12 -6c-9 0 -16 7 -16 16c0 3 0 7 3 10l109 129c6 8 13 11 20 11c24 0 50 -41 77 -69c14 -15 33 -22 52 -22c17 0 33 5 47 17l26 30c4 4 8 6 12 6c9 0 17 -7 17 -16c0 -3 -1 -7 -4 -10l-109 -129c-6 -8 -13 -11 -20 -11c-24 0 -50 41 -77 69
c-14 15 -33 22 -52 22c-17 0 -33 -5 -47 -17z" fill="currentColor"/>
<path transform="translate(57.0876, 13.5595) scale(0.0040, -0.0040)" d="M-28 42c-4 -4 -8 -6 -12 -6c-9 0 -16 7 -16 16c0 3 0 7 3 10l109 129c6 8 13 11 20 11c24 0 50 -41 77 -69c14 -15 33 -22 52 -22c17 0 33 5 47 17l26 30c4 4 8 6 12 6c9 0 17 -7 17 -16c0 -3 -1 -7 -4 -10l-109 -129c-6 -8 -13 -11 -20 -11c-24 0 -50 41 -77 69
c-14 15 -33 22 -52 22c-17 0 -33 -5 -47 -17z" fill="currentColor"/>
<path transform="translate(56.0876, 13.5595) scale(0.0040, -0.0040)" d="M-28 42c-4 -4 -8 -6 -12 -6c-9 0 -16 7 -16 16c0 3 0 7 3 10l109 129c6 8 13 11 20 11c24 0 50 -41 77 -69c14 -15 33 -22 52 -22c17 0 33 5 47 17l26 30c4 4 8 6 12 6c9 0 17 -7 17 -16c0 -3 -1 -7 -4 -10l-109 -129c-6 -8 -13 -11 -20 -11c-24 0 -50 41 -77 69
c-14 15 -33 22 -52 22c-17 0 -33 -5 -47 -17z" fill="currentColor"/>
<path transform="translate(55.0876, 13.5595) scale(0.0040, -0.0040)" d="M-28 42c-4 -4 -8 -6 -12 -6c-9 0 -16 7 -16 16c0 3 0 7 3 10l109 129c6 8 13 11 20 11c24 0 50 -41 77 -69c14 -15 33 -22 52 -22c17 0 33 5 47 17l26 30c4 4 8 6 12 6c9 0 17 -7 17 -16c0 -3 -1 -7 -4 -10l-109 -129c-6 -8 -13 -11 -20 -11c-24 0 -50 41 -77 69
c-14 15 -33 22 -52 22c-17 0 -33 -5 -47 -17z" fill="currentColor"/>
<path transform="translate(54.0876, 13.5595) scale(0.0040, -0.0040)" d="M-28 42c-4 -4 -8 -6 -12 -6c-9 0 -16 7 -16 16c0 3 0 7 3 10l109 129c6 8 13 11 20 11c24 0 50 -41 77 -69c14 -15 33 -22 52 -22c17 0 33 5 47 17l26 30c4 4 8 6 12 6c9 0 17 -7 17 -16c0 -3 -1 -7 -4 -10l-109 -129c-6 -8 -13 -11 -20 -11c-24 0 -50 41 -77 69
c-14 15 -33 22 -52 22c-17 0 -33 -5 -47 -17z" fill="currentColor"/>
<path transform="translate(53.0876, 13.5595) scale(0.0040, -0.0040)" d="M-28 42c-4 -4 -8 -6 -12 -6c-9 0 -16 7 -16 16c0 3 0 7 3 10l109 129c6 8 13 11 20 11c24 0 50 -41 77 -69c14 -15 33 -22 52 -22c17 0 33 5 47 17l26 30c4 4 8 6 12 6c9 0 17 -7 17 -16c0 -3 -1 -7 -4 -10l-109 -129c-6 -8 -13 -11 -20 -11c-24 0 -50 41 -77 69
c-14 15 -33 22 -52 22c-17 0 -33 -5 -47 -17z" fill="currentColor"/>
<path transform="translate(52.0876, 13.5595) scale(0.0040, -0.0040)" d="M-28 42c-4 -4 -8 -6 -12 -6c-9 0 -16 7 -16 16c0 3 0 7 3 10l109 129c6 8 13 11 20 11c24 0 50 -41 77 -69c14 -15 33 -22 52 -22c17 0 33 5 47 17l26 30c4 4 8 6 12 6c9 0 17 -7 17 -16c0 -3 -1 -7 -4 -10l-109 -129c-6 -8 -13 -11 -20 -11c-24 0 -50 41 -77 69
c-14 15 -33 22 -52 22c-17 0 -33 -5 -47 -17z" fill="currentColor"/>
<path transform="translate(51.0876, 13.5595) scale(0.0040, -0.0040)" d="M-28 42c-4 -4 -8 -6 -12 -6c-9 0 -16 7 -16 16c0 3 0 7 3 10l109 129c6 8 13 11 20 11c24 0 50 -41 77 -69c14 -15 33 -22 52 -22c17 0 33 5 47 17l26 30c4 4 8 6 12 6c9 0 17 -7 17 -16c0 -3 -1 -7 -4 -10l-109 -129c-6 -8 -13 -11 -20 -11c-24 0 -50 41 -77 69
c-14 15 -33 22 -52 22c-17 0 -33 -5 -47 -17z" fill="currentColor"/>
<path transform="translate(50.0876, 13.5595) scale(0.0040, -0.0040)" d="M-28 42c-4 -4 -8 -6 -12 -6c-9 0 -16 7 -16 16c0 3 0 7 3 10l109 129c6 8 13 11 20 11c24 0 50 -41 77 -69c14 -15 33 -22 52 -22c17 0 33 5 47 17l26 30c4 4 8 6 12 6c9 0 17 -7 17 -16c0 -3 -1 -7 -4 -10l-109 -129c-6 -8 -13 -11 -20 -11c-24 0 -50 41 -77 69
c-14 15 -33 22 -52 22c-17 0 -33 -5 -47 -17z" fill="currentColor"/>
</g>
<path transform="translate(49.3048, 13.1595) scale(0.0028, -0.0028)" d="M18 123c50 -11 82 -65 82 -123s-32 -112 -82 -123v-65c0 -10 -8 -18 -18 -18s-18 8 -18 18v65c-50 11 -82 65 -82 123s32 112 82 123v65c0 10 8 18 18 18s18 -8 18 -18v-65zM18 -85c25 12 36 49 36 85s-11 73 -36 85v-170zM-18 -85v170c-25 -12 -36 -49 -36 -85
s11 -73 36 -85z" fill="currentColor"/>
<g transform="rotate(-0.0000, 38.5748, 9.8414)">
<path transform="translate(45.5748, 10.2414) scale(0.0040, -0.0040)" d="M-28 42c-4 -4 -8 -6 -12 -6c-9 0 -16 7 -16 16c0 3 0 7 3 10l109 129c6 8 13 11 20 11c24 0 50 -41 77 -69c14 -15 33 -22 52 -22c17 0 33 5 47 17l26 30c4 4 8 6 12 6c9 0 17 -7 17 -16c0 -3 -1 -7 -4 -10l-109 -129c-6 -8 -13 -11 -20 -11c-24 0 -50 41 -77 69
c-14 15 -33 22 -52 22c-17 0 -33 -5 -47 -17z" fill="currentColor"/>
<path transform="translate(44.5748, 10.2414) scale(0.0040, -0.0040)" d="M-28 42c-4 -4 -8 -6 -12 -6c-9 0 -16 7 -16 16c0 3 0 7 3 10l109 129c6 8 13 11 20 11c24 0 50 -41 77 -69c14 -15 33 -22 52 -22c17 0 33 5 47 17l26 30c4 4 8 6 12 6c9 0 17 -7 17 -16c0 -3 -1 -7 -4 -10l-109 -129c-6 -8 -13 -11 -20 -11c-24 0 -50 41 -77 69
c-14 15 -33 22 -52 22c-17 0 -33 -5 -47 -17z" fill="currentColor"/>
<path transform="translate(43.5748, 10.2414) scale(0.0040, -0.0040)" d="M-28 42c-4 -4 -8 -6 -12 -6c-9 0 -16 7 -16 16c0 3 0 7 3 10l109 129c6 8 13 11 20 11c24 0 50 -41 77 -69c14 -15 33 -22 52 -22c17 0 33 5 47 17l26 30c4 4 8 6 12 6c9 0 17 -7 17 -16c0 -3 -1 -7 -4 -10l-109 -129c-6 -8 -13 -11 -20 -11c-24 0 -50 41 -77 69
c-14 15 -33 22 -52 22c-17 0 -33 -5 -47 -17z" fill="currentColor"/>
<path transform="translate(42.5748, 10.2414) scale(0.0040, -0.0040)" d="M-28 42c-4 -4 -8 -6 -12 -6c-9 0 -16 7 -16 16c0 3 0 7 3 10l109 129c6 8 13 11 20 11c24 0 50 -41 77 -69c14 -15 33 -22 52 -22c17 0 33 5 47 17l26 30c4 4 8 6 12 6c9 0 17 -7 17 -16c0 -3 -1 -7 -4 -10l-109 -129c-6 -8 -13 -11 -20 -11c-24 0 -50 41 -77 69
c-14 15 -33 22 -52 22c-17 0 -33 -5 -47 -17z" fill="currentColor"/>
<path transform="translate(41.5748, 10.2414) scale(0.0040, -0.0040)" d="M-28 42c-4 -4 -8 -6 -12 -6c-9 0 -16 7 -16 16c0 3 0 7 3 10l109 129c6 8 13 11 20 11c24 0 50 -41 77 -69c14 -15 33 -22 52 -22c17 0 33 5 47 17l26 30c4 4 8 6 12 6c9 0 17 -7 17 -16c0 -3 -1 -7 -4 -10l-109 -129c-6 -8 -13 -11 -20 -11c-24 0 -50 41 -77 69
c-14 15 -33 22 -52 22c-17 0 -33 -5 -47 -17z" fill="currentColor"/>
<path transform="translate(40.5748, 10.2414) scale(0.0040, -0.0040)" d="M-28 42c-4 -4 -8 -6 -12 -6c-9 0 -16 7 -16 16c0 3 0 7 3 10l109 129c6 8 13 11 20 11c24 0 50 -41 77 -69c14 -15 33 -22 52 -22c17 0 33 5 47 17l26 30c4 4 8 6 12 6c9 0 17 -7 17 -16c0 -3 -1 -7 -4 -10l-109 -129c-6 -8 -13 -11 -20 -11c-24 0 -50 41 -77 69
c-14 15 -33 22 -52 22c-17 0 -33 -5 -47 -17z" fill="currentColor"/>
<path transform="translate(39.5748, 10.2414) scale(0.0040, -0.0040)" d="M-28 42c-4 -4 -8 -6 -12 -6c-9 0 -16 7 -16 16c0 3 0 7 3 10l109 129c6 8 13 11 20 11c24 0 50 -41 77 -69c14 -15 33 -22 52 -22c17 0 33 5 47 17l26 30c4 4 8 6 12 6c9 0 17 -7 17 -16c0 -3 -1 -7 -4 -10l-109 -129c-6 -8 -13 -11 -20 -11c-24 0 -50 41 -77 69
c-14 15 -33 22 -52 22c-17 0 -33 -5 -47 -17z" fill="currentColor"/>
<path transform="translate(38.5748, 10.2414) scale(0.0040, -0.0040)" d="M-28 42c-4 -4 -8 -6 -12 -6c-9 0 -16 7 -16 16c0 3 0 7 3 10l109 129c6 8 13 11 20 11c24 0 50 -41 77 -69c14 -15 33 -22 52 -22c17 0 33 5 47 17l26 30c4 4 8 6 12 6c9 0 17 -7 17 -16c0 -3 -1 -7 -4 -10l-109 -129c-6 -8 -13 -11 -20 -11c-24 0 -50 41 -77 69
c-14 15 -33 22 -52 22c-17 0 -33 -5 -47 -17z" fill="currentColor"/>
</g>
<line transform="translate(37.3048, 8.5914)" stroke-linejoin="round" stroke-linecap="round" stroke-width="0.2000" stroke="currentColor" x1="-0.3200" y1="0" x2="0.3200" y2="0"/>
<ellipse transform="translate(37.3048, 5.8414)" stroke-linejoin="round" stroke-linecap="round" fill="currentColor" stroke="currentColor" stroke-width="0.1000" rx="0.4000" ry="0.4000"/>
<ellipse transform="translate(37.3048, 6.8414)" stroke-linejoin="round" stroke-linecap="round" fill="currentColor" stroke="currentColor" stroke-width="0.1000" rx="0.4000" ry="0.4000"/>
<ellipse transform="translate(37.3048, 7.8414)" stroke-linejoin="round" stroke-linecap="round" fill="currentColor" stroke="currentColor" stroke-width="0.1000" rx="0.4000" ry="0.4000"/>
<ellipse transform="translate(37.3048, 9.3414)" stroke-linejoin="round" stroke-linecap="round" fill="currentColor" stroke="currentColor" stroke-width="0.1000" rx="0.4000" ry="0.4000"/>
<ellipse transform="translate(37.3048, 10.3414)" stroke-linejoin="round" stroke-linecap="round" fill="currentColor" stroke="currentColor" stroke-width="0.1000" rx="0.4000" ry="0.4000"/>
<ellipse transform="translate(37.3048, 11.3414)" stroke-linejoin="round" stroke-linecap="round" fill="currentColor" stroke="currentColor" stroke-width="0.1000" rx="0.4000" ry="0.4000"/>
<path transform="translate(36.9048, 5.1214)" stroke-width="0.1000" stroke-linejoin="round" stroke-linecap="round" stroke="currentColor" fill="currentColor" d="M0 0L0 -0.6760C0 -0.8450 -0.1000 -0.9100 -0.2000 -0.9100C-0.4400 -0.9100 -0.4400 -0.4940 -0.2000 -0.3640C0 -0.2080 0 -0.0650 0 0"/>
<path transform="translate(36.7048, 5.8414)" stroke-width="0.1000" stroke-linejoin="round" stroke-linecap="round" stroke="currentColor" fill="currentColor" d="M0 0L0 -0.8060C0 -1.0075 -0.1000 -1.0850 -0.2000 -1.0850C-0.4400 -1.0850 -0.4400 -0.5890 -0.2000 -0.4340C0 -0.2480 0 -0.0775 0 0"/>
<g transform="rotate(-0.0000, 37.8648, 8.1586)">
<path transform="translate(37.7048, 8.3414)" stroke-width="0.1000" stroke-linejoin="round" stroke-linecap="round" stroke="currentColor" fill="currentColor" d="M0 0C0.0400 -0.0400 0.0800 -0.1600 0.1200 -0.2400C0.1200 -0.4000 0.3200 -0.4000 0.3200 -0.2800C0.3200 -0.1200 0.2000 -0.1200 0 0"/>
</g>
<g transform="rotate(-200.0000, 36.7648, 9.1086)">
<path transform="translate(36.6048, 9.2914)" stroke-width="0.1000" stroke-linejoin="round" stroke-linecap="round" stroke="currentColor" fill="currentColor" d="M0 0C0.0400 -0.0400 0.0800 -0.1600 0.1200 -0.2400C0.1200 -0.4000 0.3200 -0.4000 0.3200 -0.2800C0.3200 -0.1200 0.2000 -0.1200 0 0"/>
</g>
<ellipse transform="translate(36.9048, 9.8414)" stroke-linejoin="round" stroke-linecap="round" fill="currentColor" stroke="currentColor" stroke-width="0.1000" rx="0.3000" ry="0.0800"/>
<ellipse transform="translate(36.9048, 10.8414)" stroke-linejoin="round" stroke-linecap="round" fill="currentColor" stroke="currentColor" stroke-width="0.1000" rx="0.3000" ry="0.0800"/>
<path transform="translate(37.9048, 12.4214)" stroke-width="0.1000" stroke-linejoin="round" stroke-linecap="round" stroke="currentColor" fill="currentColor" d="M0 0L-0.7616 0C-1.0472 0 -1.0472 -0.4200 -0.6664 -0.4200L-0.4760 -0.4200C-0.1428 -0.4200 -0.0952 -0.1120 0 0"/>
<path transform="translate(37.3048, 12.9414)" stroke-width="0.1000" stroke-linejoin="round" stroke-linecap="round" stroke="currentColor" fill="currentColor" d="M0 0L0 -0.4200C-0.4480 -0.4200 -0.4480 0 0 0"/>
<path transform="translate(37.4248, 12.9414)" stroke-width="0.1000" stroke-linejoin="round" stroke-linecap="round" stroke="currentColor" fill="currentColor" d="M0 0L0 -0.4200L0.2240 -0.4200L0.2240 0L0 0"/>
<g transform="rotate(-160.0000, 37.5606, 13.1974)">
<path transform="translate(37.3048, 13.4214)" stroke-width="0.1000" stroke-linejoin="round" stroke-linecap="round" stroke="currentColor" fill="currentColor" d="M0 0C0.0560 -0.0560 0.2240 -0.1120 0.3360 -0.1680C0.5600 -0.1680 0.5600 -0.4480 0.3920 -0.4480C0.1680 -0.4480 0.1680 -0.2800 0 0"/>
</g>
<path transform="translate(24.6534, 17.1132) scale(0.0040, -0.0040)" d="M215 137c57 0 111 -29 111 -92c0 -71 -54 -120 -101 -148c-35 -21 -74 -34 -114 -34c-57 0 -111 29 -111 92c0 71 54 120 101 148c35 21 74 34 114 34z" fill="currentColor"/>
<path transform="translate(16.8600, 18.6132) scale(0.0040, -0.0040)" d="M378 263c4 0 7 1 11 1c156 0 257 -129 257 -262c0 -76 -34 -154 -108 -210c-22 -17 -46 -29 -72 -37c3 -34 4 -68 4 -102c0 -20 0 -40 -1 -60c-7 -121 -90 -228 -209 -228c-108 0 -196 87 -196 196c0 58 53 104 112 104c54 0 95 -48 95 -104c0 -52 -43 -95 -95 -95
c-10 0 -20 2 -29 6c26 -38 68 -63 116 -63c95 0 156 91 162 190c1 19 2 37 2 56c0 30 -2 60 -4 90c-29 -5 -58 -8 -88 -8c-188 0 -333 173 -333 375c0 177 130 307 246 442c-20 62 -38 125 -46 190c-6 52 -7 104 -7 157c0 115 55 223 148 290c3 2 7 3 11 3s8 -1 11 -4
c71 -83 134 -244 134 -357c0 -143 -85 -255 -178 -364c21 -68 40 -137 57 -206zM462 -202c67 24 111 94 111 162c0 89 -65 178 -170 190c24 -115 46 -230 59 -352zM75 26c0 -134 129 -245 263 -245c28 0 55 2 81 6c-14 126 -36 244 -61 363c-79 -8 -124 -61 -124 -119
c0 -43 25 -89 80 -121c5 -5 7 -11 7 -16c0 -12 -10 -23 -22 -23c-3 0 -6 1 -9 2c-81 43 -118 116 -118 186c0 89 58 175 161 198c-14 58 -29 116 -46 173c-106 -122 -212 -244 -212 -404zM406 1042c-99 -47 -162 -148 -162 -257c0 -73 20 -132 38 -191
c79 97 144 199 144 324c0 53 -4 76 -20 124z" fill="currentColor"/>
<path transform="translate(21.0600, 17.6132) scale(0.0040, -0.0040)" d="M203 301c22 15 45 30 61 51c12 15 19 34 27 51c2 4 5 6 9 6c6 0 14 -6 14 -15v-238h74c10 0 16 -8 16 -16s-6 -15 -16 -15h-74v-5c0 -49 29 -95 75 -95c8 0 12 -7 12 -13s-4 -12 -12 -12c-45 0 -90 13 -135 13s-90 -13 -135 -13c-8 0 -12 6 -12 12s4 13 12 13
c46 0 75 46 75 95v5h-163c-24 0 -33 15 -33 24c0 3 1 6 2 7c80 92 134 205 134 327c0 10 6 17 14 17h3c24 -7 48 -13 73 -13s48 6 72 13c2 1 4 1 6 1c9 0 14 -7 14 -13c0 -2 0 -3 -2 -5l-283 -327h163v122c0 9 2 18 9 23z" fill="currentColor"/>
<path transform="translate(21.0600, 19.6618) scale(0.0040, -0.0040)" d="M203 301c22 15 45 30 61 51c12 15 19 34 27 51c2 4 5 6 9 6c6 0 14 -6 14 -15v-238h74c10 0 16 -8 16 -16s-6 -15 -16 -15h-74v-5c0 -49 29 -95 75 -95c8 0 12 -7 12 -13s-4 -12 -12 -12c-45 0 -90 13 -135 13s-90 -13 -135 -13c-8 0 -12 6 -12 12s4 13 12 13
c46 0 75 46 75 95v5h-163c-24 0 -33 15 -33 24c0 3 1 6 2 7c80 92 134 205 134 327c0 10 6 17 14 17h3c24 -7 48 -13 73 -13s48 6 72 13c2 1 4 1 6 1c9 0 14 -7 14 -13c0 -2 0 -3 -2 -5l-283 -327h163v122c0 9 2 18 9 23z" fill="currentColor"/>
<rect transform="translate(24.7231, 17.6132)" x="-0.0697" y="-0.3206" width="0.1395" height="3.3206" ry="0.0444" fill="currentColor"/>
</svg>
