<svg xmlns="http://www.w3.org/2000/svg" xmlns:xlink="http://www.w3.org/1999/xlink" version="1.2" width="210.00mm" height="297.00mm" viewBox="0 0 132.7795 187.7882">
<style text="style/css">
<![CDATA[
tspan { white-space: pre; }
]]>
</style>
<!-- Page: 1/1 -->
<g color="rgb(49.8039%, 49.8039%, 49.8039%)">
<line transform="translate(16.0600, 10.3979)" stroke-linejoin="round" stroke-linecap="round" stroke-width="0.1073" stroke="currentColor" x1="0.0537" y1="-0.0000" x2="108.0978" y2="-0.0000"/>
<line transform="translate(16.0600, 9.3979)" stroke-linejoin="round" stroke-linecap="round" stroke-width="0.1073" stroke="currentColor" x1="0.0537" y1="-0.0000" x2="108.0978" y2="-0.0000"/>
<line transform="translate(16.0600, 8.3979)" stroke-linejoin="round" stroke-linecap="round" stroke-width="0.1073" stroke="currentColor" x1="0.0537" y1="-0.0000" x2="108.0978" y2="-0.0000"/>
<line transform="translate(16.0600, 7.3979)" stroke-linejoin="round" stroke-linecap="round" stroke-width="0.1073" stroke="currentColor" x1="0.0537" y1="-0.0000" x2="108.0978" y2="-0.0000"/>
<line transform="translate(16.0600, 6.3979)" stroke-linejoin="round" stroke-linecap="round" stroke-width="0.1073" stroke="currentColor" x1="0.0537" y1="-0.0000" x2="108.0978" y2="-0.0000"/>
</g>
<rect transform="translate(124.0076, 8.3979)" x="0.0000" y="-2.0537" width="0.2039" height="4.1073" ry="0.0000" fill="currentColor"/>
<rect transform="translate(74.6076, 8.3979)" x="0.0000" y="-2.0537" width="0.2039" height="4.1073" ry="0.0000" fill="currentColor"/>
<rect transform="translate(16.0600, 11.3979)" x="95.8257" y="-0.1037" width="1.9542" height="0.2073" ry="0.1037" fill="currentColor"/>
<rect transform="translate(16.0600, 11.3979)" x="91.3257" y="-0.1037" width="1.9542" height="0.2073" ry="0.1037" fill="currentColor"/>
<rect transform="translate(16.0600, 11.3979)" x="83.3257" y="-0.1037" width="1.9542" height="0.2073" ry="0.1037" fill="currentColor"/>
<rect transform="translate(16.0600, 11.3979)" x="59.3063" y="-0.1037" width="2.0709" height="0.2073" ry="0.1037" fill="currentColor"/>
<rect transform="translate(16.0600, 11.3979)" x="55.2219" y="-0.1037" width="1.9542" height="0.2073" ry="0.1037" fill="currentColor"/>
<rect transform="translate(16.0600, 11.3979)" x="50.7490" y="-0.1037" width="1.9271" height="0.2073" ry="0.1037" fill="currentColor"/>
<rect transform="translate(16.0600, 11.3979)" x="48.7219" y="-0.1037" width="1.9271" height="0.2073" ry="0.1037" fill="currentColor"/>
<rect transform="translate(16.0600, 11.3979)" x="45.7219" y="-0.1037" width="1.9542" height="0.2073" ry="0.1037" fill="currentColor"/>
<rect transform="translate(16.0600, 11.3979)" x="39.7719" y="-0.1037" width="1.9042" height="0.2073" ry="0.1037" fill="currentColor"/>
<rect transform="translate(16.0600, 11.3979)" x="37.7948" y="-0.1037" width="1.8771" height="0.2073" ry="0.1037" fill="currentColor"/>
<rect transform="translate(16.0600, 11.3979)" x="35.7677" y="-0.1037" width="1.9271" height="0.2073" ry="0.1037" fill="currentColor"/>
<rect transform="translate(16.0600, 11.3979)" x="32.7677" y="-0.1037" width="1.9542" height="0.2073" ry="0.1037" fill="currentColor"/>
<rect transform="translate(16.0600, 11.3979)" x="26.7677" y="-0.1037" width="1.9542" height="0.2073" ry="0.1037" fill="currentColor"/>
<rect transform="translate(16.0600, 11.3979)" x="22.2948" y="-0.1037" width="1.9271" height="0.2073" ry="0.1037" fill="currentColor"/>
<rect transform="translate(16.0600, 11.3979)" x="20.2677" y="-0.1037" width="1.9271" height="0.2073" ry="0.1037" fill="currentColor"/>
<rect transform="translate(16.0600, 11.3979)" x="8.2677" y="-0.1037" width="1.9542" height="0.2073" ry="0.1037" fill="currentColor"/>
<path transform="translate(75.7114, 11.3979) scale(0.0040, -0.0040)" d="M312 64c0 24 -20 41 -41 41c-4 0 -8 -1 -12 -2c-30 -9 -77 -38 -113 -62s-83 -54 -103 -78c-7 -8 -10 -17 -10 -27c0 -24 20 -41 41 -41c4 0 8 1 12 2c30 9 77 38 113 62s83 54 103 78c7 8 10 17 10 27zM259 137c48 0 86 -22 86 -74c0 -18 -4 -38 -10 -56
c-12 -38 -30 -73 -63 -95c-53 -36 -113 -49 -186 -49c-48 0 -86 22 -86 74c0 18 4 38 10 56c12 38 31 73 64 95c53 36 112 49 185 49z" fill="currentColor"/>
<rect transform="translate(77.0223, 8.3979)" x="-0.0697" y="-0.5000" width="0.1395" height="3.2470" ry="0.0444" fill="currentColor"/>
<line transform="translate(37.8167, 4.8443)" stroke-linejoin="round" stroke-linecap="round" stroke-width="0.1717" stroke="currentColor" x1="4.0367" y1="-0.0000" x2="4.0367" y2="0.7000"/>
<line transform="translate(37.8167, 4.8443)" stroke-linejoin="round" stroke-linecap="round" stroke-width="0.1717" stroke="currentColor" x1="-0.2000" y1="-0.0000" x2="-0.2000" y2="0.7000"/>
<line transform="translate(37.8167, 4.8443)" stroke-linejoin="round" stroke-linecap="round" stroke-width="0.1717" stroke="currentColor" x1="4.0367" y1="-0.0000" x2="3.9220" y2="-0.0000"/>
<line transform="translate(37.8167, 4.8443)" stroke-linejoin="round" stroke-linecap="round" stroke-width="0.1717" stroke="currentColor" x1="-0.2000" y1="-0.0000" x2="0.1147" y2="-0.0000"/>
<path transform="translate(67.1076, 11.3979) scale(0.0040, -0.0040)" d="M215 137c57 0 111 -29 111 -92c0 -71 -54 -120 -101 -148c-35 -21 -74 -34 -114 -34c-57 0 -111 29 -111 92c0 71 54 120 101 148c35 21 74 34 114 34z" fill="currentColor"/>
<rect transform="translate(68.3406, 8.3979)" x="-0.0697" y="-0.3213" width="0.1395" height="3.1420" ry="0.0444" fill="currentColor"/>
<path transform="translate(71.6076, 11.3979) scale(0.0040, -0.0040)" d="M215 137c57 0 111 -29 111 -92c0 -71 -54 -120 -101 -148c-35 -21 -74 -34 -114 -34c-57 0 -111 29 -111 92c0 71 54 120 101 148c35 21 74 34 114 34z" fill="currentColor"/>
<rect transform="translate(72.8406, 8.3979)" x="-0.0697" y="-0.3213" width="0.1395" height="3.1420" ry="0.0444" fill="currentColor"/>
<line transform="translate(100.8747, 4.8443)" stroke-linejoin="round" stroke-linecap="round" stroke-width="0.1717" stroke="currentColor" x1="10.0367" y1="-0.0000" x2="10.0367" y2="0.7000"/>
<line transform="translate(100.8747, 4.8443)" stroke-linejoin="round" stroke-linecap="round" stroke-width="0.1717" stroke="currentColor" x1="-0.2000" y1="-0.0000" x2="-0.2000" y2="0.7000"/>
<line transform="translate(100.8747, 4.8443)" stroke-linejoin="round" stroke-linecap="round" stroke-width="0.1717" stroke="currentColor" x1="10.0367" y1="-0.0000" x2="6.9220" y2="-0.0000"/>
<line transform="translate(100.8747, 4.8443)" stroke-linejoin="round" stroke-linecap="round" stroke-width="0.1717" stroke="currentColor" x1="-0.2000" y1="-0.0000" x2="3.1147" y2="-0.0000"/>
<path transform="translate(36.6534, 11.3979) scale(0.0040, -0.0040)" d="M215 137c57 0 111 -29 111 -92c0 -71 -54 -120 -101 -148c-35 -21 -74 -34 -114 -34c-57 0 -111 29 -111 92c0 71 54 120 101 148c35 21 74 34 114 34z" fill="currentColor"/>
<rect transform="translate(37.8864, 8.3979)" x="-0.0697" y="-0.3213" width="0.1395" height="3.1420" ry="0.0444" fill="currentColor"/>
<text transform="translate(104.3894, 5.4892)" font-family="serif" font-style="italic" font-size="1.7462" text-anchor="start" fill="currentColor">
<tspan>3:2</tspan>
</text>
<rect transform="translate(113.4445, 8.3979)" x="-0.0697" y="-0.5000" width="0.1395" height="3.3206" ry="0.0444" fill="currentColor"/>
<polygon transform="translate(63.2709, 8.0766)" stroke-linejoin="round" stroke-linecap="round" stroke-width="0.0889" fill="currentColor" stroke="currentColor" points="9.5950 -0.3306 9.5950 0.3306 0.0444 0.3306 0.0444 -0.3306"/>
<polygon transform="translate(71.7406, 9.2821)" stroke-linejoin="round" stroke-linecap="round" stroke-width="0.0889" fill="currentColor" stroke="currentColor" points="1.1253 -0.3306 1.1253 0.3306 0.0444 0.3306 0.0444 -0.3306"/>
<polygon transform="translate(63.2709, 9.2821)" stroke-linejoin="round" stroke-linecap="round" stroke-width="0.0889" fill="currentColor" stroke="currentColor" points="3.0950 -0.3306 3.0950 0.3306 0.0444 0.3306 0.0444 -0.3306"/>
<text transform="translate(66.7856, 5.4892)" font-family="serif" font-style="italic" font-size="1.7462" text-anchor="start" fill="currentColor">
<tspan>3:2</tspan>
</text>
<line transform="translate(66.2709, 4.8443)" stroke-linejoin="round" stroke-linecap="round" stroke-width="0.1717" stroke="currentColor" x1="4.0367" y1="-0.0000" x2="4.0367" y2="0.7000"/>
<line transform="translate(66.2709, 4.8443)" stroke-linejoin="round" stroke-linecap="round" stroke-width="0.1717" stroke="currentColor" x1="-0.2000" y1="-0.0000" x2="-0.2000" y2="0.7000"/>
<line transform="translate(66.2709, 4.8443)" stroke-linejoin="round" stroke-linecap="round" stroke-width="0.1717" stroke="currentColor" x1="4.0367" y1="-0.0000" x2="3.9220" y2="-0.0000"/>
<line transform="translate(66.2709, 4.8443)" stroke-linejoin="round" stroke-linecap="round" stroke-width="0.1717" stroke="currentColor" x1="-0.2000" y1="-0.0000" x2="0.1147" y2="-0.0000"/>
<polygon transform="translate(50.3167, 7.0766)" stroke-linejoin="round" stroke-linecap="round" stroke-width="0.0889" fill="currentColor" stroke="currentColor" points="7.0493 -0.3306 7.0493 0.3306 0.0444 0.3306 0.0444 -0.3306"/>
<polygon transform="translate(50.3167, 8.2821)" stroke-linejoin="round" stroke-linecap="round" stroke-width="0.0889" fill="currentColor" stroke="currentColor" points="5.0950 -0.3306 5.0950 0.3306 0.0444 0.3306 0.0444 -0.3306"/>
<polygon transform="translate(54.2864, 9.4875)" stroke-linejoin="round" stroke-linecap="round" stroke-width="0.0889" fill="currentColor" stroke="currentColor" points="1.1253 -0.3306 1.1253 0.3306 0.0444 0.3306 0.0444 -0.3306"/>
<text transform="translate(52.4827, 5.4892)" font-family="serif" font-style="italic" font-size="1.7462" text-anchor="start" fill="currentColor">
<tspan>3:2</tspan>
</text>
<line transform="translate(53.3167, 4.8443)" stroke-linejoin="round" stroke-linecap="round" stroke-width="0.1717" stroke="currentColor" x1="1.3395" y1="-0.0000" x2="1.3395" y2="0.7000"/>
<line transform="translate(53.3167, 4.8443)" stroke-linejoin="round" stroke-linecap="round" stroke-width="0.1717" stroke="currentColor" x1="-0.2000" y1="-0.0000" x2="-0.2000" y2="0.7000"/>
<line transform="translate(53.3167, 4.8443)" stroke-linejoin="round" stroke-linecap="round" stroke-width="0.1717" stroke="currentColor" x1="1.3395" y1="-0.0000" x2="2.5734" y2="-0.0000"/>
<line transform="translate(53.3167, 4.8443)" stroke-linejoin="round" stroke-linecap="round" stroke-width="0.1717" stroke="currentColor" x1="-0.2000" y1="-0.0000" x2="-1.2339" y2="-0.0000"/>
<polygon transform="translate(37.8167, 8.0766)" stroke-linejoin="round" stroke-linecap="round" stroke-width="0.0889" fill="currentColor" stroke="currentColor" points="6.5950 -0.3306 6.5950 0.3306 0.0444 0.3306 0.0444 -0.3306"/>
<polygon transform="translate(37.8167, 9.2821)" stroke-linejoin="round" stroke-linecap="round" stroke-width="0.0889" fill="currentColor" stroke="currentColor" points="1.1253 -0.3306 1.1253 0.3306 0.0444 0.3306 0.0444 -0.3306"/>
<text transform="translate(38.3313, 5.4892)" font-family="serif" font-style="italic" font-size="1.7462" text-anchor="start" fill="currentColor">
<tspan>3:2</tspan>
</text>
<path transform="translate(99.7114, 11.3979) scale(0.0040, -0.0040)" d="M215 137c57 0 111 -29 111 -92c0 -71 -54 -120 -101 -148c-35 -21 -74 -34 -114 -34c-57 0 -111 29 -111 92c0 71 54 120 101 148c35 21 74 34 114 34z" fill="currentColor"/>
<rect transform="translate(100.9445, 8.3979)" x="-0.0697" y="-0.5000" width="0.1395" height="3.3206" ry="0.0444" fill="currentColor"/>
<path transform="translate(107.7114, 11.3979) scale(0.0040, -0.0040)" d="M215 137c57 0 111 -29 111 -92c0 -71 -54 -120 -101 -148c-35 -21 -74 -34 -114 -34c-57 0 -111 29 -111 92c0 71 54 120 101 148c35 21 74 34 114 34z" fill="currentColor"/>
<rect transform="translate(108.9445, 8.3979)" x="-0.0697" y="-0.5000" width="0.1395" height="3.3206" ry="0.0444" fill="currentColor"/>
<path transform="translate(109.0142, 7.9424) scale(0.0040, -0.0040)" d="M0 0c0 -197 207 -335 207 -532c0 -71 -15 -141 -41 -207c-5 -8 -13 -12 -21 -12c-14 0 -27 11 -24 28c26 60 42 125 42 191c0 103 -93 207 -163 282h-18v250h18z" fill="currentColor"/>
<path transform="translate(112.2114, 11.3979) scale(0.0040, -0.0040)" d="M215 137c57 0 111 -29 111 -92c0 -71 -54 -120 -101 -148c-35 -21 -74 -34 -114 -34c-57 0 -111 29 -111 92c0 71 54 120 101 148c35 21 74 34 114 34z" fill="currentColor"/>
<path transform="translate(52.1534, 11.3979) scale(0.0040, -0.0040)" d="M215 137c57 0 111 -29 111 -92c0 -71 -54 -120 -101 -148c-35 -21 -74 -34 -114 -34c-57 0 -111 29 -111 92c0 71 54 120 101 148c35 21 74 34 114 34z" fill="currentColor"/>
<path transform="translate(16.8600, 9.3979) scale(0.0040, -0.0040)" d="M378 263c4 0 7 1 11 1c156 0 257 -129 257 -262c0 -76 -34 -154 -108 -210c-22 -17 -46 -29 -72 -37c3 -34 4 -68 4 -102c0 -20 0 -40 -1 -60c-7 -121 -90 -228 -209 -228c-108 0 -196 87 -196 196c0 58 53 104 112 104c54 0 95 -48 95 -104c0 -52 -43 -95 -95 -95
c-10 0 -20 2 -29 6c26 -38 68 -63 116 -63c95 0 156 91 162 190c1 19 2 37 2 56c0 30 -2 60 -4 90c-29 -5 -58 -8 -88 -8c-188 0 -333 173 -333 375c0 177 130 307 246 442c-20 62 -38 125 -46 190c-6 52 -7 104 -7 157c0 115 55 223 148 290c3 2 7 3 11 3s8 -1 11 -4
c71 -83 134 -244 134 -357c0 -143 -85 -255 -178 -364c21 -68 40 -137 57 -206zM462 -202c67 24 111 94 111 162c0 89 -65 178 -170 190c24 -115 46 -230 59 -352zM75 26c0 -134 129 -245 263 -245c28 0 55 2 81 6c-14 126 -36 244 -61 363c-79 -8 -124 -61 -124 -119
c0 -43 25 -89 80 -121c5 -5 7 -11 7 -16c0 -12 -10 -23 -22 -23c-3 0 -6 1 -9 2c-81 43 -118 116 -118 186c0 89 58 175 161 198c-14 58 -29 116 -46 173c-106 -122 -212 -244 -212 -404zM406 1042c-99 -47 -162 -148 -162 -257c0 -73 20 -132 38 -191
c79 97 144 199 144 324c0 53 -4 76 -20 124z" fill="currentColor"/>
<path transform="translate(49.1534, 11.3979) scale(0.0040, -0.0040)" d="M215 137c57 0 111 -29 111 -92c0 -71 -54 -120 -101 -148c-35 -21 -74 -34 -114 -34c-57 0 -111 29 -111 92c0 71 54 120 101 148c35 21 74 34 114 34z" fill="currentColor"/>
<rect transform="translate(50.3864, 8.3979)" x="-0.0697" y="-1.3213" width="0.1395" height="4.1420" ry="0.0444" fill="currentColor"/>
<path transform="translate(21.0600, 8.3979) scale(0.0040, -0.0040)" d="M203 301c22 15 45 30 61 51c12 15 19 34 27 51c2 4 5 6 9 6c6 0 14 -6 14 -15v-238h74c10 0 16 -8 16 -16s-6 -15 -16 -15h-74v-5c0 -49 29 -95 75 -95c8 0 12 -7 12 -13s-4 -12 -12 -12c-45 0 -90 13 -135 13s-90 -13 -135 -13c-8 0 -12 6 -12 12s4 13 12 13
c46 0 75 46 75 95v5h-163c-24 0 -33 15 -33 24c0 3 1 6 2 7c80 92 134 205 134 327c0 10 6 17 14 17h3c24 -7 48 -13 73 -13s48 6 72 13c2 1 4 1 6 1c9 0 14 -7 14 -13c0 -2 0 -3 -2 -5l-283 -327h163v122c0 9 2 18 9 23z" fill="currentColor"/>
<path transform="translate(21.0600, 10.4465) scale(0.0040, -0.0040)" d="M203 301c22 15 45 30 61 51c12 15 19 34 27 51c2 4 5 6 9 6c6 0 14 -6 14 -15v-238h74c10 0 16 -8 16 -16s-6 -15 -16 -15h-74v-5c0 -49 29 -95 75 -95c8 0 12 -7 12 -13s-4 -12 -12 -12c-45 0 -90 13 -135 13s-90 -13 -135 -13c-8 0 -12 6 -12 12s4 13 12 13
c46 0 75 46 75 95v5h-163c-24 0 -33 15 -33 24c0 3 1 6 2 7c80 92 134 205 134 327c0 10 6 17 14 17h3c24 -7 48 -13 73 -13s48 6 72 13c2 1 4 1 6 1c9 0 14 -7 14 -13c0 -2 0 -3 -2 -5l-283 -327h163v122c0 9 2 18 9 23z" fill="currentColor"/>
<rect transform="translate(53.3864, 8.3979)" x="-0.0697" y="-1.3213" width="0.1395" height="4.1420" ry="0.0444" fill="currentColor"/>
<rect transform="translate(25.8864, 8.3979)" x="-0.0697" y="-0.5000" width="0.1395" height="3.3206" ry="0.0444" fill="currentColor"/>
<path transform="translate(54.1534, 11.3979) scale(0.0040, -0.0040)" d="M215 137c57 0 111 -29 111 -92c0 -71 -54 -120 -101 -148c-35 -21 -74 -34 -114 -34c-57 0 -111 29 -111 92c0 71 54 120 101 148c35 21 74 34 114 34z" fill="currentColor"/>
<rect transform="translate(55.3864, 8.3979)" x="-0.0697" y="-1.3213" width="0.1395" height="4.1420" ry="0.0444" fill="currentColor"/>
<rect transform="translate(39.8864, 8.3979)" x="-0.0697" y="-0.3213" width="0.1395" height="3.1420" ry="0.0444" fill="currentColor"/>
<path transform="translate(24.6534, 11.3979) scale(0.0040, -0.0040)" d="M215 137c57 0 111 -29 111 -92c0 -71 -54 -120 -101 -148c-35 -21 -74 -34 -114 -34c-57 0 -111 29 -111 92c0 71 54 120 101 148c35 21 74 34 114 34z" fill="currentColor"/>
<path transform="translate(38.6534, 11.3979) scale(0.0040, -0.0040)" d="M215 137c57 0 111 -29 111 -92c0 -71 -54 -120 -101 -148c-35 -21 -74 -34 -114 -34c-57 0 -111 29 -111 92c0 71 54 120 101 148c35 21 74 34 114 34z" fill="currentColor"/>
<path transform="translate(43.1534, 11.3979) scale(0.0040, -0.0040)" d="M215 137c57 0 111 -29 111 -92c0 -71 -54 -120 -101 -148c-35 -21 -74 -34 -114 -34c-57 0 -111 29 -111 92c0 71 54 120 101 148c35 21 74 34 114 34z" fill="currentColor"/>
<rect transform="translate(44.3864, 8.3979)" x="-0.0697" y="-0.3213" width="0.1395" height="3.1420" ry="0.0444" fill="currentColor"/>
<rect transform="translate(63.3406, 8.3979)" x="-0.0697" y="-0.3213" width="0.1395" height="3.1420" ry="0.0444" fill="currentColor"/>
<path transform="translate(62.1076, 11.3979) scale(0.0040, -0.0040)" d="M215 137c57 0 111 -29 111 -92c0 -71 -54 -120 -101 -148c-35 -21 -74 -34 -114 -34c-57 0 -111 29 -111 92c0 71 54 120 101 148c35 21 74 34 114 34z" fill="currentColor"/>
<path transform="translate(65.1076, 11.3979) scale(0.0040, -0.0040)" d="M215 137c57 0 111 -29 111 -92c0 -71 -54 -120 -101 -148c-35 -21 -74 -34 -114 -34c-57 0 -111 29 -111 92c0 71 54 120 101 148c35 21 74 34 114 34z" fill="currentColor"/>
<rect transform="translate(66.3406, 8.3979)" x="-0.0697" y="-0.3213" width="0.1395" height="3.1420" ry="0.0444" fill="currentColor"/>
<rect transform="translate(57.3406, 8.3979)" x="-0.0697" y="-1.3213" width="0.1395" height="4.1420" ry="0.0444" fill="currentColor"/>
<path transform="translate(56.1076, 11.3979) scale(0.0040, -0.0040)" d="M215 137c57 0 111 -29 111 -92c0 -71 -54 -120 -101 -148c-35 -21 -74 -34 -114 -34c-57 0 -111 29 -111 92c0 71 54 120 101 148c35 21 74 34 114 34z" fill="currentColor"/>
<g color="rgb(49.8039%, 49.8039%, 49.8039%)">
<line transform="translate(16.0600, 22.3979)" stroke-linejoin="round" stroke-linecap="round" stroke-width="0.1073" stroke="currentColor" x1="0.0537" y1="-0.0000" x2="104.8502" y2="-0.0000"/>
<line transform="translate(16.0600, 21.3979)" stroke-linejoin="round" stroke-linecap="round" stroke-width="0.1073" stroke="currentColor" x1="0.0537" y1="-0.0000" x2="104.8502" y2="-0.0000"/>
<line transform="translate(16.0600, 20.3979)" stroke-linejoin="round" stroke-linecap="round" stroke-width="0.1073" stroke="currentColor" x1="0.0537" y1="-0.0000" x2="104.8502" y2="-0.0000"/>
<line transform="translate(16.0600, 19.3979)" stroke-linejoin="round" stroke-linecap="round" stroke-width="0.1073" stroke="currentColor" x1="0.0537" y1="-0.0000" x2="104.8502" y2="-0.0000"/>
<line transform="translate(16.0600, 18.3979)" stroke-linejoin="round" stroke-linecap="round" stroke-width="0.1073" stroke="currentColor" x1="0.0537" y1="-0.0000" x2="104.8502" y2="-0.0000"/>
</g>
<rect transform="translate(70.8600, 20.3979)" x="0.0000" y="-2.0537" width="0.2039" height="4.1073" ry="0.0000" fill="currentColor"/>
<rect transform="translate(120.7600, 20.3979)" x="0.0000" y="-2.0537" width="0.2039" height="4.1073" ry="0.0000" fill="currentColor"/>
<rect transform="translate(16.0600, 23.3979)" x="56.4175" y="-0.1037" width="2.9185" height="0.2073" ry="0.1037" fill="currentColor"/>
<rect transform="translate(16.0600, 23.3979)" x="45.4743" y="-0.1037" width="1.9542" height="0.2073" ry="0.1037" fill="currentColor"/>
<rect transform="translate(16.0600, 23.3979)" x="38.9743" y="-0.1037" width="1.9542" height="0.2073" ry="0.1037" fill="currentColor"/>
<rect transform="translate(16.0600, 23.3979)" x="35.9743" y="-0.1037" width="1.9542" height="0.2073" ry="0.1037" fill="currentColor"/>
<rect transform="translate(16.0600, 23.3979)" x="17.9549" y="-0.1037" width="2.0709" height="0.2073" ry="0.1037" fill="currentColor"/>
<rect transform="translate(16.0600, 23.3979)" x="12.6743" y="-0.1037" width="1.9542" height="0.2073" ry="0.1037" fill="currentColor"/>
<rect transform="translate(16.0600, 23.3979)" x="10.2743" y="-0.1037" width="1.9542" height="0.2073" ry="0.1037" fill="currentColor"/>
<rect transform="translate(16.0600, 23.3979)" x="7.8743" y="-0.1037" width="1.9542" height="0.2073" ry="0.1037" fill="currentColor"/>
<rect transform="translate(16.0600, 23.3979)" x="5.4743" y="-0.1037" width="1.9542" height="0.2073" ry="0.1037" fill="currentColor"/>
<path transform="translate(61.8600, 23.3979) scale(0.0040, -0.0040)" d="M215 137c57 0 111 -29 111 -92c0 -71 -54 -120 -101 -148c-35 -21 -74 -34 -114 -34c-57 0 -111 29 -111 92c0 71 54 120 101 148c35 21 74 34 114 34z" fill="currentColor"/>
<path transform="translate(72.9639, 23.3979) scale(0.0040, -0.0040)" d="M211 111c-49 0 -68 -43 -68 -88c0 -75 57 -134 132 -134c49 0 68 43 68 88c0 75 -57 134 -132 134zM486 0c0 -43 -33 -76 -71 -97c-52 -29 -112 -40 -172 -40s-120 11 -172 40c-38 21 -71 54 -71 97s33 76 71 97c52 29 112 40 172 40s120 -11 172 -40
c38 -21 71 -54 71 -97z" fill="currentColor"/>
<rect transform="translate(63.0931, 20.3979)" x="-0.0697" y="-0.5000" width="0.1395" height="3.3206" ry="0.0444" fill="currentColor"/>
<line transform="translate(23.0233, 16.8443)" stroke-linejoin="round" stroke-linecap="round" stroke-width="0.1717" stroke="currentColor" x1="10.0367" y1="-0.0000" x2="10.0367" y2="0.7000"/>
<line transform="translate(23.0233, 16.8443)" stroke-linejoin="round" stroke-linecap="round" stroke-width="0.1717" stroke="currentColor" x1="-0.2000" y1="-0.0000" x2="-0.2000" y2="0.7000"/>
<line transform="translate(23.0233, 16.8443)" stroke-linejoin="round" stroke-linecap="round" stroke-width="0.1717" stroke="currentColor" x1="10.0367" y1="-0.0000" x2="6.9220" y2="-0.0000"/>
<line transform="translate(23.0233, 16.8443)" stroke-linejoin="round" stroke-linecap="round" stroke-width="0.1717" stroke="currentColor" x1="-0.2000" y1="-0.0000" x2="3.1147" y2="-0.0000"/>
<rect transform="translate(56.5931, 20.3979)" x="-0.0697" y="-0.5000" width="0.1395" height="3.3206" ry="0.0444" fill="currentColor"/>
<path transform="translate(55.3600, 23.3979) scale(0.0040, -0.0040)" d="M215 137c57 0 111 -29 111 -92c0 -71 -54 -120 -101 -148c-35 -21 -74 -34 -114 -34c-57 0 -111 29 -111 92c0 71 54 120 101 148c35 21 74 34 114 34z" fill="currentColor"/>
<path transform="translate(53.6628, 19.9424) scale(0.0040, -0.0040)" d="M0 0c0 -197 207 -335 207 -532c0 -71 -15 -141 -41 -207c-5 -8 -13 -12 -21 -12c-14 0 -27 11 -24 28c26 60 42 125 42 191c0 103 -93 207 -163 282h-18v250h18z" fill="currentColor"/>
<rect transform="translate(53.5931, 20.3979)" x="-0.0697" y="-0.5000" width="0.1395" height="3.3206" ry="0.0444" fill="currentColor"/>
<path transform="translate(52.3600, 23.3979) scale(0.0040, -0.0040)" d="M215 137c57 0 111 -29 111 -92c0 -71 -54 -120 -101 -148c-35 -21 -74 -34 -114 -34c-57 0 -111 29 -111 92c0 71 54 120 101 148c35 21 74 34 114 34z" fill="currentColor"/>
<text transform="translate(26.5380, 17.4892)" font-family="serif" font-style="italic" font-size="1.7462" text-anchor="start" fill="currentColor">
<tspan>5:4</tspan>
</text>
<line transform="translate(35.6011, 14.9114)" stroke-linejoin="round" stroke-linecap="round" stroke-width="0.1717" stroke="currentColor" x1="34.4589" y1="-0.0000" x2="34.4589" y2="0.7000"/>
<line transform="translate(35.6011, 14.9114)" stroke-linejoin="round" stroke-linecap="round" stroke-width="0.1717" stroke="currentColor" x1="-0.2000" y1="-0.0000" x2="-0.2000" y2="0.7000"/>
<line transform="translate(35.6011, 14.9114)" stroke-linejoin="round" stroke-linecap="round" stroke-width="0.1717" stroke="currentColor" x1="34.4589" y1="-0.0000" x2="19.1331" y2="-0.0000"/>
<line transform="translate(35.6011, 14.9114)" stroke-linejoin="round" stroke-linecap="round" stroke-width="0.1717" stroke="currentColor" x1="-0.2000" y1="-0.0000" x2="15.3258" y2="-0.0000"/>
<text transform="translate(51.3269, 15.5563)" font-family="serif" font-style="italic" font-size="1.7462" text-anchor="start" fill="currentColor">
<tspan>4:3</tspan>
</text>
<polygon transform="translate(23.0233, 20.0766)" stroke-linejoin="round" stroke-linecap="round" stroke-width="0.0889" fill="currentColor" stroke="currentColor" points="7.2950 -0.3306 7.2950 0.3306 0.0444 0.3306 0.0444 -0.3306"/>
<polygon transform="translate(23.0233, 21.2821)" stroke-linejoin="round" stroke-linecap="round" stroke-width="0.0889" fill="currentColor" stroke="currentColor" points="4.8950 -0.3306 4.8950 0.3306 0.0444 0.3306 0.0444 -0.3306"/>
<line transform="translate(53.5233, 16.8443)" stroke-linejoin="round" stroke-linecap="round" stroke-width="0.1717" stroke="currentColor" x1="7.0367" y1="-0.0000" x2="7.0367" y2="0.7000"/>
<line transform="translate(53.5233, 16.8443)" stroke-linejoin="round" stroke-linecap="round" stroke-width="0.1717" stroke="currentColor" x1="-0.2000" y1="-0.0000" x2="-0.2000" y2="0.7000"/>
<line transform="translate(53.5233, 16.8443)" stroke-linejoin="round" stroke-linecap="round" stroke-width="0.1717" stroke="currentColor" x1="7.0367" y1="-0.0000" x2="5.4220" y2="-0.0000"/>
<line transform="translate(53.5233, 16.8443)" stroke-linejoin="round" stroke-linecap="round" stroke-width="0.1717" stroke="currentColor" x1="-0.2000" y1="-0.0000" x2="1.6147" y2="-0.0000"/>
<text transform="translate(55.5380, 17.4892)" font-family="serif" font-style="italic" font-size="1.7462" text-anchor="start" fill="currentColor">
<tspan>3:2</tspan>
</text>
<rect transform="translate(25.4931, 20.3979)" x="-0.0697" y="-0.3213" width="0.1395" height="3.1420" ry="0.0444" fill="currentColor"/>
<path transform="translate(24.2600, 23.3979) scale(0.0040, -0.0040)" d="M215 137c57 0 111 -29 111 -92c0 -71 -54 -120 -101 -148c-35 -21 -74 -34 -114 -34c-57 0 -111 29 -111 92c0 71 54 120 101 148c35 21 74 34 114 34z" fill="currentColor"/>
<rect transform="translate(23.0931, 20.3979)" x="-0.0697" y="-0.3213" width="0.1395" height="3.1420" ry="0.0444" fill="currentColor"/>
<path transform="translate(21.8600, 23.3979) scale(0.0040, -0.0040)" d="M215 137c57 0 111 -29 111 -92c0 -71 -54 -120 -101 -148c-35 -21 -74 -34 -114 -34c-57 0 -111 29 -111 92c0 71 54 120 101 148c35 21 74 34 114 34z" fill="currentColor"/>
<path transform="translate(16.8600, 21.3979) scale(0.0040, -0.0040)" d="M378 263c4 0 7 1 11 1c156 0 257 -129 257 -262c0 -76 -34 -154 -108 -210c-22 -17 -46 -29 -72 -37c3 -34 4 -68 4 -102c0 -20 0 -40 -1 -60c-7 -121 -90 -228 -209 -228c-108 0 -196 87 -196 196c0 58 53 104 112 104c54 0 95 -48 95 -104c0 -52 -43 -95 -95 -95
c-10 0 -20 2 -29 6c26 -38 68 -63 116 -63c95 0 156 91 162 190c1 19 2 37 2 56c0 30 -2 60 -4 90c-29 -5 -58 -8 -88 -8c-188 0 -333 173 -333 375c0 177 130 307 246 442c-20 62 -38 125 -46 190c-6 52 -7 104 -7 157c0 115 55 223 148 290c3 2 7 3 11 3s8 -1 11 -4
c71 -83 134 -244 134 -357c0 -143 -85 -255 -178 -364c21 -68 40 -137 57 -206zM462 -202c67 24 111 94 111 162c0 89 -65 178 -170 190c24 -115 46 -230 59 -352zM75 26c0 -134 129 -245 263 -245c28 0 55 2 81 6c-14 126 -36 244 -61 363c-79 -8 -124 -61 -124 -119
c0 -43 25 -89 80 -121c5 -5 7 -11 7 -16c0 -12 -10 -23 -22 -23c-3 0 -6 1 -9 2c-81 43 -118 116 -118 186c0 89 58 175 161 198c-14 58 -29 116 -46 173c-106 -122 -212 -244 -212 -404zM406 1042c-99 -47 -162 -148 -162 -257c0 -73 20 -132 38 -191
c79 97 144 199 144 324c0 53 -4 76 -20 124z" fill="currentColor"/>
<rect transform="translate(30.2931, 20.3979)" x="-0.0697" y="-0.3213" width="0.1395" height="3.1420" ry="0.0444" fill="currentColor"/>
<path transform="translate(29.0600, 23.3979) scale(0.0040, -0.0040)" d="M215 137c57 0 111 -29 111 -92c0 -71 -54 -120 -101 -148c-35 -21 -74 -34 -114 -34c-57 0 -111 29 -111 92c0 71 54 120 101 148c35 21 74 34 114 34z" fill="currentColor"/>
<path transform="translate(34.3600, 23.3979) scale(0.0040, -0.0040)" d="M312 64c0 24 -20 41 -41 41c-4 0 -8 -1 -12 -2c-30 -9 -77 -38 -113 -62s-83 -54 -103 -78c-7 -8 -10 -17 -10 -27c0 -24 20 -41 41 -41c4 0 8 1 12 2c30 9 77 38 113 62s83 54 103 78c7 8 10 17 10 27zM259 137c48 0 86 -22 86 -74c0 -18 -4 -38 -10 -56
c-12 -38 -30 -73 -63 -95c-53 -36 -113 -49 -186 -49c-48 0 -86 22 -86 74c0 18 4 38 10 56c12 38 31 73 64 95c53 36 112 49 185 49z" fill="currentColor"/>
<rect transform="translate(35.6708, 20.3979)" x="-0.0697" y="-0.5000" width="0.1395" height="3.2470" ry="0.0444" fill="currentColor"/>
<rect transform="translate(27.8931, 20.3979)" x="-0.0697" y="-0.3213" width="0.1395" height="3.1420" ry="0.0444" fill="currentColor"/>
<path transform="translate(26.6600, 23.3979) scale(0.0040, -0.0040)" d="M215 137c57 0 111 -29 111 -92c0 -71 -54 -120 -101 -148c-35 -21 -74 -34 -114 -34c-57 0 -111 29 -111 92c0 71 54 120 101 148c35 21 74 34 114 34z" fill="currentColor"/>
<g color="rgb(49.8039%, 49.8039%, 49.8039%)">
<line transform="translate(16.0600, 34.3979)" stroke-linejoin="round" stroke-linecap="round" stroke-width="0.1073" stroke="currentColor" x1="0.0537" y1="-0.0000" x2="104.8502" y2="-0.0000"/>
<line transform="translate(16.0600, 33.3979)" stroke-linejoin="round" stroke-linecap="round" stroke-width="0.1073" stroke="currentColor" x1="0.0537" y1="-0.0000" x2="104.8502" y2="-0.0000"/>
<line transform="translate(16.0600, 32.3979)" stroke-linejoin="round" stroke-linecap="round" stroke-width="0.1073" stroke="currentColor" x1="0.0537" y1="-0.0000" x2="104.8502" y2="-0.0000"/>
<line transform="translate(16.0600, 31.3979)" stroke-linejoin="round" stroke-linecap="round" stroke-width="0.1073" stroke="currentColor" x1="0.0537" y1="-0.0000" x2="104.8502" y2="-0.0000"/>
<line transform="translate(16.0600, 30.3979)" stroke-linejoin="round" stroke-linecap="round" stroke-width="0.1073" stroke="currentColor" x1="0.0537" y1="-0.0000" x2="104.8502" y2="-0.0000"/>
</g>
<rect transform="translate(16.0600, 35.3979)" x="100.0782" y="-0.1037" width="1.9542" height="0.2073" ry="0.1037" fill="currentColor"/>
<rect transform="translate(16.0600, 35.3979)" x="93.5782" y="-0.1037" width="1.9542" height="0.2073" ry="0.1037" fill="currentColor"/>
<rect transform="translate(16.0600, 35.3979)" x="90.5782" y="-0.1037" width="1.9542" height="0.2073" ry="0.1037" fill="currentColor"/>
<rect transform="translate(16.0600, 35.3979)" x="86.0782" y="-0.1037" width="1.9542" height="0.2073" ry="0.1037" fill="currentColor"/>
<rect transform="translate(16.0600, 35.3979)" x="70.5587" y="-0.1037" width="2.0709" height="0.2073" ry="0.1037" fill="currentColor"/>
<rect transform="translate(16.0600, 35.3979)" x="67.5782" y="-0.1037" width="1.9542" height="0.2073" ry="0.1037" fill="currentColor"/>
<rect transform="translate(16.0600, 35.3979)" x="62.5782" y="-0.1037" width="1.9542" height="0.2073" ry="0.1037" fill="currentColor"/>
<rect transform="translate(16.0600, 35.3979)" x="55.0782" y="-0.1037" width="1.9542" height="0.2073" ry="0.1037" fill="currentColor"/>
<rect transform="translate(16.0600, 35.3979)" x="29.9549" y="-0.1037" width="2.0709" height="0.2073" ry="0.1037" fill="currentColor"/>
<rect transform="translate(16.0600, 35.3979)" x="13.4549" y="-0.1037" width="2.0709" height="0.2073" ry="0.1037" fill="currentColor"/>
<rect transform="translate(16.0600, 35.3979)" x="5.4743" y="-0.1037" width="1.9542" height="0.2073" ry="0.1037" fill="currentColor"/>
<rect transform="translate(120.7600, 32.3979)" x="0.0000" y="-2.0537" width="0.2039" height="4.1073" ry="0.0000" fill="currentColor"/>
<rect transform="translate(70.3600, 32.3979)" x="0.0000" y="-2.0537" width="0.2039" height="4.1073" ry="0.0000" fill="currentColor"/>
<rect transform="translate(111.1969, 32.3979)" x="-0.0697" y="-0.5000" width="0.1395" height="3.3206" ry="0.0444" fill="currentColor"/>
<path transform="translate(116.4639, 35.3979) scale(0.0040, -0.0040)" d="M215 137c57 0 111 -29 111 -92c0 -71 -54 -120 -101 -148c-35 -21 -74 -34 -114 -34c-57 0 -111 29 -111 92c0 71 54 120 101 148c35 21 74 34 114 34z" fill="currentColor"/>
<rect transform="translate(117.6969, 32.3979)" x="-0.0697" y="-0.5000" width="0.1395" height="3.3206" ry="0.0444" fill="currentColor"/>
<path transform="translate(117.7667, 31.9424) scale(0.0040, -0.0040)" d="M0 0c0 -197 207 -335 207 -532c0 -71 -15 -141 -41 -207c-5 -8 -13 -12 -21 -12c-14 0 -27 11 -24 28c26 60 42 125 42 191c0 103 -93 207 -163 282h-18v250h18z" fill="currentColor"/>
<path transform="translate(29.8600, 35.3979) scale(0.0040, -0.0040)" d="M312 64c0 24 -20 41 -41 41c-4 0 -8 -1 -12 -2c-30 -9 -77 -38 -113 -62s-83 -54 -103 -78c-7 -8 -10 -17 -10 -27c0 -24 20 -41 41 -41c4 0 8 1 12 2c30 9 77 38 113 62s83 54 103 78c7 8 10 17 10 27zM259 137c48 0 86 -22 86 -74c0 -18 -4 -38 -10 -56
c-12 -38 -30 -73 -63 -95c-53 -36 -113 -49 -186 -49c-48 0 -86 22 -86 74c0 18 4 38 10 56c12 38 31 73 64 95c53 36 112 49 185 49z" fill="currentColor"/>
<rect transform="translate(103.6969, 32.3979)" x="-0.0697" y="-0.0000" width="0.1395" height="2.8206" ry="0.0444" fill="currentColor"/>
<path transform="translate(109.9639, 35.3979) scale(0.0040, -0.0040)" d="M215 137c57 0 111 -29 111 -92c0 -71 -54 -120 -101 -148c-35 -21 -74 -34 -114 -34c-57 0 -111 29 -111 92c0 71 54 120 101 148c35 21 74 34 114 34z" fill="currentColor"/>
<rect transform="translate(108.1969, 32.3979)" x="-0.0697" y="-0.0000" width="0.1395" height="2.8206" ry="0.0444" fill="currentColor"/>
<path transform="translate(106.9639, 35.3979) scale(0.0040, -0.0040)" d="M215 137c57 0 111 -29 111 -92c0 -71 -54 -120 -101 -148c-35 -21 -74 -34 -114 -34c-57 0 -111 29 -111 92c0 71 54 120 101 148c35 21 74 34 114 34z" fill="currentColor"/>
<rect transform="translate(31.1708, 32.3979)" x="-0.0697" y="-0.5000" width="0.1395" height="3.2470" ry="0.0444" fill="currentColor"/>
<line transform="translate(23.0233, 28.8443)" stroke-linejoin="round" stroke-linecap="round" stroke-width="0.1717" stroke="currentColor" x1="22.0367" y1="-0.0000" x2="22.0367" y2="0.7000"/>
<line transform="translate(23.0233, 28.8443)" stroke-linejoin="round" stroke-linecap="round" stroke-width="0.1717" stroke="currentColor" x1="-0.2000" y1="-0.0000" x2="-0.2000" y2="0.7000"/>
<line transform="translate(23.0233, 28.8443)" stroke-linejoin="round" stroke-linecap="round" stroke-width="0.1717" stroke="currentColor" x1="22.0367" y1="-0.0000" x2="12.9220" y2="-0.0000"/>
<line transform="translate(23.0233, 28.8443)" stroke-linejoin="round" stroke-linecap="round" stroke-width="0.1717" stroke="currentColor" x1="-0.2000" y1="-0.0000" x2="9.1147" y2="-0.0000"/>
<text transform="translate(32.5380, 29.4892)" font-family="serif" font-style="italic" font-size="1.7462" text-anchor="start" fill="currentColor">
<tspan>3:2</tspan>
</text>
<line transform="translate(72.6272, 26.9114)" stroke-linejoin="round" stroke-linecap="round" stroke-width="0.1717" stroke="currentColor" x1="28.5367" y1="-0.0000" x2="28.5367" y2="0.7000"/>
<line transform="translate(72.6272, 26.9114)" stroke-linejoin="round" stroke-linecap="round" stroke-width="0.1717" stroke="currentColor" x1="-0.2000" y1="-0.0000" x2="-0.2000" y2="0.7000"/>
<line transform="translate(72.6272, 26.9114)" stroke-linejoin="round" stroke-linecap="round" stroke-width="0.1717" stroke="currentColor" x1="28.5367" y1="-0.0000" x2="16.1720" y2="-0.0000"/>
<line transform="translate(72.6272, 26.9114)" stroke-linejoin="round" stroke-linecap="round" stroke-width="0.1717" stroke="currentColor" x1="-0.2000" y1="-0.0000" x2="12.3647" y2="-0.0000"/>
<text transform="translate(85.3919, 27.5563)" font-family="serif" font-style="italic" font-size="1.7462" text-anchor="start" fill="currentColor">
<tspan>8:5</tspan>
</text>
<line transform="translate(80.1272, 28.8443)" stroke-linejoin="round" stroke-linecap="round" stroke-width="0.1717" stroke="currentColor" x1="5.5367" y1="-0.0000" x2="5.5367" y2="0.7000"/>
<line transform="translate(80.1272, 28.8443)" stroke-linejoin="round" stroke-linecap="round" stroke-width="0.1717" stroke="currentColor" x1="-0.2000" y1="-0.0000" x2="-0.2000" y2="0.7000"/>
<line transform="translate(80.1272, 28.8443)" stroke-linejoin="round" stroke-linecap="round" stroke-width="0.1717" stroke="currentColor" x1="5.5367" y1="-0.0000" x2="4.6720" y2="-0.0000"/>
<line transform="translate(80.1272, 28.8443)" stroke-linejoin="round" stroke-linecap="round" stroke-width="0.1717" stroke="currentColor" x1="-0.2000" y1="-0.0000" x2="0.8647" y2="-0.0000"/>
<text transform="translate(81.3919, 29.4892)" font-family="serif" font-style="italic" font-size="1.7462" text-anchor="start" fill="currentColor">
<tspan>3:2</tspan>
</text>
<line transform="translate(108.1272, 28.8443)" stroke-linejoin="round" stroke-linecap="round" stroke-width="0.1717" stroke="currentColor" x1="7.0367" y1="-0.0000" x2="7.0367" y2="0.7000"/>
<line transform="translate(108.1272, 28.8443)" stroke-linejoin="round" stroke-linecap="round" stroke-width="0.1717" stroke="currentColor" x1="-0.2000" y1="-0.0000" x2="-0.2000" y2="0.7000"/>
<line transform="translate(108.1272, 28.8443)" stroke-linejoin="round" stroke-linecap="round" stroke-width="0.1717" stroke="currentColor" x1="7.0367" y1="-0.0000" x2="5.4220" y2="-0.0000"/>
<line transform="translate(108.1272, 28.8443)" stroke-linejoin="round" stroke-linecap="round" stroke-width="0.1717" stroke="currentColor" x1="-0.2000" y1="-0.0000" x2="1.6147" y2="-0.0000"/>
<text transform="translate(110.1419, 29.4892)" font-family="serif" font-style="italic" font-size="1.7462" text-anchor="start" fill="currentColor">
<tspan>3:2</tspan>
</text>
<polygon transform="translate(103.6272, 32.3979)" stroke-linejoin="round" stroke-linecap="round" stroke-width="0.0889" fill="currentColor" stroke="currentColor" points="4.5950 -0.3306 4.5950 0.3306 0.0444 0.3306 0.0444 -0.3306"/>
<path transform="translate(71.4639, 35.3979) scale(0.0040, -0.0040)" d="M215 137c57 0 111 -29 111 -92c0 -71 -54 -120 -101 -148c-35 -21 -74 -34 -114 -34c-57 0 -111 29 -111 92c0 71 54 120 101 148c35 21 74 34 114 34z" fill="currentColor"/>
<path transform="translate(21.8600, 35.3979) scale(0.0040, -0.0040)" d="M215 137c57 0 111 -29 111 -92c0 -71 -54 -120 -101 -148c-35 -21 -74 -34 -114 -34c-57 0 -111 29 -111 92c0 71 54 120 101 148c35 21 74 34 114 34z" fill="currentColor"/>
<rect transform="translate(23.0931, 32.3979)" x="-0.0697" y="-0.5000" width="0.1395" height="3.3206" ry="0.0444" fill="currentColor"/>
<path transform="translate(46.3600, 35.3979) scale(0.0040, -0.0040)" d="M312 64c0 24 -20 41 -41 41c-4 0 -8 -1 -12 -2c-30 -9 -77 -38 -113 -62s-83 -54 -103 -78c-7 -8 -10 -17 -10 -27c0 -24 20 -41 41 -41c4 0 8 1 12 2c30 9 77 38 113 62s83 54 103 78c7 8 10 17 10 27zM259 137c48 0 86 -22 86 -74c0 -18 -4 -38 -10 -56
c-12 -38 -30 -73 -63 -95c-53 -36 -113 -49 -186 -49c-48 0 -86 22 -86 74c0 18 4 38 10 56c12 38 31 73 64 95c53 36 112 49 185 49z" fill="currentColor"/>
<rect transform="translate(47.6708, 32.3979)" x="-0.0697" y="-0.5000" width="0.1395" height="3.2470" ry="0.0444" fill="currentColor"/>
<path transform="translate(102.4639, 35.3979) scale(0.0040, -0.0040)" d="M215 137c57 0 111 -29 111 -92c0 -71 -54 -120 -101 -148c-35 -21 -74 -34 -114 -34c-57 0 -111 29 -111 92c0 71 54 120 101 148c35 21 74 34 114 34z" fill="currentColor"/>
<rect transform="translate(72.6969, 32.3979)" x="-0.0697" y="-0.5000" width="0.1395" height="3.3206" ry="0.0444" fill="currentColor"/>
<path transform="translate(16.8600, 33.3979) scale(0.0040, -0.0040)" d="M378 263c4 0 7 1 11 1c156 0 257 -129 257 -262c0 -76 -34 -154 -108 -210c-22 -17 -46 -29 -72 -37c3 -34 4 -68 4 -102c0 -20 0 -40 -1 -60c-7 -121 -90 -228 -209 -228c-108 0 -196 87 -196 196c0 58 53 104 112 104c54 0 95 -48 95 -104c0 -52 -43 -95 -95 -95
c-10 0 -20 2 -29 6c26 -38 68 -63 116 -63c95 0 156 91 162 190c1 19 2 37 2 56c0 30 -2 60 -4 90c-29 -5 -58 -8 -88 -8c-188 0 -333 173 -333 375c0 177 130 307 246 442c-20 62 -38 125 -46 190c-6 52 -7 104 -7 157c0 115 55 223 148 290c3 2 7 3 11 3s8 -1 11 -4
c71 -83 134 -244 134 -357c0 -143 -85 -255 -178 -364c21 -68 40 -137 57 -206zM462 -202c67 24 111 94 111 162c0 89 -65 178 -170 190c24 -115 46 -230 59 -352zM75 26c0 -134 129 -245 263 -245c28 0 55 2 81 6c-14 126 -36 244 -61 363c-79 -8 -124 -61 -124 -119
c0 -43 25 -89 80 -121c5 -5 7 -11 7 -16c0 -12 -10 -23 -22 -23c-3 0 -6 1 -9 2c-81 43 -118 116 -118 186c0 89 58 175 161 198c-14 58 -29 116 -46 173c-106 -122 -212 -244 -212 -404zM406 1042c-99 -47 -162 -148 -162 -257c0 -73 20 -132 38 -191
c79 97 144 199 144 324c0 53 -4 76 -20 124z" fill="currentColor"/>
<text transform="translate(110.7899, 27.5563)" font-family="serif" font-style="italic" font-size="1.7462" text-anchor="start" fill="currentColor">
<tspan>4:3</tspan>
</text>
<line transform="translate(103.6272, 26.9114)" stroke-linejoin="round" stroke-linecap="round" stroke-width="0.1717" stroke="currentColor" x1="17.3328" y1="-0.0000" x2="17.3328" y2="0.7000"/>
<line transform="translate(103.6272, 26.9114)" stroke-linejoin="round" stroke-linecap="round" stroke-width="0.1717" stroke="currentColor" x1="-0.2000" y1="-0.0000" x2="-0.2000" y2="0.7000"/>
<line transform="translate(103.6272, 26.9114)" stroke-linejoin="round" stroke-linecap="round" stroke-width="0.1717" stroke="currentColor" x1="17.3328" y1="-0.0000" x2="10.5701" y2="-0.0000"/>
<line transform="translate(103.6272, 26.9114)" stroke-linejoin="round" stroke-linecap="round" stroke-width="0.1717" stroke="currentColor" x1="-0.2000" y1="-0.0000" x2="6.7627" y2="-0.0000"/>
<path transform="translate(86.9639, 35.3979) scale(0.0040, -0.0040)" d="M312 64c0 24 -20 41 -41 41c-4 0 -8 -1 -12 -2c-30 -9 -77 -38 -113 -62s-83 -54 -103 -78c-7 -8 -10 -17 -10 -27c0 -24 20 -41 41 -41c4 0 8 1 12 2c30 9 77 38 113 62s83 54 103 78c7 8 10 17 10 27zM259 137c48 0 86 -22 86 -74c0 -18 -4 -38 -10 -56
c-12 -38 -30 -73 -63 -95c-53 -36 -113 -49 -186 -49c-48 0 -86 22 -86 74c0 18 4 38 10 56c12 38 31 73 64 95c53 36 112 49 185 49z" fill="currentColor"/>
<rect transform="translate(85.1969, 32.3979)" x="-0.0697" y="-0.5000" width="0.1395" height="3.3206" ry="0.0444" fill="currentColor"/>
<path transform="translate(83.9639, 35.3979) scale(0.0040, -0.0040)" d="M215 137c57 0 111 -29 111 -92c0 -71 -54 -120 -101 -148c-35 -21 -74 -34 -114 -34c-57 0 -111 29 -111 92c0 71 54 120 101 148c35 21 74 34 114 34z" fill="currentColor"/>
<rect transform="translate(88.2747, 32.3979)" x="-0.0697" y="-0.5000" width="0.1395" height="3.2470" ry="0.0444" fill="currentColor"/>
<path transform="translate(85.2667, 31.9424) scale(0.0040, -0.0040)" d="M0 0c0 -197 207 -335 207 -532c0 -71 -15 -141 -41 -207c-5 -8 -13 -12 -21 -12c-14 0 -27 11 -24 28c26 60 42 125 42 191c0 103 -93 207 -163 282h-18v250h18z" fill="currentColor"/>
<rect transform="translate(80.1969, 32.3979)" x="-0.0697" y="-0.5000" width="0.1395" height="3.3206" ry="0.0444" fill="currentColor"/>
<path transform="translate(78.9639, 35.3979) scale(0.0040, -0.0040)" d="M215 137c57 0 111 -29 111 -92c0 -71 -54 -120 -101 -148c-35 -21 -74 -34 -114 -34c-57 0 -111 29 -111 92c0 71 54 120 101 148c35 21 74 34 114 34z" fill="currentColor"/>
</svg>
