<svg xmlns="http://www.w3.org/2000/svg" xmlns:xlink="http://www.w3.org/1999/xlink" version="1.2" width="54.84mm" height="16.62mm" viewBox="8.5358 -0.4539 31.2057 9.4557">
<style text="style/css">
<![CDATA[
tspan { white-space: pre; }
]]>
</style>
<line transform="translate(8.5358, 7.4518)" stroke-linejoin="round" stroke-linecap="round" stroke-width="0.1000" stroke="currentColor" x1="0.0500" y1="-0.0000" x2="31.1557" y2="-0.0000"/>
<line transform="translate(8.5358, 6.4518)" stroke-linejoin="round" stroke-linecap="round" stroke-width="0.1000" stroke="currentColor" x1="0.0500" y1="-0.0000" x2="31.1557" y2="-0.0000"/>
<line transform="translate(8.5358, 5.4518)" stroke-linejoin="round" stroke-linecap="round" stroke-width="0.1000" stroke="currentColor" x1="0.0500" y1="-0.0000" x2="31.1557" y2="-0.0000"/>
<line transform="translate(8.5358, 4.4518)" stroke-linejoin="round" stroke-linecap="round" stroke-width="0.1000" stroke="currentColor" x1="0.0500" y1="-0.0000" x2="31.1557" y2="-0.0000"/>
<line transform="translate(8.5358, 3.4518)" stroke-linejoin="round" stroke-linecap="round" stroke-width="0.1000" stroke="currentColor" x1="0.0500" y1="-0.0000" x2="31.1557" y2="-0.0000"/>
<rect transform="translate(0.0000, 8.4518)" x="16.7453" y="-0.1000" width="2.9430" height="0.2000" ry="0.1000" fill="currentColor"/>
<rect transform="translate(39.5515, 5.4518)" x="0.0000" y="-2.0000" width="0.1900" height="4.0000" ry="0.0000" fill="currentColor"/>
<path transform="translate(17.2358, 8.4518) scale(0.0040, -0.0040)" d="M213 112c-50 0 -69 -43 -69 -88c0 -77 57 -136 134 -136c50 0 69 43 69 88c0 77 -57 136 -134 136zM491 0c0 -43 -34 -75 -72 -96c-53 -29 -114 -40 -174 -40s-120 11 -173 40c-38 21 -72 53 -72 96s34 75 72 96c53 29 113 40 173 40s121 -11 174 -40
c38 -21 72 -53 72 -96z" fill="currentColor"/>
<rect transform="translate(17.2358, 2.0704)" x="0.7335" y="-1.8899" width="0.0819" height="1.7951" ry="0.0136" fill="currentColor"/>
<path transform="translate(17.2358, 2.0704) scale(0.0025, -0.0025)" d="M204 141c63 0 120 -35 120 -103c0 -70 -50 -119 -97 -147c-33 -20 -70 -32 -108 -32c-63 0 -119 35 -119 103c0 70 49 119 96 147c33 20 70 32 108 32z" fill="currentColor"/>
<text transform="translate(18.6512, 2.4247)" font-family="serif" font-size="2.7719" text-anchor="start" fill="currentColor">
<tspan>=</tspan>
</text>
<text transform="translate(21.4230, 2.4247)" font-family="serif" font-size="2.7719" text-anchor="start" fill="currentColor">
<tspan>63</tspan>
</text>
<text transform="translate(25.9873, 1.2750)" font-family="serif" font-size="1.7461" text-anchor="start" fill="currentColor">
<tspan>9</tspan>
</text>
<rect transform="translate(26.5506, 1.7512)" x="-1.1267" y="-0.0397" width="2.2535" height="0.0794" ry="0.0000" fill="currentColor"/>
<text transform="translate(25.4239, 3.2471)" font-family="serif" font-size="1.7461" text-anchor="start" fill="currentColor">
<tspan>10</tspan>
</text>
<text transform="translate(29.6774, 2.4247)" font-family="serif" font-size="2.7719" text-anchor="start" fill="currentColor">
<tspan>[</tspan>
</text>
<g transform="scale(0.6000, 0.6000)">
<line transform="translate(52.9574, 0.0800)" stroke-linejoin="round" stroke-linecap="round" stroke-width="0.1600" stroke="currentColor" x1="4.3258" y1="-0.0000" x2="4.3258" y2="-0.0000"/>
<line transform="translate(52.9574, 0.0800)" stroke-linejoin="round" stroke-linecap="round" stroke-width="0.1600" stroke="currentColor" x1="-1.0000" y1="-0.0000" x2="-1.0000" y2="0.7000"/>
<line transform="translate(52.9574, 0.0800)" stroke-linejoin="round" stroke-linecap="round" stroke-width="0.1600" stroke="currentColor" x1="4.3258" y1="-0.0000" x2="4.4883" y2="-0.0000"/>
<line transform="translate(52.9574, 0.0800)" stroke-linejoin="round" stroke-linecap="round" stroke-width="0.1600" stroke="currentColor" x1="-1.0000" y1="-0.0000" x2="-1.4625" y2="-0.0000"/>
<text transform="translate(51.8949, 0.8824)" font-family="serif" font-style="italic" font-size="2.2001" text-anchor="start" fill="currentColor">
<tspan>9:10</tspan>
</text>
<path transform="translate(51.7832, 4.0411) scale(0.0040, -0.0040)" d="M218 136c55 0 108 -28 108 -89c0 -71 -55 -121 -102 -149c-35 -21 -75 -34 -116 -34c-55 0 -108 28 -108 89c0 71 55 121 102 149c35 21 75 34 116 34z" fill="currentColor"/>
<rect transform="translate(53.0224, 4.0411)" x="-0.0650" y="-2.6861" width="0.1300" height="2.5000" ry="0.0400" fill="currentColor"/>
<path transform="translate(53.0874, 1.3950) scale(0.0040, -0.0040)" d="M0 0c0 -177 201 -293 201 -470c0 -33 -9 -65 -23 -95c18 -37 29 -75 29 -117c0 -63 -15 -125 -41 -183c-5 -8 -13 -12 -20 -12c-13 0 -26 11 -23 27c26 52 42 110 42 168c0 97 -94 190 -165 257v-75h-16v500h16zM151 -517c5 15 8 31 8 47c0 96 -91 190 -159 257
c0 -118 90 -206 151 -304z" fill="currentColor"/>
</g>
<g transform="scale(0.6000, 0.6000)">
<text transform="translate(58.5257, 4.0411)" font-family="serif" font-size="2.7719" text-anchor="start" fill="currentColor">
<tspan>=</tspan>
</text>
</g>
<g transform="scale(0.6000, 0.6000)">
</g>
<g transform="scale(0.6000, 0.6000)">
<path transform="translate(61.5141, 4.0411) scale(0.0040, -0.0040)" d="M218 136c55 0 108 -28 108 -89c0 -71 -55 -121 -102 -149c-35 -21 -75 -34 -116 -34c-55 0 -108 28 -108 89c0 71 55 121 102 149c35 21 75 34 116 34z" fill="currentColor"/>
<rect transform="translate(62.7534, 4.0411)" x="-0.0650" y="-2.6861" width="0.1300" height="2.5000" ry="0.0400" fill="currentColor"/>
<path transform="translate(62.8184, 1.3950) scale(0.0040, -0.0040)" d="M0 0c0 -177 201 -293 201 -470c0 -33 -9 -65 -23 -95c18 -37 29 -75 29 -117c0 -63 -15 -125 -41 -183c-5 -8 -13 -12 -20 -12c-13 0 -26 11 -23 27c26 52 42 110 42 168c0 97 -94 190 -165 257v-75h-16v500h16zM151 -517c5 15 8 31 8 47c0 96 -91 190 -159 257
c0 -118 90 -206 151 -304z" fill="currentColor"/>
</g>
<text transform="translate(38.6489, 2.4247)" font-family="serif" font-size="2.7719" text-anchor="start" fill="currentColor">
<tspan>]</tspan>
</text>
<path transform="translate(9.3358, 6.4518) scale(0.0040, -0.0040)" d="M376 262c4 0 9 1 13 1c155 0 256 -128 256 -261c0 -76 -33 -154 -107 -210c-22 -17 -47 -28 -73 -36c3 -35 5 -70 5 -105c0 -19 -1 -39 -2 -58c-7 -120 -90 -228 -208 -228c-108 0 -195 88 -195 197c0 58 53 103 112 103c54 0 95 -47 95 -103c0 -52 -43 -95 -95 -95
c-11 0 -21 2 -31 6c26 -39 68 -65 117 -65c96 0 157 92 163 191c1 18 2 37 2 55c0 31 -1 61 -4 92c-29 -5 -58 -8 -89 -8c-188 0 -333 172 -333 374c0 177 131 306 248 441c-19 62 -37 125 -45 190c-6 52 -7 104 -7 156c0 115 55 224 149 292c3 2 7 3 10 3c4 0 7 0 10 -3
c71 -84 133 -245 133 -358c0 -143 -86 -255 -180 -364c21 -68 39 -138 56 -207zM461 -203c68 24 113 95 113 164c0 90 -66 179 -173 190c24 -116 46 -231 60 -354zM74 28c0 -135 129 -247 264 -247c28 0 55 2 82 6c-14 127 -37 245 -63 364c-79 -8 -124 -61 -124 -119
c0 -44 25 -91 81 -123c5 -5 7 -10 7 -15c0 -11 -10 -22 -22 -22c-3 0 -6 1 -9 2c-80 43 -117 115 -117 185c0 88 58 174 160 197c-14 58 -29 117 -46 175c-107 -121 -213 -243 -213 -403zM408 1045c-99 -48 -162 -149 -162 -259c0 -74 18 -133 36 -194
c80 97 146 198 146 324c0 55 -4 79 -20 129z" fill="currentColor"/>
<path transform="translate(13.5358, 5.4518) scale(0.0040, -0.0040)" d="M359 27c-49 0 -75 42 -75 75c0 38 27 77 72 77c4 0 9 0 14 -1c-28 37 -72 59 -120 59c-106 0 -113 -73 -113 -186v-51v-51c0 -113 7 -187 113 -187c80 0 139 70 158 151c2 7 7 10 12 10c6 0 13 -4 13 -12c0 -94 -105 -174 -183 -174c-68 0 -137 21 -184 70
c-49 51 -66 122 -66 193s17 142 66 193c47 49 116 69 184 69c87 0 160 -64 175 -150c1 -5 1 -9 1 -13c0 -40 -30 -72 -67 -72z" fill="currentColor"/>
</svg>
