<svg xmlns="http://www.w3.org/2000/svg" xmlns:xlink="http://www.w3.org/1999/xlink" version="1.2" width="63.31mm" height="24.85mm" viewBox="8.5358 -0.0850 36.0295 14.1419">
<style text="style/css">
<![CDATA[
tspan { white-space: pre; }
]]>
</style>
<line transform="translate(8.5358, 12.5069)" stroke-linejoin="round" stroke-linecap="round" stroke-width="0.1000" stroke="currentColor" x1="0.0500" y1="-0.0000" x2="35.9795" y2="-0.0000"/>
<line transform="translate(8.5358, 11.5069)" stroke-linejoin="round" stroke-linecap="round" stroke-width="0.1000" stroke="currentColor" x1="0.0500" y1="-0.0000" x2="35.9795" y2="-0.0000"/>
<line transform="translate(8.5358, 10.5069)" stroke-linejoin="round" stroke-linecap="round" stroke-width="0.1000" stroke="currentColor" x1="0.0500" y1="-0.0000" x2="35.9795" y2="-0.0000"/>
<line transform="translate(8.5358, 9.5069)" stroke-linejoin="round" stroke-linecap="round" stroke-width="0.1000" stroke="currentColor" x1="0.0500" y1="-0.0000" x2="35.9795" y2="-0.0000"/>
<line transform="translate(8.5358, 8.5069)" stroke-linejoin="round" stroke-linecap="round" stroke-width="0.1000" stroke="currentColor" x1="0.0500" y1="-0.0000" x2="35.9795" y2="-0.0000"/>
<rect transform="translate(0.0000, 4.5069)" x="29.9031" y="-0.1000" width="1.2284" height="0.2000" ry="0.1000" fill="currentColor"/>
<rect transform="translate(0.0000, 5.5069)" x="29.9031" y="-0.1000" width="1.2284" height="0.2000" ry="0.1000" fill="currentColor"/>
<rect transform="translate(0.0000, 6.5069)" x="29.9031" y="-0.1000" width="1.2284" height="0.2000" ry="0.1000" fill="currentColor"/>
<rect transform="translate(0.0000, 7.5069)" x="29.9031" y="-0.1000" width="1.2284" height="0.2000" ry="0.1000" fill="currentColor"/>
<rect transform="translate(0.0000, 5.5069)" x="27.9139" y="-0.1000" width="1.1987" height="0.2000" ry="0.1000" fill="currentColor"/>
<rect transform="translate(0.0000, 6.5069)" x="27.8841" y="-0.1000" width="1.2284" height="0.2000" ry="0.1000" fill="currentColor"/>
<rect transform="translate(0.0000, 7.5069)" x="27.8841" y="-0.1000" width="1.2284" height="0.2000" ry="0.1000" fill="currentColor"/>
<rect transform="translate(0.0000, 4.5069)" x="25.1840" y="-0.1000" width="1.1987" height="0.2000" ry="0.1000" fill="currentColor"/>
<rect transform="translate(0.0000, 5.5069)" x="25.1542" y="-0.1000" width="1.2284" height="0.2000" ry="0.1000" fill="currentColor"/>
<rect transform="translate(0.0000, 6.5069)" x="25.1542" y="-0.1000" width="1.2284" height="0.2000" ry="0.1000" fill="currentColor"/>
<rect transform="translate(0.0000, 7.5069)" x="25.1542" y="-0.1000" width="1.2284" height="0.2000" ry="0.1000" fill="currentColor"/>
<rect transform="translate(0.0000, 5.5069)" x="21.9650" y="-0.1000" width="1.1987" height="0.2000" ry="0.1000" fill="currentColor"/>
<rect transform="translate(0.0000, 6.5069)" x="21.9353" y="-0.1000" width="1.2284" height="0.2000" ry="0.1000" fill="currentColor"/>
<rect transform="translate(0.0000, 7.5069)" x="21.9353" y="-0.1000" width="1.2284" height="0.2000" ry="0.1000" fill="currentColor"/>
<rect transform="translate(44.3753, 10.5069)" x="0.0000" y="-2.0000" width="0.1900" height="4.0000" ry="0.0000" fill="currentColor"/>
<path transform="translate(30.1078, 4.5069) scale(0.0025, -0.0025)" d="M96 49c-3 -3 -4 -7 -4 -11s1 -7 4 -10l88 -101c3 -3 7 -6 12 -6s9 3 12 6l21 24c3 3 4 7 4 11s-1 7 -4 10l-88 101c-3 3 -7 6 -12 6s-9 -3 -12 -6zM0 0c0 4 1 7 4 10c54 52 103 109 147 170c3 4 7 5 12 5s8 -1 11 -5c44 -61 93 -118 147 -170c3 -3 4 -6 4 -10
s-1 -7 -4 -10c-54 -52 -103 -109 -147 -170c-3 -4 -6 -5 -11 -5s-9 1 -12 5c-44 61 -93 118 -147 170c-3 3 -4 6 -4 10z" fill="currentColor"/>
<path transform="translate(13.5358, 10.5069) scale(0.0040, -0.0040)" d="M359 27c-49 0 -75 42 -75 75c0 38 27 77 72 77c4 0 9 0 14 -1c-28 37 -72 59 -120 59c-106 0 -113 -73 -113 -186v-51v-51c0 -113 7 -187 113 -187c80 0 139 70 158 151c2 7 7 10 12 10c6 0 13 -4 13 -12c0 -94 -105 -174 -183 -174c-68 0 -137 21 -184 70
c-49 51 -66 122 -66 193s17 142 66 193c47 49 116 69 184 69c87 0 160 -64 175 -150c1 -5 1 -9 1 -13c0 -40 -30 -72 -67 -72z" fill="currentColor"/>
<path transform="translate(26.7779, 5.0069) scale(0.0025, -0.0025)" d="M-9 375c9 5 19 8 29 8s19 -3 28 -8l-3 -202l97 26c2 0 3 1 5 1c11 0 20 -9 20 -20l8 -555c-9 -5 -18 -8 -28 -8s-20 3 -29 8l3 202l-96 -26c-2 0 -3 -1 -5 -1c-11 0 -20 9 -20 20zM126 108l-82 -22l-3 -194l82 22z" fill="currentColor"/>
<path transform="translate(27.2979, 5.0069) scale(0.0025, -0.0025)" d="M88 -332c-13 0 -24 10 -24 23v102l-15 -9c-5 -3 -11 -5 -17 -5c-17 0 -32 13 -32 32v46c0 11 6 21 15 27l49 31v141l-15 -10c-5 -3 -11 -5 -17 -5c-17 0 -32 13 -32 32v46c0 11 6 21 15 27l49 31v132c0 13 11 24 24 24s23 -11 23 -24v-102l15 9c5 3 11 5 17 5
c17 0 32 -13 32 -32v-46c0 -11 -6 -21 -15 -27l-49 -31v-141l15 10c5 3 11 5 17 5c17 0 32 -13 32 -32v-46c0 -11 -6 -21 -15 -27l-49 -31v-132c0 -13 -10 -23 -23 -23z" fill="currentColor"/>
<rect transform="translate(28.8428, 10.5069)" x="-0.0650" y="-8.8100" width="0.1300" height="3.3100" ry="0.0400" fill="currentColor"/>
<path transform="translate(28.0889, 5.0069) scale(0.0025, -0.0025)" d="M96 49c-3 -3 -4 -7 -4 -11s1 -7 4 -10l88 -101c3 -3 7 -6 12 -6s9 3 12 6l21 24c3 3 4 7 4 11s-1 7 -4 10l-88 101c-3 3 -7 6 -12 6s-9 -3 -12 -6zM0 0c0 4 1 7 4 10c54 52 103 109 147 170c3 4 7 5 12 5s8 -1 11 -5c44 -61 93 -118 147 -170c3 -3 4 -6 4 -10
s-1 -7 -4 -10c-54 -52 -103 -109 -147 -170c-3 -4 -6 -5 -11 -5s-9 1 -12 5c-44 61 -93 118 -147 170c-3 3 -4 6 -4 10z" fill="currentColor"/>
<path transform="translate(9.3358, 11.5069) scale(0.0040, -0.0040)" d="M376 262c4 0 9 1 13 1c155 0 256 -128 256 -261c0 -76 -33 -154 -107 -210c-22 -17 -47 -28 -73 -36c3 -35 5 -70 5 -105c0 -19 -1 -39 -2 -58c-7 -120 -90 -228 -208 -228c-108 0 -195 88 -195 197c0 58 53 103 112 103c54 0 95 -47 95 -103c0 -52 -43 -95 -95 -95
c-11 0 -21 2 -31 6c26 -39 68 -65 117 -65c96 0 157 92 163 191c1 18 2 37 2 55c0 31 -1 61 -4 92c-29 -5 -58 -8 -89 -8c-188 0 -333 172 -333 374c0 177 131 306 248 441c-19 62 -37 125 -45 190c-6 52 -7 104 -7 156c0 115 55 224 149 292c3 2 7 3 10 3c4 0 7 0 10 -3
c71 -84 133 -245 133 -358c0 -143 -86 -255 -180 -364c21 -68 39 -138 56 -207zM461 -203c68 24 113 95 113 164c0 90 -66 179 -173 190c24 -116 46 -231 60 -354zM74 28c0 -135 129 -247 264 -247c28 0 55 2 82 6c-14 127 -37 245 -63 364c-79 -8 -124 -61 -124 -119
c0 -44 25 -91 81 -123c5 -5 7 -10 7 -15c0 -11 -10 -22 -22 -22c-3 0 -6 1 -9 2c-80 43 -117 115 -117 185c0 88 58 174 160 197c-14 58 -29 117 -46 175c-107 -121 -213 -243 -213 -403zM408 1045c-99 -48 -162 -149 -162 -259c0 -74 18 -133 36 -194
c80 97 146 198 146 324c0 55 -4 79 -20 129z" fill="currentColor"/>
<path transform="translate(24.5050, 4.0069) scale(0.0025, -0.0025)" d="M34 33l-1 -58v-10c0 -21 2 -43 5 -64c41 38 85 80 85 136c0 31 -13 63 -40 63c-31 0 -48 -33 -49 -67zM-18 -142l-14 583c10 6 21 9 32 9s22 -3 32 -9l-8 -333c25 27 60 42 97 42c49 0 79 -52 79 -106c0 -76 -78 -117 -133 -169c-19 -18 -27 -52 -55 -52
c-17 0 -30 17 -30 35z" fill="currentColor"/>
<polygon transform="translate(22.8290, 1.6969)" stroke-linejoin="round" stroke-linecap="round" stroke-width="0.0800" fill="currentColor" stroke="currentColor" points="8.0578 -0.2000 8.0578 0.2000 0.0400 0.2000 0.0400 -0.2000"/>
<polygon transform="translate(26.0479, 2.5069)" stroke-linejoin="round" stroke-linecap="round" stroke-width="0.0800" fill="currentColor" stroke="currentColor" points="4.8389 -0.2000 4.8389 0.2000 0.0400 0.2000 0.0400 -0.2000"/>
<rect transform="translate(39.7728, 10.5069)" x="-0.0650" y="-1.3139" width="0.1300" height="3.3139" ry="0.0400" fill="currentColor"/>
<path transform="translate(22.1400, 10.5069)" stroke-width="0.0800" stroke-linejoin="round" stroke-linecap="round" stroke="currentColor" fill="currentColor" d="M0.7540 -9.5500C2.3187 -10.8859 7.1570 -10.8859 8.7218 -9.5500L8.7218 -9.5500C7.1570 -10.7659 2.3187 -10.7659 0.7540 -9.5500z"/>
<rect transform="translate(30.8618, 10.5069)" x="-0.0650" y="-8.8100" width="0.1300" height="2.8100" ry="0.0400" fill="currentColor"/>
<path transform="translate(39.7078, 9.0069) scale(0.0040, -0.0040)" d="M218 136c55 0 108 -28 108 -89c0 -71 -55 -121 -102 -149c-35 -21 -75 -34 -116 -34c-55 0 -108 28 -108 89c0 71 55 121 102 149c35 21 75 34 116 34z" fill="currentColor"/>
<rect transform="translate(17.3008, 10.5069)" x="-0.0650" y="-1.3139" width="0.1300" height="3.3139" ry="0.0400" fill="currentColor"/>
<rect transform="translate(22.2050, 10.5069)" x="-0.0650" y="-1.2410" width="0.1300" height="3.2410" ry="0.0400" fill="currentColor"/>
<rect transform="translate(22.8940, 10.5069)" x="-0.0650" y="-8.8100" width="0.1300" height="3.3100" ry="0.0400" fill="currentColor"/>
<line transform="translate(22.3940, 2.7796)" stroke-linejoin="round" stroke-linecap="round" stroke-width="0.1300" stroke="currentColor" x1="0" y1="0" x2="1.9000" y2="-1.7000"/>
<path transform="translate(22.1400, 5.0069) scale(0.0025, -0.0025)" d="M96 49c-3 -3 -4 -7 -4 -11s1 -7 4 -10l88 -101c3 -3 7 -6 12 -6s9 3 12 6l21 24c3 3 4 7 4 11s-1 7 -4 10l-88 101c-3 3 -7 6 -12 6s-9 -3 -12 -6zM0 0c0 4 1 7 4 10c54 52 103 109 147 170c3 4 7 5 12 5s8 -1 11 -5c44 -61 93 -118 147 -170c3 -3 4 -6 4 -10
s-1 -7 -4 -10c-54 -52 -103 -109 -147 -170c-3 -4 -6 -5 -11 -5s-9 1 -12 5c-44 61 -93 118 -147 170c-3 3 -4 6 -4 10z" fill="currentColor"/>
<path transform="translate(22.1400, 9.0069) scale(0.0040, -0.0040)" d="M314 65c0 24 -21 41 -42 41c-4 0 -8 0 -12 -1c-31 -9 -78 -40 -115 -64s-84 -53 -104 -78c-7 -8 -10 -18 -10 -28c0 -24 21 -41 42 -41c4 0 8 0 12 1c31 9 77 40 114 64s84 53 104 78c7 8 11 18 11 28zM262 136c46 0 82 -21 82 -71c0 -19 -4 -39 -10 -57
c-12 -37 -32 -72 -64 -94c-53 -36 -113 -50 -187 -50c-46 0 -83 21 -83 71c0 19 5 39 11 57c12 37 31 72 63 94c53 36 114 50 188 50z" fill="currentColor"/>
<rect transform="translate(26.1129, 10.5069)" x="-0.0650" y="-8.8100" width="0.1300" height="2.3100" ry="0.0400" fill="currentColor"/>
<path transform="translate(21.0971, 5.0069) scale(0.0025, -0.0025)" d="M198 -327c-13 0 -24 11 -24 24v129l-73 -29v-148c0 -13 -11 -24 -24 -24s-23 11 -23 24v129l-10 -4c-4 -2 -8 -2 -12 -2c-17 0 -32 14 -32 32v46c0 13 8 24 20 29l34 14v148l-10 -4c-4 -2 -8 -3 -12 -3c-17 0 -32 14 -32 32v46c0 13 8 25 20 30l34 13v148
c0 13 10 24 23 24s24 -11 24 -24v-129l73 29v148c0 13 11 24 24 24s23 -11 23 -24v-129l10 4c4 2 8 2 12 2c17 0 32 -14 32 -32v-46c0 -13 -8 -24 -20 -29l-34 -14v-148l10 4c4 2 8 3 12 3c17 0 32 -14 32 -32v-46c0 -13 -8 -25 -20 -30l-34 -13v-148c0 -13 -10 -24 -23 -24
zM101 59v-148l73 30v148z" fill="currentColor"/>
<path transform="translate(25.3590, 4.0069) scale(0.0025, -0.0025)" d="M96 49c-3 -3 -4 -7 -4 -11s1 -7 4 -10l88 -101c3 -3 7 -6 12 -6s9 3 12 6l21 24c3 3 4 7 4 11s-1 7 -4 10l-88 101c-3 3 -7 6 -12 6s-9 -3 -12 -6zM0 0c0 4 1 7 4 10c54 52 103 109 147 170c3 4 7 5 12 5s8 -1 11 -5c44 -61 93 -118 147 -170c3 -3 4 -6 4 -10
s-1 -7 -4 -10c-54 -52 -103 -109 -147 -170c-3 -4 -6 -5 -11 -5s-9 1 -12 5c-44 61 -93 118 -147 170c-3 3 -4 6 -4 10z" fill="currentColor"/>
<path transform="translate(17.2358, 9.0069) scale(0.0040, -0.0040)" d="M218 136c55 0 108 -28 108 -89c0 -71 -55 -121 -102 -149c-35 -21 -75 -34 -116 -34c-55 0 -108 28 -108 89c0 71 55 121 102 149c35 21 75 34 116 34z" fill="currentColor"/>
</svg>
