<svg xmlns="http://www.w3.org/2000/svg" xmlns:xlink="http://www.w3.org/1999/xlink" version="1.2" width="109.92mm" height="23.57mm" viewBox="8.5358 -0.0000 62.5519 13.4099">
<style text="style/css">
<![CDATA[
tspan { white-space: pre; }
]]>
</style>
<line transform="translate(8.5358, 9.9099)" stroke-linejoin="round" stroke-linecap="round" stroke-width="0.1000" stroke="currentColor" x1="0.0500" y1="-0.0000" x2="62.5019" y2="-0.0000"/>
<line transform="translate(8.5358, 8.9099)" stroke-linejoin="round" stroke-linecap="round" stroke-width="0.1000" stroke="currentColor" x1="0.0500" y1="-0.0000" x2="62.5019" y2="-0.0000"/>
<line transform="translate(8.5358, 7.9099)" stroke-linejoin="round" stroke-linecap="round" stroke-width="0.1000" stroke="currentColor" x1="0.0500" y1="-0.0000" x2="62.5019" y2="-0.0000"/>
<line transform="translate(8.5358, 6.9099)" stroke-linejoin="round" stroke-linecap="round" stroke-width="0.1000" stroke="currentColor" x1="0.0500" y1="-0.0000" x2="62.5019" y2="-0.0000"/>
<line transform="translate(8.5358, 5.9099)" stroke-linejoin="round" stroke-linecap="round" stroke-width="0.1000" stroke="currentColor" x1="0.0500" y1="-0.0000" x2="62.5019" y2="-0.0000"/>
<rect transform="translate(0.0000, 10.9099)" x="16.9098" y="-0.1000" width="1.9563" height="0.2000" ry="0.1000" fill="currentColor"/>
<rect transform="translate(70.8978, 7.9099)" x="0.0000" y="-2.0000" width="0.1900" height="4.0000" ry="0.0000" fill="currentColor"/>
<rect transform="translate(32.2101, 7.9099)" x="-0.0650" y="-1.8100" width="0.1300" height="3.1239" ry="0.0400" fill="currentColor"/>
<line transform="translate(31.7101, 7.1657)" stroke-linejoin="round" stroke-linecap="round" stroke-width="0.1300" stroke="currentColor" x1="0" y1="0" x2="1.9000" y2="-1.7000"/>
<path transform="translate(29.5209, 9.4099) scale(0.0040, -0.0040)" d="M216 -312c0 -10 -8 -19 -18 -19s-19 9 -19 19v145l-83 -31v-158c0 -10 -9 -19 -19 -19s-18 9 -18 19v145l-32 -12c-2 -1 -5 -1 -7 -1c-11 0 -20 9 -20 20v60c0 8 5 16 13 19l46 16v160l-32 -11c-2 -1 -5 -1 -7 -1c-11 0 -20 9 -20 20v60c0 8 5 15 13 18l46 17v158
c0 10 8 19 18 19s19 -9 19 -19v-145l83 31v158c0 10 9 19 19 19s18 -9 18 -19v-145l32 12c2 1 5 1 7 1c11 0 20 -9 20 -20v-60c0 -8 -5 -16 -13 -19l-46 -16v-160l32 11c2 1 5 1 7 1c11 0 20 -9 20 -20v-60c0 -8 -5 -15 -13 -18l-46 -17v-158zM96 65v-160l83 30v160z" fill="currentColor"/>
<rect transform="translate(34.2255, 7.9099)" x="-0.0650" y="-1.8100" width="0.1300" height="3.2152" ry="0.0400" fill="currentColor"/>
<rect transform="translate(36.2409, 7.9099)" x="-0.0650" y="-1.8100" width="0.1300" height="3.2152" ry="0.0400" fill="currentColor"/>
<polygon transform="translate(18.4100, 7.0999)" stroke-linejoin="round" stroke-linecap="round" stroke-width="0.0800" fill="currentColor" stroke="currentColor" points="6.1363 -0.2000 6.1363 0.2000 0.0400 0.2000 0.0400 -0.2000"/>
<polygon transform="translate(18.4100, 7.9099)" stroke-linejoin="round" stroke-linecap="round" stroke-width="0.0800" fill="currentColor" stroke="currentColor" points="6.1363 -1.0100 6.1363 -0.6100 0.0400 0.2000 0.0400 -0.2000"/>
<polygon transform="translate(18.4100, 8.7199)" stroke-linejoin="round" stroke-linecap="round" stroke-width="0.0800" fill="currentColor" stroke="currentColor" points="6.1363 -1.8200 6.1363 -1.4200 0.0400 0.2000 0.0400 -0.2000"/>
<rect transform="translate(20.4905, 7.9099)" x="-0.0650" y="-0.8100" width="0.1300" height="3.7152" ry="0.0400" fill="currentColor"/>
<rect transform="translate(22.5059, 7.9099)" x="-0.0650" y="-0.8100" width="0.1300" height="3.7152" ry="0.0400" fill="currentColor"/>
<rect transform="translate(31.0359, 7.9099)" x="-0.0650" y="1.6861" width="0.1300" height="2.6472" ry="0.0400" fill="currentColor"/>
<rect transform="translate(24.5213, 7.9099)" x="-0.0650" y="-0.8100" width="0.1300" height="3.7152" ry="0.0400" fill="currentColor"/>
<path transform="translate(30.9709, 9.4099) scale(0.0040, -0.0040)" d="M218 136c55 0 108 -28 108 -89c0 -71 -55 -121 -102 -149c-35 -21 -75 -34 -116 -34c-55 0 -108 28 -108 89c0 71 55 121 102 149c35 21 75 34 116 34z" fill="currentColor"/>
<text transform="translate(31.9709, 5.0926)" font-family="serif" font-size="1.3860" text-anchor="start" fill="currentColor">
<tspan>drop</tspan>
</text>
<text transform="translate(35.8145, 5.0926)" font-family="serif" font-size="1.3860" text-anchor="start" fill="currentColor">
<tspan>(5)</tspan>
</text>
<rect transform="translate(47.5760, 7.9099)" x="-0.0650" y="-3.8100" width="0.1300" height="3.2152" ry="0.0400" fill="currentColor"/>
<rect transform="translate(49.5914, 7.9099)" x="-0.0650" y="-3.8100" width="0.1300" height="3.2152" ry="0.0400" fill="currentColor"/>
<rect transform="translate(51.6069, 7.9099)" x="-0.0650" y="-3.8100" width="0.1300" height="3.2152" ry="0.0400" fill="currentColor"/>
<polygon transform="translate(58.5269, 2.0999)" stroke-linejoin="round" stroke-linecap="round" stroke-width="0.0800" fill="currentColor" stroke="currentColor" points="6.1363 -0.2000 6.1363 0.2000 0.0400 0.2000 0.0400 -0.2000"/>
<polygon transform="translate(58.5269, 2.0999)" stroke-linejoin="round" stroke-linecap="round" stroke-width="0.0800" fill="currentColor" stroke="currentColor" points="6.1363 0.6100 6.1363 1.0100 0.0400 0.2000 0.0400 -0.2000"/>
<polygon transform="translate(58.5269, 2.0999)" stroke-linejoin="round" stroke-linecap="round" stroke-width="0.0800" fill="currentColor" stroke="currentColor" points="6.1363 1.4200 6.1363 1.8200 0.0400 0.2000 0.0400 -0.2000"/>
<polygon transform="translate(45.4956, 4.0999)" stroke-linejoin="round" stroke-linecap="round" stroke-width="0.0800" fill="currentColor" stroke="currentColor" points="10.1671 -0.2000 10.1671 0.2000 0.0400 0.2000 0.0400 -0.2000"/>
<polygon transform="translate(45.4956, 4.9099)" stroke-linejoin="round" stroke-linecap="round" stroke-width="0.0800" fill="currentColor" stroke="currentColor" points="10.1671 -1.0100 10.1671 -0.6100 0.0400 0.2000 0.0400 -0.2000"/>
<polygon transform="translate(45.4956, 5.7199)" stroke-linejoin="round" stroke-linecap="round" stroke-width="0.0800" fill="currentColor" stroke="currentColor" points="10.1671 -1.8200 10.1671 -1.4200 0.0400 0.2000 0.0400 -0.2000"/>
<polygon transform="translate(32.1451, 6.0999)" stroke-linejoin="round" stroke-linecap="round" stroke-width="0.0800" fill="currentColor" stroke="currentColor" points="8.1517 -0.2000 8.1517 0.2000 0.0400 0.2000 0.0400 -0.2000"/>
<polygon transform="translate(32.1451, 6.0999)" stroke-linejoin="round" stroke-linecap="round" stroke-width="0.0800" fill="currentColor" stroke="currentColor" points="8.1517 0.6100 8.1517 1.0100 0.0400 0.2000 0.0400 -0.2000"/>
<polygon transform="translate(32.1451, 6.0999)" stroke-linejoin="round" stroke-linecap="round" stroke-width="0.0800" fill="currentColor" stroke="currentColor" points="8.1517 1.4200 8.1517 1.8200 0.0400 0.2000 0.0400 -0.2000"/>
<rect transform="translate(38.2564, 7.9099)" x="-0.0650" y="-1.8100" width="0.1300" height="3.2152" ry="0.0400" fill="currentColor"/>
<rect transform="translate(40.2718, 7.9099)" x="-0.0650" y="-1.8100" width="0.1300" height="3.2152" ry="0.0400" fill="currentColor"/>
<path transform="translate(44.3214, 7.4099) scale(0.0040, -0.0040)" d="M218 136c55 0 108 -28 108 -89c0 -71 -55 -121 -102 -149c-35 -21 -75 -34 -116 -34c-55 0 -108 28 -108 89c0 71 55 121 102 149c35 21 75 34 116 34z" fill="currentColor"/>
<text transform="translate(45.3214, 3.1609)" font-family="serif" font-size="1.3860" text-anchor="start" fill="currentColor">
<tspan>throw</tspan>
</text>
<text transform="translate(50.0186, 3.1609)" font-family="serif" font-size="1.3860" text-anchor="start" fill="currentColor">
<tspan>(6)</tspan>
</text>
<rect transform="translate(44.3864, 7.9099)" x="-0.0650" y="-0.3139" width="0.1300" height="3.3139" ry="0.0400" fill="currentColor"/>
<rect transform="translate(45.5606, 7.9099)" x="-0.0650" y="-3.8100" width="0.1300" height="3.1239" ry="0.0400" fill="currentColor"/>
<line transform="translate(45.0606, 5.1657)" stroke-linejoin="round" stroke-linecap="round" stroke-width="0.1300" stroke="currentColor" x1="0" y1="0" x2="1.9000" y2="-1.7000"/>
<rect transform="translate(55.6377, 7.9099)" x="-0.0650" y="-3.8100" width="0.1300" height="3.2152" ry="0.0400" fill="currentColor"/>
<rect transform="translate(53.6223, 7.9099)" x="-0.0650" y="-3.8100" width="0.1300" height="3.2152" ry="0.0400" fill="currentColor"/>
<path transform="translate(57.3527, 5.4099) scale(0.0040, -0.0040)" d="M218 136c55 0 108 -28 108 -89c0 -71 -55 -121 -102 -149c-35 -21 -75 -34 -116 -34c-55 0 -108 28 -108 89c0 71 55 121 102 149c35 21 75 34 116 34z" fill="currentColor"/>
<rect transform="translate(57.4177, 7.9099)" x="-0.0650" y="-2.3139" width="0.1300" height="3.3139" ry="0.0400" fill="currentColor"/>
<path transform="translate(17.2358, 10.9099) scale(0.0040, -0.0040)" d="M218 136c55 0 108 -28 108 -89c0 -71 -55 -121 -102 -149c-35 -21 -75 -34 -116 -34c-55 0 -108 28 -108 89c0 71 55 121 102 149c35 21 75 34 116 34z" fill="currentColor"/>
<text transform="translate(18.2358, 5.1609)" font-family="serif" font-size="1.3860" text-anchor="start" fill="currentColor">
<tspan>throw</tspan>
</text>
<text transform="translate(22.9330, 5.1609)" font-family="serif" font-size="1.3860" text-anchor="start" fill="currentColor">
<tspan>(4)</tspan>
</text>
<path transform="translate(9.3358, 8.9099) scale(0.0040, -0.0040)" d="M376 262c4 0 9 1 13 1c155 0 256 -128 256 -261c0 -76 -33 -154 -107 -210c-22 -17 -47 -28 -73 -36c3 -35 5 -70 5 -105c0 -19 -1 -39 -2 -58c-7 -120 -90 -228 -208 -228c-108 0 -195 88 -195 197c0 58 53 103 112 103c54 0 95 -47 95 -103c0 -52 -43 -95 -95 -95
c-11 0 -21 2 -31 6c26 -39 68 -65 117 -65c96 0 157 92 163 191c1 18 2 37 2 55c0 31 -1 61 -4 92c-29 -5 -58 -8 -89 -8c-188 0 -333 172 -333 374c0 177 131 306 248 441c-19 62 -37 125 -45 190c-6 52 -7 104 -7 156c0 115 55 224 149 292c3 2 7 3 10 3c4 0 7 0 10 -3
c71 -84 133 -245 133 -358c0 -143 -86 -255 -180 -364c21 -68 39 -138 56 -207zM461 -203c68 24 113 95 113 164c0 90 -66 179 -173 190c24 -116 46 -231 60 -354zM74 28c0 -135 129 -247 264 -247c28 0 55 2 82 6c-14 127 -37 245 -63 364c-79 -8 -124 -61 -124 -119
c0 -44 25 -91 81 -123c5 -5 7 -10 7 -15c0 -11 -10 -22 -22 -22c-3 0 -6 1 -9 2c-80 43 -117 115 -117 185c0 88 58 174 160 197c-14 58 -29 117 -46 175c-107 -121 -213 -243 -213 -403zM408 1045c-99 -48 -162 -149 -162 -259c0 -74 18 -133 36 -194
c80 97 146 198 146 324c0 55 -4 79 -20 129z" fill="currentColor"/>
<path transform="translate(13.5358, 7.9099) scale(0.0040, -0.0040)" d="M359 27c-49 0 -75 42 -75 75c0 38 27 77 72 77c4 0 9 0 14 -1c-28 37 -72 59 -120 59c-106 0 -113 -73 -113 -186v-51v-51c0 -113 7 -187 113 -187c80 0 139 70 158 151c2 7 7 10 12 10c6 0 13 -4 13 -12c0 -94 -105 -174 -183 -174c-68 0 -137 21 -184 70
c-49 51 -66 122 -66 193s17 142 66 193c47 49 116 69 184 69c87 0 160 -64 175 -150c1 -5 1 -9 1 -13c0 -40 -30 -72 -67 -72z" fill="currentColor"/>
<rect transform="translate(17.3008, 7.9099)" x="-0.0650" y="3.1861" width="0.1300" height="2.3139" ry="0.0400" fill="currentColor"/>
<text transform="translate(58.3527, 1.0926)" font-family="serif" font-size="1.3860" text-anchor="start" fill="currentColor">
<tspan>drop</tspan>
</text>
<text transform="translate(62.1963, 1.0926)" font-family="serif" font-size="1.3860" text-anchor="start" fill="currentColor">
<tspan>(4)</tspan>
</text>
<rect transform="translate(18.4750, 7.9099)" x="-0.0650" y="-0.8100" width="0.1300" height="3.6239" ry="0.0400" fill="currentColor"/>
<line transform="translate(17.9750, 8.2111)" stroke-linejoin="round" stroke-linecap="round" stroke-width="0.1300" stroke="currentColor" x1="0" y1="0" x2="1.9000" y2="-1.7000"/>
<rect transform="translate(62.6228, 7.9099)" x="-0.0650" y="-5.8100" width="0.1300" height="3.2152" ry="0.0400" fill="currentColor"/>
<rect transform="translate(64.6382, 7.9099)" x="-0.0650" y="-5.8100" width="0.1300" height="3.2152" ry="0.0400" fill="currentColor"/>
<rect transform="translate(58.5919, 7.9099)" x="-0.0650" y="-5.8100" width="0.1300" height="3.1239" ry="0.0400" fill="currentColor"/>
<line transform="translate(58.0919, 3.1657)" stroke-linejoin="round" stroke-linecap="round" stroke-width="0.1300" stroke="currentColor" x1="0" y1="0" x2="1.9000" y2="-1.7000"/>
<path transform="translate(56.3027, 5.4099) scale(0.0040, -0.0040)" d="M106 -314c0 -10 -8 -19 -18 -19s-19 9 -19 19v119l-39 -22c-3 -2 -7 -3 -10 -3c-10 0 -20 8 -20 20v60c0 7 4 14 10 18l59 33v156l-39 -22c-3 -2 -7 -2 -10 -2c-10 0 -20 8 -20 20v60c0 7 4 13 10 17l59 34v140c0 10 9 19 19 19s18 -9 18 -19v-119l39 22c3 2 7 3 10 3
c10 0 20 -8 20 -20v-60c0 -7 -4 -14 -10 -18l-59 -33v-156l39 22c3 2 7 2 10 2c10 0 20 -8 20 -20v-60c0 -7 -4 -13 -10 -17l-59 -34v-140z" fill="currentColor"/>
<rect transform="translate(60.6073, 7.9099)" x="-0.0650" y="-5.8100" width="0.1300" height="3.2152" ry="0.0400" fill="currentColor"/>
</svg>
