<svg xmlns="http://www.w3.org/2000/svg" xmlns:xlink="http://www.w3.org/1999/xlink" version="1.2" width="210.00mm" height="297.00mm" viewBox="0 0 132.7795 187.7882">
<style text="style/css">
<![CDATA[
tspan { white-space: pre; }
]]>
</style>
<defs>
  <style type="text/css">
      @font-face {
        font-family: HEJI2;
        src: url('../static/fonts/HEJI2.otf');
      }
  </style>
</defs>
<!-- Page: 1/1 -->
<g color="rgb(49.8039%, 49.8039%, 49.8039%)">
<line transform="translate(16.6923, 10.0363)" stroke-linejoin="round" stroke-linecap="round" stroke-width="0.1073" stroke="currentColor" x1="0.0537" y1="-0.0000" x2="59.7463" y2="-0.0000"/>
<line transform="translate(16.6923, 9.0363)" stroke-linejoin="round" stroke-linecap="round" stroke-width="0.1073" stroke="currentColor" x1="0.0537" y1="-0.0000" x2="59.7463" y2="-0.0000"/>
<line transform="translate(16.6923, 8.0363)" stroke-linejoin="round" stroke-linecap="round" stroke-width="0.1073" stroke="currentColor" x1="0.0537" y1="-0.0000" x2="59.7463" y2="-0.0000"/>
<line transform="translate(16.6923, 7.0363)" stroke-linejoin="round" stroke-linecap="round" stroke-width="0.1073" stroke="currentColor" x1="0.0537" y1="-0.0000" x2="59.7463" y2="-0.0000"/>
<line transform="translate(16.6923, 6.0363)" stroke-linejoin="round" stroke-linecap="round" stroke-width="0.1073" stroke="currentColor" x1="0.0537" y1="-0.0000" x2="59.7463" y2="-0.0000"/>
</g>
<rect transform="translate(16.0600, 11.0363)" x="24.2573" y="-0.1037" width="1.8035" height="0.2073" ry="0.1037" fill="currentColor"/>
<rect transform="translate(16.0600, 11.0363)" x="15.1066" y="-0.1037" width="1.9542" height="0.2073" ry="0.1037" fill="currentColor"/>
<rect transform="translate(16.0600, 12.0363)" x="15.1066" y="-0.1037" width="1.9542" height="0.2073" ry="0.1037" fill="currentColor"/>
<rect transform="translate(16.0600, 13.0363)" x="15.2573" y="-0.1037" width="1.8035" height="0.2073" ry="0.1037" fill="currentColor"/>
<rect transform="translate(16.0600, 11.0363)" x="6.1066" y="-0.1037" width="1.9542" height="0.2073" ry="0.1037" fill="currentColor"/>
<rect transform="translate(16.0600, 12.0363)" x="6.1066" y="-0.1037" width="1.9542" height="0.2073" ry="0.1037" fill="currentColor"/>
<rect transform="translate(16.0600, 13.0363)" x="6.1066" y="-0.1037" width="1.9542" height="0.2073" ry="0.1037" fill="currentColor"/>
<rect transform="translate(16.0600, 14.0363)" x="6.1066" y="-0.1037" width="1.9542" height="0.2073" ry="0.1037" fill="currentColor"/>
<rect transform="translate(16.0600, 15.0363)" x="6.1066" y="-0.1037" width="1.9542" height="0.2073" ry="0.1037" fill="currentColor"/>
<rect transform="translate(16.0600, 16.0363)" x="6.2573" y="-0.1037" width="1.8035" height="0.2073" ry="0.1037" fill="currentColor"/>
<text transform="translate(66.4974, 7.5363)" font-family="HEJI2" font-size="3.9197" text-anchor="start" fill="currentColor">
<tspan>♮</tspan>
</text>
<path transform="translate(67.4923, 7.5363) scale(0.0040, -0.0040)" d="M215 137c57 0 111 -29 111 -92c0 -71 -54 -120 -101 -148c-35 -21 -74 -34 -114 -34c-57 0 -111 29 -111 92c0 71 54 120 101 148c35 21 74 34 114 34z" fill="currentColor"/>
<text transform="translate(57.1559, 8.5363)" font-family="HEJI2" font-size="3.9197" text-anchor="start" fill="currentColor">
<tspan></tspan>
</text>
<text transform="translate(21.4974, 16.5363)" font-family="HEJI2" font-size="3.9197" text-anchor="start" fill="currentColor">
<tspan>♮</tspan>
</text>
<path transform="translate(73.9403, 9.0363) scale(0.0040, -0.0040)" d="M519 1c0 -82 -56 -169 -141 -198c2 -26 3 -53 3 -79c0 -17 -1 -33 -2 -50c-6 -99 -76 -187 -174 -187c-88 0 -158 72 -158 161c0 46 42 83 90 83c43 0 76 -38 76 -83c0 -42 -34 -76 -76 -76h-9c19 -25 47 -41 80 -41c75 0 123 72 128 149c1 15 1 31 1 46c0 22 0 44 -2 66
c-22 -4 -44 -5 -67 -5c-152 0 -266 140 -266 303c0 144 99 253 189 367c-17 52 -32 105 -38 160c-5 43 -5 86 -5 129c0 92 41 179 113 237c3 3 7 4 11 4s9 -1 12 -4c58 -69 108 -202 108 -295c0 -114 -62 -207 -133 -297c18 -59 34 -118 48 -178c2 0 3 1 5 1
c126 0 207 -105 207 -213zM374 -154c49 20 80 74 80 124c0 67 -48 134 -125 146c18 -88 35 -176 45 -270zM64 17c0 -103 102 -186 207 -186c20 0 40 1 60 4c-11 98 -28 190 -47 282c-59 -7 -93 -48 -93 -92c0 -34 20 -69 63 -93c5 -5 7 -11 7 -16c0 -12 -10 -23 -22 -23
c-3 0 -7 1 -10 2c-65 35 -95 94 -95 151c0 72 47 142 129 162c-11 47 -24 94 -38 141c-81 -101 -161 -203 -161 -332zM317 857c-76 -43 -122 -123 -122 -210c0 -55 16 -101 30 -146c58 79 105 161 105 260c0 41 -3 58 -13 96z" fill="currentColor"/>
<text transform="translate(30.4974, 13.0363)" font-family="HEJI2" font-size="3.9197" text-anchor="start" fill="currentColor">
<tspan>♮</tspan>
</text>
<text transform="translate(39.4974, 11.0363)" font-family="HEJI2" font-size="3.9197" text-anchor="start" fill="currentColor">
<tspan>♮</tspan>
</text>
<path transform="translate(40.4923, 11.0363) scale(0.0040, -0.0040)" d="M215 137c57 0 111 -29 111 -92c0 -71 -54 -120 -101 -148c-35 -21 -74 -34 -114 -34c-57 0 -111 29 -111 92c0 71 54 120 101 148c35 21 74 34 114 34z" fill="currentColor"/>
<path transform="translate(22.4923, 16.5363) scale(0.0040, -0.0040)" d="M215 137c57 0 111 -29 111 -92c0 -71 -54 -120 -101 -148c-35 -21 -74 -34 -114 -34c-57 0 -111 29 -111 92c0 71 54 120 101 148c35 21 74 34 114 34z" fill="currentColor"/>
<path transform="translate(31.4923, 13.0363) scale(0.0040, -0.0040)" d="M215 137c57 0 111 -29 111 -92c0 -71 -54 -120 -101 -148c-35 -21 -74 -34 -114 -34c-57 0 -111 29 -111 92c0 71 54 120 101 148c35 21 74 34 114 34z" fill="currentColor"/>
<path transform="translate(58.4923, 8.5363) scale(0.0040, -0.0040)" d="M215 137c57 0 111 -29 111 -92c0 -71 -54 -120 -101 -148c-35 -21 -74 -34 -114 -34c-57 0 -111 29 -111 92c0 71 54 120 101 148c35 21 74 34 114 34z" fill="currentColor"/>
<text transform="translate(48.4974, 9.5363)" font-family="HEJI2" font-size="3.9197" text-anchor="start" fill="currentColor">
<tspan>♮</tspan>
</text>
<path transform="translate(49.4923, 9.5363) scale(0.0040, -0.0040)" d="M215 137c57 0 111 -29 111 -92c0 -71 -54 -120 -101 -148c-35 -21 -74 -34 -114 -34c-57 0 -111 29 -111 92c0 71 54 120 101 148c35 21 74 34 114 34z" fill="currentColor"/>
<path transform="translate(17.4923, 7.0363) scale(0.0040, -0.0040)" d="M558 -125c0 28 22 51 50 51s51 -23 51 -51s-23 -51 -51 -51s-50 23 -50 51zM558 125c0 28 22 51 50 51s51 -23 51 -51s-23 -51 -51 -51s-50 23 -50 51zM231 264c172 0 294 -88 294 -251c0 -263 -262 -416 -515 -523c-3 -3 -7 -4 -10 -4c-7 0 -14 7 -14 14c0 3 1 7 4 10
c201 118 410 265 410 492c0 119 -61 234 -169 234c-72 0 -124 -53 -148 -123c10 4 19 6 29 6c55 0 100 -45 100 -100c0 -58 -44 -106 -100 -106c-60 0 -112 47 -112 106c0 133 101 245 231 245z" fill="currentColor"/>
<g color="rgb(49.8039%, 49.8039%, 49.8039%)">
<line transform="translate(16.0600, 22.9178)" stroke-linejoin="round" stroke-linecap="round" stroke-width="0.1073" stroke="currentColor" x1="0.0537" y1="-0.0000" x2="59.7463" y2="-0.0000"/>
<line transform="translate(16.0600, 21.9178)" stroke-linejoin="round" stroke-linecap="round" stroke-width="0.1073" stroke="currentColor" x1="0.0537" y1="-0.0000" x2="59.7463" y2="-0.0000"/>
<line transform="translate(16.0600, 20.9178)" stroke-linejoin="round" stroke-linecap="round" stroke-width="0.1073" stroke="currentColor" x1="0.0537" y1="-0.0000" x2="59.7463" y2="-0.0000"/>
<line transform="translate(16.0600, 19.9178)" stroke-linejoin="round" stroke-linecap="round" stroke-width="0.1073" stroke="currentColor" x1="0.0537" y1="-0.0000" x2="59.7463" y2="-0.0000"/>
<line transform="translate(16.0600, 18.9178)" stroke-linejoin="round" stroke-linecap="round" stroke-width="0.1073" stroke="currentColor" x1="0.0537" y1="-0.0000" x2="59.7463" y2="-0.0000"/>
</g>
<rect transform="translate(16.0600, 23.9178)" x="32.6250" y="-0.1037" width="1.8035" height="0.2073" ry="0.1037" fill="currentColor"/>
<rect transform="translate(16.0600, 23.9178)" x="23.6250" y="-0.1037" width="1.8035" height="0.2073" ry="0.1037" fill="currentColor"/>
<rect transform="translate(16.0600, 23.9178)" x="14.4743" y="-0.1037" width="1.9542" height="0.2073" ry="0.1037" fill="currentColor"/>
<rect transform="translate(16.0600, 24.9178)" x="14.6250" y="-0.1037" width="1.8035" height="0.2073" ry="0.1037" fill="currentColor"/>
<rect transform="translate(16.0600, 23.9178)" x="5.4743" y="-0.1037" width="1.9542" height="0.2073" ry="0.1037" fill="currentColor"/>
<rect transform="translate(16.0600, 24.9178)" x="5.6250" y="-0.1037" width="1.8035" height="0.2073" ry="0.1037" fill="currentColor"/>
<text transform="translate(56.4478, 23.4178)" font-family="HEJI2" font-size="3.9197" text-anchor="start" fill="currentColor">
<tspan></tspan>
</text>
<path transform="translate(57.8600, 23.4178) scale(0.0040, -0.0040)" d="M215 137c57 0 111 -29 111 -92c0 -71 -54 -120 -101 -148c-35 -21 -74 -34 -114 -34c-57 0 -111 29 -111 92c0 71 54 120 101 148c35 21 74 34 114 34z" fill="currentColor"/>
<text transform="translate(47.5236, 23.9178)" font-family="HEJI2" font-size="3.9197" text-anchor="start" fill="currentColor">
<tspan></tspan>
</text>
<path transform="translate(48.8600, 23.9178) scale(0.0040, -0.0040)" d="M215 137c57 0 111 -29 111 -92c0 -71 -54 -120 -101 -148c-35 -21 -74 -34 -114 -34c-57 0 -111 29 -111 92c0 71 54 120 101 148c35 21 74 34 114 34z" fill="currentColor"/>
<text transform="translate(38.8651, 24.4178)" font-family="HEJI2" font-size="3.9197" text-anchor="start" fill="currentColor">
<tspan>♮</tspan>
</text>
<text transform="translate(65.8651, 22.9178)" font-family="HEJI2" font-size="3.9197" text-anchor="start" fill="currentColor">
<tspan>♮</tspan>
</text>
<path transform="translate(66.8600, 22.9178) scale(0.0040, -0.0040)" d="M215 137c57 0 111 -29 111 -92c0 -71 -54 -120 -101 -148c-35 -21 -74 -34 -114 -34c-57 0 -111 29 -111 92c0 71 54 120 101 148c35 21 74 34 114 34z" fill="currentColor"/>
<path transform="translate(21.8600, 25.4178) scale(0.0040, -0.0040)" d="M215 137c57 0 111 -29 111 -92c0 -71 -54 -120 -101 -148c-35 -21 -74 -34 -114 -34c-57 0 -111 29 -111 92c0 71 54 120 101 148c35 21 74 34 114 34z" fill="currentColor"/>
<path transform="translate(16.8600, 21.9178) scale(0.0040, -0.0040)" d="M378 263c4 0 7 1 11 1c156 0 257 -129 257 -262c0 -76 -34 -154 -108 -210c-22 -17 -46 -29 -72 -37c3 -34 4 -68 4 -102c0 -20 0 -40 -1 -60c-7 -121 -90 -228 -209 -228c-108 0 -196 87 -196 196c0 58 53 104 112 104c54 0 95 -48 95 -104c0 -52 -43 -95 -95 -95
c-10 0 -20 2 -29 6c26 -38 68 -63 116 -63c95 0 156 91 162 190c1 19 2 37 2 56c0 30 -2 60 -4 90c-29 -5 -58 -8 -88 -8c-188 0 -333 173 -333 375c0 177 130 307 246 442c-20 62 -38 125 -46 190c-6 52 -7 104 -7 157c0 115 55 223 148 290c3 2 7 3 11 3s8 -1 11 -4
c71 -83 134 -244 134 -357c0 -143 -85 -255 -178 -364c21 -68 40 -137 57 -206zM462 -202c67 24 111 94 111 162c0 89 -65 178 -170 190c24 -115 46 -230 59 -352zM75 26c0 -134 129 -245 263 -245c28 0 55 2 81 6c-14 126 -36 244 -61 363c-79 -8 -124 -61 -124 -119
c0 -43 25 -89 80 -121c5 -5 7 -11 7 -16c0 -12 -10 -23 -22 -23c-3 0 -6 1 -9 2c-81 43 -118 116 -118 186c0 89 58 175 161 198c-14 58 -29 116 -46 173c-106 -122 -212 -244 -212 -404zM406 1042c-99 -47 -162 -148 -162 -257c0 -73 20 -132 38 -191
c79 97 144 199 144 324c0 53 -4 76 -20 124z" fill="currentColor"/>
<path transform="translate(39.8600, 24.4178) scale(0.0040, -0.0040)" d="M215 137c57 0 111 -29 111 -92c0 -71 -54 -120 -101 -148c-35 -21 -74 -34 -114 -34c-57 0 -111 29 -111 92c0 71 54 120 101 148c35 21 74 34 114 34z" fill="currentColor"/>
<text transform="translate(29.8651, 24.9178)" font-family="HEJI2" font-size="3.9197" text-anchor="start" fill="currentColor">
<tspan>♮</tspan>
</text>
<path transform="translate(30.8600, 24.9178) scale(0.0040, -0.0040)" d="M215 137c57 0 111 -29 111 -92c0 -71 -54 -120 -101 -148c-35 -21 -74 -34 -114 -34c-57 0 -111 29 -111 92c0 71 54 120 101 148c35 21 74 34 114 34z" fill="currentColor"/>
<text transform="translate(20.8271, 25.4178)" font-family="HEJI2" font-size="3.9197" text-anchor="start" fill="currentColor">
<tspan></tspan>
</text>
<g color="rgb(49.8039%, 49.8039%, 49.8039%)">
<line transform="translate(16.0600, 34.9178)" stroke-linejoin="round" stroke-linecap="round" stroke-width="0.1073" stroke="currentColor" x1="0.0537" y1="-0.0000" x2="106.5073" y2="-0.0000"/>
<line transform="translate(16.0600, 33.9178)" stroke-linejoin="round" stroke-linecap="round" stroke-width="0.1073" stroke="currentColor" x1="0.0537" y1="-0.0000" x2="106.5073" y2="-0.0000"/>
<line transform="translate(16.0600, 32.9178)" stroke-linejoin="round" stroke-linecap="round" stroke-width="0.1073" stroke="currentColor" x1="0.0537" y1="-0.0000" x2="106.5073" y2="-0.0000"/>
<line transform="translate(16.0600, 31.9178)" stroke-linejoin="round" stroke-linecap="round" stroke-width="0.1073" stroke="currentColor" x1="0.0537" y1="-0.0000" x2="106.5073" y2="-0.0000"/>
<line transform="translate(16.0600, 30.9178)" stroke-linejoin="round" stroke-linecap="round" stroke-width="0.1073" stroke="currentColor" x1="0.0537" y1="-0.0000" x2="106.5073" y2="-0.0000"/>
</g>
<path transform="translate(86.6210, 32.4178) scale(0.0040, -0.0040)" d="M215 137c57 0 111 -29 111 -92c0 -71 -54 -120 -101 -148c-35 -21 -74 -34 -114 -34c-57 0 -111 29 -111 92c0 71 54 120 101 148c35 21 74 34 114 34z" fill="currentColor"/>
<text transform="translate(76.4743, 32.4178)" font-family="HEJI2" font-size="3.9197" text-anchor="start" fill="currentColor">
<tspan></tspan>
</text>
<path transform="translate(77.6210, 32.4178) scale(0.0040, -0.0040)" d="M215 137c57 0 111 -29 111 -92c0 -71 -54 -120 -101 -148c-35 -21 -74 -34 -114 -34c-57 0 -111 29 -111 92c0 71 54 120 101 148c35 21 74 34 114 34z" fill="currentColor"/>
<text transform="translate(66.3261, 32.9178)" font-family="HEJI2" font-size="3.9197" text-anchor="start" fill="currentColor">
<tspan>♮</tspan>
</text>
<text transform="translate(111.2112, 31.9178)" font-family="HEJI2" font-size="3.9197" text-anchor="start" fill="currentColor">
<tspan></tspan>
</text>
<text transform="translate(112.2846, 31.9178)" font-family="HEJI2" font-size="3.9197" text-anchor="start" fill="currentColor">
<tspan></tspan>
</text>
<path transform="translate(113.6210, 31.9178) scale(0.0040, -0.0040)" d="M215 137c57 0 111 -29 111 -92c0 -71 -54 -120 -101 -148c-35 -21 -74 -34 -114 -34c-57 0 -111 29 -111 92c0 71 54 120 101 148c35 21 74 34 114 34z" fill="currentColor"/>
<text transform="translate(103.2088, 31.9178)" font-family="HEJI2" font-size="3.9197" text-anchor="start" fill="currentColor">
<tspan></tspan>
</text>
<text transform="translate(85.2846, 32.4178)" font-family="HEJI2" font-size="3.9197" text-anchor="start" fill="currentColor">
<tspan></tspan>
</text>
<path transform="translate(104.6210, 31.9178) scale(0.0040, -0.0040)" d="M215 137c57 0 111 -29 111 -92c0 -71 -54 -120 -101 -148c-35 -21 -74 -34 -114 -34c-57 0 -111 29 -111 92c0 71 54 120 101 148c35 21 74 34 114 34z" fill="currentColor"/>
<path transform="translate(31.3210, 33.9178) scale(0.0040, -0.0040)" d="M215 137c57 0 111 -29 111 -92c0 -71 -54 -120 -101 -148c-35 -21 -74 -34 -114 -34c-57 0 -111 29 -111 92c0 71 54 120 101 148c35 21 74 34 114 34z" fill="currentColor"/>
<text transform="translate(94.5881, 31.9178)" font-family="HEJI2" font-size="3.9197" text-anchor="start" fill="currentColor">
<tspan></tspan>
</text>
<path transform="translate(95.6210, 31.9178) scale(0.0040, -0.0040)" d="M215 137c57 0 111 -29 111 -92c0 -71 -54 -120 -101 -148c-35 -21 -74 -34 -114 -34c-57 0 -111 29 -111 92c0 71 54 120 101 148c35 21 74 34 114 34z" fill="currentColor"/>
<path transform="translate(22.3210, 34.4178) scale(0.0040, -0.0040)" d="M215 137c57 0 111 -29 111 -92c0 -71 -54 -120 -101 -148c-35 -21 -74 -34 -114 -34c-57 0 -111 29 -111 92c0 71 54 120 101 148c35 21 74 34 114 34z" fill="currentColor"/>
<text transform="translate(30.2881, 33.9178)" font-family="HEJI2" font-size="3.9197" text-anchor="start" fill="currentColor">
<tspan></tspan>
</text>
<text transform="translate(20.0250, 34.4178)" font-family="HEJI2" font-size="3.9197" text-anchor="start" fill="currentColor">
<tspan></tspan>
</text>
<text transform="translate(20.9846, 34.4178)" font-family="HEJI2" font-size="3.9197" text-anchor="start" fill="currentColor">
<tspan></tspan>
</text>
<path transform="translate(40.3210, 33.9178) scale(0.0040, -0.0040)" d="M215 137c57 0 111 -29 111 -92c0 -71 -54 -120 -101 -148c-35 -21 -74 -34 -114 -34c-57 0 -111 29 -111 92c0 71 54 120 101 148c35 21 74 34 114 34z" fill="currentColor"/>
<path transform="translate(16.8600, 33.9178) scale(0.0040, -0.0040)" d="M378 263c4 0 7 1 11 1c156 0 257 -129 257 -262c0 -76 -34 -154 -108 -210c-22 -17 -46 -29 -72 -37c3 -34 4 -68 4 -102c0 -20 0 -40 -1 -60c-7 -121 -90 -228 -209 -228c-108 0 -196 87 -196 196c0 58 53 104 112 104c54 0 95 -48 95 -104c0 -52 -43 -95 -95 -95
c-10 0 -20 2 -29 6c26 -38 68 -63 116 -63c95 0 156 91 162 190c1 19 2 37 2 56c0 30 -2 60 -4 90c-29 -5 -58 -8 -88 -8c-188 0 -333 173 -333 375c0 177 130 307 246 442c-20 62 -38 125 -46 190c-6 52 -7 104 -7 157c0 115 55 223 148 290c3 2 7 3 11 3s8 -1 11 -4
c71 -83 134 -244 134 -357c0 -143 -85 -255 -178 -364c21 -68 40 -137 57 -206zM462 -202c67 24 111 94 111 162c0 89 -65 178 -170 190c24 -115 46 -230 59 -352zM75 26c0 -134 129 -245 263 -245c28 0 55 2 81 6c-14 126 -36 244 -61 363c-79 -8 -124 -61 -124 -119
c0 -43 25 -89 80 -121c5 -5 7 -11 7 -16c0 -12 -10 -23 -22 -23c-3 0 -6 1 -9 2c-81 43 -118 116 -118 186c0 89 58 175 161 198c-14 58 -29 116 -46 173c-106 -122 -212 -244 -212 -404zM406 1042c-99 -47 -162 -148 -162 -257c0 -73 20 -132 38 -191
c79 97 144 199 144 324c0 53 -4 76 -20 124z" fill="currentColor"/>
<text transform="translate(48.3261, 33.4178)" font-family="HEJI2" font-size="3.9197" text-anchor="start" fill="currentColor">
<tspan>♮</tspan>
</text>
<path transform="translate(67.3210, 32.9178) scale(0.0040, -0.0040)" d="M215 137c57 0 111 -29 111 -92c0 -71 -54 -120 -101 -148c-35 -21 -74 -34 -114 -34c-57 0 -111 29 -111 92c0 71 54 120 101 148c35 21 74 34 114 34z" fill="currentColor"/>
<text transform="translate(56.0630, 33.4178)" font-family="HEJI2" font-size="3.9197" text-anchor="start" fill="currentColor">
<tspan></tspan>
</text>
<text transform="translate(56.9846, 33.4178)" font-family="HEJI2" font-size="3.9197" text-anchor="start" fill="currentColor">
<tspan></tspan>
</text>
<path transform="translate(58.3210, 33.4178) scale(0.0040, -0.0040)" d="M215 137c57 0 111 -29 111 -92c0 -71 -54 -120 -101 -148c-35 -21 -74 -34 -114 -34c-57 0 -111 29 -111 92c0 71 54 120 101 148c35 21 74 34 114 34z" fill="currentColor"/>
<text transform="translate(38.9846, 33.9178)" font-family="HEJI2" font-size="3.9197" text-anchor="start" fill="currentColor">
<tspan></tspan>
</text>
<path transform="translate(49.3210, 33.4178) scale(0.0040, -0.0040)" d="M215 137c57 0 111 -29 111 -92c0 -71 -54 -120 -101 -148c-35 -21 -74 -34 -114 -34c-57 0 -111 29 -111 92c0 71 54 120 101 148c35 21 74 34 114 34z" fill="currentColor"/>
</svg>
