<svg xmlns="http://www.w3.org/2000/svg" xmlns:xlink="http://www.w3.org/1999/xlink" version="1.2" width="210.00mm" height="297.00mm" viewBox="0 0 132.7795 187.7882">
<style text="style/css">
<![CDATA[
tspan { white-space: pre; }
]]>
</style>
<!-- Page: 1/1 -->
<g color="rgb(49.8039%, 49.8039%, 49.8039%)">
<line transform="translate(16.0600, 11.2100)" stroke-linejoin="round" stroke-linecap="round" stroke-width="0.1073" stroke="currentColor" x1="0.0537" y1="-0.0000" x2="75.3130" y2="-0.0000"/>
<line transform="translate(16.0600, 10.2100)" stroke-linejoin="round" stroke-linecap="round" stroke-width="0.1073" stroke="currentColor" x1="0.0537" y1="-0.0000" x2="75.3130" y2="-0.0000"/>
<line transform="translate(16.0600, 9.2100)" stroke-linejoin="round" stroke-linecap="round" stroke-width="0.1073" stroke="currentColor" x1="0.0537" y1="-0.0000" x2="75.3130" y2="-0.0000"/>
<line transform="translate(16.0600, 8.2100)" stroke-linejoin="round" stroke-linecap="round" stroke-width="0.1073" stroke="currentColor" x1="0.0537" y1="-0.0000" x2="75.3130" y2="-0.0000"/>
<line transform="translate(16.0600, 7.2100)" stroke-linejoin="round" stroke-linecap="round" stroke-width="0.1073" stroke="currentColor" x1="0.0537" y1="-0.0000" x2="75.3130" y2="-0.0000"/>
</g>
<rect transform="translate(78.2054, 9.2100)" x="0.0000" y="-2.0537" width="0.2039" height="4.1073" ry="0.0000" fill="currentColor"/>
<rect transform="translate(16.0600, 5.2100)" x="63.0409" y="-0.1037" width="1.9542" height="0.2073" ry="0.1037" fill="currentColor"/>
<rect transform="translate(16.0600, 6.2100)" x="63.0409" y="-0.1037" width="1.9542" height="0.2073" ry="0.1037" fill="currentColor"/>
<rect transform="translate(16.0600, 5.2100)" x="47.0677" y="-0.1037" width="1.9542" height="0.2073" ry="0.1037" fill="currentColor"/>
<rect transform="translate(16.0600, 6.2100)" x="47.0677" y="-0.1037" width="1.9542" height="0.2073" ry="0.1037" fill="currentColor"/>
<rect transform="translate(16.0600, 6.2100)" x="20.2677" y="-0.1037" width="1.9542" height="0.2073" ry="0.1037" fill="currentColor"/>
<rect transform="translate(16.0600, 12.2100)" x="8.2677" y="-0.1037" width="1.9542" height="0.2073" ry="0.1037" fill="currentColor"/>
<rect transform="translate(16.0600, 13.2100)" x="8.2677" y="-0.1037" width="1.9542" height="0.2073" ry="0.1037" fill="currentColor"/>
<text transform="translate(76.7460, 5.2858)" font-family="serif" font-style="italic" font-size="2.2000" text-anchor="start" fill="currentColor">
<tspan>8va</tspan>
</text>
<line transform="translate(81.3294, 4.4891)" stroke-linejoin="round" stroke-linecap="round" stroke-width="0.1073" stroke="currentColor" x1="0" y1="0" x2="0.0000" y2="0.8000" stroke-dasharray="1.0,0.0"/>
<line transform="translate(81.0294, 4.4891)" stroke-linejoin="round" stroke-linecap="round" stroke-width="0.1073" stroke="currentColor" x1="0" y1="0" x2="0.0000" y2="-0.0000" stroke-dasharray="1.0,0.0"/>
<line transform="translate(81.0294, 4.4891)" stroke-linejoin="round" stroke-linecap="round" stroke-width="0.1073" stroke="currentColor" x1="0" y1="0" x2="0.3000" y2="-0.0000" stroke-dasharray="0.3,0.7"/>
<path transform="translate(79.4266, 5.2100) scale(0.0040, -0.0040)" d="M215 137c57 0 111 -29 111 -92c0 -71 -54 -120 -101 -148c-35 -21 -74 -34 -114 -34c-57 0 -111 29 -111 92c0 71 54 120 101 148c35 21 74 34 114 34z" fill="currentColor"/>
<path transform="translate(75.4534, 10.2100) scale(0.0040, -0.0040)" d="M519 1c0 -82 -56 -169 -141 -198c2 -26 3 -53 3 -79c0 -17 -1 -33 -2 -50c-6 -99 -76 -187 -174 -187c-88 0 -158 72 -158 161c0 46 42 83 90 83c43 0 76 -38 76 -83c0 -42 -34 -76 -76 -76h-9c19 -25 47 -41 80 -41c75 0 123 72 128 149c1 15 1 31 1 46c0 22 0 44 -2 66
c-22 -4 -44 -5 -67 -5c-152 0 -266 140 -266 303c0 144 99 253 189 367c-17 52 -32 105 -38 160c-5 43 -5 86 -5 129c0 92 41 179 113 237c3 3 7 4 11 4s9 -1 12 -4c58 -69 108 -202 108 -295c0 -114 -62 -207 -133 -297c18 -59 34 -118 48 -178c2 0 3 1 5 1
c126 0 207 -105 207 -213zM374 -154c49 20 80 74 80 124c0 67 -48 134 -125 146c18 -88 35 -176 45 -270zM64 17c0 -103 102 -186 207 -186c20 0 40 1 60 4c-11 98 -28 190 -47 282c-59 -7 -93 -48 -93 -92c0 -34 20 -69 63 -93c5 -5 7 -11 7 -16c0 -12 -10 -23 -22 -23
c-3 0 -7 1 -10 2c-65 35 -95 94 -95 151c0 72 47 142 129 162c-11 47 -24 94 -38 141c-81 -101 -161 -203 -161 -332zM317 857c-76 -43 -122 -123 -122 -210c0 -55 16 -101 30 -146c58 79 105 161 105 260c0 41 -3 58 -13 96z" fill="currentColor"/>
<rect transform="translate(79.4964, 9.2100)" x="-0.0697" y="-3.8206" width="0.1395" height="3.8206" ry="0.0444" fill="currentColor"/>
<path transform="translate(79.5661, 9.1656) scale(0.0040, -0.0040)" d="M0 0h-18v250h18c96 59 222 149 222 259c0 57 -15 111 -40 162c-3 17 10 29 24 29c8 0 16 -5 21 -13c25 -56 40 -116 40 -178c0 -203 -267 -306 -267 -509z" fill="currentColor"/>
<path transform="translate(85.4266, 9.2100) scale(0.0040, -0.0040)" d="M69 -250l118 326c-33 -12 -68 -22 -103 -22c-46 0 -87 33 -87 79c0 40 33 72 73 72c25 0 49 -14 57 -38c10 -27 4 -59 33 -59c15 0 52 45 59 59c6 13 26 13 31 0l-121 -417c-9 -7 -19 -11 -30 -11s-21 4 -30 11z" fill="currentColor"/>
<path transform="translate(36.6534, 6.2100) scale(0.0040, -0.0040)" d="M215 137c57 0 111 -29 111 -92c0 -71 -54 -120 -101 -148c-35 -21 -74 -34 -114 -34c-57 0 -111 29 -111 92c0 71 54 120 101 148c35 21 74 34 114 34z" fill="currentColor"/>
<rect transform="translate(36.7231, 9.2100)" x="-0.0697" y="-2.8206" width="0.1395" height="3.3206" ry="0.0444" fill="currentColor"/>
<path transform="translate(21.0600, 9.2100) scale(0.0040, -0.0040)" d="M203 301c22 15 45 30 61 51c12 15 19 34 27 51c2 4 5 6 9 6c6 0 14 -6 14 -15v-238h74c10 0 16 -8 16 -16s-6 -15 -16 -15h-74v-5c0 -49 29 -95 75 -95c8 0 12 -7 12 -13s-4 -12 -12 -12c-45 0 -90 13 -135 13s-90 -13 -135 -13c-8 0 -12 6 -12 12s4 13 12 13
c46 0 75 46 75 95v5h-163c-24 0 -33 15 -33 24c0 3 1 6 2 7c80 92 134 205 134 327c0 10 6 17 14 17h3c24 -7 48 -13 73 -13s48 6 72 13c2 1 4 1 6 1c9 0 14 -7 14 -13c0 -2 0 -3 -2 -5l-283 -327h163v122c0 9 2 18 9 23z" fill="currentColor"/>
<path transform="translate(21.0600, 11.2586) scale(0.0040, -0.0040)" d="M203 301c22 15 45 30 61 51c12 15 19 34 27 51c2 4 5 6 9 6c6 0 14 -6 14 -15v-238h74c10 0 16 -8 16 -16s-6 -15 -16 -15h-74v-5c0 -49 29 -95 75 -95c8 0 12 -7 12 -13s-4 -12 -12 -12c-45 0 -90 13 -135 13s-90 -13 -135 -13c-8 0 -12 6 -12 12s4 13 12 13
c46 0 75 46 75 95v5h-163c-24 0 -33 15 -33 24c0 3 1 6 2 7c80 92 134 205 134 327c0 10 6 17 14 17h3c24 -7 48 -13 73 -13s48 6 72 13c2 1 4 1 6 1c9 0 14 -7 14 -13c0 -2 0 -3 -2 -5l-283 -327h163v122c0 9 2 18 9 23z" fill="currentColor"/>
<rect transform="translate(25.8864, 9.2100)" x="-0.0697" y="-0.0000" width="0.1395" height="3.8206" ry="0.0444" fill="currentColor"/>
<path transform="translate(16.8600, 8.2100) scale(0.0040, -0.0040)" d="M558 -125c0 28 22 51 50 51s51 -23 51 -51s-23 -51 -51 -51s-50 23 -50 51zM558 125c0 28 22 51 50 51s51 -23 51 -51s-23 -51 -51 -51s-50 23 -50 51zM231 264c172 0 294 -88 294 -251c0 -263 -262 -416 -515 -523c-3 -3 -7 -4 -10 -4c-7 0 -14 7 -14 14c0 3 1 7 4 10
c201 118 410 265 410 492c0 119 -61 234 -169 234c-72 0 -124 -53 -148 -123c10 4 19 6 29 6c55 0 100 -45 100 -100c0 -58 -44 -106 -100 -106c-60 0 -112 47 -112 106c0 133 101 245 231 245z" fill="currentColor"/>
<path transform="translate(24.6534, 13.2100) scale(0.0040, -0.0040)" d="M215 137c57 0 111 -29 111 -92c0 -71 -54 -120 -101 -148c-35 -21 -74 -34 -114 -34c-57 0 -111 29 -111 92c0 71 54 120 101 148c35 21 74 34 114 34z" fill="currentColor"/>
<path transform="translate(60.6534, 8.2100) scale(0.0040, -0.0040)" d="M178 -400h-16c-6 0 -11 5 -11 11v778c0 6 5 11 11 11h16c6 0 11 -5 11 -11v-239h143v300c0 39 35 70 74 70c37 0 66 -32 66 -70c0 -36 -30 -66 -66 -66c-13 0 -25 4 -36 12v-333c0 -7 -6 -13 -13 -13h-168v-100h168c7 0 13 -6 13 -13v-333c11 8 23 12 36 12
c36 0 66 -30 66 -66c0 -38 -29 -70 -66 -70c-39 0 -74 31 -74 70v300h-143v-239c0 -6 -5 -11 -11 -11zM102 -400h-91c-6 0 -11 5 -11 11v778c0 6 5 11 11 11h91c6 0 11 -5 11 -11v-778c0 -6 -5 -11 -11 -11z" fill="currentColor"/>
<rect transform="translate(63.5231, 9.2100)" x="-0.0697" y="-4.3206" width="0.1395" height="4.3206" ry="0.0444" fill="currentColor"/>
<path transform="translate(63.4534, 4.7100) scale(0.0040, -0.0040)" d="M215 137c57 0 111 -29 111 -92c0 -71 -54 -120 -101 -148c-35 -21 -74 -34 -114 -34c-57 0 -111 29 -111 92c0 71 54 120 101 148c35 21 74 34 114 34z" fill="currentColor"/>
<rect transform="translate(49.8864, 9.2100)" x="-0.0697" y="-3.0000" width="0.1395" height="3.3206" ry="0.0444" fill="currentColor"/>
<path transform="translate(48.6534, 9.7100) scale(0.0040, -0.0040)" d="M215 137c57 0 111 -29 111 -92c0 -71 -54 -120 -101 -148c-35 -21 -74 -34 -114 -34c-57 0 -111 29 -111 92c0 71 54 120 101 148c35 21 74 34 114 34z" fill="currentColor"/>
</svg>
