<svg xmlns="http://www.w3.org/2000/svg" xmlns:xlink="http://www.w3.org/1999/xlink" version="1.2" width="210.00mm" height="297.00mm" viewBox="0 0 119.5016 169.0094">
<style text="style/css">
<![CDATA[
tspan { white-space: pre; }
]]>
</style>
<!-- Page: 1/1 -->
<text transform="translate(5.6906, 2.8453)" font-family="serif" font-size="2.2001" text-anchor="start" fill="currentColor">
<tspan/>
</text>
<line transform="translate(14.2264, 17.6136)" stroke-linejoin="round" stroke-linecap="round" stroke-width="0.1000" stroke="currentColor" x1="0.0500" y1="-0.0000" x2="49.5370" y2="-0.0000"/>
<line transform="translate(14.2264, 16.6136)" stroke-linejoin="round" stroke-linecap="round" stroke-width="0.1000" stroke="currentColor" x1="0.0500" y1="-0.0000" x2="49.5370" y2="-0.0000"/>
<line transform="translate(14.2264, 15.6136)" stroke-linejoin="round" stroke-linecap="round" stroke-width="0.1000" stroke="currentColor" x1="0.0500" y1="-0.0000" x2="49.5370" y2="-0.0000"/>
<line transform="translate(14.2264, 14.6136)" stroke-linejoin="round" stroke-linecap="round" stroke-width="0.1000" stroke="currentColor" x1="0.0500" y1="-0.0000" x2="49.5370" y2="-0.0000"/>
<line transform="translate(14.2264, 13.6136)" stroke-linejoin="round" stroke-linecap="round" stroke-width="0.1000" stroke="currentColor" x1="0.0500" y1="-0.0000" x2="49.5370" y2="-0.0000"/>
<rect transform="translate(5.6906, 9.6136)" x="54.8984" y="-0.1000" width="1.8053" height="0.2000" ry="0.1000" fill="currentColor"/>
<rect transform="translate(5.6906, 10.6136)" x="54.7474" y="-0.1000" width="1.9563" height="0.2000" ry="0.1000" fill="currentColor"/>
<rect transform="translate(5.6906, 11.6136)" x="54.7474" y="-0.1000" width="1.9563" height="0.2000" ry="0.1000" fill="currentColor"/>
<rect transform="translate(5.6906, 12.6136)" x="54.7474" y="-0.1000" width="1.9563" height="0.2000" ry="0.1000" fill="currentColor"/>
<rect transform="translate(5.6906, 11.6136)" x="51.8962" y="-0.1000" width="1.8053" height="0.2000" ry="0.1000" fill="currentColor"/>
<rect transform="translate(5.6906, 12.6136)" x="51.7451" y="-0.1000" width="1.9563" height="0.2000" ry="0.1000" fill="currentColor"/>
<rect transform="translate(5.6906, 10.6136)" x="48.7543" y="-0.1000" width="1.8053" height="0.2000" ry="0.1000" fill="currentColor"/>
<rect transform="translate(5.6906, 11.6136)" x="48.6032" y="-0.1000" width="1.9563" height="0.2000" ry="0.1000" fill="currentColor"/>
<rect transform="translate(5.6906, 12.6136)" x="48.6032" y="-0.1000" width="1.9563" height="0.2000" ry="0.1000" fill="currentColor"/>
<rect transform="translate(5.6906, 11.6136)" x="34.8828" y="-0.1000" width="1.8053" height="0.2000" ry="0.1000" fill="currentColor"/>
<rect transform="translate(5.6906, 12.6136)" x="34.7318" y="-0.1000" width="1.9563" height="0.2000" ry="0.1000" fill="currentColor"/>
<rect transform="translate(5.6906, 12.6136)" x="31.8806" y="-0.1000" width="1.8053" height="0.2000" ry="0.1000" fill="currentColor"/>
<rect transform="translate(5.6906, 10.6136)" x="26.8910" y="-0.1000" width="1.8053" height="0.2000" ry="0.1000" fill="currentColor"/>
<rect transform="translate(5.6906, 11.6136)" x="26.7399" y="-0.1000" width="1.9563" height="0.2000" ry="0.1000" fill="currentColor"/>
<rect transform="translate(5.6906, 12.6136)" x="26.7399" y="-0.1000" width="1.9563" height="0.2000" ry="0.1000" fill="currentColor"/>
<rect transform="translate(5.6906, 18.6136)" x="17.4278" y="-0.1000" width="1.8053" height="0.2000" ry="0.1000" fill="currentColor"/>
<rect transform="translate(49.7605, 15.6136)" x="0.0000" y="-2.0000" width="0.1900" height="4.0000" ry="0.0000" fill="currentColor"/>
<rect transform="translate(35.6159, 15.6136)" x="0.0000" y="-2.0000" width="0.1900" height="4.0000" ry="0.0000" fill="currentColor"/>
<rect transform="translate(63.6234, 15.6136)" x="0.0000" y="-2.0000" width="0.1900" height="4.0000" ry="0.0000" fill="currentColor"/>
<rect transform="translate(32.8215, 15.6136)" x="-0.0650" y="-4.8139" width="0.1300" height="4.8139" ry="0.0400" fill="currentColor"/>
<text transform="translate(25.2286, 16.6136)" font-family="ekmelos" font-size="3.9200" text-anchor="start" fill="currentColor">
<tspan>♮</tspan>
</text>
<path transform="translate(29.5400, 17.6136) scale(0.0040, -0.0040)" d="M218 136c55 0 108 -28 108 -89c0 -71 -55 -121 -102 -149c-35 -21 -75 -34 -116 -34c-55 0 -108 28 -108 89c0 71 55 121 102 149c35 21 75 34 116 34z" fill="currentColor"/>
<text transform="translate(27.7646, 8.6513)" font-family="serif" font-size="2.2001" text-anchor="start" fill="currentColor">
<tspan>-14</tspan>
</text>
<rect transform="translate(30.7792, 15.6136)" x="-0.0650" y="-1.5000" width="0.1300" height="3.3139" ry="0.0400" fill="currentColor"/>
<text transform="translate(28.1999, 17.6136)" font-family="ekmelos" font-size="3.9200" text-anchor="start" fill="currentColor">
<tspan></tspan>
</text>
<path transform="translate(32.7565, 10.6136) scale(0.0040, -0.0040)" d="M218 136c55 0 108 -28 108 -89c0 -71 -55 -121 -102 -149c-35 -21 -75 -34 -116 -34c-55 0 -108 28 -108 89c0 71 55 121 102 149c35 21 75 34 116 34z" fill="currentColor"/>
<text transform="translate(30.9811, 6.5524)" font-family="serif" font-size="2.2001" text-anchor="start" fill="currentColor">
<tspan>-14</tspan>
</text>
<text transform="translate(42.6836, 14.6136)" font-family="ekmelos" font-size="3.9200" text-anchor="start" fill="currentColor">
<tspan>♮</tspan>
</text>
<text transform="translate(59.6970, 9.6136)" font-family="ekmelos" font-size="3.9200" text-anchor="start" fill="currentColor">
<tspan>♮</tspan>
</text>
<path transform="translate(26.2956, 16.6136) scale(0.0040, -0.0040)" d="M218 136c55 0 108 -28 108 -89c0 -71 -55 -121 -102 -149c-35 -21 -75 -34 -116 -34c-55 0 -108 28 -108 89c0 71 55 121 102 149c35 21 75 34 116 34z" fill="currentColor"/>
<text transform="translate(24.6738, 10.9306)" font-family="serif" font-size="2.2001" text-anchor="start" fill="currentColor">
<tspan>+2</tspan>
</text>
<rect transform="translate(27.5349, 15.6136)" x="-0.0650" y="-2.5000" width="0.1300" height="3.3139" ry="0.0400" fill="currentColor"/>
<path transform="translate(40.7484, 11.6136) scale(0.0040, -0.0040)" d="M218 136c55 0 108 -28 108 -89c0 -71 -55 -121 -102 -149c-35 -21 -75 -34 -116 -34c-55 0 -108 28 -108 89c0 71 55 121 102 149c35 21 75 34 116 34z" fill="currentColor"/>
<text transform="translate(39.1266, 7.4842)" font-family="serif" font-size="2.2001" text-anchor="start" fill="currentColor">
<tspan>+0</tspan>
</text>
<rect transform="translate(40.8134, 15.6136)" x="-0.0650" y="-3.8139" width="0.1300" height="3.8139" ry="0.0400" fill="currentColor"/>
<text transform="translate(39.6814, 11.6136)" font-family="ekmelos" font-size="3.9200" text-anchor="start" fill="currentColor">
<tspan>♮</tspan>
</text>
<path transform="translate(43.7506, 14.6136) scale(0.0040, -0.0040)" d="M218 136c55 0 108 -28 108 -89c0 -71 -55 -121 -102 -149c-35 -21 -75 -34 -116 -34c-55 0 -108 28 -108 89c0 71 55 121 102 149c35 21 75 34 116 34z" fill="currentColor"/>
<text transform="translate(42.1288, 10.5745)" font-family="serif" font-size="2.2001" text-anchor="start" fill="currentColor">
<tspan>+4</tspan>
</text>
<rect transform="translate(43.8156, 15.6136)" x="-0.0650" y="-0.8139" width="0.1300" height="3.3139" ry="0.0400" fill="currentColor"/>
<text transform="translate(31.4164, 10.6136)" font-family="ekmelos" font-size="3.9200" text-anchor="start" fill="currentColor">
<tspan></tspan>
</text>
<path transform="translate(37.7461, 12.6136) scale(0.0040, -0.0040)" d="M218 136c55 0 108 -28 108 -89c0 -71 -55 -121 -102 -149c-35 -21 -75 -34 -116 -34c-55 0 -108 28 -108 89c0 71 55 121 102 149c35 21 75 34 116 34z" fill="currentColor"/>
<text transform="translate(35.9707, 9.6172)" font-family="serif" font-size="2.2001" text-anchor="start" fill="currentColor">
<tspan>-16</tspan>
</text>
<rect transform="translate(37.8111, 15.6136)" x="-0.0650" y="-2.8139" width="0.1300" height="3.3139" ry="0.0400" fill="currentColor"/>
<text transform="translate(36.4059, 12.6136)" font-family="ekmelos" font-size="3.9200" text-anchor="start" fill="currentColor">
<tspan></tspan>
</text>
<text transform="translate(45.6548, 14.1136)" font-family="ekmelos" font-size="3.9200" text-anchor="start" fill="currentColor">
<tspan></tspan>
</text>
<path transform="translate(46.9950, 14.1136) scale(0.0040, -0.0040)" d="M218 136c55 0 108 -28 108 -89c0 -71 -55 -121 -102 -149c-35 -21 -75 -34 -116 -34c-55 0 -108 28 -108 89c0 71 55 121 102 149c35 21 75 34 116 34z" fill="currentColor"/>
<text transform="translate(45.2195, 8.4756)" font-family="serif" font-size="2.2001" text-anchor="start" fill="currentColor">
<tspan>-14</tspan>
</text>
<rect transform="translate(47.0600, 15.6136)" x="-0.0650" y="-1.3139" width="0.1300" height="3.3139" ry="0.0400" fill="currentColor"/>
<path transform="translate(51.6175, 15.1136) scale(0.0040, -0.0040)" d="M218 136c55 0 108 -28 108 -89c0 -71 -55 -121 -102 -149c-35 -21 -75 -34 -116 -34c-55 0 -108 28 -108 89c0 71 55 121 102 149c35 21 75 34 116 34z" fill="currentColor"/>
<text transform="translate(49.9957, 8.6172)" font-family="serif" font-size="2.2001" text-anchor="start" fill="currentColor">
<tspan>+0</tspan>
</text>
<rect transform="translate(60.8290, 15.6136)" x="-0.0650" y="-5.8139" width="0.1300" height="5.8139" ry="0.0400" fill="currentColor"/>
<rect transform="translate(24.5326, 15.6136)" x="-0.0650" y="-0.5000" width="0.1300" height="3.3139" ry="0.0400" fill="currentColor"/>
<path transform="translate(23.2934, 18.6136) scale(0.0040, -0.0040)" d="M218 136c55 0 108 -28 108 -89c0 -71 -55 -121 -102 -149c-35 -21 -75 -34 -116 -34c-55 0 -108 28 -108 89c0 71 55 121 102 149c35 21 75 34 116 34z" fill="currentColor"/>
<text transform="translate(21.6716, 13.0636)" font-family="serif" font-size="2.2001" text-anchor="start" fill="currentColor">
<tspan>+0</tspan>
</text>
<path transform="translate(15.0264, 16.6136) scale(0.0040, -0.0040)" d="M376 262c4 0 9 1 13 1c155 0 256 -128 256 -261c0 -76 -33 -154 -107 -210c-22 -17 -47 -28 -73 -36c3 -35 5 -70 5 -105c0 -19 -1 -39 -2 -58c-7 -120 -90 -228 -208 -228c-108 0 -195 88 -195 197c0 58 53 103 112 103c54 0 95 -47 95 -103c0 -52 -43 -95 -95 -95
c-11 0 -21 2 -31 6c26 -39 68 -65 117 -65c96 0 157 92 163 191c1 18 2 37 2 55c0 31 -1 61 -4 92c-29 -5 -58 -8 -89 -8c-188 0 -333 172 -333 374c0 177 131 306 248 441c-19 62 -37 125 -45 190c-6 52 -7 104 -7 156c0 115 55 224 149 292c3 2 7 3 10 3c4 0 7 0 10 -3
c71 -84 133 -245 133 -358c0 -143 -86 -255 -180 -364c21 -68 39 -138 56 -207zM461 -203c68 24 113 95 113 164c0 90 -66 179 -173 190c24 -116 46 -231 60 -354zM74 28c0 -135 129 -247 264 -247c28 0 55 2 82 6c-14 127 -37 245 -63 364c-79 -8 -124 -61 -124 -119
c0 -44 25 -91 81 -123c5 -5 7 -10 7 -15c0 -11 -10 -22 -22 -22c-3 0 -6 1 -9 2c-80 43 -117 115 -117 185c0 88 58 174 160 197c-14 58 -29 117 -46 175c-107 -121 -213 -243 -213 -403zM408 1045c-99 -48 -162 -149 -162 -259c0 -74 18 -133 36 -194
c80 97 146 198 146 324c0 55 -4 79 -20 129z" fill="currentColor"/>
<path transform="translate(19.2264, 15.6136) scale(0.0040, -0.0040)" d="M359 27c-49 0 -75 42 -75 75c0 38 27 77 72 77c4 0 9 0 14 -1c-28 37 -72 59 -120 59c-106 0 -113 -73 -113 -186v-51v-51c0 -113 7 -187 113 -187c80 0 139 70 158 151c2 7 7 10 12 10c6 0 13 -4 13 -12c0 -94 -105 -174 -183 -174c-68 0 -137 21 -184 70
c-49 51 -66 122 -66 193s17 142 66 193c47 49 116 69 184 69c87 0 160 -64 175 -150c1 -5 1 -9 1 -13c0 -40 -30 -72 -67 -72z" fill="currentColor"/>
<rect transform="translate(51.6825, 15.6136)" x="-0.0650" y="-0.3139" width="0.1300" height="3.3139" ry="0.0400" fill="currentColor"/>
<text transform="translate(22.2264, 18.6136)" font-family="ekmelos" font-size="3.9200" text-anchor="start" fill="currentColor">
<tspan>♮</tspan>
</text>
<rect transform="translate(57.8267, 15.6136)" x="-0.0650" y="-4.3139" width="0.1300" height="4.3139" ry="0.0400" fill="currentColor"/>
<text transform="translate(52.8444, 5.5183)" font-family="serif" font-size="2.2001" text-anchor="start" fill="currentColor">
<tspan>-14</tspan>
</text>
<rect transform="translate(54.6848, 15.6136)" x="-0.0650" y="-4.8139" width="0.1300" height="4.8139" ry="0.0400" fill="currentColor"/>
<text transform="translate(53.2796, 10.6136)" font-family="ekmelos" font-size="3.9200" text-anchor="start" fill="currentColor">
<tspan></tspan>
</text>
<path transform="translate(57.7617, 11.1136) scale(0.0040, -0.0040)" d="M218 136c55 0 108 -28 108 -89c0 -71 -55 -121 -102 -149c-35 -21 -75 -34 -116 -34c-55 0 -108 28 -108 89c0 71 55 121 102 149c35 21 75 34 116 34z" fill="currentColor"/>
<text transform="translate(54.0743, 7.6172)" font-family="serif" font-size="2.2001" text-anchor="start" fill="currentColor">
<tspan>C♯+39</tspan>
</text>
<text transform="translate(56.5240, 11.1136)" font-family="ekmelos" font-size="3.9200" text-anchor="start" fill="currentColor">
<tspan></tspan>
</text>
<path transform="translate(60.7640, 9.6136) scale(0.0040, -0.0040)" d="M218 136c55 0 108 -28 108 -89c0 -71 -55 -121 -102 -149c-35 -21 -75 -34 -116 -34c-55 0 -108 28 -108 89c0 71 55 121 102 149c35 21 75 34 116 34z" fill="currentColor"/>
<text transform="translate(59.1422, 5.4842)" font-family="serif" font-size="2.2001" text-anchor="start" fill="currentColor">
<tspan>+2</tspan>
</text>
<text transform="translate(50.5505, 15.1136)" font-family="ekmelos" font-size="3.9200" text-anchor="start" fill="currentColor">
<tspan>♮</tspan>
</text>
<path transform="translate(54.6198, 10.6136) scale(0.0040, -0.0040)" d="M218 136c55 0 108 -28 108 -89c0 -71 -55 -121 -102 -149c-35 -21 -75 -34 -116 -34c-55 0 -108 28 -108 89c0 71 55 121 102 149c35 21 75 34 116 34z" fill="currentColor"/>
<a transform="translate(28.2194, 165.1170)" xlink:href="http://lilypond.org/">
<rect x="0.0000" y="-0.4780" width="63.0627" height="2.1510" fill="none" stroke="none" stroke-width="0.0"/>
</a>
<text transform="translate(28.2194, 165.1170)" font-family="serif" font-size="2.2001" text-anchor="start" fill="currentColor">
<tspan>Music engraving by LilyPond 2.19.84—www.lilypond.org</tspan>
</text>
</svg>
