<svg xmlns="http://www.w3.org/2000/svg" xmlns:xlink="http://www.w3.org/1999/xlink" version="1.2" width="210.00mm" height="297.00mm" viewBox="0 0 119.5016 169.0094">
<style text="style/css">
<![CDATA[
tspan { white-space: pre; }
]]>
</style>
<!-- Page: 1/1 -->
<text transform="translate(5.6906, 2.8453)" font-family="serif" font-size="2.2001" text-anchor="start" fill="currentColor">
<tspan/>
</text>
<line transform="translate(14.2264, 11.1351)" stroke-linejoin="round" stroke-linecap="round" stroke-width="0.1000" stroke="currentColor" x1="0.0500" y1="-0.0000" x2="27.9407" y2="-0.0000"/>
<line transform="translate(14.2264, 10.1351)" stroke-linejoin="round" stroke-linecap="round" stroke-width="0.1000" stroke="currentColor" x1="0.0500" y1="-0.0000" x2="27.9407" y2="-0.0000"/>
<line transform="translate(14.2264, 9.1351)" stroke-linejoin="round" stroke-linecap="round" stroke-width="0.1000" stroke="currentColor" x1="0.0500" y1="-0.0000" x2="27.9407" y2="-0.0000"/>
<line transform="translate(14.2264, 8.1351)" stroke-linejoin="round" stroke-linecap="round" stroke-width="0.1000" stroke="currentColor" x1="0.0500" y1="-0.0000" x2="27.9407" y2="-0.0000"/>
<line transform="translate(14.2264, 7.1351)" stroke-linejoin="round" stroke-linecap="round" stroke-width="0.1000" stroke="currentColor" x1="0.0500" y1="-0.0000" x2="27.9407" y2="-0.0000"/>
<rect transform="translate(5.6906, 12.1351)" x="16.7453" y="-0.1000" width="2.9430" height="0.2000" ry="0.1000" fill="currentColor"/>
<rect transform="translate(42.0271, 9.1351)" x="0.0000" y="-2.0000" width="0.1900" height="4.0000" ry="0.0000" fill="currentColor"/>
<path transform="translate(22.9264, 12.1351) scale(0.0040, -0.0040)" d="M213 112c-50 0 -69 -43 -69 -88c0 -77 57 -136 134 -136c50 0 69 43 69 88c0 77 -57 136 -134 136zM491 0c0 -43 -34 -75 -72 -96c-53 -29 -114 -40 -174 -40s-120 11 -173 40c-38 21 -72 53 -72 96s34 75 72 96c53 29 113 40 173 40s121 -11 174 -40
c38 -21 72 -53 72 -96z" fill="currentColor"/>
<rect transform="translate(22.9264, 5.9444)" x="0.7335" y="-1.8899" width="0.0819" height="1.7951" ry="0.0136" fill="currentColor"/>
<path transform="translate(22.9264, 5.9444) scale(0.0025, -0.0025)" d="M204 141c63 0 120 -35 120 -103c0 -70 -50 -119 -97 -147c-33 -20 -70 -32 -108 -32c-63 0 -119 35 -119 103c0 70 49 119 96 147c33 20 70 32 108 32z" fill="currentColor"/>
<text transform="translate(24.3418, 6.2987)" font-family="serif" font-size="2.7719" text-anchor="start" fill="currentColor">
<tspan>=</tspan>
</text>
<text transform="translate(27.1135, 6.2987)" font-family="serif" font-size="2.7719" text-anchor="start" fill="currentColor">
<tspan>60</tspan>
</text>
<text transform="translate(32.6644, 6.2987)" font-family="serif" font-size="2.7719" text-anchor="start" fill="currentColor">
<tspan>[</tspan>
</text>
<g transform="scale(0.6000, 0.6000)">
<line transform="translate(58.0091, 6.4888)" stroke-linejoin="round" stroke-linecap="round" stroke-width="0.1600" stroke="currentColor" x1="4.2527" y1="-0.0000" x2="4.2527" y2="-0.0000"/>
<line transform="translate(58.0091, 6.4888)" stroke-linejoin="round" stroke-linecap="round" stroke-width="0.1600" stroke="currentColor" x1="-1.0000" y1="-0.0000" x2="-1.0000" y2="0.7000"/>
<line transform="translate(58.0091, 6.4888)" stroke-linejoin="round" stroke-linecap="round" stroke-width="0.1600" stroke="currentColor" x1="4.2527" y1="-0.0000" x2="3.7518" y2="-0.0000"/>
<line transform="translate(58.0091, 6.4888)" stroke-linejoin="round" stroke-linecap="round" stroke-width="0.1600" stroke="currentColor" x1="-1.0000" y1="-0.0000" x2="-0.7991" y2="-0.0000"/>
<text transform="translate(57.6099, 7.2912)" font-family="serif" font-style="italic" font-size="2.2001" text-anchor="start" fill="currentColor">
<tspan>3:2</tspan>
</text>
<path transform="translate(56.7617, 10.4978) scale(0.0040, -0.0040)" d="M314 65c0 24 -21 41 -42 41c-4 0 -8 0 -12 -1c-31 -9 -78 -40 -115 -64s-84 -53 -104 -78c-7 -8 -10 -18 -10 -28c0 -24 21 -41 42 -41c4 0 8 0 12 1c31 9 77 40 114 64s84 53 104 78c7 8 11 18 11 28zM262 136c46 0 82 -21 82 -71c0 -19 -4 -39 -10 -57
c-12 -37 -32 -72 -64 -94c-53 -36 -113 -50 -187 -50c-46 0 -83 21 -83 71c0 19 5 39 11 57c12 37 31 72 63 94c53 36 114 50 188 50z" fill="currentColor"/>
<rect transform="translate(58.0741, 10.4978)" x="-0.0650" y="-2.7590" width="0.1300" height="2.5000" ry="0.0400" fill="currentColor"/>
</g>
<g transform="scale(0.6000, 0.6000)">
<text transform="translate(63.3417, 10.4978)" font-family="serif" font-size="2.7719" text-anchor="start" fill="currentColor">
<tspan>=</tspan>
</text>
</g>
<g transform="scale(0.6000, 0.6000)">
</g>
<g transform="scale(0.6000, 0.6000)">
<path transform="translate(66.3301, 10.4978) scale(0.0040, -0.0040)" d="M314 65c0 24 -21 41 -42 41c-4 0 -8 0 -12 -1c-31 -9 -78 -40 -115 -64s-84 -53 -104 -78c-7 -8 -10 -18 -10 -28c0 -24 21 -41 42 -41c4 0 8 0 12 1c31 9 77 40 114 64s84 53 104 78c7 8 11 18 11 28zM262 136c46 0 82 -21 82 -71c0 -19 -4 -39 -10 -57
c-12 -37 -32 -72 -64 -94c-53 -36 -113 -50 -187 -50c-46 0 -83 21 -83 71c0 19 5 39 11 57c12 37 31 72 63 94c53 36 114 50 188 50z" fill="currentColor"/>
<rect transform="translate(67.6425, 10.4978)" x="-0.0650" y="-2.7590" width="0.1300" height="2.5000" ry="0.0400" fill="currentColor"/>
</g>
<text transform="translate(41.1245, 6.2987)" font-family="serif" font-size="2.7719" text-anchor="start" fill="currentColor">
<tspan>]</tspan>
</text>
<path transform="translate(15.0264, 10.1351) scale(0.0040, -0.0040)" d="M376 262c4 0 9 1 13 1c155 0 256 -128 256 -261c0 -76 -33 -154 -107 -210c-22 -17 -47 -28 -73 -36c3 -35 5 -70 5 -105c0 -19 -1 -39 -2 -58c-7 -120 -90 -228 -208 -228c-108 0 -195 88 -195 197c0 58 53 103 112 103c54 0 95 -47 95 -103c0 -52 -43 -95 -95 -95
c-11 0 -21 2 -31 6c26 -39 68 -65 117 -65c96 0 157 92 163 191c1 18 2 37 2 55c0 31 -1 61 -4 92c-29 -5 -58 -8 -89 -8c-188 0 -333 172 -333 374c0 177 131 306 248 441c-19 62 -37 125 -45 190c-6 52 -7 104 -7 156c0 115 55 224 149 292c3 2 7 3 10 3c4 0 7 0 10 -3
c71 -84 133 -245 133 -358c0 -143 -86 -255 -180 -364c21 -68 39 -138 56 -207zM461 -203c68 24 113 95 113 164c0 90 -66 179 -173 190c24 -116 46 -231 60 -354zM74 28c0 -135 129 -247 264 -247c28 0 55 2 82 6c-14 127 -37 245 -63 364c-79 -8 -124 -61 -124 -119
c0 -44 25 -91 81 -123c5 -5 7 -10 7 -15c0 -11 -10 -22 -22 -22c-3 0 -6 1 -9 2c-80 43 -117 115 -117 185c0 88 58 174 160 197c-14 58 -29 117 -46 175c-107 -121 -213 -243 -213 -403zM408 1045c-99 -48 -162 -149 -162 -259c0 -74 18 -133 36 -194
c80 97 146 198 146 324c0 55 -4 79 -20 129z" fill="currentColor"/>
<path transform="translate(19.2264, 9.1351) scale(0.0040, -0.0040)" d="M359 27c-49 0 -75 42 -75 75c0 38 27 77 72 77c4 0 9 0 14 -1c-28 37 -72 59 -120 59c-106 0 -113 -73 -113 -186v-51v-51c0 -113 7 -187 113 -187c80 0 139 70 158 151c2 7 7 10 12 10c6 0 13 -4 13 -12c0 -94 -105 -174 -183 -174c-68 0 -137 21 -184 70
c-49 51 -66 122 -66 193s17 142 66 193c47 49 116 69 184 69c87 0 160 -64 175 -150c1 -5 1 -9 1 -13c0 -40 -30 -72 -67 -72z" fill="currentColor"/>
<a transform="translate(28.2194, 165.1170)" xlink:href="http://lilypond.org/">
<rect x="0.0000" y="-0.4780" width="63.0627" height="2.1510" fill="none" stroke="none" stroke-width="0.0"/>
</a>
<text transform="translate(28.2194, 165.1170)" font-family="serif" font-size="2.2001" text-anchor="start" fill="currentColor">
<tspan>Music engraving by LilyPond 2.19.84—www.lilypond.org</tspan>
</text>
</svg>
