<svg xmlns="http://www.w3.org/2000/svg" xmlns:xlink="http://www.w3.org/1999/xlink" version="1.2" width="215.90mm" height="279.40mm" viewBox="0 0 163.8120 211.9920">
<style text="style/css">
<![CDATA[
tspan { white-space: pre; }
]]>
</style>
<!-- Page: 1/1 -->
<g color="rgb(49.8039%, 49.8039%, 49.8039%)">
<line transform="translate(20.0307, 10.5697)" stroke-linejoin="round" stroke-linecap="round" stroke-width="0.1219" stroke="currentColor" x1="0.0610" y1="-0.0000" x2="77.7390" y2="-0.0000"/>
<line transform="translate(20.0307, 9.5697)" stroke-linejoin="round" stroke-linecap="round" stroke-width="0.1219" stroke="currentColor" x1="0.0610" y1="-0.0000" x2="77.7390" y2="-0.0000"/>
<line transform="translate(20.0307, 8.5697)" stroke-linejoin="round" stroke-linecap="round" stroke-width="0.1219" stroke="currentColor" x1="0.0610" y1="-0.0000" x2="77.7390" y2="-0.0000"/>
<line transform="translate(20.0307, 7.5697)" stroke-linejoin="round" stroke-linecap="round" stroke-width="0.1219" stroke="currentColor" x1="0.0610" y1="-0.0000" x2="77.7390" y2="-0.0000"/>
<line transform="translate(20.0307, 6.5697)" stroke-linejoin="round" stroke-linecap="round" stroke-width="0.1219" stroke="currentColor" x1="0.0610" y1="-0.0000" x2="77.7390" y2="-0.0000"/>
</g>
<rect transform="translate(19.2720, 11.5697)" x="60.5244" y="-0.1110" width="1.6603" height="0.2219" ry="0.1110" fill="currentColor"/>
<rect transform="translate(19.2720, 11.5697)" x="42.4049" y="-0.1110" width="1.7798" height="0.2219" ry="0.1110" fill="currentColor"/>
<rect transform="translate(19.2720, 11.5697)" x="24.3862" y="-0.1110" width="1.7985" height="0.2219" ry="0.1110" fill="currentColor"/>
<rect transform="translate(19.2720, 11.5697)" x="6.3837" y="-0.1110" width="1.8010" height="0.2219" ry="0.1110" fill="currentColor"/>
<path transform="translate(78.7871, 12.0697) scale(0.0040, -0.0040)" d="M-8 375c8 5 18 7 27 7s18 -2 26 -7l-3 -192l102 23h4c10 0 19 -8 19 -18l8 -563c-8 -5 -18 -7 -27 -7s-18 2 -26 7l2 192l-101 -23h-4c-10 0 -19 8 -19 18zM128 110l-87 -19l-3 -201l88 19z" fill="currentColor"/>
<path transform="translate(78.7871, 12.0697)" stroke-width="0.1500" stroke-linejoin="round" stroke-linecap="round" stroke="currentColor" fill="none" d="M0.6000 0.9500L0.6000 1.7000M0.3000 1L0.6000 1.7800L0.9000 1"/>
<rect transform="translate(27.0523, 8.5697)" x="-0.0792" y="-0.0000" width="0.1585" height="3.3287" ry="0.0533" fill="currentColor"/>
<path transform="translate(24.6807, 12.0697) scale(0.0040, -0.0040)" d="M31 37l-2 -62v-11c0 -22 2 -43 5 -64c43 38 89 80 89 137c0 32 -14 65 -42 65c-31 0 -49 -32 -50 -65zM-16 -140l-14 590c9 5 20 8 30 8s21 -3 30 -8l-8 -340c25 24 59 38 94 38c50 0 84 -50 84 -104c0 -78 -83 -117 -141 -169c-17 -15 -25 -44 -49 -44
c-15 0 -26 13 -26 29z" fill="currentColor"/>
<path transform="translate(43.8307, 12.0697) scale(0.0040, -0.0040)" d="M212 138c59 0 113 -31 113 -95c0 -71 -52 -120 -99 -148c-34 -21 -73 -33 -113 -33c-59 0 -113 31 -113 95c0 71 53 120 100 148c34 21 72 33 112 33z" fill="currentColor"/>
<rect transform="translate(63.0523, 8.5697)" x="-0.0792" y="-0.0000" width="0.1585" height="3.3287" ry="0.0533" fill="currentColor"/>
<rect transform="translate(45.0523, 8.5697)" x="-0.0792" y="-0.0000" width="0.1585" height="3.3287" ry="0.0533" fill="currentColor"/>
<path transform="translate(42.5107, 12.0697) scale(0.0040, -0.0040)" d="M134 37c-1 33 -19 65 -50 65c-28 0 -42 -33 -42 -65c0 -57 46 -99 89 -137c3 21 5 42 5 64v11zM181 -140c0 -16 -11 -29 -26 -29c-24 0 -32 29 -49 44c-58 52 -141 91 -141 169c0 54 34 104 84 104c35 0 69 -14 94 -38l-8 340c9 5 20 8 30 8s21 -3 30 -8z" fill="currentColor"/>
<path transform="translate(42.5107, 12.0697)" stroke-width="0.1500" stroke-linejoin="round" stroke-linecap="round" stroke="currentColor" fill="none" d="M0.6000 0.6500L0.6000 1.4000M0.3000 0.7000L0.6000 1.4800L0.9000 0.7000"/>
<path transform="translate(25.8307, 12.0697) scale(0.0040, -0.0040)" d="M212 138c59 0 113 -31 113 -95c0 -71 -52 -120 -99 -148c-34 -21 -73 -33 -113 -33c-59 0 -113 31 -113 95c0 71 53 120 100 148c34 21 72 33 112 33z" fill="currentColor"/>
<path transform="translate(61.8307, 12.0697) scale(0.0040, -0.0040)" d="M212 138c59 0 113 -31 113 -95c0 -71 -52 -120 -99 -148c-34 -21 -73 -33 -113 -33c-59 0 -113 31 -113 95c0 71 53 120 100 148c34 21 72 33 112 33z" fill="currentColor"/>
<path transform="translate(60.7231, 12.0697) scale(0.0040, -0.0040)" d="M134 37c-1 33 -19 65 -50 65c-28 0 -42 -33 -42 -65c0 -57 46 -99 89 -137c3 21 5 42 5 64v11zM181 -140c0 -16 -11 -29 -26 -29c-24 0 -32 29 -49 44c-58 52 -141 91 -141 169c0 54 34 104 84 104c35 0 69 -14 94 -38l-8 340c9 5 20 8 30 8s21 -3 30 -8z" fill="currentColor"/>
<path transform="translate(20.8307, 9.5697) scale(0.0040, -0.0040)" d="M379 264c3 0 7 1 10 1c157 0 258 -129 258 -263c0 -77 -33 -155 -108 -211c-22 -16 -46 -29 -72 -37c3 -33 4 -66 4 -99c0 -21 0 -41 -1 -62c-7 -121 -91 -229 -211 -229c-108 0 -196 88 -196 197c0 58 54 103 113 103c54 0 95 -47 95 -103c0 -52 -43 -95 -95 -95
c-9 0 -18 1 -27 4c25 -37 66 -61 113 -61c95 0 156 93 162 191c1 19 2 38 2 57c0 29 -1 58 -3 87c-29 -5 -58 -8 -88 -8c-189 0 -333 173 -333 376c0 177 129 308 244 443c-20 62 -40 124 -48 189c-7 52 -7 105 -7 158c0 114 54 221 147 288c4 3 8 4 12 4c5 0 9 -2 13 -5
c72 -83 135 -243 135 -356c0 -142 -84 -255 -176 -364c21 -68 40 -136 57 -205zM463 -201c65 24 110 94 110 161c0 88 -64 175 -167 188c24 -114 44 -227 57 -349zM77 25c0 -133 128 -243 261 -243c27 0 55 1 81 5c-13 126 -35 244 -60 362c-79 -8 -124 -60 -124 -118
c0 -43 25 -88 80 -120c5 -5 7 -11 7 -17c0 -12 -10 -23 -23 -23c-3 0 -7 1 -10 2c-81 43 -118 115 -118 186c0 89 60 177 163 200c-14 57 -30 113 -47 169c-105 -122 -210 -243 -210 -403zM403 1038c-99 -46 -161 -145 -161 -254c0 -71 21 -130 39 -188
c78 97 142 199 142 324c0 51 -4 72 -20 118z" fill="currentColor"/>
<path transform="translate(79.8307, 12.0697) scale(0.0040, -0.0040)" d="M212 138c59 0 113 -31 113 -95c0 -71 -52 -120 -99 -148c-34 -21 -73 -33 -113 -33c-59 0 -113 31 -113 95c0 71 53 120 100 148c34 21 72 33 112 33z" fill="currentColor"/>
<rect transform="translate(81.0523, 8.5697)" x="-0.0792" y="-0.0000" width="0.1585" height="3.3287" ry="0.0533" fill="currentColor"/>
<g color="rgb(49.8039%, 49.8039%, 49.8039%)">
<line transform="translate(19.2720, 40.5697)" stroke-linejoin="round" stroke-linecap="round" stroke-width="0.1219" stroke="currentColor" x1="0.0610" y1="-0.0000" x2="77.7390" y2="-0.0000"/>
<line transform="translate(19.2720, 39.5697)" stroke-linejoin="round" stroke-linecap="round" stroke-width="0.1219" stroke="currentColor" x1="0.0610" y1="-0.0000" x2="77.7390" y2="-0.0000"/>
<line transform="translate(19.2720, 38.5697)" stroke-linejoin="round" stroke-linecap="round" stroke-width="0.1219" stroke="currentColor" x1="0.0610" y1="-0.0000" x2="77.7390" y2="-0.0000"/>
<line transform="translate(19.2720, 37.5697)" stroke-linejoin="round" stroke-linecap="round" stroke-width="0.1219" stroke="currentColor" x1="0.0610" y1="-0.0000" x2="77.7390" y2="-0.0000"/>
<line transform="translate(19.2720, 36.5697)" stroke-linejoin="round" stroke-linecap="round" stroke-width="0.1219" stroke="currentColor" x1="0.0610" y1="-0.0000" x2="77.7390" y2="-0.0000"/>
</g>
<rect transform="translate(19.2720, 41.5697)" x="59.7657" y="-0.1110" width="1.6603" height="0.2219" ry="0.1110" fill="currentColor"/>
<rect transform="translate(19.2720, 41.5697)" x="41.6462" y="-0.1110" width="1.7798" height="0.2219" ry="0.1110" fill="currentColor"/>
<rect transform="translate(19.2720, 41.5697)" x="23.6275" y="-0.1110" width="1.7985" height="0.2219" ry="0.1110" fill="currentColor"/>
<rect transform="translate(19.2720, 41.5697)" x="5.6115" y="-0.1110" width="1.8145" height="0.2219" ry="0.1110" fill="currentColor"/>
<path transform="translate(41.7520, 41.5697) scale(0.0040, -0.0040)" d="M134 37c-1 33 -19 65 -50 65c-28 0 -42 -33 -42 -65c0 -57 46 -99 89 -137c3 21 5 42 5 64v11zM181 -140c0 -16 -11 -29 -26 -29c-24 0 -32 29 -49 44c-58 52 -141 91 -141 169c0 54 34 104 84 104c35 0 69 -14 94 -38l-8 340c9 5 20 8 30 8s21 -3 30 -8z" fill="currentColor"/>
<path transform="translate(41.7520, 41.5697)" stroke-width="0.1500" stroke-linejoin="round" stroke-linecap="round" stroke="currentColor" fill="none" d="M0.6000 0.6500L0.6000 1.4000M0.3000 0.7000L0.6000 1.4800L0.9000 0.7000"/>
<path transform="translate(61.0720, 41.5697) scale(0.0040, -0.0040)" d="M212 138c59 0 113 -31 113 -95c0 -71 -52 -120 -99 -148c-34 -21 -73 -33 -113 -33c-59 0 -113 31 -113 95c0 71 53 120 100 148c34 21 72 33 112 33z" fill="currentColor"/>
<rect transform="translate(62.2936, 38.5697)" x="-0.0792" y="-0.5000" width="0.1585" height="3.3287" ry="0.0533" fill="currentColor"/>
<path transform="translate(59.9644, 41.5697) scale(0.0040, -0.0040)" d="M134 37c-1 33 -19 65 -50 65c-28 0 -42 -33 -42 -65c0 -57 46 -99 89 -137c3 21 5 42 5 64v11zM181 -140c0 -16 -11 -29 -26 -29c-24 0 -32 29 -49 44c-58 52 -141 91 -141 169c0 54 34 104 84 104c35 0 69 -14 94 -38l-8 340c9 5 20 8 30 8s21 -3 30 -8z" fill="currentColor"/>
<path transform="translate(79.0720, 41.5697) scale(0.0040, -0.0040)" d="M212 138c59 0 113 -31 113 -95c0 -71 -52 -120 -99 -148c-34 -21 -73 -33 -113 -33c-59 0 -113 31 -113 95c0 71 53 120 100 148c34 21 72 33 112 33z" fill="currentColor"/>
<rect transform="translate(80.2936, 38.5697)" x="-0.0792" y="-0.5000" width="0.1585" height="3.3287" ry="0.0533" fill="currentColor"/>
<path transform="translate(78.0284, 41.5697) scale(0.0040, -0.0040)" d="M-8 375c8 5 18 7 27 7s18 -2 26 -7l-3 -192l102 23h4c10 0 19 -8 19 -18l8 -563c-8 -5 -18 -7 -27 -7s-18 2 -26 7l2 192l-101 -23h-4c-10 0 -19 8 -19 18zM128 110l-87 -19l-3 -201l88 19z" fill="currentColor"/>
<path transform="translate(78.0284, 41.5697)" stroke-width="0.1500" stroke-linejoin="round" stroke-linecap="round" stroke="currentColor" fill="none" d="M0.6000 0.9500L0.6000 1.7000M0.3000 1L0.6000 1.7800L0.9000 1"/>
<path transform="translate(20.0720, 39.5697) scale(0.0040, -0.0040)" d="M379 264c3 0 7 1 10 1c157 0 258 -129 258 -263c0 -77 -33 -155 -108 -211c-22 -16 -46 -29 -72 -37c3 -33 4 -66 4 -99c0 -21 0 -41 -1 -62c-7 -121 -91 -229 -211 -229c-108 0 -196 88 -196 197c0 58 54 103 113 103c54 0 95 -47 95 -103c0 -52 -43 -95 -95 -95
c-9 0 -18 1 -27 4c25 -37 66 -61 113 -61c95 0 156 93 162 191c1 19 2 38 2 57c0 29 -1 58 -3 87c-29 -5 -58 -8 -88 -8c-189 0 -333 173 -333 376c0 177 129 308 244 443c-20 62 -40 124 -48 189c-7 52 -7 105 -7 158c0 114 54 221 147 288c4 3 8 4 12 4c5 0 9 -2 13 -5
c72 -83 135 -243 135 -356c0 -142 -84 -255 -176 -364c21 -68 40 -136 57 -205zM463 -201c65 24 110 94 110 161c0 88 -64 175 -167 188c24 -114 44 -227 57 -349zM77 25c0 -133 128 -243 261 -243c27 0 55 1 81 5c-13 126 -35 244 -60 362c-79 -8 -124 -60 -124 -118
c0 -43 25 -88 80 -120c5 -5 7 -11 7 -17c0 -12 -10 -23 -23 -23c-3 0 -7 1 -10 2c-81 43 -118 115 -118 186c0 89 60 177 163 200c-14 57 -30 113 -47 169c-105 -122 -210 -243 -210 -403zM403 1038c-99 -46 -161 -145 -161 -254c0 -71 21 -130 39 -188
c78 97 142 199 142 324c0 51 -4 72 -20 118z" fill="currentColor"/>
<path transform="translate(25.0720, 42.0697) scale(0.0040, -0.0040)" d="M212 138c59 0 113 -31 113 -95c0 -71 -52 -120 -99 -148c-34 -21 -73 -33 -113 -33c-59 0 -113 31 -113 95c0 71 53 120 100 148c34 21 72 33 112 33z" fill="currentColor"/>
<rect transform="translate(26.2936, 38.5697)" x="-0.0792" y="-0.0000" width="0.1585" height="3.3287" ry="0.0533" fill="currentColor"/>
<path transform="translate(24.0284, 42.0697) scale(0.0040, -0.0040)" d="M-8 375c8 5 18 7 27 7s18 -2 26 -7l-3 -192l102 23h4c10 0 19 -8 19 -18l8 -563c-8 -5 -18 -7 -27 -7s-18 2 -26 7l2 192l-101 -23h-4c-10 0 -19 8 -19 18zM128 110l-87 -19l-3 -201l88 19z" fill="currentColor"/>
<path transform="translate(43.0720, 41.5697) scale(0.0040, -0.0040)" d="M212 138c59 0 113 -31 113 -95c0 -71 -52 -120 -99 -148c-34 -21 -73 -33 -113 -33c-59 0 -113 31 -113 95c0 71 53 120 100 148c34 21 72 33 112 33z" fill="currentColor"/>
<rect transform="translate(44.2936, 38.5697)" x="-0.0792" y="-0.5000" width="0.1585" height="3.3287" ry="0.0533" fill="currentColor"/>
<g color="rgb(49.8039%, 49.8039%, 49.8039%)">
<line transform="translate(19.2720, 70.5697)" stroke-linejoin="round" stroke-linecap="round" stroke-width="0.1219" stroke="currentColor" x1="0.0610" y1="-0.0000" x2="77.7390" y2="-0.0000"/>
<line transform="translate(19.2720, 69.5697)" stroke-linejoin="round" stroke-linecap="round" stroke-width="0.1219" stroke="currentColor" x1="0.0610" y1="-0.0000" x2="77.7390" y2="-0.0000"/>
<line transform="translate(19.2720, 68.5697)" stroke-linejoin="round" stroke-linecap="round" stroke-width="0.1219" stroke="currentColor" x1="0.0610" y1="-0.0000" x2="77.7390" y2="-0.0000"/>
<line transform="translate(19.2720, 67.5697)" stroke-linejoin="round" stroke-linecap="round" stroke-width="0.1219" stroke="currentColor" x1="0.0610" y1="-0.0000" x2="77.7390" y2="-0.0000"/>
<line transform="translate(19.2720, 66.5697)" stroke-linejoin="round" stroke-linecap="round" stroke-width="0.1219" stroke="currentColor" x1="0.0610" y1="-0.0000" x2="77.7390" y2="-0.0000"/>
</g>
<rect transform="translate(19.2720, 71.5697)" x="59.6375" y="-0.1110" width="1.7885" height="0.2219" ry="0.1110" fill="currentColor"/>
<rect transform="translate(19.2720, 71.5697)" x="41.6250" y="-0.1110" width="1.8010" height="0.2219" ry="0.1110" fill="currentColor"/>
<rect transform="translate(19.2720, 71.5697)" x="23.6115" y="-0.1110" width="1.8145" height="0.2219" ry="0.1110" fill="currentColor"/>
<rect transform="translate(19.2720, 71.5697)" x="5.6115" y="-0.1110" width="1.8145" height="0.2219" ry="0.1110" fill="currentColor"/>
<rect transform="translate(44.2936, 68.5697)" x="-0.0792" y="-0.5000" width="0.1585" height="3.3287" ry="0.0533" fill="currentColor"/>
<path transform="translate(43.0720, 71.5697) scale(0.0040, -0.0040)" d="M212 138c59 0 113 -31 113 -95c0 -71 -52 -120 -99 -148c-34 -21 -73 -33 -113 -33c-59 0 -113 31 -113 95c0 71 53 120 100 148c34 21 72 33 112 33z" fill="currentColor"/>
<path transform="translate(24.0284, 71.5697) scale(0.0040, -0.0040)" d="M-8 375c8 5 18 7 27 7s18 -2 26 -7l-3 -192l102 23h4c10 0 19 -8 19 -18l8 -563c-8 -5 -18 -7 -27 -7s-18 2 -26 7l2 192l-101 -23h-4c-10 0 -19 8 -19 18zM128 110l-87 -19l-3 -201l88 19z" fill="currentColor"/>
<rect transform="translate(26.2936, 68.5697)" x="-0.0792" y="-0.5000" width="0.1585" height="3.3287" ry="0.0533" fill="currentColor"/>
<path transform="translate(25.0720, 71.5697) scale(0.0040, -0.0040)" d="M212 138c59 0 113 -31 113 -95c0 -71 -52 -120 -99 -148c-34 -21 -73 -33 -113 -33c-59 0 -113 31 -113 95c0 71 53 120 100 148c34 21 72 33 112 33z" fill="currentColor"/>
<path transform="translate(60.0220, 71.5697) scale(0.0040, -0.0040)" d="M108 -312c0 -12 -9 -20 -21 -20s-20 8 -20 20v112l-29 -17c-4 -2 -9 -4 -13 -4c-13 0 -25 11 -25 26v54c0 9 4 16 12 21l55 33v150l-29 -17c-4 -2 -9 -4 -13 -4c-13 0 -25 10 -25 25v54c0 9 4 17 12 22l55 32v137c0 12 8 20 20 20s21 -8 21 -20v-112l29 17c4 2 9 4 13 4
c13 0 25 -11 25 -26v-54c0 -9 -4 -16 -12 -21l-55 -33v-150l29 17c4 2 9 4 13 4c13 0 25 -10 25 -25v-54c0 -9 -4 -17 -12 -22l-55 -32v-137z" fill="currentColor"/>
<path transform="translate(79.0720, 71.5697) scale(0.0040, -0.0040)" d="M212 138c59 0 113 -31 113 -95c0 -71 -52 -120 -99 -148c-34 -21 -73 -33 -113 -33c-59 0 -113 31 -113 95c0 71 53 120 100 148c34 21 72 33 112 33z" fill="currentColor"/>
<rect transform="translate(80.2936, 68.5697)" x="-0.0792" y="-0.5000" width="0.1585" height="3.3287" ry="0.0533" fill="currentColor"/>
<path transform="translate(78.0220, 71.5697) scale(0.0040, -0.0040)" d="M108 -312c0 -12 -9 -20 -21 -20s-20 8 -20 20v112l-29 -17c-4 -2 -9 -4 -13 -4c-13 0 -25 11 -25 26v54c0 9 4 16 12 21l55 33v150l-29 -17c-4 -2 -9 -4 -13 -4c-13 0 -25 10 -25 25v54c0 9 4 17 12 22l55 32v137c0 12 8 20 20 20s21 -8 21 -20v-112l29 17c4 2 9 4 13 4
c13 0 25 -11 25 -26v-54c0 -9 -4 -16 -12 -21l-55 -33v-150l29 17c4 2 9 4 13 4c13 0 25 -10 25 -25v-54c0 -9 -4 -17 -12 -22l-55 -32v-137z" fill="currentColor"/>
<path transform="translate(78.0220, 71.5697)" stroke-width="0.1500" stroke-linejoin="round" stroke-linecap="round" stroke="currentColor" fill="none" d="M0.3500 -1.1500L0.3500 -2.0000M0.0500 -1.2000L0.3500 -2.0000L0.6500 -1.2000"/>
<path transform="translate(20.0720, 69.5697) scale(0.0040, -0.0040)" d="M379 264c3 0 7 1 10 1c157 0 258 -129 258 -263c0 -77 -33 -155 -108 -211c-22 -16 -46 -29 -72 -37c3 -33 4 -66 4 -99c0 -21 0 -41 -1 -62c-7 -121 -91 -229 -211 -229c-108 0 -196 88 -196 197c0 58 54 103 113 103c54 0 95 -47 95 -103c0 -52 -43 -95 -95 -95
c-9 0 -18 1 -27 4c25 -37 66 -61 113 -61c95 0 156 93 162 191c1 19 2 38 2 57c0 29 -1 58 -3 87c-29 -5 -58 -8 -88 -8c-189 0 -333 173 -333 376c0 177 129 308 244 443c-20 62 -40 124 -48 189c-7 52 -7 105 -7 158c0 114 54 221 147 288c4 3 8 4 12 4c5 0 9 -2 13 -5
c72 -83 135 -243 135 -356c0 -142 -84 -255 -176 -364c21 -68 40 -136 57 -205zM463 -201c65 24 110 94 110 161c0 88 -64 175 -167 188c24 -114 44 -227 57 -349zM77 25c0 -133 128 -243 261 -243c27 0 55 1 81 5c-13 126 -35 244 -60 362c-79 -8 -124 -60 -124 -118
c0 -43 25 -88 80 -120c5 -5 7 -11 7 -17c0 -12 -10 -23 -23 -23c-3 0 -7 1 -10 2c-81 43 -118 115 -118 186c0 89 60 177 163 200c-14 57 -30 113 -47 169c-105 -122 -210 -243 -210 -403zM403 1038c-99 -46 -161 -145 -161 -254c0 -71 21 -130 39 -188
c78 97 142 199 142 324c0 51 -4 72 -20 118z" fill="currentColor"/>
<path transform="translate(42.0284, 71.5697) scale(0.0040, -0.0040)" d="M-8 375c8 5 18 7 27 7s18 -2 26 -7l-3 -192l102 23h4c10 0 19 -8 19 -18l8 -563c-8 -5 -18 -7 -27 -7s-18 2 -26 7l2 192l-101 -23h-4c-10 0 -19 8 -19 18zM128 110l-87 -19l-3 -201l88 19z" fill="currentColor"/>
<path transform="translate(42.0284, 71.5697)" stroke-width="0.1500" stroke-linejoin="round" stroke-linecap="round" stroke="currentColor" fill="none" d="M-0.2200 -0.9000L0.0800 -1.7000L0.3800 -0.9000"/>
<path transform="translate(61.0720, 71.5697) scale(0.0040, -0.0040)" d="M212 138c59 0 113 -31 113 -95c0 -71 -52 -120 -99 -148c-34 -21 -73 -33 -113 -33c-59 0 -113 31 -113 95c0 71 53 120 100 148c34 21 72 33 112 33z" fill="currentColor"/>
<rect transform="translate(62.2936, 68.5697)" x="-0.0792" y="-0.5000" width="0.1585" height="3.3287" ry="0.0533" fill="currentColor"/>
<g color="rgb(49.8039%, 49.8039%, 49.8039%)">
<line transform="translate(19.2720, 100.5697)" stroke-linejoin="round" stroke-linecap="round" stroke-width="0.1219" stroke="currentColor" x1="0.0610" y1="-0.0000" x2="97.0390" y2="-0.0000"/>
<line transform="translate(19.2720, 99.5697)" stroke-linejoin="round" stroke-linecap="round" stroke-width="0.1219" stroke="currentColor" x1="0.0610" y1="-0.0000" x2="97.0390" y2="-0.0000"/>
<line transform="translate(19.2720, 98.5697)" stroke-linejoin="round" stroke-linecap="round" stroke-width="0.1219" stroke="currentColor" x1="0.0610" y1="-0.0000" x2="97.0390" y2="-0.0000"/>
<line transform="translate(19.2720, 97.5697)" stroke-linejoin="round" stroke-linecap="round" stroke-width="0.1219" stroke="currentColor" x1="0.0610" y1="-0.0000" x2="97.0390" y2="-0.0000"/>
<line transform="translate(19.2720, 96.5697)" stroke-linejoin="round" stroke-linecap="round" stroke-width="0.1219" stroke="currentColor" x1="0.0610" y1="-0.0000" x2="97.0390" y2="-0.0000"/>
</g>
<rect transform="translate(80.2936, 98.5697)" x="-0.0792" y="-1.0000" width="0.1585" height="3.3287" ry="0.0533" fill="currentColor"/>
<path transform="translate(79.0720, 101.0697) scale(0.0040, -0.0040)" d="M212 138c59 0 113 -31 113 -95c0 -71 -52 -120 -99 -148c-34 -21 -73 -33 -113 -33c-59 0 -113 31 -113 95c0 71 53 120 100 148c34 21 72 33 112 33z" fill="currentColor"/>
<path transform="translate(59.9644, 101.0697) scale(0.0040, -0.0040)" d="M134 37c-1 33 -19 65 -50 65c-28 0 -42 -33 -42 -65c0 -57 46 -99 89 -137c3 21 5 42 5 64v11zM181 -140c0 -16 -11 -29 -26 -29c-24 0 -32 29 -49 44c-58 52 -141 91 -141 169c0 54 34 104 84 104c35 0 69 -14 94 -38l-8 340c9 5 20 8 30 8s21 -3 30 -8z" fill="currentColor"/>
<rect transform="translate(62.2936, 98.5697)" x="-0.0792" y="-1.0000" width="0.1585" height="3.3287" ry="0.0533" fill="currentColor"/>
<path transform="translate(61.0720, 101.0697) scale(0.0040, -0.0040)" d="M212 138c59 0 113 -31 113 -95c0 -71 -52 -120 -99 -148c-34 -21 -73 -33 -113 -33c-59 0 -113 31 -113 95c0 71 53 120 100 148c34 21 72 33 112 33z" fill="currentColor"/>
<path transform="translate(41.7520, 101.0697) scale(0.0040, -0.0040)" d="M134 37c-1 33 -19 65 -50 65c-28 0 -42 -33 -42 -65c0 -57 46 -99 89 -137c3 21 5 42 5 64v11zM181 -140c0 -16 -11 -29 -26 -29c-24 0 -32 29 -49 44c-58 52 -141 91 -141 169c0 54 34 104 84 104c35 0 69 -14 94 -38l-8 340c9 5 20 8 30 8s21 -3 30 -8z" fill="currentColor"/>
<path transform="translate(41.7520, 101.0697)" stroke-width="0.1500" stroke-linejoin="round" stroke-linecap="round" stroke="currentColor" fill="none" d="M0.6000 0.6500L0.6000 1.4000M0.3000 0.7000L0.6000 1.4800L0.9000 0.7000"/>
<path transform="translate(78.0284, 101.0697) scale(0.0040, -0.0040)" d="M-8 375c8 5 18 7 27 7s18 -2 26 -7l-3 -192l102 23h4c10 0 19 -8 19 -18l8 -563c-8 -5 -18 -7 -27 -7s-18 2 -26 7l2 192l-101 -23h-4c-10 0 -19 8 -19 18zM128 110l-87 -19l-3 -201l88 19z" fill="currentColor"/>
<path transform="translate(78.0284, 101.0697)" stroke-width="0.1500" stroke-linejoin="round" stroke-linecap="round" stroke="currentColor" fill="none" d="M0.6000 0.9500L0.6000 1.7000M0.3000 1L0.6000 1.7800L0.9000 1"/>
<path transform="translate(98.3720, 101.0697) scale(0.0040, -0.0040)" d="M212 138c59 0 113 -31 113 -95c0 -71 -52 -120 -99 -148c-34 -21 -73 -33 -113 -33c-59 0 -113 31 -113 95c0 71 53 120 100 148c34 21 72 33 112 33z" fill="currentColor"/>
<rect transform="translate(99.5936, 98.5697)" x="-0.0792" y="-1.0000" width="0.1585" height="3.3287" ry="0.0533" fill="currentColor"/>
<path transform="translate(25.0720, 101.0697) scale(0.0040, -0.0040)" d="M212 138c59 0 113 -31 113 -95c0 -71 -52 -120 -99 -148c-34 -21 -73 -33 -113 -33c-59 0 -113 31 -113 95c0 71 53 120 100 148c34 21 72 33 112 33z" fill="currentColor"/>
<rect transform="translate(26.2936, 98.5697)" x="-0.0792" y="-1.0000" width="0.1585" height="3.3287" ry="0.0533" fill="currentColor"/>
<rect transform="translate(44.2936, 98.5697)" x="-0.0792" y="-1.0000" width="0.1585" height="3.3287" ry="0.0533" fill="currentColor"/>
<path transform="translate(20.0720, 99.5697) scale(0.0040, -0.0040)" d="M379 264c3 0 7 1 10 1c157 0 258 -129 258 -263c0 -77 -33 -155 -108 -211c-22 -16 -46 -29 -72 -37c3 -33 4 -66 4 -99c0 -21 0 -41 -1 -62c-7 -121 -91 -229 -211 -229c-108 0 -196 88 -196 197c0 58 54 103 113 103c54 0 95 -47 95 -103c0 -52 -43 -95 -95 -95
c-9 0 -18 1 -27 4c25 -37 66 -61 113 -61c95 0 156 93 162 191c1 19 2 38 2 57c0 29 -1 58 -3 87c-29 -5 -58 -8 -88 -8c-189 0 -333 173 -333 376c0 177 129 308 244 443c-20 62 -40 124 -48 189c-7 52 -7 105 -7 158c0 114 54 221 147 288c4 3 8 4 12 4c5 0 9 -2 13 -5
c72 -83 135 -243 135 -356c0 -142 -84 -255 -176 -364c21 -68 40 -136 57 -205zM463 -201c65 24 110 94 110 161c0 88 -64 175 -167 188c24 -114 44 -227 57 -349zM77 25c0 -133 128 -243 261 -243c27 0 55 1 81 5c-13 126 -35 244 -60 362c-79 -8 -124 -60 -124 -118
c0 -43 25 -88 80 -120c5 -5 7 -11 7 -17c0 -12 -10 -23 -23 -23c-3 0 -7 1 -10 2c-81 43 -118 115 -118 186c0 89 60 177 163 200c-14 57 -30 113 -47 169c-105 -122 -210 -243 -210 -403zM403 1038c-99 -46 -161 -145 -161 -254c0 -71 21 -130 39 -188
c78 97 142 199 142 324c0 51 -4 72 -20 118z" fill="currentColor"/>
<path transform="translate(43.0720, 101.0697) scale(0.0040, -0.0040)" d="M212 138c59 0 113 -31 113 -95c0 -71 -52 -120 -99 -148c-34 -21 -73 -33 -113 -33c-59 0 -113 31 -113 95c0 71 53 120 100 148c34 21 72 33 112 33z" fill="currentColor"/>
<path transform="translate(23.9220, 101.0697) scale(0.0040, -0.0040)" d="M31 37l-2 -62v-11c0 -22 2 -43 5 -64c43 38 89 80 89 137c0 32 -14 65 -42 65c-31 0 -49 -32 -50 -65zM-16 -140l-14 590c9 5 20 8 30 8s21 -3 30 -8l-8 -340c25 24 59 38 94 38c50 0 84 -50 84 -104c0 -78 -83 -117 -141 -169c-17 -15 -25 -44 -49 -44
c-15 0 -26 13 -26 29z" fill="currentColor"/>
<path transform="translate(97.3284, 101.0697) scale(0.0040, -0.0040)" d="M-8 375c8 5 18 7 27 7s18 -2 26 -7l-3 -192l102 23h4c10 0 19 -8 19 -18l8 -563c-8 -5 -18 -7 -27 -7s-18 2 -26 7l2 192l-101 -23h-4c-10 0 -19 8 -19 18zM128 110l-87 -19l-3 -201l88 19z" fill="currentColor"/>
</svg>
