<svg xmlns="http://www.w3.org/2000/svg" xmlns:xlink="http://www.w3.org/1999/xlink" version="1.2" width="210.00mm" height="297.00mm" viewBox="0 0 119.5016 169.0094">
<style text="style/css">
<![CDATA[
tspan { white-space: pre; }
]]>
</style>
<!-- Page: 1/1 -->
<text transform="translate(5.6906, 2.8453)" font-family="serif" font-size="2.2001" text-anchor="start" fill="currentColor">
<tspan/>
</text>
<line transform="translate(14.2264, 9.6213)" stroke-linejoin="round" stroke-linecap="round" stroke-width="0.1000" stroke="currentColor" x1="0.0500" y1="-0.0000" x2="25.7751" y2="-0.0000"/>
<line transform="translate(14.2264, 8.6213)" stroke-linejoin="round" stroke-linecap="round" stroke-width="0.1000" stroke="currentColor" x1="0.0500" y1="-0.0000" x2="25.7751" y2="-0.0000"/>
<line transform="translate(14.2264, 7.6213)" stroke-linejoin="round" stroke-linecap="round" stroke-width="0.1000" stroke="currentColor" x1="0.0500" y1="-0.0000" x2="25.7751" y2="-0.0000"/>
<line transform="translate(14.2264, 6.6213)" stroke-linejoin="round" stroke-linecap="round" stroke-width="0.1000" stroke="currentColor" x1="0.0500" y1="-0.0000" x2="25.7751" y2="-0.0000"/>
<line transform="translate(14.2264, 5.6213)" stroke-linejoin="round" stroke-linecap="round" stroke-width="0.1000" stroke="currentColor" x1="0.0500" y1="-0.0000" x2="25.7751" y2="-0.0000"/>
<rect transform="translate(5.6906, 10.6213)" x="17.8108" y="-0.1000" width="1.8053" height="0.2000" ry="0.1000" fill="currentColor"/>
<rect transform="translate(39.8615, 7.6213)" x="0.0000" y="-2.0000" width="0.1900" height="4.0000" ry="0.0000" fill="currentColor"/>
<path transform="translate(28.0582, 10.1213) scale(0.0040, -0.0040)" d="M218 136c55 0 108 -28 108 -89c0 -71 -55 -121 -102 -149c-35 -21 -75 -34 -116 -34c-55 0 -108 28 -108 89c0 71 55 121 102 149c35 21 75 34 116 34z" fill="currentColor"/>
<path transform="translate(29.2974, 9.6213) scale(0.0040, -0.0040)" d="M218 136c55 0 108 -28 108 -89c0 -71 -55 -121 -102 -149c-35 -21 -75 -34 -116 -34c-55 0 -108 28 -108 89c0 71 55 121 102 149c35 21 75 34 116 34z" fill="currentColor"/>
<rect transform="translate(29.2974, 7.6213)" x="-0.0650" y="-1.5000" width="0.1300" height="3.8139" ry="0.0400" fill="currentColor"/>
<g color="rgb(100.0000%, 100.0000%, 100.0000%)">
<text transform="translate(25.7856, 9.9713)" font-family="serif" font-weight="bold" font-size="1.3860" text-anchor="start" fill="currentColor">
<tspan>1</tspan>
</text>
<text transform="translate(25.7856, 11.1945)" font-family="serif" font-weight="bold" font-size="1.3860" text-anchor="start" fill="currentColor">
<tspan>3</tspan>
</text>
<path transform="translate(26.2636, 12.1885) scale(0.0025, -0.0025)" d="M-125 234c0 9 8 16 16 16c2 0 3 0 5 -1c34 -11 69 -16 104 -16s70 5 104 16c2 1 3 1 5 1c8 0 16 -7 16 -16c0 -5 -2 -9 -6 -12c-44 -37 -103 -165 -103 -222c0 -11 -8 -16 -16 -16s-16 5 -16 16c0 57 -59 185 -103 222c-4 3 -6 7 -6 12z" fill="currentColor"/>
<text transform="translate(25.7795, 10.0019)" font-family="serif" font-weight="bold" font-size="1.3860" text-anchor="start" fill="currentColor">
<tspan>1</tspan>
</text>
<text transform="translate(25.7795, 11.2251)" font-family="serif" font-weight="bold" font-size="1.3860" text-anchor="start" fill="currentColor">
<tspan>3</tspan>
</text>
<path transform="translate(26.2575, 12.2192) scale(0.0025, -0.0025)" d="M-125 234c0 9 8 16 16 16c2 0 3 0 5 -1c34 -11 69 -16 104 -16s70 5 104 16c2 1 3 1 5 1c8 0 16 -7 16 -16c0 -5 -2 -9 -6 -12c-44 -37 -103 -165 -103 -222c0 -11 -8 -16 -16 -16s-16 5 -16 16c0 57 -59 185 -103 222c-4 3 -6 7 -6 12z" fill="currentColor"/>
<text transform="translate(25.7622, 10.0278)" font-family="serif" font-weight="bold" font-size="1.3860" text-anchor="start" fill="currentColor">
<tspan>1</tspan>
</text>
<text transform="translate(25.7622, 11.2511)" font-family="serif" font-weight="bold" font-size="1.3860" text-anchor="start" fill="currentColor">
<tspan>3</tspan>
</text>
<path transform="translate(26.2402, 12.2451) scale(0.0025, -0.0025)" d="M-125 234c0 9 8 16 16 16c2 0 3 0 5 -1c34 -11 69 -16 104 -16s70 5 104 16c2 1 3 1 5 1c8 0 16 -7 16 -16c0 -5 -2 -9 -6 -12c-44 -37 -103 -165 -103 -222c0 -11 -8 -16 -16 -16s-16 5 -16 16c0 57 -59 185 -103 222c-4 3 -6 7 -6 12z" fill="currentColor"/>
<text transform="translate(25.7362, 10.0452)" font-family="serif" font-weight="bold" font-size="1.3860" text-anchor="start" fill="currentColor">
<tspan>1</tspan>
</text>
<text transform="translate(25.7362, 11.2684)" font-family="serif" font-weight="bold" font-size="1.3860" text-anchor="start" fill="currentColor">
<tspan>3</tspan>
</text>
<path transform="translate(26.2142, 12.2624) scale(0.0025, -0.0025)" d="M-125 234c0 9 8 16 16 16c2 0 3 0 5 -1c34 -11 69 -16 104 -16s70 5 104 16c2 1 3 1 5 1c8 0 16 -7 16 -16c0 -5 -2 -9 -6 -12c-44 -37 -103 -165 -103 -222c0 -11 -8 -16 -16 -16s-16 5 -16 16c0 57 -59 185 -103 222c-4 3 -6 7 -6 12z" fill="currentColor"/>
<text transform="translate(25.7056, 10.0513)" font-family="serif" font-weight="bold" font-size="1.3860" text-anchor="start" fill="currentColor">
<tspan>1</tspan>
</text>
<text transform="translate(25.7056, 11.2745)" font-family="serif" font-weight="bold" font-size="1.3860" text-anchor="start" fill="currentColor">
<tspan>3</tspan>
</text>
<path transform="translate(26.1836, 12.2685) scale(0.0025, -0.0025)" d="M-125 234c0 9 8 16 16 16c2 0 3 0 5 -1c34 -11 69 -16 104 -16s70 5 104 16c2 1 3 1 5 1c8 0 16 -7 16 -16c0 -5 -2 -9 -6 -12c-44 -37 -103 -165 -103 -222c0 -11 -8 -16 -16 -16s-16 5 -16 16c0 57 -59 185 -103 222c-4 3 -6 7 -6 12z" fill="currentColor"/>
<text transform="translate(25.6750, 10.0452)" font-family="serif" font-weight="bold" font-size="1.3860" text-anchor="start" fill="currentColor">
<tspan>1</tspan>
</text>
<text transform="translate(25.6750, 11.2684)" font-family="serif" font-weight="bold" font-size="1.3860" text-anchor="start" fill="currentColor">
<tspan>3</tspan>
</text>
<path transform="translate(26.1530, 12.2624) scale(0.0025, -0.0025)" d="M-125 234c0 9 8 16 16 16c2 0 3 0 5 -1c34 -11 69 -16 104 -16s70 5 104 16c2 1 3 1 5 1c8 0 16 -7 16 -16c0 -5 -2 -9 -6 -12c-44 -37 -103 -165 -103 -222c0 -11 -8 -16 -16 -16s-16 5 -16 16c0 57 -59 185 -103 222c-4 3 -6 7 -6 12z" fill="currentColor"/>
<text transform="translate(25.6490, 10.0278)" font-family="serif" font-weight="bold" font-size="1.3860" text-anchor="start" fill="currentColor">
<tspan>1</tspan>
</text>
<text transform="translate(25.6490, 11.2511)" font-family="serif" font-weight="bold" font-size="1.3860" text-anchor="start" fill="currentColor">
<tspan>3</tspan>
</text>
<path transform="translate(26.1270, 12.2451) scale(0.0025, -0.0025)" d="M-125 234c0 9 8 16 16 16c2 0 3 0 5 -1c34 -11 69 -16 104 -16s70 5 104 16c2 1 3 1 5 1c8 0 16 -7 16 -16c0 -5 -2 -9 -6 -12c-44 -37 -103 -165 -103 -222c0 -11 -8 -16 -16 -16s-16 5 -16 16c0 57 -59 185 -103 222c-4 3 -6 7 -6 12z" fill="currentColor"/>
<text transform="translate(25.6317, 10.0019)" font-family="serif" font-weight="bold" font-size="1.3860" text-anchor="start" fill="currentColor">
<tspan>1</tspan>
</text>
<text transform="translate(25.6317, 11.2251)" font-family="serif" font-weight="bold" font-size="1.3860" text-anchor="start" fill="currentColor">
<tspan>3</tspan>
</text>
<path transform="translate(26.1097, 12.2192) scale(0.0025, -0.0025)" d="M-125 234c0 9 8 16 16 16c2 0 3 0 5 -1c34 -11 69 -16 104 -16s70 5 104 16c2 1 3 1 5 1c8 0 16 -7 16 -16c0 -5 -2 -9 -6 -12c-44 -37 -103 -165 -103 -222c0 -11 -8 -16 -16 -16s-16 5 -16 16c0 57 -59 185 -103 222c-4 3 -6 7 -6 12z" fill="currentColor"/>
<text transform="translate(25.6256, 9.9713)" font-family="serif" font-weight="bold" font-size="1.3860" text-anchor="start" fill="currentColor">
<tspan>1</tspan>
</text>
<text transform="translate(25.6256, 11.1945)" font-family="serif" font-weight="bold" font-size="1.3860" text-anchor="start" fill="currentColor">
<tspan>3</tspan>
</text>
<path transform="translate(26.1036, 12.1885) scale(0.0025, -0.0025)" d="M-125 234c0 9 8 16 16 16c2 0 3 0 5 -1c34 -11 69 -16 104 -16s70 5 104 16c2 1 3 1 5 1c8 0 16 -7 16 -16c0 -5 -2 -9 -6 -12c-44 -37 -103 -165 -103 -222c0 -11 -8 -16 -16 -16s-16 5 -16 16c0 57 -59 185 -103 222c-4 3 -6 7 -6 12z" fill="currentColor"/>
<text transform="translate(25.6317, 9.9407)" font-family="serif" font-weight="bold" font-size="1.3860" text-anchor="start" fill="currentColor">
<tspan>1</tspan>
</text>
<text transform="translate(25.6317, 11.1639)" font-family="serif" font-weight="bold" font-size="1.3860" text-anchor="start" fill="currentColor">
<tspan>3</tspan>
</text>
<path transform="translate(26.1097, 12.1579) scale(0.0025, -0.0025)" d="M-125 234c0 9 8 16 16 16c2 0 3 0 5 -1c34 -11 69 -16 104 -16s70 5 104 16c2 1 3 1 5 1c8 0 16 -7 16 -16c0 -5 -2 -9 -6 -12c-44 -37 -103 -165 -103 -222c0 -11 -8 -16 -16 -16s-16 5 -16 16c0 57 -59 185 -103 222c-4 3 -6 7 -6 12z" fill="currentColor"/>
<text transform="translate(25.6490, 9.9147)" font-family="serif" font-weight="bold" font-size="1.3860" text-anchor="start" fill="currentColor">
<tspan>1</tspan>
</text>
<text transform="translate(25.6490, 11.1379)" font-family="serif" font-weight="bold" font-size="1.3860" text-anchor="start" fill="currentColor">
<tspan>3</tspan>
</text>
<path transform="translate(26.1270, 12.1320) scale(0.0025, -0.0025)" d="M-125 234c0 9 8 16 16 16c2 0 3 0 5 -1c34 -11 69 -16 104 -16s70 5 104 16c2 1 3 1 5 1c8 0 16 -7 16 -16c0 -5 -2 -9 -6 -12c-44 -37 -103 -165 -103 -222c0 -11 -8 -16 -16 -16s-16 5 -16 16c0 57 -59 185 -103 222c-4 3 -6 7 -6 12z" fill="currentColor"/>
<text transform="translate(25.6750, 9.8974)" font-family="serif" font-weight="bold" font-size="1.3860" text-anchor="start" fill="currentColor">
<tspan>1</tspan>
</text>
<text transform="translate(25.6750, 11.1206)" font-family="serif" font-weight="bold" font-size="1.3860" text-anchor="start" fill="currentColor">
<tspan>3</tspan>
</text>
<path transform="translate(26.1530, 12.1146) scale(0.0025, -0.0025)" d="M-125 234c0 9 8 16 16 16c2 0 3 0 5 -1c34 -11 69 -16 104 -16s70 5 104 16c2 1 3 1 5 1c8 0 16 -7 16 -16c0 -5 -2 -9 -6 -12c-44 -37 -103 -165 -103 -222c0 -11 -8 -16 -16 -16s-16 5 -16 16c0 57 -59 185 -103 222c-4 3 -6 7 -6 12z" fill="currentColor"/>
<text transform="translate(25.7056, 9.8913)" font-family="serif" font-weight="bold" font-size="1.3860" text-anchor="start" fill="currentColor">
<tspan>1</tspan>
</text>
<text transform="translate(25.7056, 11.1145)" font-family="serif" font-weight="bold" font-size="1.3860" text-anchor="start" fill="currentColor">
<tspan>3</tspan>
</text>
<path transform="translate(26.1836, 12.1085) scale(0.0025, -0.0025)" d="M-125 234c0 9 8 16 16 16c2 0 3 0 5 -1c34 -11 69 -16 104 -16s70 5 104 16c2 1 3 1 5 1c8 0 16 -7 16 -16c0 -5 -2 -9 -6 -12c-44 -37 -103 -165 -103 -222c0 -11 -8 -16 -16 -16s-16 5 -16 16c0 57 -59 185 -103 222c-4 3 -6 7 -6 12z" fill="currentColor"/>
<text transform="translate(25.7362, 9.8974)" font-family="serif" font-weight="bold" font-size="1.3860" text-anchor="start" fill="currentColor">
<tspan>1</tspan>
</text>
<text transform="translate(25.7362, 11.1206)" font-family="serif" font-weight="bold" font-size="1.3860" text-anchor="start" fill="currentColor">
<tspan>3</tspan>
</text>
<path transform="translate(26.2142, 12.1146) scale(0.0025, -0.0025)" d="M-125 234c0 9 8 16 16 16c2 0 3 0 5 -1c34 -11 69 -16 104 -16s70 5 104 16c2 1 3 1 5 1c8 0 16 -7 16 -16c0 -5 -2 -9 -6 -12c-44 -37 -103 -165 -103 -222c0 -11 -8 -16 -16 -16s-16 5 -16 16c0 57 -59 185 -103 222c-4 3 -6 7 -6 12z" fill="currentColor"/>
<text transform="translate(25.7622, 9.9147)" font-family="serif" font-weight="bold" font-size="1.3860" text-anchor="start" fill="currentColor">
<tspan>1</tspan>
</text>
<text transform="translate(25.7622, 11.1379)" font-family="serif" font-weight="bold" font-size="1.3860" text-anchor="start" fill="currentColor">
<tspan>3</tspan>
</text>
<path transform="translate(26.2402, 12.1320) scale(0.0025, -0.0025)" d="M-125 234c0 9 8 16 16 16c2 0 3 0 5 -1c34 -11 69 -16 104 -16s70 5 104 16c2 1 3 1 5 1c8 0 16 -7 16 -16c0 -5 -2 -9 -6 -12c-44 -37 -103 -165 -103 -222c0 -11 -8 -16 -16 -16s-16 5 -16 16c0 57 -59 185 -103 222c-4 3 -6 7 -6 12z" fill="currentColor"/>
<text transform="translate(25.7795, 9.9407)" font-family="serif" font-weight="bold" font-size="1.3860" text-anchor="start" fill="currentColor">
<tspan>1</tspan>
</text>
<text transform="translate(25.7795, 11.1639)" font-family="serif" font-weight="bold" font-size="1.3860" text-anchor="start" fill="currentColor">
<tspan>3</tspan>
</text>
<path transform="translate(26.2575, 12.1579) scale(0.0025, -0.0025)" d="M-125 234c0 9 8 16 16 16c2 0 3 0 5 -1c34 -11 69 -16 104 -16s70 5 104 16c2 1 3 1 5 1c8 0 16 -7 16 -16c0 -5 -2 -9 -6 -12c-44 -37 -103 -165 -103 -222c0 -11 -8 -16 -16 -16s-16 5 -16 16c0 57 -59 185 -103 222c-4 3 -6 7 -6 12z" fill="currentColor"/>
</g>
<text transform="translate(25.7056, 9.9713)" font-family="serif" font-weight="bold" font-size="1.3860" text-anchor="start" fill="currentColor">
<tspan>1</tspan>
</text>
<text transform="translate(25.7056, 11.1945)" font-family="serif" font-weight="bold" font-size="1.3860" text-anchor="start" fill="currentColor">
<tspan>3</tspan>
</text>
<path transform="translate(26.1836, 12.1885) scale(0.0025, -0.0025)" d="M-125 234c0 9 8 16 16 16c2 0 3 0 5 -1c34 -11 69 -16 104 -16s70 5 104 16c2 1 3 1 5 1c8 0 16 -7 16 -16c0 -5 -2 -9 -6 -12c-44 -37 -103 -165 -103 -222c0 -11 -8 -16 -16 -16s-16 5 -16 16c0 57 -59 185 -103 222c-4 3 -6 7 -6 12z" fill="currentColor"/>
<path transform="translate(27.0122, 9.6213) scale(0.0040, -0.0040)" d="M-8 375c8 4 17 7 26 7s16 -3 24 -7l-2 -183l106 20h3c10 0 18 -7 18 -17l7 -570c-8 -4 -16 -7 -25 -7s-17 3 -25 7l3 183l-106 -20h-3c-10 0 -18 7 -18 17zM131 112l-92 -17l-3 -207l92 17z" fill="currentColor"/>
<path transform="translate(32.2420, 9.1213) scale(0.0040, -0.0040)" d="M218 136c55 0 108 -28 108 -89c0 -71 -55 -121 -102 -149c-35 -21 -75 -34 -116 -34c-55 0 -108 28 -108 89c0 71 55 121 102 149c35 21 75 34 116 34z" fill="currentColor"/>
<rect transform="translate(33.4812, 7.6213)" x="-0.0650" y="-2.0000" width="0.1300" height="3.3139" ry="0.0400" fill="currentColor"/>
<path transform="translate(31.2016, 9.1213) scale(0.0040, -0.0040)" d="M-8 375c8 4 17 7 26 7s16 -3 24 -7l-2 -183l106 20h3c10 0 18 -7 18 -17l7 -570c-8 -4 -16 -7 -25 -7s-17 3 -25 7l3 183l-106 -20h-3c-10 0 -18 7 -18 17zM131 112l-92 -17l-3 -207l92 17z" fill="currentColor"/>
<path transform="translate(36.6583, 8.6213) scale(0.0040, -0.0040)" d="M218 136c55 0 108 -28 108 -89c0 -71 -55 -121 -102 -149c-35 -21 -75 -34 -116 -34c-55 0 -108 28 -108 89c0 71 55 121 102 149c35 21 75 34 116 34z" fill="currentColor"/>
<rect transform="translate(37.8975, 7.6213)" x="-0.0650" y="-2.5000" width="0.1300" height="3.3139" ry="0.0400" fill="currentColor"/>
<g color="rgb(100.0000%, 100.0000%, 100.0000%)">
<text transform="translate(34.8292, 8.4713)" font-family="serif" font-weight="bold" font-size="1.3860" text-anchor="start" fill="currentColor">
<tspan>5</tspan>
</text>
<text transform="translate(34.3512, 9.6945)" font-family="serif" font-weight="bold" font-size="1.3860" text-anchor="start" fill="currentColor">
<tspan>12</tspan>
</text>
<path transform="translate(35.3072, 10.6885) scale(0.0025, -0.0025)" d="M-125 234c0 9 8 16 16 16c2 0 3 0 5 -1c34 -11 69 -16 104 -16s70 5 104 16c2 1 3 1 5 1c8 0 16 -7 16 -16c0 -5 -2 -9 -6 -12c-44 -37 -103 -165 -103 -222c0 -11 -8 -16 -16 -16s-16 5 -16 16c0 57 -59 185 -103 222c-4 3 -6 7 -6 12z" fill="currentColor"/>
<text transform="translate(34.8231, 8.5019)" font-family="serif" font-weight="bold" font-size="1.3860" text-anchor="start" fill="currentColor">
<tspan>5</tspan>
</text>
<text transform="translate(34.3451, 9.7251)" font-family="serif" font-weight="bold" font-size="1.3860" text-anchor="start" fill="currentColor">
<tspan>12</tspan>
</text>
<path transform="translate(35.3012, 10.7192) scale(0.0025, -0.0025)" d="M-125 234c0 9 8 16 16 16c2 0 3 0 5 -1c34 -11 69 -16 104 -16s70 5 104 16c2 1 3 1 5 1c8 0 16 -7 16 -16c0 -5 -2 -9 -6 -12c-44 -37 -103 -165 -103 -222c0 -11 -8 -16 -16 -16s-16 5 -16 16c0 57 -59 185 -103 222c-4 3 -6 7 -6 12z" fill="currentColor"/>
<text transform="translate(34.8058, 8.5278)" font-family="serif" font-weight="bold" font-size="1.3860" text-anchor="start" fill="currentColor">
<tspan>5</tspan>
</text>
<text transform="translate(34.3278, 9.7511)" font-family="serif" font-weight="bold" font-size="1.3860" text-anchor="start" fill="currentColor">
<tspan>12</tspan>
</text>
<path transform="translate(35.2838, 10.7451) scale(0.0025, -0.0025)" d="M-125 234c0 9 8 16 16 16c2 0 3 0 5 -1c34 -11 69 -16 104 -16s70 5 104 16c2 1 3 1 5 1c8 0 16 -7 16 -16c0 -5 -2 -9 -6 -12c-44 -37 -103 -165 -103 -222c0 -11 -8 -16 -16 -16s-16 5 -16 16c0 57 -59 185 -103 222c-4 3 -6 7 -6 12z" fill="currentColor"/>
<text transform="translate(34.7799, 8.5452)" font-family="serif" font-weight="bold" font-size="1.3860" text-anchor="start" fill="currentColor">
<tspan>5</tspan>
</text>
<text transform="translate(34.3018, 9.7684)" font-family="serif" font-weight="bold" font-size="1.3860" text-anchor="start" fill="currentColor">
<tspan>12</tspan>
</text>
<path transform="translate(35.2579, 10.7624) scale(0.0025, -0.0025)" d="M-125 234c0 9 8 16 16 16c2 0 3 0 5 -1c34 -11 69 -16 104 -16s70 5 104 16c2 1 3 1 5 1c8 0 16 -7 16 -16c0 -5 -2 -9 -6 -12c-44 -37 -103 -165 -103 -222c0 -11 -8 -16 -16 -16s-16 5 -16 16c0 57 -59 185 -103 222c-4 3 -6 7 -6 12z" fill="currentColor"/>
<text transform="translate(34.7492, 8.5513)" font-family="serif" font-weight="bold" font-size="1.3860" text-anchor="start" fill="currentColor">
<tspan>5</tspan>
</text>
<text transform="translate(34.2712, 9.7745)" font-family="serif" font-weight="bold" font-size="1.3860" text-anchor="start" fill="currentColor">
<tspan>12</tspan>
</text>
<path transform="translate(35.2272, 10.7685) scale(0.0025, -0.0025)" d="M-125 234c0 9 8 16 16 16c2 0 3 0 5 -1c34 -11 69 -16 104 -16s70 5 104 16c2 1 3 1 5 1c8 0 16 -7 16 -16c0 -5 -2 -9 -6 -12c-44 -37 -103 -165 -103 -222c0 -11 -8 -16 -16 -16s-16 5 -16 16c0 57 -59 185 -103 222c-4 3 -6 7 -6 12z" fill="currentColor"/>
<text transform="translate(34.7186, 8.5452)" font-family="serif" font-weight="bold" font-size="1.3860" text-anchor="start" fill="currentColor">
<tspan>5</tspan>
</text>
<text transform="translate(34.2406, 9.7684)" font-family="serif" font-weight="bold" font-size="1.3860" text-anchor="start" fill="currentColor">
<tspan>12</tspan>
</text>
<path transform="translate(35.1966, 10.7624) scale(0.0025, -0.0025)" d="M-125 234c0 9 8 16 16 16c2 0 3 0 5 -1c34 -11 69 -16 104 -16s70 5 104 16c2 1 3 1 5 1c8 0 16 -7 16 -16c0 -5 -2 -9 -6 -12c-44 -37 -103 -165 -103 -222c0 -11 -8 -16 -16 -16s-16 5 -16 16c0 57 -59 185 -103 222c-4 3 -6 7 -6 12z" fill="currentColor"/>
<text transform="translate(34.6927, 8.5278)" font-family="serif" font-weight="bold" font-size="1.3860" text-anchor="start" fill="currentColor">
<tspan>5</tspan>
</text>
<text transform="translate(34.2147, 9.7511)" font-family="serif" font-weight="bold" font-size="1.3860" text-anchor="start" fill="currentColor">
<tspan>12</tspan>
</text>
<path transform="translate(35.1707, 10.7451) scale(0.0025, -0.0025)" d="M-125 234c0 9 8 16 16 16c2 0 3 0 5 -1c34 -11 69 -16 104 -16s70 5 104 16c2 1 3 1 5 1c8 0 16 -7 16 -16c0 -5 -2 -9 -6 -12c-44 -37 -103 -165 -103 -222c0 -11 -8 -16 -16 -16s-16 5 -16 16c0 57 -59 185 -103 222c-4 3 -6 7 -6 12z" fill="currentColor"/>
<text transform="translate(34.6753, 8.5019)" font-family="serif" font-weight="bold" font-size="1.3860" text-anchor="start" fill="currentColor">
<tspan>5</tspan>
</text>
<text transform="translate(34.1973, 9.7251)" font-family="serif" font-weight="bold" font-size="1.3860" text-anchor="start" fill="currentColor">
<tspan>12</tspan>
</text>
<path transform="translate(35.1533, 10.7192) scale(0.0025, -0.0025)" d="M-125 234c0 9 8 16 16 16c2 0 3 0 5 -1c34 -11 69 -16 104 -16s70 5 104 16c2 1 3 1 5 1c8 0 16 -7 16 -16c0 -5 -2 -9 -6 -12c-44 -37 -103 -165 -103 -222c0 -11 -8 -16 -16 -16s-16 5 -16 16c0 57 -59 185 -103 222c-4 3 -6 7 -6 12z" fill="currentColor"/>
<text transform="translate(34.6692, 8.4713)" font-family="serif" font-weight="bold" font-size="1.3860" text-anchor="start" fill="currentColor">
<tspan>5</tspan>
</text>
<text transform="translate(34.1912, 9.6945)" font-family="serif" font-weight="bold" font-size="1.3860" text-anchor="start" fill="currentColor">
<tspan>12</tspan>
</text>
<path transform="translate(35.1472, 10.6885) scale(0.0025, -0.0025)" d="M-125 234c0 9 8 16 16 16c2 0 3 0 5 -1c34 -11 69 -16 104 -16s70 5 104 16c2 1 3 1 5 1c8 0 16 -7 16 -16c0 -5 -2 -9 -6 -12c-44 -37 -103 -165 -103 -222c0 -11 -8 -16 -16 -16s-16 5 -16 16c0 57 -59 185 -103 222c-4 3 -6 7 -6 12z" fill="currentColor"/>
<text transform="translate(34.6753, 8.4407)" font-family="serif" font-weight="bold" font-size="1.3860" text-anchor="start" fill="currentColor">
<tspan>5</tspan>
</text>
<text transform="translate(34.1973, 9.6639)" font-family="serif" font-weight="bold" font-size="1.3860" text-anchor="start" fill="currentColor">
<tspan>12</tspan>
</text>
<path transform="translate(35.1533, 10.6579) scale(0.0025, -0.0025)" d="M-125 234c0 9 8 16 16 16c2 0 3 0 5 -1c34 -11 69 -16 104 -16s70 5 104 16c2 1 3 1 5 1c8 0 16 -7 16 -16c0 -5 -2 -9 -6 -12c-44 -37 -103 -165 -103 -222c0 -11 -8 -16 -16 -16s-16 5 -16 16c0 57 -59 185 -103 222c-4 3 -6 7 -6 12z" fill="currentColor"/>
<text transform="translate(34.6927, 8.4147)" font-family="serif" font-weight="bold" font-size="1.3860" text-anchor="start" fill="currentColor">
<tspan>5</tspan>
</text>
<text transform="translate(34.2147, 9.6379)" font-family="serif" font-weight="bold" font-size="1.3860" text-anchor="start" fill="currentColor">
<tspan>12</tspan>
</text>
<path transform="translate(35.1707, 10.6320) scale(0.0025, -0.0025)" d="M-125 234c0 9 8 16 16 16c2 0 3 0 5 -1c34 -11 69 -16 104 -16s70 5 104 16c2 1 3 1 5 1c8 0 16 -7 16 -16c0 -5 -2 -9 -6 -12c-44 -37 -103 -165 -103 -222c0 -11 -8 -16 -16 -16s-16 5 -16 16c0 57 -59 185 -103 222c-4 3 -6 7 -6 12z" fill="currentColor"/>
<text transform="translate(34.7186, 8.3974)" font-family="serif" font-weight="bold" font-size="1.3860" text-anchor="start" fill="currentColor">
<tspan>5</tspan>
</text>
<text transform="translate(34.2406, 9.6206)" font-family="serif" font-weight="bold" font-size="1.3860" text-anchor="start" fill="currentColor">
<tspan>12</tspan>
</text>
<path transform="translate(35.1966, 10.6146) scale(0.0025, -0.0025)" d="M-125 234c0 9 8 16 16 16c2 0 3 0 5 -1c34 -11 69 -16 104 -16s70 5 104 16c2 1 3 1 5 1c8 0 16 -7 16 -16c0 -5 -2 -9 -6 -12c-44 -37 -103 -165 -103 -222c0 -11 -8 -16 -16 -16s-16 5 -16 16c0 57 -59 185 -103 222c-4 3 -6 7 -6 12z" fill="currentColor"/>
<text transform="translate(34.7492, 8.3913)" font-family="serif" font-weight="bold" font-size="1.3860" text-anchor="start" fill="currentColor">
<tspan>5</tspan>
</text>
<text transform="translate(34.2712, 9.6145)" font-family="serif" font-weight="bold" font-size="1.3860" text-anchor="start" fill="currentColor">
<tspan>12</tspan>
</text>
<path transform="translate(35.2272, 10.6085) scale(0.0025, -0.0025)" d="M-125 234c0 9 8 16 16 16c2 0 3 0 5 -1c34 -11 69 -16 104 -16s70 5 104 16c2 1 3 1 5 1c8 0 16 -7 16 -16c0 -5 -2 -9 -6 -12c-44 -37 -103 -165 -103 -222c0 -11 -8 -16 -16 -16s-16 5 -16 16c0 57 -59 185 -103 222c-4 3 -6 7 -6 12z" fill="currentColor"/>
<text transform="translate(34.7799, 8.3974)" font-family="serif" font-weight="bold" font-size="1.3860" text-anchor="start" fill="currentColor">
<tspan>5</tspan>
</text>
<text transform="translate(34.3018, 9.6206)" font-family="serif" font-weight="bold" font-size="1.3860" text-anchor="start" fill="currentColor">
<tspan>12</tspan>
</text>
<path transform="translate(35.2579, 10.6146) scale(0.0025, -0.0025)" d="M-125 234c0 9 8 16 16 16c2 0 3 0 5 -1c34 -11 69 -16 104 -16s70 5 104 16c2 1 3 1 5 1c8 0 16 -7 16 -16c0 -5 -2 -9 -6 -12c-44 -37 -103 -165 -103 -222c0 -11 -8 -16 -16 -16s-16 5 -16 16c0 57 -59 185 -103 222c-4 3 -6 7 -6 12z" fill="currentColor"/>
<text transform="translate(34.8058, 8.4147)" font-family="serif" font-weight="bold" font-size="1.3860" text-anchor="start" fill="currentColor">
<tspan>5</tspan>
</text>
<text transform="translate(34.3278, 9.6379)" font-family="serif" font-weight="bold" font-size="1.3860" text-anchor="start" fill="currentColor">
<tspan>12</tspan>
</text>
<path transform="translate(35.2838, 10.6320) scale(0.0025, -0.0025)" d="M-125 234c0 9 8 16 16 16c2 0 3 0 5 -1c34 -11 69 -16 104 -16s70 5 104 16c2 1 3 1 5 1c8 0 16 -7 16 -16c0 -5 -2 -9 -6 -12c-44 -37 -103 -165 -103 -222c0 -11 -8 -16 -16 -16s-16 5 -16 16c0 57 -59 185 -103 222c-4 3 -6 7 -6 12z" fill="currentColor"/>
<text transform="translate(34.8231, 8.4407)" font-family="serif" font-weight="bold" font-size="1.3860" text-anchor="start" fill="currentColor">
<tspan>5</tspan>
</text>
<text transform="translate(34.3451, 9.6639)" font-family="serif" font-weight="bold" font-size="1.3860" text-anchor="start" fill="currentColor">
<tspan>12</tspan>
</text>
<path transform="translate(35.3012, 10.6579) scale(0.0025, -0.0025)" d="M-125 234c0 9 8 16 16 16c2 0 3 0 5 -1c34 -11 69 -16 104 -16s70 5 104 16c2 1 3 1 5 1c8 0 16 -7 16 -16c0 -5 -2 -9 -6 -12c-44 -37 -103 -165 -103 -222c0 -11 -8 -16 -16 -16s-16 5 -16 16c0 57 -59 185 -103 222c-4 3 -6 7 -6 12z" fill="currentColor"/>
</g>
<text transform="translate(34.7492, 8.4713)" font-family="serif" font-weight="bold" font-size="1.3860" text-anchor="start" fill="currentColor">
<tspan>5</tspan>
</text>
<text transform="translate(34.2712, 9.6945)" font-family="serif" font-weight="bold" font-size="1.3860" text-anchor="start" fill="currentColor">
<tspan>12</tspan>
</text>
<path transform="translate(35.2272, 10.6885) scale(0.0025, -0.0025)" d="M-125 234c0 9 8 16 16 16c2 0 3 0 5 -1c34 -11 69 -16 104 -16s70 5 104 16c2 1 3 1 5 1c8 0 16 -7 16 -16c0 -5 -2 -9 -6 -12c-44 -37 -103 -165 -103 -222c0 -11 -8 -16 -16 -16s-16 5 -16 16c0 57 -59 185 -103 222c-4 3 -6 7 -6 12z" fill="currentColor"/>
<path transform="translate(23.6764, 10.6213) scale(0.0040, -0.0040)" d="M218 136c55 0 108 -28 108 -89c0 -71 -55 -121 -102 -149c-35 -21 -75 -34 -116 -34c-55 0 -108 28 -108 89c0 71 55 121 102 149c35 21 75 34 116 34z" fill="currentColor"/>
<path transform="translate(15.0264, 8.6213) scale(0.0040, -0.0040)" d="M376 262c4 0 9 1 13 1c155 0 256 -128 256 -261c0 -76 -33 -154 -107 -210c-22 -17 -47 -28 -73 -36c3 -35 5 -70 5 -105c0 -19 -1 -39 -2 -58c-7 -120 -90 -228 -208 -228c-108 0 -195 88 -195 197c0 58 53 103 112 103c54 0 95 -47 95 -103c0 -52 -43 -95 -95 -95
c-11 0 -21 2 -31 6c26 -39 68 -65 117 -65c96 0 157 92 163 191c1 18 2 37 2 55c0 31 -1 61 -4 92c-29 -5 -58 -8 -89 -8c-188 0 -333 172 -333 374c0 177 131 306 248 441c-19 62 -37 125 -45 190c-6 52 -7 104 -7 156c0 115 55 224 149 292c3 2 7 3 10 3c4 0 7 0 10 -3
c71 -84 133 -245 133 -358c0 -143 -86 -255 -180 -364c21 -68 39 -138 56 -207zM461 -203c68 24 113 95 113 164c0 90 -66 179 -173 190c24 -116 46 -231 60 -354zM74 28c0 -135 129 -247 264 -247c28 0 55 2 82 6c-14 127 -37 245 -63 364c-79 -8 -124 -61 -124 -119
c0 -44 25 -91 81 -123c5 -5 7 -10 7 -15c0 -11 -10 -22 -22 -22c-3 0 -6 1 -9 2c-80 43 -117 115 -117 185c0 88 58 174 160 197c-14 58 -29 117 -46 175c-107 -121 -213 -243 -213 -403zM408 1045c-99 -48 -162 -149 -162 -259c0 -74 18 -133 36 -194
c80 97 146 198 146 324c0 55 -4 79 -20 129z" fill="currentColor"/>
<path transform="translate(19.2264, 7.6213) scale(0.0040, -0.0040)" d="M359 27c-49 0 -75 42 -75 75c0 38 27 77 72 77c4 0 9 0 14 -1c-28 37 -72 59 -120 59c-106 0 -113 -73 -113 -186v-51v-51c0 -113 7 -187 113 -187c80 0 139 70 158 151c2 7 7 10 12 10c6 0 13 -4 13 -12c0 -94 -105 -174 -183 -174c-68 0 -137 21 -184 70
c-49 51 -66 122 -66 193s17 142 66 193c47 49 116 69 184 69c87 0 160 -64 175 -150c1 -5 1 -9 1 -13c0 -40 -30 -72 -67 -72z" fill="currentColor"/>
<rect transform="translate(24.9156, 7.6213)" x="-0.0650" y="-0.5000" width="0.1300" height="3.3139" ry="0.0400" fill="currentColor"/>
<path transform="translate(22.2264, 10.6213) scale(0.0040, -0.0040)" d="M216 -312c0 -10 -8 -19 -18 -19s-19 9 -19 19v145l-83 -31v-158c0 -10 -9 -19 -19 -19s-18 9 -18 19v145l-32 -12c-2 -1 -5 -1 -7 -1c-11 0 -20 9 -20 20v60c0 8 5 16 13 19l46 16v160l-32 -11c-2 -1 -5 -1 -7 -1c-11 0 -20 9 -20 20v60c0 8 5 15 13 18l46 17v158
c0 10 8 19 18 19s19 -9 19 -19v-145l83 31v158c0 10 9 19 19 19s18 -9 18 -19v-145l32 12c2 1 5 1 7 1c11 0 20 -9 20 -20v-60c0 -8 -5 -16 -13 -19l-46 -16v-160l32 11c2 1 5 1 7 1c11 0 20 -9 20 -20v-60c0 -8 -5 -15 -13 -18l-46 -17v-158zM96 65v-160l83 30v160z" fill="currentColor"/>
<a transform="translate(28.2194, 165.1170)" xlink:href="http://lilypond.org/">
<rect x="0.0000" y="-0.4780" width="63.0627" height="2.1510" fill="none" stroke="none" stroke-width="0.0"/>
</a>
<text transform="translate(28.2194, 165.1170)" font-family="serif" font-size="2.2001" text-anchor="start" fill="currentColor">
<tspan>Music engraving by LilyPond 2.19.84—www.lilypond.org</tspan>
</text>
</svg>
