<svg xmlns="http://www.w3.org/2000/svg" xmlns:xlink="http://www.w3.org/1999/xlink" version="1.2" width="215.90mm" height="279.40mm" viewBox="0 0 163.8120 211.9920">
<style text="style/css">
<![CDATA[
tspan { white-space: pre; }
]]>
</style>
<!-- Page: 1/1 -->
<g color="rgb(49.8039%, 49.8039%, 49.8039%)">
<line transform="translate(20.0307, 10.5697)" stroke-linejoin="round" stroke-linecap="round" stroke-width="0.1219" stroke="currentColor" x1="0.0610" y1="-0.0000" x2="23.8541" y2="-0.0000"/>
<line transform="translate(20.0307, 9.5697)" stroke-linejoin="round" stroke-linecap="round" stroke-width="0.1219" stroke="currentColor" x1="0.0610" y1="-0.0000" x2="23.8541" y2="-0.0000"/>
<line transform="translate(20.0307, 8.5697)" stroke-linejoin="round" stroke-linecap="round" stroke-width="0.1219" stroke="currentColor" x1="0.0610" y1="-0.0000" x2="23.8541" y2="-0.0000"/>
<line transform="translate(20.0307, 7.5697)" stroke-linejoin="round" stroke-linecap="round" stroke-width="0.1219" stroke="currentColor" x1="0.0610" y1="-0.0000" x2="23.8541" y2="-0.0000"/>
<line transform="translate(20.0307, 6.5697)" stroke-linejoin="round" stroke-linecap="round" stroke-width="0.1219" stroke="currentColor" x1="0.0610" y1="-0.0000" x2="23.8541" y2="-0.0000"/>
</g>
<rect transform="translate(19.2720, 11.5697)" x="6.4988" y="-0.1110" width="1.8010" height="0.2219" ry="0.1110" fill="currentColor"/>
<rect transform="translate(27.1674, 8.5697)" x="-0.0792" y="-0.5000" width="0.1585" height="3.3287" ry="0.0533" fill="currentColor"/>
<path transform="translate(20.8307, 9.5697) scale(0.0040, -0.0040)" d="M379 264c3 0 7 1 10 1c157 0 258 -129 258 -263c0 -77 -33 -155 -108 -211c-22 -16 -46 -29 -72 -37c3 -33 4 -66 4 -99c0 -21 0 -41 -1 -62c-7 -121 -91 -229 -211 -229c-108 0 -196 88 -196 197c0 58 54 103 113 103c54 0 95 -47 95 -103c0 -52 -43 -95 -95 -95
c-9 0 -18 1 -27 4c25 -37 66 -61 113 -61c95 0 156 93 162 191c1 19 2 38 2 57c0 29 -1 58 -3 87c-29 -5 -58 -8 -88 -8c-189 0 -333 173 -333 376c0 177 129 308 244 443c-20 62 -40 124 -48 189c-7 52 -7 105 -7 158c0 114 54 221 147 288c4 3 8 4 12 4c5 0 9 -2 13 -5
c72 -83 135 -243 135 -356c0 -142 -84 -255 -176 -364c21 -68 40 -136 57 -205zM463 -201c65 24 110 94 110 161c0 88 -64 175 -167 188c24 -114 44 -227 57 -349zM77 25c0 -133 128 -243 261 -243c27 0 55 1 81 5c-13 126 -35 244 -60 362c-79 -8 -124 -60 -124 -118
c0 -43 25 -88 80 -120c5 -5 7 -11 7 -17c0 -12 -10 -23 -23 -23c-3 0 -7 1 -10 2c-81 43 -118 115 -118 186c0 89 60 177 163 200c-14 57 -30 113 -47 169c-105 -122 -210 -243 -210 -403zM403 1038c-99 -46 -161 -145 -161 -254c0 -71 21 -130 39 -188
c78 97 142 199 142 324c0 51 -4 72 -20 118z" fill="currentColor"/>
<path transform="translate(25.9458, 11.5697) scale(0.0040, -0.0040)" d="M212 138c59 0 113 -31 113 -95c0 -71 -52 -120 -99 -148c-34 -21 -73 -33 -113 -33c-59 0 -113 31 -113 95c0 71 53 120 100 148c34 21 72 33 112 33z" fill="currentColor"/>
<path transform="translate(23.9958, 11.5697) scale(0.0040, -0.0040)" d="M200 -346c-12 0 -21 9 -21 21v135l-71 -18v-146c0 -12 -8 -21 -20 -21s-21 9 -21 21v135l-35 -9c-2 -1 -5 -1 -7 -1c-13 0 -25 11 -25 25v54c0 11 8 22 19 25l48 12v156l-35 -9c-2 -1 -5 0 -7 0c-13 0 -25 11 -25 25v54c0 11 8 21 19 24l48 12v146c0 12 9 21 21 21
s20 -9 20 -21v-135l71 19v146c0 12 9 21 21 21s21 -9 21 -21v-135l71 18v146c0 12 8 21 20 21s21 -9 21 -21v-135l35 9c2 1 5 1 7 1c13 0 25 -11 25 -25v-54c0 -11 -8 -22 -19 -25l-48 -12v-156l35 9c2 1 5 0 7 0c13 0 25 -11 25 -25v-54c0 -11 -8 -21 -19 -24l-48 -12v-146
c0 -12 -9 -21 -21 -21s-20 9 -20 21v135l-71 -19v-146c0 -12 -9 -21 -21 -21zM108 54v-156l71 18v157zM292 102l-71 -18v-157l71 19v156z" fill="currentColor"/>
</svg>
