<svg xmlns="http://www.w3.org/2000/svg" xmlns:xlink="http://www.w3.org/1999/xlink" version="1.2" width="89.51mm" height="12.42mm" viewBox="0.0000 -0.0240 56.5934 7.8540">
<style text="style/css">
<![CDATA[
tspan { white-space: pre; }
]]>
</style>
<g color="rgb(49.8039%, 49.8039%, 49.8039%)">
<line transform="translate(0.0000, 5.7760)" stroke-linejoin="round" stroke-linecap="round" stroke-width="0.1073" stroke="currentColor" x1="0.0537" y1="-0.0000" x2="56.5397" y2="-0.0000"/>
<line transform="translate(0.0000, 4.7760)" stroke-linejoin="round" stroke-linecap="round" stroke-width="0.1073" stroke="currentColor" x1="0.0537" y1="-0.0000" x2="56.5397" y2="-0.0000"/>
<line transform="translate(0.0000, 3.7760)" stroke-linejoin="round" stroke-linecap="round" stroke-width="0.1073" stroke="currentColor" x1="0.0537" y1="-0.0000" x2="56.5397" y2="-0.0000"/>
<line transform="translate(0.0000, 2.7760)" stroke-linejoin="round" stroke-linecap="round" stroke-width="0.1073" stroke="currentColor" x1="0.0537" y1="-0.0000" x2="56.5397" y2="-0.0000"/>
<line transform="translate(0.0000, 1.7760)" stroke-linejoin="round" stroke-linecap="round" stroke-width="0.1073" stroke="currentColor" x1="0.0537" y1="-0.0000" x2="56.5397" y2="-0.0000"/>
</g>
<rect transform="translate(0.0000, 6.7760)" x="44.1633" y="-0.1037" width="2.5800" height="0.2073" ry="0.1037" fill="currentColor"/>
<rect transform="translate(0.0000, 6.7760)" x="32.2437" y="-0.1037" width="2.0979" height="0.2073" ry="0.1037" fill="currentColor"/>
<rect transform="translate(0.0000, 6.7760)" x="20.2684" y="-0.1037" width="1.9500" height="0.2073" ry="0.1037" fill="currentColor"/>
<rect transform="translate(0.0000, 6.7760)" x="8.2677" y="-0.1037" width="1.9542" height="0.2073" ry="0.1037" fill="currentColor"/>
<rect transform="translate(56.3895, 3.7760)" x="0.0000" y="-2.0537" width="0.2039" height="4.1073" ry="0.0000" fill="currentColor"/>
<polygon transform="translate(0.0000, 3.7760)" stroke-linejoin="round" stroke-linecap="round" stroke-width="0.2683" fill="currentColor" stroke="currentColor" points="30.2256 3.3777 30.2295 2.7213 31.5404 3.0573"/>
<line transform="translate(0.0000, 3.7760)" stroke-linejoin="round" stroke-linecap="round" stroke-width="0.2683" stroke="currentColor" x1="22.3934" y1="3.0030" x2="31.5434" y2="3.0573"/>
<path transform="translate(20.5934, 6.7760) scale(0.0040, -0.0040)" d="M89 51c-2 -2 -3 -5 -3 -8s1 -5 3 -7l104 -117c2 -2 5 -3 8 -3s7 1 9 3l26 30c2 2 3 5 3 8s-1 5 -3 7l-104 117c-2 2 -5 3 -8 3s-7 -1 -9 -3zM0 0c0 3 1 5 3 7c55 52 106 108 151 169c2 3 6 4 9 4s6 -1 8 -4c45 -61 96 -117 151 -169c2 -2 3 -4 3 -7s-1 -5 -3 -7
c-55 -52 -106 -108 -151 -169c-2 -3 -5 -4 -8 -4s-7 1 -9 4c-45 61 -96 117 -151 169c-2 2 -3 4 -3 7z" fill="currentColor"/>
<rect transform="translate(21.8236, 3.7760)" x="-0.0697" y="-0.5000" width="0.1395" height="3.5000" ry="0.0444" fill="currentColor"/>
<path transform="translate(32.5934, 6.7760) scale(0.0040, -0.0040)" d="M55 -172c0 26 7 53 7 79c0 90 -22 157 -58 220c-10 18 2 39 22 39c6 0 12 -2 17 -6c69 -57 165 -102 282 -102c14 0 25 -12 25 -26c0 -12 -8 -21 -19 -25c-97 -37 -177 -106 -227 -191c-13 -22 -49 -15 -49 12z" fill="currentColor"/>
<rect transform="translate(33.9222, 3.7760)" x="-0.0697" y="-0.5000" width="0.1395" height="3.3730" ry="0.0444" fill="currentColor"/>
<path transform="translate(44.5934, 6.7760) scale(0.0040, -0.0040)" d="M11 -264c-7 0 -11 6 -11 12c0 2 1 4 2 6l310 504c2 3 5 6 9 6h98c7 0 11 -6 11 -12c0 -2 -1 -4 -2 -6l-310 -504c-2 -3 -5 -6 -9 -6h-98z" fill="currentColor"/>
<rect transform="translate(46.2436, 3.7760)" x="-0.0697" y="-0.5000" width="0.1395" height="2.4460" ry="0.0444" fill="currentColor"/>
<path transform="translate(8.5934, 6.7760) scale(0.0040, -0.0040)" d="M215 137c57 0 111 -29 111 -92c0 -71 -54 -120 -101 -148c-35 -21 -74 -34 -114 -34c-57 0 -111 29 -111 92c0 71 54 120 101 148c35 21 74 34 114 34z" fill="currentColor"/>
<path transform="translate(0.8000, 4.7760) scale(0.0040, -0.0040)" d="M378 263c4 0 7 1 11 1c156 0 257 -129 257 -262c0 -76 -34 -154 -108 -210c-22 -17 -46 -29 -72 -37c3 -34 4 -68 4 -102c0 -20 0 -40 -1 -60c-7 -121 -90 -228 -209 -228c-108 0 -196 87 -196 196c0 58 53 104 112 104c54 0 95 -48 95 -104c0 -52 -43 -95 -95 -95
c-10 0 -20 2 -29 6c26 -38 68 -63 116 -63c95 0 156 91 162 190c1 19 2 37 2 56c0 30 -2 60 -4 90c-29 -5 -58 -8 -88 -8c-188 0 -333 173 -333 375c0 177 130 307 246 442c-20 62 -38 125 -46 190c-6 52 -7 104 -7 157c0 115 55 223 148 290c3 2 7 3 11 3s8 -1 11 -4
c71 -83 134 -244 134 -357c0 -143 -85 -255 -178 -364c21 -68 40 -137 57 -206zM462 -202c67 24 111 94 111 162c0 89 -65 178 -170 190c24 -115 46 -230 59 -352zM75 26c0 -134 129 -245 263 -245c28 0 55 2 81 6c-14 126 -36 244 -61 363c-79 -8 -124 -61 -124 -119
c0 -43 25 -89 80 -121c5 -5 7 -11 7 -16c0 -12 -10 -23 -22 -23c-3 0 -6 1 -9 2c-81 43 -118 116 -118 186c0 89 58 175 161 198c-14 58 -29 116 -46 173c-106 -122 -212 -244 -212 -404zM406 1042c-99 -47 -162 -148 -162 -257c0 -73 20 -132 38 -191
c79 97 144 199 144 324c0 53 -4 76 -20 124z" fill="currentColor"/>
<path transform="translate(5.0000, 3.7760) scale(0.0040, -0.0040)" d="M203 301c22 15 45 30 61 51c12 15 19 34 27 51c2 4 5 6 9 6c6 0 14 -6 14 -15v-238h74c10 0 16 -8 16 -16s-6 -15 -16 -15h-74v-5c0 -49 29 -95 75 -95c8 0 12 -7 12 -13s-4 -12 -12 -12c-45 0 -90 13 -135 13s-90 -13 -135 -13c-8 0 -12 6 -12 12s4 13 12 13
c46 0 75 46 75 95v5h-163c-24 0 -33 15 -33 24c0 3 1 6 2 7c80 92 134 205 134 327c0 10 6 17 14 17h3c24 -7 48 -13 73 -13s48 6 72 13c2 1 4 1 6 1c9 0 14 -7 14 -13c0 -2 0 -3 -2 -5l-283 -327h163v122c0 9 2 18 9 23z" fill="currentColor"/>
<path transform="translate(5.0000, 5.8246) scale(0.0040, -0.0040)" d="M203 301c22 15 45 30 61 51c12 15 19 34 27 51c2 4 5 6 9 6c6 0 14 -6 14 -15v-238h74c10 0 16 -8 16 -16s-6 -15 -16 -15h-74v-5c0 -49 29 -95 75 -95c8 0 12 -7 12 -13s-4 -12 -12 -12c-45 0 -90 13 -135 13s-90 -13 -135 -13c-8 0 -12 6 -12 12s4 13 12 13
c46 0 75 46 75 95v5h-163c-24 0 -33 15 -33 24c0 3 1 6 2 7c80 92 134 205 134 327c0 10 6 17 14 17h3c24 -7 48 -13 73 -13s48 6 72 13c2 1 4 1 6 1c9 0 14 -7 14 -13c0 -2 0 -3 -2 -5l-283 -327h163v122c0 9 2 18 9 23z" fill="currentColor"/>
<rect transform="translate(9.8264, 3.7760)" x="-0.0697" y="-0.5000" width="0.1395" height="3.3206" ry="0.0444" fill="currentColor"/>
</svg>
